<?xml version="1.0" encoding="UTF-8"?>
<svg xmlns="http://www.w3.org/2000/svg" version="1.1" viewBox="0 0 379.23 379.28">
  <!-- Generator: Adobe Illustrator 28.7.1, SVG Export Plug-In . SVG Version: 1.2.0 Build 142)  -->
  <g>
    <g id="pfeile">
      <polygon points="185.95 95.22 176.54 48.05 170.01 48.1 179.53 38.37 189.05 28.64 198.72 38.22 208.39 47.8 202.09 47.85 193.41 95.16 185.95 95.22" style="fill: #f0d1c7;"/>
      <polygon points="192.45 284.29 201.86 331.45 208.39 331.4 198.87 341.13 189.35 350.86 179.68 341.28 170.01 331.7 176.31 331.65 184.98 284.34 192.45 284.29" style="fill: #e9dfbe;"/>
      <polygon points="284.9 186.68 332.07 177.27 332.02 170.74 341.75 180.26 351.48 189.78 341.9 199.45 332.32 209.13 332.27 202.82 284.96 194.15 284.9 186.68" style="fill: #d2d5cb;"/>
      <polygon points="94.81 193.18 47.64 202.59 47.69 209.13 37.96 199.6 28.23 190.08 37.81 180.41 47.39 170.74 47.44 177.04 94.75 185.72 94.81 193.18" style="fill: rgb(247, 227, 196);"/>
    </g>
    <g id="zeit_verwendung">
      <path d="M189.49,202.77c-1.75-2.26-3.64-4.44-5.71-6.52-2.29-2.29-4.7-4.36-7.21-6.26-24.15-18.2-57.68-18.14-81.76.2-2.41,1.84-4.74,3.84-6.94,6.04-26.49,26.48-26.5,69.42-.02,95.91,26.48,26.49,69.42,26.5,95.91.02,2.18-2.17,4.15-4.47,5.97-6.85,18.59-24.32,18.51-58.31-.24-82.55Z" style="fill: #fcd799;"/>
      <g>
        <path d="M119.53,227.46h-3.28v-1.18h7.99v1.18h-3.3v9.6h-1.41v-9.6Z" style="fill: #1d1d1b;"/>
        <path d="M126.76,227.14c.02.48-.34.86-.9.86-.5,0-.85-.38-.85-.86s.37-.88.88-.88.86.38.86.88ZM125.2,237.07v-7.75h1.41v7.75h-1.41Z" style="fill: #1d1d1b;"/>
        <path d="M128.94,231.42c0-.8-.02-1.46-.06-2.1h1.23l.06,1.25h.05c.43-.74,1.15-1.42,2.43-1.42,1.06,0,1.86.64,2.19,1.55h.03c.24-.43.54-.77.86-1.01.46-.35.98-.54,1.71-.54,1.02,0,2.54.67,2.54,3.36v4.56h-1.38v-4.39c0-1.49-.54-2.38-1.68-2.38-.8,0-1.42.59-1.67,1.28-.06.19-.11.45-.11.7v4.79h-1.38v-4.64c0-1.23-.54-2.13-1.62-2.13-.88,0-1.52.7-1.74,1.41-.08.21-.11.45-.11.69v4.67h-1.38v-5.65Z" style="fill: #1d1d1b;"/>
        <path d="M143.07,233.45c.03,1.9,1.25,2.69,2.66,2.69,1.01,0,1.62-.18,2.15-.4l.24,1.01c-.5.22-1.34.48-2.58.48-2.39,0-3.81-1.57-3.81-3.91s1.38-4.18,3.63-4.18c2.53,0,3.2,2.23,3.2,3.65,0,.29-.03.51-.05.66h-5.44ZM147.2,232.44c.02-.9-.37-2.29-1.95-2.29-1.42,0-2.05,1.31-2.16,2.29h4.11Z" style="fill: #1d1d1b;"/>
        <path d="M123,245.48v6.39c0,2.42,1.07,3.44,2.51,3.44,1.6,0,2.62-1.06,2.62-3.44v-6.39h1.41v6.29c0,3.31-1.74,4.67-4.08,4.67-2.21,0-3.87-1.26-3.87-4.61v-6.35h1.41Z" style="fill: #1d1d1b;"/>
        <path d="M131.63,254.83c.42.27,1.15.56,1.86.56,1.02,0,1.5-.51,1.5-1.15,0-.67-.4-1.04-1.44-1.42-1.39-.5-2.05-1.26-2.05-2.19,0-1.25,1.01-2.27,2.67-2.27.78,0,1.47.22,1.9.48l-.35,1.02c-.3-.19-.86-.45-1.58-.45-.83,0-1.3.48-1.3,1.06,0,.64.46.93,1.47,1.31,1.34.51,2.03,1.18,2.03,2.34,0,1.36-1.06,2.32-2.9,2.32-.85,0-1.63-.21-2.18-.53l.35-1.07Z" style="fill: #1d1d1b;"/>
        <path d="M138.94,252.65c.03,1.9,1.25,2.69,2.66,2.69,1.01,0,1.62-.18,2.15-.4l.24,1.01c-.5.22-1.34.48-2.58.48-2.39,0-3.81-1.57-3.81-3.91s1.38-4.18,3.63-4.18c2.53,0,3.2,2.23,3.2,3.65,0,.29-.03.51-.05.66h-5.44ZM143.07,251.64c.02-.9-.37-2.29-1.95-2.29-1.42,0-2.05,1.31-2.16,2.29h4.11Z" style="fill: #1d1d1b;"/>
      </g>
    </g>
    <g id="notwendige_ausgaben">
      <path d="M291.46,88.61c-26.48-26.49-69.42-26.5-95.91-.02-2.11,2.11-4.03,4.33-5.8,6.63-18.59,24.11-18.74,57.85-.44,82.11,1.88,2.5,3.95,4.9,6.22,7.18,2.06,2.06,4.23,3.94,6.48,5.68,24.33,18.87,58.54,18.89,82.9.06,2.27-1.75,4.46-3.65,6.54-5.73,26.49-26.48,26.5-69.42.02-95.91Z" style="fill: #f0ae9f;"/>
      <g>
        <path d="M216.32,130.04v-10.79h1.52l3.46,5.46c.8,1.26,1.42,2.4,1.94,3.51l.03-.02c-.13-1.44-.16-2.75-.16-4.43v-4.51h1.31v10.79h-1.41l-3.43-5.47c-.75-1.2-1.47-2.43-2.02-3.6l-.05.02c.08,1.36.11,2.66.11,4.45v4.61h-1.31Z" style="fill: #1d1d1b;"/>
        <path d="M227.59,126.42c.03,1.9,1.25,2.69,2.66,2.69,1.01,0,1.62-.18,2.15-.4l.24,1.01c-.5.22-1.34.48-2.58.48-2.39,0-3.81-1.57-3.81-3.91s1.38-4.18,3.63-4.18c2.53,0,3.2,2.23,3.2,3.65,0,.29-.03.51-.05.66h-5.44ZM231.72,125.41c.02-.9-.37-2.29-1.95-2.29-1.42,0-2.05,1.31-2.16,2.29h4.11Z" style="fill: #1d1d1b;"/>
        <path d="M240.34,129.75c-.37.19-1.18.45-2.23.45-2.34,0-3.86-1.58-3.86-3.95s1.63-4.11,4.16-4.11c.83,0,1.57.21,1.95.4l-.32,1.09c-.34-.19-.86-.37-1.63-.37-1.78,0-2.74,1.31-2.74,2.93,0,1.79,1.15,2.9,2.69,2.9.8,0,1.33-.21,1.73-.38l.24,1.06Z" style="fill: #1d1d1b;"/>
        <path d="M242.67,126.42c.03,1.9,1.25,2.69,2.66,2.69,1.01,0,1.62-.18,2.15-.4l.24,1.01c-.5.22-1.34.48-2.58.48-2.39,0-3.81-1.57-3.81-3.91s1.38-4.18,3.63-4.18c2.53,0,3.2,2.23,3.2,3.65,0,.29-.03.51-.05.66h-5.44ZM246.8,125.41c.02-.9-.37-2.29-1.95-2.29-1.42,0-2.05,1.31-2.16,2.29h4.11Z" style="fill: #1d1d1b;"/>
        <path d="M249.71,128.6c.42.27,1.15.56,1.86.56,1.02,0,1.5-.51,1.5-1.15,0-.67-.4-1.04-1.44-1.42-1.39-.5-2.05-1.26-2.05-2.19,0-1.25,1.01-2.27,2.67-2.27.78,0,1.47.22,1.9.48l-.35,1.02c-.3-.19-.86-.45-1.58-.45-.83,0-1.3.48-1.3,1.06,0,.64.46.93,1.47,1.31,1.34.51,2.03,1.18,2.03,2.34,0,1.36-1.06,2.32-2.9,2.32-.85,0-1.63-.21-2.18-.53l.35-1.07Z" style="fill: #1d1d1b;"/>
        <path d="M256.05,128.6c.42.27,1.15.56,1.86.56,1.02,0,1.5-.51,1.5-1.15,0-.67-.4-1.04-1.44-1.42-1.39-.5-2.05-1.26-2.05-2.19,0-1.25,1.01-2.27,2.67-2.27.78,0,1.47.22,1.9.48l-.35,1.02c-.3-.19-.86-.45-1.58-.45-.83,0-1.3.48-1.3,1.06,0,.64.46.93,1.47,1.31,1.34.51,2.03,1.18,2.03,2.34,0,1.36-1.06,2.32-2.9,2.32-.85,0-1.63-.21-2.18-.53l.35-1.07Z" style="fill: #1d1d1b;"/>
        <path d="M266.87,130.04l-.11-.98h-.05c-.43.61-1.26,1.15-2.37,1.15-1.57,0-2.37-1.1-2.37-2.23,0-1.87,1.67-2.9,4.66-2.88v-.16c0-.64-.18-1.79-1.76-1.79-.72,0-1.47.22-2.02.58l-.32-.93c.64-.42,1.57-.69,2.54-.69,2.37,0,2.95,1.62,2.95,3.17v2.9c0,.67.03,1.33.13,1.86h-1.28ZM266.66,126.09c-1.54-.03-3.28.24-3.28,1.74,0,.91.61,1.34,1.33,1.34,1.01,0,1.65-.64,1.87-1.3.05-.14.08-.3.08-.45v-1.34Z" style="fill: #1d1d1b;"/>
        <path d="M270.29,124.71c0-.91-.02-1.7-.06-2.42h1.23l.05,1.52h.06c.35-1.04,1.2-1.7,2.14-1.7.16,0,.27.02.4.05v1.33c-.14-.03-.29-.05-.48-.05-.99,0-1.7.75-1.89,1.81-.03.19-.06.42-.06.66v4.13h-1.39v-5.33Z" style="fill: #1d1d1b;"/>
        <path d="M276.43,122.29l1.7,4.58c.18.51.37,1.12.5,1.58h.03c.14-.46.3-1.06.5-1.62l1.54-4.55h1.49l-2.11,5.52c-1.01,2.66-1.7,4.02-2.66,4.85-.69.61-1.38.85-1.73.91l-.35-1.18c.35-.11.82-.34,1.23-.69.38-.3.86-.85,1.18-1.57.06-.14.11-.26.11-.34s-.03-.19-.1-.37l-2.87-7.14h1.54Z" style="fill: #1d1d1b;"/>
        <path d="M224.52,144.18h-4.19v3.89h4.67v1.17h-6.07v-10.79h5.83v1.17h-4.43v3.41h4.19v1.15Z" style="fill: #1d1d1b;"/>
        <path d="M227.41,141.49l1.1,1.66c.29.43.53.83.78,1.26h.05c.26-.46.51-.86.77-1.28l1.09-1.65h1.52l-2.64,3.75,2.72,4h-1.6l-1.14-1.74c-.3-.45-.56-.88-.83-1.34h-.03c-.26.46-.53.88-.82,1.34l-1.12,1.74h-1.55l2.75-3.95-2.63-3.79h1.57Z" style="fill: #1d1d1b;"/>
        <path d="M234.16,144.02c0-.99-.03-1.79-.06-2.53h1.26l.06,1.33h.03c.58-.94,1.49-1.5,2.75-1.5,1.87,0,3.28,1.58,3.28,3.94,0,2.79-1.7,4.16-3.52,4.16-1.02,0-1.92-.45-2.38-1.22h-.03v4.21h-1.39v-8.39ZM235.55,146.09c0,.21.03.4.06.58.26.98,1.1,1.65,2.11,1.65,1.49,0,2.35-1.22,2.35-2.99,0-1.55-.82-2.88-2.3-2.88-.96,0-1.86.69-2.13,1.74-.05.18-.1.38-.1.58v1.33Z" style="fill: #1d1d1b;"/>
        <path d="M244.05,145.62c.03,1.9,1.25,2.69,2.66,2.69,1.01,0,1.62-.18,2.15-.4l.24,1.01c-.5.22-1.34.48-2.58.48-2.39,0-3.81-1.57-3.81-3.91s1.38-4.18,3.63-4.18c2.53,0,3.2,2.23,3.2,3.65,0,.29-.03.51-.05.66h-5.44ZM248.18,144.61c.02-.9-.37-2.29-1.95-2.29-1.42,0-2.05,1.31-2.16,2.29h4.11Z" style="fill: #1d1d1b;"/>
        <path d="M251.28,143.59c0-.8-.02-1.46-.06-2.1h1.25l.08,1.28h.03c.38-.74,1.28-1.46,2.56-1.46,1.07,0,2.74.64,2.74,3.3v4.63h-1.41v-4.47c0-1.25-.46-2.29-1.79-2.29-.93,0-1.65.66-1.89,1.44-.06.18-.1.42-.1.66v4.66h-1.41v-5.65Z" style="fill: #1d1d1b;"/>
        <path d="M259.97,147.8c.42.27,1.15.56,1.86.56,1.02,0,1.5-.51,1.5-1.15,0-.67-.4-1.04-1.44-1.42-1.39-.5-2.05-1.26-2.05-2.19,0-1.25,1.01-2.27,2.67-2.27.78,0,1.47.22,1.9.48l-.35,1.02c-.3-.19-.86-.45-1.58-.45-.83,0-1.3.48-1.3,1.06,0,.64.46.93,1.47,1.31,1.34.51,2.03,1.18,2.03,2.34,0,1.36-1.06,2.32-2.9,2.32-.85,0-1.63-.21-2.18-.53l.35-1.07Z" style="fill: #1d1d1b;"/>
        <path d="M267.28,145.62c.03,1.9,1.25,2.69,2.66,2.69,1.01,0,1.62-.18,2.15-.4l.24,1.01c-.5.22-1.34.48-2.58.48-2.39,0-3.81-1.57-3.81-3.91s1.38-4.18,3.63-4.18c2.53,0,3.2,2.23,3.2,3.65,0,.29-.03.51-.05.66h-5.44ZM271.41,144.61c.02-.9-.37-2.29-1.95-2.29-1.42,0-2.05,1.31-2.16,2.29h4.11Z" style="fill: #1d1d1b;"/>
        <path d="M274.32,147.8c.42.27,1.15.56,1.86.56,1.02,0,1.5-.51,1.5-1.15,0-.67-.4-1.04-1.44-1.42-1.39-.5-2.05-1.26-2.05-2.19,0-1.25,1.01-2.27,2.67-2.27.78,0,1.47.22,1.9.48l-.35,1.02c-.3-.19-.86-.45-1.58-.45-.83,0-1.3.48-1.3,1.06,0,.64.46.93,1.47,1.31,1.34.51,2.03,1.18,2.03,2.34,0,1.36-1.06,2.32-2.9,2.32-.85,0-1.63-.21-2.18-.53l.35-1.07Z" style="fill: #1d1d1b;"/>
      </g>
    </g>
    <g id="soziale_infrastrukturen">
      <path d="M291.38,195.94c-2.06-2.06-4.23-3.94-6.48-5.68-24.33-18.87-58.54-18.89-82.9-.06-2.27,1.75-4.46,3.65-6.54,5.73-2.18,2.17-4.15,4.47-5.97,6.85-18.59,24.32-18.51,58.31.24,82.55,1.75,2.26,3.64,4.44,5.71,6.52,26.48,26.49,69.42,26.5,95.91.02,26.49-26.48,26.5-69.42.02-95.91Z" style="fill: #a5cdc8;"/>
      <g>
        <path d="M234.55,235.19c.62.38,1.54.7,2.5.7,1.42,0,2.26-.75,2.26-1.84,0-1.01-.58-1.58-2.03-2.15-1.76-.62-2.85-1.54-2.85-3.06,0-1.68,1.39-2.93,3.49-2.93,1.1,0,1.9.26,2.38.53l-.38,1.14c-.35-.19-1.07-.51-2.05-.51-1.47,0-2.03.88-2.03,1.62,0,1.01.66,1.5,2.14,2.08,1.82.7,2.75,1.58,2.75,3.17,0,1.66-1.23,3.11-3.78,3.11-1.04,0-2.18-.3-2.75-.69l.35-1.17Z" style="fill: #1d1d1b;"/>
        <path d="M249.68,232.95c0,2.87-1.98,4.11-3.86,4.11-2.1,0-3.71-1.54-3.71-3.99,0-2.59,1.7-4.11,3.84-4.11s3.73,1.62,3.73,3.99ZM243.54,233.03c0,1.7.98,2.98,2.35,2.98s2.35-1.26,2.35-3.01c0-1.31-.66-2.98-2.32-2.98s-2.39,1.54-2.39,3.01Z" style="fill: #1d1d1b;"/>
        <path d="M256.98,236.6c-.37.19-1.18.45-2.23.45-2.34,0-3.86-1.58-3.86-3.95s1.63-4.11,4.16-4.11c.83,0,1.57.21,1.95.4l-.32,1.09c-.34-.19-.86-.37-1.63-.37-1.78,0-2.74,1.31-2.74,2.93,0,1.79,1.15,2.9,2.69,2.9.8,0,1.33-.21,1.73-.38l.24,1.06Z" style="fill: #1d1d1b;"/>
        <path d="M260.19,226.97c.02.48-.34.86-.9.86-.5,0-.85-.38-.85-.86s.37-.88.88-.88.86.38.86.88ZM258.63,236.89v-7.75h1.41v7.75h-1.41Z" style="fill: #1d1d1b;"/>
        <path d="M266.66,236.89l-.11-.98h-.05c-.43.61-1.26,1.15-2.37,1.15-1.57,0-2.37-1.1-2.37-2.23,0-1.87,1.67-2.9,4.66-2.88v-.16c0-.64-.18-1.79-1.76-1.79-.72,0-1.47.22-2.02.58l-.32-.93c.64-.42,1.57-.69,2.54-.69,2.37,0,2.95,1.62,2.95,3.17v2.9c0,.67.03,1.33.13,1.86h-1.28ZM266.45,232.94c-1.54-.03-3.28.24-3.28,1.74,0,.91.61,1.34,1.33,1.34,1.01,0,1.65-.64,1.87-1.3.05-.14.08-.3.08-.45v-1.34Z" style="fill: #1d1d1b;"/>
        <path d="M270.08,225.53h1.41v11.36h-1.41v-11.36Z" style="fill: #1d1d1b;"/>
        <path d="M208.91,245.3v10.79h-1.39v-10.79h1.39Z" style="fill: #1d1d1b;"/>
        <path d="M211.46,250.44c0-.8-.02-1.46-.06-2.1h1.25l.08,1.28h.03c.38-.74,1.28-1.46,2.56-1.46,1.07,0,2.74.64,2.74,3.3v4.63h-1.41v-4.47c0-1.25-.46-2.29-1.79-2.29-.93,0-1.65.66-1.89,1.44-.06.18-.1.42-.1.66v4.66h-1.41v-5.65Z" style="fill: #1d1d1b;"/>
        <path d="M220.48,256.09v-6.67h-1.09v-1.07h1.09v-.37c0-1.09.24-2.08.9-2.71.53-.51,1.23-.72,1.89-.72.5,0,.93.11,1.2.22l-.19,1.09c-.21-.1-.5-.18-.9-.18-1.2,0-1.5,1.06-1.5,2.24v.42h1.87v1.07h-1.87v6.67h-1.39Z" style="fill: #1d1d1b;"/>
        <path d="M225.01,250.76c0-.91-.02-1.7-.06-2.42h1.23l.05,1.52h.06c.35-1.04,1.2-1.7,2.14-1.7.16,0,.27.02.4.05v1.33c-.14-.03-.29-.05-.48-.05-.99,0-1.7.75-1.89,1.81-.03.19-.06.42-.06.66v4.13h-1.39v-5.33Z" style="fill: #1d1d1b;"/>
        <path d="M234.45,256.09l-.11-.98h-.05c-.43.61-1.26,1.15-2.37,1.15-1.57,0-2.37-1.1-2.37-2.23,0-1.87,1.67-2.9,4.66-2.88v-.16c0-.64-.18-1.79-1.76-1.79-.72,0-1.47.22-2.02.58l-.32-.93c.64-.42,1.57-.69,2.54-.69,2.37,0,2.95,1.62,2.95,3.17v2.9c0,.67.03,1.33.13,1.86h-1.28ZM234.24,252.14c-1.54-.03-3.28.24-3.28,1.74,0,.91.61,1.34,1.33,1.34,1.01,0,1.65-.64,1.87-1.3.05-.14.08-.3.08-.45v-1.34Z" style="fill: #1d1d1b;"/>
        <path d="M237.68,254.65c.42.27,1.15.56,1.86.56,1.02,0,1.5-.51,1.5-1.15,0-.67-.4-1.04-1.44-1.42-1.39-.5-2.05-1.26-2.05-2.19,0-1.25,1.01-2.27,2.67-2.27.78,0,1.47.22,1.9.48l-.35,1.02c-.3-.19-.86-.45-1.58-.45-.83,0-1.3.48-1.3,1.06,0,.64.46.93,1.47,1.31,1.34.51,2.03,1.18,2.03,2.34,0,1.36-1.06,2.32-2.9,2.32-.85,0-1.63-.21-2.18-.53l.35-1.07Z" style="fill: #1d1d1b;"/>
        <path d="M245.91,246.12v2.23h2.02v1.07h-2.02v4.18c0,.96.27,1.5,1.06,1.5.37,0,.64-.05.82-.1l.06,1.06c-.27.11-.7.19-1.25.19-.66,0-1.18-.21-1.52-.59-.4-.42-.54-1.1-.54-2.02v-4.23h-1.2v-1.07h1.2v-1.86l1.38-.37Z" style="fill: #1d1d1b;"/>
        <path d="M249.51,250.76c0-.91-.02-1.7-.06-2.42h1.23l.05,1.52h.06c.35-1.04,1.2-1.7,2.14-1.7.16,0,.27.02.4.05v1.33c-.14-.03-.29-.05-.48-.05-.99,0-1.7.75-1.89,1.81-.03.19-.06.42-.06.66v4.13h-1.39v-5.33Z" style="fill: #1d1d1b;"/>
        <path d="M261.22,253.98c0,.8.02,1.5.06,2.11h-1.25l-.08-1.26h-.03c-.37.62-1.18,1.44-2.56,1.44-1.22,0-2.67-.67-2.67-3.39v-4.53h1.41v4.29c0,1.47.45,2.47,1.73,2.47.94,0,1.6-.66,1.86-1.28.08-.21.13-.46.13-.72v-4.75h1.41v5.63Z" style="fill: #1d1d1b;"/>
        <path d="M269.08,255.8c-.37.19-1.18.45-2.23.45-2.34,0-3.86-1.58-3.86-3.95s1.63-4.11,4.16-4.11c.83,0,1.57.21,1.95.4l-.32,1.09c-.34-.19-.86-.37-1.63-.37-1.78,0-2.74,1.31-2.74,2.93,0,1.79,1.15,2.9,2.69,2.9.8,0,1.33-.21,1.73-.38l.24,1.06Z" style="fill: #1d1d1b;"/>
        <path d="M272.63,246.12v2.23h2.02v1.07h-2.02v4.18c0,.96.27,1.5,1.06,1.5.37,0,.64-.05.82-.1l.06,1.06c-.27.11-.7.19-1.25.19-.66,0-1.18-.21-1.52-.59-.4-.42-.54-1.1-.54-2.02v-4.23h-1.2v-1.07h1.2v-1.86l1.38-.37Z" style="fill: #1d1d1b;"/>
        <path d="M282.71,253.98c0,.8.02,1.5.06,2.11h-1.25l-.08-1.26h-.03c-.37.62-1.18,1.44-2.56,1.44-1.22,0-2.67-.67-2.67-3.39v-4.53h1.41v4.29c0,1.47.45,2.47,1.73,2.47.94,0,1.6-.66,1.86-1.28.08-.21.13-.46.13-.72v-4.75h1.41v5.63Z" style="fill: #1d1d1b;"/>
        <path d="M285.04,250.76c0-.91-.02-1.7-.06-2.42h1.23l.05,1.52h.06c.35-1.04,1.2-1.7,2.14-1.7.16,0,.27.02.4.05v1.33c-.14-.03-.29-.05-.48-.05-.99,0-1.7.75-1.89,1.81-.03.19-.06.42-.06.66v4.13h-1.39v-5.33Z" style="fill: #1d1d1b;"/>
        <path d="M290.9,252.47c.03,1.9,1.25,2.69,2.66,2.69,1.01,0,1.62-.18,2.14-.4l.24,1.01c-.5.22-1.34.48-2.58.48-2.38,0-3.81-1.57-3.81-3.91s1.38-4.18,3.63-4.18c2.53,0,3.2,2.23,3.2,3.65,0,.29-.03.51-.05.66h-5.44ZM295.03,251.46c.02-.9-.37-2.29-1.95-2.29-1.42,0-2.05,1.31-2.16,2.29h4.11Z" style="fill: #1d1d1b;"/>
        <path d="M297.94,254.65c.42.27,1.15.56,1.86.56,1.02,0,1.5-.51,1.5-1.15,0-.67-.4-1.04-1.44-1.42-1.39-.5-2.05-1.26-2.05-2.19,0-1.25,1.01-2.27,2.67-2.27.78,0,1.47.22,1.9.48l-.35,1.02c-.3-.19-.87-.45-1.58-.45-.83,0-1.3.48-1.3,1.06,0,.64.46.93,1.47,1.31,1.34.51,2.03,1.18,2.03,2.34,0,1.36-1.06,2.32-2.9,2.32-.85,0-1.63-.21-2.18-.53l.35-1.07Z" style="fill: #1d1d1b;"/>
      </g>
    </g>
    <g id="einkommen">
      <path d="M189.75,95.22c-1.88-2.5-3.95-4.9-6.22-7.18-26.48-26.49-69.42-26.5-95.91-.02-26.49,26.48-26.5,69.42-.02,95.91,2.29,2.29,4.7,4.36,7.21,6.25,24.15,18.2,57.68,18.14,81.76-.2,2.41-1.84,4.74-3.84,6.94-6.04,2.11-2.11,4.03-4.33,5.8-6.63,18.59-24.11,18.74-57.85.44-82.11Z" style="fill: #bdbdbd;"/>
      <g>
        <path d="M110.84,126.99v10.79h-1.39v-10.79h1.39Z" style="fill: #1d1d1b;"/>
        <path d="M113.38,132.13c0-.8-.02-1.46-.06-2.1h1.25l.08,1.28h.03c.38-.74,1.28-1.46,2.56-1.46,1.07,0,2.74.64,2.74,3.3v4.63h-1.41v-4.47c0-1.25-.46-2.29-1.79-2.29-.93,0-1.65.66-1.89,1.44-.06.18-.1.42-.1.66v4.66h-1.41v-5.65Z" style="fill: #1d1d1b;"/>
        <path d="M127.78,137.5c-.37.19-1.18.45-2.23.45-2.34,0-3.86-1.58-3.86-3.95s1.63-4.11,4.16-4.11c.83,0,1.57.21,1.95.4l-.32,1.09c-.34-.19-.86-.37-1.63-.37-1.78,0-2.74,1.31-2.74,2.93,0,1.79,1.15,2.9,2.69,2.9.8,0,1.33-.21,1.73-.38l.24,1.06Z" style="fill: #1d1d1b;"/>
        <path d="M136.34,133.85c0,2.87-1.98,4.11-3.86,4.11-2.1,0-3.71-1.54-3.71-3.99,0-2.59,1.7-4.11,3.84-4.11s3.73,1.62,3.73,3.99ZM130.2,133.93c0,1.7.98,2.98,2.35,2.98s2.35-1.26,2.35-3.01c0-1.31-.66-2.98-2.32-2.98s-2.39,1.54-2.39,3.01Z" style="fill: #1d1d1b;"/>
        <path d="M138.12,132.13c0-.8-.02-1.46-.06-2.1h1.23l.06,1.25h.05c.43-.74,1.15-1.42,2.43-1.42,1.06,0,1.86.64,2.19,1.55h.03c.24-.43.54-.77.86-1.01.46-.35.98-.54,1.71-.54,1.02,0,2.54.67,2.54,3.36v4.56h-1.38v-4.39c0-1.49-.54-2.38-1.68-2.38-.8,0-1.42.59-1.67,1.28-.06.19-.11.45-.11.7v4.79h-1.38v-4.64c0-1.23-.54-2.13-1.62-2.13-.88,0-1.52.7-1.74,1.41-.08.21-.11.45-.11.69v4.67h-1.38v-5.65Z" style="fill: #1d1d1b;"/>
        <path d="M152.24,134.17c.03,1.9,1.25,2.69,2.66,2.69,1.01,0,1.62-.18,2.15-.4l.24,1.01c-.5.22-1.34.48-2.58.48-2.39,0-3.81-1.57-3.81-3.91s1.38-4.18,3.63-4.18c2.53,0,3.2,2.23,3.2,3.65,0,.29-.03.51-.05.66h-5.44ZM156.37,133.16c.02-.9-.37-2.29-1.95-2.29-1.42,0-2.05,1.31-2.16,2.29h4.11Z" style="fill: #1d1d1b;"/>
      </g>
    </g>
    <g id="schnittflaechen">
      <path d="M202.01,190.19c24.33,18.87,58.54,18.89,82.9.06-24.33-18.87-58.54-18.89-82.9-.06Z" style="fill: #d2d5cb;"/>
      <path d="M176.57,190c-24.15-18.2-57.68-18.14-81.76.2,24.15,18.2,57.68,18.14,81.76-.2Z" style="fill:rgb(247, 227, 196);"/>
      <path d="M189.49,202.77c-18.59,24.32-18.51,58.31.24,82.55,18.59-24.32,18.51-58.31-.24-82.55Z" style="fill: #e9dfbe;"/>
      <path d="M189.31,177.33c18.59-24.11,18.74-57.85.44-82.11-18.59,24.11-18.74,57.85-.44,82.11Z" style="fill: #f0d1c7;"/>
    </g>
    <g id="zeit_und_infrastruktur">
      <rect x="112.01" y="351.73" width="154.96" height="27.56" style="fill: #e9dfbe;"/>
      <g>
        <path d="M124.75,360.62h-2.81v-1.04h6.84v1.04h-2.82v8.4h-1.21v-8.4Z" style="fill: #1d1d1b;"/>
        <path d="M130.94,360.34c.01.42-.29.76-.77.76-.42,0-.73-.34-.73-.76s.31-.77.75-.77.74.34.74.77ZM129.6,369.03v-6.78h1.21v6.78h-1.21Z" style="fill: #1d1d1b;"/>
        <path d="M132.81,364.08c0-.7-.01-1.27-.06-1.83h1.06l.05,1.09h.04c.37-.64.99-1.25,2.08-1.25.9,0,1.59.56,1.88,1.36h.03c.21-.38.47-.67.74-.88.4-.31.84-.48,1.47-.48.88,0,2.18.59,2.18,2.94v3.99h-1.18v-3.84c0-1.3-.47-2.09-1.44-2.09-.69,0-1.22.52-1.43,1.12-.05.17-.1.39-.1.62v4.19h-1.18v-4.06c0-1.08-.47-1.86-1.38-1.86-.75,0-1.3.62-1.49,1.23-.07.18-.1.39-.1.6v4.09h-1.18v-4.94Z" style="fill: #1d1d1b;"/>
        <path d="M144.9,365.86c.03,1.67,1.07,2.35,2.27,2.35.86,0,1.38-.15,1.84-.35l.21.88c-.42.2-1.15.42-2.21.42-2.04,0-3.26-1.37-3.26-3.42s1.18-3.66,3.11-3.66c2.16,0,2.74,1.95,2.74,3.19,0,.25-.03.45-.04.57h-4.66ZM148.44,364.98c.01-.78-.32-2-1.67-2-1.22,0-1.75,1.15-1.85,2h3.52Z" style="fill: #1d1d1b;"/>
        <path d="M157.67,369.03l-.1-.85h-.04c-.37.53-1.08,1.01-2.03,1.01-1.34,0-2.03-.97-2.03-1.95,0-1.64,1.43-2.54,3.99-2.52v-.14c0-.56-.15-1.57-1.51-1.57-.62,0-1.26.2-1.73.5l-.27-.81c.55-.36,1.34-.6,2.18-.6,2.03,0,2.52,1.41,2.52,2.77v2.54c0,.59.03,1.16.11,1.62h-1.1ZM157.49,365.57c-1.32-.03-2.81.21-2.81,1.53,0,.8.52,1.18,1.14,1.18.86,0,1.41-.56,1.6-1.13.04-.13.07-.27.07-.39v-1.18Z" style="fill: #1d1d1b;"/>
        <path d="M160.6,364.08c0-.7-.01-1.27-.06-1.83h1.07l.07,1.12h.03c.33-.64,1.1-1.27,2.19-1.27.92,0,2.34.56,2.34,2.89v4.05h-1.21v-3.91c0-1.09-.4-2-1.53-2-.79,0-1.41.57-1.62,1.26-.05.15-.08.36-.08.57v4.08h-1.21v-4.94Z" style="fill: #1d1d1b;"/>
        <path d="M173.92,359.08v8.19c0,.6.01,1.29.05,1.75h-1.08l-.05-1.18h-.03c-.37.76-1.18,1.33-2.26,1.33-1.6,0-2.84-1.39-2.84-3.45-.01-2.25,1.36-3.64,2.97-3.64,1.01,0,1.7.49,2,1.04h.03v-4.05h1.21ZM172.72,365.01c0-.15-.01-.36-.05-.52-.18-.78-.84-1.43-1.74-1.43-1.25,0-1.99,1.12-1.99,2.62,0,1.37.66,2.51,1.96,2.51.81,0,1.55-.55,1.77-1.47.04-.17.05-.34.05-.53v-1.18Z" style="fill: #1d1d1b;"/>
        <path d="M180.06,359.59v9.44h-1.19v-9.44h1.19Z" style="fill: #1d1d1b;"/>
        <path d="M182.24,364.08c0-.7-.01-1.27-.06-1.83h1.07l.07,1.12h.03c.33-.64,1.1-1.27,2.19-1.27.92,0,2.34.56,2.34,2.89v4.05h-1.21v-3.91c0-1.09-.4-2-1.53-2-.79,0-1.41.57-1.62,1.26-.05.15-.08.36-.08.57v4.08h-1.21v-4.94Z" style="fill: #1d1d1b;"/>
        <path d="M189.96,369.03v-5.84h-.93v-.94h.93v-.32c0-.95.21-1.82.77-2.37.45-.45,1.05-.63,1.62-.63.42,0,.79.1,1.03.2l-.16.95c-.18-.08-.42-.15-.77-.15-1.03,0-1.29.92-1.29,1.96v.36h1.6v.94h-1.6v5.84h-1.19Z" style="fill: #1d1d1b;"/>
        <path d="M193.84,364.36c0-.8-.01-1.48-.06-2.12h1.06l.04,1.33h.06c.3-.91,1.03-1.48,1.84-1.48.14,0,.23.01.34.04v1.16c-.12-.03-.25-.04-.41-.04-.85,0-1.45.66-1.62,1.58-.03.17-.05.36-.05.57v3.61h-1.19v-4.66Z" style="fill: #1d1d1b;"/>
        <path d="M201.92,369.03l-.1-.85h-.04c-.37.53-1.08,1.01-2.03,1.01-1.34,0-2.03-.97-2.03-1.95,0-1.64,1.43-2.54,3.99-2.52v-.14c0-.56-.15-1.57-1.51-1.57-.62,0-1.26.2-1.73.5l-.27-.81c.55-.36,1.34-.6,2.18-.6,2.03,0,2.52,1.41,2.52,2.77v2.54c0,.59.03,1.16.11,1.62h-1.1ZM201.74,365.57c-1.32-.03-2.81.21-2.81,1.53,0,.8.52,1.18,1.14,1.18.86,0,1.41-.56,1.6-1.13.04-.13.07-.27.07-.39v-1.18Z" style="fill: #1d1d1b;"/>
        <path d="M204.68,367.77c.36.24.99.49,1.59.49.88,0,1.29-.45,1.29-1.01,0-.59-.34-.91-1.23-1.25-1.19-.43-1.75-1.11-1.75-1.92,0-1.09.86-1.99,2.29-1.99.67,0,1.26.2,1.63.42l-.3.9c-.26-.17-.74-.39-1.36-.39-.71,0-1.11.42-1.11.92,0,.56.4.81,1.26,1.15,1.15.45,1.74,1.04,1.74,2.04,0,1.19-.9,2.03-2.48,2.03-.73,0-1.4-.18-1.86-.46l.3-.94Z" style="fill: #1d1d1b;"/>
        <path d="M211.72,360.3v1.95h1.73v.94h-1.73v3.66c0,.84.23,1.32.9,1.32.32,0,.55-.04.7-.08l.06.92c-.23.1-.6.17-1.07.17-.56,0-1.01-.18-1.3-.52-.34-.36-.47-.97-.47-1.76v-3.7h-1.03v-.94h1.03v-1.62l1.18-.32Z" style="fill: #1d1d1b;"/>
        <path d="M214.81,364.36c0-.8-.01-1.48-.06-2.12h1.06l.04,1.33h.06c.3-.91,1.03-1.48,1.84-1.48.14,0,.23.01.34.04v1.16c-.12-.03-.25-.04-.41-.04-.85,0-1.45.66-1.62,1.58-.03.17-.05.36-.05.57v3.61h-1.19v-4.66Z" style="fill: #1d1d1b;"/>
        <path d="M224.83,367.18c0,.7.01,1.32.05,1.85h-1.07l-.07-1.11h-.03c-.32.55-1.01,1.26-2.19,1.26-1.04,0-2.29-.59-2.29-2.97v-3.96h1.21v3.75c0,1.29.38,2.16,1.48,2.16.81,0,1.37-.57,1.59-1.12.07-.18.11-.41.11-.63v-4.16h1.21v4.93Z" style="fill: #1d1d1b;"/>
        <path d="M231.56,368.78c-.31.17-1.01.39-1.9.39-2,0-3.3-1.39-3.3-3.46s1.4-3.6,3.56-3.6c.71,0,1.34.18,1.67.35l-.27.95c-.29-.17-.74-.32-1.4-.32-1.52,0-2.34,1.15-2.34,2.56,0,1.57.99,2.54,2.3,2.54.69,0,1.14-.18,1.48-.34l.21.92Z" style="fill: #1d1d1b;"/>
        <path d="M234.6,360.3v1.95h1.73v.94h-1.73v3.66c0,.84.23,1.32.9,1.32.32,0,.55-.04.7-.08l.05.92c-.23.1-.6.17-1.07.17-.56,0-1.01-.18-1.3-.52-.34-.36-.47-.97-.47-1.76v-3.7h-1.03v-.94h1.03v-1.62l1.18-.32Z" style="fill: #1d1d1b;"/>
        <path d="M243.23,367.18c0,.7.01,1.32.05,1.85h-1.07l-.07-1.11h-.03c-.32.55-1.01,1.26-2.19,1.26-1.04,0-2.29-.59-2.29-2.97v-3.96h1.21v3.75c0,1.29.38,2.16,1.48,2.16.81,0,1.37-.57,1.59-1.12.07-.18.11-.41.11-.63v-4.16h1.21v4.93Z" style="fill: #1d1d1b;"/>
        <path d="M245.22,364.36c0-.8-.01-1.48-.06-2.12h1.06l.04,1.33h.06c.3-.91,1.03-1.48,1.84-1.48.14,0,.23.01.34.04v1.16c-.12-.03-.25-.04-.41-.04-.85,0-1.45.66-1.62,1.58-.03.17-.05.36-.05.57v3.61h-1.19v-4.66Z" style="fill: #1d1d1b;"/>
        <path d="M250.24,365.86c.03,1.67,1.07,2.35,2.27,2.35.86,0,1.38-.15,1.84-.35l.21.88c-.42.2-1.15.42-2.21.42-2.04,0-3.26-1.37-3.26-3.42s1.18-3.66,3.11-3.66c2.16,0,2.74,1.95,2.74,3.19,0,.25-.03.45-.04.57h-4.66ZM253.77,364.98c.01-.78-.32-2-1.67-2-1.22,0-1.75,1.15-1.85,2h3.52Z" style="fill: #1d1d1b;"/>
      </g>
    </g>
    <g id="geld_sparen_durch_SI">
      <rect x="287.97" y="176.48" width="154.96" height="27.56" transform="translate(555.71 -175.2) rotate(90)" style="fill: #d2d5cb;"/>
      <g>
        <path d="M363.91,117.62c-.34.55-.62,1.34-.62,2.19,0,1.25.66,1.98,1.61,1.98.88,0,1.39-.5,1.88-1.78.55-1.54,1.34-2.49,2.67-2.49,1.47,0,2.56,1.22,2.56,3.05,0,.97-.22,1.67-.46,2.09l-.99-.34c.17-.31.45-.94.45-1.79,0-1.29-.77-1.78-1.42-1.78-.88,0-1.32.57-1.82,1.88-.62,1.6-1.39,2.41-2.77,2.41-1.46,0-2.72-1.08-2.72-3.31,0-.91.27-1.9.6-2.41l1.02.31Z" style="fill: #1d1d1b;"/>
        <path d="M362.43,128.44l.86-.1v-.04c-.53-.38-1.01-1.11-1.01-2.07,0-1.37.97-2.07,1.95-2.07,1.64,0,2.54,1.46,2.52,4.08h.14c.56,0,1.57-.15,1.57-1.54,0-.63-.2-1.29-.5-1.76l.81-.28c.36.56.6,1.37.6,2.23,0,2.07-1.41,2.58-2.77,2.58h-2.54c-.59,0-1.16.03-1.62.11v-1.12ZM365.89,128.26c.03-1.34-.21-2.87-1.53-2.87-.8,0-1.18.53-1.18,1.16,0,.88.56,1.44,1.13,1.64.13.04.27.07.39.07h1.18Z" style="fill: #1d1d1b;"/>
        <path d="M369.21,131.8l-3.81,1.33c-.62.22-1.18.41-1.74.55v.04c.56.15,1.12.35,1.74.57l3.81,1.32v1.29l-6.78-2.66v-1.18l6.78-2.58v1.32Z" style="fill: #1d1d1b;"/>
        <path d="M362.43,138.06h6.78v1.23h-6.78v-1.23ZM371.11,139.43c-.42.01-.76-.29-.76-.78,0-.43.34-.74.76-.74s.77.32.77.77-.34.76-.77.76Z" style="fill: #1d1d1b;"/>
        <path d="M367.37,141.33c.7,0,1.27-.01,1.83-.06v1.09l-1.12.07v.03c.64.34,1.27,1.12,1.27,2.24,0,.94-.56,2.4-2.88,2.4h-4.05v-1.23h3.91c1.09,0,2-.41,2-1.57,0-.81-.57-1.44-1.26-1.65-.15-.06-.36-.08-.57-.08h-4.08v-1.23h4.95Z" style="fill: #1d1d1b;"/>
        <path d="M369.21,154.95c-.49-.03-1.04-.06-1.86-.06h-3.94c-1.55,0-2.51-.31-3.1-.97-.62-.66-.81-1.61-.81-2.47s.2-1.71.56-2.26l.94.31c-.28.45-.53,1.15-.53,1.99,0,1.26.66,2.19,2.37,2.19h.76v-.03c-.63-.38-1.13-1.11-1.13-2.16,0-1.68,1.43-2.89,3.31-2.89,2.3,0,3.6,1.5,3.6,3.05,0,1.18-.62,1.82-1.18,2.12v.03l1.02.06v1.08ZM366.53,153.67c.21,0,.39-.01.56-.07.71-.22,1.3-.83,1.3-1.72,0-1.18-1-2.02-2.56-2.02-1.33,0-2.44.67-2.44,2,0,.76.48,1.44,1.26,1.71.21.07.45.1.66.1h1.22Z" style="fill: #1d1d1b;"/>
        <path d="M366.57,167.9c1.32-.07,2.9-.15,4.08-.14v-.04c-1.11-.32-2.28-.71-3.59-1.19l-4.58-1.67v-.92l4.5-1.53c1.33-.45,2.55-.83,3.67-1.09v-.03c-1.18-.03-2.76-.1-4.17-.18l-4.05-.25v-1.16l9.44.66v1.56l-4.57,1.61c-1.16.39-2.2.71-3.18.95v.04c.95.24,1.99.57,3.18.99l4.57,1.68v1.55l-9.44.59v-1.19l4.15-.24Z" style="fill: #1d1d1b;"/>
        <path d="M365.87,177.37c-2.51,0-3.6-1.74-3.6-3.38,0-1.83,1.35-3.25,3.49-3.25,2.27,0,3.6,1.48,3.6,3.36s-1.41,3.26-3.49,3.26ZM365.81,171.99c-1.49,0-2.61.85-2.61,2.06s1.11,2.06,2.63,2.06c1.15,0,2.61-.57,2.61-2.03s-1.34-2.09-2.63-2.09Z" style="fill: #1d1d1b;"/>
        <path d="M367.37,178.92c.7,0,1.27-.01,1.83-.06v1.09l-1.12.07v.03c.64.34,1.27,1.12,1.27,2.24,0,.94-.56,2.4-2.88,2.4h-4.05v-1.23h3.91c1.09,0,2-.41,2-1.57,0-.81-.57-1.44-1.26-1.65-.15-.06-.36-.08-.57-.08h-4.08v-1.23h4.95Z" style="fill: #1d1d1b;"/>
        <path d="M365.59,187.38c-1.67.03-2.35,1.09-2.35,2.33,0,.88.15,1.41.35,1.88l-.88.21c-.2-.43-.42-1.18-.42-2.25,0-2.09,1.37-3.33,3.42-3.33s3.66,1.2,3.66,3.18c0,2.21-1.95,2.8-3.19,2.8-.25,0-.45-.03-.57-.04v-4.76ZM366.48,190.99c.78.01,2-.32,2-1.71,0-1.25-1.15-1.79-2-1.89v3.6Z" style="fill: #1d1d1b;"/>
        <path d="M369.21,194.16l-4.01,1.48c-.45.15-.98.32-1.39.43v.03c.41.13.92.27,1.42.43l3.98,1.34v1.3l-4.83-1.85c-2.33-.88-3.52-1.48-4.24-2.33-.53-.6-.74-1.2-.8-1.51l1.04-.31c.1.31.29.71.6,1.08.27.34.74.76,1.37,1.04.13.06.22.1.29.1s.17-.03.32-.08l6.25-2.51v1.34Z" style="fill: #1d1d1b;"/>
        <path d="M371.16,204.75h-1.95v1.77h-.94v-1.77h-3.66c-.84,0-1.32.24-1.32.92,0,.32.04.56.08.71l-.92.06c-.1-.24-.17-.62-.17-1.09,0-.57.18-1.04.52-1.33.36-.35.97-.48,1.76-.48h3.7v-1.05h.94v1.05h1.62l.32,1.2Z" style="fill: #1d1d1b;"/>
        <path d="M372.37,207.9v1.23h-4.23v.03c.35.2.66.5.87.88.21.36.35.8.35,1.26,0,.91-.56,2.37-2.9,2.37h-4.04v-1.23h3.89c1.09,0,2.02-.41,2.02-1.57,0-.8-.56-1.43-1.23-1.65-.17-.07-.35-.08-.59-.08h-4.09v-1.23h9.95Z" style="fill: #1d1d1b;"/>
        <path d="M367.09,215.67c.8,0,1.49-.01,2.12-.06v1.08l-1.33.04v.06c.91.31,1.48,1.05,1.48,1.88,0,.14-.01.24-.04.35h-1.16c.03-.13.04-.25.04-.42,0-.87-.66-1.48-1.58-1.65-.17-.03-.37-.06-.58-.06h-3.61v-1.22h4.67Z" style="fill: #1d1d1b;"/>
        <path d="M365.87,226.25c-2.51,0-3.6-1.74-3.6-3.38,0-1.83,1.35-3.25,3.49-3.25,2.27,0,3.6,1.48,3.6,3.36s-1.41,3.26-3.49,3.26ZM365.81,220.87c-1.49,0-2.61.85-2.61,2.06s1.11,2.06,2.63,2.06c1.15,0,2.61-.57,2.61-2.03s-1.34-2.09-2.63-2.09Z" style="fill: #1d1d1b;"/>
        <path d="M364.28,233.47c-.7,0-1.32.01-1.85.06v-1.09l1.11-.07v-.03c-.55-.32-1.26-1.04-1.26-2.24,0-1.06.59-2.34,2.97-2.34h3.96v1.23h-3.75c-1.29,0-2.16.39-2.16,1.51,0,.83.57,1.4,1.12,1.62.18.07.41.11.63.11h4.16v1.23h-4.93Z" style="fill: #1d1d1b;"/>
        <path d="M369.21,241.35c-.49-.03-1.04-.06-1.86-.06h-3.94c-1.55,0-2.51-.31-3.1-.97-.62-.66-.81-1.61-.81-2.47s.2-1.71.56-2.26l.94.31c-.28.45-.53,1.15-.53,1.99,0,1.26.66,2.19,2.37,2.19h.76v-.03c-.63-.38-1.13-1.11-1.13-2.16,0-1.68,1.43-2.89,3.31-2.89,2.3,0,3.6,1.5,3.6,3.05,0,1.18-.62,1.82-1.18,2.12v.03l1.02.06v1.08ZM366.53,240.08c.21,0,.39-.01.56-.07.71-.22,1.3-.83,1.3-1.72,0-1.18-1-2.02-2.56-2.02-1.33,0-2.44.67-2.44,2,0,.76.48,1.44,1.26,1.71.21.07.45.1.66.1h1.22Z" style="fill: #1d1d1b;"/>
        <path d="M372.37,243.34v1.23h-4.23v.03c.35.2.66.5.87.88.21.36.35.8.35,1.26,0,.91-.56,2.37-2.9,2.37h-4.04v-1.23h3.89c1.09,0,2.02-.41,2.02-1.57,0-.8-.56-1.43-1.23-1.65-.17-.07-.35-.08-.59-.08h-4.09v-1.23h9.95Z" style="fill: #1d1d1b;"/>
        <path d="M363.91,253.95c-.34.55-.62,1.34-.62,2.19,0,1.25.66,1.98,1.61,1.98.88,0,1.39-.5,1.88-1.78.55-1.54,1.34-2.49,2.67-2.49,1.47,0,2.56,1.22,2.56,3.05,0,.97-.22,1.67-.46,2.09l-.99-.34c.17-.31.45-.94.45-1.79,0-1.29-.77-1.78-1.42-1.78-.88,0-1.32.57-1.82,1.88-.62,1.6-1.39,2.41-2.77,2.41-1.46,0-2.72-1.08-2.72-3.31,0-.91.27-1.9.6-2.41l1.02.31Z" style="fill: #1d1d1b;"/>
        <path d="M371.87,262.24h-9.44v-1.22h9.44v1.22Z" style="fill: #1d1d1b;"/>
      </g>
    </g>
    <g id="zeit_als_ressource">
      <rect x="-63.7" y="176.27" width="154.96" height="27.56" transform="translate(203.83 176.27) rotate(90)" style="fill: rgb(247, 227, 196);"/>
      <g>
        <path d="M8.47,241.38v2.87h-1.04v-6.99h1.04v2.89h8.4v1.23h-8.4Z" style="fill: #1d1d1b;"/>
        <path d="M8.2,235.06c.42-.01.76.29.76.78,0,.43-.34.74-.76.74s-.77-.32-.77-.77.34-.76.77-.76ZM16.88,236.43h-6.78v-1.23h6.78v1.23Z" style="fill: #1d1d1b;"/>
        <path d="M11.93,233.15c-.7,0-1.27.01-1.83.06v-1.08l1.09-.06v-.04c-.64-.38-1.25-1.01-1.25-2.13,0-.92.56-1.62,1.36-1.92v-.03c-.38-.21-.67-.48-.88-.76-.31-.41-.48-.85-.48-1.5,0-.9.59-2.23,2.94-2.23h3.99v1.2h-3.84c-1.3,0-2.09.48-2.09,1.47,0,.7.52,1.25,1.12,1.46.17.06.39.1.62.1h4.19v1.2h-4.06c-1.08,0-1.86.48-1.86,1.42,0,.77.62,1.33,1.23,1.53.18.07.39.1.6.1h4.09v1.2h-4.94Z" style="fill: #1d1d1b;"/>
        <path d="M13.71,220.79c1.67-.03,2.35-1.09,2.35-2.33,0-.88-.15-1.41-.35-1.88l.88-.21c.2.43.42,1.18.42,2.25,0,2.09-1.37,3.33-3.42,3.33s-3.66-1.2-3.66-3.18c0-2.21,1.95-2.8,3.19-2.8.25,0,.45.03.57.04v4.76ZM12.83,217.18c-.78-.01-2,.32-2,1.71,0,1.25,1.15,1.79,2,1.89v-3.6Z" style="fill: #1d1d1b;"/>
        <path d="M16.88,207.74l-.85.1v.04c.53.38,1.01,1.11,1.01,2.07,0,1.37-.97,2.07-1.95,2.07-1.64,0-2.54-1.46-2.52-4.08h-.14c-.56,0-1.57.15-1.57,1.54,0,.63.2,1.29.5,1.76l-.81.28c-.36-.56-.6-1.37-.6-2.23,0-2.07,1.41-2.58,2.77-2.58h2.54c.59,0,1.16-.03,1.62-.11v1.12ZM13.42,207.92c-.03,1.34.21,2.87,1.53,2.87.8,0,1.18-.53,1.18-1.16,0-.88-.56-1.44-1.13-1.64-.13-.04-.27-.07-.39-.07h-1.18Z" style="fill: #1d1d1b;"/>
        <path d="M15.62,204.91c.24-.36.49-1.01.49-1.62,0-.9-.45-1.32-1.01-1.32-.59,0-.91.35-1.25,1.26-.43,1.22-1.11,1.79-1.92,1.79-1.09,0-1.99-.88-1.99-2.34,0-.69.2-1.29.42-1.67l.9.31c-.17.27-.39.76-.39,1.39,0,.73.42,1.13.92,1.13.56,0,.81-.41,1.15-1.29.45-1.18,1.04-1.78,2.04-1.78,1.19,0,2.03.92,2.03,2.54,0,.74-.18,1.43-.46,1.9l-.94-.31Z" style="fill: #1d1d1b;"/>
        <path d="M16.88,192.48l-.85.1v.04c.53.38,1.01,1.11,1.01,2.07,0,1.37-.97,2.07-1.95,2.07-1.64,0-2.54-1.46-2.52-4.08h-.14c-.56,0-1.57.15-1.57,1.54,0,.63.2,1.29.5,1.76l-.81.28c-.36-.56-.6-1.37-.6-2.23,0-2.07,1.41-2.58,2.77-2.58h2.54c.59,0,1.16-.03,1.62-.11v1.12ZM13.42,192.66c-.03,1.34.21,2.87,1.53,2.87.8,0,1.18-.53,1.18-1.16,0-.88-.56-1.44-1.13-1.64-.13-.04-.27-.07-.39-.07h-1.18Z" style="fill: #1d1d1b;"/>
        <path d="M7.56,186.48c-.13-.62-.2-1.5-.2-2.34,0-1.3.24-2.14.77-2.73.42-.48,1.06-.74,1.79-.74,1.25,0,2.07.78,2.41,1.78h.04c.25-.73.92-1.16,1.91-1.39,1.32-.31,2.23-.53,2.59-.73v1.26c-.27.15-1.08.36-2.26.63-1.3.28-1.79.78-1.83,1.89v1.15h4.09v1.22H7.56ZM11.87,185.26v-1.25c0-1.3-.71-2.13-1.79-2.13-1.22,0-1.75.88-1.77,2.17,0,.59.06,1.01.11,1.2h3.45Z" style="fill: #1d1d1b;"/>
        <path d="M13.71,178.24c1.67-.03,2.35-1.09,2.35-2.33,0-.88-.15-1.41-.35-1.88l.88-.21c.2.43.42,1.18.42,2.25,0,2.09-1.37,3.33-3.42,3.33s-3.66-1.2-3.66-3.18c0-2.21,1.95-2.8,3.19-2.8.25,0,.45.03.57.04v4.76ZM12.83,174.63c-.78-.01-2,.32-2,1.71,0,1.25,1.15,1.79,2,1.89v-3.6Z" style="fill: #1d1d1b;"/>
        <path d="M15.62,172.09c.24-.36.49-1.01.49-1.62,0-.9-.45-1.32-1.01-1.32-.59,0-.91.35-1.25,1.26-.43,1.22-1.11,1.79-1.92,1.79-1.09,0-1.99-.88-1.99-2.34,0-.69.2-1.29.42-1.67l.9.31c-.17.27-.39.76-.39,1.39,0,.73.42,1.13.92,1.13.56,0,.81-.41,1.15-1.29.45-1.18,1.04-1.78,2.04-1.78,1.19,0,2.03.92,2.03,2.54,0,.74-.18,1.43-.46,1.9l-.94-.31Z" style="fill: #1d1d1b;"/>
        <path d="M13.43,160.24c2.51,0,3.6,1.74,3.6,3.38,0,1.83-1.34,3.25-3.49,3.25-2.27,0-3.6-1.48-3.6-3.36s1.41-3.26,3.49-3.26ZM13.5,165.62c1.48,0,2.61-.85,2.61-2.06s-1.11-2.06-2.63-2.06c-1.15,0-2.61.57-2.61,2.03s1.34,2.09,2.63,2.09Z" style="fill: #1d1d1b;"/>
        <path d="M15.03,153.01c.7,0,1.32-.01,1.85-.06v1.09l-1.11.07v.03c.55.32,1.26,1.04,1.26,2.24,0,1.06-.59,2.34-2.97,2.34h-3.96v-1.23h3.75c1.29,0,2.16-.39,2.16-1.51,0-.83-.57-1.4-1.12-1.62-.18-.07-.41-.11-.63-.11h-4.16v-1.23h4.93Z" style="fill: #1d1d1b;"/>
        <path d="M12.22,150.97c-.8,0-1.48.01-2.12.06v-1.08l1.33-.04v-.06c-.91-.31-1.48-1.05-1.48-1.88,0-.14.01-.24.04-.35h1.16c-.03.13-.04.25-.04.42,0,.87.66,1.48,1.58,1.65.17.03.36.06.57.06h3.61v1.22h-4.66Z" style="fill: #1d1d1b;"/>
        <path d="M16.63,141.7c.17.32.39,1.04.39,1.95,0,2.05-1.39,3.38-3.46,3.38s-3.6-1.43-3.6-3.64c0-.73.18-1.37.35-1.71l.95.28c-.17.29-.32.76-.32,1.43,0,1.55,1.15,2.4,2.56,2.4,1.57,0,2.54-1.01,2.54-2.35,0-.7-.18-1.16-.34-1.51l.92-.21Z" style="fill: #1d1d1b;"/>
        <path d="M13.71,139.66c1.67-.03,2.35-1.09,2.35-2.33,0-.88-.15-1.41-.35-1.88l.88-.21c.2.43.42,1.18.42,2.25,0,2.09-1.37,3.33-3.42,3.33s-3.66-1.2-3.66-3.18c0-2.21,1.95-2.8,3.19-2.8.25,0,.45.03.57.04v4.76ZM12.83,136.05c-.78-.01-2,.32-2,1.71,0,1.25,1.15,1.79,2,1.89v-3.6Z" style="fill: #1d1d1b;"/>
      </g>
    </g>
    <g id="residualeinkommen">
      <rect x="111.72" width="154.96" height="27.56" style="fill: #f0d1c7;"/>
      <g>
        <path d="M142.75,8.72c.62-.13,1.5-.2,2.34-.2,1.3,0,2.14.24,2.73.77.48.42.74,1.06.74,1.79,0,1.25-.78,2.07-1.78,2.41v.04c.73.25,1.16.92,1.39,1.91.31,1.32.53,2.23.73,2.59h-1.26c-.15-.27-.36-1.08-.63-2.26-.28-1.3-.78-1.79-1.89-1.83h-1.15v4.09h-1.22v-9.31ZM143.97,13.02h1.25c1.3,0,2.13-.71,2.13-1.79,0-1.22-.88-1.75-2.17-1.77-.59,0-1.01.06-1.2.11v3.45Z" style="fill: #1d1d1b;"/>
        <path d="M150.98,14.87c.03,1.67,1.09,2.35,2.33,2.35.88,0,1.41-.15,1.88-.35l.21.88c-.43.2-1.18.42-2.25.42-2.09,0-3.33-1.37-3.33-3.42s1.2-3.66,3.18-3.66c2.21,0,2.8,1.95,2.8,3.19,0,.25-.03.45-.04.57h-4.76ZM154.59,13.98c.01-.78-.32-2-1.71-2-1.25,0-1.79,1.15-1.89,2h3.6Z" style="fill: #1d1d1b;"/>
        <path d="M157.14,16.77c.36.24,1.01.49,1.62.49.9,0,1.32-.45,1.32-1.01,0-.59-.35-.91-1.26-1.25-1.22-.43-1.79-1.11-1.79-1.92,0-1.09.88-1.99,2.34-1.99.69,0,1.29.2,1.67.42l-.31.9c-.27-.17-.76-.39-1.39-.39-.73,0-1.13.42-1.13.92,0,.56.41.81,1.29,1.15,1.18.45,1.78,1.04,1.78,2.04,0,1.19-.92,2.03-2.54,2.03-.74,0-1.43-.18-1.9-.46l.31-.94Z" style="fill: #1d1d1b;"/>
        <path d="M164.22,9.35c.01.42-.29.76-.78.76-.43,0-.74-.34-.74-.76s.32-.77.77-.77.76.34.76.77ZM162.85,18.03v-6.78h1.23v6.78h-1.23Z" style="fill: #1d1d1b;"/>
        <path d="M171.98,8.09v8.19c0,.6.01,1.29.06,1.75h-1.11l-.06-1.18h-.03c-.38.76-1.2,1.33-2.31,1.33-1.64,0-2.9-1.39-2.9-3.45-.01-2.25,1.39-3.64,3.04-3.64,1.04,0,1.74.49,2.05,1.04h.03v-4.05h1.23ZM170.75,14.01c0-.15-.01-.36-.06-.52-.18-.78-.85-1.43-1.78-1.43-1.27,0-2.03,1.12-2.03,2.62,0,1.37.67,2.51,2,2.51.83,0,1.58-.55,1.81-1.47.04-.17.06-.34.06-.53v-1.18Z" style="fill: #1d1d1b;"/>
        <path d="M179.7,16.18c0,.7.01,1.32.06,1.85h-1.09l-.07-1.11h-.03c-.32.55-1.04,1.26-2.24,1.26-1.06,0-2.34-.59-2.34-2.97v-3.96h1.23v3.75c0,1.29.39,2.16,1.51,2.16.83,0,1.4-.57,1.62-1.12.07-.18.11-.41.11-.63v-4.16h1.23v4.93Z" style="fill: #1d1d1b;"/>
        <path d="M185.49,18.03l-.1-.85h-.04c-.38.53-1.11,1.01-2.07,1.01-1.37,0-2.07-.97-2.07-1.95,0-1.64,1.46-2.54,4.08-2.52v-.14c0-.56-.15-1.57-1.54-1.57-.63,0-1.29.2-1.76.5l-.28-.81c.56-.36,1.37-.6,2.23-.6,2.07,0,2.58,1.41,2.58,2.77v2.54c0,.59.03,1.16.11,1.62h-1.12ZM185.31,14.57c-1.34-.03-2.87.21-2.87,1.53,0,.8.53,1.18,1.16,1.18.88,0,1.44-.56,1.64-1.13.04-.13.07-.27.07-.39v-1.18Z" style="fill: #1d1d1b;"/>
        <path d="M188.48,8.09h1.23v9.95h-1.23v-9.95Z" style="fill: #1d1d1b;"/>
        <path d="M196.02,8.59v9.44h-1.22v-9.44h1.22Z" style="fill: #1d1d1b;"/>
        <path d="M198.24,13.09c0-.7-.01-1.27-.06-1.83h1.09l.07,1.12h.03c.34-.64,1.12-1.27,2.24-1.27.94,0,2.4.56,2.4,2.89v4.05h-1.23v-3.91c0-1.09-.41-2-1.57-2-.81,0-1.44.57-1.65,1.26-.06.15-.08.36-.08.57v4.08h-1.23v-4.94Z" style="fill: #1d1d1b;"/>
        <path d="M210.84,17.78c-.32.17-1.04.39-1.95.39-2.05,0-3.38-1.39-3.38-3.46s1.43-3.6,3.64-3.6c.73,0,1.37.18,1.71.35l-.28.95c-.29-.17-.76-.32-1.43-.32-1.55,0-2.4,1.15-2.4,2.56,0,1.57,1.01,2.54,2.35,2.54.7,0,1.16-.18,1.51-.34l.21.92Z" style="fill: #1d1d1b;"/>
        <path d="M218.34,14.59c0,2.51-1.74,3.6-3.38,3.6-1.83,0-3.25-1.34-3.25-3.49,0-2.27,1.48-3.6,3.36-3.6s3.26,1.41,3.26,3.49ZM212.96,14.66c0,1.48.85,2.61,2.06,2.61s2.06-1.11,2.06-2.63c0-1.15-.57-2.61-2.03-2.61s-2.09,1.34-2.09,2.63Z" style="fill: #1d1d1b;"/>
        <path d="M219.89,13.09c0-.7-.01-1.27-.06-1.83h1.08l.06,1.09h.04c.38-.64,1.01-1.25,2.13-1.25.92,0,1.62.56,1.92,1.36h.03c.21-.38.48-.67.76-.88.41-.31.85-.48,1.5-.48.9,0,2.23.59,2.23,2.94v3.99h-1.2v-3.84c0-1.3-.48-2.09-1.47-2.09-.7,0-1.25.52-1.46,1.12-.06.17-.1.39-.1.62v4.19h-1.2v-4.06c0-1.08-.48-1.86-1.42-1.86-.77,0-1.33.62-1.53,1.23-.07.18-.1.39-.1.6v4.09h-1.2v-4.94Z" style="fill: #1d1d1b;"/>
        <path d="M232.25,14.87c.03,1.67,1.09,2.35,2.33,2.35.88,0,1.41-.15,1.88-.35l.21.88c-.43.2-1.18.42-2.25.42-2.09,0-3.33-1.37-3.33-3.42s1.2-3.66,3.18-3.66c2.21,0,2.8,1.95,2.8,3.19,0,.25-.03.45-.04.57h-4.76ZM235.86,13.98c.01-.78-.32-2-1.71-2-1.25,0-1.79,1.15-1.89,2h3.6Z" style="fill: #1d1d1b;"/>
      </g>
    </g>
  </g>
</svg>