<?xml version="1.0" encoding="UTF-8"?>
<svg xmlns="http://www.w3.org/2000/svg" version="1.1" viewBox="0 0 947.4 624.9">
  <!-- Generator: Adobe Illustrator 29.4.0, SVG Export Plug-In . SVG Version: 2.1.0 Build 152)  -->
  <defs>
    <style>
      .st0 {
        fill: #fff;
      }

      .st0, .st1 {
        stroke-width: .5px;
      }

      .st0, .st1, .st2, .st3, .st4 {
        stroke-linejoin: round;
      }

      .st0, .st2 {
        stroke-linecap: round;
      }

      .st0, .st5 {
        stroke: #333;
      }

      .st1 {
        fill: #aa917d;
      }

      .st1, .st3, .st6 {
        stroke: #827d67;
      }

      .st7 {
        font-size: 12.9px;
      }

      .st8, .st9, .st10 {
        font-family: IvyEpic-ExtraLight, IvyEpic;
        font-weight: 200;
      }

      .st11 {
        fill: #f9d193;
      }

      .st2 {
        stroke: #000;
        stroke-width: .8px;
      }

      .st2, .st3, .st4, .st6, .st5 {
        fill: none;
      }

      .st12 {
        fill: #e2e2e2;
      }

      .st4 {
        stroke: #fff;
        stroke-width: 1.1px;
      }

      .st9 {
        font-size: 20px;
      }

      .st6, .st5 {
        stroke-miterlimit: 10;
      }

      .st13 {
        font-size: 15.5px;
      }

      .st14 {
        fill: #ea9b5d;
      }

      .st5 {
        stroke-width: 2.1px;
      }

      .st10, .st15 {
        font-size: 15px;
      }
    </style>
  </defs>
  <g id="diagrammbasis">
    <g id="hintergrund">
      <rect class="st12" x="77.1" y="63" width="407.8" height="460.9"/>
      <rect class="st12" x="519.6" y="63" width="408" height="460.9"/>
    </g>
    <g id="grid">
      <line class="st4" x1="77.1" y1="523.5" x2="484.9" y2="523.5"/>
      <line class="st4" x1="77.1" y1="504.4" x2="484.9" y2="504.4"/>
      <line class="st4" x1="77.1" y1="485.2" x2="484.9" y2="485.2"/>
      <line class="st4" x1="77.1" y1="466.1" x2="484.9" y2="466.1"/>
      <line class="st4" x1="77.1" y1="446.9" x2="484.9" y2="446.9"/>
      <line class="st4" x1="77.1" y1="427.8" x2="484.9" y2="427.8"/>
      <line class="st4" x1="77.1" y1="408.6" x2="484.9" y2="408.6"/>
      <line class="st4" x1="77.1" y1="389.5" x2="484.9" y2="389.5"/>
      <line class="st4" x1="77.1" y1="370.3" x2="484.9" y2="370.3"/>
      <line class="st4" x1="77.1" y1="351.2" x2="484.9" y2="351.2"/>
      <line class="st4" x1="77.1" y1="332" x2="484.9" y2="332"/>
      <line class="st4" x1="77.1" y1="312.9" x2="484.9" y2="312.9"/>
      <line class="st4" x1="77.1" y1="293.7" x2="484.9" y2="293.7"/>
      <line class="st4" x1="77.1" y1="274.6" x2="484.9" y2="274.6"/>
      <line class="st4" x1="77.1" y1="255.4" x2="484.9" y2="255.4"/>
      <line class="st4" x1="77.1" y1="236.3" x2="484.9" y2="236.3"/>
      <line class="st4" x1="77.1" y1="217.1" x2="484.9" y2="217.1"/>
      <line class="st4" x1="77.1" y1="198" x2="484.9" y2="198"/>
      <line class="st4" x1="77.1" y1="178.8" x2="484.9" y2="178.8"/>
      <line class="st4" x1="77.1" y1="159.7" x2="484.9" y2="159.7"/>
      <line class="st4" x1="77.1" y1="140.5" x2="484.9" y2="140.5"/>
      <line class="st4" x1="519.6" y1="523.5" x2="927.6" y2="523.5"/>
      <line class="st4" x1="519.6" y1="504.4" x2="927.6" y2="504.4"/>
      <line class="st4" x1="519.6" y1="485.2" x2="927.6" y2="485.2"/>
      <line class="st4" x1="519.6" y1="466.1" x2="927.6" y2="466.1"/>
      <line class="st4" x1="519.6" y1="446.9" x2="927.6" y2="446.9"/>
      <line class="st4" x1="519.6" y1="427.8" x2="927.6" y2="427.8"/>
      <line class="st4" x1="519.6" y1="408.6" x2="927.6" y2="408.6"/>
      <line class="st4" x1="519.6" y1="389.5" x2="927.6" y2="389.5"/>
      <line class="st4" x1="519.6" y1="370.3" x2="927.6" y2="370.3"/>
      <line class="st4" x1="519.6" y1="351.2" x2="927.6" y2="351.2"/>
      <line class="st4" x1="519.6" y1="332" x2="927.6" y2="332"/>
      <line class="st4" x1="519.6" y1="312.9" x2="927.6" y2="312.9"/>
      <line class="st4" x1="519.6" y1="293.7" x2="927.6" y2="293.7"/>
      <line class="st4" x1="519.6" y1="274.6" x2="927.6" y2="274.6"/>
      <line class="st4" x1="519.6" y1="255.4" x2="927.6" y2="255.4"/>
      <line class="st4" x1="519.6" y1="236.3" x2="927.6" y2="236.3"/>
      <line class="st4" x1="519.6" y1="217.1" x2="927.6" y2="217.1"/>
      <line class="st4" x1="519.6" y1="198" x2="927.6" y2="198"/>
      <line class="st4" x1="519.6" y1="178.8" x2="927.6" y2="178.8"/>
      <line class="st4" x1="519.6" y1="159.7" x2="927.6" y2="159.7"/>
      <line class="st4" x1="519.6" y1="140.5" x2="927.6" y2="140.5"/>
      <line class="st4" x1="77.1" y1="121.1" x2="484.8" y2="121.1"/>
      <line class="st4" x1="77.1" y1="102" x2="484.8" y2="102"/>
      <line class="st4" x1="77.1" y1="82.8" x2="484.8" y2="82.8"/>
      <line class="st4" x1="77.1" y1="63.7" x2="484.8" y2="63.7"/>
      <line class="st4" x1="511" y1="140.3" x2="918.9" y2="140.3"/>
      <line class="st4" x1="519.5" y1="121.1" x2="927.5" y2="121.1"/>
      <line class="st4" x1="519.5" y1="102" x2="927.5" y2="102"/>
      <line class="st4" x1="519.5" y1="82.8" x2="927.5" y2="82.8"/>
      <line class="st4" x1="519.5" y1="63.7" x2="927.5" y2="63.7"/>
    </g>
    <g id="rahmen">
      <rect class="st2" x="77.1" y="64.8" width="407.8" height="459.1"/>
      <rect class="st2" x="519.6" y="64.8" width="408" height="459.1"/>
    </g>
  </g>
  <g id="yachse">
    <text id="achsentitel" class="st10" transform="translate(26.2 344.3) rotate(-90)"><tspan x="0" y="0">Zeit (in Stunden)</tspan></text>
    <text class="st10" transform="translate(53.1 239.2)"><tspan x="0" y="0">15</tspan></text>
    <text class="st10" transform="translate(53.1 67.3)"><tspan x="0" y="0">24</tspan></text>
    <text class="st10" transform="translate(53.1 335.8)"><tspan x="0" y="0">10</tspan></text>
    <text class="st10" transform="translate(57.6 430.9)"><tspan x="0" y="0">5</tspan></text>
    <text class="st10" transform="translate(56 527.9) rotate(-5.7)"><tspan x="0" y="0">0</tspan></text>
  </g>
  <g id="xachse">
    <text id="achsentitel1" data-name="achsentitel" class="st10" transform="translate(405.9 602.2)"><tspan x="0" y="0">Höchster Bildungsabschluss</tspan></text>
    <g id="m">
      <text id="hbah" class="st10" transform="translate(412.3 559.7) rotate(-17.9)"><tspan x="0" y="0">Höhere </tspan><tspan x="1.9" y="18">Bildung</tspan></text>
      <text id="hbasmm" class="st10" transform="translate(294.2 573) rotate(-17.9)"><tspan x="0" y="0">Sekundarstufe </tspan><tspan x="9.9" y="18">(mit Matura)</tspan></text>
      <text id="hbasom" class="st10" transform="translate(183.7 572.6) rotate(-16.7) scale(1.1 1) skewX(2.3)"><tspan x="0" y="0">Sekundarstufe </tspan><tspan x="3.2" y="18">(ohne Matura)</tspan></text>
      <text id="hbap" class="st10" transform="translate(122.9 569.7) rotate(-17.9)"><tspan x="0" y="0">Pflichtschule</tspan></text>
      <text id="hbau" class="st10" transform="translate(65.6 566) rotate(-17.9)"><tspan x="0" y="0">unbekannt</tspan></text>
    </g>
    <g id="f">
      <text id="hbah1" data-name="hbah" class="st10" transform="translate(863.5 559.7) rotate(-17.9)"><tspan x="0" y="0">Höhere </tspan><tspan x="1.9" y="18">Bildung</tspan></text>
      <text id="hbasmm1" data-name="hbasmm" class="st10" transform="translate(745.5 573) rotate(-17.9)"><tspan x="0" y="0">Sekundarstufe </tspan><tspan x="9.9" y="18">(mit Matura)</tspan></text>
      <text id="hbasom1" data-name="hbasom" class="st10" transform="translate(635 572.6) rotate(-16.7) scale(1.1 1) skewX(2.3)"><tspan x="0" y="0">Sekundarstufe </tspan><tspan x="3.2" y="18">(ohne Matura)</tspan></text>
      <text id="hbap1" data-name="hbap" class="st10" transform="translate(574.2 569.7) rotate(-17.9)"><tspan x="0" y="0">Pflichtschule</tspan></text>
      <text id="hbau1" data-name="hbau" class="st10" transform="translate(516.9 566) rotate(-17.9)"><tspan x="0" y="0">unbekannt</tspan></text>
    </g>
  </g>
  <g id="boxplot">
    <g id="fua">
      <g id="hbah2" data-name="hbah">
        <rect class="st11" x="882" y="421.4" width="26.5" height="79.8"/>
        <line class="st5" x1="882" y1="476.7" x2="908.4" y2="476.7"/>
        <line class="st3" x1="895.2" y1="422.4" x2="895.2" y2="304.3"/>
        <line class="st3" x1="895.2" y1="502.2" x2="895.2" y2="521.3"/>
        <rect class="st6" x="882" y="422.4" width="26.5" height="79.8"/>
        <path class="st1" d="M892.2,284.2c0-1.1.9-1.9,2.1-1.9s2.1.9,2.1,1.9-.9,2-2.1,2-2.1-.9-2.1-2"/>
        <path class="st1" d="M892.2,290.5c0-1.1.9-1.9,2.1-1.9s2.1.9,2.1,1.9-.9,2-2.1,2-2.1-.9-2.1-2"/>
        <path class="st1" d="M892.2,239.5c0-1.1.9-2,2.1-2s2.1.9,2.1,2-.9,2-2.1,2-2.1-.9-2.1-2"/>
        <path class="st1" d="M892.2,290.5c0-1.1.9-1.9,2.1-1.9s2.1.9,2.1,1.9-.9,2-2.1,2-2.1-.9-2.1-2"/>
        <path class="st1" d="M892.2,290.5c0-1.1.9-1.9,2.1-1.9s2.1.9,2.1,1.9-.9,2-2.1,2-2.1-.9-2.1-2"/>
        <path class="st1" d="M892.2,255.4c0-1.1.9-2,2.1-2s2.1.9,2.1,2-.9,2-2.1,2-2.1-.9-2.1-2"/>
        <path class="st1" d="M892.2,261.8c0-1.1.9-2,2.1-2s2.1.9,2.1,2-.9,2-2.1,2-2.1-.9-2.1-2"/>
        <path class="st1" d="M892.2,293.7c0-1.1.9-2,2.1-2s2.1.9,2.1,2-.9,2-2.1,2-2.1-.9-2.1-2"/>
        <path class="st1" d="M892.2,290.5c0-1.1.9-1.9,2.1-1.9s2.1.9,2.1,1.9-.9,2-2.1,2-2.1-.9-2.1-2"/>
        <path class="st1" d="M892.2,271.4c0-1.1.9-1.9,2.1-1.9s2.1.9,2.1,1.9-.9,2-2.1,2-2.1-.9-2.1-2"/>
        <path class="st1" d="M892.2,281c0-1.1.9-2,2.1-2s2.1.9,2.1,2-.9,2-2.1,2-2.1-.9-2.1-2"/>
        <path class="st1" d="M892.2,284.2c0-1.1.9-1.9,2.1-1.9s2.1.9,2.1,1.9-.9,2-2.1,2-2.1-.9-2.1-2"/>
        <path class="st1" d="M892.2,290.5c0-1.1.9-1.9,2.1-1.9s2.1.9,2.1,1.9-.9,2-2.1,2-2.1-.9-2.1-2"/>
        <path class="st1" d="M892.2,287.3c0-1.1.9-1.9,2.1-1.9s2.1.9,2.1,1.9-.9,2-2.1,2-2.1-.9-2.1-2"/>
        <path class="st1" d="M892.2,277.8c0-1.1.9-2,2.1-2s2.1.9,2.1,2-.9,2-2.1,2-2.1-.9-2.1-2"/>
        <path class="st1" d="M892.2,293.7c0-1.1.9-2,2.1-2s2.1.9,2.1,2-.9,2-2.1,2-2.1-.9-2.1-2"/>
        <path class="st1" d="M892.2,252.2c0-1.1.9-1.9,2.1-1.9s2.1.9,2.1,1.9-.9,2-2.1,2-2.1-.9-2.1-2"/>
        <path class="st1" d="M892.2,252.2c0-1.1.9-1.9,2.1-1.9s2.1.9,2.1,1.9-.9,2-2.1,2-2.1-.9-2.1-2"/>
        <path class="st1" d="M892.2,293.7c0-1.1.9-2,2.1-2s2.1.9,2.1,2-.9,2-2.1,2-2.1-.9-2.1-2"/>
        <path class="st1" d="M892.2,287.3c0-1.1.9-1.9,2.1-1.9s2.1.9,2.1,1.9-.9,2-2.1,2-2.1-.9-2.1-2"/>
      </g>
      <g id="hbasmm2" data-name="hbasmm">
        <rect class="st11" x="803.5" y="434.2" width="26.5" height="67"/>
        <line class="st5" x1="803.5" y1="470.3" x2="830" y2="470.3"/>
        <line class="st3" x1="816.7" y1="435.2" x2="816.7" y2="342.6"/>
        <line class="st3" x1="816.7" y1="502.2" x2="816.7" y2="521.3"/>
        <rect class="st6" x="803.5" y="435.2" width="26.5" height="67"/>
        <path class="st1" d="M813.9,316.1c0-1.1.9-2,2.1-2s2.1.9,2.1,2-.9,2-2.1,2-2.1-.9-2.1-2"/>
        <path class="st1" d="M813.9,265c0-1.1.9-1.9,2.1-1.9s2.1.9,2.1,1.9-.9,2-2.1,2-2.1-.9-2.1-2"/>
        <path class="st1" d="M813.9,281c0-1.1.9-2,2.1-2s2.1.9,2.1,2-.9,2-2.1,2-2.1-.9-2.1-2"/>
      </g>
      <g id="hbasom2" data-name="hbasom">
        <rect class="st11" x="725" y="415" width="26.5" height="76.6"/>
        <line class="st5" x1="725" y1="460.7" x2="751.5" y2="460.7"/>
        <line class="st3" x1="738.3" y1="416" x2="738.3" y2="301.1"/>
        <line class="st3" x1="738.3" y1="492.6" x2="738.3" y2="521.3"/>
        <rect class="st6" x="725" y="416" width="26.5" height="76.6"/>
        <path class="st1" d="M736.1,281c0-1.1.9-2,2.1-2s2.1.9,2.1,2-.9,2-2.1,2-2.1-.9-2.1-2"/>
        <path class="st1" d="M736.1,274.6c0-1.1.9-2,2.1-2s2.1.9,2.1,2-.9,2-2.1,2-2.1-.9-2.1-2"/>
        <path class="st1" d="M736.1,249c0-1.1.9-1.9,2.1-1.9s2.1.9,2.1,1.9-.9,2-2.1,2-2.1-.9-2.1-2"/>
        <path class="st1" d="M736.1,236.3c0-1.1.9-1.9,2.1-1.9s2.1.9,2.1,1.9-.9,2-2.1,2-2.1-.9-2.1-2"/>
        <path class="st1" d="M736.1,274.6c0-1.1.9-2,2.1-2s2.1.9,2.1,2-.9,2-2.1,2-2.1-.9-2.1-2"/>
        <path class="st1" d="M736.1,233.1c0-1.1.9-1.9,2.1-1.9s2.1.9,2.1,1.9-.9,2-2.1,2-2.1-.9-2.1-2"/>
        <path class="st1" d="M736.1,281c0-1.1.9-2,2.1-2s2.1.9,2.1,2-.9,2-2.1,2-2.1-.9-2.1-2"/>
        <path class="st1" d="M736.1,296.9c0-1.1.9-2,2.1-2s2.1.9,2.1,2-.9,2-2.1,2-2.1-.9-2.1-2"/>
        <path class="st1" d="M736.1,284.2c0-1.1.9-1.9,2.1-1.9s2.1.9,2.1,1.9-.9,2-2.1,2-2.1-.9-2.1-2"/>
        <path class="st1" d="M736.1,255.4c0-1.1.9-2,2.1-2s2.1.9,2.1,2-.9,2-2.1,2-2.1-.9-2.1-2"/>
      </g>
      <g id="hbap2" data-name="hbap">
        <rect class="st11" x="646.6" y="408.6" width="26.5" height="79.8"/>
        <line class="st5" x1="646.6" y1="451.1" x2="673.1" y2="451.1"/>
        <line class="st3" x1="659.8" y1="409.6" x2="659.8" y2="304.3"/>
        <line class="st3" x1="659.8" y1="489.4" x2="659.8" y2="521.3"/>
        <rect class="st6" x="646.6" y="409.6" width="26.5" height="79.8"/>
      </g>
      <g id="hbau2" data-name="hbau">
        <rect class="st11" x="568.1" y="419" width="26.5" height="79"/>
        <line class="st5" x1="568.1" y1="470.3" x2="594.6" y2="470.3"/>
        <line class="st3" x1="581.3" y1="420" x2="581.3" y2="304.3"/>
        <line class="st3" x1="581.3" y1="499" x2="581.3" y2="521.3"/>
        <rect class="st6" x="568.1" y="420" width="26.5" height="79"/>
        <path class="st1" d="M579.3,277.8c0-1.1.9-2,2.1-2s2.1.9,2.1,2-.9,2-2.1,2-2.1-.9-2.1-2"/>
        <path class="st1" d="M579.3,293.7c0-1.1.9-2,2.1-2s2.1.9,2.1,2-.9,2-2.1,2-2.1-.9-2.1-2"/>
        <path class="st1" d="M579.3,296.9c0-1.1.9-2,2.1-2s2.1.9,2.1,2-.9,2-2.1,2-2.1-.9-2.1-2"/>
      </g>
    </g>
    <g id="fea">
      <g id="hbah3" data-name="hbah">
        <rect class="st14" x="852.5" y="354.4" width="26.5" height="67"/>
        <line class="st5" x1="852.5" y1="380.9" x2="879" y2="380.9"/>
        <line class="st3" x1="865.8" y1="355.4" x2="865.8" y2="256.4"/>
        <rect class="st6" x="852.5" y="355.4" width="26.5" height="67"/>
        <line class="st3" x1="865.8" y1="422.4" x2="865.8" y2="521.3"/>
        <path class="st1" d="M863.5,121.4c0-1.1.9-1.9,2.1-1.9s2.1.9,2.1,1.9-.9,2-2.1,2-2.1-.9-2.1-2"/>
        <path class="st1" d="M863.5,118.2c0-1.1.9-2,2.1-2s2.1.9,2.1,2-.9,2-2.1,2-2.1-.9-2.1-2"/>
        <path class="st1" d="M863.5,169.3c0-1.1.9-2,2.1-2s2.1.9,2.1,2-.9,2-2.1,2-2.1-.9-2.1-2"/>
        <path class="st1" d="M863.5,159.7c0-1.1.9-1.9,2.1-1.9s2.1.9,2.1,1.9-.9,2-2.1,2-2.1-.9-2.1-2"/>
      </g>
      <g id="hbasmm3" data-name="hbasmm">
        <rect class="st14" x="774.1" y="351.2" width="26.5" height="67"/>
        <line class="st5" x1="774.1" y1="377.7" x2="800.6" y2="377.7"/>
        <line class="st3" x1="787.3" y1="352.2" x2="787.3" y2="307.5"/>
        <rect class="st6" x="774.1" y="352.2" width="26.5" height="67"/>
        <line class="st3" x1="787.3" y1="419.2" x2="787.3" y2="518.2"/>
        <path class="st1" d="M785,236.3c0-1.1.9-1.9,2.1-1.9s2.1.9,2.1,1.9-.9,2-2.1,2-2.1-.9-2.1-2"/>
        <path class="st1" d="M785,520.3c0-1.1.9-1.9,2.1-1.9s2.1.9,2.1,1.9-.9,2-2.1,2-2.1-.9-2.1-2"/>
        <path class="st1" d="M785,520.3c0-1.1.9-1.9,2.1-1.9s2.1.9,2.1,1.9-.9,2-2.1,2-2.1-.9-2.1-2"/>
      </g>
      <g id="hbasom3" data-name="hbasom">
        <rect class="st14" x="695.6" y="351.2" width="26.5" height="70.2"/>
        <line class="st5" x1="695.6" y1="377.7" x2="722.1" y2="377.7"/>
        <line class="st3" x1="708.8" y1="352.2" x2="708.8" y2="262.8"/>
        <rect class="st6" x="695.6" y="352.2" width="26.5" height="70.2"/>
        <line class="st3" x1="708.8" y1="422.4" x2="708.8" y2="521.3"/>
        <path class="st1" d="M707.4,236.3c0-1.1.9-1.9,2.1-1.9s2.1.9,2.1,1.9-.9,2-2.1,2-2.1-.9-2.1-2"/>
        <path class="st1" d="M707.4,242.7c0-1.1.9-2,2.1-2s2.1.9,2.1,2-.9,2-2.1,2-2.1-.9-2.1-2"/>
      </g>
      <g id="hbap3" data-name="hbap">
        <rect class="st14" x="617.2" y="364" width="26.5" height="68.6"/>
        <line class="st5" x1="617.2" y1="392.1" x2="643.6" y2="392.1"/>
        <line class="st3" x1="630.4" y1="365" x2="630.4" y2="301.1"/>
        <rect class="st6" x="617.2" y="365" width="26.5" height="68.6"/>
        <line class="st3" x1="630.4" y1="433.6" x2="630.4" y2="515"/>
      </g>
      <g id="hbau3" data-name="hbau">
        <rect class="st14" x="538.7" y="354.4" width="26.5" height="67"/>
        <line class="st5" x1="538.7" y1="380.9" x2="565.2" y2="380.9"/>
        <line class="st3" x1="551.9" y1="355.4" x2="551.9" y2="262.8"/>
        <rect class="st6" x="538.7" y="355.4" width="26.5" height="67"/>
        <line class="st3" x1="551.9" y1="422.4" x2="551.9" y2="518.2"/>
        <path class="st1" d="M549.7,204.4c0-1.1.9-2,2.1-2s2.1.9,2.1,2-.9,2-2.1,2-2.1-.9-2.1-2"/>
        <path class="st1" d="M549.7,217.1c0-1.1.9-1.9,2.1-1.9s2.1.9,2.1,1.9-.9,2-2.1,2-2.1-.9-2.1-2"/>
      </g>
    </g>
    <g id="mua">
      <g id="hbah4" data-name="hbah">
        <rect class="st11" x="439.3" y="469.3" width="26.5" height="38.3"/>
        <line class="st5" x1="439.3" y1="495.8" x2="465.8" y2="495.8"/>
        <line class="st3" x1="452.5" y1="470.3" x2="452.5" y2="412.8"/>
        <line class="st3" x1="452.5" y1="508.6" x2="452.5" y2="521.3"/>
        <rect class="st6" x="439.3" y="470.3" width="26.5" height="38.3"/>
        <path class="st1" d="M450.4,373.5c0-1.1.9-1.9,2.1-1.9s2.1.9,2.1,1.9-.9,2-2.1,2-2.1-.9-2.1-2"/>
        <path class="st1" d="M450.4,379.9c0-1.1.9-1.9,2.1-1.9s2.1.9,2.1,1.9-.9,2-2.1,2-2.1-.9-2.1-2"/>
        <path class="st1" d="M450.4,402.3c0-1.1.9-2,2.1-2s2.1.9,2.1,2-.9,2-2.1,2-2.1-.9-2.1-2"/>
        <path class="st1" d="M450.4,405.4c0-1.1.9-2,2.1-2s2.1.9,2.1,2-.9,2-2.1,2-2.1-.9-2.1-2"/>
        <path class="st1" d="M450.4,408.6c0-1.1.9-1.9,2.1-1.9s2.1.9,2.1,1.9-.9,2-2.1,2-2.1-.9-2.1-2"/>
        <path class="st1" d="M450.4,383.1c0-1.1.9-2,2.1-2s2.1.9,2.1,2-.9,2-2.1,2-2.1-.9-2.1-2"/>
        <path class="st1" d="M450.4,395.9c0-1.1.9-1.9,2.1-1.9s2.1.9,2.1,1.9-.9,2-2.1,2-2.1-.9-2.1-2"/>
        <path class="st1" d="M450.4,379.9c0-1.1.9-1.9,2.1-1.9s2.1.9,2.1,1.9-.9,2-2.1,2-2.1-.9-2.1-2"/>
        <path class="st1" d="M450.4,402.3c0-1.1.9-2,2.1-2s2.1.9,2.1,2-.9,2-2.1,2-2.1-.9-2.1-2"/>
        <path class="st1" d="M450.4,268.2c0-1.1.9-1.9,2.1-1.9s2.1.9,2.1,1.9-.9,2-2.1,2-2.1-.9-2.1-2"/>
        <path class="st1" d="M450.4,402.3c0-1.1.9-2,2.1-2s2.1.9,2.1,2-.9,2-2.1,2-2.1-.9-2.1-2"/>
        <path class="st1" d="M450.4,312.9c0-1.1.9-2,2.1-2s2.1.9,2.1,2-.9,2-2.1,2-2.1-.9-2.1-2"/>
        <path class="st1" d="M450.4,402.3c0-1.1.9-2,2.1-2s2.1.9,2.1,2-.9,2-2.1,2-2.1-.9-2.1-2"/>
        <path class="st1" d="M450.4,367.1c0-1.1.9-2,2.1-2s2.1.9,2.1,2-.9,2-2.1,2-2.1-.9-2.1-2"/>
        <path class="st1" d="M450.4,392.7c0-1.1.9-1.9,2.1-1.9s2.1.9,2.1,1.9-.9,2-2.1,2-2.1-.9-2.1-2"/>
        <path class="st1" d="M450.4,395.9c0-1.1.9-1.9,2.1-1.9s2.1.9,2.1,1.9-.9,2-2.1,2-2.1-.9-2.1-2"/>
        <path class="st1" d="M450.4,351.2c0-1.1.9-2,2.1-2s2.1.9,2.1,2-.9,2-2.1,2-2.1-.9-2.1-2"/>
        <path class="st1" d="M450.4,338.4c0-1.1.9-1.9,2.1-1.9s2.1.9,2.1,1.9-.9,2-2.1,2-2.1-.9-2.1-2"/>
        <path class="st1" d="M450.4,357.6c0-1.1.9-1.9,2.1-1.9s2.1.9,2.1,1.9-.9,2-2.1,2-2.1-.9-2.1-2"/>
        <path class="st1" d="M450.4,402.3c0-1.1.9-2,2.1-2s2.1.9,2.1,2-.9,2-2.1,2-2.1-.9-2.1-2"/>
        <path class="st1" d="M450.4,335.2c0-1.1.9-2,2.1-2s2.1.9,2.1,2-.9,2-2.1,2-2.1-.9-2.1-2"/>
        <path class="st1" d="M450.4,354.4c0-1.1.9-1.9,2.1-1.9s2.1.9,2.1,1.9-.9,2-2.1,2-2.1-.9-2.1-2"/>
        <path class="st1" d="M450.4,399.1c0-1.1.9-1.9,2.1-1.9s2.1.9,2.1,1.9-.9,2-2.1,2-2.1-.9-2.1-2"/>
        <path class="st1" d="M450.4,312.9c0-1.1.9-2,2.1-2s2.1.9,2.1,2-.9,2-2.1,2-2.1-.9-2.1-2"/>
        <path class="st1" d="M450.4,405.4c0-1.1.9-2,2.1-2s2.1.9,2.1,2-.9,2-2.1,2-2.1-.9-2.1-2"/>
        <path class="st1" d="M450.4,399.1c0-1.1.9-1.9,2.1-1.9s2.1.9,2.1,1.9-.9,2-2.1,2-2.1-.9-2.1-2"/>
        <path class="st1" d="M450.4,322.5c0-1.1.9-1.9,2.1-1.9s2.1.9,2.1,1.9-.9,2-2.1,2-2.1-.9-2.1-2"/>
        <path class="st1" d="M450.4,389.5c0-1.1.9-2,2.1-2s2.1.9,2.1,2-.9,2-2.1,2-2.1-.9-2.1-2"/>
      </g>
      <g id="hbasmm4" data-name="hbasmm">
        <rect class="st11" x="360.9" y="474.1" width="26.5" height="36.7"/>
        <line class="st5" x1="360.9" y1="499" x2="387.3" y2="499"/>
        <line class="st3" x1="374.1" y1="475.1" x2="374.1" y2="422.4"/>
        <line class="st3" x1="374.1" y1="511.8" x2="374.1" y2="521.3"/>
        <rect class="st6" x="360.9" y="475.1" width="26.5" height="36.7"/>
        <path class="st1" d="M371.9,370.3c0-1.1.9-2,2.1-2s2.1.9,2.1,2-.9,2-2.1,2-2.1-.9-2.1-2"/>
        <path class="st1" d="M371.9,360.8c0-1.1.9-1.9,2.1-1.9s2.1.9,2.1,1.9-.9,2-2.1,2-2.1-.9-2.1-2"/>
        <path class="st1" d="M371.9,389.5c0-1.1.9-2,2.1-2s2.1.9,2.1,2-.9,2-2.1,2-2.1-.9-2.1-2"/>
        <path class="st1" d="M371.9,312.9c0-1.1.9-2,2.1-2s2.1.9,2.1,2-.9,2-2.1,2-2.1-.9-2.1-2"/>
      </g>
      <g id="hbasom4" data-name="hbasom">
        <rect class="st11" x="282.5" y="466.1" width="26.5" height="41.5"/>
        <line class="st5" x1="282.5" y1="495.8" x2="308.9" y2="495.8"/>
        <line class="st3" x1="295.7" y1="467.1" x2="295.7" y2="406.4"/>
        <line class="st3" x1="295.7" y1="508.6" x2="295.7" y2="521.3"/>
        <rect class="st6" x="282.5" y="467.1" width="26.5" height="41.5"/>
        <path class="st1" d="M293.3,402.3c0-1.1.9-2,2.1-2s2.1.9,2.1,2-.9,2-2.1,2-2.1-.9-2.1-2"/>
        <path class="st1" d="M293.3,392.7c0-1.1.9-1.9,2.1-1.9s2.1.9,2.1,1.9-.9,2-2.1,2-2.1-.9-2.1-2"/>
        <path class="st1" d="M293.3,402.3c0-1.1.9-2,2.1-2s2.1.9,2.1,2-.9,2-2.1,2-2.1-.9-2.1-2"/>
        <path class="st1" d="M293.3,379.9c0-1.1.9-1.9,2.1-1.9s2.1.9,2.1,1.9-.9,2-2.1,2-2.1-.9-2.1-2"/>
        <path class="st1" d="M293.3,351.2c0-1.1.9-2,2.1-2s2.1.9,2.1,2-.9,2-2.1,2-2.1-.9-2.1-2"/>
        <path class="st1" d="M293.3,392.7c0-1.1.9-1.9,2.1-1.9s2.1.9,2.1,1.9-.9,2-2.1,2-2.1-.9-2.1-2"/>
        <path class="st1" d="M293.3,354.4c0-1.1.9-1.9,2.1-1.9s2.1.9,2.1,1.9-.9,2-2.1,2-2.1-.9-2.1-2"/>
        <path class="st1" d="M293.3,399.1c0-1.1.9-1.9,2.1-1.9s2.1.9,2.1,1.9-.9,2-2.1,2-2.1-.9-2.1-2"/>
        <path class="st1" d="M293.3,338.4c0-1.1.9-1.9,2.1-1.9s2.1.9,2.1,1.9-.9,2-2.1,2-2.1-.9-2.1-2"/>
        <path class="st1" d="M293.3,389.5c0-1.1.9-2,2.1-2s2.1.9,2.1,2-.9,2-2.1,2-2.1-.9-2.1-2"/>
        <path class="st1" d="M293.3,402.3c0-1.1.9-2,2.1-2s2.1.9,2.1,2-.9,2-2.1,2-2.1-.9-2.1-2"/>
        <path class="st1" d="M293.3,348c0-1.1.9-2,2.1-2s2.1.9,2.1,2-.9,2-2.1,2-2.1-.9-2.1-2"/>
        <path class="st1" d="M293.3,395.9c0-1.1.9-1.9,2.1-1.9s2.1.9,2.1,1.9-.9,2-2.1,2-2.1-.9-2.1-2"/>
        <path class="st1" d="M293.3,399.1c0-1.1.9-1.9,2.1-1.9s2.1.9,2.1,1.9-.9,2-2.1,2-2.1-.9-2.1-2"/>
        <path class="st1" d="M293.3,370.3c0-1.1.9-2,2.1-2s2.1.9,2.1,2-.9,2-2.1,2-2.1-.9-2.1-2"/>
        <path class="st1" d="M293.3,402.3c0-1.1.9-2,2.1-2s2.1.9,2.1,2-.9,2-2.1,2-2.1-.9-2.1-2"/>
        <path class="st1" d="M293.3,392.7c0-1.1.9-1.9,2.1-1.9s2.1.9,2.1,1.9-.9,2-2.1,2-2.1-.9-2.1-2"/>
        <path class="st1" d="M293.3,389.5c0-1.1.9-2,2.1-2s2.1.9,2.1,2-.9,2-2.1,2-2.1-.9-2.1-2"/>
        <path class="st1" d="M293.3,274.6c0-1.1.9-2,2.1-2s2.1.9,2.1,2-.9,2-2.1,2-2.1-.9-2.1-2"/>
        <path class="st1" d="M293.3,379.9c0-1.1.9-1.9,2.1-1.9s2.1.9,2.1,1.9-.9,2-2.1,2-2.1-.9-2.1-2"/>
        <path class="st1" d="M293.3,351.2c0-1.1.9-2,2.1-2s2.1.9,2.1,2-.9,2-2.1,2-2.1-.9-2.1-2"/>
        <path class="st1" d="M293.3,402.3c0-1.1.9-2,2.1-2s2.1.9,2.1,2-.9,2-2.1,2-2.1-.9-2.1-2"/>
        <path class="st1" d="M293.3,370.3c0-1.1.9-2,2.1-2s2.1.9,2.1,2-.9,2-2.1,2-2.1-.9-2.1-2"/>
        <path class="st1" d="M293.3,399.1c0-1.1.9-1.9,2.1-1.9s2.1.9,2.1,1.9-.9,2-2.1,2-2.1-.9-2.1-2"/>
        <path class="st1" d="M293.3,386.3c0-1.1.9-2,2.1-2s2.1.9,2.1,2-.9,2-2.1,2-2.1-.9-2.1-2"/>
        <path class="st1" d="M293.3,335.2c0-1.1.9-2,2.1-2s2.1.9,2.1,2-.9,2-2.1,2-2.1-.9-2.1-2"/>
        <path class="st1" d="M293.3,338.4c0-1.1.9-1.9,2.1-1.9s2.1.9,2.1,1.9-.9,2-2.1,2-2.1-.9-2.1-2"/>
        <path class="st1" d="M293.3,395.9c0-1.1.9-1.9,2.1-1.9s2.1.9,2.1,1.9-.9,2-2.1,2-2.1-.9-2.1-2"/>
        <path class="st1" d="M293.3,402.3c0-1.1.9-2,2.1-2s2.1.9,2.1,2-.9,2-2.1,2-2.1-.9-2.1-2"/>
        <path class="st1" d="M293.3,399.1c0-1.1.9-1.9,2.1-1.9s2.1.9,2.1,1.9-.9,2-2.1,2-2.1-.9-2.1-2"/>
        <path class="st1" d="M293.3,399.1c0-1.1.9-1.9,2.1-1.9s2.1.9,2.1,1.9-.9,2-2.1,2-2.1-.9-2.1-2"/>
      </g>
      <g id="hbap4" data-name="hbap">
        <rect class="st11" x="204" y="456.5" width="26.5" height="47.9"/>
        <line class="st5" x1="204" y1="483" x2="230.5" y2="483"/>
        <line class="st3" x1="217.3" y1="457.5" x2="217.3" y2="387.3"/>
        <line class="st3" x1="217.3" y1="505.4" x2="217.3" y2="521.3"/>
        <rect class="st6" x="204" y="457.5" width="26.5" height="47.9"/>
        <path class="st1" d="M215.1,370.3c0-1.1.9-2,2.1-2s2.1.9,2.1,2-.9,2-2.1,2-2.1-.9-2.1-2"/>
        <path class="st1" d="M215.1,354.4c0-1.1.9-1.9,2.1-1.9s2.1.9,2.1,1.9-.9,2-2.1,2-2.1-.9-2.1-2"/>
        <path class="st1" d="M215.1,325.6c0-1.1.9-1.9,2.1-1.9s2.1.9,2.1,1.9-.9,2-2.1,2-2.1-.9-2.1-2"/>
        <path class="st1" d="M215.1,383.1c0-1.1.9-2,2.1-2s2.1.9,2.1,2-.9,2-2.1,2-2.1-.9-2.1-2"/>
        <path class="st1" d="M215.1,341.6c0-1.1.9-1.9,2.1-1.9s2.1.9,2.1,1.9-.9,2-2.1,2-2.1-.9-2.1-2"/>
      </g>
      <g id="hbau4" data-name="hbau">
        <rect class="st11" x="125.6" y="472.5" width="26.5" height="38.3"/>
        <line class="st5" x1="125.6" y1="495.8" x2="152.1" y2="495.8"/>
        <line class="st3" x1="138.9" y1="473.5" x2="138.9" y2="419.2"/>
        <line class="st3" x1="138.9" y1="511.8" x2="138.9" y2="521.3"/>
        <rect class="st6" x="125.6" y="473.5" width="26.5" height="38.3"/>
        <path class="st1" d="M136.8,373.5c0-1.1.9-1.9,2.1-1.9s2.1.9,2.1,1.9-.9,2-2.1,2-2.1-.9-2.1-2"/>
        <path class="st1" d="M136.8,379.9c0-1.1.9-1.9,2.1-1.9s2.1.9,2.1,1.9-.9,2-2.1,2-2.1-.9-2.1-2"/>
        <path class="st1" d="M136.8,405.4c0-1.1.9-2,2.1-2s2.1.9,2.1,2-.9,2-2.1,2-2.1-.9-2.1-2"/>
        <path class="st1" d="M136.8,373.5c0-1.1.9-1.9,2.1-1.9s2.1.9,2.1,1.9-.9,2-2.1,2-2.1-.9-2.1-2"/>
        <path class="st1" d="M136.8,389.5c0-1.1.9-2,2.1-2s2.1.9,2.1,2-.9,2-2.1,2-2.1-.9-2.1-2"/>
        <path class="st1" d="M136.8,379.9c0-1.1.9-1.9,2.1-1.9s2.1.9,2.1,1.9-.9,2-2.1,2-2.1-.9-2.1-2"/>
        <path class="st1" d="M136.8,415c0-1.1.9-1.9,2.1-1.9s2.1.9,2.1,1.9-.9,2-2.1,2-2.1-.9-2.1-2"/>
        <path class="st1" d="M136.8,386.3c0-1.1.9-2,2.1-2s2.1.9,2.1,2-.9,2-2.1,2-2.1-.9-2.1-2"/>
        <path class="st1" d="M136.8,383.1c0-1.1.9-2,2.1-2s2.1.9,2.1,2-.9,2-2.1,2-2.1-.9-2.1-2"/>
      </g>
    </g>
    <g id="mea">
      <g id="hbah5" data-name="hbah">
        <rect class="st14" x="409.9" y="335.2" width="26.5" height="47.9"/>
        <line class="st5" x1="409.9" y1="361.8" x2="436.4" y2="361.8"/>
        <line class="st3" x1="423.1" y1="336.2" x2="423.1" y2="266"/>
        <line class="st3" x1="423.1" y1="384.1" x2="423.1" y2="454.3"/>
        <rect class="st6" x="409.9" y="336.2" width="26.5" height="47.9"/>
        <path class="st1" d="M421.4,466.8c0-1.1.9-1.9,2.1-1.9s2.1.9,2.1,1.9-.9,2-2.1,2-2.1-.9-2.1-2"/>
        <path class="st1" d="M421.4,492.3c0-1.1.9-2,2.1-2s2.1.9,2.1,2-.9,2-2.1,2-2.1-.9-2.1-2"/>
        <path class="st1" d="M421.4,463.6c0-1.1.9-1.9,2.1-1.9s2.1.9,2.1,1.9-.9,2-2.1,2-2.1-.9-2.1-2"/>
        <path class="st1" d="M421.4,505.1c0-1.1.9-1.9,2.1-1.9s2.1.9,2.1,1.9-.9,2-2.1,2-2.1-.9-2.1-2"/>
        <path class="st1" d="M421.4,498.7c0-1.1.9-2,2.1-2s2.1.9,2.1,2-.9,2-2.1,2-2.1-.9-2.1-2"/>
        <path class="st1" d="M421.4,486c0-1.1.9-1.9,2.1-1.9s2.1.9,2.1,1.9-.9,2-2.1,2-2.1-.9-2.1-2"/>
        <path class="st1" d="M421.4,476.4c0-1.1.9-2,2.1-2s2.1.9,2.1,2-.9,2-2.1,2-2.1-.9-2.1-2"/>
        <path class="st1" d="M421.4,501.9c0-1.1.9-1.9,2.1-1.9s2.1.9,2.1,1.9-.9,2-2.1,2-2.1-.9-2.1-2"/>
        <path class="st1" d="M421.4,217.8c0-1.1.9-1.9,2.1-1.9s2.1.9,2.1,1.9-.9,2-2.1,2-2.1-.9-2.1-2"/>
        <path class="st1" d="M421.4,198.7c0-1.1.9-1.9,2.1-1.9s2.1.9,2.1,1.9-.9,2-2.1,2-2.1-.9-2.1-2"/>
        <path class="st1" d="M421.4,476.4c0-1.1.9-2,2.1-2s2.1.9,2.1,2-.9,2-2.1,2-2.1-.9-2.1-2"/>
        <path class="st1" d="M421.4,457.2c0-1.1.9-2,2.1-2s2.1.9,2.1,2-.9,2-2.1,2-2.1-.9-2.1-2"/>
        <path class="st1" d="M421.4,492.3c0-1.1.9-2,2.1-2s2.1.9,2.1,2-.9,2-2.1,2-2.1-.9-2.1-2"/>
        <path class="st1" d="M421.4,262.5c0-1.1.9-2,2.1-2s2.1.9,2.1,2-.9,2-2.1,2-2.1-.9-2.1-2"/>
        <path class="st1" d="M421.4,259.3c0-1.1.9-2,2.1-2s2.1.9,2.1,2-.9,2-2.1,2-2.1-.9-2.1-2"/>
        <path class="st1" d="M421.4,505.1c0-1.1.9-1.9,2.1-1.9s2.1.9,2.1,1.9-.9,2-2.1,2-2.1-.9-2.1-2"/>
        <path class="st1" d="M421.4,466.8c0-1.1.9-1.9,2.1-1.9s2.1.9,2.1,1.9-.9,2-2.1,2-2.1-.9-2.1-2"/>
        <path class="st1" d="M421.4,256.2c0-1.1.9-2,2.1-2s2.1.9,2.1,2-.9,2-2.1,2-2.1-.9-2.1-2"/>
        <path class="st1" d="M421.4,498.7c0-1.1.9-2,2.1-2s2.1.9,2.1,2-.9,2-2.1,2-2.1-.9-2.1-2"/>
        <path class="st1" d="M421.4,486c0-1.1.9-1.9,2.1-1.9s2.1.9,2.1,1.9-.9,2-2.1,2-2.1-.9-2.1-2"/>
        <path class="st1" d="M421.4,521.1c0-1.1.9-1.9,2.1-1.9s2.1.9,2.1,1.9-.9,2-2.1,2-2.1-.9-2.1-2"/>
        <path class="st1" d="M421.4,498.7c0-1.1.9-2,2.1-2s2.1.9,2.1,2-.9,2-2.1,2-2.1-.9-2.1-2"/>
        <path class="st1" d="M421.4,482.8c0-1.1.9-1.9,2.1-1.9s2.1.9,2.1,1.9-.9,2-2.1,2-2.1-.9-2.1-2"/>
        <path class="st1" d="M421.4,460.4c0-1.1.9-2,2.1-2s2.1.9,2.1,2-.9,2-2.1,2-2.1-.9-2.1-2"/>
        <path class="st1" d="M421.4,479.6c0-1.1.9-2,2.1-2s2.1.9,2.1,2-.9,2-2.1,2-2.1-.9-2.1-2"/>
        <path class="st1" d="M421.4,476.4c0-1.1.9-2,2.1-2s2.1.9,2.1,2-.9,2-2.1,2-2.1-.9-2.1-2"/>
        <path class="st1" d="M421.4,466.8c0-1.1.9-1.9,2.1-1.9s2.1.9,2.1,1.9-.9,2-2.1,2-2.1-.9-2.1-2"/>
        <path class="st1" d="M421.4,486c0-1.1.9-1.9,2.1-1.9s2.1.9,2.1,1.9-.9,2-2.1,2-2.1-.9-2.1-2"/>
        <path class="st1" d="M421.4,466.8c0-1.1.9-1.9,2.1-1.9s2.1.9,2.1,1.9-.9,2-2.1,2-2.1-.9-2.1-2"/>
        <path class="st1" d="M421.4,479.6c0-1.1.9-2,2.1-2s2.1.9,2.1,2-.9,2-2.1,2-2.1-.9-2.1-2"/>
        <path class="st1" d="M421.4,470c0-1.1.9-1.9,2.1-1.9s2.1.9,2.1,1.9-.9,2-2.1,2-2.1-.9-2.1-2"/>
        <path class="st1" d="M421.4,246.6c0-1.1.9-1.9,2.1-1.9s2.1.9,2.1,1.9-.9,2-2.1,2-2.1-.9-2.1-2"/>
        <path class="st1" d="M421.4,237c0-1.1.9-1.9,2.1-1.9s2.1.9,2.1,1.9-.9,2-2.1,2-2.1-.9-2.1-2"/>
        <path class="st1" d="M421.4,463.6c0-1.1.9-1.9,2.1-1.9s2.1.9,2.1,1.9-.9,2-2.1,2-2.1-.9-2.1-2"/>
        <path class="st1" d="M421.4,508.3c0-1.1.9-1.9,2.1-1.9s2.1.9,2.1,1.9-.9,2-2.1,2-2.1-.9-2.1-2"/>
        <path class="st1" d="M421.4,457.2c0-1.1.9-2,2.1-2s2.1.9,2.1,2-.9,2-2.1,2-2.1-.9-2.1-2"/>
        <path class="st1" d="M421.4,211.5c0-1.1.9-1.9,2.1-1.9s2.1.9,2.1,1.9-.9,2-2.1,2-2.1-.9-2.1-2"/>
      </g>
      <g id="hbasmm5" data-name="hbasmm">
        <rect class="st14" x="331.5" y="344.8" width="26.5" height="31.9"/>
        <line class="st5" x1="331.5" y1="361.8" x2="357.9" y2="361.8"/>
        <line class="st3" x1="344.7" y1="345.8" x2="344.7" y2="310.7"/>
        <line class="st3" x1="344.7" y1="377.7" x2="344.7" y2="425.6"/>
        <rect class="st6" x="331.5" y="345.8" width="26.5" height="31.9"/>
        <path class="st1" d="M342.6,134.1c0-1.1.9-2,2.1-2s2.1.9,2.1,2-.9,2-2.1,2-2.1-.9-2.1-2"/>
        <path class="st1" d="M342.6,450.1c0-1.1.9-1.9,2.1-1.9s2.1.9,2.1,1.9-.9,2-2.1,2-2.1-.9-2.1-2"/>
        <path class="st1" d="M342.6,290.5c0-1.1.9-1.9,2.1-1.9s2.1.9,2.1,1.9-.9,2-2.1,2-2.1-.9-2.1-2"/>
        <path class="st1" d="M342.6,446.9c0-1.1.9-1.9,2.1-1.9s2.1.9,2.1,1.9-.9,2-2.1,2-2.1-.9-2.1-2"/>
        <path class="st1" d="M342.6,290.5c0-1.1.9-1.9,2.1-1.9s2.1.9,2.1,1.9-.9,2-2.1,2-2.1-.9-2.1-2"/>
        <path class="st1" d="M342.6,510.8c0-1.1.9-2,2.1-2s2.1.9,2.1,2-.9,2-2.1,2-2.1-.9-2.1-2"/>
        <path class="st1" d="M342.6,293.7c0-1.1.9-2,2.1-2s2.1.9,2.1,2-.9,2-2.1,2-2.1-.9-2.1-2"/>
        <path class="st1" d="M342.6,456.5c0-1.1.9-2,2.1-2s2.1.9,2.1,2-.9,2-2.1,2-2.1-.9-2.1-2"/>
        <path class="st1" d="M342.6,229.9c0-1.1.9-1.9,2.1-1.9s2.1.9,2.1,1.9-.9,2-2.1,2-2.1-.9-2.1-2"/>
        <path class="st1" d="M342.6,287.3c0-1.1.9-1.9,2.1-1.9s2.1.9,2.1,1.9-.9,2-2.1,2-2.1-.9-2.1-2"/>
        <path class="st1" d="M342.6,446.9c0-1.1.9-1.9,2.1-1.9s2.1.9,2.1,1.9-.9,2-2.1,2-2.1-.9-2.1-2"/>
        <path class="st1" d="M342.6,491.6c0-1.1.9-2,2.1-2s2.1.9,2.1,2-.9,2-2.1,2-2.1-.9-2.1-2"/>
        <path class="st1" d="M342.6,485.2c0-1.1.9-1.9,2.1-1.9s2.1.9,2.1,1.9-.9,2-2.1,2-2.1-.9-2.1-2"/>
        <path class="st1" d="M342.6,213.9c0-1.1.9-1.9,2.1-1.9s2.1.9,2.1,1.9-.9,2-2.1,2-2.1-.9-2.1-2"/>
        <path class="st1" d="M342.6,456.5c0-1.1.9-2,2.1-2s2.1.9,2.1,2-.9,2-2.1,2-2.1-.9-2.1-2"/>
        <path class="st1" d="M342.6,446.9c0-1.1.9-1.9,2.1-1.9s2.1.9,2.1,1.9-.9,2-2.1,2-2.1-.9-2.1-2"/>
        <path class="st1" d="M342.6,446.9c0-1.1.9-1.9,2.1-1.9s2.1.9,2.1,1.9-.9,2-2.1,2-2.1-.9-2.1-2"/>
      </g>
      <g id="hbasom5" data-name="hbasom">
        <rect class="st14" x="253" y="332" width="26.5" height="41.5"/>
        <line class="st5" x1="253" y1="355.4" x2="279.5" y2="355.4"/>
        <line class="st3" x1="266.3" y1="333" x2="266.3" y2="272.4"/>
        <line class="st3" x1="266.3" y1="374.5" x2="266.3" y2="435.2"/>
        <rect class="st6" x="253" y="333" width="26.5" height="41.5"/>
        <path class="st1" d="M263.8,462.9c0-1.1.9-1.9,2.1-1.9s2.1.9,2.1,1.9-.9,2-2.1,2-2.1-.9-2.1-2"/>
        <path class="st1" d="M263.8,514c0-1.1.9-2,2.1-2s2.1.9,2.1,2-.9,2-2.1,2-2.1-.9-2.1-2"/>
        <path class="st1" d="M263.8,462.9c0-1.1.9-1.9,2.1-1.9s2.1.9,2.1,1.9-.9,2-2.1,2-2.1-.9-2.1-2"/>
        <path class="st1" d="M263.8,478.9c0-1.1.9-2,2.1-2s2.1.9,2.1,2-.9,2-2.1,2-2.1-.9-2.1-2"/>
        <path class="st1" d="M263.8,265c0-1.1.9-1.9,2.1-1.9s2.1.9,2.1,1.9-.9,2-2.1,2-2.1-.9-2.1-2"/>
        <path class="st1" d="M263.8,466.1c0-1.1.9-1.9,2.1-1.9s2.1.9,2.1,1.9-.9,2-2.1,2-2.1-.9-2.1-2"/>
        <path class="st1" d="M263.8,255.4c0-1.1.9-2,2.1-2s2.1.9,2.1,2-.9,2-2.1,2-2.1-.9-2.1-2"/>
        <path class="st1" d="M263.8,242.7c0-1.1.9-2,2.1-2s2.1.9,2.1,2-.9,2-2.1,2-2.1-.9-2.1-2"/>
        <path class="st1" d="M263.8,504.4c0-1.1.9-1.9,2.1-1.9s2.1.9,2.1,1.9-.9,2-2.1,2-2.1-.9-2.1-2"/>
        <path class="st1" d="M263.8,446.9c0-1.1.9-1.9,2.1-1.9s2.1.9,2.1,1.9-.9,2-2.1,2-2.1-.9-2.1-2"/>
        <path class="st1" d="M263.8,265c0-1.1.9-1.9,2.1-1.9s2.1.9,2.1,1.9-.9,2-2.1,2-2.1-.9-2.1-2"/>
        <path class="st1" d="M263.8,245.9c0-1.1.9-1.9,2.1-1.9s2.1.9,2.1,1.9-.9,2-2.1,2-2.1-.9-2.1-2"/>
        <path class="st1" d="M263.8,185.2c0-1.1.9-2,2.1-2s2.1.9,2.1,2-.9,2-2.1,2-2.1-.9-2.1-2"/>
        <path class="st1" d="M263.8,223.5c0-1.1.9-2,2.1-2s2.1.9,2.1,2-.9,2-2.1,2-2.1-.9-2.1-2"/>
        <path class="st1" d="M263.8,504.4c0-1.1.9-1.9,2.1-1.9s2.1.9,2.1,1.9-.9,2-2.1,2-2.1-.9-2.1-2"/>
        <path class="st1" d="M263.8,485.2c0-1.1.9-1.9,2.1-1.9s2.1.9,2.1,1.9-.9,2-2.1,2-2.1-.9-2.1-2"/>
        <path class="st1" d="M263.8,450.1c0-1.1.9-1.9,2.1-1.9s2.1.9,2.1,1.9-.9,2-2.1,2-2.1-.9-2.1-2"/>
        <path class="st1" d="M263.8,485.2c0-1.1.9-1.9,2.1-1.9s2.1.9,2.1,1.9-.9,2-2.1,2-2.1-.9-2.1-2"/>
        <path class="st1" d="M263.8,437.4c0-1.1.9-2,2.1-2s2.1.9,2.1,2-.9,2-2.1,2-2.1-.9-2.1-2"/>
        <path class="st1" d="M263.8,437.4c0-1.1.9-2,2.1-2s2.1.9,2.1,2-.9,2-2.1,2-2.1-.9-2.1-2"/>
        <path class="st1" d="M263.8,462.9c0-1.1.9-1.9,2.1-1.9s2.1.9,2.1,1.9-.9,2-2.1,2-2.1-.9-2.1-2"/>
        <path class="st1" d="M263.8,249c0-1.1.9-1.9,2.1-1.9s2.1.9,2.1,1.9-.9,2-2.1,2-2.1-.9-2.1-2"/>
        <path class="st1" d="M263.8,462.9c0-1.1.9-1.9,2.1-1.9s2.1.9,2.1,1.9-.9,2-2.1,2-2.1-.9-2.1-2"/>
        <path class="st1" d="M263.8,501.2c0-1.1.9-1.9,2.1-1.9s2.1.9,2.1,1.9-.9,2-2.1,2-2.1-.9-2.1-2"/>
        <path class="st1" d="M263.8,437.4c0-1.1.9-2,2.1-2s2.1.9,2.1,2-.9,2-2.1,2-2.1-.9-2.1-2"/>
        <path class="st1" d="M263.8,258.6c0-1.1.9-2,2.1-2s2.1.9,2.1,2-.9,2-2.1,2-2.1-.9-2.1-2"/>
        <path class="st1" d="M263.8,456.5c0-1.1.9-2,2.1-2s2.1.9,2.1,2-.9,2-2.1,2-2.1-.9-2.1-2"/>
        <path class="st1" d="M263.8,466.1c0-1.1.9-1.9,2.1-1.9s2.1.9,2.1,1.9-.9,2-2.1,2-2.1-.9-2.1-2"/>
        <path class="st1" d="M263.8,501.2c0-1.1.9-1.9,2.1-1.9s2.1.9,2.1,1.9-.9,2-2.1,2-2.1-.9-2.1-2"/>
        <path class="st1" d="M263.8,504.4c0-1.1.9-1.9,2.1-1.9s2.1.9,2.1,1.9-.9,2-2.1,2-2.1-.9-2.1-2"/>
        <path class="st1" d="M263.8,268.2c0-1.1.9-1.9,2.1-1.9s2.1.9,2.1,1.9-.9,2-2.1,2-2.1-.9-2.1-2"/>
        <path class="st1" d="M263.8,466.1c0-1.1.9-1.9,2.1-1.9s2.1.9,2.1,1.9-.9,2-2.1,2-2.1-.9-2.1-2"/>
        <path class="st1" d="M263.8,501.2c0-1.1.9-1.9,2.1-1.9s2.1.9,2.1,1.9-.9,2-2.1,2-2.1-.9-2.1-2"/>
        <path class="st1" d="M263.8,475.7c0-1.1.9-2,2.1-2s2.1.9,2.1,2-.9,2-2.1,2-2.1-.9-2.1-2"/>
        <path class="st1" d="M263.8,491.6c0-1.1.9-2,2.1-2s2.1.9,2.1,2-.9,2-2.1,2-2.1-.9-2.1-2"/>
        <path class="st1" d="M263.8,450.1c0-1.1.9-1.9,2.1-1.9s2.1.9,2.1,1.9-.9,2-2.1,2-2.1-.9-2.1-2"/>
        <path class="st1" d="M263.8,466.1c0-1.1.9-1.9,2.1-1.9s2.1.9,2.1,1.9-.9,2-2.1,2-2.1-.9-2.1-2"/>
        <path class="st1" d="M263.8,446.9c0-1.1.9-1.9,2.1-1.9s2.1.9,2.1,1.9-.9,2-2.1,2-2.1-.9-2.1-2"/>
        <path class="st1" d="M263.8,485.2c0-1.1.9-1.9,2.1-1.9s2.1.9,2.1,1.9-.9,2-2.1,2-2.1-.9-2.1-2"/>
        <path class="st1" d="M263.8,456.5c0-1.1.9-2,2.1-2s2.1.9,2.1,2-.9,2-2.1,2-2.1-.9-2.1-2"/>
        <path class="st1" d="M263.8,485.2c0-1.1.9-1.9,2.1-1.9s2.1.9,2.1,1.9-.9,2-2.1,2-2.1-.9-2.1-2"/>
        <path class="st1" d="M263.8,226.7c0-1.1.9-2,2.1-2s2.1.9,2.1,2-.9,2-2.1,2-2.1-.9-2.1-2"/>
        <path class="st1" d="M263.8,488.4c0-1.1.9-1.9,2.1-1.9s2.1.9,2.1,1.9-.9,2-2.1,2-2.1-.9-2.1-2"/>
        <path class="st1" d="M263.8,229.9c0-1.1.9-1.9,2.1-1.9s2.1.9,2.1,1.9-.9,2-2.1,2-2.1-.9-2.1-2"/>
        <path class="st1" d="M263.8,255.4c0-1.1.9-2,2.1-2s2.1.9,2.1,2-.9,2-2.1,2-2.1-.9-2.1-2"/>
        <path class="st1" d="M263.8,245.9c0-1.1.9-1.9,2.1-1.9s2.1.9,2.1,1.9-.9,2-2.1,2-2.1-.9-2.1-2"/>
        <path class="st1" d="M263.8,507.6c0-1.1.9-1.9,2.1-1.9s2.1.9,2.1,1.9-.9,2-2.1,2-2.1-.9-2.1-2"/>
        <path class="st1" d="M263.8,252.2c0-1.1.9-1.9,2.1-1.9s2.1.9,2.1,1.9-.9,2-2.1,2-2.1-.9-2.1-2"/>
        <path class="st1" d="M263.8,450.1c0-1.1.9-1.9,2.1-1.9s2.1.9,2.1,1.9-.9,2-2.1,2-2.1-.9-2.1-2"/>
        <path class="st1" d="M263.8,453.3c0-1.1.9-1.9,2.1-1.9s2.1.9,2.1,1.9-.9,2-2.1,2-2.1-.9-2.1-2"/>
        <path class="st1" d="M263.8,265c0-1.1.9-1.9,2.1-1.9s2.1.9,2.1,1.9-.9,2-2.1,2-2.1-.9-2.1-2"/>
        <path class="st1" d="M263.8,498c0-1.1.9-2,2.1-2s2.1.9,2.1,2-.9,2-2.1,2-2.1-.9-2.1-2"/>
        <path class="st1" d="M263.8,217.1c0-1.1.9-1.9,2.1-1.9s2.1.9,2.1,1.9-.9,2-2.1,2-2.1-.9-2.1-2"/>
        <path class="st1" d="M263.8,475.7c0-1.1.9-2,2.1-2s2.1.9,2.1,2-.9,2-2.1,2-2.1-.9-2.1-2"/>
        <path class="st1" d="M263.8,162.9c0-1.1.9-1.9,2.1-1.9s2.1.9,2.1,1.9-.9,2-2.1,2-2.1-.9-2.1-2"/>
        <path class="st1" d="M263.8,517.2c0-1.1.9-1.9,2.1-1.9s2.1.9,2.1,1.9-.9,2-2.1,2-2.1-.9-2.1-2"/>
        <path class="st1" d="M263.8,501.2c0-1.1.9-1.9,2.1-1.9s2.1.9,2.1,1.9-.9,2-2.1,2-2.1-.9-2.1-2"/>
        <path class="st1" d="M263.8,482c0-1.1.9-1.9,2.1-1.9s2.1.9,2.1,1.9-.9,2-2.1,2-2.1-.9-2.1-2"/>
        <path class="st1" d="M263.8,236.3c0-1.1.9-1.9,2.1-1.9s2.1.9,2.1,1.9-.9,2-2.1,2-2.1-.9-2.1-2"/>
        <path class="st1" d="M263.8,185.2c0-1.1.9-2,2.1-2s2.1.9,2.1,2-.9,2-2.1,2-2.1-.9-2.1-2"/>
        <path class="st1" d="M263.8,255.4c0-1.1.9-2,2.1-2s2.1.9,2.1,2-.9,2-2.1,2-2.1-.9-2.1-2"/>
        <path class="st1" d="M263.8,520.3c0-1.1.9-1.9,2.1-1.9s2.1.9,2.1,1.9-.9,2-2.1,2-2.1-.9-2.1-2"/>
        <path class="st1" d="M263.8,450.1c0-1.1.9-1.9,2.1-1.9s2.1.9,2.1,1.9-.9,2-2.1,2-2.1-.9-2.1-2"/>
        <path class="st1" d="M263.8,258.6c0-1.1.9-2,2.1-2s2.1.9,2.1,2-.9,2-2.1,2-2.1-.9-2.1-2"/>
        <path class="st1" d="M263.8,491.6c0-1.1.9-2,2.1-2s2.1.9,2.1,2-.9,2-2.1,2-2.1-.9-2.1-2"/>
        <path class="st1" d="M263.8,207.6c0-1.1.9-2,2.1-2s2.1.9,2.1,2-.9,2-2.1,2-2.1-.9-2.1-2"/>
        <path class="st1" d="M263.8,510.8c0-1.1.9-2,2.1-2s2.1.9,2.1,2-.9,2-2.1,2-2.1-.9-2.1-2"/>
        <path class="st1" d="M263.8,213.9c0-1.1.9-1.9,2.1-1.9s2.1.9,2.1,1.9-.9,2-2.1,2-2.1-.9-2.1-2"/>
        <path class="st1" d="M263.8,504.4c0-1.1.9-1.9,2.1-1.9s2.1.9,2.1,1.9-.9,2-2.1,2-2.1-.9-2.1-2"/>
        <path class="st1" d="M263.8,437.4c0-1.1.9-2,2.1-2s2.1.9,2.1,2-.9,2-2.1,2-2.1-.9-2.1-2"/>
        <path class="st1" d="M263.8,491.6c0-1.1.9-2,2.1-2s2.1.9,2.1,2-.9,2-2.1,2-2.1-.9-2.1-2"/>
        <path class="st1" d="M263.8,466.1c0-1.1.9-1.9,2.1-1.9s2.1.9,2.1,1.9-.9,2-2.1,2-2.1-.9-2.1-2"/>
        <path class="st1" d="M263.8,111.8c0-1.1.9-2,2.1-2s2.1.9,2.1,2-.9,2-2.1,2-2.1-.9-2.1-2"/>
        <path class="st1" d="M263.8,472.5c0-1.1.9-2,2.1-2s2.1.9,2.1,2-.9,2-2.1,2-2.1-.9-2.1-2"/>
        <path class="st1" d="M263.8,443.7c0-1.1.9-2,2.1-2s2.1.9,2.1,2-.9,2-2.1,2-2.1-.9-2.1-2"/>
        <path class="st1" d="M263.8,268.2c0-1.1.9-1.9,2.1-1.9s2.1.9,2.1,1.9-.9,2-2.1,2-2.1-.9-2.1-2"/>
      </g>
      <g id="hbap5" data-name="hbap">
        <rect class="st14" x="174.6" y="332" width="26.5" height="54.3"/>
        <line class="st5" x1="174.6" y1="361.8" x2="201.1" y2="361.8"/>
        <line class="st3" x1="187.9" y1="333" x2="187.9" y2="266"/>
        <line class="st3" x1="187.9" y1="387.3" x2="187.9" y2="457.5"/>
        <rect class="st6" x="174.6" y="333" width="26.5" height="54.3"/>
        <path class="st1" d="M185.4,514c0-1.1.9-2,2.1-2s2.1.9,2.1,2-.9,2-2.1,2-2.1-.9-2.1-2"/>
        <path class="st1" d="M185.4,485.2c0-1.1.9-1.9,2.1-1.9s2.1.9,2.1,1.9-.9,2-2.1,2-2.1-.9-2.1-2"/>
        <path class="st1" d="M185.4,488.4c0-1.1.9-1.9,2.1-1.9s2.1.9,2.1,1.9-.9,2-2.1,2-2.1-.9-2.1-2"/>
        <path class="st1" d="M185.4,494.8c0-1.1.9-2,2.1-2s2.1.9,2.1,2-.9,2-2.1,2-2.1-.9-2.1-2"/>
        <path class="st1" d="M185.4,517.2c0-1.1.9-1.9,2.1-1.9s2.1.9,2.1,1.9-.9,2-2.1,2-2.1-.9-2.1-2"/>
        <path class="st1" d="M185.4,185.2c0-1.1.9-2,2.1-2s2.1.9,2.1,2-.9,2-2.1,2-2.1-.9-2.1-2"/>
        <path class="st1" d="M185.4,504.4c0-1.1.9-1.9,2.1-1.9s2.1.9,2.1,1.9-.9,2-2.1,2-2.1-.9-2.1-2"/>
        <path class="st1" d="M185.4,504.4c0-1.1.9-1.9,2.1-1.9s2.1.9,2.1,1.9-.9,2-2.1,2-2.1-.9-2.1-2"/>
        <path class="st1" d="M185.4,485.2c0-1.1.9-1.9,2.1-1.9s2.1.9,2.1,1.9-.9,2-2.1,2-2.1-.9-2.1-2"/>
        <path class="st1" d="M185.4,520.3c0-1.1.9-1.9,2.1-1.9s2.1.9,2.1,1.9-.9,2-2.1,2-2.1-.9-2.1-2"/>
        <path class="st1" d="M185.4,491.6c0-1.1.9-2,2.1-2s2.1.9,2.1,2-.9,2-2.1,2-2.1-.9-2.1-2"/>
      </g>
      <g id="hbau5" data-name="hbau">
        <rect class="st14" x="96.2" y="335.2" width="26.5" height="47.9"/>
        <line class="st5" x1="96.2" y1="355.4" x2="122.7" y2="355.4"/>
        <line class="st3" x1="109.5" y1="336.2" x2="109.5" y2="272.4"/>
        <line class="st3" x1="109.5" y1="384.1" x2="109.5" y2="447.9"/>
        <rect class="st6" x="96.2" y="336.2" width="26.5" height="47.9"/>
        <path class="st1" d="M107.4,485.2c0-1.1.9-1.9,2.1-1.9s2.1.9,2.1,1.9-.9,2-2.1,2-2.1-.9-2.1-2"/>
        <path class="st1" d="M107.4,249c0-1.1.9-1.9,2.1-1.9s2.1.9,2.1,1.9-.9,2-2.1,2-2.1-.9-2.1-2"/>
        <path class="st1" d="M107.4,498c0-1.1.9-2,2.1-2s2.1.9,2.1,2-.9,2-2.1,2-2.1-.9-2.1-2"/>
        <path class="st1" d="M107.4,245.9c0-1.1.9-1.9,2.1-1.9s2.1.9,2.1,1.9-.9,2-2.1,2-2.1-.9-2.1-2"/>
        <path class="st1" d="M107.4,494.8c0-1.1.9-2,2.1-2s2.1.9,2.1,2-.9,2-2.1,2-2.1-.9-2.1-2"/>
        <path class="st1" d="M107.4,514c0-1.1.9-2,2.1-2s2.1.9,2.1,2-.9,2-2.1,2-2.1-.9-2.1-2"/>
      </g>
    </g>
  </g>
  <g id="legende">
    <rect class="st0" x="279.2" y="10.8" width="433.8" height="43.5"/>
    <g id="ua">
      <rect class="st11" x="470" y="22.2" width="28.9" height="19.3"/>
      <line class="st3" x1="484.5" y1="47.3" x2="484.5" y2="41.5"/>
      <line class="st3" x1="484.5" y1="22.2" x2="484.5" y2="16.5"/>
      <rect class="st3" x="470" y="22.2" width="28.9" height="19.3"/>
      <line class="st3" x1="470" y1="31.9" x2="499" y2="31.9"/>
      <text class="st8" transform="translate(506.6 28.7)"><tspan class="st15" x="0" y="0">Unbezahlte Arbeit</tspan><tspan class="st13" x="127.9" y="0"> </tspan><tspan class="st7"><tspan x="0" y="15.5">(Haushalt und Kinderbetreuung)</tspan></tspan></text>
    </g>
    <g id="ea">
      <rect class="st14" x="288.7" y="21.9" width="28.9" height="19.3"/>
      <line class="st3" x1="303.2" y1="47" x2="303.2" y2="41.2"/>
      <rect class="st3" x="288.7" y="21.9" width="28.9" height="19.3"/>
      <line class="st3" x1="288.7" y1="31.6" x2="317.6" y2="31.6"/>
      <text class="st10" transform="translate(322.4 35.8)"><tspan x="0" y="0">Erwerbsarbeit</tspan></text>
    </g>
  </g>
  <g id="header">
    <text id="m1" data-name="m" class="st9" transform="translate(76 53.5)"><tspan x="0" y="0">Männer</tspan></text>
    <text id="f1" data-name="f" class="st9" transform="translate(862.2 53.5)"><tspan x="0" y="0">Frauen</tspan></text>
  </g>
</svg>