<?xml version="1.0" encoding="utf-8"?>
<!-- Generator: Adobe Illustrator 29.4.0, SVG Export Plug-In . SVG Version: 9.03 Build 0)  -->
<svg version="1.1" xmlns="http://www.w3.org/2000/svg" xmlns:xlink="http://www.w3.org/1999/xlink" x="0px" y="0px"
	 viewBox="0 0 438.9 437.3" style="enable-background:new 0 0 438.9 437.3;" xml:space="preserve">
<style type="text/css">
	.st0{fill:#F0D1C7;}
	.st1{fill:#E9DFBE;}
	.st2{fill:#E4CDC0;}
	.st3{fill:#F7E4C5;}
	.st4{fill:#FCD799;}
	.st5{fill:#F0AE9F;}
	.st6{fill:#A5CDC8;}
	.st7{fill:#E2E0E1;}
	.st8{fill:#D2D5CB;}
	.st9{fill:#EDDCD7;}
	.st10{fill:#F0E6D7;}
</style>
<g id="pfeile">
	<polygon class="st0" points="215.4,124 206,76.8 199.5,76.8 209,67.1 218.5,57.4 228.2,67 237.9,76.5 231.6,76.6 222.9,123.9 	"/>
	<polygon class="st1" points="221.9,313 231.3,360.2 237.9,360.1 228.3,369.9 218.8,379.6 209.1,370 199.5,360.4 205.8,360.4 
		214.5,313.1 	"/>
	<polygon class="st2" points="314.4,215.4 361.5,206 361.5,199.5 371.2,209 380.9,218.5 371.4,228.2 361.8,237.9 361.7,231.6 
		314.4,222.9 	"/>
	<polygon class="st3" points="124.3,221.9 77.1,231.3 77.2,237.9 67.4,228.3 57.7,218.8 67.3,209.1 76.9,199.5 76.9,205.8 
		124.2,214.5 	"/>
</g>
<g id="zeit_x5F_verwendung">
	<path class="st4" d="M219,231.5c-1.7-2.3-3.6-4.4-5.7-6.5c-2.3-2.3-4.7-4.4-7.2-6.3c-24.1-18.2-57.7-18.1-81.8,0.2
		c-2.4,1.8-4.7,3.8-6.9,6c-26.5,26.5-26.5,69.4,0,95.9c26.5,26.5,69.4,26.5,95.9,0c2.2-2.2,4.2-4.5,6-6.8
		C237.8,289.7,237.7,255.7,219,231.5z"/>
	<g>
		<path d="M148.4,265l6-8.8v0h-5.5V255h7.3v0.8l-6,8.7v0h6v1.2h-7.9V265z"/>
		<path d="M158.5,262.2c0,1.9,1.2,2.7,2.7,2.7c1,0,1.6-0.2,2.1-0.4l0.2,1c-0.5,0.2-1.3,0.5-2.6,0.5c-2.4,0-3.8-1.6-3.8-3.9
			s1.4-4.2,3.6-4.2c2.5,0,3.2,2.2,3.2,3.6c0,0.3,0,0.5,0,0.7H158.5z M162.6,261.2c0-0.9-0.4-2.3-2-2.3c-1.4,0-2,1.3-2.2,2.3H162.6z"
			/>
		<path d="M167.3,255.9c0,0.5-0.3,0.9-0.9,0.9c-0.5,0-0.8-0.4-0.8-0.9c0-0.5,0.4-0.9,0.9-0.9C167,255,167.3,255.4,167.3,255.9z
			 M165.7,265.8v-7.7h1.4v7.7H165.7z"/>
		<path d="M171.2,255.8v2.2h2v1.1h-2v4.2c0,1,0.3,1.5,1.1,1.5c0.4,0,0.6,0,0.8-0.1l0.1,1.1c-0.3,0.1-0.7,0.2-1.2,0.2
			c-0.7,0-1.2-0.2-1.5-0.6c-0.4-0.4-0.5-1.1-0.5-2v-4.2h-1.2v-1.1h1.2v-1.9L171.2,255.8z"/>
		<path d="M178,261v1h-4v-1H178z"/>
		<path d="M122.2,277.3l1.5,4.4c0.3,0.7,0.5,1.3,0.6,2h0c0.2-0.6,0.4-1.3,0.7-2l1.5-4.4h1.5l-3,7.7h-1.3l-2.9-7.7H122.2z"/>
		<path d="M130,281.4c0,1.9,1.2,2.7,2.7,2.7c1,0,1.6-0.2,2.1-0.4l0.2,1c-0.5,0.2-1.3,0.5-2.6,0.5c-2.4,0-3.8-1.6-3.8-3.9
			s1.4-4.2,3.6-4.2c2.5,0,3.2,2.2,3.2,3.6c0,0.3,0,0.5,0,0.7H130z M134.1,280.4c0-0.9-0.4-2.3-2-2.3c-1.4,0-2,1.3-2.2,2.3H134.1z"/>
		<path d="M137.2,279.7c0-0.9,0-1.7-0.1-2.4h1.2l0,1.5h0.1c0.4-1,1.2-1.7,2.1-1.7c0.2,0,0.3,0,0.4,0v1.3c-0.1,0-0.3,0-0.5,0
			c-1,0-1.7,0.8-1.9,1.8c0,0.2-0.1,0.4-0.1,0.7v4.1h-1.4V279.7z"/>
		<path d="M143.4,277.3l1,3.9c0.2,0.9,0.4,1.7,0.6,2.5h0c0.2-0.8,0.4-1.6,0.7-2.4l1.3-4h1.2l1.2,3.9c0.3,0.9,0.5,1.7,0.7,2.5h0
			c0.1-0.8,0.3-1.6,0.6-2.5l1.1-3.9h1.4l-2.5,7.7h-1.3l-1.2-3.7c-0.3-0.9-0.5-1.6-0.7-2.5h0c-0.2,0.9-0.4,1.7-0.7,2.6l-1.2,3.7h-1.3
			l-2.3-7.7H143.4z"/>
		<path d="M155.2,281.4c0,1.9,1.2,2.7,2.7,2.7c1,0,1.6-0.2,2.1-0.4l0.2,1c-0.5,0.2-1.3,0.5-2.6,0.5c-2.4,0-3.8-1.6-3.8-3.9
			s1.4-4.2,3.6-4.2c2.5,0,3.2,2.2,3.2,3.6c0,0.3,0,0.5,0,0.7H155.2z M159.4,280.4c0-0.9-0.4-2.3-2-2.3c-1.4,0-2,1.3-2.2,2.3H159.4z"
			/>
		<path d="M162.5,279.4c0-0.8,0-1.5-0.1-2.1h1.2l0.1,1.3h0c0.4-0.7,1.3-1.5,2.6-1.5c1.1,0,2.7,0.6,2.7,3.3v4.6h-1.4v-4.5
			c0-1.2-0.5-2.3-1.8-2.3c-0.9,0-1.6,0.7-1.9,1.4c-0.1,0.2-0.1,0.4-0.1,0.7v4.7h-1.4V279.4z"/>
		<path d="M178,273.6v9.4c0,0.7,0,1.5,0.1,2h-1.3l-0.1-1.3h0c-0.4,0.9-1.4,1.5-2.6,1.5c-1.9,0-3.3-1.6-3.3-3.9
			c0-2.6,1.6-4.2,3.5-4.2c1.2,0,2,0.6,2.3,1.2h0v-4.6H178z M176.6,280.4c0-0.2,0-0.4-0.1-0.6c-0.2-0.9-1-1.6-2-1.6
			c-1.5,0-2.3,1.3-2.3,3c0,1.6,0.8,2.9,2.3,2.9c0.9,0,1.8-0.6,2.1-1.7c0-0.2,0.1-0.4,0.1-0.6V280.4z"/>
		<path d="M186.9,282.9c0,0.8,0,1.5,0.1,2.1h-1.2l-0.1-1.3h0c-0.4,0.6-1.2,1.4-2.6,1.4c-1.2,0-2.7-0.7-2.7-3.4v-4.5h1.4v4.3
			c0,1.5,0.4,2.5,1.7,2.5c0.9,0,1.6-0.7,1.9-1.3c0.1-0.2,0.1-0.5,0.1-0.7v-4.8h1.4V282.9z"/>
		<path d="M189.2,279.4c0-0.8,0-1.5-0.1-2.1h1.2l0.1,1.3h0c0.4-0.7,1.3-1.5,2.6-1.5c1.1,0,2.7,0.6,2.7,3.3v4.6h-1.4v-4.5
			c0-1.2-0.5-2.3-1.8-2.3c-0.9,0-1.6,0.7-1.9,1.4c-0.1,0.2-0.1,0.4-0.1,0.7v4.7h-1.4V279.4z"/>
		<path d="M204.7,277.3c0,0.6-0.1,1.2-0.1,2.1v4.5c0,1.8-0.4,2.9-1.1,3.5c-0.8,0.7-1.8,0.9-2.8,0.9c-0.9,0-2-0.2-2.6-0.6l0.4-1.1
			c0.5,0.3,1.3,0.6,2.3,0.6c1.4,0,2.5-0.8,2.5-2.7v-0.9h0c-0.4,0.7-1.3,1.3-2.5,1.3c-1.9,0-3.3-1.6-3.3-3.8c0-2.6,1.7-4.1,3.5-4.1
			c1.3,0,2.1,0.7,2.4,1.3h0l0.1-1.2H204.7z M203.3,280.3c0-0.2,0-0.4-0.1-0.6c-0.3-0.8-0.9-1.5-2-1.5c-1.3,0-2.3,1.1-2.3,2.9
			c0,1.5,0.8,2.8,2.3,2.8c0.9,0,1.6-0.5,2-1.4c0.1-0.2,0.1-0.5,0.1-0.8V280.3z"/>
	</g>
</g>
<g id="notwendige_x5F_ausgaben">
	<path class="st5" d="M320.9,117.3c-26.5-26.5-69.4-26.5-95.9,0c-2.1,2.1-4,4.3-5.8,6.6c-18.6,24.1-18.7,57.8-0.4,82.1
		c1.9,2.5,3.9,4.9,6.2,7.2c2.1,2.1,4.2,3.9,6.5,5.7c24.3,18.9,58.5,18.9,82.9,0.1c2.3-1.8,4.5-3.6,6.5-5.7
		C347.4,186.8,347.4,143.8,320.9,117.3z"/>
	<g>
		<path d="M237.7,153.1c0-0.8,0-1.5-0.1-2.1h1.2l0.1,1.3h0c0.4-0.7,1.3-1.5,2.6-1.5c1.1,0,2.7,0.6,2.7,3.3v4.6h-1.4v-4.5
			c0-1.2-0.5-2.3-1.8-2.3c-0.9,0-1.6,0.7-1.9,1.4c-0.1,0.2-0.1,0.4-0.1,0.7v4.7h-1.4V153.1z"/>
		<path d="M253.6,154.8c0,2.9-2,4.1-3.9,4.1c-2.1,0-3.7-1.5-3.7-4c0-2.6,1.7-4.1,3.8-4.1C252,150.9,253.6,152.5,253.6,154.8z
			 M247.4,154.9c0,1.7,1,3,2.4,3c1.3,0,2.4-1.3,2.4-3c0-1.3-0.7-3-2.3-3C248.1,151.9,247.4,153.4,247.4,154.9z"/>
		<path d="M257,148.8v2.2h2v1.1h-2v4.2c0,1,0.3,1.5,1.1,1.5c0.4,0,0.6,0,0.8-0.1l0.1,1.1c-0.3,0.1-0.7,0.2-1.2,0.2
			c-0.7,0-1.2-0.2-1.5-0.6c-0.4-0.4-0.5-1.1-0.5-2v-4.2h-1.2V151h1.2v-1.9L257,148.8z"/>
		<path d="M261.3,151l1,3.9c0.2,0.9,0.4,1.7,0.6,2.5h0c0.2-0.8,0.4-1.6,0.7-2.4l1.3-4h1.2l1.2,3.9c0.3,0.9,0.5,1.7,0.7,2.5h0
			c0.1-0.8,0.3-1.6,0.6-2.5l1.1-3.9h1.4l-2.5,7.7h-1.3l-1.2-3.7c-0.3-0.9-0.5-1.6-0.7-2.5h0c-0.2,0.9-0.4,1.7-0.7,2.6l-1.2,3.7h-1.3
			l-2.3-7.7H261.3z"/>
		<path d="M273.2,155.2c0,1.9,1.2,2.7,2.7,2.7c1,0,1.6-0.2,2.1-0.4l0.2,1c-0.5,0.2-1.3,0.5-2.6,0.5c-2.4,0-3.8-1.6-3.8-3.9
			s1.4-4.2,3.6-4.2c2.5,0,3.2,2.2,3.2,3.6c0,0.3,0,0.5,0,0.7H273.2z M277.3,154.2c0-0.9-0.4-2.3-2-2.3c-1.4,0-2,1.3-2.2,2.3H277.3z"
			/>
		<path d="M280.4,153.1c0-0.8,0-1.5-0.1-2.1h1.2l0.1,1.3h0c0.4-0.7,1.3-1.5,2.6-1.5c1.1,0,2.7,0.6,2.7,3.3v4.6h-1.4v-4.5
			c0-1.2-0.5-2.3-1.8-2.3c-0.9,0-1.6,0.7-1.9,1.4c-0.1,0.2-0.1,0.4-0.1,0.7v4.7h-1.4V153.1z"/>
		<path d="M296,147.4v9.4c0,0.7,0,1.5,0.1,2h-1.3l-0.1-1.3h0c-0.4,0.9-1.4,1.5-2.6,1.5c-1.9,0-3.3-1.6-3.3-3.9
			c0-2.6,1.6-4.2,3.5-4.2c1.2,0,2,0.6,2.3,1.2h0v-4.6H296z M294.6,154.2c0-0.2,0-0.4-0.1-0.6c-0.2-0.9-1-1.6-2-1.6
			c-1.5,0-2.3,1.3-2.3,3c0,1.6,0.8,2.9,2.3,2.9c0.9,0,1.8-0.6,2.1-1.7c0-0.2,0.1-0.4,0.1-0.6V154.2z"/>
		<path d="M299.9,148.9c0,0.5-0.3,0.9-0.9,0.9c-0.5,0-0.8-0.4-0.8-0.9c0-0.5,0.4-0.9,0.9-0.9C299.5,148,299.9,148.4,299.9,148.9z
			 M298.3,158.8V151h1.4v7.7H298.3z"/>
		<path d="M308.7,151c0,0.6-0.1,1.2-0.1,2.1v4.5c0,1.8-0.4,2.9-1.1,3.5c-0.8,0.7-1.8,0.9-2.8,0.9c-0.9,0-2-0.2-2.6-0.6l0.4-1.1
			c0.5,0.3,1.3,0.6,2.3,0.6c1.4,0,2.5-0.8,2.5-2.7v-0.9h0c-0.4,0.7-1.3,1.3-2.5,1.3c-1.9,0-3.3-1.6-3.3-3.8c0-2.6,1.7-4.1,3.5-4.1
			c1.3,0,2.1,0.7,2.4,1.3h0l0.1-1.2H308.7z M307.3,154.1c0-0.2,0-0.4-0.1-0.6c-0.3-0.8-0.9-1.5-2-1.5c-1.3,0-2.3,1.1-2.3,2.9
			c0,1.5,0.8,2.8,2.3,2.8c0.9,0,1.6-0.5,2-1.4c0.1-0.2,0.1-0.5,0.1-0.8V154.1z"/>
		<path d="M311.8,155.2c0,1.9,1.2,2.7,2.7,2.7c1,0,1.6-0.2,2.1-0.4l0.2,1c-0.5,0.2-1.3,0.5-2.6,0.5c-2.4,0-3.8-1.6-3.8-3.9
			s1.4-4.2,3.6-4.2c2.5,0,3.2,2.2,3.2,3.6c0,0.3,0,0.5,0,0.7H311.8z M315.9,154.2c0-0.9-0.4-2.3-2-2.3c-1.4,0-2,1.3-2.2,2.3H315.9z"
			/>
		<path d="M246.4,174.6l-1.1,3.4h-1.4l3.7-10.8h1.7l3.7,10.8h-1.5l-1.2-3.4H246.4z M250,173.5l-1.1-3.1c-0.2-0.7-0.4-1.3-0.6-2h0
			c-0.2,0.6-0.3,1.3-0.5,2l-1.1,3.1H250z"/>
		<path d="M260.7,175.9c0,0.8,0,1.5,0.1,2.1h-1.2l-0.1-1.3h0c-0.4,0.6-1.2,1.4-2.6,1.4c-1.2,0-2.7-0.7-2.7-3.4v-4.5h1.4v4.3
			c0,1.5,0.4,2.5,1.7,2.5c0.9,0,1.6-0.7,1.9-1.3c0.1-0.2,0.1-0.5,0.1-0.7v-4.8h1.4V175.9z"/>
		<path d="M262.9,176.5c0.4,0.3,1.2,0.6,1.9,0.6c1,0,1.5-0.5,1.5-1.2c0-0.7-0.4-1-1.4-1.4c-1.4-0.5-2-1.3-2-2.2c0-1.2,1-2.3,2.7-2.3
			c0.8,0,1.5,0.2,1.9,0.5l-0.4,1c-0.3-0.2-0.9-0.4-1.6-0.4c-0.8,0-1.3,0.5-1.3,1.1c0,0.6,0.5,0.9,1.5,1.3c1.3,0.5,2,1.2,2,2.3
			c0,1.4-1.1,2.3-2.9,2.3c-0.8,0-1.6-0.2-2.2-0.5L262.9,176.5z"/>
		<path d="M276.1,170.2c0,0.6-0.1,1.2-0.1,2.1v4.5c0,1.8-0.4,2.9-1.1,3.5c-0.8,0.7-1.8,0.9-2.8,0.9c-0.9,0-2-0.2-2.6-0.6l0.4-1.1
			c0.5,0.3,1.3,0.6,2.3,0.6c1.4,0,2.5-0.8,2.5-2.7v-0.9h0c-0.4,0.7-1.3,1.3-2.5,1.3c-1.9,0-3.3-1.6-3.3-3.8c0-2.6,1.7-4.1,3.5-4.1
			c1.3,0,2.1,0.7,2.4,1.3h0l0.1-1.2H276.1z M274.6,173.3c0-0.2,0-0.4-0.1-0.6c-0.3-0.8-0.9-1.5-2-1.5c-1.3,0-2.3,1.1-2.3,2.9
			c0,1.5,0.8,2.8,2.3,2.8c0.9,0,1.6-0.5,2-1.4c0.1-0.2,0.1-0.5,0.1-0.8V173.3z"/>
		<path d="M282.6,178l-0.1-1h0c-0.4,0.6-1.3,1.2-2.4,1.2c-1.6,0-2.4-1.1-2.4-2.2c0-1.9,1.7-2.9,4.7-2.9v-0.2c0-0.6-0.2-1.8-1.8-1.8
			c-0.7,0-1.5,0.2-2,0.6l-0.3-0.9c0.6-0.4,1.6-0.7,2.5-0.7c2.4,0,2.9,1.6,2.9,3.2v2.9c0,0.7,0,1.3,0.1,1.9H282.6z M282.4,174
			c-1.5,0-3.3,0.2-3.3,1.7c0,0.9,0.6,1.3,1.3,1.3c1,0,1.6-0.6,1.9-1.3c0-0.1,0.1-0.3,0.1-0.4V174z"/>
		<path d="M286,178c0-0.5,0.1-1.3,0.1-2v-9.4h1.4v4.9h0c0.5-0.9,1.4-1.4,2.6-1.4c1.9,0,3.3,1.6,3.3,4c0,2.8-1.7,4.1-3.5,4.1
			c-1.1,0-2-0.4-2.6-1.5h0l-0.1,1.3H286z M287.4,174.9c0,0.2,0,0.4,0.1,0.5c0.3,1,1.1,1.6,2.1,1.6c1.5,0,2.4-1.2,2.4-3
			c0-1.6-0.8-2.9-2.3-2.9c-1,0-1.9,0.7-2.1,1.7c0,0.2-0.1,0.4-0.1,0.6V174.9z"/>
		<path d="M295.9,174.4c0,1.9,1.2,2.7,2.7,2.7c1,0,1.6-0.2,2.1-0.4l0.2,1c-0.5,0.2-1.3,0.5-2.6,0.5c-2.4,0-3.8-1.6-3.8-3.9
			s1.4-4.2,3.6-4.2c2.5,0,3.2,2.2,3.2,3.6c0,0.3,0,0.5,0,0.7H295.9z M300.1,173.4c0-0.9-0.4-2.3-2-2.3c-1.4,0-2,1.3-2.2,2.3H300.1z"
			/>
		<path d="M303.2,172.3c0-0.8,0-1.5-0.1-2.1h1.2l0.1,1.3h0c0.4-0.7,1.3-1.5,2.6-1.5c1.1,0,2.7,0.6,2.7,3.3v4.6h-1.4v-4.5
			c0-1.2-0.5-2.3-1.8-2.3c-0.9,0-1.6,0.7-1.9,1.4c-0.1,0.2-0.1,0.4-0.1,0.7v4.7h-1.4V172.3z"/>
	</g>
</g>
<g id="soziale_x5F_infrastrukturen">
	<path class="st6" d="M320.8,224.7c-2.1-2.1-4.2-3.9-6.5-5.7c-24.3-18.9-58.5-18.9-82.9-0.1c-2.3,1.8-4.5,3.6-6.5,5.7
		c-2.2,2.2-4.2,4.5-6,6.8c-18.6,24.3-18.5,58.3,0.2,82.5c1.7,2.3,3.6,4.4,5.7,6.5c26.5,26.5,69.4,26.5,95.9,0
		C347.3,294.1,347.3,251.2,320.8,224.7z"/>
	<g>
		<path d="M256.2,263.9c0.6,0.4,1.5,0.7,2.5,0.7c1.4,0,2.3-0.8,2.3-1.8c0-1-0.6-1.6-2-2.1c-1.8-0.6-2.8-1.5-2.8-3.1
			c0-1.7,1.4-2.9,3.5-2.9c1.1,0,1.9,0.3,2.4,0.5l-0.4,1.1c-0.4-0.2-1.1-0.5-2-0.5c-1.5,0-2,0.9-2,1.6c0,1,0.7,1.5,2.1,2.1
			c1.8,0.7,2.8,1.6,2.8,3.2c0,1.7-1.2,3.1-3.8,3.1c-1,0-2.2-0.3-2.8-0.7L256.2,263.9z"/>
		<path d="M271.4,261.7c0,2.9-2,4.1-3.9,4.1c-2.1,0-3.7-1.5-3.7-4c0-2.6,1.7-4.1,3.8-4.1C269.9,257.7,271.4,259.3,271.4,261.7z
			 M265.2,261.8c0,1.7,1,3,2.4,3c1.3,0,2.4-1.3,2.4-3c0-1.3-0.7-3-2.3-3C265.9,258.8,265.2,260.3,265.2,261.8z"/>
		<path d="M272.1,264.8l3.5-4.6c0.3-0.4,0.7-0.8,1-1.2v0h-4.2v-1.1h5.9l0,0.9l-3.5,4.5c-0.3,0.4-0.6,0.8-1,1.2v0h4.5v1.1h-6.3V264.8
			z"/>
		<path d="M281.4,255.7c0,0.5-0.3,0.9-0.9,0.9c-0.5,0-0.8-0.4-0.8-0.9c0-0.5,0.4-0.9,0.9-0.9C281.1,254.8,281.4,255.2,281.4,255.7z
			 M279.9,265.6v-7.7h1.4v7.7H279.9z"/>
		<path d="M287.9,265.6l-0.1-1h0c-0.4,0.6-1.3,1.2-2.4,1.2c-1.6,0-2.4-1.1-2.4-2.2c0-1.9,1.7-2.9,4.7-2.9v-0.2
			c0-0.6-0.2-1.8-1.8-1.8c-0.7,0-1.5,0.2-2,0.6l-0.3-0.9c0.6-0.4,1.6-0.7,2.5-0.7c2.4,0,2.9,1.6,2.9,3.2v2.9c0,0.7,0,1.3,0.1,1.9
			H287.9z M287.7,261.7c-1.5,0-3.3,0.2-3.3,1.7c0,0.9,0.6,1.3,1.3,1.3c1,0,1.6-0.6,1.9-1.3c0-0.1,0.1-0.3,0.1-0.4V261.7z"/>
		<path d="M291.3,254.3h1.4v11.4h-1.4V254.3z"/>
		<path d="M295.9,262c0,1.9,1.2,2.7,2.7,2.7c1,0,1.6-0.2,2.1-0.4l0.2,1c-0.5,0.2-1.3,0.5-2.6,0.5c-2.4,0-3.8-1.6-3.8-3.9
			s1.4-4.2,3.6-4.2c2.5,0,3.2,2.2,3.2,3.6c0,0.3,0,0.5,0,0.7H295.9z M300,261c0-0.9-0.4-2.3-2-2.3c-1.4,0-2,1.3-2.2,2.3H300z"/>
		<path d="M235.7,274v10.8h-1.4V274H235.7z"/>
		<path d="M238.2,279.2c0-0.8,0-1.5-0.1-2.1h1.2l0.1,1.3h0c0.4-0.7,1.3-1.5,2.6-1.5c1.1,0,2.7,0.6,2.7,3.3v4.6h-1.4v-4.5
			c0-1.2-0.5-2.3-1.8-2.3c-0.9,0-1.6,0.7-1.9,1.4c-0.1,0.2-0.1,0.4-0.1,0.7v4.7h-1.4V279.2z"/>
		<path d="M247.2,284.8v-6.7h-1.1v-1.1h1.1v-0.4c0-1.1,0.2-2.1,0.9-2.7c0.5-0.5,1.2-0.7,1.9-0.7c0.5,0,0.9,0.1,1.2,0.2l-0.2,1.1
			c-0.2-0.1-0.5-0.2-0.9-0.2c-1.2,0-1.5,1.1-1.5,2.2v0.4h1.9v1.1h-1.9v6.7H247.2z"/>
		<path d="M251.8,279.5c0-0.9,0-1.7-0.1-2.4h1.2l0,1.5h0.1c0.4-1,1.2-1.7,2.1-1.7c0.2,0,0.3,0,0.4,0v1.3c-0.1,0-0.3,0-0.5,0
			c-1,0-1.7,0.8-1.9,1.8c0,0.2-0.1,0.4-0.1,0.7v4.1h-1.4V279.5z"/>
		<path d="M261.2,284.8l-0.1-1h0c-0.4,0.6-1.3,1.2-2.4,1.2c-1.6,0-2.4-1.1-2.4-2.2c0-1.9,1.7-2.9,4.7-2.9v-0.2
			c0-0.6-0.2-1.8-1.8-1.8c-0.7,0-1.5,0.2-2,0.6l-0.3-0.9c0.6-0.4,1.6-0.7,2.5-0.7c2.4,0,2.9,1.6,2.9,3.2v2.9c0,0.7,0,1.3,0.1,1.9
			H261.2z M261,280.9c-1.5,0-3.3,0.2-3.3,1.7c0,0.9,0.6,1.3,1.3,1.3c1,0,1.6-0.6,1.9-1.3c0-0.1,0.1-0.3,0.1-0.4V280.9z"/>
		<path d="M264.4,283.4c0.4,0.3,1.2,0.6,1.9,0.6c1,0,1.5-0.5,1.5-1.2c0-0.7-0.4-1-1.4-1.4c-1.4-0.5-2-1.3-2-2.2c0-1.2,1-2.3,2.7-2.3
			c0.8,0,1.5,0.2,1.9,0.5l-0.4,1c-0.3-0.2-0.9-0.4-1.6-0.4c-0.8,0-1.3,0.5-1.3,1.1c0,0.6,0.5,0.9,1.5,1.3c1.3,0.5,2,1.2,2,2.3
			c0,1.4-1.1,2.3-2.9,2.3c-0.8,0-1.6-0.2-2.2-0.5L264.4,283.4z"/>
		<path d="M272.7,274.9v2.2h2v1.1h-2v4.2c0,1,0.3,1.5,1.1,1.5c0.4,0,0.6,0,0.8-0.1l0.1,1.1c-0.3,0.1-0.7,0.2-1.2,0.2
			c-0.7,0-1.2-0.2-1.5-0.6c-0.4-0.4-0.5-1.1-0.5-2v-4.2h-1.2v-1.1h1.2v-1.9L272.7,274.9z"/>
		<path d="M282.7,282.7c0,0.8,0,1.5,0.1,2.1h-1.2l-0.1-1.3h0c-0.4,0.6-1.2,1.4-2.6,1.4c-1.2,0-2.7-0.7-2.7-3.4v-4.5h1.4v4.3
			c0,1.5,0.4,2.5,1.7,2.5c0.9,0,1.6-0.7,1.9-1.3c0.1-0.2,0.1-0.5,0.1-0.7v-4.8h1.4V282.7z"/>
		<path d="M286.5,280.6L286.5,280.6c0.2-0.3,0.5-0.6,0.7-0.9l2.3-2.7h1.7l-3,3.2l3.4,4.6h-1.7l-2.7-3.7l-0.7,0.8v2.9h-1.4v-11.4h1.4
			V280.6z"/>
		<path d="M294.3,274.9v2.2h2v1.1h-2v4.2c0,1,0.3,1.5,1.1,1.5c0.4,0,0.6,0,0.8-0.1l0.1,1.1c-0.3,0.1-0.7,0.2-1.2,0.2
			c-0.7,0-1.2-0.2-1.5-0.6c-0.4-0.4-0.5-1.1-0.5-2v-4.2h-1.2v-1.1h1.2v-1.9L294.3,274.9z"/>
		<path d="M304.4,282.7c0,0.8,0,1.5,0.1,2.1h-1.2l-0.1-1.3h0c-0.4,0.6-1.2,1.4-2.6,1.4c-1.2,0-2.7-0.7-2.7-3.4v-4.5h1.4v4.3
			c0,1.5,0.4,2.5,1.7,2.5c0.9,0,1.6-0.7,1.9-1.3c0.1-0.2,0.1-0.5,0.1-0.7v-4.8h1.4V282.7z"/>
		<path d="M306.7,279.5c0-0.9,0-1.7-0.1-2.4h1.2l0,1.5h0.1c0.4-1,1.2-1.7,2.1-1.7c0.2,0,0.3,0,0.4,0v1.3c-0.1,0-0.3,0-0.5,0
			c-1,0-1.7,0.8-1.9,1.8c0,0.2-0.1,0.4-0.1,0.7v4.1h-1.4V279.5z"/>
		<path d="M312.5,281.2c0,1.9,1.2,2.7,2.7,2.7c1,0,1.6-0.2,2.1-0.4l0.2,1c-0.5,0.2-1.3,0.5-2.6,0.5c-2.4,0-3.8-1.6-3.8-3.9
			s1.4-4.2,3.6-4.2c2.5,0,3.2,2.2,3.2,3.6c0,0.3,0,0.5,0,0.7H312.5z M316.7,280.2c0-0.9-0.4-2.3-2-2.3c-1.4,0-2,1.3-2.2,2.3H316.7z"
			/>
		<path d="M319.8,279.2c0-0.8,0-1.5-0.1-2.1h1.2l0.1,1.3h0c0.4-0.7,1.3-1.5,2.6-1.5c1.1,0,2.7,0.6,2.7,3.3v4.6H325v-4.5
			c0-1.2-0.5-2.3-1.8-2.3c-0.9,0-1.6,0.7-1.9,1.4c-0.1,0.2-0.1,0.4-0.1,0.7v4.7h-1.4V279.2z"/>
	</g>
</g>
<g id="einkommen">
	<path class="st7" d="M219.2,124c-1.9-2.5-3.9-4.9-6.2-7.2c-26.5-26.5-69.4-26.5-95.9,0c-26.5,26.5-26.5,69.4,0,95.9
		c2.3,2.3,4.7,4.4,7.2,6.3c24.1,18.2,57.7,18.1,81.8-0.2c2.4-1.8,4.7-3.8,6.9-6c2.1-2.1,4-4.3,5.8-6.6
		C237.4,182,237.5,148.2,219.2,124z"/>
	<g>
		<path d="M129.5,161.5h-4.2v3.9h4.7v1.2h-6.1v-10.8h5.8v1.2h-4.4v3.4h4.2V161.5z"/>
		<path d="M133.3,156.6c0,0.5-0.3,0.9-0.9,0.9c-0.5,0-0.8-0.4-0.8-0.9c0-0.5,0.4-0.9,0.9-0.9C133,155.7,133.3,156.1,133.3,156.6z
			 M131.7,166.5v-7.7h1.4v7.7H131.7z"/>
		<path d="M135.5,160.9c0-0.8,0-1.5-0.1-2.1h1.2l0.1,1.3h0c0.4-0.7,1.3-1.5,2.6-1.5c1.1,0,2.7,0.6,2.7,3.3v4.6h-1.4v-4.5
			c0-1.2-0.5-2.3-1.8-2.3c-0.9,0-1.6,0.7-1.9,1.4c-0.1,0.2-0.1,0.4-0.1,0.7v4.7h-1.4V160.9z"/>
		<path d="M145.8,162.3L145.8,162.3c0.2-0.3,0.5-0.6,0.7-0.9l2.3-2.7h1.7l-3,3.2l3.4,4.6h-1.7l-2.7-3.7l-0.7,0.8v2.9h-1.4v-11.4h1.4
			V162.3z"/>
		<path d="M158.9,162.6c0,2.9-2,4.1-3.9,4.1c-2.1,0-3.7-1.5-3.7-4c0-2.6,1.7-4.1,3.8-4.1C157.4,158.6,158.9,160.2,158.9,162.6z
			 M152.7,162.7c0,1.7,1,3,2.4,3c1.3,0,2.4-1.3,2.4-3c0-1.3-0.7-3-2.3-3C153.4,159.7,152.7,161.2,152.7,162.7z"/>
		<path d="M160.6,160.9c0-0.8,0-1.5-0.1-2.1h1.2l0.1,1.2h0c0.4-0.7,1.2-1.4,2.4-1.4c1.1,0,1.9,0.6,2.2,1.6h0c0.2-0.4,0.5-0.8,0.9-1
			c0.5-0.4,1-0.5,1.7-0.5c1,0,2.5,0.7,2.5,3.4v4.6h-1.4v-4.4c0-1.5-0.5-2.4-1.7-2.4c-0.8,0-1.4,0.6-1.7,1.3
			c-0.1,0.2-0.1,0.4-0.1,0.7v4.8h-1.4v-4.6c0-1.2-0.5-2.1-1.6-2.1c-0.9,0-1.5,0.7-1.7,1.4c-0.1,0.2-0.1,0.4-0.1,0.7v4.7h-1.4V160.9z
			"/>
		<path d="M174,160.9c0-0.8,0-1.5-0.1-2.1h1.2l0.1,1.2h0c0.4-0.7,1.2-1.4,2.4-1.4c1.1,0,1.9,0.6,2.2,1.6h0c0.2-0.4,0.5-0.8,0.9-1
			c0.5-0.4,1-0.5,1.7-0.5c1,0,2.5,0.7,2.5,3.4v4.6h-1.4v-4.4c0-1.5-0.5-2.4-1.7-2.4c-0.8,0-1.4,0.6-1.7,1.3
			c-0.1,0.2-0.1,0.4-0.1,0.7v4.8h-1.4v-4.6c0-1.2-0.5-2.1-1.6-2.1c-0.9,0-1.5,0.7-1.7,1.4c-0.1,0.2-0.1,0.4-0.1,0.7v4.7H174V160.9z"
			/>
		<path d="M188.1,162.9c0,1.9,1.2,2.7,2.7,2.7c1,0,1.6-0.2,2.1-0.4l0.2,1c-0.5,0.2-1.3,0.5-2.6,0.5c-2.4,0-3.8-1.6-3.8-3.9
			s1.4-4.2,3.6-4.2c2.5,0,3.2,2.2,3.2,3.6c0,0.3,0,0.5,0,0.7H188.1z M192.2,161.9c0-0.9-0.4-2.3-2-2.3c-1.4,0-2,1.3-2.2,2.3H192.2z"
			/>
		<path d="M195.4,160.9c0-0.8,0-1.5-0.1-2.1h1.2l0.1,1.3h0c0.4-0.7,1.3-1.5,2.6-1.5c1.1,0,2.7,0.6,2.7,3.3v4.6h-1.4v-4.5
			c0-1.2-0.5-2.3-1.8-2.3c-0.9,0-1.6,0.7-1.9,1.4c-0.1,0.2-0.1,0.4-0.1,0.7v4.7h-1.4V160.9z"/>
	</g>
</g>
<g id="schnittflaechen">
	<path class="st8" d="M231.5,218.9c24.3,18.9,58.5,18.9,82.9,0.1C290,200.1,255.8,200.1,231.5,218.9z"/>
	<path class="st3" d="M206,218.7c-24.1-18.2-57.7-18.1-81.8,0.2C148.4,237.1,182,237.1,206,218.7z"/>
	<path class="st1" d="M219,231.5c-18.6,24.3-18.5,58.3,0.2,82.5C237.8,289.7,237.7,255.7,219,231.5z"/>
	<path class="st9" d="M218.8,206.1c18.6-24.1,18.7-57.8,0.4-82.1C200.6,148.1,200.5,181.8,218.8,206.1z"/>
</g>
<g id="zeit_x5F_und_x5F_infrastruktur">
	<rect x="141.5" y="382.5" class="st1" width="155" height="27.6"/>
	<g>
		<path d="M160.8,399.1l5.1-7.7v0h-4.7v-1h6.2v0.7l-5.1,7.6v0h5.2v1h-6.7V399.1z"/>
		<path d="M169.5,396.6c0,1.7,1.1,2.4,2.3,2.4c0.9,0,1.4-0.2,1.8-0.4l0.2,0.9c-0.4,0.2-1.2,0.4-2.2,0.4c-2,0-3.3-1.4-3.3-3.4
			s1.2-3.7,3.1-3.7c2.2,0,2.7,1.9,2.7,3.2c0,0.3,0,0.4,0,0.6H169.5z M173,395.7c0-0.8-0.3-2-1.7-2c-1.2,0-1.8,1.1-1.8,2H173z"/>
		<path d="M177,391.1c0,0.4-0.3,0.8-0.8,0.8c-0.4,0-0.7-0.3-0.7-0.8c0-0.4,0.3-0.8,0.8-0.8C176.8,390.3,177,390.6,177,391.1z
			 M175.7,399.8V393h1.2v6.8H175.7z"/>
		<path d="M180.4,391v1.9h1.7v0.9h-1.7v3.7c0,0.8,0.2,1.3,0.9,1.3c0.3,0,0.5,0,0.7-0.1l0.1,0.9c-0.2,0.1-0.6,0.2-1.1,0.2
			c-0.6,0-1-0.2-1.3-0.5c-0.3-0.4-0.5-1-0.5-1.8v-3.7h-1V393h1v-1.6L180.4,391z"/>
		<path d="M191.9,397.9c0,0.7,0,1.3,0.1,1.8h-1.1l-0.1-1.1h0c-0.3,0.5-1,1.3-2.2,1.3c-1,0-2.3-0.6-2.3-3v-4h1.2v3.8
			c0,1.3,0.4,2.2,1.5,2.2c0.8,0,1.4-0.6,1.6-1.1c0.1-0.2,0.1-0.4,0.1-0.6V393h1.2V397.9z"/>
		<path d="M193.9,394.8c0-0.7,0-1.3-0.1-1.8h1.1l0.1,1.1h0c0.3-0.6,1.1-1.3,2.2-1.3c0.9,0,2.3,0.6,2.3,2.9v4h-1.2v-3.9
			c0-1.1-0.4-2-1.5-2c-0.8,0-1.4,0.6-1.6,1.3c-0.1,0.2-0.1,0.4-0.1,0.6v4.1h-1.2V394.8z"/>
		<path d="M207.2,389.8v8.2c0,0.6,0,1.3,0.1,1.8h-1.1l-0.1-1.2h0c-0.4,0.8-1.2,1.3-2.3,1.3c-1.6,0-2.8-1.4-2.8-3.4
			c0-2.3,1.4-3.6,3-3.6c1,0,1.7,0.5,2,1h0v-4H207.2z M206,395.7c0-0.2,0-0.4-0.1-0.5c-0.2-0.8-0.8-1.4-1.7-1.4c-1.2,0-2,1.1-2,2.6
			c0,1.4,0.7,2.5,2,2.5c0.8,0,1.5-0.5,1.8-1.5c0-0.2,0.1-0.3,0.1-0.5V395.7z"/>
		<path d="M213.3,390.3v9.4h-1.2v-9.4H213.3z"/>
		<path d="M215.5,394.8c0-0.7,0-1.3-0.1-1.8h1.1l0.1,1.1h0c0.3-0.6,1.1-1.3,2.2-1.3c0.9,0,2.3,0.6,2.3,2.9v4H220v-3.9
			c0-1.1-0.4-2-1.5-2c-0.8,0-1.4,0.6-1.6,1.3c-0.1,0.2-0.1,0.4-0.1,0.6v4.1h-1.2V394.8z"/>
		<path d="M223.3,399.8v-5.8h-0.9V393h0.9v-0.3c0-1,0.2-1.8,0.8-2.4c0.5-0.4,1.1-0.6,1.6-0.6c0.4,0,0.8,0.1,1,0.2l-0.2,1
			c-0.2-0.1-0.4-0.2-0.8-0.2c-1,0-1.3,0.9-1.3,2v0.4h1.6v0.9h-1.6v5.8H223.3z"/>
		<path d="M227.1,395.1c0-0.8,0-1.5-0.1-2.1h1.1l0,1.3h0.1c0.3-0.9,1-1.5,1.8-1.5c0.1,0,0.2,0,0.3,0v1.2c-0.1,0-0.2,0-0.4,0
			c-0.8,0-1.5,0.7-1.6,1.6c0,0.2-0.1,0.4-0.1,0.6v3.6h-1.2V395.1z"/>
		<path d="M235.2,399.8l-0.1-0.9h0c-0.4,0.5-1.1,1-2,1c-1.3,0-2-1-2-1.9c0-1.6,1.4-2.5,4-2.5v-0.1c0-0.6-0.2-1.6-1.5-1.6
			c-0.6,0-1.3,0.2-1.7,0.5l-0.3-0.8c0.5-0.4,1.3-0.6,2.2-0.6c2,0,2.5,1.4,2.5,2.8v2.5c0,0.6,0,1.2,0.1,1.6H235.2z M235,396.3
			c-1.3,0-2.8,0.2-2.8,1.5c0,0.8,0.5,1.2,1.1,1.2c0.9,0,1.4-0.6,1.6-1.1c0-0.1,0.1-0.3,0.1-0.4V396.3z"/>
		<path d="M238,398.5c0.4,0.2,1,0.5,1.6,0.5c0.9,0,1.3-0.4,1.3-1c0-0.6-0.3-0.9-1.2-1.2c-1.2-0.4-1.8-1.1-1.8-1.9c0-1.1,0.9-2,2.3-2
			c0.7,0,1.3,0.2,1.6,0.4l-0.3,0.9c-0.3-0.2-0.7-0.4-1.4-0.4c-0.7,0-1.1,0.4-1.1,0.9c0,0.6,0.4,0.8,1.3,1.1c1.2,0.4,1.7,1,1.7,2
			c0,1.2-0.9,2-2.5,2c-0.7,0-1.4-0.2-1.9-0.5L238,398.5z"/>
		<path d="M245,391v1.9h1.7v0.9H245v3.7c0,0.8,0.2,1.3,0.9,1.3c0.3,0,0.5,0,0.7-0.1l0.1,0.9c-0.2,0.1-0.6,0.2-1.1,0.2
			c-0.6,0-1-0.2-1.3-0.5c-0.3-0.4-0.5-1-0.5-1.8v-3.7h-1V393h1v-1.6L245,391z"/>
		<path d="M248.1,395.1c0-0.8,0-1.5-0.1-2.1h1.1l0,1.3h0.1c0.3-0.9,1-1.5,1.8-1.5c0.1,0,0.2,0,0.3,0v1.2c-0.1,0-0.2,0-0.4,0
			c-0.8,0-1.5,0.7-1.6,1.6c0,0.2-0.1,0.4-0.1,0.6v3.6h-1.2V395.1z"/>
		<path d="M258.1,397.9c0,0.7,0,1.3,0.1,1.8h-1.1l-0.1-1.1h0c-0.3,0.5-1,1.3-2.2,1.3c-1,0-2.3-0.6-2.3-3v-4h1.2v3.8
			c0,1.3,0.4,2.2,1.5,2.2c0.8,0,1.4-0.6,1.6-1.1c0.1-0.2,0.1-0.4,0.1-0.6V393h1.2V397.9z"/>
		<path d="M261.3,396.1L261.3,396.1c0.2-0.2,0.4-0.5,0.6-0.8l1.9-2.3h1.5l-2.6,2.8l2.9,4h-1.5l-2.3-3.2l-0.6,0.7v2.5h-1.2v-9.9h1.2
			V396.1z"/>
		<path d="M268,391v1.9h1.7v0.9H268v3.7c0,0.8,0.2,1.3,0.9,1.3c0.3,0,0.5,0,0.7-0.1l0.1,0.9c-0.2,0.1-0.6,0.2-1.1,0.2
			c-0.6,0-1-0.2-1.3-0.5c-0.3-0.4-0.5-1-0.5-1.8v-3.7h-1V393h1v-1.6L268,391z"/>
		<path d="M276.6,397.9c0,0.7,0,1.3,0.1,1.8h-1.1l-0.1-1.1h0c-0.3,0.5-1,1.3-2.2,1.3c-1,0-2.3-0.6-2.3-3v-4h1.2v3.8
			c0,1.3,0.4,2.2,1.5,2.2c0.8,0,1.4-0.6,1.6-1.1c0.1-0.2,0.1-0.4,0.1-0.6V393h1.2V397.9z"/>
		<path d="M278.6,395.1c0-0.8,0-1.5-0.1-2.1h1.1l0,1.3h0.1c0.3-0.9,1-1.5,1.8-1.5c0.1,0,0.2,0,0.3,0v1.2c-0.1,0-0.2,0-0.4,0
			c-0.8,0-1.5,0.7-1.6,1.6c0,0.2-0.1,0.4-0.1,0.6v3.6h-1.2V395.1z"/>
	</g>
</g>
<g id="geld_x5F_sparen_x5F_durch_x5F_SI">
	
		<rect x="318.4" y="205.2" transform="matrix(-1.836970e-16 1 -1 -1.836970e-16 614.9106 -176.9299)" class="st8" width="155" height="27.6"/>
	<g>
		<g>
			<path d="M393.3,163.7c-0.2-0.5-0.5-1.6-0.5-2.9c0-1.4,0.4-2.6,1.2-3.5c0.8-0.8,2-1.3,3.5-1.3c2.8,0,4.9,1.9,4.9,5.1
				c0,1.1-0.2,1.9-0.4,2.4l-1-0.3c0.2-0.5,0.4-1.1,0.4-2.1c0-2.3-1.4-3.8-3.8-3.8c-2.4,0-3.8,1.4-3.8,3.6c0,0.8,0.1,1.3,0.3,1.6h2.8
				v-1.9h1v3.1H393.3z"/>
			<path d="M396.1,166.3c-1.7,0-2.4,1.1-2.4,2.3c0,0.9,0.2,1.4,0.4,1.9l-0.9,0.2c-0.2-0.4-0.4-1.2-0.4-2.3c0-2.1,1.4-3.3,3.4-3.3
				s3.7,1.2,3.7,3.2c0,2.2-1.9,2.8-3.2,2.8c-0.3,0-0.4,0-0.6,0V166.3z M396.9,169.9c0.8,0,2-0.3,2-1.7c0-1.2-1.1-1.8-2-1.9V169.9z"
				/>
			<path d="M402.8,172.6v1.2h-9.9v-1.2H402.8z"/>
			<path d="M402.8,181.8h-8.2c-0.6,0-1.3,0-1.8,0.1v-1.1l1.2-0.1v0c-0.8-0.4-1.3-1.2-1.3-2.3c0-1.6,1.4-2.9,3.4-2.9
				c2.3,0,3.6,1.4,3.6,3c0,1-0.5,1.7-1,2v0h4V181.8z M396.9,180.5c0.2,0,0.4,0,0.5-0.1c0.8-0.2,1.4-0.9,1.4-1.8c0-1.3-1.1-2-2.6-2
				c-1.4,0-2.5,0.7-2.5,2c0,0.8,0.5,1.6,1.5,1.8c0.2,0,0.3,0.1,0.5,0.1H396.9z"/>
			<path d="M394.2,186.6c-0.2,0.4-0.5,1-0.5,1.6c0,0.9,0.4,1.3,1,1.3c0.6,0,0.9-0.4,1.2-1.3c0.4-1.2,1.1-1.8,1.9-1.8
				c1.1,0,2,0.9,2,2.3c0,0.7-0.2,1.3-0.4,1.7l-0.9-0.3c0.2-0.3,0.4-0.8,0.4-1.4c0-0.7-0.4-1.1-0.9-1.1c-0.6,0-0.8,0.4-1.1,1.3
				c-0.4,1.2-1,1.8-2,1.8c-1.2,0-2-0.9-2-2.5c0-0.7,0.2-1.4,0.5-1.9L394.2,186.6z"/>
			<path d="M397.5,192.3c0.9,0,1.6,0,2.2-0.1v1.1l-1.2,0.1v0c0.8,0.5,1.3,1.3,1.3,2.4c0,1.6-1.4,2.9-3.4,2.9c-2.4,0-3.6-1.5-3.6-3.1
				c0-0.9,0.4-1.7,1.1-2.1v0h-3.7v-1.2H397.5z M395.7,193.5c-0.2,0-0.3,0-0.5,0.1c-0.9,0.2-1.4,1-1.4,1.8c0,1.3,1.1,2.1,2.6,2.1
				c1.4,0,2.5-0.7,2.5-2c0-0.8-0.6-1.6-1.5-1.9c-0.2,0-0.3-0.1-0.5-0.1H395.7z"/>
			<path d="M392.9,204l0.9-0.1v0c-0.5-0.4-1-1.1-1-2.1c0-1.4,1-2.1,1.9-2.1c1.6,0,2.5,1.5,2.5,4.1h0.1c0.6,0,1.6-0.2,1.6-1.5
				c0-0.6-0.2-1.3-0.5-1.8l0.8-0.3c0.4,0.6,0.6,1.4,0.6,2.2c0,2.1-1.4,2.6-2.8,2.6h-2.5c-0.6,0-1.2,0-1.6,0.1V204z M396.4,203.9
				c0-1.3-0.2-2.9-1.5-2.9c-0.8,0-1.2,0.5-1.2,1.2c0,0.9,0.6,1.4,1.1,1.6c0.1,0,0.3,0.1,0.4,0.1H396.4z"/>
			<path d="M397.6,207c0.8,0,1.5,0,2.1-0.1v1.1l-1.3,0v0.1c0.9,0.3,1.5,1.1,1.5,1.9c0,0.1,0,0.2,0,0.4h-1.2c0-0.1,0-0.3,0-0.4
				c0-0.9-0.7-1.5-1.6-1.7c-0.2,0-0.4-0.1-0.6-0.1h-3.6V207H397.6z"/>
			<path d="M396.1,212.2c-1.7,0-2.4,1.1-2.4,2.3c0,0.9,0.2,1.4,0.4,1.9l-0.9,0.2c-0.2-0.4-0.4-1.2-0.4-2.3c0-2.1,1.4-3.3,3.4-3.3
				s3.7,1.2,3.7,3.2c0,2.2-1.9,2.8-3.2,2.8c-0.3,0-0.4,0-0.6,0V212.2z M396.9,215.8c0.8,0,2-0.3,2-1.7c0-1.2-1.1-1.8-2-1.9V215.8z"
				/>
			<path d="M397.8,218.5c0.7,0,1.3,0,1.8-0.1v1.1l-1.1,0.1v0c0.6,0.3,1.3,1.1,1.3,2.2c0,0.9-0.6,2.4-2.9,2.4h-4V223h3.9
				c1.1,0,2-0.4,2-1.6c0-0.8-0.6-1.4-1.3-1.7c-0.2-0.1-0.4-0.1-0.6-0.1h-4.1v-1.2H397.8z"/>
			<path d="M402.8,235.1h-8.2c-0.6,0-1.3,0-1.8,0.1V234l1.2-0.1v0c-0.8-0.4-1.3-1.2-1.3-2.3c0-1.6,1.4-2.9,3.4-2.9
				c2.3,0,3.6,1.4,3.6,3c0,1-0.5,1.7-1,2v0h4V235.1z M396.9,233.8c0.2,0,0.4,0,0.5-0.1c0.8-0.2,1.4-0.9,1.4-1.8c0-1.3-1.1-2-2.6-2
				c-1.4,0-2.5,0.7-2.5,2c0,0.8,0.5,1.6,1.5,1.8c0.2,0,0.3,0.1,0.5,0.1H396.9z"/>
			<path d="M394.7,242.8c-0.7,0-1.3,0-1.8,0.1v-1.1l1.1-0.1v0c-0.5-0.3-1.3-1-1.3-2.2c0-1.1,0.6-2.3,3-2.3h4v1.2h-3.8
				c-1.3,0-2.2,0.4-2.2,1.5c0,0.8,0.6,1.4,1.1,1.6c0.2,0.1,0.4,0.1,0.6,0.1h4.2v1.2H394.7z"/>
			<path d="M397.6,244.8c0.8,0,1.5,0,2.1-0.1v1.1l-1.3,0v0.1c0.9,0.3,1.5,1.1,1.5,1.9c0,0.1,0,0.2,0,0.4h-1.2c0-0.1,0-0.3,0-0.4
				c0-0.9-0.7-1.5-1.6-1.7c-0.2,0-0.4-0.1-0.6-0.1h-3.6v-1.2H397.6z"/>
			<path d="M393.1,254.1c-0.2-0.3-0.4-1-0.4-1.9c0-2,1.4-3.4,3.5-3.4c2.1,0,3.6,1.4,3.6,3.6c0,0.7-0.2,1.4-0.3,1.7l-1-0.3
				c0.2-0.3,0.3-0.8,0.3-1.4c0-1.6-1.1-2.4-2.6-2.4c-1.6,0-2.5,1-2.5,2.4c0,0.7,0.2,1.2,0.3,1.5L393.1,254.1z"/>
			<path d="M402.8,255.5v1.2h-4.2v0c0.4,0.2,0.7,0.5,0.9,0.9c0.2,0.4,0.3,0.8,0.3,1.3c0,0.9-0.6,2.4-2.9,2.4h-4v-1.2h3.9
				c1.1,0,2-0.4,2-1.6c0-0.8-0.6-1.4-1.2-1.7c-0.2-0.1-0.4-0.1-0.6-0.1h-4.1v-1.2H402.8z"/>
			<path d="M394.4,266.2c-0.3,0.5-0.6,1.3-0.6,2.2c0,1.2,0.7,2,1.6,2c0.9,0,1.4-0.5,1.9-1.8c0.5-1.5,1.3-2.5,2.7-2.5
				c1.5,0,2.6,1.2,2.6,3.1c0,1-0.2,1.7-0.5,2.1l-1-0.3c0.2-0.3,0.4-0.9,0.4-1.8c0-1.3-0.8-1.8-1.4-1.8c-0.9,0-1.3,0.6-1.8,1.9
				c-0.6,1.6-1.4,2.4-2.8,2.4c-1.5,0-2.7-1.1-2.7-3.3c0-0.9,0.3-1.9,0.6-2.4L394.4,266.2z"/>
			<path d="M402.3,274.4h-9.4v-1.2h9.4V274.4z"/>
		</g>
	</g>
</g>
<g id="zeit_x5F_ist_x5F_geld">
	
		<rect x="-35.2" y="205" transform="matrix(-1.836970e-16 1 -1 -1.836970e-16 261.031 176.5409)" class="st10" width="155" height="27.6"/>
	<g>
		<path d="M44.6,257.6l-7.7-5.2h0v4.8h-1v-6.4h0.7l7.6,5.2h0v-5.3h1v6.9H44.6z"/>
		<path d="M42.2,248.7c1.7,0,2.4-1.1,2.4-2.3c0-0.9-0.2-1.4-0.4-1.9l0.9-0.2c0.2,0.4,0.4,1.2,0.4,2.3c0,2.1-1.4,3.3-3.4,3.3
			s-3.7-1.2-3.7-3.2c0-2.2,1.9-2.8,3.2-2.8c0.3,0,0.4,0,0.6,0V248.7z M41.3,245.1c-0.8,0-2,0.3-2,1.7c0,1.2,1.1,1.8,2,1.9V245.1z"/>
		<path d="M36.7,241c0.4,0,0.8,0.3,0.8,0.8c0,0.4-0.3,0.7-0.8,0.7c-0.4,0-0.8-0.3-0.8-0.8C35.9,241.3,36.2,241,36.7,241z
			 M45.3,242.4h-6.8v-1.2h6.8V242.4z"/>
		<path d="M36.6,237.6h1.9v-1.8h0.9v1.8h3.7c0.8,0,1.3-0.2,1.3-0.9c0-0.3,0-0.6-0.1-0.7l0.9-0.1c0.1,0.2,0.2,0.6,0.2,1.1
			c0,0.6-0.2,1-0.5,1.3c-0.4,0.4-1,0.5-1.8,0.5h-3.7v1.1h-0.9v-1.1h-1.6L36.6,237.6z"/>
		<path d="M36.7,230.1c0.4,0,0.8,0.3,0.8,0.8c0,0.4-0.3,0.7-0.8,0.7c-0.4,0-0.8-0.3-0.8-0.8C35.9,230.4,36.2,230.1,36.7,230.1z
			 M45.3,231.5h-6.8v-1.2h6.8V231.5z"/>
		<path d="M44.1,228.4c0.2-0.4,0.5-1,0.5-1.6c0-0.9-0.4-1.3-1-1.3c-0.6,0-0.9,0.4-1.2,1.3c-0.4,1.2-1.1,1.8-1.9,1.8
			c-1.1,0-2-0.9-2-2.3c0-0.7,0.2-1.3,0.4-1.7l0.9,0.3c-0.2,0.3-0.4,0.8-0.4,1.4c0,0.7,0.4,1.1,0.9,1.1c0.6,0,0.8-0.4,1.1-1.3
			c0.4-1.2,1-1.8,2-1.8c1.2,0,2,0.9,2,2.5c0,0.7-0.2,1.4-0.5,1.9L44.1,228.4z"/>
		<path d="M36.6,221.2h1.9v-1.8h0.9v1.8h3.7c0.8,0,1.3-0.2,1.3-0.9c0-0.3,0-0.6-0.1-0.7l0.9-0.1c0.1,0.2,0.2,0.6,0.2,1.1
			c0,0.6-0.2,1-0.5,1.3c-0.4,0.4-1,0.5-1.8,0.5h-3.7v1.1h-0.9v-1.1h-1.6L36.6,221.2z"/>
		<path d="M44.9,207.8c0.2,0.5,0.5,1.6,0.5,2.9c0,1.4-0.4,2.6-1.2,3.5c-0.8,0.8-2,1.3-3.5,1.3c-2.8,0-4.9-1.9-4.9-5.1
			c0-1.1,0.2-1.9,0.4-2.4l1,0.3c-0.2,0.5-0.4,1.1-0.4,2.1c0,2.3,1.4,3.8,3.8,3.8c2.4,0,3.8-1.4,3.8-3.6c0-0.8-0.1-1.3-0.3-1.6h-2.8
			v1.9h-1v-3.1H44.9z"/>
		<path d="M42.2,205.3c1.7,0,2.4-1.1,2.4-2.3c0-0.9-0.2-1.4-0.4-1.9l0.9-0.2c0.2,0.4,0.4,1.2,0.4,2.3c0,2.1-1.4,3.3-3.4,3.3
			s-3.7-1.2-3.7-3.2c0-2.2,1.9-2.8,3.2-2.8c0.3,0,0.4,0,0.6,0V205.3z M41.3,201.7c-0.8,0-2,0.3-2,1.7c0,1.2,1.1,1.8,2,1.9V201.7z"/>
		<path d="M35.4,198.9v-1.2h9.9v1.2H35.4z"/>
		<path d="M35.4,189.8h8.2c0.6,0,1.3,0,1.8-0.1v1.1l-1.2,0.1v0c0.8,0.4,1.3,1.2,1.3,2.3c0,1.6-1.4,2.9-3.4,2.9c-2.3,0-3.6-1.4-3.6-3
			c0-1,0.5-1.7,1-2v0h-4V189.8z M41.3,191c-0.2,0-0.4,0-0.5,0.1c-0.8,0.2-1.4,0.9-1.4,1.8c0,1.3,1.1,2,2.6,2c1.4,0,2.5-0.7,2.5-2
			c0-0.8-0.5-1.6-1.5-1.8c-0.2,0-0.3-0.1-0.5-0.1H41.3z"/>
		<path d="M42.7,186.8l-0.4,0c-0.8,0.1-1.6-0.2-2.4-0.9c-0.7-0.6-1.3-1-1.9-1c-0.7,0-1.2,0.4-1.2,1.3c0,0.5,0.2,1.1,0.4,1.4
			l-0.9,0.3c-0.3-0.5-0.6-1.3-0.6-2c0-1.6,1-2.3,2.1-2.3c1,0,1.6,0.5,2.4,1.2c0.7,0.6,1.3,0.8,2.1,0.8l0.4,0V186.8z M44.6,187.1
			c-0.5,0-0.9-0.4-0.9-0.8s0.4-0.8,0.9-0.8c0.5,0,0.9,0.3,0.9,0.8C45.5,186.8,45.1,187.1,44.6,187.1z"/>
	</g>
</g>
<g id="verfuegbares_x5F_einkommen">
	<rect x="141.2" y="28.7" class="st0" width="155" height="27.6"/>
	<g>
		<path d="M150.3,46.8l-3.1-9.4h1.3L150,42c0.4,1.3,0.8,2.4,1,3.5h0c0.3-1.1,0.7-2.3,1.1-3.5l1.6-4.7h1.3l-3.4,9.4H150.3z"/>
		<path d="M156.2,43.6c0,1.7,1.1,2.4,2.3,2.4c0.9,0,1.4-0.2,1.9-0.4l0.2,0.9c-0.4,0.2-1.2,0.4-2.3,0.4c-2.1,0-3.3-1.4-3.3-3.4
			s1.2-3.7,3.2-3.7c2.2,0,2.8,1.9,2.8,3.2c0,0.3,0,0.4,0,0.6H156.2z M159.8,42.7c0-0.8-0.3-2-1.7-2c-1.2,0-1.8,1.1-1.9,2H159.8z"/>
		<path d="M162.5,42.1c0-0.8,0-1.5-0.1-2.1h1.1l0,1.3h0.1c0.3-0.9,1.1-1.5,1.9-1.5c0.1,0,0.2,0,0.4,0V41c-0.1,0-0.3,0-0.4,0
			c-0.9,0-1.5,0.7-1.7,1.6c0,0.2-0.1,0.4-0.1,0.6v3.6h-1.2V42.1z"/>
		<path d="M167.7,46.8v-5.8h-1V40h1v-0.3c0-1,0.2-1.8,0.8-2.4c0.5-0.4,1.1-0.6,1.7-0.6c0.4,0,0.8,0.1,1.1,0.2l-0.2,1
			c-0.2-0.1-0.4-0.2-0.8-0.2c-1.1,0-1.3,0.9-1.3,2V40h1.6v0.9h-1.6v5.8H167.7z"/>
		<path d="M177.3,44.9c0,0.7,0,1.3,0.1,1.8h-1.1l-0.1-1.1h0c-0.3,0.5-1,1.3-2.2,1.3c-1.1,0-2.3-0.6-2.3-3v-4h1.2v3.8
			c0,1.3,0.4,2.2,1.5,2.2c0.8,0,1.4-0.6,1.6-1.1c0.1-0.2,0.1-0.4,0.1-0.6V40h1.2V44.9z M172.5,38.1c0-0.4,0.3-0.7,0.7-0.7
			s0.7,0.3,0.7,0.7c0,0.4-0.3,0.7-0.7,0.7C172.8,38.8,172.5,38.4,172.5,38.1z M175.1,38.1c0-0.4,0.3-0.7,0.7-0.7s0.7,0.3,0.7,0.7
			c0,0.4-0.3,0.7-0.7,0.7C175.4,38.8,175.1,38.4,175.1,38.1z"/>
		<path d="M185.2,40c0,0.5-0.1,1-0.1,1.9v3.9c0,1.6-0.3,2.5-1,3.1c-0.7,0.6-1.6,0.8-2.5,0.8c-0.8,0-1.7-0.2-2.3-0.6l0.3-0.9
			c0.4,0.3,1.1,0.5,2,0.5c1.3,0,2.2-0.7,2.2-2.4v-0.8h0c-0.4,0.6-1.1,1.1-2.2,1.1c-1.7,0-2.9-1.4-2.9-3.3c0-2.3,1.5-3.6,3.1-3.6
			c1.2,0,1.8,0.6,2.1,1.2h0l0.1-1H185.2z M183.9,42.7c0-0.2,0-0.4-0.1-0.6c-0.2-0.7-0.8-1.3-1.7-1.3c-1.2,0-2,1-2,2.6
			c0,1.3,0.7,2.4,2,2.4c0.8,0,1.4-0.5,1.7-1.3c0.1-0.2,0.1-0.4,0.1-0.7V42.7z"/>
		<path d="M187.1,46.8c0-0.5,0.1-1.1,0.1-1.8v-8.2h1.2v4.3h0c0.4-0.8,1.2-1.2,2.3-1.2c1.7,0,2.9,1.4,2.9,3.5c0,2.4-1.5,3.6-3,3.6
			c-1,0-1.8-0.4-2.3-1.3h0l-0.1,1.1H187.1z M188.4,44.1c0,0.2,0,0.3,0.1,0.4c0.2,0.9,1,1.4,1.8,1.4c1.3,0,2.1-1.1,2.1-2.6
			c0-1.4-0.7-2.5-2-2.5c-0.8,0-1.6,0.6-1.9,1.5c0,0.1-0.1,0.3-0.1,0.5V44.1z"/>
		<path d="M198.9,46.8l-0.1-0.9h0c-0.4,0.5-1.1,1-2.1,1c-1.4,0-2.1-1-2.1-1.9c0-1.6,1.5-2.5,4.1-2.5v-0.1c0-0.6-0.2-1.6-1.5-1.6
			c-0.6,0-1.3,0.2-1.8,0.5l-0.3-0.8c0.6-0.4,1.4-0.6,2.2-0.6c2.1,0,2.6,1.4,2.6,2.8v2.5c0,0.6,0,1.2,0.1,1.6H198.9z M198.7,43.3
			c-1.3,0-2.9,0.2-2.9,1.5c0,0.8,0.5,1.2,1.2,1.2c0.9,0,1.4-0.6,1.6-1.1c0-0.1,0.1-0.3,0.1-0.4V43.3z"/>
		<path d="M201.9,42.1c0-0.8,0-1.5-0.1-2.1h1.1l0,1.3h0.1c0.3-0.9,1.1-1.5,1.9-1.5c0.1,0,0.2,0,0.4,0V41c-0.1,0-0.3,0-0.4,0
			c-0.9,0-1.5,0.7-1.7,1.6c0,0.2-0.1,0.4-0.1,0.6v3.6h-1.2V42.1z"/>
		<path d="M207,43.6c0,1.7,1.1,2.4,2.3,2.4c0.9,0,1.4-0.2,1.9-0.4l0.2,0.9c-0.4,0.2-1.2,0.4-2.3,0.4c-2.1,0-3.3-1.4-3.3-3.4
			s1.2-3.7,3.2-3.7c2.2,0,2.8,1.9,2.8,3.2c0,0.3,0,0.4,0,0.6H207z M210.6,42.7c0-0.8-0.3-2-1.7-2c-1.2,0-1.8,1.1-1.9,2H210.6z"/>
		<path d="M213.2,45.5c0.4,0.2,1,0.5,1.6,0.5c0.9,0,1.3-0.4,1.3-1c0-0.6-0.4-0.9-1.3-1.2c-1.2-0.4-1.8-1.1-1.8-1.9
			c0-1.1,0.9-2,2.3-2c0.7,0,1.3,0.2,1.7,0.4l-0.3,0.9c-0.3-0.2-0.8-0.4-1.4-0.4c-0.7,0-1.1,0.4-1.1,0.9c0,0.6,0.4,0.8,1.3,1.1
			c1.2,0.4,1.8,1,1.8,2c0,1.2-0.9,2-2.5,2c-0.7,0-1.4-0.2-1.9-0.5L213.2,45.5z"/>
		<path d="M226.8,42.3h-3.7v3.4h4.1v1h-5.3v-9.4h5.1v1h-3.9v3h3.7V42.3z"/>
		<path d="M230.1,38.1c0,0.4-0.3,0.8-0.8,0.8c-0.4,0-0.7-0.3-0.7-0.8c0-0.4,0.3-0.8,0.8-0.8C229.8,37.3,230.1,37.6,230.1,38.1z
			 M228.7,46.8V40h1.2v6.8H228.7z"/>
		<path d="M232,41.8c0-0.7,0-1.3-0.1-1.8h1.1l0.1,1.1h0c0.3-0.6,1.1-1.3,2.2-1.3c0.9,0,2.4,0.6,2.4,2.9v4h-1.2v-3.9
			c0-1.1-0.4-2-1.6-2c-0.8,0-1.4,0.6-1.7,1.3c-0.1,0.2-0.1,0.4-0.1,0.6v4.1H232V41.8z"/>
		<path d="M241,43.1L241,43.1c0.2-0.2,0.4-0.5,0.6-0.8l2-2.3h1.5l-2.6,2.8l3,4H244l-2.3-3.2l-0.6,0.7v2.5h-1.2v-9.9h1.2V43.1z"/>
		<path d="M252.5,43.3c0,2.5-1.7,3.6-3.4,3.6c-1.8,0-3.2-1.3-3.2-3.5c0-2.3,1.5-3.6,3.4-3.6C251.2,39.8,252.5,41.2,252.5,43.3z
			 M247.1,43.4c0,1.5,0.9,2.6,2.1,2.6c1.2,0,2.1-1.1,2.1-2.6c0-1.1-0.6-2.6-2-2.6C247.7,40.8,247.1,42.1,247.1,43.4z"/>
		<path d="M254,41.8c0-0.7,0-1.3-0.1-1.8h1.1l0.1,1.1h0c0.4-0.6,1-1.2,2.1-1.2c0.9,0,1.6,0.6,1.9,1.4h0c0.2-0.4,0.5-0.7,0.8-0.9
			c0.4-0.3,0.9-0.5,1.5-0.5c0.9,0,2.2,0.6,2.2,2.9v4h-1.2v-3.8c0-1.3-0.5-2.1-1.5-2.1c-0.7,0-1.2,0.5-1.5,1.1
			c-0.1,0.2-0.1,0.4-0.1,0.6v4.2h-1.2v-4.1c0-1.1-0.5-1.9-1.4-1.9c-0.8,0-1.3,0.6-1.5,1.2c-0.1,0.2-0.1,0.4-0.1,0.6v4.1H254V41.8z"
			/>
		<path d="M265.7,41.8c0-0.7,0-1.3-0.1-1.8h1.1l0.1,1.1h0c0.4-0.6,1-1.2,2.1-1.2c0.9,0,1.6,0.6,1.9,1.4h0c0.2-0.4,0.5-0.7,0.8-0.9
			c0.4-0.3,0.9-0.5,1.5-0.5c0.9,0,2.2,0.6,2.2,2.9v4h-1.2v-3.8c0-1.3-0.5-2.1-1.5-2.1c-0.7,0-1.2,0.5-1.5,1.1
			c-0.1,0.2-0.1,0.4-0.1,0.6v4.2h-1.2v-4.1c0-1.1-0.5-1.9-1.4-1.9c-0.8,0-1.3,0.6-1.5,1.2c-0.1,0.2-0.1,0.4-0.1,0.6v4.1h-1.2V41.8z"
			/>
		<path d="M278.1,43.6c0,1.7,1.1,2.4,2.3,2.4c0.9,0,1.4-0.2,1.9-0.4l0.2,0.9c-0.4,0.2-1.2,0.4-2.3,0.4c-2.1,0-3.3-1.4-3.3-3.4
			s1.2-3.7,3.2-3.7c2.2,0,2.8,1.9,2.8,3.2c0,0.3,0,0.4,0,0.6H278.1z M281.7,42.7c0-0.8-0.3-2-1.7-2c-1.2,0-1.8,1.1-1.9,2H281.7z"/>
		<path d="M284.4,41.8c0-0.7,0-1.3-0.1-1.8h1.1l0.1,1.1h0c0.3-0.6,1.1-1.3,2.2-1.3c0.9,0,2.4,0.6,2.4,2.9v4h-1.2v-3.9
			c0-1.1-0.4-2-1.6-2c-0.8,0-1.4,0.6-1.7,1.3c-0.1,0.2-0.1,0.4-0.1,0.6v4.1h-1.2V41.8z"/>
	</g>
</g>
</svg>
