<?xml version="1.0" encoding="UTF-8"?>
<svg xmlns="http://www.w3.org/2000/svg" version="1.1" viewBox="0 0 379.23 379.28">
  <!-- Generator: Adobe Illustrator 28.7.1, SVG Export Plug-In . SVG Version: 1.2.0 Build 142)  -->
  <g>
    <g id="zeit_verwendung">
      <path d="M189.49,202.77c-1.75-2.26-3.64-4.44-5.71-6.52-2.29-2.29-4.7-4.36-7.21-6.26-24.15-18.2-57.68-18.14-81.76.2-2.41,1.84-4.74,3.84-6.94,6.04-26.49,26.48-26.5,69.42-.02,95.91,26.48,26.49,69.42,26.5,95.91.02,2.18-2.17,4.15-4.47,5.97-6.85,18.59-24.32,18.51-58.31-.24-82.55Z" style="fill: #fcd799;"/>
      <g>
        <path d="M116.91,236.25l5.99-8.76v-.05h-5.47v-1.17h7.28v.85l-5.95,8.72v.05h6.03v1.17h-7.88v-.82Z" style="fill: #1d1d1b;"/>
        <path d="M127.04,233.45c.03,1.9,1.25,2.69,2.66,2.69,1.01,0,1.62-.18,2.15-.4l.24,1.01c-.5.22-1.34.48-2.58.48-2.39,0-3.81-1.57-3.81-3.91s1.38-4.18,3.63-4.18c2.53,0,3.2,2.23,3.2,3.65,0,.29-.03.51-.05.66h-5.44ZM131.17,232.44c.02-.9-.37-2.29-1.95-2.29-1.42,0-2.05,1.31-2.16,2.29h4.11Z" style="fill: #1d1d1b;"/>
        <path d="M135.84,227.14c.02.48-.34.86-.9.86-.5,0-.85-.38-.85-.86s.37-.88.88-.88.86.38.86.88ZM134.27,237.07v-7.75h1.41v7.75h-1.41Z" style="fill: #1d1d1b;"/>
        <path d="M139.71,227.09v2.23h2.02v1.07h-2.02v4.18c0,.96.27,1.5,1.06,1.5.37,0,.64-.05.82-.1l.06,1.06c-.27.11-.7.19-1.25.19-.66,0-1.18-.21-1.52-.59-.4-.42-.54-1.1-.54-2.02v-4.23h-1.2v-1.07h1.2v-1.86l1.38-.37Z" style="fill: #1d1d1b;"/>
        <path d="M146.49,232.22v1.04h-3.95v-1.04h3.95Z" style="fill: #1d1d1b;"/>
        <path d="M90.73,248.52l1.52,4.35c.26.7.46,1.34.62,1.98h.05c.18-.64.4-1.28.66-1.98l1.5-4.35h1.47l-3.04,7.75h-1.34l-2.95-7.75h1.5Z" style="fill: #1d1d1b;"/>
        <path d="M98.51,252.65c.03,1.9,1.25,2.69,2.66,2.69,1.01,0,1.62-.18,2.15-.4l.24,1.01c-.5.22-1.34.48-2.58.48-2.39,0-3.81-1.57-3.81-3.91s1.38-4.18,3.63-4.18c2.53,0,3.2,2.23,3.2,3.65,0,.29-.03.51-.05.66h-5.44ZM102.64,251.64c.02-.9-.37-2.29-1.95-2.29-1.42,0-2.05,1.31-2.16,2.29h4.11Z" style="fill: #1d1d1b;"/>
        <path d="M105.74,250.94c0-.91-.02-1.7-.06-2.42h1.23l.05,1.52h.06c.35-1.04,1.2-1.7,2.14-1.7.16,0,.27.02.4.05v1.33c-.14-.03-.29-.05-.48-.05-.99,0-1.7.75-1.89,1.81-.03.19-.06.42-.06.66v4.13h-1.39v-5.33Z" style="fill: #1d1d1b;"/>
        <path d="M111.93,248.52l1.02,3.94c.22.86.43,1.66.58,2.46h.05c.18-.78.43-1.62.69-2.45l1.26-3.95h1.18l1.2,3.87c.29.93.51,1.74.69,2.53h.05c.13-.78.34-1.6.59-2.51l1.1-3.89h1.39l-2.5,7.75h-1.28l-1.18-3.7c-.27-.86-.5-1.63-.69-2.55h-.03c-.19.93-.43,1.73-.7,2.56l-1.25,3.68h-1.28l-2.34-7.75h1.44Z" style="fill: #1d1d1b;"/>
        <path d="M123.77,252.65c.03,1.9,1.25,2.69,2.66,2.69,1.01,0,1.62-.18,2.15-.4l.24,1.01c-.5.22-1.34.48-2.58.48-2.39,0-3.81-1.57-3.81-3.91s1.38-4.18,3.63-4.18c2.53,0,3.2,2.23,3.2,3.65,0,.29-.03.51-.05.66h-5.44ZM127.9,251.64c.02-.9-.37-2.29-1.95-2.29-1.42,0-2.05,1.31-2.16,2.29h4.11Z" style="fill: #1d1d1b;"/>
        <path d="M131,250.62c0-.8-.02-1.46-.06-2.1h1.25l.08,1.28h.03c.38-.74,1.28-1.46,2.56-1.46,1.07,0,2.74.64,2.74,3.3v4.63h-1.41v-4.47c0-1.25-.46-2.29-1.79-2.29-.93,0-1.65.66-1.89,1.44-.06.18-.1.42-.1.66v4.66h-1.41v-5.65Z" style="fill: #1d1d1b;"/>
        <path d="M146.57,244.9v9.36c0,.69.02,1.47.06,2h-1.26l-.06-1.34h-.03c-.43.86-1.38,1.52-2.64,1.52-1.87,0-3.31-1.58-3.31-3.94-.02-2.58,1.58-4.16,3.47-4.16,1.18,0,1.98.56,2.34,1.18h.03v-4.63h1.41ZM145.17,251.67c0-.18-.02-.42-.06-.59-.21-.9-.98-1.63-2.03-1.63-1.46,0-2.32,1.28-2.32,2.99,0,1.57.77,2.87,2.29,2.87.94,0,1.81-.62,2.06-1.68.05-.19.06-.38.06-.61v-1.34Z" style="fill: #1d1d1b;"/>
        <path d="M155.39,254.15c0,.8.02,1.5.06,2.11h-1.25l-.08-1.26h-.03c-.37.62-1.18,1.44-2.56,1.44-1.22,0-2.67-.67-2.67-3.39v-4.53h1.41v4.29c0,1.47.45,2.47,1.73,2.47.94,0,1.6-.66,1.86-1.28.08-.21.13-.46.13-.72v-4.75h1.41v5.63Z" style="fill: #1d1d1b;"/>
        <path d="M157.72,250.62c0-.8-.02-1.46-.06-2.1h1.25l.08,1.28h.03c.38-.74,1.28-1.46,2.56-1.46,1.07,0,2.74.64,2.74,3.3v4.63h-1.41v-4.47c0-1.25-.46-2.29-1.79-2.29-.93,0-1.65.66-1.89,1.44-.06.18-.1.42-.1.66v4.66h-1.41v-5.65Z" style="fill: #1d1d1b;"/>
        <path d="M173.28,248.52c-.03.56-.06,1.18-.06,2.13v4.5c0,1.78-.35,2.87-1.1,3.54-.75.7-1.84.93-2.82.93s-1.95-.22-2.58-.64l.35-1.07c.51.32,1.31.61,2.27.61,1.44,0,2.5-.75,2.5-2.71v-.86h-.03c-.43.72-1.26,1.3-2.46,1.3-1.92,0-3.3-1.63-3.3-3.78,0-2.62,1.71-4.11,3.49-4.11,1.34,0,2.08.7,2.42,1.34h.03l.06-1.17h1.23ZM171.82,251.58c0-.24-.02-.45-.08-.64-.26-.82-.94-1.49-1.97-1.49-1.34,0-2.31,1.14-2.31,2.93,0,1.52.77,2.79,2.29,2.79.86,0,1.65-.54,1.95-1.44.08-.24.11-.51.11-.75v-1.39Z" style="fill: #1d1d1b;"/>
      </g>
    </g>
    <g id="notwendige_ausgaben">
      <path d="M291.46,88.61c-26.48-26.49-69.42-26.5-95.91-.02-2.11,2.11-4.03,4.33-5.8,6.63-18.59,24.11-18.74,57.85-.44,82.11,1.88,2.5,3.95,4.9,6.22,7.18,2.06,2.06,4.23,3.94,6.48,5.68,24.33,18.87,58.54,18.89,82.9.06,2.27-1.75,4.46-3.65,6.54-5.73,26.49-26.48,26.5-69.42.02-95.91Z" style="fill: #f0ae9f;"/>
      <g>
        <path d="M208.42,130.04v-10.79h1.52l3.46,5.46c.8,1.26,1.42,2.4,1.94,3.51l.03-.02c-.13-1.44-.16-2.75-.16-4.43v-4.51h1.31v10.79h-1.41l-3.43-5.47c-.75-1.2-1.47-2.43-2.02-3.6l-.05.02c.08,1.36.11,2.66.11,4.45v4.61h-1.31Z" style="fill: #1d1d1b;"/>
        <path d="M225.91,126.1c0,2.87-1.98,4.11-3.86,4.11-2.1,0-3.71-1.54-3.71-3.99,0-2.59,1.7-4.11,3.84-4.11s3.73,1.62,3.73,3.99ZM219.76,126.18c0,1.7.98,2.98,2.35,2.98s2.35-1.26,2.35-3.01c0-1.31-.66-2.98-2.32-2.98s-2.39,1.54-2.39,3.01Z" style="fill: #1d1d1b;"/>
        <path d="M229.38,120.07v2.23h2.02v1.07h-2.02v4.18c0,.96.27,1.5,1.06,1.5.37,0,.64-.05.82-.1l.06,1.06c-.27.11-.7.19-1.25.19-.66,0-1.18-.21-1.52-.59-.4-.42-.54-1.1-.54-2.02v-4.23h-1.2v-1.07h1.2v-1.86l1.38-.37Z" style="fill: #1d1d1b;"/>
        <path d="M233.68,122.29l1.02,3.94c.22.86.43,1.66.58,2.46h.05c.18-.78.43-1.62.69-2.45l1.26-3.95h1.18l1.2,3.87c.29.93.51,1.74.69,2.53h.05c.13-.78.34-1.6.59-2.51l1.1-3.89h1.39l-2.5,7.75h-1.28l-1.18-3.7c-.27-.86-.5-1.63-.69-2.55h-.03c-.19.93-.43,1.73-.7,2.56l-1.25,3.68h-1.28l-2.34-7.75h1.44Z" style="fill: #1d1d1b;"/>
        <path d="M245.52,126.42c.03,1.9,1.25,2.69,2.66,2.69,1.01,0,1.62-.18,2.15-.4l.24,1.01c-.5.22-1.34.48-2.58.48-2.39,0-3.81-1.57-3.81-3.91s1.38-4.18,3.63-4.18c2.53,0,3.2,2.23,3.2,3.65,0,.29-.03.51-.05.66h-5.44ZM249.65,125.41c.02-.9-.37-2.29-1.95-2.29-1.42,0-2.05,1.31-2.16,2.29h4.11Z" style="fill: #1d1d1b;"/>
        <path d="M252.75,124.39c0-.8-.02-1.46-.06-2.1h1.25l.08,1.28h.03c.38-.74,1.28-1.46,2.56-1.46,1.07,0,2.74.64,2.74,3.3v4.63h-1.41v-4.47c0-1.25-.46-2.29-1.79-2.29-.93,0-1.65.66-1.89,1.44-.06.18-.1.42-.1.66v4.66h-1.41v-5.65Z" style="fill: #1d1d1b;"/>
        <path d="M268.32,118.68v9.36c0,.69.02,1.47.06,2h-1.26l-.06-1.34h-.03c-.43.86-1.38,1.52-2.64,1.52-1.87,0-3.31-1.58-3.31-3.94-.02-2.58,1.58-4.16,3.47-4.16,1.18,0,1.98.56,2.34,1.18h.03v-4.63h1.41ZM266.92,125.45c0-.18-.02-.42-.06-.59-.21-.9-.98-1.63-2.03-1.63-1.46,0-2.32,1.28-2.32,2.99,0,1.57.77,2.87,2.29,2.87.94,0,1.81-.62,2.06-1.68.05-.19.06-.38.06-.61v-1.34Z" style="fill: #1d1d1b;"/>
        <path d="M272.23,120.12c.02.48-.34.86-.9.86-.5,0-.85-.38-.85-.86s.37-.88.88-.88.86.38.86.88ZM270.66,130.04v-7.75h1.41v7.75h-1.41Z" style="fill: #1d1d1b;"/>
        <path d="M281.08,122.29c-.03.56-.06,1.18-.06,2.13v4.5c0,1.78-.35,2.87-1.1,3.54-.75.7-1.84.93-2.82.93s-1.95-.22-2.58-.64l.35-1.07c.51.32,1.31.61,2.27.61,1.44,0,2.5-.75,2.5-2.71v-.86h-.03c-.43.72-1.26,1.3-2.46,1.3-1.92,0-3.3-1.63-3.3-3.78,0-2.62,1.71-4.11,3.49-4.11,1.34,0,2.08.7,2.42,1.34h.03l.06-1.17h1.23ZM279.62,125.35c0-.24-.02-.45-.08-.64-.26-.82-.94-1.49-1.97-1.49-1.34,0-2.31,1.14-2.31,2.93,0,1.52.77,2.79,2.29,2.79.86,0,1.65-.54,1.95-1.44.08-.24.11-.51.11-.75v-1.39Z" style="fill: #1d1d1b;"/>
        <path d="M284.13,126.42c.03,1.9,1.25,2.69,2.66,2.69,1.01,0,1.62-.18,2.15-.4l.24,1.01c-.5.22-1.34.48-2.58.48-2.39,0-3.81-1.57-3.81-3.91s1.38-4.18,3.63-4.18c2.53,0,3.2,2.23,3.2,3.65,0,.29-.03.51-.05.66h-5.44ZM288.26,125.41c.02-.9-.37-2.29-1.95-2.29-1.42,0-2.05,1.31-2.16,2.29h4.11Z" style="fill: #1d1d1b;"/>
        <path d="M217.95,145.85l-1.12,3.39h-1.44l3.67-10.79h1.68l3.68,10.79h-1.49l-1.15-3.39h-3.83ZM221.49,144.76l-1.06-3.1c-.24-.7-.4-1.34-.56-1.97h-.03c-.16.64-.34,1.3-.54,1.95l-1.06,3.12h3.25Z" style="fill: #1d1d1b;"/>
        <path d="M232.24,147.13c0,.8.02,1.5.06,2.11h-1.25l-.08-1.26h-.03c-.37.62-1.18,1.44-2.56,1.44-1.22,0-2.67-.67-2.67-3.39v-4.53h1.41v4.29c0,1.47.45,2.47,1.73,2.47.94,0,1.6-.66,1.86-1.28.08-.21.13-.46.13-.72v-4.75h1.41v5.63Z" style="fill: #1d1d1b;"/>
        <path d="M234.39,147.8c.42.27,1.15.56,1.86.56,1.02,0,1.5-.51,1.5-1.15,0-.67-.4-1.04-1.44-1.42-1.39-.5-2.05-1.26-2.05-2.19,0-1.25,1.01-2.27,2.67-2.27.78,0,1.47.22,1.9.48l-.35,1.02c-.3-.19-.86-.45-1.58-.45-.83,0-1.3.48-1.3,1.06,0,.64.46.93,1.47,1.31,1.34.51,2.03,1.18,2.03,2.34,0,1.36-1.06,2.32-2.9,2.32-.85,0-1.63-.21-2.18-.53l.35-1.07Z" style="fill: #1d1d1b;"/>
        <path d="M247.59,141.49c-.03.56-.06,1.18-.06,2.13v4.5c0,1.78-.35,2.87-1.1,3.54-.75.7-1.84.93-2.82.93s-1.95-.22-2.58-.64l.35-1.07c.51.32,1.31.61,2.27.61,1.44,0,2.5-.75,2.5-2.71v-.86h-.03c-.43.72-1.26,1.3-2.46,1.3-1.92,0-3.3-1.63-3.3-3.78,0-2.62,1.71-4.11,3.49-4.11,1.34,0,2.08.7,2.42,1.34h.03l.06-1.17h1.23ZM246.13,144.55c0-.24-.02-.45-.08-.64-.26-.82-.94-1.49-1.97-1.49-1.34,0-2.31,1.14-2.31,2.93,0,1.52.77,2.79,2.29,2.79.86,0,1.65-.54,1.95-1.44.08-.24.11-.51.11-.75v-1.39Z" style="fill: #1d1d1b;"/>
        <path d="M254.15,149.24l-.11-.98h-.05c-.43.61-1.26,1.15-2.37,1.15-1.57,0-2.37-1.1-2.37-2.23,0-1.87,1.67-2.9,4.66-2.88v-.16c0-.64-.18-1.79-1.76-1.79-.72,0-1.47.22-2.02.58l-.32-.93c.64-.42,1.57-.69,2.54-.69,2.37,0,2.95,1.62,2.95,3.17v2.9c0,.67.03,1.33.13,1.86h-1.28ZM253.94,145.29c-1.54-.03-3.28.24-3.28,1.74,0,.91.61,1.34,1.33,1.34,1.01,0,1.65-.64,1.87-1.3.05-.14.08-.3.08-.45v-1.34Z" style="fill: #1d1d1b;"/>
        <path d="M257.51,149.24c.03-.53.06-1.31.06-2v-9.36h1.39v4.87h.03c.5-.86,1.39-1.42,2.64-1.42,1.92,0,3.28,1.6,3.27,3.95,0,2.77-1.74,4.15-3.47,4.15-1.12,0-2.02-.43-2.59-1.46h-.05l-.06,1.28h-1.22ZM258.96,146.13c0,.18.03.35.06.51.27.98,1.09,1.65,2.11,1.65,1.47,0,2.35-1.2,2.35-2.98,0-1.55-.8-2.88-2.3-2.88-.96,0-1.86.66-2.15,1.73-.03.16-.08.35-.08.58v1.39Z" style="fill: #1d1d1b;"/>
        <path d="M267.46,145.62c.03,1.9,1.25,2.69,2.66,2.69,1.01,0,1.62-.18,2.15-.4l.24,1.01c-.5.22-1.34.48-2.58.48-2.39,0-3.81-1.57-3.81-3.91s1.38-4.18,3.63-4.18c2.53,0,3.2,2.23,3.2,3.65,0,.29-.03.51-.05.66h-5.44ZM271.59,144.61c.02-.9-.37-2.29-1.95-2.29-1.42,0-2.05,1.31-2.16,2.29h4.11Z" style="fill: #1d1d1b;"/>
        <path d="M274.69,143.59c0-.8-.02-1.46-.06-2.1h1.25l.08,1.28h.03c.38-.74,1.28-1.46,2.56-1.46,1.07,0,2.74.64,2.74,3.3v4.63h-1.41v-4.47c0-1.25-.46-2.29-1.79-2.29-.93,0-1.65.66-1.89,1.44-.06.18-.1.42-.1.66v4.66h-1.41v-5.65Z" style="fill: #1d1d1b;"/>
      </g>
    </g>
    <g id="soziale_infrastrukturen">
      <path d="M291.38,195.94c-2.06-2.06-4.23-3.94-6.48-5.68-24.33-18.87-58.54-18.89-82.9-.06-2.27,1.75-4.46,3.65-6.54,5.73-2.18,2.17-4.15,4.47-5.97,6.85-18.59,24.32-18.51,58.31.24,82.55,1.75,2.26,3.64,4.44,5.71,6.52,26.48,26.49,69.42,26.5,95.91.02,26.49-26.48,26.5-69.42.02-95.91Z" style="fill: #a5cdc8;"/>
      <g>
        <path d="M229.75,235.19c.62.38,1.54.7,2.5.7,1.42,0,2.26-.75,2.26-1.84,0-1.01-.58-1.58-2.03-2.15-1.76-.62-2.85-1.54-2.85-3.06,0-1.68,1.39-2.93,3.49-2.93,1.1,0,1.9.26,2.38.53l-.38,1.14c-.35-.19-1.07-.51-2.05-.51-1.47,0-2.03.88-2.03,1.62,0,1.01.66,1.5,2.14,2.08,1.82.7,2.75,1.58,2.75,3.17,0,1.66-1.23,3.11-3.78,3.11-1.04,0-2.18-.3-2.75-.69l.35-1.17Z" style="fill: #1d1d1b;"/>
        <path d="M244.89,232.95c0,2.87-1.98,4.11-3.86,4.11-2.1,0-3.71-1.54-3.71-3.99,0-2.59,1.7-4.11,3.84-4.11s3.73,1.62,3.73,3.99ZM238.75,233.03c0,1.7.98,2.98,2.35,2.98s2.35-1.26,2.35-3.01c0-1.31-.66-2.98-2.32-2.98s-2.39,1.54-2.39,3.01Z" style="fill: #1d1d1b;"/>
        <path d="M245.67,236.07l3.51-4.56c.34-.42.66-.78,1.01-1.2v-.03h-4.19v-1.14h5.91l-.02.88-3.46,4.5c-.32.43-.64.82-.99,1.22v.03h4.53v1.12h-6.29v-.82Z" style="fill: #1d1d1b;"/>
        <path d="M254.97,226.97c.02.48-.34.86-.9.86-.5,0-.85-.38-.85-.86s.37-.88.88-.88.86.38.86.88ZM253.4,236.89v-7.75h1.41v7.75h-1.41Z" style="fill: #1d1d1b;"/>
        <path d="M261.43,236.89l-.11-.98h-.05c-.43.61-1.26,1.15-2.37,1.15-1.57,0-2.37-1.1-2.37-2.23,0-1.87,1.67-2.9,4.66-2.88v-.16c0-.64-.18-1.79-1.76-1.79-.72,0-1.47.22-2.02.58l-.32-.93c.64-.42,1.57-.69,2.54-.69,2.37,0,2.95,1.62,2.95,3.17v2.9c0,.67.03,1.33.13,1.86h-1.28ZM261.23,232.94c-1.54-.03-3.28.24-3.28,1.74,0,.91.61,1.34,1.33,1.34,1.01,0,1.65-.64,1.87-1.3.05-.14.08-.3.08-.45v-1.34Z" style="fill: #1d1d1b;"/>
        <path d="M264.86,225.53h1.41v11.36h-1.41v-11.36Z" style="fill: #1d1d1b;"/>
        <path d="M269.42,233.27c.03,1.9,1.25,2.69,2.66,2.69,1.01,0,1.62-.18,2.15-.4l.24,1.01c-.5.22-1.34.48-2.58.48-2.39,0-3.81-1.57-3.81-3.91s1.38-4.18,3.63-4.18c2.53,0,3.2,2.23,3.2,3.65,0,.29-.03.51-.05.66h-5.44ZM273.55,232.26c.02-.9-.37-2.29-1.95-2.29-1.42,0-2.05,1.31-2.16,2.29h4.11Z" style="fill: #1d1d1b;"/>
        <path d="M206.58,245.3v10.79h-1.39v-10.79h1.39Z" style="fill: #1d1d1b;"/>
        <path d="M209.12,250.44c0-.8-.02-1.46-.06-2.1h1.25l.08,1.28h.03c.38-.74,1.28-1.46,2.56-1.46,1.07,0,2.74.64,2.74,3.3v4.63h-1.41v-4.47c0-1.25-.46-2.29-1.79-2.29-.93,0-1.65.66-1.89,1.44-.06.18-.1.42-.1.66v4.66h-1.41v-5.65Z" style="fill: #1d1d1b;"/>
        <path d="M218.15,256.09v-6.67h-1.09v-1.07h1.09v-.37c0-1.09.24-2.08.9-2.71.53-.51,1.23-.72,1.89-.72.5,0,.93.11,1.2.22l-.19,1.09c-.21-.1-.5-.18-.9-.18-1.2,0-1.5,1.06-1.5,2.24v.42h1.87v1.07h-1.87v6.67h-1.39Z" style="fill: #1d1d1b;"/>
        <path d="M222.67,250.76c0-.91-.02-1.7-.06-2.42h1.23l.05,1.52h.06c.35-1.04,1.2-1.7,2.14-1.7.16,0,.27.02.4.05v1.33c-.14-.03-.29-.05-.48-.05-.99,0-1.7.75-1.89,1.81-.03.19-.06.42-.06.66v4.13h-1.39v-5.33Z" style="fill: #1d1d1b;"/>
        <path d="M232.12,256.09l-.11-.98h-.05c-.43.61-1.26,1.15-2.37,1.15-1.57,0-2.37-1.1-2.37-2.23,0-1.87,1.67-2.9,4.66-2.88v-.16c0-.64-.18-1.79-1.76-1.79-.72,0-1.47.22-2.02.58l-.32-.93c.64-.42,1.57-.69,2.54-.69,2.37,0,2.95,1.62,2.95,3.17v2.9c0,.67.03,1.33.13,1.86h-1.28ZM231.91,252.14c-1.54-.03-3.28.24-3.28,1.74,0,.91.61,1.34,1.33,1.34,1.01,0,1.65-.64,1.87-1.3.05-.14.08-.3.08-.45v-1.34Z" style="fill: #1d1d1b;"/>
        <path d="M235.35,254.65c.42.27,1.15.56,1.86.56,1.02,0,1.5-.51,1.5-1.15,0-.67-.4-1.04-1.44-1.42-1.39-.5-2.05-1.26-2.05-2.19,0-1.25,1.01-2.27,2.67-2.27.78,0,1.47.22,1.9.48l-.35,1.02c-.3-.19-.86-.45-1.58-.45-.83,0-1.3.48-1.3,1.06,0,.64.46.93,1.47,1.31,1.34.51,2.03,1.18,2.03,2.34,0,1.36-1.06,2.32-2.9,2.32-.85,0-1.63-.21-2.18-.53l.35-1.07Z" style="fill: #1d1d1b;"/>
        <path d="M243.57,246.12v2.23h2.02v1.07h-2.02v4.18c0,.96.27,1.5,1.06,1.5.37,0,.64-.05.82-.1l.06,1.06c-.27.11-.7.19-1.25.19-.66,0-1.18-.21-1.52-.59-.4-.42-.54-1.1-.54-2.02v-4.23h-1.2v-1.07h1.2v-1.86l1.38-.37Z" style="fill: #1d1d1b;"/>
        <path d="M247.17,250.76c0-.91-.02-1.7-.06-2.42h1.23l.05,1.52h.06c.35-1.04,1.2-1.7,2.14-1.7.16,0,.27.02.4.05v1.33c-.14-.03-.29-.05-.48-.05-.99,0-1.7.75-1.89,1.81-.03.19-.06.42-.06.66v4.13h-1.39v-5.33Z" style="fill: #1d1d1b;"/>
        <path d="M258.88,253.98c0,.8.02,1.5.06,2.11h-1.25l-.08-1.26h-.03c-.37.62-1.18,1.44-2.56,1.44-1.22,0-2.67-.67-2.67-3.39v-4.53h1.41v4.29c0,1.47.45,2.47,1.73,2.47.94,0,1.6-.66,1.86-1.28.08-.21.13-.46.13-.72v-4.75h1.41v5.63Z" style="fill: #1d1d1b;"/>
        <path d="M262.61,251.9h.03c.19-.27.46-.61.69-.88l2.27-2.67h1.7l-2.99,3.19,3.41,4.56h-1.71l-2.67-3.71-.72.8v2.91h-1.39v-11.36h1.39v7.17Z" style="fill: #1d1d1b;"/>
        <path d="M270.42,246.12v2.23h2.02v1.07h-2.02v4.18c0,.96.27,1.5,1.06,1.5.37,0,.64-.05.82-.1l.06,1.06c-.27.11-.7.19-1.25.19-.66,0-1.18-.21-1.52-.59-.4-.42-.54-1.1-.54-2.02v-4.23h-1.2v-1.07h1.2v-1.86l1.38-.37Z" style="fill: #1d1d1b;"/>
        <path d="M280.5,253.98c0,.8.02,1.5.06,2.11h-1.25l-.08-1.26h-.03c-.37.62-1.18,1.44-2.56,1.44-1.22,0-2.67-.67-2.67-3.39v-4.53h1.41v4.29c0,1.47.45,2.47,1.73,2.47.94,0,1.6-.66,1.86-1.28.08-.21.13-.46.13-.72v-4.75h1.41v5.63Z" style="fill: #1d1d1b;"/>
        <path d="M282.83,250.76c0-.91-.02-1.7-.06-2.42h1.23l.05,1.52h.06c.35-1.04,1.2-1.7,2.14-1.7.16,0,.27.02.4.05v1.33c-.14-.03-.29-.05-.48-.05-.99,0-1.7.75-1.89,1.81-.03.19-.06.42-.06.66v4.13h-1.39v-5.33Z" style="fill: #1d1d1b;"/>
        <path d="M288.69,252.47c.03,1.9,1.25,2.69,2.66,2.69,1.01,0,1.62-.18,2.14-.4l.24,1.01c-.5.22-1.34.48-2.58.48-2.38,0-3.81-1.57-3.81-3.91s1.38-4.18,3.63-4.18c2.53,0,3.2,2.23,3.2,3.65,0,.29-.03.51-.05.66h-5.44ZM292.82,251.46c.02-.9-.37-2.29-1.95-2.29-1.42,0-2.05,1.31-2.16,2.29h4.11Z" style="fill: #1d1d1b;"/>
        <path d="M295.92,250.44c0-.8-.02-1.46-.06-2.1h1.25l.08,1.28h.03c.38-.74,1.28-1.46,2.56-1.46,1.07,0,2.74.64,2.74,3.3v4.63h-1.41v-4.47c0-1.25-.46-2.29-1.79-2.29-.93,0-1.65.66-1.89,1.44-.06.18-.1.42-.1.66v4.66h-1.41v-5.65Z" style="fill: #1d1d1b;"/>
      </g>
    </g>
    <g id="einkommen">
      <path d="M189.75,95.22c-1.88-2.5-3.95-4.9-6.22-7.18-26.48-26.49-69.42-26.5-95.91-.02-26.49,26.48-26.5,69.42-.02,95.91,2.29,2.29,4.7,4.36,7.21,6.25,24.15,18.2,57.68,18.14,81.76-.2,2.41-1.84,4.74-3.84,6.94-6.04,2.11-2.11,4.03-4.33,5.8-6.63,18.59-24.11,18.74-57.85.44-82.11Z" style="fill: #bdbdbd;"/>
      <g>
        <path d="M99.03,132.73h-4.19v3.89h4.67v1.17h-6.07v-10.79h5.83v1.17h-4.43v3.41h4.19v1.15Z" style="fill: #1d1d1b;"/>
        <path d="M102.84,127.86c.02.48-.34.86-.9.86-.5,0-.85-.38-.85-.86s.37-.88.88-.88.86.38.86.88ZM101.27,137.78v-7.75h1.41v7.75h-1.41Z" style="fill: #1d1d1b;"/>
        <path d="M105.01,132.13c0-.8-.02-1.46-.06-2.1h1.25l.08,1.28h.03c.38-.74,1.28-1.46,2.56-1.46,1.07,0,2.74.64,2.74,3.3v4.63h-1.41v-4.47c0-1.25-.46-2.29-1.79-2.29-.93,0-1.65.66-1.89,1.44-.06.18-.1.42-.1.66v4.66h-1.41v-5.65Z" style="fill: #1d1d1b;"/>
        <path d="M115.28,133.59h.03c.19-.27.46-.61.69-.88l2.27-2.67h1.7l-2.99,3.19,3.41,4.56h-1.71l-2.67-3.71-.72.8v2.91h-1.39v-11.36h1.39v7.17Z" style="fill: #1d1d1b;"/>
        <path d="M128.41,133.85c0,2.87-1.98,4.11-3.86,4.11-2.1,0-3.71-1.54-3.71-3.99,0-2.59,1.7-4.11,3.84-4.11s3.73,1.62,3.73,3.99ZM122.26,133.93c0,1.7.98,2.98,2.35,2.98s2.35-1.26,2.35-3.01c0-1.31-.66-2.98-2.32-2.98s-2.39,1.54-2.39,3.01Z" style="fill: #1d1d1b;"/>
        <path d="M130.18,132.13c0-.8-.02-1.46-.06-2.1h1.23l.06,1.25h.05c.43-.74,1.15-1.42,2.43-1.42,1.06,0,1.86.64,2.19,1.55h.03c.24-.43.54-.77.86-1.01.46-.35.98-.54,1.71-.54,1.02,0,2.54.67,2.54,3.36v4.56h-1.38v-4.39c0-1.49-.54-2.38-1.68-2.38-.8,0-1.42.59-1.67,1.28-.06.19-.11.45-.11.7v4.79h-1.38v-4.64c0-1.23-.54-2.13-1.62-2.13-.88,0-1.52.7-1.74,1.41-.08.21-.11.45-.11.69v4.67h-1.38v-5.65Z" style="fill: #1d1d1b;"/>
        <path d="M143.52,132.13c0-.8-.02-1.46-.06-2.1h1.23l.06,1.25h.05c.43-.74,1.15-1.42,2.43-1.42,1.06,0,1.86.64,2.19,1.55h.03c.24-.43.54-.77.86-1.01.46-.35.98-.54,1.71-.54,1.02,0,2.54.67,2.54,3.36v4.56h-1.38v-4.39c0-1.49-.54-2.38-1.68-2.38-.8,0-1.42.59-1.67,1.28-.06.19-.11.45-.11.7v4.79h-1.38v-4.64c0-1.23-.54-2.13-1.62-2.13-.88,0-1.52.7-1.74,1.41-.08.21-.11.45-.11.69v4.67h-1.38v-5.65Z" style="fill: #1d1d1b;"/>
        <path d="M157.65,134.17c.03,1.9,1.25,2.69,2.66,2.69,1.01,0,1.62-.18,2.15-.4l.24,1.01c-.5.22-1.34.48-2.58.48-2.39,0-3.81-1.57-3.81-3.91s1.38-4.18,3.63-4.18c2.53,0,3.2,2.23,3.2,3.65,0,.29-.03.51-.05.66h-5.44ZM161.78,133.16c.02-.9-.37-2.29-1.95-2.29-1.42,0-2.05,1.31-2.16,2.29h4.11Z" style="fill: #1d1d1b;"/>
        <path d="M164.88,132.13c0-.8-.02-1.46-.06-2.1h1.25l.08,1.28h.03c.38-.74,1.28-1.46,2.56-1.46,1.07,0,2.74.64,2.74,3.3v4.63h-1.41v-4.47c0-1.25-.46-2.29-1.79-2.29-.93,0-1.65.66-1.89,1.44-.06.18-.1.42-.1.66v4.66h-1.41v-5.65Z" style="fill: #1d1d1b;"/>
      </g>
    </g>
    <g id="schnittflaechen">
      <path d="M202.01,190.19c24.33,18.87,58.54,18.89,82.9.06-24.33-18.87-58.54-18.89-82.9-.06Z" style="fill: #d2d5cb;"/>
      <path d="M176.57,190c-24.15-18.2-57.68-18.14-81.76.2,24.15,18.2,57.68,18.14,81.76-.2Z" style="fill: rgb(247, 227, 196);;"/>
      <path d="M189.49,202.77c-18.59,24.32-18.51,58.31.24,82.55,18.59-24.32,18.51-58.31-.24-82.55Z" style="fill: #e9dfbe;"/>
      <path d="M189.31,177.33c18.59-24.11,18.74-57.85.44-82.11-18.59,24.11-18.74,57.85-.44,82.11Z" style="fill: #f0d1c7;"/>
    </g>
  </g>
</svg>