<?xml version="1.0" encoding="UTF-8"?>
<svg xmlns="http://www.w3.org/2000/svg" version="1.1" viewBox="0 0 379.23 379.28">
  <g>
    <g id="pfeile">
      <polygon points="185.95 95.22 176.54 48.05 170.01 48.1 179.53 38.37 189.05 28.64 198.72 38.22 208.39 47.8 202.09 47.85 193.41 95.16 185.95 95.22" style="fill: #f0d1c7;"/>
      <polygon points="192.45 284.29 201.86 331.45 208.39 331.4 198.87 341.13 189.35 350.86 179.68 341.28 170.01 331.7 176.31 331.65 184.98 284.34 192.45 284.29" style="fill: #e9dfbe;"/>
      <polygon points="284.9 186.68 332.07 177.27 332.02 170.74 341.75 180.26 351.48 189.78 341.9 199.45 332.32 209.13 332.27 202.82 284.96 194.15 284.9 186.68" style="fill: #d2d5cb;"/>
      <polygon points="94.81 193.18 47.64 202.59 47.69 209.13 37.96 199.6 28.23 190.08 37.81 180.41 47.39 170.74 47.44 177.04 94.75 185.72 94.81 193.18" style="fill: #f7e4c5;"/>
    </g>
    <g id="zeit_verwendung">
      <path d="M189.49,202.77c-1.75-2.26-3.64-4.44-5.71-6.52-2.29-2.29-4.7-4.36-7.21-6.26-24.15-18.2-57.68-18.14-81.76.2-2.41,1.84-4.74,3.84-6.94,6.04-26.49,26.48-26.5,69.42-.02,95.91,26.48,26.49,69.42,26.5,95.91.02,2.18-2.17,4.15-4.47,5.97-6.85,18.59-24.32,18.51-58.31-.24-82.55Z" style="fill: #fcd799;"/>
      <g>
        <path d="M117.91,236.25l5.99-8.76v-.05h-5.47v-1.17h7.28v.85l-5.95,8.72v.05h6.03v1.17h-7.88v-.82Z" style="fill: #1d1d1b;"/>
        <path d="M128.04,233.45c.03,1.9,1.25,2.69,2.66,2.69,1.01,0,1.62-.18,2.15-.4l.24,1.01c-.5.22-1.34.48-2.58.48-2.39,0-3.81-1.57-3.81-3.91s1.38-4.18,3.63-4.18c2.53,0,3.2,2.23,3.2,3.65,0,.29-.03.51-.05.66h-5.44ZM132.17,232.44c.02-.9-.37-2.29-1.95-2.29-1.42,0-2.05,1.31-2.16,2.29h4.11Z" style="fill: #1d1d1b;"/>
        <path d="M136.84,227.14c.02.48-.34.86-.9.86-.5,0-.85-.38-.85-.86s.37-.88.88-.88.86.38.86.88ZM135.27,237.07v-7.75h1.41v7.75h-1.41Z" style="fill: #1d1d1b;"/>
        <path d="M140.71,227.09v2.23h2.02v1.07h-2.02v4.18c0,.96.27,1.5,1.06,1.5.37,0,.64-.05.82-.1l.06,1.06c-.27.11-.7.19-1.25.19-.66,0-1.18-.21-1.52-.59-.4-.42-.54-1.1-.54-2.02v-4.23h-1.2v-1.07h1.2v-1.86l1.38-.37Z" style="fill: #1d1d1b;"/>
        <path d="M147.49,232.22v1.04h-3.95v-1.04h3.95Z" style="fill: #1d1d1b;"/>
        <path d="M91.73,248.52l1.52,4.35c.26.7.46,1.34.62,1.98h.05c.18-.64.4-1.28.66-1.98l1.5-4.35h1.47l-3.04,7.75h-1.34l-2.95-7.75h1.5Z" style="fill: #1d1d1b;"/>
        <path d="M99.51,252.65c.03,1.9,1.25,2.69,2.66,2.69,1.01,0,1.62-.18,2.15-.4l.24,1.01c-.5.22-1.34.48-2.58.48-2.39,0-3.81-1.57-3.81-3.91s1.38-4.18,3.63-4.18c2.53,0,3.2,2.23,3.2,3.65,0,.29-.03.51-.05.66h-5.44ZM103.64,251.64c.02-.9-.37-2.29-1.95-2.29-1.42,0-2.05,1.31-2.16,2.29h4.11Z" style="fill: #1d1d1b;"/>
        <path d="M106.74,250.94c0-.91-.02-1.7-.06-2.42h1.23l.05,1.52h.06c.35-1.04,1.2-1.7,2.14-1.7.16,0,.27.02.4.05v1.33c-.14-.03-.29-.05-.48-.05-.99,0-1.7.75-1.89,1.81-.03.19-.06.42-.06.66v4.13h-1.39v-5.33Z" style="fill: #1d1d1b;"/>
        <path d="M112.93,248.52l1.02,3.94c.22.86.43,1.66.58,2.46h.05c.18-.78.43-1.62.69-2.45l1.26-3.95h1.18l1.2,3.87c.29.93.51,1.74.69,2.53h.05c.13-.78.34-1.6.59-2.51l1.1-3.89h1.39l-2.5,7.75h-1.28l-1.18-3.7c-.27-.86-.5-1.63-.69-2.55h-.03c-.19.93-.43,1.73-.7,2.56l-1.25,3.68h-1.28l-2.34-7.75h1.44Z" style="fill: #1d1d1b;"/>
        <path d="M124.77,252.65c.03,1.9,1.25,2.69,2.66,2.69,1.01,0,1.62-.18,2.15-.4l.24,1.01c-.5.22-1.34.48-2.58.48-2.39,0-3.81-1.57-3.81-3.91s1.38-4.18,3.63-4.18c2.53,0,3.2,2.23,3.2,3.65,0,.29-.03.51-.05.66h-5.44ZM128.9,251.64c.02-.9-.37-2.29-1.95-2.29-1.42,0-2.05,1.31-2.16,2.29h4.11Z" style="fill: #1d1d1b;"/>
        <path d="M132,250.62c0-.8-.02-1.46-.06-2.1h1.25l.08,1.28h.03c.38-.74,1.28-1.46,2.56-1.46,1.07,0,2.74.64,2.74,3.3v4.63h-1.41v-4.47c0-1.25-.46-2.29-1.79-2.29-.93,0-1.65.66-1.89,1.44-.06.18-.1.42-.1.66v4.66h-1.41v-5.65Z" style="fill: #1d1d1b;"/>
        <path d="M147.57,244.9v9.36c0,.69.02,1.47.06,2h-1.26l-.06-1.34h-.03c-.43.86-1.38,1.52-2.64,1.52-1.87,0-3.31-1.58-3.31-3.94-.02-2.58,1.58-4.16,3.47-4.16,1.18,0,1.98.56,2.34,1.18h.03v-4.63h1.41ZM146.17,251.67c0-.18-.02-.42-.06-.59-.21-.9-.98-1.63-2.03-1.63-1.46,0-2.32,1.28-2.32,2.99,0,1.57.77,2.87,2.29,2.87.94,0,1.81-.62,2.06-1.68.05-.19.06-.38.06-.61v-1.34Z" style="fill: #1d1d1b;"/>
        <path d="M156.39,254.15c0,.8.02,1.5.06,2.11h-1.25l-.08-1.26h-.03c-.37.62-1.18,1.44-2.56,1.44-1.22,0-2.67-.67-2.67-3.39v-4.53h1.41v4.29c0,1.47.45,2.47,1.73,2.47.94,0,1.6-.66,1.86-1.28.08-.21.13-.46.13-.72v-4.75h1.41v5.63Z" style="fill: #1d1d1b;"/>
        <path d="M158.72,250.62c0-.8-.02-1.46-.06-2.1h1.25l.08,1.28h.03c.38-.74,1.28-1.46,2.56-1.46,1.07,0,2.74.64,2.74,3.3v4.63h-1.41v-4.47c0-1.25-.46-2.29-1.79-2.29-.93,0-1.65.66-1.89,1.44-.06.18-.1.42-.1.66v4.66h-1.41v-5.65Z" style="fill: #1d1d1b;"/>
        <path d="M174.28,248.52c-.03.56-.06,1.18-.06,2.13v4.5c0,1.78-.35,2.87-1.1,3.54-.75.7-1.84.93-2.82.93s-1.95-.22-2.58-.64l.35-1.07c.51.32,1.31.61,2.27.61,1.44,0,2.5-.75,2.5-2.71v-.86h-.03c-.43.72-1.26,1.3-2.46,1.3-1.92,0-3.3-1.63-3.3-3.78,0-2.62,1.71-4.11,3.49-4.11,1.34,0,2.08.7,2.42,1.34h.03l.06-1.17h1.23ZM172.82,251.58c0-.24-.02-.45-.08-.64-.26-.82-.94-1.49-1.97-1.49-1.34,0-2.31,1.14-2.31,2.93,0,1.52.77,2.79,2.29,2.79.86,0,1.65-.54,1.95-1.44.08-.24.11-.51.11-.75v-1.39Z" style="fill: #1d1d1b;"/>
      </g>
    </g>
    <g id="notwendige_ausgaben">
      <path d="M291.46,88.61c-26.48-26.49-69.42-26.5-95.91-.02-2.11,2.11-4.03,4.33-5.8,6.63-18.59,24.11-18.74,57.85-.44,82.11,1.88,2.5,3.95,4.9,6.22,7.18,2.06,2.06,4.23,3.94,6.48,5.68,24.33,18.87,58.54,18.89,82.9.06,2.27-1.75,4.46-3.65,6.54-5.73,26.49-26.48,26.5-69.42.02-95.91Z" style="fill: #f0ae9f;"/>
      <g>
        <path d="M208.42,130.04v-10.79h1.52l3.46,5.46c.8,1.26,1.42,2.4,1.94,3.51l.03-.02c-.13-1.44-.16-2.75-.16-4.43v-4.51h1.31v10.79h-1.41l-3.43-5.47c-.75-1.2-1.47-2.43-2.02-3.6l-.05.02c.08,1.36.11,2.66.11,4.45v4.61h-1.31Z" style="fill: #1d1d1b;"/>
        <path d="M225.91,126.1c0,2.87-1.98,4.11-3.86,4.11-2.1,0-3.71-1.54-3.71-3.99,0-2.59,1.7-4.11,3.84-4.11s3.73,1.62,3.73,3.99ZM219.76,126.18c0,1.7.98,2.98,2.35,2.98s2.35-1.26,2.35-3.01c0-1.31-.66-2.98-2.32-2.98s-2.39,1.54-2.39,3.01Z" style="fill: #1d1d1b;"/>
        <path d="M229.38,120.07v2.23h2.02v1.07h-2.02v4.18c0,.96.27,1.5,1.06,1.5.37,0,.64-.05.82-.1l.06,1.06c-.27.11-.7.19-1.25.19-.66,0-1.18-.21-1.52-.59-.4-.42-.54-1.1-.54-2.02v-4.23h-1.2v-1.07h1.2v-1.86l1.38-.37Z" style="fill: #1d1d1b;"/>
        <path d="M233.68,122.29l1.02,3.94c.22.86.43,1.66.58,2.46h.05c.18-.78.43-1.62.69-2.45l1.26-3.95h1.18l1.2,3.87c.29.93.51,1.74.69,2.53h.05c.13-.78.34-1.6.59-2.51l1.1-3.89h1.39l-2.5,7.75h-1.28l-1.18-3.7c-.27-.86-.5-1.63-.69-2.55h-.03c-.19.93-.43,1.73-.7,2.56l-1.25,3.68h-1.28l-2.34-7.75h1.44Z" style="fill: #1d1d1b;"/>
        <path d="M245.52,126.42c.03,1.9,1.25,2.69,2.66,2.69,1.01,0,1.62-.18,2.15-.4l.24,1.01c-.5.22-1.34.48-2.58.48-2.39,0-3.81-1.57-3.81-3.91s1.38-4.18,3.63-4.18c2.53,0,3.2,2.23,3.2,3.65,0,.29-.03.51-.05.66h-5.44ZM249.65,125.41c.02-.9-.37-2.29-1.95-2.29-1.42,0-2.05,1.31-2.16,2.29h4.11Z" style="fill: #1d1d1b;"/>
        <path d="M252.75,124.39c0-.8-.02-1.46-.06-2.1h1.25l.08,1.28h.03c.38-.74,1.28-1.46,2.56-1.46,1.07,0,2.74.64,2.74,3.3v4.63h-1.41v-4.47c0-1.25-.46-2.29-1.79-2.29-.93,0-1.65.66-1.89,1.44-.06.18-.1.42-.1.66v4.66h-1.41v-5.65Z" style="fill: #1d1d1b;"/>
        <path d="M268.32,118.68v9.36c0,.69.02,1.47.06,2h-1.26l-.06-1.34h-.03c-.43.86-1.38,1.52-2.64,1.52-1.87,0-3.31-1.58-3.31-3.94-.02-2.58,1.58-4.16,3.47-4.16,1.18,0,1.98.56,2.34,1.18h.03v-4.63h1.41ZM266.92,125.45c0-.18-.02-.42-.06-.59-.21-.9-.98-1.63-2.03-1.63-1.46,0-2.32,1.28-2.32,2.99,0,1.57.77,2.87,2.29,2.87.94,0,1.81-.62,2.06-1.68.05-.19.06-.38.06-.61v-1.34Z" style="fill: #1d1d1b;"/>
        <path d="M272.23,120.12c.02.48-.34.86-.9.86-.5,0-.85-.38-.85-.86s.37-.88.88-.88.86.38.86.88ZM270.66,130.04v-7.75h1.41v7.75h-1.41Z" style="fill: #1d1d1b;"/>
        <path d="M281.08,122.29c-.03.56-.06,1.18-.06,2.13v4.5c0,1.78-.35,2.87-1.1,3.54-.75.7-1.84.93-2.82.93s-1.95-.22-2.58-.64l.35-1.07c.51.32,1.31.61,2.27.61,1.44,0,2.5-.75,2.5-2.71v-.86h-.03c-.43.72-1.26,1.3-2.46,1.3-1.92,0-3.3-1.63-3.3-3.78,0-2.62,1.71-4.11,3.49-4.11,1.34,0,2.08.7,2.42,1.34h.03l.06-1.17h1.23ZM279.62,125.35c0-.24-.02-.45-.08-.64-.26-.82-.94-1.49-1.97-1.49-1.34,0-2.31,1.14-2.31,2.93,0,1.52.77,2.79,2.29,2.79.86,0,1.65-.54,1.95-1.44.08-.24.11-.51.11-.75v-1.39Z" style="fill: #1d1d1b;"/>
        <path d="M284.13,126.42c.03,1.9,1.25,2.69,2.66,2.69,1.01,0,1.62-.18,2.15-.4l.24,1.01c-.5.22-1.34.48-2.58.48-2.39,0-3.81-1.57-3.81-3.91s1.38-4.18,3.63-4.18c2.53,0,3.2,2.23,3.2,3.65,0,.29-.03.51-.05.66h-5.44ZM288.26,125.41c.02-.9-.37-2.29-1.95-2.29-1.42,0-2.05,1.31-2.16,2.29h4.11Z" style="fill: #1d1d1b;"/>
        <path d="M217.95,145.85l-1.12,3.39h-1.44l3.67-10.79h1.68l3.68,10.79h-1.49l-1.15-3.39h-3.83ZM221.49,144.76l-1.06-3.1c-.24-.7-.4-1.34-.56-1.97h-.03c-.16.64-.34,1.3-.54,1.95l-1.06,3.12h3.25Z" style="fill: #1d1d1b;"/>
        <path d="M232.24,147.13c0,.8.02,1.5.06,2.11h-1.25l-.08-1.26h-.03c-.37.62-1.18,1.44-2.56,1.44-1.22,0-2.67-.67-2.67-3.39v-4.53h1.41v4.29c0,1.47.45,2.47,1.73,2.47.94,0,1.6-.66,1.86-1.28.08-.21.13-.46.13-.72v-4.75h1.41v5.63Z" style="fill: #1d1d1b;"/>
        <path d="M234.39,147.8c.42.27,1.15.56,1.86.56,1.02,0,1.5-.51,1.5-1.15,0-.67-.4-1.04-1.44-1.42-1.39-.5-2.05-1.26-2.05-2.19,0-1.25,1.01-2.27,2.67-2.27.78,0,1.47.22,1.9.48l-.35,1.02c-.3-.19-.86-.45-1.58-.45-.83,0-1.3.48-1.3,1.06,0,.64.46.93,1.47,1.31,1.34.51,2.03,1.18,2.03,2.34,0,1.36-1.06,2.32-2.9,2.32-.85,0-1.63-.21-2.18-.53l.35-1.07Z" style="fill: #1d1d1b;"/>
        <path d="M247.59,141.49c-.03.56-.06,1.18-.06,2.13v4.5c0,1.78-.35,2.87-1.1,3.54-.75.7-1.84.93-2.82.93s-1.95-.22-2.58-.64l.35-1.07c.51.32,1.31.61,2.27.61,1.44,0,2.5-.75,2.5-2.71v-.86h-.03c-.43.72-1.26,1.3-2.46,1.3-1.92,0-3.3-1.63-3.3-3.78,0-2.62,1.71-4.11,3.49-4.11,1.34,0,2.08.7,2.42,1.34h.03l.06-1.17h1.23ZM246.13,144.55c0-.24-.02-.45-.08-.64-.26-.82-.94-1.49-1.97-1.49-1.34,0-2.31,1.14-2.31,2.93,0,1.52.77,2.79,2.29,2.79.86,0,1.65-.54,1.95-1.44.08-.24.11-.51.11-.75v-1.39Z" style="fill: #1d1d1b;"/>
        <path d="M254.15,149.24l-.11-.98h-.05c-.43.61-1.26,1.15-2.37,1.15-1.57,0-2.37-1.1-2.37-2.23,0-1.87,1.67-2.9,4.66-2.88v-.16c0-.64-.18-1.79-1.76-1.79-.72,0-1.47.22-2.02.58l-.32-.93c.64-.42,1.57-.69,2.54-.69,2.37,0,2.95,1.62,2.95,3.17v2.9c0,.67.03,1.33.13,1.86h-1.28ZM253.94,145.29c-1.54-.03-3.28.24-3.28,1.74,0,.91.61,1.34,1.33,1.34,1.01,0,1.65-.64,1.87-1.3.05-.14.08-.3.08-.45v-1.34Z" style="fill: #1d1d1b;"/>
        <path d="M257.51,149.24c.03-.53.06-1.31.06-2v-9.36h1.39v4.87h.03c.5-.86,1.39-1.42,2.64-1.42,1.92,0,3.28,1.6,3.27,3.95,0,2.77-1.74,4.15-3.47,4.15-1.12,0-2.02-.43-2.59-1.46h-.05l-.06,1.28h-1.22ZM258.96,146.13c0,.18.03.35.06.51.27.98,1.09,1.65,2.11,1.65,1.47,0,2.35-1.2,2.35-2.98,0-1.55-.8-2.88-2.3-2.88-.96,0-1.86.66-2.15,1.73-.03.16-.08.35-.08.58v1.39Z" style="fill: #1d1d1b;"/>
        <path d="M267.46,145.62c.03,1.9,1.25,2.69,2.66,2.69,1.01,0,1.62-.18,2.15-.4l.24,1.01c-.5.22-1.34.48-2.58.48-2.39,0-3.81-1.57-3.81-3.91s1.38-4.18,3.63-4.18c2.53,0,3.2,2.23,3.2,3.65,0,.29-.03.51-.05.66h-5.44ZM271.59,144.61c.02-.9-.37-2.29-1.95-2.29-1.42,0-2.05,1.31-2.16,2.29h4.11Z" style="fill: #1d1d1b;"/>
        <path d="M274.69,143.59c0-.8-.02-1.46-.06-2.1h1.25l.08,1.28h.03c.38-.74,1.28-1.46,2.56-1.46,1.07,0,2.74.64,2.74,3.3v4.63h-1.41v-4.47c0-1.25-.46-2.29-1.79-2.29-.93,0-1.65.66-1.89,1.44-.06.18-.1.42-.1.66v4.66h-1.41v-5.65Z" style="fill: #1d1d1b;"/>
      </g>
    </g>
    <g id="soziale_infrastrukturen">
      <path d="M291.38,195.94c-2.06-2.06-4.23-3.94-6.48-5.68-24.33-18.87-58.54-18.89-82.9-.06-2.27,1.75-4.46,3.65-6.54,5.73-2.18,2.17-4.15,4.47-5.97,6.85-18.59,24.32-18.51,58.31.24,82.55,1.75,2.26,3.64,4.44,5.71,6.52,26.48,26.49,69.42,26.5,95.91.02,26.49-26.48,26.5-69.42.02-95.91Z" style="fill: #a5cdc8;"/>
      <g>
        <path d="M227.75,235.19c.62.38,1.54.7,2.5.7,1.42,0,2.26-.75,2.26-1.84,0-1.01-.58-1.58-2.03-2.15-1.76-.62-2.85-1.54-2.85-3.06,0-1.68,1.39-2.93,3.49-2.93,1.1,0,1.9.26,2.38.53l-.38,1.14c-.35-.19-1.07-.51-2.05-.51-1.47,0-2.03.88-2.03,1.62,0,1.01.66,1.5,2.14,2.08,1.82.7,2.75,1.58,2.75,3.17,0,1.66-1.23,3.11-3.78,3.11-1.04,0-2.18-.3-2.75-.69l.35-1.17Z" style="fill: #1d1d1b;"/>
        <path d="M242.89,232.95c0,2.87-1.98,4.11-3.86,4.11-2.1,0-3.71-1.54-3.71-3.99,0-2.59,1.7-4.11,3.84-4.11s3.73,1.62,3.73,3.99ZM236.75,233.03c0,1.7.98,2.98,2.35,2.98s2.35-1.26,2.35-3.01c0-1.31-.66-2.98-2.32-2.98s-2.39,1.54-2.39,3.01Z" style="fill: #1d1d1b;"/>
        <path d="M243.67,236.07l3.51-4.56c.34-.42.66-.78,1.01-1.2v-.03h-4.19v-1.14h5.91l-.02.88-3.46,4.5c-.32.43-.64.82-.99,1.22v.03h4.53v1.12h-6.29v-.82Z" style="fill: #1d1d1b;"/>
        <path d="M252.97,226.97c.02.48-.34.86-.9.86-.5,0-.85-.38-.85-.86s.37-.88.88-.88.86.38.86.88ZM251.4,236.89v-7.75h1.41v7.75h-1.41Z" style="fill: #1d1d1b;"/>
        <path d="M259.43,236.89l-.11-.98h-.05c-.43.61-1.26,1.15-2.37,1.15-1.57,0-2.37-1.1-2.37-2.23,0-1.87,1.67-2.9,4.66-2.88v-.16c0-.64-.18-1.79-1.76-1.79-.72,0-1.47.22-2.02.58l-.32-.93c.64-.42,1.57-.69,2.54-.69,2.37,0,2.95,1.62,2.95,3.17v2.9c0,.67.03,1.33.13,1.86h-1.28ZM259.23,232.94c-1.54-.03-3.28.24-3.28,1.74,0,.91.61,1.34,1.33,1.34,1.01,0,1.65-.64,1.87-1.3.05-.14.08-.3.08-.45v-1.34Z" style="fill: #1d1d1b;"/>
        <path d="M262.86,225.53h1.41v11.36h-1.41v-11.36Z" style="fill: #1d1d1b;"/>
        <path d="M267.42,233.27c.03,1.9,1.25,2.69,2.66,2.69,1.01,0,1.62-.18,2.15-.4l.24,1.01c-.5.22-1.34.48-2.58.48-2.39,0-3.81-1.57-3.81-3.91s1.38-4.18,3.63-4.18c2.53,0,3.2,2.23,3.2,3.65,0,.29-.03.51-.05.66h-5.44ZM271.55,232.26c.02-.9-.37-2.29-1.95-2.29-1.42,0-2.05,1.31-2.16,2.29h4.11Z" style="fill: #1d1d1b;"/>
        <path d="M207.19,245.3v10.79h-1.39v-10.79h1.39Z" style="fill: #1d1d1b;"/>
        <path d="M209.74,250.44c0-.8-.02-1.46-.06-2.1h1.25l.08,1.28h.03c.38-.74,1.28-1.46,2.56-1.46,1.07,0,2.74.64,2.74,3.3v4.63h-1.41v-4.47c0-1.25-.46-2.29-1.79-2.29-.93,0-1.65.66-1.89,1.44-.06.18-.1.42-.1.66v4.66h-1.41v-5.65Z" style="fill: #1d1d1b;"/>
        <path d="M218.76,256.09v-6.67h-1.09v-1.07h1.09v-.37c0-1.09.24-2.08.9-2.71.53-.51,1.23-.72,1.89-.72.5,0,.93.11,1.2.22l-.19,1.09c-.21-.1-.5-.18-.9-.18-1.2,0-1.5,1.06-1.5,2.24v.42h1.87v1.07h-1.87v6.67h-1.39Z" style="fill: #1d1d1b;"/>
        <path d="M223.29,250.76c0-.91-.02-1.7-.06-2.42h1.23l.05,1.52h.06c.35-1.04,1.2-1.7,2.14-1.7.16,0,.27.02.4.05v1.33c-.14-.03-.29-.05-.48-.05-.99,0-1.7.75-1.89,1.81-.03.19-.06.42-.06.66v4.13h-1.39v-5.33Z" style="fill: #1d1d1b;"/>
        <path d="M232.73,256.09l-.11-.98h-.05c-.43.61-1.26,1.15-2.37,1.15-1.57,0-2.37-1.1-2.37-2.23,0-1.87,1.67-2.9,4.66-2.88v-.16c0-.64-.18-1.79-1.76-1.79-.72,0-1.47.22-2.02.58l-.32-.93c.64-.42,1.57-.69,2.54-.69,2.37,0,2.95,1.62,2.95,3.17v2.9c0,.67.03,1.33.13,1.86h-1.28ZM232.52,252.14c-1.54-.03-3.28.24-3.28,1.74,0,.91.61,1.34,1.33,1.34,1.01,0,1.65-.64,1.87-1.3.05-.14.08-.3.08-.45v-1.34Z" style="fill: #1d1d1b;"/>
        <path d="M235.96,254.65c.42.27,1.15.56,1.86.56,1.02,0,1.5-.51,1.5-1.15,0-.67-.4-1.04-1.44-1.42-1.39-.5-2.05-1.26-2.05-2.19,0-1.25,1.01-2.27,2.67-2.27.78,0,1.47.22,1.9.48l-.35,1.02c-.3-.19-.86-.45-1.58-.45-.83,0-1.3.48-1.3,1.06,0,.64.46.93,1.47,1.31,1.34.51,2.03,1.18,2.03,2.34,0,1.36-1.06,2.32-2.9,2.32-.85,0-1.63-.21-2.18-.53l.35-1.07Z" style="fill: #1d1d1b;"/>
        <path d="M244.19,246.12v2.23h2.02v1.07h-2.02v4.18c0,.96.27,1.5,1.06,1.5.37,0,.64-.05.82-.1l.06,1.06c-.27.11-.7.19-1.25.19-.66,0-1.18-.21-1.52-.59-.4-.42-.54-1.1-.54-2.02v-4.23h-1.2v-1.07h1.2v-1.86l1.38-.37Z" style="fill: #1d1d1b;"/>
        <path d="M254.27,253.98c0,.8.02,1.5.06,2.11h-1.25l-.08-1.26h-.03c-.37.62-1.18,1.44-2.56,1.44-1.22,0-2.67-.67-2.67-3.39v-4.53h1.41v4.29c0,1.47.45,2.47,1.73,2.47.94,0,1.6-.66,1.86-1.28.08-.21.13-.46.13-.72v-4.75h1.41v5.63Z" style="fill: #1d1d1b;"/>
        <path d="M257.99,251.9h.03c.19-.27.46-.61.69-.88l2.27-2.67h1.7l-2.99,3.19,3.41,4.56h-1.71l-2.67-3.71-.72.8v2.91h-1.39v-11.36h1.39v7.17Z" style="fill: #1d1d1b;"/>
        <path d="M265.8,246.12v2.23h2.02v1.07h-2.02v4.18c0,.96.27,1.5,1.06,1.5.37,0,.64-.05.82-.1l.06,1.06c-.27.11-.7.19-1.25.19-.66,0-1.18-.21-1.52-.59-.4-.42-.54-1.1-.54-2.02v-4.23h-1.2v-1.07h1.2v-1.86l1.38-.37Z" style="fill: #1d1d1b;"/>
        <path d="M275.88,253.98c0,.8.02,1.5.06,2.11h-1.25l-.08-1.26h-.03c-.37.62-1.18,1.44-2.56,1.44-1.22,0-2.67-.67-2.67-3.39v-4.53h1.41v4.29c0,1.47.45,2.47,1.73,2.47.94,0,1.6-.66,1.86-1.28.08-.21.13-.46.13-.72v-4.75h1.41v5.63Z" style="fill: #1d1d1b;"/>
        <path d="M278.22,250.76c0-.91-.02-1.7-.06-2.42h1.23l.05,1.52h.06c.35-1.04,1.2-1.7,2.14-1.7.16,0,.27.02.4.05v1.33c-.14-.03-.29-.05-.48-.05-.99,0-1.7.75-1.89,1.81-.03.19-.06.42-.06.66v4.13h-1.39v-5.33Z" style="fill: #1d1d1b;"/>
        <path d="M284.07,252.47c.03,1.9,1.25,2.69,2.66,2.69,1.01,0,1.62-.18,2.15-.4l.24,1.01c-.5.22-1.34.48-2.58.48-2.39,0-3.81-1.57-3.81-3.91s1.38-4.18,3.63-4.18c2.53,0,3.2,2.23,3.2,3.65,0,.29-.03.51-.05.66h-5.44ZM288.2,251.46c.02-.9-.37-2.29-1.95-2.29-1.42,0-2.05,1.31-2.16,2.29h4.11Z" style="fill: #1d1d1b;"/>
        <path d="M291.31,250.44c0-.8-.02-1.46-.06-2.1h1.25l.08,1.28h.03c.38-.74,1.28-1.46,2.56-1.46,1.07,0,2.74.64,2.74,3.3v4.63h-1.41v-4.47c0-1.25-.46-2.29-1.79-2.29-.93,0-1.65.66-1.89,1.44-.06.18-.1.42-.1.66v4.66h-1.41v-5.65Z" style="fill: #1d1d1b;"/>
      </g>
    </g>
    <g id="einkommen">
      <path d="M189.75,95.22c-1.88-2.5-3.95-4.9-6.22-7.18-26.48-26.49-69.42-26.5-95.91-.02-26.49,26.48-26.5,69.42-.02,95.91,2.29,2.29,4.7,4.36,7.21,6.25,24.15,18.2,57.68,18.14,81.76-.2,2.41-1.84,4.74-3.84,6.94-6.04,2.11-2.11,4.03-4.33,5.8-6.63,18.59-24.11,18.74-57.85.44-82.11Z" style="fill: #bdbdbd;"/>
      <g>
        <path d="M99.03,132.73h-4.19v3.89h4.67v1.17h-6.07v-10.79h5.83v1.17h-4.43v3.41h4.19v1.15Z" style="fill: #1d1d1b;"/>
        <path d="M102.84,127.86c.02.48-.34.86-.9.86-.5,0-.85-.38-.85-.86s.37-.88.88-.88.86.38.86.88ZM101.27,137.78v-7.75h1.41v7.75h-1.41Z" style="fill: #1d1d1b;"/>
        <path d="M105.01,132.13c0-.8-.02-1.46-.06-2.1h1.25l.08,1.28h.03c.38-.74,1.28-1.46,2.56-1.46,1.07,0,2.74.64,2.74,3.3v4.63h-1.41v-4.47c0-1.25-.46-2.29-1.79-2.29-.93,0-1.65.66-1.89,1.44-.06.18-.1.42-.1.66v4.66h-1.41v-5.65Z" style="fill: #1d1d1b;"/>
        <path d="M115.28,133.59h.03c.19-.27.46-.61.69-.88l2.27-2.67h1.7l-2.99,3.19,3.41,4.56h-1.71l-2.67-3.71-.72.8v2.91h-1.39v-11.36h1.39v7.17Z" style="fill: #1d1d1b;"/>
        <path d="M128.41,133.85c0,2.87-1.98,4.11-3.86,4.11-2.1,0-3.71-1.54-3.71-3.99,0-2.59,1.7-4.11,3.84-4.11s3.73,1.62,3.73,3.99ZM122.26,133.93c0,1.7.98,2.98,2.35,2.98s2.35-1.26,2.35-3.01c0-1.31-.66-2.98-2.32-2.98s-2.39,1.54-2.39,3.01Z" style="fill: #1d1d1b;"/>
        <path d="M130.18,132.13c0-.8-.02-1.46-.06-2.1h1.23l.06,1.25h.05c.43-.74,1.15-1.42,2.43-1.42,1.06,0,1.86.64,2.19,1.55h.03c.24-.43.54-.77.86-1.01.46-.35.98-.54,1.71-.54,1.02,0,2.54.67,2.54,3.36v4.56h-1.38v-4.39c0-1.49-.54-2.38-1.68-2.38-.8,0-1.42.59-1.67,1.28-.06.19-.11.45-.11.7v4.79h-1.38v-4.64c0-1.23-.54-2.13-1.62-2.13-.88,0-1.52.7-1.74,1.41-.08.21-.11.45-.11.69v4.67h-1.38v-5.65Z" style="fill: #1d1d1b;"/>
        <path d="M143.52,132.13c0-.8-.02-1.46-.06-2.1h1.23l.06,1.25h.05c.43-.74,1.15-1.42,2.43-1.42,1.06,0,1.86.64,2.19,1.55h.03c.24-.43.54-.77.86-1.01.46-.35.98-.54,1.71-.54,1.02,0,2.54.67,2.54,3.36v4.56h-1.38v-4.39c0-1.49-.54-2.38-1.68-2.38-.8,0-1.42.59-1.67,1.28-.06.19-.11.45-.11.7v4.79h-1.38v-4.64c0-1.23-.54-2.13-1.62-2.13-.88,0-1.52.7-1.74,1.41-.08.21-.11.45-.11.69v4.67h-1.38v-5.65Z" style="fill: #1d1d1b;"/>
        <path d="M157.65,134.17c.03,1.9,1.25,2.69,2.66,2.69,1.01,0,1.62-.18,2.15-.4l.24,1.01c-.5.22-1.34.48-2.58.48-2.39,0-3.81-1.57-3.81-3.91s1.38-4.18,3.63-4.18c2.53,0,3.2,2.23,3.2,3.65,0,.29-.03.51-.05.66h-5.44ZM161.78,133.16c.02-.9-.37-2.29-1.95-2.29-1.42,0-2.05,1.31-2.16,2.29h4.11Z" style="fill: #1d1d1b;"/>
        <path d="M164.88,132.13c0-.8-.02-1.46-.06-2.1h1.25l.08,1.28h.03c.38-.74,1.28-1.46,2.56-1.46,1.07,0,2.74.64,2.74,3.3v4.63h-1.41v-4.47c0-1.25-.46-2.29-1.79-2.29-.93,0-1.65.66-1.89,1.44-.06.18-.1.42-.1.66v4.66h-1.41v-5.65Z" style="fill: #1d1d1b;"/>
      </g>
    </g>
    <g id="schnittflaechen">
      <path d="M202.01,190.19c24.33,18.87,58.54,18.89,82.9.06-24.33-18.87-58.54-18.89-82.9-.06Z" style="fill: #d2d5cb;"/>
      <path d="M176.57,190c-24.15-18.2-57.68-18.14-81.76.2,24.15,18.2,57.68,18.14,81.76-.2Z" style="fill: #f7e4c5;"/>
      <path d="M189.49,202.77c-18.59,24.32-18.51,58.31.24,82.55,18.59-24.32,18.51-58.31-.24-82.55Z" style="fill: #e9dfbe;"/>
      <path d="M189.31,177.33c18.59-24.11,18.74-57.85.44-82.11-18.59,24.11-18.74,57.85-.44,82.11Z" style="fill: #eddcd7;"/>
    </g>
    <g id="zeit_und_infrastruktur">
      <rect x="112.01" y="351.73" width="154.96" height="27.56" style="fill: #e9dfbe;"/>
      <g>
        <path d="M131.37,368.32l5.12-7.66v-.04h-4.69v-1.02h6.23v.74l-5.1,7.63v.04h5.17v1.02h-6.74v-.71Z" style="fill: #1d1d1b;"/>
        <path d="M140.04,365.86c.03,1.67,1.07,2.35,2.27,2.35.86,0,1.38-.15,1.84-.35l.21.88c-.42.2-1.15.42-2.21.42-2.04,0-3.26-1.37-3.26-3.42s1.18-3.66,3.11-3.66c2.16,0,2.74,1.95,2.74,3.19,0,.25-.03.45-.04.57h-4.66ZM143.57,364.98c.01-.78-.32-2-1.67-2-1.22,0-1.75,1.15-1.85,2h3.52Z" style="fill: #1d1d1b;"/>
        <path d="M147.57,360.34c.01.42-.29.76-.77.76-.42,0-.73-.34-.73-.76s.31-.77.75-.77.74.34.74.77ZM146.23,369.03v-6.78h1.21v6.78h-1.21Z" style="fill: #1d1d1b;"/>
        <path d="M150.89,360.3v1.95h1.73v.94h-1.73v3.66c0,.84.23,1.32.9,1.32.32,0,.55-.04.7-.08l.05.92c-.23.1-.6.17-1.07.17-.56,0-1.01-.18-1.3-.52-.34-.36-.47-.97-.47-1.76v-3.7h-1.03v-.94h1.03v-1.62l1.18-.32Z" style="fill: #1d1d1b;"/>
        <path d="M162.42,367.18c0,.7.01,1.32.05,1.85h-1.07l-.07-1.11h-.03c-.32.55-1.01,1.26-2.19,1.26-1.04,0-2.29-.59-2.29-2.97v-3.96h1.21v3.75c0,1.29.38,2.16,1.48,2.16.81,0,1.37-.57,1.59-1.12.07-.18.11-.41.11-.63v-4.16h1.21v4.93Z" style="fill: #1d1d1b;"/>
        <path d="M164.42,364.08c0-.7-.01-1.27-.06-1.83h1.07l.07,1.12h.03c.33-.64,1.1-1.27,2.19-1.27.92,0,2.34.56,2.34,2.89v4.05h-1.21v-3.91c0-1.09-.4-2-1.53-2-.79,0-1.41.57-1.62,1.26-.05.15-.08.36-.08.57v4.08h-1.21v-4.94Z" style="fill: #1d1d1b;"/>
        <path d="M177.75,359.08v8.19c0,.6.01,1.29.05,1.75h-1.08l-.05-1.18h-.03c-.37.76-1.18,1.33-2.26,1.33-1.6,0-2.84-1.39-2.84-3.45-.01-2.25,1.36-3.64,2.97-3.64,1.01,0,1.7.49,2,1.04h.03v-4.05h1.21ZM176.54,365.01c0-.15-.01-.36-.05-.52-.18-.78-.84-1.43-1.74-1.43-1.25,0-1.99,1.12-1.99,2.62,0,1.37.66,2.51,1.96,2.51.81,0,1.55-.55,1.77-1.47.04-.17.05-.34.05-.53v-1.18Z" style="fill: #1d1d1b;"/>
        <path d="M183.88,359.59v9.44h-1.19v-9.44h1.19Z" style="fill: #1d1d1b;"/>
        <path d="M186.06,364.08c0-.7-.01-1.27-.06-1.83h1.07l.07,1.12h.03c.33-.64,1.1-1.27,2.19-1.27.92,0,2.34.56,2.34,2.89v4.05h-1.21v-3.91c0-1.09-.4-2-1.53-2-.79,0-1.41.57-1.62,1.26-.05.15-.08.36-.08.57v4.08h-1.21v-4.94Z" style="fill: #1d1d1b;"/>
        <path d="M193.78,369.03v-5.84h-.93v-.94h.93v-.32c0-.95.21-1.82.77-2.37.45-.45,1.05-.63,1.62-.63.42,0,.79.1,1.03.2l-.16.95c-.18-.08-.42-.15-.77-.15-1.03,0-1.29.92-1.29,1.96v.36h1.6v.94h-1.6v5.84h-1.19Z" style="fill: #1d1d1b;"/>
        <path d="M197.66,364.36c0-.8-.01-1.48-.06-2.12h1.06l.04,1.33h.06c.3-.91,1.03-1.48,1.84-1.48.14,0,.23.01.34.04v1.16c-.12-.03-.25-.04-.41-.04-.85,0-1.45.66-1.62,1.58-.03.17-.05.36-.05.57v3.61h-1.19v-4.66Z" style="fill: #1d1d1b;"/>
        <path d="M205.74,369.03l-.1-.85h-.04c-.37.53-1.08,1.01-2.03,1.01-1.34,0-2.03-.97-2.03-1.95,0-1.64,1.43-2.54,3.99-2.52v-.14c0-.56-.15-1.57-1.51-1.57-.62,0-1.26.2-1.73.5l-.27-.81c.55-.36,1.34-.6,2.18-.6,2.03,0,2.52,1.41,2.52,2.77v2.54c0,.59.03,1.16.11,1.62h-1.1ZM205.56,365.57c-1.32-.03-2.81.21-2.81,1.53,0,.8.52,1.18,1.14,1.18.86,0,1.41-.56,1.6-1.13.04-.13.07-.27.07-.39v-1.18Z" style="fill: #1d1d1b;"/>
        <path d="M208.51,367.77c.36.24.99.49,1.59.49.88,0,1.29-.45,1.29-1.01,0-.59-.34-.91-1.23-1.25-1.19-.43-1.75-1.11-1.75-1.92,0-1.09.86-1.99,2.29-1.99.67,0,1.26.2,1.63.42l-.3.9c-.26-.17-.74-.39-1.36-.39-.71,0-1.11.42-1.11.92,0,.56.4.81,1.26,1.15,1.15.45,1.74,1.04,1.74,2.04,0,1.19-.9,2.03-2.48,2.03-.73,0-1.4-.18-1.86-.46l.3-.94Z" style="fill: #1d1d1b;"/>
        <path d="M215.55,360.3v1.95h1.73v.94h-1.73v3.66c0,.84.23,1.32.9,1.32.32,0,.55-.04.7-.08l.05.92c-.23.1-.6.17-1.07.17-.56,0-1.01-.18-1.3-.52-.34-.36-.47-.97-.47-1.76v-3.7h-1.03v-.94h1.03v-1.62l1.18-.32Z" style="fill: #1d1d1b;"/>
        <path d="M218.63,364.36c0-.8-.01-1.48-.06-2.12h1.06l.04,1.33h.06c.3-.91,1.03-1.48,1.84-1.48.14,0,.23.01.34.04v1.16c-.12-.03-.25-.04-.41-.04-.85,0-1.45.66-1.62,1.58-.03.17-.05.36-.05.57v3.61h-1.19v-4.66Z" style="fill: #1d1d1b;"/>
        <path d="M228.66,367.18c0,.7.01,1.32.05,1.85h-1.07l-.07-1.11h-.03c-.32.55-1.01,1.26-2.19,1.26-1.04,0-2.29-.59-2.29-2.97v-3.96h1.21v3.75c0,1.29.38,2.16,1.48,2.16.81,0,1.37-.57,1.59-1.12.07-.18.11-.41.11-.63v-4.16h1.21v4.93Z" style="fill: #1d1d1b;"/>
        <path d="M231.85,365.36h.03c.16-.24.4-.53.59-.77l1.95-2.34h1.45l-2.56,2.79,2.92,3.99h-1.47l-2.29-3.25-.62.7v2.55h-1.19v-9.95h1.19v6.28Z" style="fill: #1d1d1b;"/>
        <path d="M238.53,360.3v1.95h1.73v.94h-1.73v3.66c0,.84.23,1.32.9,1.32.32,0,.55-.04.7-.08l.05.92c-.23.1-.6.17-1.07.17-.56,0-1.01-.18-1.3-.52-.34-.36-.47-.97-.47-1.76v-3.7h-1.03v-.94h1.03v-1.62l1.18-.32Z" style="fill: #1d1d1b;"/>
        <path d="M247.16,367.18c0,.7.01,1.32.05,1.85h-1.07l-.07-1.11h-.03c-.32.55-1.01,1.26-2.19,1.26-1.04,0-2.29-.59-2.29-2.97v-3.96h1.21v3.75c0,1.29.38,2.16,1.48,2.16.81,0,1.37-.57,1.59-1.12.07-.18.11-.41.11-.63v-4.16h1.21v4.93Z" style="fill: #1d1d1b;"/>
        <path d="M249.16,364.36c0-.8-.01-1.48-.06-2.12h1.06l.04,1.33h.06c.3-.91,1.03-1.48,1.84-1.48.14,0,.23.01.34.04v1.16c-.12-.03-.25-.04-.41-.04-.85,0-1.45.66-1.62,1.58-.03.17-.05.36-.05.57v3.61h-1.19v-4.66Z" style="fill: #1d1d1b;"/>
      </g>
    </g>
    <g id="geld_sparen_durch_SI">
      <rect x="287.97" y="176.48" width="154.96" height="27.56" transform="translate(555.71 -175.2) rotate(90)" style="fill: #d2d5cb;"/>
      <g>
        <path d="M362.85,134.97c-.2-.55-.52-1.62-.52-2.9,0-1.43.36-2.61,1.25-3.53.79-.81,2.05-1.32,3.52-1.32,2.82.01,4.87,1.95,4.87,5.11,0,1.09-.24,1.95-.43,2.35l-.99-.29c.22-.5.41-1.13.41-2.09,0-2.3-1.43-3.8-3.8-3.8s-3.81,1.44-3.81,3.64c0,.8.11,1.34.25,1.62h2.82v-1.92h.98v3.11h-4.54Z" style="fill: #1d1d1b;"/>
        <path d="M365.59,137.55c-1.67.03-2.35,1.09-2.35,2.33,0,.88.15,1.41.35,1.88l-.88.21c-.2-.43-.42-1.18-.42-2.25,0-2.09,1.37-3.33,3.42-3.33s3.66,1.2,3.66,3.18c0,2.21-1.95,2.8-3.19,2.8-.25,0-.45-.03-.57-.04v-4.76ZM366.48,141.16c.78.01,2-.32,2-1.71,0-1.25-1.15-1.79-2-1.89v3.6Z" style="fill: #1d1d1b;"/>
        <path d="M372.37,143.87v1.23h-9.95v-1.23h9.95Z" style="fill: #1d1d1b;"/>
        <path d="M372.37,153.03h-8.19c-.6,0-1.29.01-1.75.06v-1.11l1.18-.06v-.03c-.76-.38-1.33-1.2-1.33-2.31,0-1.64,1.39-2.9,3.45-2.9,2.25-.01,3.64,1.39,3.64,3.04,0,1.04-.49,1.74-1.04,2.05v.03h4.05v1.23ZM366.45,151.8c.15,0,.36-.01.52-.06.78-.18,1.43-.85,1.43-1.78,0-1.27-1.12-2.03-2.62-2.03-1.37,0-2.51.67-2.51,2,0,.83.55,1.58,1.47,1.81.17.04.34.06.53.06h1.18Z" style="fill: #1d1d1b;"/>
        <path d="M363.69,157.87c-.24.36-.49,1.01-.49,1.62,0,.9.45,1.32,1.01,1.32s.91-.35,1.25-1.26c.43-1.22,1.11-1.79,1.92-1.79,1.09,0,1.99.88,1.99,2.34,0,.69-.2,1.29-.42,1.67l-.9-.31c.17-.27.39-.76.39-1.39,0-.73-.42-1.13-.92-1.13-.56,0-.81.41-1.15,1.29-.45,1.18-1.04,1.78-2.04,1.78-1.19,0-2.03-.92-2.03-2.54,0-.74.18-1.43.46-1.9l.94.31Z" style="fill: #1d1d1b;"/>
        <path d="M366.99,163.58c.87,0,1.57-.03,2.21-.06v1.11l-1.16.06v.03c.83.5,1.32,1.3,1.32,2.41,0,1.64-1.39,2.87-3.45,2.87-2.44,0-3.64-1.48-3.64-3.08,0-.9.39-1.68,1.07-2.09v-.03h-3.68v-1.22h7.34ZM365.19,164.8c-.18,0-.35.03-.5.06-.85.22-1.44.97-1.44,1.85,0,1.3,1.06,2.06,2.62,2.06,1.36,0,2.52-.71,2.52-2.02,0-.84-.6-1.62-1.53-1.86-.15-.04-.34-.08-.5-.08h-1.16Z" style="fill: #1d1d1b;"/>
        <path d="M362.43,175.3l.86-.1v-.04c-.53-.38-1.01-1.11-1.01-2.07,0-1.37.97-2.07,1.95-2.07,1.64,0,2.54,1.46,2.52,4.08h.14c.56,0,1.57-.15,1.57-1.54,0-.63-.2-1.29-.5-1.76l.81-.28c.36.56.6,1.37.6,2.23,0,2.07-1.41,2.58-2.77,2.58h-2.54c-.59,0-1.16.03-1.62.11v-1.12ZM365.89,175.12c.03-1.34-.21-2.87-1.53-2.87-.8,0-1.18.53-1.18,1.16,0,.88.56,1.44,1.13,1.64.13.04.27.07.39.07h1.18Z" style="fill: #1d1d1b;"/>
        <path d="M367.09,178.3c.8,0,1.49-.01,2.12-.06v1.08l-1.33.04v.06c.91.31,1.48,1.05,1.48,1.88,0,.14-.01.24-.04.35h-1.16c.03-.13.04-.25.04-.42,0-.87-.66-1.48-1.58-1.65-.17-.03-.37-.06-.58-.06h-3.61v-1.22h4.67Z" style="fill: #1d1d1b;"/>
        <path d="M365.59,183.42c-1.67.03-2.35,1.09-2.35,2.33,0,.88.15,1.41.35,1.88l-.88.21c-.2-.43-.42-1.18-.42-2.25,0-2.09,1.37-3.33,3.42-3.33s3.66,1.2,3.66,3.18c0,2.21-1.95,2.8-3.19,2.8-.25,0-.45-.03-.57-.04v-4.76ZM366.48,187.04c.78.01,2-.32,2-1.71,0-1.25-1.15-1.79-2-1.89v3.6Z" style="fill: #1d1d1b;"/>
        <path d="M367.37,189.75c.7,0,1.27-.01,1.83-.06v1.09l-1.12.07v.03c.64.34,1.27,1.12,1.27,2.24,0,.94-.56,2.4-2.88,2.4h-4.05v-1.23h3.91c1.09,0,2-.41,2-1.57,0-.81-.57-1.44-1.26-1.65-.15-.06-.36-.08-.57-.08h-4.08v-1.23h4.95Z" style="fill: #1d1d1b;"/>
        <path d="M372.37,206.34h-8.19c-.6,0-1.29.01-1.75.06v-1.11l1.18-.06v-.03c-.76-.38-1.33-1.2-1.33-2.31,0-1.64,1.39-2.9,3.45-2.9,2.25-.01,3.64,1.39,3.64,3.04,0,1.04-.49,1.74-1.04,2.05v.03h4.05v1.23ZM366.45,205.11c.15,0,.36-.01.52-.06.78-.18,1.43-.85,1.43-1.78,0-1.27-1.12-2.03-2.62-2.03-1.37,0-2.51.67-2.51,2,0,.83.55,1.58,1.47,1.81.17.04.34.06.53.06h1.18Z" style="fill: #1d1d1b;"/>
        <path d="M364.28,214.06c-.7,0-1.32.01-1.85.06v-1.09l1.11-.07v-.03c-.55-.32-1.26-1.04-1.26-2.24,0-1.06.59-2.34,2.97-2.34h3.96v1.23h-3.75c-1.29,0-2.16.39-2.16,1.51,0,.83.57,1.4,1.12,1.62.18.07.41.11.63.11h4.16v1.23h-4.93Z" style="fill: #1d1d1b;"/>
        <path d="M367.09,216.1c.8,0,1.49-.01,2.12-.06v1.08l-1.33.04v.06c.91.31,1.48,1.05,1.48,1.88,0,.14-.01.24-.04.35h-1.16c.03-.13.04-.25.04-.42,0-.87-.66-1.48-1.58-1.65-.17-.03-.37-.06-.58-.06h-3.61v-1.22h4.67Z" style="fill: #1d1d1b;"/>
        <path d="M362.68,225.37c-.17-.32-.39-1.04-.39-1.95,0-2.05,1.39-3.38,3.46-3.38s3.6,1.43,3.6,3.64c0,.73-.18,1.37-.35,1.71l-.95-.28c.17-.29.32-.76.32-1.43,0-1.55-1.15-2.4-2.56-2.4-1.57,0-2.54,1.01-2.54,2.35,0,.7.18,1.16.34,1.51l-.93.21Z" style="fill: #1d1d1b;"/>
        <path d="M372.37,226.81v1.23h-4.23v.03c.35.2.66.5.87.88.21.36.35.8.35,1.26,0,.91-.56,2.37-2.9,2.37h-4.04v-1.23h3.89c1.09,0,2.02-.41,2.02-1.57,0-.8-.56-1.43-1.23-1.65-.17-.07-.35-.08-.59-.08h-4.09v-1.23h9.95Z" style="fill: #1d1d1b;"/>
        <path d="M363.91,237.42c-.34.55-.62,1.34-.62,2.19,0,1.25.66,1.98,1.61,1.98.88,0,1.39-.5,1.88-1.78.55-1.54,1.34-2.49,2.67-2.49,1.47,0,2.56,1.22,2.56,3.05,0,.97-.22,1.67-.46,2.09l-.99-.34c.17-.31.45-.94.45-1.79,0-1.29-.77-1.78-1.42-1.78-.88,0-1.32.57-1.82,1.88-.62,1.6-1.39,2.41-2.77,2.41-1.46,0-2.72-1.08-2.72-3.31,0-.91.27-1.9.6-2.41l1.02.31Z" style="fill: #1d1d1b;"/>
        <path d="M371.87,245.71h-9.44v-1.22h9.44v1.22Z" style="fill: #1d1d1b;"/>
      </g>
    </g>
    <g id="zeit_ist_geld">
      <rect x="-63.7" y="176.27" width="154.96" height="27.56" transform="translate(203.83 176.27) rotate(90)" style="fill: #f0e6d7;"/>
      <g>
        <path d="M16.17,228.82l-7.66-5.24h-.04v4.79h-1.02v-6.37h.74l7.63,5.21h.04v-5.28h1.02v6.89h-.71Z" style="fill: #1d1d1b;"/>
        <path d="M13.71,219.96c1.67-.03,2.35-1.09,2.35-2.33,0-.88-.15-1.41-.35-1.88l.88-.21c.2.43.42,1.18.42,2.25,0,2.09-1.37,3.33-3.42,3.33s-3.66-1.2-3.66-3.18c0-2.21,1.95-2.8,3.19-2.8.25,0,.45.03.57.04v4.76ZM12.83,216.34c-.78-.01-2,.32-2,1.71,0,1.25,1.15,1.79,2,1.89v-3.6Z" style="fill: #1d1d1b;"/>
        <path d="M8.2,212.26c.42-.01.76.29.76.78,0,.43-.34.74-.76.74s-.77-.32-.77-.77.34-.76.77-.76ZM16.88,213.63h-6.78v-1.23h6.78v1.23Z" style="fill: #1d1d1b;"/>
        <path d="M8.15,208.87h1.95v-1.77h.94v1.77h3.66c.84,0,1.32-.24,1.32-.92,0-.32-.04-.56-.08-.71l.92-.06c.1.24.17.62.17,1.09,0,.57-.18,1.04-.52,1.33-.36.35-.97.48-1.76.48h-3.7v1.05h-.94v-1.05h-1.62l-.32-1.2Z" style="fill: #1d1d1b;"/>
        <path d="M8.2,201.38c.42-.01.76.29.76.78,0,.43-.34.74-.76.74s-.77-.32-.77-.77.34-.76.77-.76ZM16.88,202.75h-6.78v-1.23h6.78v1.23Z" style="fill: #1d1d1b;"/>
        <path d="M15.62,199.64c.24-.36.49-1.01.49-1.62,0-.9-.45-1.32-1.01-1.32-.59,0-.91.35-1.25,1.26-.43,1.22-1.11,1.79-1.92,1.79-1.09,0-1.99-.88-1.99-2.34,0-.69.2-1.29.42-1.67l.9.31c-.17.27-.39.76-.39,1.39,0,.73.42,1.13.92,1.13.56,0,.81-.41,1.15-1.29.45-1.18,1.04-1.78,2.04-1.78,1.19,0,2.03.92,2.03,2.54,0,.74-.18,1.43-.46,1.9l-.94-.31Z" style="fill: #1d1d1b;"/>
        <path d="M8.15,192.45h1.95v-1.77h.94v1.77h3.66c.84,0,1.32-.24,1.32-.92,0-.32-.04-.56-.08-.71l.92-.06c.1.24.17.62.17,1.09,0,.57-.18,1.04-.52,1.33-.36.35-.97.48-1.76.48h-3.7v1.05h-.94v-1.05h-1.62l-.32-1.2Z" style="fill: #1d1d1b;"/>
        <path d="M16.46,179.1c.2.55.52,1.62.52,2.9,0,1.43-.36,2.61-1.25,3.53-.78.81-2.05,1.32-3.52,1.32-2.82-.01-4.87-1.95-4.87-5.11,0-1.09.24-1.95.43-2.35l.99.29c-.22.5-.41,1.13-.41,2.09,0,2.3,1.43,3.8,3.8,3.8s3.81-1.44,3.81-3.64c0-.8-.11-1.34-.25-1.62h-2.82v1.92h-.98v-3.11h4.54Z" style="fill: #1d1d1b;"/>
        <path d="M13.71,176.53c1.67-.03,2.35-1.09,2.35-2.33,0-.88-.15-1.41-.35-1.88l.88-.21c.2.43.42,1.18.42,2.25,0,2.09-1.37,3.33-3.42,3.33s-3.66-1.2-3.66-3.18c0-2.21,1.95-2.8,3.19-2.8.25,0,.45.03.57.04v4.76ZM12.83,172.92c-.78-.01-2,.32-2,1.71,0,1.25,1.15,1.79,2,1.89v-3.6Z" style="fill: #1d1d1b;"/>
        <path d="M6.93,170.2v-1.23h9.95v1.23H6.93Z" style="fill: #1d1d1b;"/>
        <path d="M6.93,161.04h8.19c.6,0,1.29-.01,1.75-.06v1.11l-1.18.06v.03c.76.38,1.33,1.2,1.33,2.31,0,1.64-1.39,2.9-3.45,2.9-2.25.01-3.64-1.39-3.64-3.04,0-1.04.49-1.74,1.04-2.05v-.03h-4.05v-1.23ZM12.86,162.28c-.15,0-.36.01-.52.06-.78.18-1.43.85-1.43,1.78,0,1.27,1.12,2.03,2.62,2.03,1.37,0,2.51-.67,2.51-2,0-.83-.55-1.58-1.47-1.81-.17-.04-.34-.06-.53-.06h-1.18Z" style="fill: #1d1d1b;"/>
        <path d="M14.2,158.05l-.36.03c-.76.08-1.58-.17-2.42-.87-.74-.63-1.29-.98-1.92-.98-.71,0-1.19.45-1.2,1.33,0,.5.17,1.06.43,1.41l-.88.34c-.34-.46-.56-1.26-.56-2,0-1.61.99-2.34,2.06-2.34.95,0,1.64.53,2.44,1.2.73.62,1.34.84,2.06.8h.36s0,1.08,0,1.08ZM16.17,158.36c-.52,0-.88-.35-.88-.84s.36-.83.88-.83c.49,0,.87.32.87.84,0,.49-.38.83-.87.83Z" style="fill: #1d1d1b;"/>
      </g>
    </g>
    <g id="verfuegbares_einkommen">
      <rect x="111.72" width="154.96" height="27.56" style="fill: #f0d1c7;"/>
      <g>
        <path d="M130.75,8.72c.62-.13,1.5-.2,2.34-.2,1.3,0,2.14.24,2.73.77.48.42.74,1.06.74,1.79,0,1.25-.78,2.07-1.78,2.41v.04c.73.25,1.16.92,1.39,1.91.31,1.32.53,2.23.73,2.59h-1.26c-.15-.27-.36-1.08-.63-2.26-.28-1.3-.78-1.79-1.89-1.83h-1.15v4.09h-1.22v-9.31ZM131.97,13.02h1.25c1.3,0,2.13-.71,2.13-1.79,0-1.22-.88-1.75-2.17-1.77-.59,0-1.01.06-1.2.11v3.45Z" style="fill: #1d1d1b;"/>
        <path d="M138.98,14.87c.03,1.67,1.09,2.35,2.33,2.35.88,0,1.41-.15,1.88-.35l.21.88c-.43.2-1.18.42-2.25.42-2.09,0-3.33-1.37-3.33-3.42s1.2-3.66,3.18-3.66c2.21,0,2.8,1.95,2.8,3.19,0,.25-.03.45-.04.57h-4.76ZM142.59,13.98c.01-.78-.32-2-1.71-2-1.25,0-1.79,1.15-1.89,2h3.6Z" style="fill: #1d1d1b;"/>
        <path d="M145.14,16.77c.36.24,1.01.49,1.62.49.9,0,1.32-.45,1.32-1.01,0-.59-.35-.91-1.26-1.25-1.22-.43-1.79-1.11-1.79-1.92,0-1.09.88-1.99,2.34-1.99.69,0,1.29.2,1.67.42l-.31.9c-.27-.17-.76-.39-1.39-.39-.73,0-1.13.42-1.13.92,0,.56.41.81,1.29,1.15,1.18.45,1.78,1.04,1.78,2.04,0,1.19-.92,2.03-2.54,2.03-.74,0-1.43-.18-1.9-.46l.31-.94Z" style="fill: #1d1d1b;"/>
        <path d="M152.22,9.35c.01.42-.29.76-.78.76-.43,0-.74-.34-.74-.76s.32-.77.77-.77.76.34.76.77ZM150.85,18.03v-6.78h1.23v6.78h-1.23Z" style="fill: #1d1d1b;"/>
        <path d="M159.98,8.09v8.19c0,.6.01,1.29.06,1.75h-1.11l-.06-1.18h-.03c-.38.76-1.2,1.33-2.31,1.33-1.64,0-2.9-1.39-2.9-3.45-.01-2.25,1.39-3.64,3.04-3.64,1.04,0,1.74.49,2.05,1.04h.03v-4.05h1.23ZM158.75,14.01c0-.15-.01-.36-.06-.52-.18-.78-.85-1.43-1.78-1.43-1.27,0-2.03,1.12-2.03,2.62,0,1.37.67,2.51,2,2.51.83,0,1.58-.55,1.81-1.47.04-.17.06-.34.06-.53v-1.18Z" style="fill: #1d1d1b;"/>
        <path d="M167.7,16.18c0,.7.01,1.32.06,1.85h-1.09l-.07-1.11h-.03c-.32.55-1.04,1.26-2.24,1.26-1.06,0-2.34-.59-2.34-2.97v-3.96h1.23v3.75c0,1.29.39,2.16,1.51,2.16.83,0,1.4-.57,1.62-1.12.07-.18.11-.41.11-.63v-4.16h1.23v4.93Z" style="fill: #1d1d1b;"/>
        <path d="M173.49,18.03l-.1-.85h-.04c-.38.53-1.11,1.01-2.07,1.01-1.37,0-2.07-.97-2.07-1.95,0-1.64,1.46-2.54,4.08-2.52v-.14c0-.56-.15-1.57-1.54-1.57-.63,0-1.29.2-1.76.5l-.28-.81c.56-.36,1.37-.6,2.23-.6,2.07,0,2.58,1.41,2.58,2.77v2.54c0,.59.03,1.16.11,1.62h-1.12ZM173.31,14.57c-1.34-.03-2.87.21-2.87,1.53,0,.8.53,1.18,1.16,1.18.88,0,1.44-.56,1.64-1.13.04-.13.07-.27.07-.39v-1.18Z" style="fill: #1d1d1b;"/>
        <path d="M176.48,8.09h1.23v9.95h-1.23v-9.95Z" style="fill: #1d1d1b;"/>
        <path d="M180.47,14.87c.03,1.67,1.09,2.35,2.33,2.35.88,0,1.41-.15,1.88-.35l.21.88c-.43.2-1.18.42-2.25.42-2.09,0-3.33-1.37-3.33-3.42s1.2-3.66,3.18-3.66c2.21,0,2.8,1.95,2.8,3.19,0,.25-.03.45-.04.57h-4.76ZM184.09,13.98c.01-.78-.32-2-1.71-2-1.25,0-1.79,1.15-1.89,2h3.6Z" style="fill: #1d1d1b;"/>
        <path d="M188.18,9.35c.01.42-.29.76-.78.76-.43,0-.74-.34-.74-.76s.32-.77.77-.77.76.34.76.77ZM186.8,18.03v-6.78h1.23v6.78h-1.23Z" style="fill: #1d1d1b;"/>
        <path d="M190.08,13.09c0-.7-.01-1.27-.06-1.83h1.09l.07,1.12h.03c.34-.64,1.12-1.27,2.24-1.27.94,0,2.4.56,2.4,2.89v4.05h-1.23v-3.91c0-1.09-.41-2-1.57-2-.81,0-1.44.57-1.65,1.26-.06.15-.08.36-.08.57v4.08h-1.23v-4.94Z" style="fill: #1d1d1b;"/>
        <path d="M199.07,14.36h.03c.17-.24.41-.53.6-.77l1.99-2.34h1.48l-2.62,2.79,2.98,3.99h-1.5l-2.34-3.25-.63.7v2.55h-1.22v-9.95h1.22v6.28Z" style="fill: #1d1d1b;"/>
        <path d="M210.55,14.59c0,2.51-1.74,3.6-3.38,3.6-1.83,0-3.25-1.34-3.25-3.49,0-2.27,1.48-3.6,3.36-3.6s3.26,1.41,3.26,3.49ZM205.17,14.66c0,1.48.85,2.61,2.06,2.61s2.06-1.11,2.06-2.63c0-1.15-.57-2.61-2.03-2.61s-2.09,1.34-2.09,2.63Z" style="fill: #1d1d1b;"/>
        <path d="M212.1,13.09c0-.7-.01-1.27-.06-1.83h1.08l.06,1.09h.04c.38-.64,1.01-1.25,2.13-1.25.92,0,1.62.56,1.92,1.36h.03c.21-.38.48-.67.76-.88.41-.31.85-.48,1.5-.48.9,0,2.23.59,2.23,2.94v3.99h-1.2v-3.84c0-1.3-.48-2.09-1.47-2.09-.7,0-1.25.52-1.46,1.12-.06.17-.1.39-.1.62v4.19h-1.2v-4.06c0-1.08-.48-1.86-1.42-1.86-.77,0-1.33.62-1.53,1.23-.07.18-.1.39-.1.6v4.09h-1.2v-4.94Z" style="fill: #1d1d1b;"/>
        <path d="M223.78,13.09c0-.7-.01-1.27-.06-1.83h1.08l.06,1.09h.04c.38-.64,1.01-1.25,2.13-1.25.92,0,1.62.56,1.92,1.36h.03c.21-.38.48-.67.76-.88.41-.31.85-.48,1.5-.48.9,0,2.23.59,2.23,2.94v3.99h-1.2v-3.84c0-1.3-.48-2.09-1.47-2.09-.7,0-1.25.52-1.46,1.12-.06.17-.1.39-.1.62v4.19h-1.2v-4.06c0-1.08-.48-1.86-1.42-1.86-.77,0-1.33.62-1.53,1.23-.07.18-.1.39-.1.6v4.09h-1.2v-4.94Z" style="fill: #1d1d1b;"/>
        <path d="M236.14,14.87c.03,1.67,1.09,2.35,2.33,2.35.88,0,1.41-.15,1.88-.35l.21.88c-.43.2-1.18.42-2.25.42-2.09,0-3.33-1.37-3.33-3.42s1.2-3.66,3.18-3.66c2.21,0,2.8,1.95,2.8,3.19,0,.25-.03.45-.04.57h-4.76ZM239.75,13.98c.01-.78-.32-2-1.71-2-1.25,0-1.79,1.15-1.89,2h3.6Z" style="fill: #1d1d1b;"/>
        <path d="M242.47,13.09c0-.7-.01-1.27-.06-1.83h1.09l.07,1.12h.03c.34-.64,1.12-1.27,2.24-1.27.94,0,2.4.56,2.4,2.89v4.05h-1.23v-3.91c0-1.09-.41-2-1.57-2-.81,0-1.44.57-1.65,1.26-.06.15-.08.36-.08.57v4.08h-1.23v-4.94Z" style="fill: #1d1d1b;"/>
      </g>
    </g>
  </g>
</svg>