<?xml version="1.0" encoding="UTF-8"?>
<svg xmlns="http://www.w3.org/2000/svg" version="1.1" viewBox="0 0 578.14 132.17">
  <g>
    <g id="notwendigeausgaben">
      <g id="gesundheit" class="expenditure-info">
        <rect x="490.45" y="71.8" width="87.69" height="27.56" style="fill: #f5c7bc;"/>
        <g>
          <path d="M512.32,89.14c-.47.17-1.39.44-2.48.44-1.22,0-2.23-.31-3.02-1.07-.7-.67-1.13-1.75-1.13-3.01.01-2.41,1.67-4.17,4.38-4.17.94,0,1.67.2,2.02.37l-.25.85c-.43-.19-.97-.35-1.79-.35-1.97,0-3.25,1.22-3.25,3.25s1.23,3.26,3.12,3.26c.68,0,1.15-.1,1.39-.22v-2.41h-1.64v-.84h2.66v3.89Z" style="fill: #1d1d1b;"/>
          <path d="M514.53,86.79c.02,1.43.93,2.01,1.99,2.01.76,0,1.21-.13,1.61-.3l.18.76c-.37.17-1.01.36-1.93.36-1.79,0-2.85-1.18-2.85-2.93s1.03-3.13,2.72-3.13c1.89,0,2.4,1.67,2.4,2.73,0,.22-.02.38-.04.49h-4.08ZM517.63,86.04c.01-.67-.28-1.71-1.46-1.71-1.07,0-1.54.98-1.62,1.71h3.08Z" style="fill: #1d1d1b;"/>
          <path d="M519.81,88.42c.31.2.86.42,1.39.42.77,0,1.13-.38,1.13-.86,0-.5-.3-.78-1.08-1.07-1.04-.37-1.54-.95-1.54-1.64,0-.94.76-1.7,2-1.7.59,0,1.1.17,1.43.36l-.26.77c-.23-.14-.65-.34-1.19-.34-.62,0-.97.36-.97.79,0,.48.35.7,1.1.98,1.01.38,1.52.89,1.52,1.75,0,1.02-.79,1.74-2.17,1.74-.63,0-1.22-.16-1.63-.4l.26-.8Z" style="fill: #1d1d1b;"/>
          <path d="M529.57,87.92c0,.6.01,1.13.05,1.58h-.94l-.06-.95h-.02c-.28.47-.89,1.08-1.92,1.08-.91,0-2-.5-2-2.54v-3.39h1.06v3.21c0,1.1.34,1.85,1.29,1.85.71,0,1.2-.49,1.39-.96.06-.16.1-.35.1-.54v-3.56h1.06v4.22Z" style="fill: #1d1d1b;"/>
          <path d="M531.32,85.27c0-.6-.01-1.09-.05-1.57h.94l.06.96h.02c.29-.55.96-1.09,1.92-1.09.8,0,2.05.48,2.05,2.47v3.47h-1.06v-3.35c0-.94-.35-1.71-1.34-1.71-.7,0-1.24.49-1.42,1.08-.05.13-.07.31-.07.49v3.49h-1.06v-4.23Z" style="fill: #1d1d1b;"/>
          <path d="M542.99,80.99v7.02c0,.52.01,1.1.05,1.5h-.95l-.05-1.01h-.02c-.32.65-1.03,1.14-1.98,1.14-1.4,0-2.48-1.19-2.48-2.95-.01-1.93,1.19-3.12,2.6-3.12.89,0,1.49.42,1.75.89h.02v-3.47h1.06ZM541.94,86.06c0-.13-.01-.31-.05-.44-.16-.67-.73-1.22-1.52-1.22-1.09,0-1.74.96-1.74,2.24,0,1.18.58,2.15,1.72,2.15.71,0,1.35-.47,1.55-1.26.04-.14.05-.29.05-.46v-1.01Z" style="fill: #1d1d1b;"/>
          <path d="M544.75,80.99h1.06v3.62h.02c.17-.3.43-.56.76-.74.31-.18.68-.3,1.08-.3.78,0,2.03.48,2.03,2.48v3.45h-1.05v-3.33c0-.94-.35-1.73-1.34-1.73-.68,0-1.22.48-1.42,1.06-.06.14-.07.3-.07.5v3.5h-1.06v-8.52Z" style="fill: #1d1d1b;"/>
          <path d="M552,86.79c.02,1.43.94,2.01,1.99,2.01.76,0,1.21-.13,1.61-.3l.18.76c-.37.17-1.01.36-1.93.36-1.79,0-2.85-1.18-2.85-2.93s1.03-3.13,2.72-3.13c1.89,0,2.4,1.67,2.4,2.73,0,.22-.02.38-.04.49h-4.08ZM555.09,86.04c.01-.67-.28-1.71-1.46-1.71-1.07,0-1.54.98-1.62,1.71h3.08Z" style="fill: #1d1d1b;"/>
          <path d="M558.6,82.07c.01.36-.25.65-.67.65-.37,0-.64-.29-.64-.65s.28-.66.66-.66.65.29.65.66ZM557.42,89.5v-5.8h1.06v5.8h-1.06Z" style="fill: #1d1d1b;"/>
          <path d="M561.5,82.03v1.67h1.51v.8h-1.51v3.13c0,.72.2,1.13.79,1.13.28,0,.48-.04.61-.07l.05.79c-.21.08-.53.14-.94.14-.49,0-.89-.16-1.14-.44-.3-.31-.41-.83-.41-1.51v-3.17h-.9v-.8h.9v-1.39l1.03-.28Z" style="fill: #1d1d1b;"/>
        </g>
      </g>
      <g id="bildung" class="expenditure-info">
        <rect x="402.76" y="71.8" width="82.97" height="27.56" style="fill: #f5c7bc;"/>
        <g>
          <path d="M423.35,81.53c.46-.1,1.18-.17,1.91-.17,1.04,0,1.71.18,2.22.59.42.31.67.79.67,1.43,0,.78-.52,1.46-1.37,1.77v.02c.77.19,1.67.83,1.67,2.03,0,.7-.28,1.22-.68,1.62-.56.52-1.48.76-2.79.76-.72,0-1.27-.05-1.62-.1v-7.95ZM424.4,84.84h.95c1.1,0,1.75-.58,1.75-1.35,0-.95-.72-1.32-1.78-1.32-.48,0-.75.04-.92.07v2.6ZM424.4,88.71c.2.04.5.05.88.05,1.08,0,2.08-.4,2.08-1.57,0-1.1-.95-1.56-2.09-1.56h-.86v3.08Z" style="fill: #1d1d1b;"/>
          <path d="M430.99,82.07c.01.36-.25.65-.67.65-.37,0-.64-.29-.64-.65s.28-.66.66-.66.65.29.65.66ZM429.82,89.5v-5.8h1.06v5.8h-1.06Z" style="fill: #1d1d1b;"/>
          <path d="M432.63,80.99h1.06v8.52h-1.06v-8.52Z" style="fill: #1d1d1b;"/>
          <path d="M440.47,80.99v7.02c0,.52.01,1.1.05,1.5h-.95l-.05-1.01h-.02c-.32.65-1.03,1.14-1.98,1.14-1.4,0-2.48-1.19-2.48-2.95-.01-1.93,1.19-3.12,2.6-3.12.89,0,1.49.42,1.75.89h.02v-3.47h1.06ZM439.42,86.06c0-.13-.01-.31-.05-.44-.16-.67-.73-1.22-1.52-1.22-1.09,0-1.74.96-1.74,2.24,0,1.18.58,2.15,1.72,2.15.71,0,1.35-.47,1.55-1.26.04-.14.05-.29.05-.46v-1.01Z" style="fill: #1d1d1b;"/>
          <path d="M447.08,87.92c0,.6.01,1.13.05,1.58h-.94l-.06-.95h-.02c-.28.47-.89,1.08-1.92,1.08-.91,0-2-.5-2-2.54v-3.39h1.06v3.21c0,1.1.34,1.85,1.29,1.85.71,0,1.2-.49,1.39-.96.06-.16.1-.35.1-.54v-3.56h1.06v4.22Z" style="fill: #1d1d1b;"/>
          <path d="M448.84,85.27c0-.6-.01-1.09-.05-1.57h.94l.06.96h.02c.29-.55.96-1.09,1.92-1.09.8,0,2.05.48,2.05,2.47v3.47h-1.06v-3.35c0-.94-.35-1.71-1.34-1.71-.7,0-1.24.49-1.42,1.08-.05.13-.07.31-.07.49v3.49h-1.06v-4.23Z" style="fill: #1d1d1b;"/>
          <path d="M460.5,83.7c-.02.42-.05.89-.05,1.6v3.37c0,1.33-.26,2.15-.83,2.65-.56.53-1.38.7-2.11.7s-1.46-.17-1.93-.48l.26-.8c.38.24.98.46,1.7.46,1.08,0,1.87-.56,1.87-2.03v-.65h-.02c-.32.54-.95.97-1.85.97-1.44,0-2.47-1.22-2.47-2.83,0-1.97,1.28-3.08,2.62-3.08,1.01,0,1.56.53,1.81,1.01h.02l.05-.88h.92ZM459.41,85.99c0-.18-.01-.34-.06-.48-.19-.61-.71-1.12-1.48-1.12-1.01,0-1.73.85-1.73,2.19,0,1.14.58,2.09,1.72,2.09.65,0,1.24-.41,1.46-1.08.06-.18.08-.38.08-.56v-1.04Z" style="fill: #1d1d1b;"/>
        </g>
      </g>
      <g id="energie" class="expenditure-info">
        <rect x="526.59" y="38.99" width="51.23" height="27.56" style="fill: #f5c7bc;"/>
        <g>
          <path d="M538.68,52.9h-3.14v2.91h3.5v.88h-4.55v-8.08h4.37v.88h-3.32v2.55h3.14v.86Z" style="fill: #1d1d1b;"/>
          <path d="M540.36,52.46c0-.6-.01-1.09-.05-1.57h.94l.06.96h.02c.29-.55.96-1.09,1.92-1.09.8,0,2.05.48,2.05,2.47v3.47h-1.06v-3.35c0-.94-.35-1.71-1.34-1.71-.7,0-1.24.49-1.42,1.08-.05.13-.07.31-.07.49v3.49h-1.06v-4.23Z" style="fill: #1d1d1b;"/>
          <path d="M547.61,53.98c.02,1.43.94,2.01,1.99,2.01.76,0,1.21-.13,1.61-.3l.18.76c-.37.17-1.01.36-1.93.36-1.79,0-2.85-1.18-2.85-2.93s1.03-3.13,2.72-3.13c1.89,0,2.4,1.67,2.4,2.73,0,.22-.02.38-.04.49h-4.08ZM550.7,53.23c.01-.67-.28-1.71-1.46-1.71-1.07,0-1.54.98-1.62,1.71h3.08Z" style="fill: #1d1d1b;"/>
          <path d="M553.03,52.7c0-.68-.01-1.27-.05-1.81h.92l.04,1.14h.05c.26-.78.9-1.27,1.61-1.27.12,0,.2.01.3.04v1c-.11-.02-.22-.04-.36-.04-.74,0-1.27.56-1.42,1.36-.02.14-.05.31-.05.49v3.09h-1.04v-3.99Z" style="fill: #1d1d1b;"/>
          <path d="M561.86,50.89c-.02.42-.05.89-.05,1.6v3.37c0,1.33-.26,2.15-.83,2.65-.56.53-1.38.7-2.11.7s-1.46-.17-1.93-.48l.26-.8c.38.24.98.46,1.7.46,1.08,0,1.87-.56,1.87-2.03v-.65h-.02c-.32.54-.95.97-1.85.97-1.44,0-2.47-1.22-2.47-2.83,0-1.97,1.28-3.08,2.61-3.08,1.01,0,1.56.53,1.81,1.01h.02l.05-.88h.92ZM560.77,53.18c0-.18-.01-.34-.06-.48-.19-.61-.71-1.12-1.48-1.12-1.01,0-1.73.85-1.73,2.19,0,1.14.58,2.09,1.71,2.09.65,0,1.24-.41,1.46-1.08.06-.18.08-.38.08-.56v-1.04Z" style="fill: #1d1d1b;"/>
          <path d="M564.67,49.26c.01.36-.25.65-.67.65-.37,0-.64-.29-.64-.65s.28-.66.66-.66.65.29.65.66ZM563.5,56.69v-5.8h1.06v5.8h-1.06Z" style="fill: #1d1d1b;"/>
          <path d="M566.89,53.98c.02,1.43.94,2.01,1.99,2.01.75,0,1.21-.13,1.61-.3l.18.76c-.37.17-1.01.36-1.93.36-1.79,0-2.85-1.18-2.85-2.93s1.03-3.13,2.72-3.13c1.9,0,2.4,1.67,2.4,2.73,0,.22-.02.38-.04.49h-4.08ZM569.99,53.23c.01-.67-.28-1.71-1.46-1.71-1.07,0-1.54.98-1.62,1.71h3.08Z" style="fill: #1d1d1b;"/>
        </g>
      </g>
      <g id="wohnen" class="expenditure-info">
        <rect x="465.01" y="39.47" width="55.39" height="27.56" style="fill: #f5c7bc;"/>
        <g>
          <path d="M473.77,57.17l-2.05-8.08h1.1l.96,4.09c.24,1.01.46,2.01.6,2.79h.02c.13-.8.38-1.76.66-2.81l1.08-4.08h1.09l.98,4.1c.23.96.44,1.92.56,2.77h.02c.17-.89.4-1.79.65-2.79l1.07-4.08h1.07l-2.29,8.08h-1.09l-1.02-4.21c-.25-1.03-.42-1.82-.53-2.64h-.02c-.14.8-.32,1.6-.62,2.64l-1.15,4.21h-1.09Z" style="fill: #1d1d1b;"/>
          <path d="M487.42,54.22c0,2.15-1.49,3.08-2.89,3.08-1.57,0-2.78-1.15-2.78-2.99,0-1.94,1.27-3.08,2.88-3.08s2.79,1.21,2.79,2.99ZM482.81,54.28c0,1.27.73,2.23,1.76,2.23s1.76-.95,1.76-2.25c0-.98-.49-2.23-1.74-2.23s-1.79,1.15-1.79,2.25Z" style="fill: #1d1d1b;"/>
          <path d="M488.75,48.65h1.06v3.62h.02c.17-.3.43-.56.75-.74.31-.18.68-.3,1.08-.3.78,0,2.03.48,2.03,2.48v3.45h-1.06v-3.33c0-.94-.35-1.73-1.34-1.73-.68,0-1.22.48-1.42,1.06-.06.14-.07.3-.07.5v3.5h-1.06v-8.52Z" style="fill: #1d1d1b;"/>
          <path d="M495.41,52.93c0-.6-.01-1.09-.05-1.57h.94l.06.96h.02c.29-.55.96-1.09,1.92-1.09.8,0,2.05.48,2.05,2.47v3.47h-1.06v-3.35c0-.94-.35-1.71-1.34-1.71-.7,0-1.24.49-1.42,1.08-.05.13-.07.31-.07.49v3.49h-1.06v-4.23Z" style="fill: #1d1d1b;"/>
          <path d="M502.66,54.46c.02,1.43.94,2.01,1.99,2.01.75,0,1.21-.13,1.61-.3l.18.76c-.37.17-1.01.36-1.93.36-1.79,0-2.85-1.18-2.85-2.93s1.03-3.13,2.72-3.13c1.9,0,2.4,1.67,2.4,2.73,0,.22-.02.38-.04.49h-4.08ZM505.76,53.7c.01-.67-.28-1.71-1.46-1.71-1.07,0-1.54.98-1.62,1.71h3.08Z" style="fill: #1d1d1b;"/>
          <path d="M508.09,52.93c0-.6-.01-1.09-.05-1.57h.94l.06.96h.02c.29-.55.96-1.09,1.92-1.09.8,0,2.05.48,2.05,2.47v3.47h-1.06v-3.35c0-.94-.35-1.71-1.34-1.71-.7,0-1.24.49-1.42,1.08-.05.13-.07.31-.07.49v3.49h-1.06v-4.23Z" style="fill: #1d1d1b;"/>
        </g>
      </g>
      <g id="nahrung" class="expenditure-info">
        <rect x="402.76" y="38.99" width="56.06" height="27.56" style="fill: #f5c7bc;"/>
        <g>
          <path d="M410,56.69v-8.08h1.14l2.59,4.09c.6.95,1.07,1.8,1.45,2.63h.02c-.1-1.09-.12-2.07-.12-3.33v-3.38h.98v8.08h-1.06l-2.57-4.1c-.56-.9-1.1-1.82-1.51-2.7h-.04c.06,1.03.08,2,.08,3.35v3.45h-.98Z" style="fill: #1d1d1b;"/>
          <path d="M421.08,56.69l-.08-.73h-.04c-.32.46-.95.86-1.78.86-1.17,0-1.77-.83-1.77-1.67,0-1.4,1.25-2.17,3.49-2.16v-.12c0-.48-.13-1.34-1.32-1.34-.54,0-1.1.17-1.51.43l-.24-.7c.48-.31,1.18-.52,1.91-.52,1.78,0,2.21,1.21,2.21,2.37v2.17c0,.5.02,1,.1,1.39h-.96ZM420.92,53.73c-1.15-.02-2.46.18-2.46,1.31,0,.68.46,1.01,1,1.01.75,0,1.24-.48,1.4-.97.04-.11.06-.23.06-.34v-1.01Z" style="fill: #1d1d1b;"/>
          <path d="M423.65,48.18h1.06v3.62h.02c.17-.3.43-.56.76-.74.31-.18.68-.3,1.08-.3.78,0,2.03.48,2.03,2.48v3.45h-1.06v-3.33c0-.94-.35-1.73-1.34-1.73-.68,0-1.22.48-1.42,1.06-.06.14-.07.3-.07.5v3.5h-1.06v-8.52Z" style="fill: #1d1d1b;"/>
          <path d="M430.31,52.7c0-.68-.01-1.27-.05-1.81h.92l.04,1.14h.05c.26-.78.9-1.27,1.61-1.27.12,0,.2.01.3.04v1c-.11-.02-.22-.04-.36-.04-.74,0-1.27.56-1.42,1.36-.02.14-.05.31-.05.49v3.09h-1.04v-3.99Z" style="fill: #1d1d1b;"/>
          <path d="M439.09,55.11c0,.6.01,1.13.05,1.58h-.94l-.06-.95h-.02c-.28.47-.89,1.08-1.92,1.08-.91,0-2-.5-2-2.54v-3.39h1.06v3.21c0,1.1.34,1.85,1.29,1.85.71,0,1.2-.49,1.39-.96.06-.16.1-.35.1-.54v-3.56h1.06v4.22Z" style="fill: #1d1d1b;"/>
          <path d="M440.84,52.46c0-.6-.01-1.09-.05-1.57h.94l.06.96h.02c.29-.55.96-1.09,1.92-1.09.8,0,2.05.48,2.05,2.47v3.47h-1.06v-3.35c0-.94-.35-1.71-1.34-1.71-.7,0-1.24.49-1.42,1.08-.05.13-.07.31-.07.49v3.49h-1.06v-4.23Z" style="fill: #1d1d1b;"/>
          <path d="M452.5,50.89c-.02.42-.05.89-.05,1.6v3.37c0,1.33-.26,2.15-.83,2.65-.56.53-1.38.7-2.11.7s-1.46-.17-1.93-.48l.26-.8c.38.24.98.46,1.7.46,1.08,0,1.87-.56,1.87-2.03v-.65h-.02c-.32.54-.95.97-1.85.97-1.44,0-2.47-1.22-2.47-2.83,0-1.97,1.28-3.08,2.62-3.08,1.01,0,1.56.53,1.81,1.01h.02l.05-.88h.92ZM451.41,53.18c0-.18-.01-.34-.06-.48-.19-.61-.71-1.12-1.48-1.12-1.01,0-1.73.85-1.73,2.19,0,1.14.58,2.09,1.72,2.09.65,0,1.24-.41,1.46-1.08.06-.18.08-.38.08-.56v-1.04Z" style="fill: #1d1d1b;"/>
        </g>
      </g>
      <g id="notwendigeausgaben-2" data-name="notwendigeausgaben">
        <rect x="402.76" y="1.71" width="175.38" height="27.56" style="fill: #f0ae9f;"/>
        <g>
          <path d="M417.99,13.7c0-.8-.02-1.46-.06-2.1h1.25l.08,1.28h.03c.38-.74,1.28-1.46,2.56-1.46,1.07,0,2.74.64,2.74,3.3v4.63h-1.41v-4.47c0-1.25-.46-2.29-1.79-2.29-.93,0-1.65.66-1.89,1.44-.06.18-.1.42-.1.66v4.66h-1.41v-5.65Z" style="fill: #1d1d1b;"/>
          <path d="M433.88,15.41c0,2.87-1.99,4.11-3.86,4.11-2.1,0-3.71-1.54-3.71-3.99,0-2.59,1.7-4.11,3.84-4.11s3.73,1.62,3.73,3.99ZM427.73,15.49c0,1.7.98,2.98,2.35,2.98s2.35-1.26,2.35-3.01c0-1.31-.66-2.98-2.32-2.98s-2.38,1.54-2.38,3.01Z" style="fill: #1d1d1b;"/>
          <path d="M437.35,9.38v2.23h2.02v1.07h-2.02v4.18c0,.96.27,1.5,1.06,1.5.37,0,.64-.05.82-.1l.06,1.06c-.27.11-.7.19-1.25.19-.66,0-1.18-.21-1.52-.59-.4-.42-.54-1.1-.54-2.02v-4.23h-1.2v-1.07h1.2v-1.86l1.38-.37Z" style="fill: #1d1d1b;"/>
          <path d="M441.65,11.6l1.02,3.94c.22.86.43,1.66.58,2.46h.05c.18-.78.43-1.62.69-2.45l1.26-3.95h1.18l1.2,3.87c.29.93.51,1.74.69,2.53h.05c.13-.78.34-1.6.59-2.51l1.1-3.89h1.39l-2.5,7.75h-1.28l-1.18-3.7c-.27-.86-.5-1.63-.69-2.55h-.03c-.19.93-.43,1.73-.7,2.56l-1.25,3.68h-1.28l-2.34-7.75h1.44Z" style="fill: #1d1d1b;"/>
          <path d="M453.49,15.73c.03,1.9,1.25,2.69,2.66,2.69,1.01,0,1.62-.18,2.15-.4l.24,1.01c-.5.22-1.34.48-2.58.48-2.39,0-3.81-1.57-3.81-3.91s1.38-4.18,3.63-4.18c2.53,0,3.2,2.23,3.2,3.65,0,.29-.03.51-.05.66h-5.44ZM457.62,14.72c.02-.9-.37-2.29-1.95-2.29-1.42,0-2.05,1.31-2.16,2.29h4.11Z" style="fill: #1d1d1b;"/>
          <path d="M460.73,13.7c0-.8-.02-1.46-.06-2.1h1.25l.08,1.28h.03c.38-.74,1.28-1.46,2.56-1.46,1.07,0,2.74.64,2.74,3.3v4.63h-1.41v-4.47c0-1.25-.46-2.29-1.79-2.29-.93,0-1.65.66-1.89,1.44-.06.18-.1.42-.1.66v4.66h-1.41v-5.65Z" style="fill: #1d1d1b;"/>
          <path d="M476.3,7.98v9.36c0,.69.02,1.47.06,2h-1.26l-.06-1.34h-.03c-.43.86-1.38,1.52-2.64,1.52-1.87,0-3.31-1.58-3.31-3.94-.02-2.58,1.58-4.16,3.47-4.16,1.18,0,1.98.56,2.34,1.18h.03v-4.63h1.41ZM474.89,14.75c0-.18-.02-.42-.06-.59-.21-.9-.98-1.63-2.03-1.63-1.46,0-2.32,1.28-2.32,2.99,0,1.57.77,2.87,2.29,2.87.94,0,1.81-.62,2.06-1.68.05-.19.06-.38.06-.61v-1.34Z" style="fill: #1d1d1b;"/>
          <path d="M480.2,9.42c.02.48-.34.86-.9.86-.5,0-.85-.38-.85-.86s.37-.88.88-.88.87.38.87.88ZM478.63,19.35v-7.75h1.41v7.75h-1.41Z" style="fill: #1d1d1b;"/>
          <path d="M489.05,11.6c-.03.56-.06,1.18-.06,2.13v4.5c0,1.78-.35,2.87-1.1,3.54-.75.7-1.84.93-2.82.93s-1.95-.22-2.58-.64l.35-1.07c.51.32,1.31.61,2.27.61,1.44,0,2.5-.75,2.5-2.71v-.86h-.03c-.43.72-1.26,1.3-2.46,1.3-1.92,0-3.3-1.63-3.3-3.78,0-2.62,1.71-4.11,3.49-4.11,1.34,0,2.08.7,2.42,1.34h.03l.06-1.17h1.23ZM487.59,14.66c0-.24-.02-.45-.08-.64-.26-.82-.94-1.49-1.97-1.49-1.34,0-2.31,1.14-2.31,2.93,0,1.52.77,2.79,2.29,2.79.86,0,1.65-.54,1.95-1.44.08-.24.11-.51.11-.75v-1.39Z" style="fill: #1d1d1b;"/>
          <path d="M492.1,15.73c.03,1.9,1.25,2.69,2.66,2.69,1.01,0,1.62-.18,2.15-.4l.24,1.01c-.5.22-1.34.48-2.58.48-2.39,0-3.81-1.57-3.81-3.91s1.38-4.18,3.63-4.18c2.53,0,3.2,2.23,3.2,3.65,0,.29-.03.51-.05.66h-5.44ZM496.23,14.72c.02-.9-.37-2.29-1.95-2.29-1.42,0-2.05,1.31-2.16,2.29h4.11Z" style="fill: #1d1d1b;"/>
          <path d="M504.52,15.95l-1.12,3.39h-1.44l3.67-10.79h1.68l3.68,10.79h-1.49l-1.15-3.39h-3.83ZM508.05,14.87l-1.06-3.1c-.24-.7-.4-1.34-.56-1.97h-.03c-.16.64-.34,1.3-.54,1.95l-1.06,3.12h3.25Z" style="fill: #1d1d1b;"/>
          <path d="M518.81,17.23c0,.8.02,1.5.06,2.11h-1.25l-.08-1.26h-.03c-.37.62-1.18,1.44-2.56,1.44-1.22,0-2.67-.67-2.67-3.39v-4.53h1.41v4.29c0,1.47.45,2.47,1.73,2.47.94,0,1.6-.66,1.86-1.28.08-.21.13-.46.13-.72v-4.75h1.41v5.63Z" style="fill: #1d1d1b;"/>
          <path d="M520.95,17.91c.42.27,1.15.56,1.86.56,1.02,0,1.5-.51,1.5-1.15,0-.67-.4-1.04-1.44-1.42-1.39-.5-2.05-1.26-2.05-2.19,0-1.25,1.01-2.27,2.67-2.27.78,0,1.47.22,1.9.48l-.35,1.02c-.3-.19-.87-.45-1.58-.45-.83,0-1.3.48-1.3,1.06,0,.64.46.93,1.47,1.31,1.34.51,2.03,1.18,2.03,2.34,0,1.36-1.06,2.32-2.9,2.32-.85,0-1.63-.21-2.18-.53l.35-1.07Z" style="fill: #1d1d1b;"/>
          <path d="M534.15,11.6c-.03.56-.06,1.18-.06,2.13v4.5c0,1.78-.35,2.87-1.1,3.54-.75.7-1.84.93-2.82.93s-1.95-.22-2.58-.64l.35-1.07c.51.32,1.31.61,2.27.61,1.44,0,2.5-.75,2.5-2.71v-.86h-.03c-.43.72-1.26,1.3-2.46,1.3-1.92,0-3.3-1.63-3.3-3.78,0-2.62,1.71-4.11,3.49-4.11,1.34,0,2.08.7,2.42,1.34h.03l.06-1.17h1.23ZM532.7,14.66c0-.24-.02-.45-.08-.64-.26-.82-.94-1.49-1.97-1.49-1.34,0-2.31,1.14-2.31,2.93,0,1.52.77,2.79,2.29,2.79.86,0,1.65-.54,1.95-1.44.08-.24.11-.51.11-.75v-1.39Z" style="fill: #1d1d1b;"/>
          <path d="M540.71,19.35l-.11-.98h-.05c-.43.61-1.26,1.15-2.37,1.15-1.57,0-2.37-1.1-2.37-2.23,0-1.87,1.67-2.9,4.66-2.88v-.16c0-.64-.18-1.79-1.76-1.79-.72,0-1.47.22-2.02.58l-.32-.93c.64-.42,1.57-.69,2.54-.69,2.37,0,2.95,1.62,2.95,3.17v2.9c0,.67.03,1.33.13,1.86h-1.28ZM540.5,15.39c-1.54-.03-3.28.24-3.28,1.74,0,.91.61,1.34,1.33,1.34,1.01,0,1.65-.64,1.87-1.3.05-.14.08-.3.08-.45v-1.34Z" style="fill: #1d1d1b;"/>
          <path d="M544.07,19.35c.03-.53.06-1.31.06-2V7.98h1.39v4.87h.03c.5-.86,1.39-1.42,2.64-1.42,1.92,0,3.28,1.6,3.27,3.95,0,2.77-1.74,4.15-3.47,4.15-1.12,0-2.02-.43-2.59-1.46h-.05l-.06,1.28h-1.22ZM545.52,16.24c0,.18.03.35.06.51.27.98,1.09,1.65,2.11,1.65,1.47,0,2.35-1.2,2.35-2.98,0-1.55-.8-2.88-2.3-2.88-.96,0-1.86.66-2.15,1.73-.03.16-.08.35-.08.58v1.39Z" style="fill: #1d1d1b;"/>
          <path d="M554.02,15.73c.03,1.9,1.25,2.69,2.66,2.69,1.01,0,1.62-.18,2.14-.4l.24,1.01c-.5.22-1.34.48-2.58.48-2.38,0-3.81-1.57-3.81-3.91s1.38-4.18,3.63-4.18c2.53,0,3.2,2.23,3.2,3.65,0,.29-.03.51-.05.66h-5.44ZM558.15,14.72c.02-.9-.37-2.29-1.95-2.29-1.42,0-2.05,1.31-2.16,2.29h4.11Z" style="fill: #1d1d1b;"/>
          <path d="M561.25,13.7c0-.8-.02-1.46-.06-2.1h1.25l.08,1.28h.03c.38-.74,1.28-1.46,2.56-1.46,1.07,0,2.74.64,2.74,3.3v4.63h-1.41v-4.47c0-1.25-.46-2.29-1.79-2.29-.93,0-1.65.66-1.89,1.44-.06.18-.1.42-.1.66v4.66h-1.41v-5.65Z" style="fill: #1d1d1b;"/>
        </g>
      </g>
    </g>
    <g id="Einkommen">
      <g id="vermietung" class="income-info">
        <rect x="291.56" y="104.61" width="86.76" height="27.56" style="fill: #d2d2d2;"/>
        <g>
          <path d="M307.07,122.31l-2.64-8.08h1.13l1.26,3.98c.35,1.09.65,2.07.86,3.02h.02c.23-.94.56-1.95.92-3.01l1.37-3.99h1.12l-2.89,8.08h-1.15Z" style="fill: #1d1d1b;"/>
          <path d="M312.15,119.6c.02,1.43.94,2.01,1.99,2.01.76,0,1.21-.13,1.61-.3l.18.76c-.37.17-1.01.36-1.93.36-1.79,0-2.85-1.18-2.85-2.93s1.03-3.13,2.72-3.13c1.9,0,2.4,1.67,2.4,2.73,0,.22-.02.38-.04.49h-4.08ZM315.24,118.85c.01-.67-.28-1.71-1.46-1.71-1.07,0-1.54.98-1.62,1.71h3.08Z" style="fill: #1d1d1b;"/>
          <path d="M317.57,118.32c0-.68-.01-1.27-.05-1.81h.92l.04,1.14h.05c.26-.78.9-1.27,1.61-1.27.12,0,.2.01.3.04v1c-.11-.02-.22-.04-.36-.04-.74,0-1.27.56-1.42,1.36-.02.14-.05.31-.05.49v3.09h-1.04v-3.99Z" style="fill: #1d1d1b;"/>
          <path d="M321.54,118.08c0-.6-.01-1.09-.05-1.57h.92l.05.94h.04c.32-.55.86-1.07,1.82-1.07.79,0,1.39.48,1.64,1.16h.02c.18-.32.41-.58.65-.76.35-.26.73-.41,1.28-.41.77,0,1.91.5,1.91,2.52v3.42h-1.03v-3.29c0-1.12-.41-1.79-1.26-1.79-.6,0-1.07.44-1.25.96-.05.14-.08.34-.08.53v3.59h-1.03v-3.48c0-.92-.41-1.59-1.21-1.59-.66,0-1.14.53-1.31,1.06-.06.16-.08.33-.08.52v3.5h-1.03v-4.23Z" style="fill: #1d1d1b;"/>
          <path d="M332.72,114.88c.01.36-.25.65-.67.65-.37,0-.64-.29-.64-.65s.28-.66.66-.66.65.29.65.66ZM331.55,122.31v-5.8h1.06v5.8h-1.06Z" style="fill: #1d1d1b;"/>
          <path d="M334.95,119.6c.02,1.43.94,2.01,1.99,2.01.76,0,1.21-.13,1.61-.3l.18.76c-.37.17-1.01.36-1.93.36-1.79,0-2.85-1.18-2.85-2.93s1.03-3.13,2.72-3.13c1.9,0,2.4,1.67,2.4,2.73,0,.22-.02.38-.04.49h-4.08ZM338.04,118.85c.01-.67-.28-1.71-1.46-1.71-1.07,0-1.54.98-1.62,1.71h3.08Z" style="fill: #1d1d1b;"/>
          <path d="M341.64,114.84v1.67h1.51v.8h-1.51v3.13c0,.72.2,1.13.79,1.13.28,0,.48-.04.61-.07l.05.79c-.2.08-.53.14-.94.14-.49,0-.89-.16-1.14-.44-.3-.31-.41-.83-.41-1.51v-3.17h-.9v-.8h.9v-1.39l1.03-.28Z" style="fill: #1d1d1b;"/>
          <path d="M349.2,120.73c0,.6.01,1.13.05,1.58h-.94l-.06-.95h-.02c-.28.47-.89,1.08-1.92,1.08-.91,0-2-.5-2-2.54v-3.39h1.06v3.21c0,1.1.34,1.85,1.3,1.85.71,0,1.2-.49,1.39-.96.06-.16.1-.35.1-.54v-3.56h1.06v4.22Z" style="fill: #1d1d1b;"/>
          <path d="M350.95,118.08c0-.6-.01-1.09-.05-1.57h.94l.06.96h.02c.29-.55.96-1.09,1.92-1.09.8,0,2.05.48,2.05,2.47v3.47h-1.06v-3.35c0-.94-.35-1.71-1.34-1.71-.7,0-1.24.49-1.42,1.08-.05.13-.07.31-.07.49v3.49h-1.06v-4.23Z" style="fill: #1d1d1b;"/>
          <path d="M362.61,116.51c-.02.42-.05.89-.05,1.59v3.37c0,1.33-.26,2.15-.83,2.65-.56.53-1.38.7-2.11.7s-1.46-.17-1.93-.48l.26-.8c.38.24.98.46,1.7.46,1.08,0,1.87-.56,1.87-2.03v-.65h-.02c-.32.54-.95.97-1.85.97-1.44,0-2.47-1.22-2.47-2.83,0-1.97,1.28-3.08,2.61-3.08,1.01,0,1.56.53,1.81,1.01h.02l.05-.88h.92ZM361.52,118.8c0-.18-.01-.34-.06-.48-.19-.61-.71-1.12-1.48-1.12-1.01,0-1.73.85-1.73,2.19,0,1.14.58,2.09,1.71,2.09.65,0,1.24-.41,1.46-1.08.06-.18.08-.38.08-.56v-1.04Z" style="fill: #1d1d1b;"/>
        </g>
      </g>
      <g id="pensionen" class="income-info">
        <rect x="315.67" y="71.8" width="62.65" height="27.56" style="fill: #d2d2d2;"/>
        <g>
          <path d="M321.83,81.52c.5-.08,1.16-.16,2-.16,1.03,0,1.79.24,2.27.67.44.38.71.97.71,1.69s-.22,1.31-.62,1.73c-.55.59-1.45.89-2.47.89-.31,0-.6-.01-.84-.07v3.24h-1.04v-7.99ZM322.87,85.41c.23.06.52.08.86.08,1.26,0,2.03-.61,2.03-1.73s-.76-1.58-1.91-1.58c-.46,0-.8.04-.98.08v3.14Z" style="fill: #1d1d1b;"/>
          <path d="M328.47,86.79c.02,1.43.94,2.01,1.99,2.01.76,0,1.21-.13,1.61-.3l.18.76c-.37.17-1.01.36-1.93.36-1.79,0-2.85-1.18-2.85-2.93s1.03-3.13,2.72-3.13c1.9,0,2.4,1.67,2.4,2.73,0,.22-.02.38-.04.49h-4.08ZM331.56,86.04c.01-.67-.28-1.71-1.46-1.71-1.07,0-1.54.98-1.62,1.71h3.08Z" style="fill: #1d1d1b;"/>
          <path d="M333.89,85.27c0-.6-.01-1.09-.05-1.57h.94l.06.96h.02c.29-.55.96-1.09,1.92-1.09.8,0,2.05.48,2.05,2.47v3.47h-1.06v-3.35c0-.94-.35-1.71-1.34-1.71-.7,0-1.24.49-1.42,1.08-.05.13-.07.31-.07.49v3.49h-1.06v-4.23Z" style="fill: #1d1d1b;"/>
          <path d="M340.41,88.42c.31.2.86.42,1.39.42.77,0,1.13-.38,1.13-.86,0-.5-.3-.78-1.08-1.07-1.04-.37-1.54-.95-1.54-1.64,0-.94.76-1.7,2-1.7.59,0,1.1.17,1.43.36l-.26.77c-.23-.14-.65-.34-1.19-.34-.62,0-.97.36-.97.79,0,.48.35.7,1.1.98,1.01.38,1.52.89,1.52,1.75,0,1.02-.79,1.74-2.17,1.74-.63,0-1.22-.16-1.63-.4l.26-.8Z" style="fill: #1d1d1b;"/>
          <path d="M346.48,82.07c.01.36-.25.65-.67.65-.37,0-.64-.29-.64-.65s.28-.66.66-.66.65.29.65.66ZM345.3,89.5v-5.8h1.06v5.8h-1.06Z" style="fill: #1d1d1b;"/>
          <path d="M353.36,86.55c0,2.15-1.49,3.08-2.89,3.08-1.57,0-2.78-1.15-2.78-2.99,0-1.94,1.27-3.08,2.88-3.08s2.79,1.21,2.79,2.99ZM348.76,86.61c0,1.27.73,2.23,1.76,2.23s1.76-.95,1.76-2.25c0-.98-.49-2.23-1.74-2.23s-1.79,1.15-1.79,2.25Z" style="fill: #1d1d1b;"/>
          <path d="M354.7,85.27c0-.6-.01-1.09-.05-1.57h.94l.06.96h.02c.29-.55.96-1.09,1.92-1.09.8,0,2.05.48,2.05,2.47v3.47h-1.06v-3.35c0-.94-.35-1.71-1.34-1.71-.7,0-1.24.49-1.42,1.08-.05.13-.07.31-.07.49v3.49h-1.06v-4.23Z" style="fill: #1d1d1b;"/>
          <path d="M361.95,86.79c.02,1.43.94,2.01,1.99,2.01.76,0,1.21-.13,1.61-.3l.18.76c-.37.17-1.01.36-1.93.36-1.79,0-2.85-1.18-2.85-2.93s1.03-3.13,2.72-3.13c1.89,0,2.4,1.67,2.4,2.73,0,.22-.02.38-.04.49h-4.08ZM365.04,86.04c.01-.67-.28-1.71-1.46-1.71-1.07,0-1.54.98-1.62,1.71h3.08Z" style="fill: #1d1d1b;"/>
          <path d="M367.37,85.27c0-.6-.01-1.09-.05-1.57h.94l.06.96h.02c.29-.55.96-1.09,1.92-1.09.8,0,2.05.48,2.05,2.47v3.47h-1.06v-3.35c0-.94-.35-1.71-1.34-1.71-.7,0-1.24.49-1.42,1.08-.05.13-.07.31-.07.49v3.49h-1.06v-4.23Z" style="fill: #1d1d1b;"/>
        </g>
      </g>
      <g id="sozialhilfe" class="income-info">
        <rect x="323.84" y="38.99" width="55.4" height="27.56" style="fill: #d2d2d2;"/>
        <g>
          <path d="M326.94,55.56c.47.29,1.15.53,1.87.53,1.07,0,1.69-.56,1.69-1.38,0-.76-.43-1.19-1.52-1.61-1.32-.47-2.14-1.15-2.14-2.29,0-1.26,1.04-2.19,2.61-2.19.83,0,1.43.19,1.79.4l-.29.85c-.26-.14-.8-.38-1.54-.38-1.1,0-1.52.66-1.52,1.21,0,.76.49,1.13,1.61,1.56,1.37.53,2.06,1.19,2.06,2.38,0,1.25-.92,2.33-2.83,2.33-.78,0-1.63-.23-2.06-.52l.26-.88Z" style="fill: #1d1d1b;"/>
          <path d="M338.29,53.88c0,2.15-1.49,3.08-2.89,3.08-1.57,0-2.78-1.15-2.78-2.99,0-1.94,1.27-3.08,2.88-3.08s2.79,1.21,2.79,2.99ZM333.68,53.94c0,1.27.73,2.23,1.76,2.23s1.76-.95,1.76-2.25c0-.98-.49-2.23-1.74-2.23s-1.79,1.15-1.79,2.25Z" style="fill: #1d1d1b;"/>
          <path d="M338.88,56.21l2.63-3.42c.25-.31.49-.59.76-.9v-.02h-3.14v-.85h4.43v.66s-2.6,3.37-2.6,3.37c-.24.32-.48.61-.74.91v.02h3.39v.84h-4.71v-.61Z" style="fill: #1d1d1b;"/>
          <path d="M345.85,49.39c.01.36-.25.65-.67.65-.37,0-.64-.29-.64-.65s.28-.66.66-.66.65.29.65.66ZM344.67,56.83v-5.8h1.06v5.8h-1.06Z" style="fill: #1d1d1b;"/>
          <path d="M350.7,56.83l-.08-.73h-.04c-.32.46-.95.86-1.78.86-1.17,0-1.77-.83-1.77-1.67,0-1.4,1.25-2.17,3.49-2.16v-.12c0-.48-.13-1.34-1.32-1.34-.54,0-1.1.17-1.51.43l-.24-.7c.48-.31,1.18-.52,1.91-.52,1.77,0,2.21,1.21,2.21,2.37v2.17c0,.5.02,1,.1,1.39h-.96ZM350.54,53.86c-1.15-.02-2.46.18-2.46,1.31,0,.68.46,1.01,1,1.01.75,0,1.24-.48,1.4-.97.04-.11.06-.23.06-.34v-1.01Z" style="fill: #1d1d1b;"/>
          <path d="M353.27,48.31h1.06v8.52h-1.06v-8.52Z" style="fill: #1d1d1b;"/>
          <path d="M356.1,48.31h1.06v3.62h.02c.17-.3.43-.56.75-.74.31-.18.68-.3,1.08-.3.78,0,2.03.48,2.03,2.48v3.45h-1.06v-3.33c0-.94-.35-1.73-1.34-1.73-.68,0-1.22.48-1.42,1.06-.06.14-.07.3-.07.5v3.5h-1.06v-8.52Z" style="fill: #1d1d1b;"/>
          <path d="M363.93,49.39c.01.36-.25.65-.67.65-.37,0-.64-.29-.64-.65s.28-.66.66-.66.65.29.65.66ZM362.76,56.83v-5.8h1.05v5.8h-1.05Z" style="fill: #1d1d1b;"/>
          <path d="M365.57,48.31h1.06v8.52h-1.06v-8.52Z" style="fill: #1d1d1b;"/>
          <path d="M368.51,56.83v-5h-.82v-.8h.82v-.28c0-.82.18-1.56.67-2.03.39-.38.92-.54,1.41-.54.37,0,.7.08.9.17l-.14.82c-.16-.07-.37-.13-.67-.13-.9,0-1.13.79-1.13,1.68v.31h1.4v.8h-1.4v5h-1.04Z" style="fill: #1d1d1b;"/>
          <path d="M372.33,54.12c.02,1.43.93,2.01,1.99,2.01.76,0,1.21-.13,1.61-.3l.18.76c-.37.17-1.01.36-1.93.36-1.79,0-2.85-1.18-2.85-2.93s1.03-3.13,2.72-3.13c1.89,0,2.4,1.67,2.4,2.73,0,.22-.02.38-.04.49h-4.08ZM375.43,53.36c.01-.67-.28-1.71-1.46-1.71-1.07,0-1.54.98-1.62,1.71h3.08Z" style="fill: #1d1d1b;"/>
        </g>
      </g>
      <g id="kapital" class="income-info">
        <rect x="203.87" y="104.61" width="83.39" height="27.56" style="fill: #d2d2d2;"/>
        <g>
          <path d="M211.5,114.23h1.04v3.9h.04c.22-.31.43-.6.64-.86l2.47-3.03h1.3l-2.93,3.43,3.15,4.65h-1.24l-2.66-3.97-.77.89v3.08h-1.04v-8.08Z" style="fill: #1d1d1b;"/>
          <path d="M221.38,122.31l-.08-.73h-.04c-.32.46-.95.86-1.77.86-1.18,0-1.77-.83-1.77-1.67,0-1.4,1.25-2.17,3.49-2.16v-.12c0-.48-.13-1.34-1.32-1.34-.54,0-1.1.17-1.51.43l-.24-.7c.48-.31,1.18-.52,1.91-.52,1.77,0,2.21,1.21,2.21,2.37v2.17c0,.5.02,1,.1,1.39h-.96ZM221.22,119.35c-1.15-.02-2.46.18-2.46,1.31,0,.68.46,1.01,1,1.01.76,0,1.24-.48,1.4-.97.04-.11.06-.23.06-.34v-1.01Z" style="fill: #1d1d1b;"/>
          <path d="M223.95,118.4c0-.74-.02-1.34-.05-1.89h.95l.05,1h.02c.43-.71,1.12-1.13,2.06-1.13,1.4,0,2.46,1.19,2.46,2.95,0,2.09-1.27,3.12-2.64,3.12-.77,0-1.44-.34-1.79-.91h-.02v3.15h-1.04v-6.28ZM224.99,119.95c0,.16.02.3.05.43.19.73.83,1.24,1.58,1.24,1.12,0,1.76-.91,1.76-2.24,0-1.16-.61-2.16-1.73-2.16-.72,0-1.39.52-1.6,1.31-.04.13-.07.29-.07.43v1Z" style="fill: #1d1d1b;"/>
          <path d="M231.95,114.88c.01.36-.25.65-.67.65-.37,0-.64-.29-.64-.65s.28-.66.66-.66.65.29.65.66ZM230.77,122.31v-5.8h1.06v5.8h-1.06Z" style="fill: #1d1d1b;"/>
          <path d="M234.85,114.84v1.67h1.51v.8h-1.51v3.13c0,.72.2,1.13.79,1.13.28,0,.48-.04.61-.07l.05.79c-.2.08-.53.14-.94.14-.49,0-.89-.16-1.14-.44-.3-.31-.41-.83-.41-1.51v-3.17h-.9v-.8h.9v-1.39l1.03-.28Z" style="fill: #1d1d1b;"/>
          <path d="M240.77,122.31l-.08-.73h-.04c-.32.46-.95.86-1.77.86-1.18,0-1.77-.83-1.77-1.67,0-1.4,1.25-2.17,3.49-2.16v-.12c0-.48-.13-1.34-1.32-1.34-.54,0-1.1.17-1.51.43l-.24-.7c.48-.31,1.18-.52,1.91-.52,1.77,0,2.21,1.21,2.21,2.37v2.17c0,.5.02,1,.1,1.39h-.96ZM240.61,119.35c-1.15-.02-2.46.18-2.46,1.31,0,.68.46,1.01,1,1.01.76,0,1.24-.48,1.4-.97.04-.11.06-.23.06-.34v-1.01Z" style="fill: #1d1d1b;"/>
          <path d="M243.34,113.8h1.06v8.52h-1.06v-8.52Z" style="fill: #1d1d1b;"/>
          <path d="M246.76,119.6c.02,1.43.94,2.01,1.99,2.01.76,0,1.21-.13,1.61-.3l.18.76c-.37.17-1.01.36-1.93.36-1.79,0-2.85-1.18-2.85-2.93s1.03-3.13,2.72-3.13c1.9,0,2.4,1.67,2.4,2.73,0,.22-.02.38-.04.49h-4.08ZM249.85,118.85c.01-.67-.28-1.71-1.46-1.71-1.07,0-1.54.98-1.62,1.71h3.08Z" style="fill: #1d1d1b;"/>
          <path d="M252.18,118.32c0-.68-.01-1.27-.05-1.81h.92l.04,1.14h.05c.26-.78.9-1.27,1.61-1.27.12,0,.2.01.3.04v1c-.11-.02-.22-.04-.36-.04-.74,0-1.27.56-1.42,1.36-.02.14-.05.31-.05.49v3.09h-1.04v-3.99Z" style="fill: #1d1d1b;"/>
          <path d="M257.66,114.84v1.67h1.51v.8h-1.51v3.13c0,.72.2,1.13.79,1.13.28,0,.48-.04.61-.07l.05.79c-.2.08-.53.14-.94.14-.49,0-.89-.16-1.14-.44-.3-.31-.41-.83-.41-1.51v-3.17h-.9v-.8h.9v-1.39l1.03-.28Z" style="fill: #1d1d1b;"/>
          <path d="M260.36,118.32c0-.68-.01-1.27-.05-1.81h.92l.04,1.14h.05c.26-.78.9-1.27,1.61-1.27.12,0,.2.01.3.04v1c-.11-.02-.22-.04-.36-.04-.74,0-1.27.56-1.42,1.36-.02.14-.05.31-.05.49v3.09h-1.04v-3.99Z" style="fill: #1d1d1b;"/>
          <path d="M267.44,122.31l-.08-.73h-.04c-.32.46-.95.86-1.77.86-1.18,0-1.77-.83-1.77-1.67,0-1.4,1.25-2.17,3.49-2.16v-.12c0-.48-.13-1.34-1.32-1.34-.54,0-1.1.17-1.51.43l-.24-.7c.48-.31,1.18-.52,1.91-.52,1.77,0,2.21,1.21,2.21,2.37v2.17c0,.5.02,1,.1,1.39h-.96ZM264.53,114.87c0-.34.28-.61.61-.61s.59.26.59.61c0,.32-.24.61-.59.61s-.61-.29-.61-.61ZM267.29,119.35c-1.15-.02-2.46.18-2.46,1.31,0,.68.46,1.01,1,1.01.76,0,1.24-.48,1.4-.97.04-.11.06-.23.06-.34v-1.01ZM266.76,114.87c0-.34.26-.61.6-.61s.59.26.59.61c0,.32-.24.61-.59.61s-.6-.29-.6-.61Z" style="fill: #1d1d1b;"/>
          <path d="M275.01,116.51c-.02.42-.05.89-.05,1.59v3.37c0,1.33-.26,2.15-.83,2.65-.56.53-1.38.7-2.11.7s-1.46-.17-1.93-.48l.26-.8c.38.24.98.46,1.7.46,1.08,0,1.87-.56,1.87-2.03v-.65h-.02c-.32.54-.95.97-1.85.97-1.44,0-2.47-1.22-2.47-2.83,0-1.97,1.28-3.08,2.61-3.08,1.01,0,1.56.53,1.81,1.01h.02l.05-.88h.92ZM273.92,118.8c0-.18-.01-.34-.06-.48-.19-.61-.71-1.12-1.48-1.12-1.01,0-1.73.85-1.73,2.19,0,1.14.58,2.09,1.72,2.09.65,0,1.24-.41,1.46-1.08.06-.18.08-.38.08-.56v-1.04Z" style="fill: #1d1d1b;"/>
          <path d="M277.31,119.6c.02,1.43.94,2.01,1.99,2.01.76,0,1.21-.13,1.61-.3l.18.76c-.37.17-1.01.36-1.93.36-1.79,0-2.85-1.18-2.85-2.93s1.03-3.13,2.72-3.13c1.9,0,2.4,1.67,2.4,2.73,0,.22-.02.38-.04.49h-4.08ZM280.4,118.85c.01-.67-.28-1.71-1.46-1.71-1.07,0-1.54.98-1.62,1.71h3.08Z" style="fill: #1d1d1b;"/>
        </g>
      </g>
      <g id="selbstaendigesEK" class="income-info">
        <rect x="203.87" y="71.8" width="105.91" height="27.56" style="fill: #d2d2d2;"/>
        <g>
          <path d="M211.37,88.42c.31.2.86.42,1.39.42.77,0,1.13-.38,1.13-.86,0-.5-.3-.78-1.08-1.07-1.04-.37-1.54-.95-1.54-1.64,0-.94.76-1.7,2-1.7.59,0,1.1.17,1.43.36l-.26.77c-.23-.14-.65-.34-1.19-.34-.62,0-.97.36-.97.79,0,.48.35.7,1.1.98,1.01.38,1.52.89,1.52,1.75,0,1.02-.79,1.74-2.17,1.74-.64,0-1.22-.16-1.63-.4l.26-.8Z" style="fill: #1d1d1b;"/>
          <path d="M216.85,86.79c.02,1.43.94,2.01,1.99,2.01.76,0,1.21-.13,1.61-.3l.18.76c-.37.17-1.01.36-1.93.36-1.79,0-2.85-1.18-2.85-2.93s1.03-3.13,2.72-3.13c1.9,0,2.4,1.67,2.4,2.73,0,.22-.02.38-.04.49h-4.08ZM219.94,86.04c.01-.67-.28-1.71-1.46-1.71-1.07,0-1.54.98-1.62,1.71h3.08Z" style="fill: #1d1d1b;"/>
          <path d="M222.27,80.99h1.06v8.52h-1.06v-8.52Z" style="fill: #1d1d1b;"/>
          <path d="M225.06,89.5c.02-.4.05-.98.05-1.5v-7.02h1.04v3.65h.02c.37-.65,1.04-1.07,1.98-1.07,1.44,0,2.46,1.2,2.45,2.96,0,2.07-1.31,3.11-2.6,3.11-.84,0-1.51-.32-1.94-1.09h-.04l-.05.96h-.91ZM226.15,87.18c0,.13.02.26.05.38.2.73.82,1.24,1.58,1.24,1.1,0,1.76-.9,1.76-2.23,0-1.16-.6-2.16-1.73-2.16-.72,0-1.39.49-1.61,1.3-.02.12-.06.26-.06.43v1.04Z" style="fill: #1d1d1b;"/>
          <path d="M231.79,88.42c.31.2.86.42,1.39.42.77,0,1.13-.38,1.13-.86,0-.5-.3-.78-1.08-1.07-1.04-.37-1.54-.95-1.54-1.64,0-.94.76-1.7,2-1.7.59,0,1.1.17,1.43.36l-.26.77c-.23-.14-.65-.34-1.19-.34-.62,0-.97.36-.97.79,0,.48.35.7,1.1.98,1.01.38,1.52.89,1.52,1.75,0,1.02-.79,1.74-2.17,1.74-.64,0-1.22-.16-1.63-.4l.26-.8Z" style="fill: #1d1d1b;"/>
          <path d="M237.96,82.03v1.67h1.51v.8h-1.51v3.13c0,.72.2,1.13.79,1.13.28,0,.48-.04.61-.07l.05.79c-.2.08-.53.14-.94.14-.49,0-.89-.16-1.14-.44-.3-.31-.41-.83-.41-1.51v-3.17h-.9v-.8h.9v-1.39l1.03-.28Z" style="fill: #1d1d1b;"/>
          <path d="M240.51,88.42c.31.2.86.42,1.39.42.77,0,1.13-.38,1.13-.86,0-.5-.3-.78-1.08-1.07-1.04-.37-1.54-.95-1.54-1.64,0-.94.76-1.7,2-1.7.59,0,1.1.17,1.43.36l-.26.77c-.23-.14-.65-.34-1.19-.34-.62,0-.97.36-.97.79,0,.48.35.7,1.1.98,1.01.38,1.52.89,1.52,1.75,0,1.02-.79,1.74-2.17,1.74-.64,0-1.22-.16-1.63-.4l.26-.8Z" style="fill: #1d1d1b;"/>
          <path d="M246.68,82.03v1.67h1.51v.8h-1.51v3.13c0,.72.2,1.13.79,1.13.28,0,.48-.04.61-.07l.05.79c-.2.08-.53.14-.94.14-.49,0-.89-.16-1.14-.44-.3-.31-.41-.83-.41-1.51v-3.17h-.9v-.8h.9v-1.39l1.03-.28Z" style="fill: #1d1d1b;"/>
          <path d="M252.6,89.5l-.08-.73h-.04c-.32.46-.95.86-1.77.86-1.18,0-1.77-.83-1.77-1.67,0-1.4,1.25-2.17,3.49-2.16v-.12c0-.48-.13-1.34-1.32-1.34-.54,0-1.1.17-1.51.43l-.24-.7c.48-.31,1.18-.52,1.91-.52,1.77,0,2.21,1.21,2.21,2.37v2.17c0,.5.02,1,.1,1.39h-.96ZM249.68,82.06c0-.34.28-.61.61-.61s.59.26.59.61c0,.32-.24.61-.59.61s-.61-.29-.61-.61ZM252.44,86.54c-1.15-.02-2.46.18-2.46,1.31,0,.68.46,1.01,1,1.01.76,0,1.24-.48,1.4-.97.04-.11.06-.23.06-.34v-1.01ZM251.91,82.06c0-.34.26-.61.6-.61s.59.26.59.61c0,.32-.24.61-.59.61s-.6-.29-.6-.61Z" style="fill: #1d1d1b;"/>
          <path d="M255.17,85.27c0-.6-.01-1.09-.05-1.57h.94l.06.96h.02c.29-.55.96-1.09,1.92-1.09.8,0,2.05.48,2.05,2.47v3.47h-1.06v-3.35c0-.94-.35-1.71-1.34-1.71-.7,0-1.24.49-1.42,1.08-.05.13-.07.31-.07.49v3.49h-1.06v-4.23Z" style="fill: #1d1d1b;"/>
          <path d="M266.84,80.99v7.02c0,.52.01,1.1.05,1.5h-.95l-.05-1.01h-.02c-.32.65-1.03,1.14-1.98,1.14-1.4,0-2.48-1.19-2.48-2.95-.01-1.93,1.19-3.12,2.6-3.12.89,0,1.49.42,1.75.89h.02v-3.47h1.06ZM265.78,86.06c0-.13-.01-.31-.05-.44-.16-.67-.73-1.22-1.52-1.22-1.09,0-1.74.96-1.74,2.24,0,1.18.58,2.15,1.72,2.15.71,0,1.35-.47,1.55-1.26.04-.14.05-.29.05-.46v-1.01Z" style="fill: #1d1d1b;"/>
          <path d="M269.77,82.07c.01.36-.25.65-.67.65-.37,0-.64-.29-.64-.65s.28-.66.66-.66.65.29.65.66ZM268.59,89.5v-5.8h1.06v5.8h-1.06Z" style="fill: #1d1d1b;"/>
          <path d="M276.4,83.7c-.02.42-.05.89-.05,1.6v3.37c0,1.33-.26,2.15-.83,2.65-.56.53-1.38.7-2.11.7s-1.46-.17-1.93-.48l.26-.8c.38.24.98.46,1.7.46,1.08,0,1.87-.56,1.87-2.03v-.65h-.02c-.32.54-.95.97-1.85.97-1.44,0-2.47-1.22-2.47-2.83,0-1.97,1.28-3.08,2.61-3.08,1.01,0,1.56.53,1.81,1.01h.02l.05-.88h.92ZM275.31,85.99c0-.18-.01-.34-.06-.48-.19-.61-.71-1.12-1.48-1.12-1.01,0-1.73.85-1.73,2.19,0,1.14.58,2.09,1.72,2.09.65,0,1.24-.41,1.46-1.08.06-.18.08-.38.08-.56v-1.04Z" style="fill: #1d1d1b;"/>
          <path d="M278.7,86.79c.02,1.43.94,2.01,1.99,2.01.76,0,1.21-.13,1.61-.3l.18.76c-.37.17-1.01.36-1.93.36-1.79,0-2.85-1.18-2.85-2.93s1.03-3.13,2.72-3.13c1.9,0,2.4,1.67,2.4,2.73,0,.22-.02.38-.04.49h-4.08ZM281.79,86.04c.01-.67-.28-1.71-1.46-1.71-1.07,0-1.54.98-1.62,1.71h3.08Z" style="fill: #1d1d1b;"/>
          <path d="M283.98,88.42c.31.2.86.42,1.39.42.77,0,1.13-.38,1.13-.86,0-.5-.3-.78-1.08-1.07-1.04-.37-1.54-.95-1.54-1.64,0-.94.76-1.7,2-1.7.59,0,1.1.17,1.43.36l-.26.77c-.23-.14-.65-.34-1.19-.34-.62,0-.97.36-.97.79,0,.48.35.7,1.1.98,1.01.38,1.52.89,1.52,1.75,0,1.02-.79,1.74-2.17,1.74-.64,0-1.22-.16-1.63-.4l.26-.8Z" style="fill: #1d1d1b;"/>
          <path d="M295.64,85.71h-3.14v2.91h3.5v.88h-4.55v-8.08h4.37v.88h-3.32v2.55h3.14v.86Z" style="fill: #1d1d1b;"/>
          <path d="M297.36,81.42h1.04v3.9h.04c.22-.31.43-.6.64-.86l2.47-3.03h1.3l-2.93,3.43,3.15,4.65h-1.23l-2.66-3.97-.77.89v3.08h-1.04v-8.08Z" style="fill: #1d1d1b;"/>
        </g>
      </g>
      <g id="unselbstaendigesEK" class="income-info">
        <rect x="203.87" y="38.99" width="113.62" height="27.56" style="fill: #d2d2d2;"/>
        <g>
          <path d="M214.29,55c0,.6.01,1.13.05,1.58h-.94l-.06-.95h-.02c-.28.47-.89,1.08-1.92,1.08-.91,0-2-.5-2-2.54v-3.39h1.06v3.21c0,1.1.34,1.85,1.3,1.85.71,0,1.2-.49,1.39-.96.06-.16.1-.35.1-.54v-3.56h1.06v4.22Z" style="fill: #1d1d1b;"/>
          <path d="M216.05,52.35c0-.6-.01-1.09-.05-1.57h.94l.06.96h.02c.29-.55.96-1.09,1.92-1.09.8,0,2.05.48,2.05,2.47v3.47h-1.06v-3.35c0-.94-.35-1.71-1.34-1.71-.7,0-1.24.49-1.42,1.08-.05.13-.07.31-.07.49v3.49h-1.06v-4.23Z" style="fill: #1d1d1b;"/>
          <path d="M222.56,55.5c.31.2.86.42,1.39.42.77,0,1.13-.38,1.13-.86,0-.5-.3-.78-1.08-1.07-1.04-.37-1.54-.95-1.54-1.64,0-.94.76-1.7,2-1.7.59,0,1.1.17,1.43.36l-.26.77c-.23-.14-.65-.34-1.19-.34-.62,0-.97.36-.97.79,0,.48.35.7,1.1.98,1.01.38,1.52.89,1.52,1.75,0,1.02-.79,1.74-2.17,1.74-.64,0-1.22-.16-1.63-.4l.26-.8Z" style="fill: #1d1d1b;"/>
          <path d="M228.05,53.87c.02,1.43.94,2.01,1.99,2.01.76,0,1.21-.13,1.61-.3l.18.76c-.37.17-1.01.36-1.93.36-1.79,0-2.85-1.18-2.85-2.93s1.03-3.13,2.72-3.13c1.9,0,2.4,1.67,2.4,2.73,0,.22-.02.38-.04.49h-4.08ZM231.14,53.12c.01-.67-.28-1.71-1.46-1.71-1.07,0-1.54.98-1.62,1.71h3.08Z" style="fill: #1d1d1b;"/>
          <path d="M233.47,48.07h1.06v8.52h-1.06v-8.52Z" style="fill: #1d1d1b;"/>
          <path d="M236.25,56.58c.02-.4.05-.98.05-1.5v-7.02h1.04v3.65h.02c.37-.65,1.04-1.07,1.98-1.07,1.44,0,2.46,1.2,2.45,2.96,0,2.07-1.31,3.11-2.6,3.11-.84,0-1.51-.32-1.94-1.09h-.04l-.05.96h-.91ZM237.34,54.25c0,.13.02.26.05.38.2.73.82,1.24,1.58,1.24,1.1,0,1.76-.9,1.76-2.23,0-1.16-.6-2.16-1.73-2.16-.72,0-1.39.49-1.61,1.3-.02.12-.06.26-.06.43v1.04Z" style="fill: #1d1d1b;"/>
          <path d="M242.98,55.5c.31.2.86.42,1.39.42.77,0,1.13-.38,1.13-.86,0-.5-.3-.78-1.08-1.07-1.04-.37-1.54-.95-1.54-1.64,0-.94.76-1.7,2-1.7.59,0,1.1.17,1.43.36l-.26.77c-.23-.14-.65-.34-1.19-.34-.62,0-.97.36-.97.79,0,.48.35.7,1.1.98,1.01.38,1.52.89,1.52,1.75,0,1.02-.79,1.74-2.17,1.74-.64,0-1.22-.16-1.63-.4l.26-.8Z" style="fill: #1d1d1b;"/>
          <path d="M249.15,49.11v1.67h1.51v.8h-1.51v3.13c0,.72.2,1.13.79,1.13.28,0,.48-.04.61-.07l.05.79c-.2.08-.53.14-.94.14-.49,0-.89-.16-1.14-.44-.3-.31-.41-.83-.41-1.51v-3.17h-.9v-.8h.9v-1.39l1.03-.28Z" style="fill: #1d1d1b;"/>
          <path d="M251.71,55.5c.31.2.86.42,1.39.42.77,0,1.13-.38,1.13-.86,0-.5-.3-.78-1.08-1.07-1.04-.37-1.54-.95-1.54-1.64,0-.94.76-1.7,2-1.7.59,0,1.1.17,1.43.36l-.26.77c-.23-.14-.65-.34-1.19-.34-.62,0-.97.36-.97.79,0,.48.35.7,1.1.98,1.01.38,1.52.89,1.52,1.75,0,1.02-.79,1.74-2.17,1.74-.64,0-1.22-.16-1.63-.4l.26-.8Z" style="fill: #1d1d1b;"/>
          <path d="M257.88,49.11v1.67h1.51v.8h-1.51v3.13c0,.72.2,1.13.79,1.13.28,0,.48-.04.61-.07l.05.79c-.2.08-.53.14-.94.14-.49,0-.89-.16-1.14-.44-.3-.31-.41-.83-.41-1.51v-3.17h-.9v-.8h.9v-1.39l1.03-.28Z" style="fill: #1d1d1b;"/>
          <path d="M263.79,56.58l-.08-.73h-.04c-.32.46-.95.86-1.77.86-1.18,0-1.77-.83-1.77-1.67,0-1.4,1.25-2.17,3.49-2.16v-.12c0-.48-.13-1.34-1.32-1.34-.54,0-1.1.17-1.51.43l-.24-.7c.48-.31,1.18-.52,1.91-.52,1.77,0,2.21,1.21,2.21,2.37v2.17c0,.5.02,1,.1,1.39h-.96ZM260.88,49.13c0-.34.28-.61.61-.61s.59.26.59.61c0,.32-.24.61-.59.61s-.61-.29-.61-.61ZM263.64,53.62c-1.15-.02-2.46.18-2.46,1.31,0,.68.46,1.01,1,1.01.76,0,1.24-.48,1.4-.97.04-.11.06-.23.06-.34v-1.01ZM263.11,49.13c0-.34.26-.61.6-.61s.59.26.59.61c0,.32-.24.61-.59.61s-.6-.29-.6-.61Z" style="fill: #1d1d1b;"/>
          <path d="M266.36,52.35c0-.6-.01-1.09-.05-1.57h.94l.06.96h.02c.29-.55.96-1.09,1.92-1.09.8,0,2.05.48,2.05,2.47v3.47h-1.06v-3.35c0-.94-.35-1.71-1.34-1.71-.7,0-1.24.49-1.42,1.08-.05.13-.07.31-.07.49v3.49h-1.06v-4.23Z" style="fill: #1d1d1b;"/>
          <path d="M278.03,48.07v7.02c0,.52.01,1.1.05,1.5h-.95l-.05-1.01h-.02c-.32.65-1.03,1.14-1.98,1.14-1.4,0-2.48-1.19-2.48-2.95-.01-1.93,1.19-3.12,2.6-3.12.89,0,1.49.42,1.75.89h.02v-3.47h1.06ZM276.98,53.14c0-.13-.01-.31-.05-.44-.16-.67-.73-1.22-1.52-1.22-1.09,0-1.74.96-1.74,2.24,0,1.18.58,2.15,1.72,2.15.71,0,1.35-.47,1.55-1.26.04-.14.05-.29.05-.46v-1.01Z" style="fill: #1d1d1b;"/>
          <path d="M280.96,49.15c.01.36-.25.65-.67.65-.37,0-.64-.29-.64-.65s.28-.66.66-.66.65.29.65.66ZM279.79,56.58v-5.8h1.06v5.8h-1.06Z" style="fill: #1d1d1b;"/>
          <path d="M287.6,50.78c-.02.42-.05.89-.05,1.6v3.37c0,1.33-.26,2.15-.83,2.65-.56.53-1.38.7-2.11.7s-1.46-.17-1.93-.48l.26-.8c.38.24.98.46,1.7.46,1.08,0,1.87-.56,1.87-2.03v-.65h-.02c-.32.54-.95.97-1.85.97-1.44,0-2.47-1.22-2.47-2.83,0-1.97,1.28-3.08,2.61-3.08,1.01,0,1.56.53,1.81,1.01h.02l.05-.88h.92ZM286.51,53.07c0-.18-.01-.34-.06-.48-.19-.61-.71-1.12-1.48-1.12-1.01,0-1.73.85-1.73,2.19,0,1.14.58,2.09,1.72,2.09.65,0,1.24-.41,1.46-1.08.06-.18.08-.38.08-.56v-1.04Z" style="fill: #1d1d1b;"/>
          <path d="M289.89,53.87c.02,1.43.94,2.01,1.99,2.01.76,0,1.21-.13,1.61-.3l.18.76c-.37.17-1.01.36-1.93.36-1.79,0-2.85-1.18-2.85-2.93s1.03-3.13,2.72-3.13c1.9,0,2.4,1.67,2.4,2.73,0,.22-.02.38-.04.49h-4.08ZM292.99,53.12c.01-.67-.28-1.71-1.46-1.71-1.07,0-1.54.98-1.62,1.71h3.08Z" style="fill: #1d1d1b;"/>
          <path d="M295.17,55.5c.31.2.86.42,1.39.42.77,0,1.13-.38,1.13-.86,0-.5-.3-.78-1.08-1.07-1.04-.37-1.54-.95-1.54-1.64,0-.94.76-1.7,2-1.7.59,0,1.1.17,1.43.36l-.26.77c-.23-.14-.65-.34-1.19-.34-.62,0-.97.36-.97.79,0,.48.35.7,1.1.98,1.01.38,1.52.89,1.52,1.75,0,1.02-.79,1.74-2.17,1.74-.64,0-1.22-.16-1.63-.4l.26-.8Z" style="fill: #1d1d1b;"/>
          <path d="M306.83,52.79h-3.14v2.91h3.5v.88h-4.55v-8.08h4.37v.88h-3.32v2.55h3.14v.86Z" style="fill: #1d1d1b;"/>
          <path d="M308.55,48.5h1.04v3.9h.04c.22-.31.43-.6.64-.86l2.47-3.03h1.3l-2.93,3.43,3.15,4.65h-1.24l-2.66-3.97-.77.89v3.08h-1.04v-8.08Z" style="fill: #1d1d1b;"/>
        </g>
      </g>
      <g id="Einkommen-2" data-name="Einkommen">
        <rect x="203.87" y="1.71" width="175.38" height="27.56" style="fill: #bdbdbd;"/>
        <g>
          <path d="M264.03,14.69h-4.19v3.89h4.67v1.17h-6.07v-10.79h5.83v1.17h-4.43v3.41h4.19v1.15Z" style="fill: #1d1d1b;"/>
          <path d="M267.83,9.82c.02.48-.34.86-.9.86-.5,0-.85-.38-.85-.86s.37-.88.88-.88.86.38.86.88ZM266.26,19.75v-7.75h1.41v7.75h-1.41Z" style="fill: #1d1d1b;"/>
          <path d="M270.01,14.1c0-.8-.02-1.46-.06-2.1h1.25l.08,1.28h.03c.38-.74,1.28-1.46,2.56-1.46,1.07,0,2.74.64,2.74,3.3v4.63h-1.41v-4.47c0-1.25-.46-2.29-1.79-2.29-.93,0-1.65.66-1.89,1.44-.06.18-.1.42-.1.66v4.66h-1.41v-5.65Z" style="fill: #1d1d1b;"/>
          <path d="M280.28,15.55h.03c.19-.27.46-.61.69-.88l2.27-2.67h1.7l-2.99,3.19,3.41,4.56h-1.71l-2.67-3.71-.72.8v2.91h-1.39v-11.36h1.39v7.17Z" style="fill: #1d1d1b;"/>
          <path d="M293.4,15.81c0,2.87-1.98,4.11-3.86,4.11-2.1,0-3.71-1.54-3.71-3.99,0-2.59,1.7-4.11,3.84-4.11s3.73,1.62,3.73,3.99ZM287.26,15.89c0,1.7.98,2.98,2.35,2.98s2.35-1.26,2.35-3.01c0-1.31-.66-2.98-2.32-2.98s-2.39,1.54-2.39,3.01Z" style="fill: #1d1d1b;"/>
          <path d="M295.18,14.1c0-.8-.02-1.46-.06-2.1h1.23l.06,1.25h.05c.43-.74,1.15-1.42,2.43-1.42,1.06,0,1.86.64,2.19,1.55h.03c.24-.43.54-.77.86-1.01.46-.35.98-.54,1.71-.54,1.02,0,2.54.67,2.54,3.36v4.56h-1.38v-4.39c0-1.49-.54-2.38-1.68-2.38-.8,0-1.42.59-1.67,1.28-.06.19-.11.45-.11.7v4.79h-1.38v-4.64c0-1.23-.54-2.13-1.62-2.13-.88,0-1.52.7-1.74,1.41-.08.21-.11.45-.11.69v4.67h-1.38v-5.65Z" style="fill: #1d1d1b;"/>
          <path d="M308.52,14.1c0-.8-.02-1.46-.06-2.1h1.23l.06,1.25h.05c.43-.74,1.15-1.42,2.43-1.42,1.06,0,1.86.64,2.19,1.55h.03c.24-.43.54-.77.86-1.01.46-.35.98-.54,1.71-.54,1.02,0,2.54.67,2.54,3.36v4.56h-1.38v-4.39c0-1.49-.54-2.38-1.68-2.38-.8,0-1.42.59-1.67,1.28-.06.19-.11.45-.11.7v4.79h-1.38v-4.64c0-1.23-.54-2.13-1.62-2.13-.88,0-1.52.7-1.74,1.41-.08.21-.11.45-.11.69v4.67h-1.38v-5.65Z" style="fill: #1d1d1b;"/>
          <path d="M322.65,16.13c.03,1.9,1.25,2.69,2.66,2.69,1.01,0,1.62-.18,2.15-.4l.24,1.01c-.5.22-1.34.48-2.58.48-2.39,0-3.81-1.57-3.81-3.91s1.38-4.18,3.63-4.18c2.53,0,3.2,2.23,3.2,3.65,0,.29-.03.51-.05.66h-5.44ZM326.78,15.12c.02-.9-.37-2.29-1.95-2.29-1.42,0-2.05,1.31-2.16,2.29h4.11Z" style="fill: #1d1d1b;"/>
          <path d="M329.88,14.1c0-.8-.02-1.46-.06-2.1h1.25l.08,1.28h.03c.38-.74,1.28-1.46,2.56-1.46,1.07,0,2.74.64,2.74,3.3v4.63h-1.41v-4.47c0-1.25-.46-2.29-1.79-2.29-.93,0-1.65.66-1.89,1.44-.06.18-.1.42-.1.66v4.66h-1.41v-5.65Z" style="fill: #1d1d1b;"/>
        </g>
      </g>
    </g>
    <g id="verfuegbaresEK">
      <rect y="1.71" width="175.38" height="27.56" style="fill: #f0ae9f; opacity: .5;"/>
      <g>
        <path d="M8.79,19.92l-3.52-10.79h1.5l1.68,5.31c.46,1.46.86,2.77,1.15,4.03h.03c.3-1.25.75-2.61,1.23-4.02l1.82-5.33h1.49l-3.86,10.79h-1.54Z" style="fill: #1d1d1b;"/>
        <path d="M15.55,16.3c.03,1.9,1.25,2.69,2.66,2.69,1.01,0,1.62-.18,2.15-.4l.24,1.01c-.5.22-1.34.48-2.58.48-2.39,0-3.81-1.57-3.81-3.91s1.38-4.18,3.63-4.18c2.53,0,3.2,2.23,3.2,3.65,0,.29-.03.51-.05.66h-5.44ZM19.68,15.3c.02-.9-.37-2.29-1.95-2.29-1.42,0-2.05,1.31-2.16,2.29h4.11Z" style="fill: #1d1d1b;"/>
        <path d="M22.78,14.59c0-.91-.02-1.7-.06-2.42h1.23l.05,1.52h.06c.35-1.04,1.2-1.7,2.14-1.7.16,0,.27.02.4.05v1.33c-.14-.03-.29-.05-.48-.05-.99,0-1.7.75-1.89,1.81-.03.19-.06.42-.06.66v4.13h-1.39v-5.33Z" style="fill: #1d1d1b;"/>
        <path d="M28.64,19.92v-6.67h-1.09v-1.07h1.09v-.37c0-1.09.24-2.08.9-2.71.53-.51,1.23-.72,1.89-.72.5,0,.93.11,1.2.22l-.19,1.09c-.21-.1-.5-.18-.9-.18-1.2,0-1.5,1.06-1.5,2.24v.42h1.87v1.07h-1.87v6.67h-1.39Z" style="fill: #1d1d1b;"/>
        <path d="M39.65,17.81c0,.8.02,1.5.06,2.11h-1.25l-.08-1.26h-.03c-.37.62-1.18,1.44-2.56,1.44-1.22,0-2.67-.67-2.67-3.39v-4.53h1.41v4.29c0,1.47.45,2.47,1.73,2.47.94,0,1.6-.66,1.86-1.28.08-.21.13-.46.13-.72v-4.75h1.41v5.63ZM34.16,9.98c0-.45.37-.82.82-.82s.78.35.78.82c0,.43-.32.82-.78.82s-.82-.38-.82-.82ZM37.14,9.98c0-.45.35-.82.8-.82s.78.35.78.82c0,.43-.32.82-.78.82s-.8-.38-.8-.82Z" style="fill: #1d1d1b;"/>
        <path d="M48.66,12.17c-.03.56-.06,1.18-.06,2.13v4.5c0,1.78-.35,2.87-1.1,3.54-.75.7-1.84.93-2.82.93s-1.95-.22-2.58-.64l.35-1.07c.51.32,1.31.61,2.27.61,1.44,0,2.5-.75,2.5-2.71v-.86h-.03c-.43.72-1.26,1.3-2.46,1.3-1.92,0-3.3-1.63-3.3-3.78,0-2.62,1.71-4.11,3.49-4.11,1.34,0,2.08.7,2.42,1.34h.03l.06-1.17h1.23ZM47.2,15.23c0-.24-.02-.45-.08-.64-.26-.82-.94-1.49-1.97-1.49-1.34,0-2.31,1.14-2.31,2.93,0,1.52.77,2.79,2.29,2.79.86,0,1.65-.54,1.95-1.44.08-.24.11-.51.11-.75v-1.39Z" style="fill: #1d1d1b;"/>
        <path d="M50.86,19.92c.03-.53.06-1.31.06-2v-9.36h1.39v4.87h.03c.5-.86,1.39-1.42,2.64-1.42,1.92,0,3.28,1.6,3.27,3.95,0,2.77-1.74,4.15-3.47,4.15-1.12,0-2.02-.43-2.59-1.46h-.05l-.06,1.28h-1.22ZM52.32,16.82c0,.18.03.35.06.51.27.98,1.09,1.65,2.11,1.65,1.47,0,2.35-1.2,2.35-2.98,0-1.55-.8-2.88-2.3-2.88-.96,0-1.86.66-2.15,1.73-.03.16-.08.35-.08.58v1.39Z" style="fill: #1d1d1b;"/>
        <path d="M64.32,19.92l-.11-.98h-.05c-.43.61-1.26,1.15-2.37,1.15-1.57,0-2.37-1.1-2.37-2.23,0-1.87,1.67-2.9,4.66-2.88v-.16c0-.64-.18-1.79-1.76-1.79-.72,0-1.47.22-2.02.58l-.32-.93c.64-.42,1.57-.69,2.54-.69,2.37,0,2.95,1.62,2.95,3.17v2.9c0,.67.03,1.33.13,1.86h-1.28ZM64.11,15.97c-1.54-.03-3.28.24-3.28,1.74,0,.91.61,1.34,1.33,1.34,1.01,0,1.65-.64,1.87-1.3.05-.14.08-.3.08-.45v-1.34Z" style="fill: #1d1d1b;"/>
        <path d="M67.74,14.59c0-.91-.02-1.7-.06-2.42h1.23l.05,1.52h.06c.35-1.04,1.2-1.7,2.14-1.7.16,0,.27.02.4.05v1.33c-.14-.03-.29-.05-.48-.05-.99,0-1.7.75-1.89,1.81-.03.19-.06.42-.06.66v4.13h-1.39v-5.33Z" style="fill: #1d1d1b;"/>
        <path d="M73.6,16.3c.03,1.9,1.25,2.69,2.66,2.69,1.01,0,1.62-.18,2.15-.4l.24,1.01c-.5.22-1.34.48-2.58.48-2.39,0-3.81-1.57-3.81-3.91s1.38-4.18,3.63-4.18c2.53,0,3.2,2.23,3.2,3.65,0,.29-.03.51-.05.66h-5.44ZM77.73,15.3c.02-.9-.37-2.29-1.95-2.29-1.42,0-2.05,1.31-2.16,2.29h4.11Z" style="fill: #1d1d1b;"/>
        <path d="M80.64,18.48c.42.27,1.15.56,1.86.56,1.02,0,1.5-.51,1.5-1.15,0-.67-.4-1.04-1.44-1.42-1.39-.5-2.05-1.26-2.05-2.19,0-1.25,1.01-2.27,2.67-2.27.78,0,1.47.22,1.9.48l-.35,1.02c-.3-.19-.86-.45-1.58-.45-.83,0-1.3.48-1.3,1.06,0,.64.46.93,1.47,1.31,1.34.51,2.03,1.18,2.03,2.34,0,1.36-1.06,2.32-2.9,2.32-.85,0-1.63-.21-2.18-.53l.35-1.07Z" style="fill: #1d1d1b;"/>
        <path d="M96.19,14.86h-4.19v3.89h4.67v1.17h-6.07v-10.79h5.83v1.17h-4.43v3.41h4.19v1.15Z" style="fill: #1d1d1b;"/>
        <path d="M100,10c.02.48-.34.86-.9.86-.5,0-.85-.38-.85-.86s.37-.88.88-.88.86.38.86.88ZM98.43,19.92v-7.75h1.41v7.75h-1.41Z" style="fill: #1d1d1b;"/>
        <path d="M102.18,14.27c0-.8-.02-1.46-.06-2.1h1.25l.08,1.28h.03c.38-.74,1.28-1.46,2.56-1.46,1.07,0,2.74.64,2.74,3.3v4.63h-1.41v-4.47c0-1.25-.46-2.29-1.79-2.29-.93,0-1.65.66-1.89,1.44-.06.18-.1.42-.1.66v4.66h-1.41v-5.65Z" style="fill: #1d1d1b;"/>
        <path d="M112.45,15.73h.03c.19-.27.46-.61.69-.88l2.27-2.67h1.7l-2.99,3.19,3.41,4.56h-1.71l-2.67-3.71-.72.8v2.91h-1.39v-11.36h1.39v7.17Z" style="fill: #1d1d1b;"/>
        <path d="M125.57,15.98c0,2.87-1.98,4.11-3.86,4.11-2.1,0-3.71-1.54-3.71-3.99,0-2.59,1.7-4.11,3.84-4.11s3.73,1.62,3.73,3.99ZM119.42,16.06c0,1.7.98,2.98,2.35,2.98s2.35-1.26,2.35-3.01c0-1.31-.66-2.98-2.32-2.98s-2.39,1.54-2.39,3.01Z" style="fill: #1d1d1b;"/>
        <path d="M127.34,14.27c0-.8-.02-1.46-.06-2.1h1.23l.06,1.25h.05c.43-.74,1.15-1.42,2.43-1.42,1.06,0,1.86.64,2.19,1.55h.03c.24-.43.54-.77.86-1.01.46-.35.98-.54,1.71-.54,1.02,0,2.54.67,2.54,3.36v4.56h-1.38v-4.39c0-1.49-.54-2.38-1.68-2.38-.8,0-1.42.59-1.67,1.28-.06.19-.11.45-.11.7v4.79h-1.38v-4.64c0-1.23-.54-2.13-1.62-2.13-.88,0-1.52.7-1.74,1.41-.08.21-.11.45-.11.69v4.67h-1.38v-5.65Z" style="fill: #1d1d1b;"/>
        <path d="M140.69,14.27c0-.8-.02-1.46-.06-2.1h1.23l.06,1.25h.05c.43-.74,1.15-1.42,2.43-1.42,1.06,0,1.86.64,2.19,1.55h.03c.24-.43.54-.77.86-1.01.46-.35.98-.54,1.71-.54,1.02,0,2.54.67,2.54,3.36v4.56h-1.38v-4.39c0-1.49-.54-2.38-1.68-2.38-.8,0-1.42.59-1.67,1.28-.06.19-.11.45-.11.7v4.79h-1.38v-4.64c0-1.23-.54-2.13-1.62-2.13-.88,0-1.52.7-1.74,1.41-.08.21-.11.45-.11.69v4.67h-1.38v-5.65Z" style="fill: #1d1d1b;"/>
        <path d="M154.81,16.3c.03,1.9,1.25,2.69,2.66,2.69,1.01,0,1.62-.18,2.15-.4l.24,1.01c-.5.22-1.34.48-2.58.48-2.39,0-3.81-1.57-3.81-3.91s1.38-4.18,3.63-4.18c2.53,0,3.2,2.23,3.2,3.65,0,.29-.03.51-.05.66h-5.44ZM158.94,15.3c.02-.9-.37-2.29-1.95-2.29-1.42,0-2.05,1.31-2.16,2.29h4.11Z" style="fill: #1d1d1b;"/>
        <path d="M162.05,14.27c0-.8-.02-1.46-.06-2.1h1.25l.08,1.28h.03c.38-.74,1.28-1.46,2.56-1.46,1.07,0,2.74.64,2.74,3.3v4.63h-1.41v-4.47c0-1.25-.46-2.29-1.79-2.29-.93,0-1.65.66-1.89,1.44-.06.18-.1.42-.1.66v4.66h-1.41v-5.65Z" style="fill: #1d1d1b;"/>
      </g>
    </g>
    <g id="rechenzeichen">
      <path d="M182.67,13.9v-1.67h14.35v1.67h-14.35ZM182.67,19.35v-1.67h14.35v1.67h-14.35Z" style="fill: #1d1d1b;"/>
      <path d="M393.81,14.84v1.81h-6.87v-1.81h6.87Z" style="fill: #1d1d1b;"/>
    </g>
  </g>
</svg>