<?xml version="1.0" encoding="UTF-8"?>
<svg xmlns="http://www.w3.org/2000/svg" version="1.1" viewBox="0 0 614.5 168.3">
  <!-- Generator: Adobe Illustrator 29.4.0, SVG Export Plug-In . SVG Version: 2.1.0 Build 152)  -->
  <defs>
    <style>
      .rd-st0 {
        fill: #1d1d1b;
      }

      .rd-st1 {
        opacity: .5;
      }

      .rd-st1, .rd-st2 {
        fill: #f0ae9f;
      }

      .rd-st3 {
        fill: #f5c7bc;
      }

      .rd-st4 {
        fill: #bdbdbd;
      }

      .rd-st5 {
        fill:rgb(209, 209, 209);
      }
    </style>
  </defs>
  <g id="notwendigeausgaben">
    <g id="gesundheit" class="expenditure-info">
      <rect class="rd-st3" x="503" y="94.1" width="87.7" height="27.6"/>
      <g>
        <path class="rd-st0" d="M524.9,111.5c-.5.2-1.4.4-2.5.4s-2.2-.3-3-1.1c-.7-.7-1.1-1.8-1.1-3,0-2.4,1.7-4.2,4.4-4.2s1.7.2,2,.4l-.3.9c-.4-.2-1-.3-1.8-.3-2,0-3.2,1.2-3.2,3.2s1.2,3.3,3.1,3.3,1.2,0,1.4-.2v-2.4h-1.6v-.8h2.7v3.9Z"/>
        <path class="rd-st0" d="M527.1,109.1c0,1.4.9,2,2,2s1.2-.1,1.6-.3l.2.8c-.4.2-1,.4-1.9.4-1.8,0-2.9-1.2-2.9-2.9s1-3.1,2.7-3.1,2.4,1.7,2.4,2.7,0,.4,0,.5h-4.1ZM530.2,108.3c0-.7-.3-1.7-1.5-1.7s-1.5,1-1.6,1.7h3.1Z"/>
        <path class="rd-st0" d="M532.4,110.7c.3.2.9.4,1.4.4.8,0,1.1-.4,1.1-.9s-.3-.8-1.1-1.1c-1-.4-1.5-.9-1.5-1.6s.8-1.7,2-1.7,1.1.2,1.4.4l-.3.8c-.2-.1-.6-.3-1.2-.3s-1,.4-1,.8.3.7,1.1,1c1,.4,1.5.9,1.5,1.8s-.8,1.7-2.2,1.7-1.2-.2-1.6-.4l.3-.8Z"/>
        <path class="rd-st0" d="M542.2,110.2c0,.6,0,1.1,0,1.6h-.9v-.9h0c-.3.5-.9,1.1-1.9,1.1s-2-.5-2-2.5v-3.4h1.1v3.2c0,1.1.3,1.8,1.3,1.8s1.2-.5,1.4-1c0-.2,0-.3,0-.5v-3.6h1.1v4.2Z"/>
        <path class="rd-st0" d="M543.9,107.6c0-.6,0-1.1,0-1.6h.9v1h0c.3-.6,1-1.1,1.9-1.1s2.1.5,2.1,2.5v3.5h-1.1v-3.3c0-.9-.3-1.7-1.3-1.7s-1.2.5-1.4,1.1c0,.1,0,.3,0,.5v3.5h-1.1v-4.2Z"/>
        <path class="rd-st0" d="M555.6,103.3v7c0,.5,0,1.1,0,1.5h-.9v-1h0c-.3.6-1,1.1-2,1.1-1.4,0-2.5-1.2-2.5-3,0-1.9,1.2-3.1,2.6-3.1s1.5.4,1.8.9h0v-3.5h1.1ZM554.5,108.4c0-.1,0-.3,0-.4-.2-.7-.7-1.2-1.5-1.2s-1.7,1-1.7,2.2.6,2.1,1.7,2.1,1.4-.5,1.5-1.3c0-.1,0-.3,0-.5v-1Z"/>
        <path class="rd-st0" d="M557.3,103.3h1.1v3.6h0c.2-.3.4-.6.8-.7.3-.2.7-.3,1.1-.3.8,0,2,.5,2,2.5v3.5h-1.1v-3.3c0-.9-.3-1.7-1.3-1.7s-1.2.5-1.4,1.1c0,.1,0,.3,0,.5v3.5h-1.1v-8.5Z"/>
        <path class="rd-st0" d="M564.6,109.1c0,1.4.9,2,2,2s1.2-.1,1.6-.3l.2.8c-.4.2-1,.4-1.9.4-1.8,0-2.9-1.2-2.9-2.9s1-3.1,2.7-3.1,2.4,1.7,2.4,2.7,0,.4,0,.5h-4.1ZM567.7,108.3c0-.7-.3-1.7-1.5-1.7s-1.5,1-1.6,1.7h3.1Z"/>
        <path class="rd-st0" d="M571.2,104.4c0,.4-.3.6-.7.6s-.6-.3-.6-.6.3-.7.7-.7.6.3.6.7ZM570,111.8v-5.8h1.1v5.8h-1.1Z"/>
        <path class="rd-st0" d="M574.1,104.3v1.7h1.5v.8h-1.5v3.1c0,.7.2,1.1.8,1.1s.5,0,.6,0v.8c-.2,0-.5.1-.9.1s-.9-.2-1.1-.4c-.3-.3-.4-.8-.4-1.5v-3.2h-.9v-.8h.9v-1.4l1-.3Z"/>
      </g>
    </g>
    <g id="bildung" class="expenditure-info">
      <rect class="rd-st3" x="415.3" y="94.1" width="83" height="27.6"/>
      <g>
        <path class="rd-st0" d="M435.9,103.8c.5,0,1.2-.2,1.9-.2,1,0,1.7.2,2.2.6.4.3.7.8.7,1.4s-.5,1.5-1.4,1.8h0c.8.2,1.7.9,1.7,2.1s-.3,1.2-.7,1.6c-.6.5-1.5.8-2.8.8s-1.3,0-1.6,0v-8ZM437,107.1h.9c1.1,0,1.8-.6,1.8-1.4s-.7-1.3-1.8-1.3-.8,0-.9,0v2.6ZM437,111c.2,0,.5,0,.9,0,1.1,0,2.1-.4,2.1-1.6s-.9-1.6-2.1-1.6h-.9v3.1Z"/>
        <path class="rd-st0" d="M443.6,104.4c0,.4-.3.6-.7.6s-.6-.3-.6-.6.3-.7.7-.7.6.3.6.7ZM442.4,111.8v-5.8h1.1v5.8h-1.1Z"/>
        <path class="rd-st0" d="M445.2,103.3h1.1v8.5h-1.1v-8.5Z"/>
        <path class="rd-st0" d="M453.1,103.3v7c0,.5,0,1.1,0,1.5h-.9v-1h0c-.3.6-1,1.1-2,1.1-1.4,0-2.5-1.2-2.5-3,0-1.9,1.2-3.1,2.6-3.1s1.5.4,1.8.9h0v-3.5h1.1ZM452,108.4c0-.1,0-.3,0-.4-.2-.7-.7-1.2-1.5-1.2s-1.7,1-1.7,2.2.6,2.1,1.7,2.1,1.4-.5,1.5-1.3c0-.1,0-.3,0-.5v-1Z"/>
        <path class="rd-st0" d="M459.7,110.2c0,.6,0,1.1,0,1.6h-.9v-.9h0c-.3.5-.9,1.1-1.9,1.1s-2-.5-2-2.5v-3.4h1.1v3.2c0,1.1.3,1.8,1.3,1.8s1.2-.5,1.4-1c0-.2,0-.3,0-.5v-3.6h1.1v4.2Z"/>
        <path class="rd-st0" d="M461.4,107.6c0-.6,0-1.1,0-1.6h.9v1h0c.3-.6,1-1.1,1.9-1.1s2.1.5,2.1,2.5v3.5h-1.1v-3.3c0-.9-.3-1.7-1.3-1.7s-1.2.5-1.4,1.1c0,.1,0,.3,0,.5v3.5h-1.1v-4.2Z"/>
        <path class="rd-st0" d="M473.1,106c0,.4,0,.9,0,1.6v3.4c0,1.3-.3,2.1-.8,2.7-.6.5-1.4.7-2.1.7s-1.5-.2-1.9-.5l.3-.8c.4.2,1,.5,1.7.5,1.1,0,1.9-.6,1.9-2v-.6h0c-.3.5-.9,1-1.8,1-1.4,0-2.5-1.2-2.5-2.8s1.3-3.1,2.6-3.1,1.6.5,1.8,1h0v-.9h1ZM472,108.3c0-.2,0-.3,0-.5-.2-.6-.7-1.1-1.5-1.1s-1.7.9-1.7,2.2.6,2.1,1.7,2.1,1.2-.4,1.5-1.1c0-.2,0-.4,0-.6v-1Z"/>
      </g>
    </g>
    <g id="energie" class="expenditure-info">
      <rect class="rd-st3" x="539.2" y="61.3" width="51.2" height="27.6"/>
      <g>
        <path class="rd-st0" d="M551.3,75.2h-3.1v2.9h3.5v.9h-4.5v-8.1h4.4v.9h-3.3v2.6h3.1v.9Z"/>
        <path class="rd-st0" d="M553,74.8c0-.6,0-1.1,0-1.6h.9v1h0c.3-.6,1-1.1,1.9-1.1s2.1.5,2.1,2.5v3.5h-1.1v-3.3c0-.9-.3-1.7-1.3-1.7s-1.2.5-1.4,1.1c0,.1,0,.3,0,.5v3.5h-1.1v-4.2Z"/>
        <path class="rd-st0" d="M560.2,76.3c0,1.4.9,2,2,2s1.2-.1,1.6-.3l.2.8c-.4.2-1,.4-1.9.4-1.8,0-2.9-1.2-2.9-2.9s1-3.1,2.7-3.1,2.4,1.7,2.4,2.7,0,.4,0,.5h-4.1ZM563.3,75.5c0-.7-.3-1.7-1.5-1.7s-1.5,1-1.6,1.7h3.1Z"/>
        <path class="rd-st0" d="M565.6,75c0-.7,0-1.3,0-1.8h.9v1.1h0c.3-.8.9-1.3,1.6-1.3s.2,0,.3,0v1c-.1,0-.2,0-.4,0-.7,0-1.3.6-1.4,1.4,0,.1,0,.3,0,.5v3.1h-1v-4Z"/>
        <path class="rd-st0" d="M574.5,73.2c0,.4,0,.9,0,1.6v3.4c0,1.3-.3,2.1-.8,2.7-.6.5-1.4.7-2.1.7s-1.5-.2-1.9-.5l.3-.8c.4.2,1,.5,1.7.5,1.1,0,1.9-.6,1.9-2v-.6h0c-.3.5-.9,1-1.8,1-1.4,0-2.5-1.2-2.5-2.8s1.3-3.1,2.6-3.1,1.6.5,1.8,1h0v-.9h1ZM573.4,75.5c0-.2,0-.3,0-.5-.2-.6-.7-1.1-1.5-1.1s-1.7.9-1.7,2.2.6,2.1,1.7,2.1,1.2-.4,1.5-1.1c0-.2,0-.4,0-.6v-1Z"/>
        <path class="rd-st0" d="M577.3,71.6c0,.4-.3.6-.7.6s-.6-.3-.6-.6.3-.7.7-.7.6.3.6.7ZM576.1,79v-5.8h1.1v5.8h-1.1Z"/>
        <path class="rd-st0" d="M579.5,76.3c0,1.4.9,2,2,2s1.2-.1,1.6-.3l.2.8c-.4.2-1,.4-1.9.4-1.8,0-2.9-1.2-2.9-2.9s1-3.1,2.7-3.1,2.4,1.7,2.4,2.7,0,.4,0,.5h-4.1ZM582.6,75.5c0-.7-.3-1.7-1.5-1.7s-1.5,1-1.6,1.7h3.1Z"/>
      </g>
    </g>
    <g id="wohnen" class="expenditure-info">
      <rect class="rd-st3" x="477.6" y="61.8" width="55.4" height="27.6"/>
      <g>
        <path class="rd-st0" d="M486.4,79.5l-2.1-8.1h1.1l1,4.1c.2,1,.5,2,.6,2.8h0c.1-.8.4-1.8.7-2.8l1.1-4.1h1.1l1,4.1c.2,1,.4,1.9.6,2.8h0c.2-.9.4-1.8.6-2.8l1.1-4.1h1.1l-2.3,8.1h-1.1l-1-4.2c-.3-1-.4-1.8-.5-2.6h0c-.1.8-.3,1.6-.6,2.6l-1.2,4.2h-1.1Z"/>
        <path class="rd-st0" d="M500,76.5c0,2.1-1.5,3.1-2.9,3.1s-2.8-1.2-2.8-3,1.3-3.1,2.9-3.1,2.8,1.2,2.8,3ZM495.4,76.6c0,1.3.7,2.2,1.8,2.2s1.8-.9,1.8-2.3-.5-2.2-1.7-2.2-1.8,1.2-1.8,2.3Z"/>
        <path class="rd-st0" d="M501.3,71h1.1v3.6h0c.2-.3.4-.6.8-.7.3-.2.7-.3,1.1-.3.8,0,2,.5,2,2.5v3.5h-1.1v-3.3c0-.9-.3-1.7-1.3-1.7s-1.2.5-1.4,1.1c0,.1,0,.3,0,.5v3.5h-1.1v-8.5Z"/>
        <path class="rd-st0" d="M508,75.2c0-.6,0-1.1,0-1.6h.9v1h0c.3-.6,1-1.1,1.9-1.1s2.1.5,2.1,2.5v3.5h-1.1v-3.3c0-.9-.3-1.7-1.3-1.7s-1.2.5-1.4,1.1c0,.1,0,.3,0,.5v3.5h-1.1v-4.2Z"/>
        <path class="rd-st0" d="M515.3,76.8c0,1.4.9,2,2,2s1.2-.1,1.6-.3l.2.8c-.4.2-1,.4-1.9.4-1.8,0-2.9-1.2-2.9-2.9s1-3.1,2.7-3.1,2.4,1.7,2.4,2.7,0,.4,0,.5h-4.1ZM518.4,76c0-.7-.3-1.7-1.5-1.7s-1.5,1-1.6,1.7h3.1Z"/>
        <path class="rd-st0" d="M520.7,75.2c0-.6,0-1.1,0-1.6h.9v1h0c.3-.6,1-1.1,1.9-1.1s2.1.5,2.1,2.5v3.5h-1.1v-3.3c0-.9-.3-1.7-1.3-1.7s-1.2.5-1.4,1.1c0,.1,0,.3,0,.5v3.5h-1.1v-4.2Z"/>
      </g>
    </g>
    <g id="nahrung" class="expenditure-info">
      <rect class="rd-st3" x="415.3" y="61.3" width="56.1" height="27.6"/>
      <g>
        <path class="rd-st0" d="M422.6,79v-8.1h1.1l2.6,4.1c.6.9,1.1,1.8,1.5,2.6h0c0-1.1-.1-2.1-.1-3.3v-3.4h1v8.1h-1.1l-2.6-4.1c-.6-.9-1.1-1.8-1.5-2.7h0c0,1,0,2,0,3.3v3.5h-1Z"/>
        <path class="rd-st0" d="M433.7,79v-.7h-.1c-.3.5-.9.9-1.8.9-1.2,0-1.8-.8-1.8-1.7,0-1.4,1.2-2.2,3.5-2.2h0c0-.6-.1-1.5-1.3-1.5s-1.1.2-1.5.4l-.2-.7c.5-.3,1.2-.5,1.9-.5,1.8,0,2.2,1.2,2.2,2.4v2.2c0,.5,0,1,0,1.4h-1ZM433.5,76c-1.2,0-2.5.2-2.5,1.3s.5,1,1,1,1.2-.5,1.4-1c0-.1,0-.2,0-.3v-1Z"/>
        <path class="rd-st0" d="M436.2,70.5h1.1v3.6h0c.2-.3.4-.6.8-.7.3-.2.7-.3,1.1-.3.8,0,2,.5,2,2.5v3.5h-1.1v-3.3c0-.9-.3-1.7-1.3-1.7s-1.2.5-1.4,1.1c0,.1,0,.3,0,.5v3.5h-1.1v-8.5Z"/>
        <path class="rd-st0" d="M442.9,75c0-.7,0-1.3,0-1.8h.9v1.1h0c.3-.8.9-1.3,1.6-1.3s.2,0,.3,0v1c-.1,0-.2,0-.4,0-.7,0-1.3.6-1.4,1.4,0,.1,0,.3,0,.5v3.1h-1v-4Z"/>
        <path class="rd-st0" d="M451.7,77.4c0,.6,0,1.1,0,1.6h-.9v-.9h0c-.3.5-.9,1.1-1.9,1.1s-2-.5-2-2.5v-3.4h1.1v3.2c0,1.1.3,1.8,1.3,1.8s1.2-.5,1.4-1c0-.2,0-.3,0-.5v-3.6h1.1v4.2Z"/>
        <path class="rd-st0" d="M453.4,74.8c0-.6,0-1.1,0-1.6h.9v1h0c.3-.6,1-1.1,1.9-1.1s2.1.5,2.1,2.5v3.5h-1.1v-3.3c0-.9-.3-1.7-1.3-1.7s-1.2.5-1.4,1.1c0,.1,0,.3,0,.5v3.5h-1.1v-4.2Z"/>
        <path class="rd-st0" d="M465.1,73.2c0,.4,0,.9,0,1.6v3.4c0,1.3-.3,2.1-.8,2.7-.6.5-1.4.7-2.1.7s-1.5-.2-1.9-.5l.3-.8c.4.2,1,.5,1.7.5,1.1,0,1.9-.6,1.9-2v-.6h0c-.3.5-.9,1-1.8,1-1.4,0-2.5-1.2-2.5-2.8s1.3-3.1,2.6-3.1,1.6.5,1.8,1h0v-.9h1ZM464,75.5c0-.2,0-.3,0-.5-.2-.6-.7-1.1-1.5-1.1s-1.7.9-1.7,2.2.6,2.1,1.7,2.1,1.2-.4,1.5-1.1c0-.2,0-.4,0-.6v-1Z"/>
      </g>
    </g>
    <g id="notwendigeausgaben1" data-name="notwendigeausgaben">
      <rect class="rd-st2" x="415.3" y="24" width="175.4" height="27.6"/>
      <g>
        <path class="rd-st0" d="M430.6,36c0-.8,0-1.5,0-2.1h1.2v1.3h.1c.4-.7,1.3-1.5,2.6-1.5s2.7.6,2.7,3.3v4.6h-1.4v-4.5c0-1.2-.5-2.3-1.8-2.3s-1.6.7-1.9,1.4c0,.2,0,.4,0,.7v4.7h-1.4v-5.7Z"/>
        <path class="rd-st0" d="M446.5,37.7c0,2.9-2,4.1-3.9,4.1s-3.7-1.5-3.7-4,1.7-4.1,3.8-4.1,3.7,1.6,3.7,4ZM440.3,37.8c0,1.7,1,3,2.4,3s2.4-1.3,2.4-3-.7-3-2.3-3-2.4,1.5-2.4,3Z"/>
        <path class="rd-st0" d="M449.9,31.7v2.2h2v1.1h-2v4.2c0,1,.3,1.5,1.1,1.5s.6,0,.8,0v1.1c-.2.1-.6.2-1.2.2s-1.2-.2-1.5-.6c-.4-.4-.5-1.1-.5-2v-4.2h-1.2v-1.1h1.2v-1.9l1.4-.4Z"/>
        <path class="rd-st0" d="M454.2,33.9l1,3.9c.2.9.4,1.7.6,2.5h0c.2-.8.4-1.6.7-2.4l1.3-4h1.2l1.2,3.9c.3.9.5,1.7.7,2.5h0c.1-.8.3-1.6.6-2.5l1.1-3.9h1.4l-2.5,7.7h-1.3l-1.2-3.7c-.3-.9-.5-1.6-.7-2.5h0c-.2.9-.4,1.7-.7,2.6l-1.2,3.7h-1.3l-2.3-7.7h1.4Z"/>
        <path class="rd-st0" d="M466.1,38c0,1.9,1.2,2.7,2.7,2.7s1.6-.2,2.1-.4l.2,1c-.5.2-1.3.5-2.6.5-2.4,0-3.8-1.6-3.8-3.9s1.4-4.2,3.6-4.2,3.2,2.2,3.2,3.6,0,.5,0,.7h-5.4ZM470.2,37c0-.9-.4-2.3-2-2.3s-2,1.3-2.2,2.3h4.1Z"/>
        <path class="rd-st0" d="M473.3,36c0-.8,0-1.5,0-2.1h1.2v1.3h.1c.4-.7,1.3-1.5,2.6-1.5s2.7.6,2.7,3.3v4.6h-1.4v-4.5c0-1.2-.5-2.3-1.8-2.3s-1.6.7-1.9,1.4c0,.2,0,.4,0,.7v4.7h-1.4v-5.7Z"/>
        <path class="rd-st0" d="M488.9,30.3v9.4c0,.7,0,1.5,0,2h-1.3v-1.3h0c-.4.9-1.4,1.5-2.6,1.5-1.9,0-3.3-1.6-3.3-3.9,0-2.6,1.6-4.2,3.5-4.2s2,.6,2.3,1.2h0v-4.6h1.4ZM487.5,37.1c0-.2,0-.4,0-.6-.2-.9-1-1.6-2-1.6s-2.3,1.3-2.3,3,.8,2.9,2.3,2.9,1.8-.6,2.1-1.7c0-.2,0-.4,0-.6v-1.3Z"/>
        <path class="rd-st0" d="M492.8,31.7c0,.5-.3.9-.9.9s-.8-.4-.8-.9.4-.9.9-.9.9.4.9.9ZM491.2,41.7v-7.7h1.4v7.7h-1.4Z"/>
        <path class="rd-st0" d="M501.6,33.9c0,.6,0,1.2,0,2.1v4.5c0,1.8-.4,2.9-1.1,3.5-.8.7-1.8.9-2.8.9s-2-.2-2.6-.6l.4-1.1c.5.3,1.3.6,2.3.6,1.4,0,2.5-.8,2.5-2.7v-.9h0c-.4.7-1.3,1.3-2.5,1.3-1.9,0-3.3-1.6-3.3-3.8s1.7-4.1,3.5-4.1,2.1.7,2.4,1.3h0v-1.2h1.3ZM500.2,37c0-.2,0-.4,0-.6-.3-.8-.9-1.5-2-1.5s-2.3,1.1-2.3,2.9.8,2.8,2.3,2.8,1.6-.5,2-1.4c0-.2.1-.5.1-.8v-1.4Z"/>
        <path class="rd-st0" d="M504.7,38c0,1.9,1.2,2.7,2.7,2.7s1.6-.2,2.1-.4l.2,1c-.5.2-1.3.5-2.6.5-2.4,0-3.8-1.6-3.8-3.9s1.4-4.2,3.6-4.2,3.2,2.2,3.2,3.6,0,.5,0,.7h-5.4ZM508.8,37c0-.9-.4-2.3-2-2.3s-2,1.3-2.2,2.3h4.1Z"/>
        <path class="rd-st0" d="M517.1,38.3l-1.1,3.4h-1.4l3.7-10.8h1.7l3.7,10.8h-1.5l-1.2-3.4h-3.8ZM520.6,37.2l-1.1-3.1c-.2-.7-.4-1.3-.6-2h0c-.2.6-.3,1.3-.5,2l-1.1,3.1h3.2Z"/>
        <path class="rd-st0" d="M531.4,39.5c0,.8,0,1.5,0,2.1h-1.2v-1.3h-.1c-.4.6-1.2,1.4-2.6,1.4s-2.7-.7-2.7-3.4v-4.5h1.4v4.3c0,1.5.4,2.5,1.7,2.5s1.6-.7,1.9-1.3c0-.2.1-.5.1-.7v-4.8h1.4v5.6Z"/>
        <path class="rd-st0" d="M533.5,40.2c.4.3,1.2.6,1.9.6,1,0,1.5-.5,1.5-1.2s-.4-1-1.4-1.4c-1.4-.5-2-1.3-2-2.2s1-2.3,2.7-2.3,1.5.2,1.9.5l-.4,1c-.3-.2-.9-.4-1.6-.4s-1.3.5-1.3,1.1.5.9,1.5,1.3c1.3.5,2,1.2,2,2.3s-1.1,2.3-2.9,2.3-1.6-.2-2.2-.5l.4-1.1Z"/>
        <path class="rd-st0" d="M546.7,33.9c0,.6,0,1.2,0,2.1v4.5c0,1.8-.4,2.9-1.1,3.5-.8.7-1.8.9-2.8.9s-2-.2-2.6-.6l.4-1.1c.5.3,1.3.6,2.3.6,1.4,0,2.5-.8,2.5-2.7v-.9h0c-.4.7-1.3,1.3-2.5,1.3-1.9,0-3.3-1.6-3.3-3.8s1.7-4.1,3.5-4.1,2.1.7,2.4,1.3h0v-1.2h1.3ZM545.3,37c0-.2,0-.4,0-.6-.3-.8-.9-1.5-2-1.5s-2.3,1.1-2.3,2.9.8,2.8,2.3,2.8,1.6-.5,2-1.4c0-.2.1-.5.1-.8v-1.4Z"/>
        <path class="rd-st0" d="M553.3,41.7v-1h-.2c-.4.6-1.3,1.2-2.4,1.2-1.6,0-2.4-1.1-2.4-2.2,0-1.9,1.7-2.9,4.7-2.9v-.2c0-.6-.2-1.8-1.8-1.8s-1.5.2-2,.6l-.3-.9c.6-.4,1.6-.7,2.5-.7,2.4,0,2.9,1.6,2.9,3.2v2.9c0,.7,0,1.3.1,1.9h-1.3ZM553.1,37.7c-1.5,0-3.3.2-3.3,1.7s.6,1.3,1.3,1.3,1.6-.6,1.9-1.3c0-.1,0-.3,0-.4v-1.3Z"/>
        <path class="rd-st0" d="M556.7,41.7c0-.5,0-1.3,0-2v-9.4h1.4v4.9h0c.5-.9,1.4-1.4,2.6-1.4,1.9,0,3.3,1.6,3.3,4,0,2.8-1.7,4.1-3.5,4.1s-2-.4-2.6-1.5h0v1.3h-1.3ZM558.1,38.5c0,.2,0,.4,0,.5.3,1,1.1,1.6,2.1,1.6,1.5,0,2.4-1.2,2.4-3s-.8-2.9-2.3-2.9-1.9.7-2.1,1.7c0,.2,0,.4,0,.6v1.4Z"/>
        <path class="rd-st0" d="M566.6,38c0,1.9,1.2,2.7,2.7,2.7s1.6-.2,2.1-.4l.2,1c-.5.2-1.3.5-2.6.5-2.4,0-3.8-1.6-3.8-3.9s1.4-4.2,3.6-4.2,3.2,2.2,3.2,3.6,0,.5,0,.7h-5.4ZM570.7,37c0-.9-.4-2.3-2-2.3s-2,1.3-2.2,2.3h4.1Z"/>
        <path class="rd-st0" d="M573.8,36c0-.8,0-1.5,0-2.1h1.2v1.3h.1c.4-.7,1.3-1.5,2.6-1.5s2.7.6,2.7,3.3v4.6h-1.4v-4.5c0-1.2-.5-2.3-1.8-2.3s-1.6.7-1.9,1.4c0,.2,0,.4,0,.7v4.7h-1.4v-5.7Z"/>
      </g>
    </g>
  </g>
  <g id="Einkommen">
    <g id="vermietung" class="income-info">
      <rect class="rd-st5" x="304.1" y="126.9" width="86.8" height="27.6"/>
      <g>
        <path class="rd-st0" d="M319.7,144.6l-2.6-8.1h1.1l1.3,4c.3,1.1.6,2.1.9,3h0c.2-.9.6-2,.9-3l1.4-4h1.1l-2.9,8.1h-1.2Z"/>
        <path class="rd-st0" d="M324.7,141.9c0,1.4.9,2,2,2s1.2-.1,1.6-.3l.2.8c-.4.2-1,.4-1.9.4-1.8,0-2.9-1.2-2.9-2.9s1-3.1,2.7-3.1,2.4,1.7,2.4,2.7,0,.4,0,.5h-4.1ZM327.8,141.2c0-.7-.3-1.7-1.5-1.7s-1.5,1-1.6,1.7h3.1Z"/>
        <path class="rd-st0" d="M330.2,140.6c0-.7,0-1.3,0-1.8h.9v1.1h0c.3-.8.9-1.3,1.6-1.3s.2,0,.3,0v1c-.1,0-.2,0-.4,0-.7,0-1.3.6-1.4,1.4,0,.1,0,.3,0,.5v3.1h-1v-4Z"/>
        <path class="rd-st0" d="M334.1,140.4c0-.6,0-1.1,0-1.6h.9v.9h0c.3-.6.9-1.1,1.8-1.1s1.4.5,1.6,1.2h0c.2-.3.4-.6.6-.8.3-.3.7-.4,1.3-.4s1.9.5,1.9,2.5v3.4h-1v-3.3c0-1.1-.4-1.8-1.3-1.8s-1.1.4-1.2,1c0,.1,0,.3,0,.5v3.6h-1v-3.5c0-.9-.4-1.6-1.2-1.6s-1.1.5-1.3,1.1c0,.2,0,.3,0,.5v3.5h-1v-4.2Z"/>
        <path class="rd-st0" d="M345.3,137.2c0,.4-.3.6-.7.6s-.6-.3-.6-.6.3-.7.7-.7.6.3.6.7ZM344.1,144.6v-5.8h1.1v5.8h-1.1Z"/>
        <path class="rd-st0" d="M347.5,141.9c0,1.4.9,2,2,2s1.2-.1,1.6-.3l.2.8c-.4.2-1,.4-1.9.4-1.8,0-2.9-1.2-2.9-2.9s1-3.1,2.7-3.1,2.4,1.7,2.4,2.7,0,.4,0,.5h-4.1ZM350.6,141.2c0-.7-.3-1.7-1.5-1.7s-1.5,1-1.6,1.7h3.1Z"/>
        <path class="rd-st0" d="M354.2,137.2v1.7h1.5v.8h-1.5v3.1c0,.7.2,1.1.8,1.1s.5,0,.6,0v.8c-.2,0-.5.1-.9.1s-.9-.2-1.1-.4c-.3-.3-.4-.8-.4-1.5v-3.2h-.9v-.8h.9v-1.4l1-.3Z"/>
        <path class="rd-st0" d="M361.8,143c0,.6,0,1.1,0,1.6h-.9v-.9h0c-.3.5-.9,1.1-1.9,1.1s-2-.5-2-2.5v-3.4h1.1v3.2c0,1.1.3,1.8,1.3,1.8s1.2-.5,1.4-1c0-.2,0-.3,0-.5v-3.6h1.1v4.2Z"/>
        <path class="rd-st0" d="M363.5,140.4c0-.6,0-1.1,0-1.6h.9v1h0c.3-.6,1-1.1,1.9-1.1s2.1.5,2.1,2.5v3.5h-1.1v-3.3c0-.9-.3-1.7-1.3-1.7s-1.2.5-1.4,1.1c0,.1,0,.3,0,.5v3.5h-1.1v-4.2Z"/>
        <path class="rd-st0" d="M375.2,138.8c0,.4,0,.9,0,1.6v3.4c0,1.3-.3,2.1-.8,2.7-.6.5-1.4.7-2.1.7s-1.5-.2-1.9-.5l.3-.8c.4.2,1,.5,1.7.5,1.1,0,1.9-.6,1.9-2v-.6h0c-.3.5-.9,1-1.8,1-1.4,0-2.5-1.2-2.5-2.8s1.3-3.1,2.6-3.1,1.6.5,1.8,1h0v-.9h1ZM374.1,141.1c0-.2,0-.3,0-.5-.2-.6-.7-1.1-1.5-1.1s-1.7.9-1.7,2.2.6,2.1,1.7,2.1,1.2-.4,1.5-1.1c0-.2,0-.4,0-.6v-1Z"/>
      </g>
    </g>
    <g id="pensionen" class="income-info">
      <rect class="rd-st5" x="328.3" y="94.1" width="62.7" height="27.6"/>
      <g>
        <path class="rd-st0" d="M334.4,103.8c.5,0,1.2-.2,2-.2s1.8.2,2.3.7c.4.4.7,1,.7,1.7s-.2,1.3-.6,1.7c-.6.6-1.5.9-2.5.9s-.6,0-.8,0v3.2h-1v-8ZM335.5,107.7c.2,0,.5,0,.9,0,1.3,0,2-.6,2-1.7s-.8-1.6-1.9-1.6-.8,0-1,0v3.1Z"/>
        <path class="rd-st0" d="M341.1,109.1c0,1.4.9,2,2,2s1.2-.1,1.6-.3l.2.8c-.4.2-1,.4-1.9.4-1.8,0-2.9-1.2-2.9-2.9s1-3.1,2.7-3.1,2.4,1.7,2.4,2.7,0,.4,0,.5h-4.1ZM344.2,108.3c0-.7-.3-1.7-1.5-1.7s-1.5,1-1.6,1.7h3.1Z"/>
        <path class="rd-st0" d="M346.5,107.6c0-.6,0-1.1,0-1.6h.9v1h0c.3-.6,1-1.1,1.9-1.1s2.1.5,2.1,2.5v3.5h-1.1v-3.3c0-.9-.3-1.7-1.3-1.7s-1.2.5-1.4,1.1c0,.1,0,.3,0,.5v3.5h-1.1v-4.2Z"/>
        <path class="rd-st0" d="M353,110.7c.3.2.9.4,1.4.4.8,0,1.1-.4,1.1-.9s-.3-.8-1.1-1.1c-1-.4-1.5-.9-1.5-1.6s.8-1.7,2-1.7,1.1.2,1.4.4l-.3.8c-.2-.1-.6-.3-1.2-.3s-1,.4-1,.8.3.7,1.1,1c1,.4,1.5.9,1.5,1.8s-.8,1.7-2.2,1.7-1.2-.2-1.6-.4l.3-.8Z"/>
        <path class="rd-st0" d="M359.1,104.4c0,.4-.3.6-.7.6s-.6-.3-.6-.6.3-.7.7-.7.6.3.6.7ZM357.9,111.8v-5.8h1.1v5.8h-1.1Z"/>
        <path class="rd-st0" d="M366,108.9c0,2.1-1.5,3.1-2.9,3.1s-2.8-1.2-2.8-3,1.3-3.1,2.9-3.1,2.8,1.2,2.8,3ZM361.4,108.9c0,1.3.7,2.2,1.8,2.2s1.8-.9,1.8-2.3-.5-2.2-1.7-2.2-1.8,1.2-1.8,2.3Z"/>
        <path class="rd-st0" d="M367.3,107.6c0-.6,0-1.1,0-1.6h.9v1h0c.3-.6,1-1.1,1.9-1.1s2.1.5,2.1,2.5v3.5h-1.1v-3.3c0-.9-.3-1.7-1.3-1.7s-1.2.5-1.4,1.1c0,.1,0,.3,0,.5v3.5h-1.1v-4.2Z"/>
        <path class="rd-st0" d="M374.5,109.1c0,1.4.9,2,2,2s1.2-.1,1.6-.3l.2.8c-.4.2-1,.4-1.9.4-1.8,0-2.9-1.2-2.9-2.9s1-3.1,2.7-3.1,2.4,1.7,2.4,2.7,0,.4,0,.5h-4.1ZM377.6,108.3c0-.7-.3-1.7-1.5-1.7s-1.5,1-1.6,1.7h3.1Z"/>
        <path class="rd-st0" d="M380,107.6c0-.6,0-1.1,0-1.6h.9v1h0c.3-.6,1-1.1,1.9-1.1s2.1.5,2.1,2.5v3.5h-1.1v-3.3c0-.9-.3-1.7-1.3-1.7s-1.2.5-1.4,1.1c0,.1,0,.3,0,.5v3.5h-1.1v-4.2Z"/>
      </g>
    </g>
    <g id="sozialhilfe" class="income-info">
      <rect class="rd-st5" x="336.4" y="61.3" width="55.4" height="27.6"/>
      <g>
        <path class="rd-st0" d="M339.5,77.9c.5.3,1.2.5,1.9.5,1.1,0,1.7-.6,1.7-1.4s-.4-1.2-1.5-1.6c-1.3-.5-2.1-1.2-2.1-2.3s1-2.2,2.6-2.2,1.4.2,1.8.4l-.3.9c-.3-.1-.8-.4-1.5-.4-1.1,0-1.5.7-1.5,1.2s.5,1.1,1.6,1.6c1.4.5,2.1,1.2,2.1,2.4s-.9,2.3-2.8,2.3-1.6-.2-2.1-.5l.3-.9Z"/>
        <path class="rd-st0" d="M350.9,76.2c0,2.1-1.5,3.1-2.9,3.1s-2.8-1.2-2.8-3,1.3-3.1,2.9-3.1,2.8,1.2,2.8,3ZM346.3,76.2c0,1.3.7,2.2,1.8,2.2s1.8-.9,1.8-2.3-.5-2.2-1.7-2.2-1.8,1.2-1.8,2.3Z"/>
        <path class="rd-st0" d="M351.5,78.5l2.6-3.4c.3-.3.5-.6.8-.9h0s-3.1,0-3.1,0v-.9h4.4v.7s-2.6,3.4-2.6,3.4c-.2.3-.5.6-.7.9h0s3.4,0,3.4,0v.8h-4.7v-.6Z"/>
        <path class="rd-st0" d="M358.4,71.7c0,.4-.3.6-.7.6s-.6-.3-.6-.6.3-.7.7-.7.6.3.6.7ZM357.3,79.1v-5.8h1.1v5.8h-1.1Z"/>
        <path class="rd-st0" d="M363.3,79.1v-.7h-.1c-.3.5-.9.9-1.8.9-1.2,0-1.8-.8-1.8-1.7,0-1.4,1.2-2.2,3.5-2.2h0c0-.6-.1-1.5-1.3-1.5s-1.1.2-1.5.4l-.2-.7c.5-.3,1.2-.5,1.9-.5,1.8,0,2.2,1.2,2.2,2.4v2.2c0,.5,0,1,0,1.4h-1ZM363.1,76.2c-1.2,0-2.5.2-2.5,1.3s.5,1,1,1,1.2-.5,1.4-1c0-.1,0-.2,0-.3v-1Z"/>
        <path class="rd-st0" d="M365.9,70.6h1.1v8.5h-1.1v-8.5Z"/>
        <path class="rd-st0" d="M368.7,70.6h1.1v3.6h0c.2-.3.4-.6.8-.7.3-.2.7-.3,1.1-.3.8,0,2,.5,2,2.5v3.5h-1.1v-3.3c0-.9-.3-1.7-1.3-1.7s-1.2.5-1.4,1.1c0,.1,0,.3,0,.5v3.5h-1.1v-8.5Z"/>
        <path class="rd-st0" d="M376.5,71.7c0,.4-.3.6-.7.6s-.6-.3-.6-.6.3-.7.7-.7.6.3.6.7ZM375.4,79.1v-5.8h1.1v5.8h-1.1Z"/>
        <path class="rd-st0" d="M378.2,70.6h1.1v8.5h-1.1v-8.5Z"/>
        <path class="rd-st0" d="M381.1,79.1v-5h-.8v-.8h.8v-.3c0-.8.2-1.6.7-2,.4-.4.9-.5,1.4-.5s.7,0,.9.2v.8c-.3,0-.5-.1-.8-.1-.9,0-1.1.8-1.1,1.7v.3h1.4v.8h-1.4v5h-1Z"/>
        <path class="rd-st0" d="M384.9,76.4c0,1.4.9,2,2,2s1.2-.1,1.6-.3l.2.8c-.4.2-1,.4-1.9.4-1.8,0-2.9-1.2-2.9-2.9s1-3.1,2.7-3.1,2.4,1.7,2.4,2.7,0,.4,0,.5h-4.1ZM388,75.7c0-.7-.3-1.7-1.5-1.7s-1.5,1-1.6,1.7h3.1Z"/>
      </g>
    </g>
    <g id="kapital" class="income-info">
      <rect class="rd-st5" x="216.5" y="126.9" width="83.4" height="27.6"/>
      <g>
        <path class="rd-st0" d="M224.1,136.5h1v3.9h0c.2-.3.4-.6.6-.9l2.5-3h1.3l-2.9,3.4,3.2,4.7h-1.2l-2.7-4-.8.9v3.1h-1v-8.1Z"/>
        <path class="rd-st0" d="M234,144.6v-.7h-.1c-.3.5-.9.9-1.8.9-1.2,0-1.8-.8-1.8-1.7,0-1.4,1.2-2.2,3.5-2.2h0c0-.6-.1-1.5-1.3-1.5s-1.1.2-1.5.4l-.2-.7c.5-.3,1.2-.5,1.9-.5,1.8,0,2.2,1.2,2.2,2.4v2.2c0,.5,0,1,0,1.4h-1ZM233.8,141.7c-1.2,0-2.5.2-2.5,1.3s.5,1,1,1,1.2-.5,1.4-1c0-.1,0-.2,0-.3v-1Z"/>
        <path class="rd-st0" d="M236.5,140.7c0-.7,0-1.3,0-1.9h.9v1h0c.4-.7,1.1-1.1,2.1-1.1,1.4,0,2.5,1.2,2.5,3s-1.3,3.1-2.6,3.1-1.4-.3-1.8-.9h0v3.2h-1v-6.3ZM237.6,142.3c0,.2,0,.3,0,.4.2.7.8,1.2,1.6,1.2,1.1,0,1.8-.9,1.8-2.2s-.6-2.2-1.7-2.2-1.4.5-1.6,1.3c0,.1,0,.3,0,.4v1Z"/>
        <path class="rd-st0" d="M244.5,137.2c0,.4-.3.6-.7.6s-.6-.3-.6-.6.3-.7.7-.7.6.3.6.7ZM243.4,144.6v-5.8h1.1v5.8h-1.1Z"/>
        <path class="rd-st0" d="M247.4,137.2v1.7h1.5v.8h-1.5v3.1c0,.7.2,1.1.8,1.1s.5,0,.6,0v.8c-.2,0-.5.1-.9.1s-.9-.2-1.1-.4c-.3-.3-.4-.8-.4-1.5v-3.2h-.9v-.8h.9v-1.4l1-.3Z"/>
        <path class="rd-st0" d="M253.4,144.6v-.7h-.1c-.3.5-.9.9-1.8.9-1.2,0-1.8-.8-1.8-1.7,0-1.4,1.2-2.2,3.5-2.2h0c0-.6-.1-1.5-1.3-1.5s-1.1.2-1.5.4l-.2-.7c.5-.3,1.2-.5,1.9-.5,1.8,0,2.2,1.2,2.2,2.4v2.2c0,.5,0,1,0,1.4h-1ZM253.2,141.7c-1.2,0-2.5.2-2.5,1.3s.5,1,1,1,1.2-.5,1.4-1c0-.1,0-.2,0-.3v-1Z"/>
        <path class="rd-st0" d="M255.9,136.1h1.1v8.5h-1.1v-8.5Z"/>
        <path class="rd-st0" d="M259.3,141.9c0,1.4.9,2,2,2s1.2-.1,1.6-.3l.2.8c-.4.2-1,.4-1.9.4-1.8,0-2.9-1.2-2.9-2.9s1-3.1,2.7-3.1,2.4,1.7,2.4,2.7,0,.4,0,.5h-4.1ZM262.4,141.2c0-.7-.3-1.7-1.5-1.7s-1.5,1-1.6,1.7h3.1Z"/>
        <path class="rd-st0" d="M264.8,140.6c0-.7,0-1.3,0-1.8h.9v1.1h0c.3-.8.9-1.3,1.6-1.3s.2,0,.3,0v1c-.1,0-.2,0-.4,0-.7,0-1.3.6-1.4,1.4,0,.1,0,.3,0,.5v3.1h-1v-4Z"/>
        <path class="rd-st0" d="M270.3,137.2v1.7h1.5v.8h-1.5v3.1c0,.7.2,1.1.8,1.1s.5,0,.6,0v.8c-.2,0-.5.1-.9.1s-.9-.2-1.1-.4c-.3-.3-.4-.8-.4-1.5v-3.2h-.9v-.8h.9v-1.4l1-.3Z"/>
        <path class="rd-st0" d="M273,140.6c0-.7,0-1.3,0-1.8h.9v1.1h0c.3-.8.9-1.3,1.6-1.3s.2,0,.3,0v1c-.1,0-.2,0-.4,0-.7,0-1.3.6-1.4,1.4,0,.1,0,.3,0,.5v3.1h-1v-4Z"/>
        <path class="rd-st0" d="M280,144.6v-.7h-.1c-.3.5-.9.9-1.8.9-1.2,0-1.8-.8-1.8-1.7,0-1.4,1.2-2.2,3.5-2.2h0c0-.6-.1-1.5-1.3-1.5s-1.1.2-1.5.4l-.2-.7c.5-.3,1.2-.5,1.9-.5,1.8,0,2.2,1.2,2.2,2.4v2.2c0,.5,0,1,0,1.4h-1ZM277.1,137.2c0-.3.3-.6.6-.6s.6.3.6.6-.2.6-.6.6-.6-.3-.6-.6ZM279.9,141.7c-1.2,0-2.5.2-2.5,1.3s.5,1,1,1,1.2-.5,1.4-1c0-.1,0-.2,0-.3v-1ZM279.4,137.2c0-.3.3-.6.6-.6s.6.3.6.6-.2.6-.6.6-.6-.3-.6-.6Z"/>
        <path class="rd-st0" d="M287.6,138.8c0,.4,0,.9,0,1.6v3.4c0,1.3-.3,2.1-.8,2.7-.6.5-1.4.7-2.1.7s-1.5-.2-1.9-.5l.3-.8c.4.2,1,.5,1.7.5,1.1,0,1.9-.6,1.9-2v-.6h0c-.3.5-.9,1-1.8,1-1.4,0-2.5-1.2-2.5-2.8s1.3-3.1,2.6-3.1,1.6.5,1.8,1h0v-.9h1ZM286.5,141.1c0-.2,0-.3,0-.5-.2-.6-.7-1.1-1.5-1.1s-1.7.9-1.7,2.2.6,2.1,1.7,2.1,1.2-.4,1.5-1.1c0-.2,0-.4,0-.6v-1Z"/>
        <path class="rd-st0" d="M289.9,141.9c0,1.4.9,2,2,2s1.2-.1,1.6-.3l.2.8c-.4.2-1,.4-1.9.4-1.8,0-2.9-1.2-2.9-2.9s1-3.1,2.7-3.1,2.4,1.7,2.4,2.7,0,.4,0,.5h-4.1ZM293,141.2c0-.7-.3-1.7-1.5-1.7s-1.5,1-1.6,1.7h3.1Z"/>
      </g>
    </g>
    <g id="selbstaendigesEK" class="income-info">
      <rect class="rd-st5" x="216.5" y="94.1" width="105.9" height="27.6"/>
      <g>
        <path class="rd-st0" d="M224,110.7c.3.2.9.4,1.4.4.8,0,1.1-.4,1.1-.9s-.3-.8-1.1-1.1c-1-.4-1.5-.9-1.5-1.6s.8-1.7,2-1.7,1.1.2,1.4.4l-.3.8c-.2-.1-.6-.3-1.2-.3s-1,.4-1,.8.3.7,1.1,1c1,.4,1.5.9,1.5,1.8s-.8,1.7-2.2,1.7-1.2-.2-1.6-.4l.3-.8Z"/>
        <path class="rd-st0" d="M229.4,109.1c0,1.4.9,2,2,2s1.2-.1,1.6-.3l.2.8c-.4.2-1,.4-1.9.4-1.8,0-2.9-1.2-2.9-2.9s1-3.1,2.7-3.1,2.4,1.7,2.4,2.7,0,.4,0,.5h-4.1ZM232.5,108.3c0-.7-.3-1.7-1.5-1.7s-1.5,1-1.6,1.7h3.1Z"/>
        <path class="rd-st0" d="M234.9,103.3h1.1v8.5h-1.1v-8.5Z"/>
        <path class="rd-st0" d="M237.7,111.8c0-.4,0-1,0-1.5v-7h1v3.6h0c.4-.6,1-1.1,2-1.1,1.4,0,2.5,1.2,2.4,3,0,2.1-1.3,3.1-2.6,3.1s-1.5-.3-1.9-1.1h0v1h-1ZM238.7,109.5c0,.1,0,.3,0,.4.2.7.8,1.2,1.6,1.2,1.1,0,1.8-.9,1.8-2.2s-.6-2.2-1.7-2.2-1.4.5-1.6,1.3c0,.1,0,.3,0,.4v1Z"/>
        <path class="rd-st0" d="M244.4,110.7c.3.2.9.4,1.4.4.8,0,1.1-.4,1.1-.9s-.3-.8-1.1-1.1c-1-.4-1.5-.9-1.5-1.6s.8-1.7,2-1.7,1.1.2,1.4.4l-.3.8c-.2-.1-.6-.3-1.2-.3s-1,.4-1,.8.3.7,1.1,1c1,.4,1.5.9,1.5,1.8s-.8,1.7-2.2,1.7-1.2-.2-1.6-.4l.3-.8Z"/>
        <path class="rd-st0" d="M250.5,104.3v1.7h1.5v.8h-1.5v3.1c0,.7.2,1.1.8,1.1s.5,0,.6,0v.8c-.2,0-.5.1-.9.1s-.9-.2-1.1-.4c-.3-.3-.4-.8-.4-1.5v-3.2h-.9v-.8h.9v-1.4l1-.3Z"/>
        <path class="rd-st0" d="M253.1,110.7c.3.2.9.4,1.4.4.8,0,1.1-.4,1.1-.9s-.3-.8-1.1-1.1c-1-.4-1.5-.9-1.5-1.6s.8-1.7,2-1.7,1.1.2,1.4.4l-.3.8c-.2-.1-.6-.3-1.2-.3s-1,.4-1,.8.3.7,1.1,1c1,.4,1.5.9,1.5,1.8s-.8,1.7-2.2,1.7-1.2-.2-1.6-.4l.3-.8Z"/>
        <path class="rd-st0" d="M259.3,104.3v1.7h1.5v.8h-1.5v3.1c0,.7.2,1.1.8,1.1s.5,0,.6,0v.8c-.2,0-.5.1-.9.1s-.9-.2-1.1-.4c-.3-.3-.4-.8-.4-1.5v-3.2h-.9v-.8h.9v-1.4l1-.3Z"/>
        <path class="rd-st0" d="M265.2,111.8v-.7h-.1c-.3.5-.9.9-1.8.9-1.2,0-1.8-.8-1.8-1.7,0-1.4,1.2-2.2,3.5-2.2h0c0-.6-.1-1.5-1.3-1.5s-1.1.2-1.5.4l-.2-.7c.5-.3,1.2-.5,1.9-.5,1.8,0,2.2,1.2,2.2,2.4v2.2c0,.5,0,1,0,1.4h-1ZM262.3,104.4c0-.3.3-.6.6-.6s.6.3.6.6-.2.6-.6.6-.6-.3-.6-.6ZM265,108.8c-1.2,0-2.5.2-2.5,1.3s.5,1,1,1,1.2-.5,1.4-1c0-.1,0-.2,0-.3v-1ZM264.5,104.4c0-.3.3-.6.6-.6s.6.3.6.6-.2.6-.6.6-.6-.3-.6-.6Z"/>
        <path class="rd-st0" d="M267.8,107.6c0-.6,0-1.1,0-1.6h.9v1h0c.3-.6,1-1.1,1.9-1.1s2.1.5,2.1,2.5v3.5h-1.1v-3.3c0-.9-.3-1.7-1.3-1.7s-1.2.5-1.4,1.1c0,.1,0,.3,0,.5v3.5h-1.1v-4.2Z"/>
        <path class="rd-st0" d="M279.4,103.3v7c0,.5,0,1.1,0,1.5h-.9v-1h0c-.3.6-1,1.1-2,1.1-1.4,0-2.5-1.2-2.5-3,0-1.9,1.2-3.1,2.6-3.1s1.5.4,1.8.9h0v-3.5h1.1ZM278.4,108.4c0-.1,0-.3,0-.4-.2-.7-.7-1.2-1.5-1.2s-1.7,1-1.7,2.2.6,2.1,1.7,2.1,1.4-.5,1.5-1.3c0-.1,0-.3,0-.5v-1Z"/>
        <path class="rd-st0" d="M282.4,104.4c0,.4-.3.6-.7.6s-.6-.3-.6-.6.3-.7.7-.7.6.3.6.7ZM281.2,111.8v-5.8h1.1v5.8h-1.1Z"/>
        <path class="rd-st0" d="M289,106c0,.4,0,.9,0,1.6v3.4c0,1.3-.3,2.1-.8,2.7-.6.5-1.4.7-2.1.7s-1.5-.2-1.9-.5l.3-.8c.4.2,1,.5,1.7.5,1.1,0,1.9-.6,1.9-2v-.6h0c-.3.5-.9,1-1.8,1-1.4,0-2.5-1.2-2.5-2.8s1.3-3.1,2.6-3.1,1.6.5,1.8,1h0v-.9h1ZM287.9,108.3c0-.2,0-.3,0-.5-.2-.6-.7-1.1-1.5-1.1s-1.7.9-1.7,2.2.6,2.1,1.7,2.1,1.2-.4,1.5-1.1c0-.2,0-.4,0-.6v-1Z"/>
        <path class="rd-st0" d="M291.3,109.1c0,1.4.9,2,2,2s1.2-.1,1.6-.3l.2.8c-.4.2-1,.4-1.9.4-1.8,0-2.9-1.2-2.9-2.9s1-3.1,2.7-3.1,2.4,1.7,2.4,2.7,0,.4,0,.5h-4.1ZM294.4,108.3c0-.7-.3-1.7-1.5-1.7s-1.5,1-1.6,1.7h3.1Z"/>
        <path class="rd-st0" d="M296.6,110.7c.3.2.9.4,1.4.4.8,0,1.1-.4,1.1-.9s-.3-.8-1.1-1.1c-1-.4-1.5-.9-1.5-1.6s.8-1.7,2-1.7,1.1.2,1.4.4l-.3.8c-.2-.1-.6-.3-1.2-.3s-1,.4-1,.8.3.7,1.1,1c1,.4,1.5.9,1.5,1.8s-.8,1.7-2.2,1.7-1.2-.2-1.6-.4l.3-.8Z"/>
        <path class="rd-st0" d="M308.2,108h-3.1v2.9h3.5v.9h-4.5v-8.1h4.4v.9h-3.3v2.6h3.1v.9Z"/>
        <path class="rd-st0" d="M309.9,103.7h1v3.9h0c.2-.3.4-.6.6-.9l2.5-3h1.3l-2.9,3.4,3.2,4.7h-1.2l-2.7-4-.8.9v3.1h-1v-8.1Z"/>
      </g>
    </g>
    <g id="unselbstaendigesEK" class="income-info">
      <rect class="rd-st5" x="216.5" y="61.3" width="113.6" height="27.6"/>
      <g>
        <path class="rd-st0" d="M226.9,77.3c0,.6,0,1.1,0,1.6h-.9v-.9h0c-.3.5-.9,1.1-1.9,1.1s-2-.5-2-2.5v-3.4h1.1v3.2c0,1.1.3,1.8,1.3,1.8s1.2-.5,1.4-1c0-.2,0-.3,0-.5v-3.6h1.1v4.2Z"/>
        <path class="rd-st0" d="M228.6,74.7c0-.6,0-1.1,0-1.6h.9v1h0c.3-.6,1-1.1,1.9-1.1s2.1.5,2.1,2.5v3.5h-1.1v-3.3c0-.9-.3-1.7-1.3-1.7s-1.2.5-1.4,1.1c0,.1,0,.3,0,.5v3.5h-1.1v-4.2Z"/>
        <path class="rd-st0" d="M235.2,77.8c.3.2.9.4,1.4.4.8,0,1.1-.4,1.1-.9s-.3-.8-1.1-1.1c-1-.4-1.5-.9-1.5-1.6s.8-1.7,2-1.7,1.1.2,1.4.4l-.3.8c-.2-.1-.6-.3-1.2-.3s-1,.4-1,.8.3.7,1.1,1c1,.4,1.5.9,1.5,1.8s-.8,1.7-2.2,1.7-1.2-.2-1.6-.4l.3-.8Z"/>
        <path class="rd-st0" d="M240.6,76.2c0,1.4.9,2,2,2s1.2-.1,1.6-.3l.2.8c-.4.2-1,.4-1.9.4-1.8,0-2.9-1.2-2.9-2.9s1-3.1,2.7-3.1,2.4,1.7,2.4,2.7,0,.4,0,.5h-4.1ZM243.7,75.4c0-.7-.3-1.7-1.5-1.7s-1.5,1-1.6,1.7h3.1Z"/>
        <path class="rd-st0" d="M246.1,70.4h1.1v8.5h-1.1v-8.5Z"/>
        <path class="rd-st0" d="M248.8,78.9c0-.4,0-1,0-1.5v-7h1v3.6h0c.4-.6,1-1.1,2-1.1,1.4,0,2.5,1.2,2.4,3,0,2.1-1.3,3.1-2.6,3.1s-1.5-.3-1.9-1.1h0v1h-1ZM249.9,76.6c0,.1,0,.3,0,.4.2.7.8,1.2,1.6,1.2,1.1,0,1.8-.9,1.8-2.2s-.6-2.2-1.7-2.2-1.4.5-1.6,1.3c0,.1,0,.3,0,.4v1Z"/>
        <path class="rd-st0" d="M255.6,77.8c.3.2.9.4,1.4.4.8,0,1.1-.4,1.1-.9s-.3-.8-1.1-1.1c-1-.4-1.5-.9-1.5-1.6s.8-1.7,2-1.7,1.1.2,1.4.4l-.3.8c-.2-.1-.6-.3-1.2-.3s-1,.4-1,.8.3.7,1.1,1c1,.4,1.5.9,1.5,1.8s-.8,1.7-2.2,1.7-1.2-.2-1.6-.4l.3-.8Z"/>
        <path class="rd-st0" d="M261.7,71.4v1.7h1.5v.8h-1.5v3.1c0,.7.2,1.1.8,1.1s.5,0,.6,0v.8c-.2,0-.5.1-.9.1s-.9-.2-1.1-.4c-.3-.3-.4-.8-.4-1.5v-3.2h-.9v-.8h.9v-1.4l1-.3Z"/>
        <path class="rd-st0" d="M264.3,77.8c.3.2.9.4,1.4.4.8,0,1.1-.4,1.1-.9s-.3-.8-1.1-1.1c-1-.4-1.5-.9-1.5-1.6s.8-1.7,2-1.7,1.1.2,1.4.4l-.3.8c-.2-.1-.6-.3-1.2-.3s-1,.4-1,.8.3.7,1.1,1c1,.4,1.5.9,1.5,1.8s-.8,1.7-2.2,1.7-1.2-.2-1.6-.4l.3-.8Z"/>
        <path class="rd-st0" d="M270.5,71.4v1.7h1.5v.8h-1.5v3.1c0,.7.2,1.1.8,1.1s.5,0,.6,0v.8c-.2,0-.5.1-.9.1s-.9-.2-1.1-.4c-.3-.3-.4-.8-.4-1.5v-3.2h-.9v-.8h.9v-1.4l1-.3Z"/>
        <path class="rd-st0" d="M276.4,78.9v-.7h-.1c-.3.5-.9.9-1.8.9-1.2,0-1.8-.8-1.8-1.7,0-1.4,1.2-2.2,3.5-2.2h0c0-.6-.1-1.5-1.3-1.5s-1.1.2-1.5.4l-.2-.7c.5-.3,1.2-.5,1.9-.5,1.8,0,2.2,1.2,2.2,2.4v2.2c0,.5,0,1,0,1.4h-1ZM273.5,71.4c0-.3.3-.6.6-.6s.6.3.6.6-.2.6-.6.6-.6-.3-.6-.6ZM276.2,75.9c-1.2,0-2.5.2-2.5,1.3s.5,1,1,1,1.2-.5,1.4-1c0-.1,0-.2,0-.3v-1ZM275.7,71.4c0-.3.3-.6.6-.6s.6.3.6.6-.2.6-.6.6-.6-.3-.6-.6Z"/>
        <path class="rd-st0" d="M279,74.7c0-.6,0-1.1,0-1.6h.9v1h0c.3-.6,1-1.1,1.9-1.1s2.1.5,2.1,2.5v3.5h-1.1v-3.3c0-.9-.3-1.7-1.3-1.7s-1.2.5-1.4,1.1c0,.1,0,.3,0,.5v3.5h-1.1v-4.2Z"/>
        <path class="rd-st0" d="M290.6,70.4v7c0,.5,0,1.1,0,1.5h-.9v-1h0c-.3.6-1,1.1-2,1.1-1.4,0-2.5-1.2-2.5-3,0-1.9,1.2-3.1,2.6-3.1s1.5.4,1.8.9h0v-3.5h1.1ZM289.6,75.4c0-.1,0-.3,0-.4-.2-.7-.7-1.2-1.5-1.2s-1.7,1-1.7,2.2.6,2.1,1.7,2.1,1.4-.5,1.5-1.3c0-.1,0-.3,0-.5v-1Z"/>
        <path class="rd-st0" d="M293.6,71.5c0,.4-.3.6-.7.6s-.6-.3-.6-.6.3-.7.7-.7.6.3.6.7ZM292.4,78.9v-5.8h1.1v5.8h-1.1Z"/>
        <path class="rd-st0" d="M300.2,73.1c0,.4,0,.9,0,1.6v3.4c0,1.3-.3,2.1-.8,2.7-.6.5-1.4.7-2.1.7s-1.5-.2-1.9-.5l.3-.8c.4.2,1,.5,1.7.5,1.1,0,1.9-.6,1.9-2v-.6h0c-.3.5-.9,1-1.8,1-1.4,0-2.5-1.2-2.5-2.8s1.3-3.1,2.6-3.1,1.6.5,1.8,1h0v-.9h1ZM299.1,75.4c0-.2,0-.3,0-.5-.2-.6-.7-1.1-1.5-1.1s-1.7.9-1.7,2.2.6,2.1,1.7,2.1,1.2-.4,1.5-1.1c0-.2,0-.4,0-.6v-1Z"/>
        <path class="rd-st0" d="M302.5,76.2c0,1.4.9,2,2,2s1.2-.1,1.6-.3l.2.8c-.4.2-1,.4-1.9.4-1.8,0-2.9-1.2-2.9-2.9s1-3.1,2.7-3.1,2.4,1.7,2.4,2.7,0,.4,0,.5h-4.1ZM305.6,75.4c0-.7-.3-1.7-1.5-1.7s-1.5,1-1.6,1.7h3.1Z"/>
        <path class="rd-st0" d="M307.8,77.8c.3.2.9.4,1.4.4.8,0,1.1-.4,1.1-.9s-.3-.8-1.1-1.1c-1-.4-1.5-.9-1.5-1.6s.8-1.7,2-1.7,1.1.2,1.4.4l-.3.8c-.2-.1-.6-.3-1.2-.3s-1,.4-1,.8.3.7,1.1,1c1,.4,1.5.9,1.5,1.8s-.8,1.7-2.2,1.7-1.2-.2-1.6-.4l.3-.8Z"/>
        <path class="rd-st0" d="M319.4,75.1h-3.1v2.9h3.5v.9h-4.5v-8.1h4.4v.9h-3.3v2.6h3.1v.9Z"/>
        <path class="rd-st0" d="M321.1,70.8h1v3.9h0c.2-.3.4-.6.6-.9l2.5-3h1.3l-2.9,3.4,3.2,4.7h-1.2l-2.7-4-.8.9v3.1h-1v-8.1Z"/>
      </g>
    </g>
    <g id="Einkommen1" data-name="Einkommen">
      <rect class="rd-st4" x="216.5" y="24" width="175.4" height="27.6"/>
      <g>
        <path class="rd-st0" d="M276.6,37h-4.2v3.9h4.7v1.2h-6.1v-10.8h5.8v1.2h-4.4v3.4h4.2v1.2Z"/>
        <path class="rd-st0" d="M280.4,32.1c0,.5-.3.9-.9.9s-.8-.4-.8-.9.4-.9.9-.9.9.4.9.9ZM278.9,42.1v-7.7h1.4v7.7h-1.4Z"/>
        <path class="rd-st0" d="M282.6,36.4c0-.8,0-1.5,0-2.1h1.2v1.3h.1c.4-.7,1.3-1.5,2.6-1.5s2.7.6,2.7,3.3v4.6h-1.4v-4.5c0-1.2-.5-2.3-1.8-2.3s-1.6.7-1.9,1.4c0,.2,0,.4,0,.7v4.7h-1.4v-5.7Z"/>
        <path class="rd-st0" d="M292.9,37.9h0c.2-.3.5-.6.7-.9l2.3-2.7h1.7l-3,3.2,3.4,4.6h-1.7l-2.7-3.7-.7.8v2.9h-1.4v-11.4h1.4v7.2Z"/>
        <path class="rd-st0" d="M306,38.1c0,2.9-2,4.1-3.9,4.1s-3.7-1.5-3.7-4,1.7-4.1,3.8-4.1,3.7,1.6,3.7,4ZM299.8,38.2c0,1.7,1,3,2.4,3s2.4-1.3,2.4-3-.7-3-2.3-3-2.4,1.5-2.4,3Z"/>
        <path class="rd-st0" d="M307.8,36.4c0-.8,0-1.5,0-2.1h1.2v1.2h.1c.4-.7,1.2-1.4,2.4-1.4s1.9.6,2.2,1.6h0c.2-.4.5-.8.9-1,.5-.4,1-.5,1.7-.5s2.5.7,2.5,3.4v4.6h-1.4v-4.4c0-1.5-.5-2.4-1.7-2.4s-1.4.6-1.7,1.3c0,.2-.1.4-.1.7v4.8h-1.4v-4.6c0-1.2-.5-2.1-1.6-2.1s-1.5.7-1.7,1.4c0,.2-.1.4-.1.7v4.7h-1.4v-5.7Z"/>
        <path class="rd-st0" d="M321.1,36.4c0-.8,0-1.5,0-2.1h1.2v1.2h.1c.4-.7,1.2-1.4,2.4-1.4s1.9.6,2.2,1.6h0c.2-.4.5-.8.9-1,.5-.4,1-.5,1.7-.5s2.5.7,2.5,3.4v4.6h-1.4v-4.4c0-1.5-.5-2.4-1.7-2.4s-1.4.6-1.7,1.3c0,.2-.1.4-.1.7v4.8h-1.4v-4.6c0-1.2-.5-2.1-1.6-2.1s-1.5.7-1.7,1.4c0,.2-.1.4-.1.7v4.7h-1.4v-5.7Z"/>
        <path class="rd-st0" d="M335.2,38.4c0,1.9,1.2,2.7,2.7,2.7s1.6-.2,2.1-.4l.2,1c-.5.2-1.3.5-2.6.5-2.4,0-3.8-1.6-3.8-3.9s1.4-4.2,3.6-4.2,3.2,2.2,3.2,3.6,0,.5,0,.7h-5.4ZM339.4,37.4c0-.9-.4-2.3-2-2.3s-2,1.3-2.2,2.3h4.1Z"/>
        <path class="rd-st0" d="M342.5,36.4c0-.8,0-1.5,0-2.1h1.2v1.3h.1c.4-.7,1.3-1.5,2.6-1.5s2.7.6,2.7,3.3v4.6h-1.4v-4.5c0-1.2-.5-2.3-1.8-2.3s-1.6.7-1.9,1.4c0,.2,0,.4,0,.7v4.7h-1.4v-5.7Z"/>
      </g>
    </g>
  </g>
  <g id="verfuegbaresEK">
    <rect class="rd-st1" x="12.6" y="24" width="175.4" height="27.6"/>
    <g>
      <path class="rd-st0" d="M21.4,42.2l-3.5-10.8h1.5l1.7,5.3c.5,1.5.9,2.8,1.2,4h0c.3-1.2.8-2.6,1.2-4l1.8-5.3h1.5l-3.9,10.8h-1.5Z"/>
      <path class="rd-st0" d="M28.1,38.6c0,1.9,1.2,2.7,2.7,2.7s1.6-.2,2.1-.4l.2,1c-.5.2-1.3.5-2.6.5-2.4,0-3.8-1.6-3.8-3.9s1.4-4.2,3.6-4.2,3.2,2.2,3.2,3.6,0,.5,0,.7h-5.4ZM32.3,37.6c0-.9-.4-2.3-2-2.3s-2,1.3-2.2,2.3h4.1Z"/>
      <path class="rd-st0" d="M35.4,36.9c0-.9,0-1.7,0-2.4h1.2v1.5h.1c.4-1,1.2-1.7,2.1-1.7s.3,0,.4,0v1.3c-.1,0-.3,0-.5,0-1,0-1.7.8-1.9,1.8,0,.2,0,.4,0,.7v4.1h-1.4v-5.3Z"/>
      <path class="rd-st0" d="M41.2,42.2v-6.7h-1.1v-1.1h1.1v-.4c0-1.1.2-2.1.9-2.7.5-.5,1.2-.7,1.9-.7s.9.1,1.2.2l-.2,1.1c-.2,0-.5-.2-.9-.2-1.2,0-1.5,1.1-1.5,2.2v.4h1.9v1.1h-1.9v6.7h-1.4Z"/>
      <path class="rd-st0" d="M52.2,40.1c0,.8,0,1.5,0,2.1h-1.2v-1.3h-.1c-.4.6-1.2,1.4-2.6,1.4s-2.7-.7-2.7-3.4v-4.5h1.4v4.3c0,1.5.4,2.5,1.7,2.5s1.6-.7,1.9-1.3c0-.2.1-.5.1-.7v-4.8h1.4v5.6ZM46.8,32.3c0-.4.4-.8.8-.8s.8.4.8.8-.3.8-.8.8-.8-.4-.8-.8ZM49.7,32.3c0-.4.4-.8.8-.8s.8.4.8.8-.3.8-.8.8-.8-.4-.8-.8Z"/>
      <path class="rd-st0" d="M61.3,34.5c0,.6,0,1.2,0,2.1v4.5c0,1.8-.4,2.9-1.1,3.5-.8.7-1.8.9-2.8.9s-2-.2-2.6-.6l.4-1.1c.5.3,1.3.6,2.3.6,1.4,0,2.5-.8,2.5-2.7v-.9h0c-.4.7-1.3,1.3-2.5,1.3-1.9,0-3.3-1.6-3.3-3.8s1.7-4.1,3.5-4.1,2.1.7,2.4,1.3h0v-1.2h1.3ZM59.8,37.5c0-.2,0-.4,0-.6-.3-.8-.9-1.5-2-1.5s-2.3,1.1-2.3,2.9.8,2.8,2.3,2.8,1.6-.5,2-1.4c0-.2.1-.5.1-.8v-1.4Z"/>
      <path class="rd-st0" d="M63.5,42.2c0-.5,0-1.3,0-2v-9.4h1.4v4.9h0c.5-.9,1.4-1.4,2.6-1.4,1.9,0,3.3,1.6,3.3,4,0,2.8-1.7,4.1-3.5,4.1s-2-.4-2.6-1.5h0v1.3h-1.3ZM64.9,39.1c0,.2,0,.4,0,.5.3,1,1.1,1.6,2.1,1.6,1.5,0,2.4-1.2,2.4-3s-.8-2.9-2.3-2.9-1.9.7-2.1,1.7c0,.2,0,.4,0,.6v1.4Z"/>
      <path class="rd-st0" d="M76.9,42.2v-1h-.2c-.4.6-1.3,1.2-2.4,1.2-1.6,0-2.4-1.1-2.4-2.2,0-1.9,1.7-2.9,4.7-2.9v-.2c0-.6-.2-1.8-1.8-1.8s-1.5.2-2,.6l-.3-.9c.6-.4,1.6-.7,2.5-.7,2.4,0,2.9,1.6,2.9,3.2v2.9c0,.7,0,1.3.1,1.9h-1.3ZM76.7,38.3c-1.5,0-3.3.2-3.3,1.7s.6,1.3,1.3,1.3,1.6-.6,1.9-1.3c0-.1,0-.3,0-.4v-1.3Z"/>
      <path class="rd-st0" d="M80.3,36.9c0-.9,0-1.7,0-2.4h1.2v1.5h.1c.4-1,1.2-1.7,2.1-1.7s.3,0,.4,0v1.3c-.1,0-.3,0-.5,0-1,0-1.7.8-1.9,1.8,0,.2,0,.4,0,.7v4.1h-1.4v-5.3Z"/>
      <path class="rd-st0" d="M86.2,38.6c0,1.9,1.2,2.7,2.7,2.7s1.6-.2,2.1-.4l.2,1c-.5.2-1.3.5-2.6.5-2.4,0-3.8-1.6-3.8-3.9s1.4-4.2,3.6-4.2,3.2,2.2,3.2,3.6,0,.5,0,.7h-5.4ZM90.3,37.6c0-.9-.4-2.3-2-2.3s-2,1.3-2.2,2.3h4.1Z"/>
      <path class="rd-st0" d="M93.2,40.8c.4.3,1.2.6,1.9.6,1,0,1.5-.5,1.5-1.2s-.4-1-1.4-1.4c-1.4-.5-2-1.3-2-2.2s1-2.3,2.7-2.3,1.5.2,1.9.5l-.4,1c-.3-.2-.9-.4-1.6-.4s-1.3.5-1.3,1.1.5.9,1.5,1.3c1.3.5,2,1.2,2,2.3s-1.1,2.3-2.9,2.3-1.6-.2-2.2-.5l.4-1.1Z"/>
      <path class="rd-st0" d="M108.8,37.2h-4.2v3.9h4.7v1.2h-6.1v-10.8h5.8v1.2h-4.4v3.4h4.2v1.2Z"/>
      <path class="rd-st0" d="M112.6,32.3c0,.5-.3.9-.9.9s-.8-.4-.8-.9.4-.9.9-.9.9.4.9.9ZM111,42.2v-7.7h1.4v7.7h-1.4Z"/>
      <path class="rd-st0" d="M114.8,36.6c0-.8,0-1.5,0-2.1h1.2v1.3h.1c.4-.7,1.3-1.5,2.6-1.5s2.7.6,2.7,3.3v4.6h-1.4v-4.5c0-1.2-.5-2.3-1.8-2.3s-1.6.7-1.9,1.4c0,.2,0,.4,0,.7v4.7h-1.4v-5.7Z"/>
      <path class="rd-st0" d="M125,38h0c.2-.3.5-.6.7-.9l2.3-2.7h1.7l-3,3.2,3.4,4.6h-1.7l-2.7-3.7-.7.8v2.9h-1.4v-11.4h1.4v7.2Z"/>
      <path class="rd-st0" d="M138.2,38.3c0,2.9-2,4.1-3.9,4.1s-3.7-1.5-3.7-4,1.7-4.1,3.8-4.1,3.7,1.6,3.7,4ZM132,38.4c0,1.7,1,3,2.4,3s2.4-1.3,2.4-3-.7-3-2.3-3-2.4,1.5-2.4,3Z"/>
      <path class="rd-st0" d="M139.9,36.6c0-.8,0-1.5,0-2.1h1.2v1.2h.1c.4-.7,1.2-1.4,2.4-1.4s1.9.6,2.2,1.6h0c.2-.4.5-.8.9-1,.5-.4,1-.5,1.7-.5s2.5.7,2.5,3.4v4.6h-1.4v-4.4c0-1.5-.5-2.4-1.7-2.4s-1.4.6-1.7,1.3c0,.2-.1.4-.1.7v4.8h-1.4v-4.6c0-1.2-.5-2.1-1.6-2.1s-1.5.7-1.7,1.4c0,.2-.1.4-.1.7v4.7h-1.4v-5.7Z"/>
      <path class="rd-st0" d="M153.3,36.6c0-.8,0-1.5,0-2.1h1.2v1.2h.1c.4-.7,1.2-1.4,2.4-1.4s1.9.6,2.2,1.6h0c.2-.4.5-.8.9-1,.5-.4,1-.5,1.7-.5s2.5.7,2.5,3.4v4.6h-1.4v-4.4c0-1.5-.5-2.4-1.7-2.4s-1.4.6-1.7,1.3c0,.2-.1.4-.1.7v4.8h-1.4v-4.6c0-1.2-.5-2.1-1.6-2.1s-1.5.7-1.7,1.4c0,.2-.1.4-.1.7v4.7h-1.4v-5.7Z"/>
      <path class="rd-st0" d="M167.4,38.6c0,1.9,1.2,2.7,2.7,2.7s1.6-.2,2.1-.4l.2,1c-.5.2-1.3.5-2.6.5-2.4,0-3.8-1.6-3.8-3.9s1.4-4.2,3.6-4.2,3.2,2.2,3.2,3.6,0,.5,0,.7h-5.4ZM171.5,37.6c0-.9-.4-2.3-2-2.3s-2,1.3-2.2,2.3h4.1Z"/>
      <path class="rd-st0" d="M174.6,36.6c0-.8,0-1.5,0-2.1h1.2v1.3h.1c.4-.7,1.3-1.5,2.6-1.5s2.7.6,2.7,3.3v4.6h-1.4v-4.5c0-1.2-.5-2.3-1.8-2.3s-1.6.7-1.9,1.4c0,.2,0,.4,0,.7v4.7h-1.4v-5.7Z"/>
    </g>
  </g>
  <g id="rechenzeichen">
    <path class="rd-st0" d="M195.3,36.2v-1.7h14.3v1.7h-14.3ZM195.3,41.7v-1.7h14.3v1.7h-14.3Z"/>
    <path class="rd-st0" d="M406.4,37.1v1.8h-6.9v-1.8h6.9Z"/>
  </g>
</svg>