<?xml version="1.0" encoding="UTF-8"?>
<svg id="Ebene_2" data-name="Ebene 2" xmlns="http://www.w3.org/2000/svg" viewBox="0 0 510 480.26">
  <defs>
    <style>
      .cls-1 {
        letter-spacing: 0em;
      }

      .cls-2 {
        letter-spacing: 0em;
      }

      .cls-3 {
        letter-spacing: .02em;
      }

      .cls-4 {
        opacity: .5;
      }

      .cls-4, .cls-5 {
        fill: #a5cdc8;
      }

      .cls-6 {
        letter-spacing: .01em;
      }

      .cls-7 {
        letter-spacing: 0em;
      }

      .cls-8 {
        fill: #b0cbc5;
      }

      .cls-9 {
        letter-spacing: .02em;
      }

      .cls-10 {
        letter-spacing: 0em;
      }

      .cls-11 {
        letter-spacing: 0em;
      }

      .cls-12 {
        letter-spacing: 0em;
      }

      .cls-13 {
        letter-spacing: 0em;
      }

      .cls-14 {
        stroke: #f5f4f4;
        stroke-miterlimit: 10;
        stroke-width: 1.3px;
      }

      .cls-14, .cls-15 {
        fill: none;
      }

      .cls-16, .cls-17 {
        fill: #fff;
      }

      .cls-18 {
        letter-spacing: -.04em;
      }

      .cls-19 {
        letter-spacing: -.01em;
      }

      .cls-20 {
        letter-spacing: 0em;
      }

      .cls-21, .cls-22, .cls-23, .cls-24, .cls-25, .cls-26, .cls-27, .cls-28, .cls-17 {
        font-family: MyriadPro-Regular, 'Myriad Pro';
      }

      .cls-21, .cls-22, .cls-17 {
        font-size: 13.02px;
      }

      .cls-29 {
        fill: #cbe4e1;
      }

      .cls-30 {
        fill: #f5f4f4;
      }

      .cls-31 {
        letter-spacing: 0em;
      }

      .cls-32 {
        letter-spacing: .01em;
      }

      .cls-33 {
        letter-spacing: 0em;
      }

      .cls-34 {
        fill: #12100b;
      }

      .cls-35 {
        letter-spacing: 0em;
      }

      .cls-36 {
        letter-spacing: 0em;
      }

      .cls-22, .cls-24, .cls-25, .cls-28 {
        fill: #1d1d1b;
      }

      .cls-37 {
        fill: #437086;
      }

      .cls-38 {
        letter-spacing: -.01em;
      }

      .cls-39 {
        letter-spacing: 0em;
      }

      .cls-40 {
        letter-spacing: 0em;
      }

      .cls-41 {
        fill: #7cb0c0;
      }

      .cls-42 {
        letter-spacing: -.01em;
      }

      .cls-43 {
        letter-spacing: 0em;
      }

      .cls-44 {
        letter-spacing: .06em;
      }

      .cls-45 {
        letter-spacing: 0em;
      }

      .cls-46 {
        letter-spacing: 0em;
      }

      .cls-47 {
        letter-spacing: -.01em;
      }

      .cls-48 {
        letter-spacing: 0em;
      }

      .cls-49 {
        letter-spacing: .02em;
      }

      .cls-50 {
        letter-spacing: 0em;
      }

      .cls-51 {
        letter-spacing: 0em;
      }

      .cls-52 {
        letter-spacing: 0em;
      }

      .cls-23 {
        font-size: 15.62px;
      }

      .cls-23, .cls-26, .cls-53 {
        fill: #478d75;
      }

      .cls-54 {
        letter-spacing: 0em;
      }

      .cls-55 {
        letter-spacing: 0em;
      }

      .cls-56 {
        letter-spacing: 0em;
      }

      .cls-57 {
        letter-spacing: 0em;
      }

      .cls-58 {
        fill: #ebd8d8;
      }

      .cls-59 {
        letter-spacing: -.04em;
      }

      .cls-60 {
        letter-spacing: 0em;
      }

      .cls-61 {
        letter-spacing: 0em;
      }

      .cls-62 {
        letter-spacing: 0em;
      }

      .cls-24 {
        font-size: 11.95px;
      }

      .cls-63 {
        letter-spacing: 0em;
      }

      .cls-64 {
        letter-spacing: 0em;
      }

      .cls-15 {
        stroke: #e2e0e1;
        stroke-linejoin: round;
        stroke-width: .65px;
      }

      .cls-65 {
        letter-spacing: 0em;
      }

      .cls-25, .cls-27 {
        font-size: 11.72px;
      }

      .cls-66 {
        letter-spacing: -.09em;
      }

      .cls-26 {
        font-size: 14.32px;
      }

      .cls-67 {
        letter-spacing: 0em;
      }

      .cls-68 {
        letter-spacing: -.05em;
      }

      .cls-69 {
        letter-spacing: 0em;
      }

      .cls-70 {
        letter-spacing: 0em;
      }

      .cls-71 {
        letter-spacing: -.04em;
      }

      .cls-72 {
        letter-spacing: -.03em;
      }

      .cls-27 {
        fill: #a9a5a4;
      }

      .cls-73 {
        letter-spacing: -.03em;
      }

      .cls-74 {
        letter-spacing: 0em;
      }

      .cls-75 {
        letter-spacing: 0em;
      }

      .cls-76 {
        letter-spacing: 0em;
      }

      .cls-77 {
        letter-spacing: 0em;
      }

      .cls-78 {
        letter-spacing: -.02em;
      }

      .cls-28 {
        font-size: 13.6px;
      }

      .cls-79 {
        letter-spacing: -.03em;
      }

      .cls-80 {
        letter-spacing: 0em;
      }

      .cls-81 {
        fill: #204052;
      }

      .cls-82 {
        letter-spacing: 0em;
      }

      .cls-83 {
        letter-spacing: 0em;
      }
    </style>
  </defs>
  <g id="db-soz-infra">
    <g id="frame">
      <rect class="cls-29" width="510" height="480.26" rx="12" ry="12"/>
      <rect class="cls-16" x="13.05" y="15.63" width="483.89" height="449" rx="12" ry="12"/>
    </g>
    <g id="content">
      <rect class="cls-30" x="19.56" y="220.84" width="467.55" height="156.81" rx="12" ry="12"/>
      <path class="cls-58" d="M46.65,413.19l-15.48-18.45c4.48-3.76,9.63-5.64,15.48-5.64v24.09Z"/>
      <path class="cls-58" d="M46.65,413.19l-19.49,14.16c-7.51-10.33-5.78-24.4,4-32.61l15.48,18.45Z"/>
      <path class="cls-41" d="M46.65,413.19l14.16-19.49c10.76,7.82,13.15,22.88,5.33,33.64-7.82,10.76-22.88,13.15-33.64,5.33-2.15-1.56-3.76-3.18-5.33-5.33l19.49-14.16Z"/>
      <path class="cls-8" d="M46.65,413.19v-24.09c5.32,0,9.85,1.47,14.16,4.6l-14.16,19.49Z"/>
      <path class="cls-4" d="M52.46,322.26c-.4-.35-9.83-.32-10.66-.12-.95.23-.42,3.75-3.81,3.16-2.33-.41-1.17-2.31-1.73-3.89-2.02-5.66-2.31-12.05-1.72-18.18.56-5.84,4.45-6.63,9.72-7.02,4.74-.35,13.81-.22,14.5,5.79.61,5.3.3,16.75-1.39,21.57-.53,1.51-2.11,2.2-3.59,1.41-1.25-.67-1.03-2.47-1.31-2.72Z"/>
      <path class="cls-15" d="M144.9,251.51v84.1M219.62,251.51v84.1M294.35,251.51v84.1M369.07,251.51v84.1M443.79,251.51v84.1"/>
      <text class="cls-24" transform="translate(63.18 350.67)"><tspan class="cls-76" x="0" y="0">0</tspan><tspan class="cls-82" x="6.06" y="0">%</tspan></text>
      <text class="cls-24" transform="translate(135.42 350.67)"><tspan class="cls-76" x="0" y="0">20</tspan><tspan class="cls-82" x="12.12" y="0">%</tspan></text>
      <text class="cls-24" transform="translate(210.33 350.67)"><tspan class="cls-76" x="0" y="0">40</tspan><tspan class="cls-82" x="12.12" y="0">%</tspan></text>
      <text class="cls-24" transform="translate(285.24 350.67)"><tspan class="cls-76" x="0" y="0">60</tspan><tspan class="cls-82" x="12.12" y="0">%</tspan></text>
      <text class="cls-24" transform="translate(360.14 350.67)"><tspan class="cls-76" x="0" y="0">80</tspan><tspan class="cls-82" x="12.12" y="0">%</tspan></text>
      <text class="cls-24" transform="translate(432.37 350.67)"><tspan class="cls-76" x="0" y="0">100</tspan><tspan x="18.17" y="0">%</tspan></text>
      <text class="cls-26" transform="translate(34.64 241.86)"><tspan class="cls-52" x="0" y="0">A</tspan><tspan class="cls-60" x="8.72" y="0">n</tspan><tspan class="cls-40" x="16.61" y="0">t</tspan><tspan x="21.27" y="0">eil der </tspan><tspan class="cls-35" x="61.18" y="0">G</tspan><tspan x="70.5" y="0" xml:space="preserve">emeinden mit   .........  </tspan><tspan class="cls-18" x="196.23" y="0"> </tspan><tspan class="cls-73" x="198.75" y="0">V</tspan><tspan x="206.27" y="0">erso</tspan><tspan class="cls-56" x="231.66" y="0">r</tspan><tspan x="236.23" y="0">gung mit s</tspan><tspan class="cls-39" x="299.86" y="0">o</tspan><tspan x="307.62" y="0">zialer </tspan><tspan class="cls-6" x="342.28" y="0">I</tspan><tspan x="345.85" y="0">nf</tspan><tspan class="cls-55" x="357.98" y="0">r</tspan><tspan class="cls-65" x="362.59" y="0">astruktur (SI)</tspan></text>
      <text class="cls-27" transform="translate(81.26 368.73)"><tspan x="0" y="0">u</tspan><tspan class="cls-69" x="6.46" y="0">n</tspan><tspan class="cls-80" x="12.91" y="0">t</tspan><tspan class="cls-50" x="16.72" y="0">er </tspan><tspan class="cls-36" x="28.91" y="0">B</tspan><tspan x="35.3" y="0">e</tspan><tspan class="cls-36" x="41.17" y="0">r</tspan><tspan x="45.05" y="0">rücksic</tspan><tspan class="cls-69" x="78.72" y="0">h</tspan><tspan class="cls-46" x="85.17" y="0">tung </tspan><tspan class="cls-38" x="111.05" y="0">v</tspan><tspan class="cls-50" x="116.57" y="0">on p</tspan><tspan class="cls-43" x="138.65" y="0">r</tspan><tspan x="142.53" y="0">i</tspan><tspan class="cls-62" x="145.27" y="0">va</tspan><tspan class="cls-80" x="156.46" y="0">t</tspan><tspan class="cls-50" x="160.27" y="0">er </tspan><tspan class="cls-12" x="172.46" y="0">b</tspan><tspan class="cls-3" x="179.04" y="0">z</tspan><tspan class="cls-59" x="184.34" y="0">w</tspan><tspan class="cls-46" x="192.51" y="0">. ö</tspan><tspan class="cls-47" x="203.85" y="0">ff</tspan><tspan x="210.53" y="0">e</tspan><tspan class="cls-62" x="216.4" y="0">n</tspan><tspan x="222.85" y="0">tlicher</tspan><tspan class="cls-71" x="253.7" y="0"> </tspan><tspan class="cls-72" x="255.76" y="0">V</tspan><tspan class="cls-50" x="261.91" y="0">e</tspan><tspan class="cls-43" x="267.78" y="0">r</tspan><tspan class="cls-50" x="271.66" y="0">kehrsanbindung </tspan></text>
      <text class="cls-21" transform="translate(77.95 402.36)"><tspan class="cls-34"><tspan x="0" y="0">der finanziell sta</tspan><tspan class="cls-70" x="88.21" y="0">r</tspan><tspan x="92.52" y="0">k belas</tspan><tspan class="cls-11" x="129.82" y="0">t</tspan><tspan x="134.05" y="0">e</tspan><tspan class="cls-11" x="140.57" y="0">t</tspan><tspan x="144.8" y="0">en </tspan></tspan><tspan class="cls-34"><tspan x="0" y="15.62">Haushal</tspan><tspan class="cls-11" x="43.67" y="15.62">t</tspan><tspan x="47.9" y="15.62">e leben in </tspan><tspan class="cls-63" x="103.73" y="15.62">G</tspan><tspan x="112.2" y="15.62">emeinden </tspan></tspan><tspan class="cls-34"><tspan x="0" y="31.25">mit schlec</tspan><tspan class="cls-51" x="54.62" y="31.25">h</tspan><tspan class="cls-11" x="61.79" y="31.25">t</tspan><tspan class="cls-57" x="66.02" y="31.25">er oder mittle</tspan><tspan class="cls-19" x="139.71" y="31.25">r</tspan><tspan x="143.84" y="31.25">er SI.</tspan></tspan><tspan class="cls-53"><tspan x="0" y="46.87">DOPPE</tspan><tspan class="cls-66" x="37.9" y="46.87">L</tspan><tspan x="42.9" y="46.87">TE BELASTUNG</tspan></tspan></text>
      <text class="cls-23" transform="translate(172.68 97.4)"><tspan x="0" y="0">3,4</tspan></text>
      <text class="cls-23" transform="translate(172.4 134.61)"><tspan x="0" y="0">5,7</tspan></text>
      <text class="cls-23" transform="translate(314.61 106.11)"><tspan x="0" y="0">7,4</tspan></text>
      <text class="cls-23" transform="translate(172.52 172.89)"><tspan x="0" y="0">7,4</tspan></text>
      <text class="cls-23" transform="translate(351.06 154.57)"><tspan x="0" y="0">7,1</tspan></text>
      <text class="cls-21" transform="translate(308.15 403.54)"><tspan class="cls-34"><tspan x="0" y="0">der finanziell ge</tspan><tspan class="cls-70" x="86.27" y="0">r</tspan><tspan class="cls-45" x="90.58" y="0">ing belas</tspan><tspan class="cls-11" x="139.32" y="0">t</tspan><tspan x="143.55" y="0">e</tspan><tspan class="cls-11" x="150.07" y="0">t</tspan><tspan x="154.31" y="0">en</tspan></tspan><tspan class="cls-34"><tspan x="0" y="15.62">Haushal</tspan><tspan class="cls-11" x="43.67" y="15.62">t</tspan><tspan x="47.9" y="15.62" xml:space="preserve">e  leben in </tspan><tspan class="cls-63" x="106.49" y="15.62">G</tspan><tspan x="114.96" y="15.62">emeinden </tspan></tspan><tspan class="cls-34"><tspan x="0" y="31.25">mit gu</tspan><tspan class="cls-11" x="35.43" y="31.25">t</tspan><tspan x="39.66" y="31.25">er oder sehr gu</tspan><tspan class="cls-11" x="121.6" y="31.25">t</tspan><tspan x="125.83" y="31.25">er SI.</tspan></tspan><tspan class="cls-81"><tspan x="0" y="46.87">DOPPE</tspan><tspan class="cls-66" x="37.9" y="46.87">L</tspan><tspan x="42.9" y="46.87">TE ENTLASTUNG</tspan></tspan></text>
      <polygon class="cls-8" points="161.16 327.17 69.74 327.17 69.74 296.44 161.16 296.44 161.16 327.17 161.16 327.17"/>
      <polygon class="cls-41" points="323.8 327.17 161.16 327.17 161.16 296.44 323.8 296.44 323.8 327.17 323.8 327.17"/>
      <polygon class="cls-37" points="365.11 327.17 323.8 327.17 323.8 296.44 365.11 296.44 365.11 327.17 365.11 327.17"/>
      <polygon class="cls-81" points="444.23 327.17 365.11 327.17 365.11 296.44 444.23 296.44 444.23 327.17 444.23 327.17"/>
      <text class="cls-22" transform="translate(87.71 314.82)"><tspan x="0" y="0">schlec</tspan><tspan class="cls-51" x="33.64" y="0">h</tspan><tspan class="cls-11" x="40.82" y="0">t</tspan><tspan x="45.05" y="0">er</tspan></text>
      <text class="cls-22" transform="translate(209.18 314.82)"><tspan x="0" y="0">mittle</tspan><tspan class="cls-19" x="32.12" y="0">r</tspan><tspan x="36.25" y="0">er</tspan></text>
      <text class="cls-17" transform="translate(330.19 314.82)"><tspan x="0" y="0">gu</tspan><tspan class="cls-11" x="14.45" y="0">t</tspan><tspan class="cls-57" x="18.68" y="0">er</tspan></text>
      <text class="cls-17" transform="translate(380.94 314.82)"><tspan x="0" y="0">sehr gu</tspan><tspan class="cls-11" x="40.37" y="0">t</tspan><tspan x="44.6" y="0">er</tspan></text>
      <line class="cls-15" x1="69.3" y1="335.99" x2="69.3" y2="251.88"/>
      <polygon class="cls-8" points="152.37 286.73 69.74 286.73 69.74 255.12 152.37 255.12 152.37 286.73 152.37 286.73"/>
      <polygon class="cls-41" points="320.28 286.73 152.37 286.73 152.37 255.12 320.28 255.12 320.28 286.73 320.28 286.73"/>
      <polygon class="cls-37" points="361.6 286.73 320.28 286.73 320.28 255.12 361.6 255.12 361.6 286.73 361.6 286.73"/>
      <polygon class="cls-81" points="444.23 286.73 361.6 286.73 361.6 255.12 444.23 255.12 444.23 286.73 444.23 286.73"/>
      <text class="cls-22" transform="translate(83.81 275.29)"><tspan x="0" y="0">schlec</tspan><tspan class="cls-51" x="33.64" y="0">h</tspan><tspan class="cls-11" x="40.82" y="0">t</tspan><tspan x="45.05" y="0">er</tspan></text>
      <text class="cls-22" transform="translate(209.18 275.29)"><tspan x="0" y="0">mittle</tspan><tspan class="cls-19" x="32.12" y="0">r</tspan><tspan x="36.25" y="0">er</tspan></text>
      <text class="cls-17" transform="translate(327.2 275.29)"><tspan x="0" y="0">gu</tspan><tspan class="cls-11" x="14.45" y="0">t</tspan><tspan class="cls-57" x="18.68" y="0">er</tspan></text>
      <text class="cls-17" transform="translate(380.94 275.29)"><tspan x="0" y="0">sehr gu</tspan><tspan class="cls-11" x="40.37" y="0">t</tspan><tspan x="44.6" y="0">er</tspan></text>
      <path class="cls-4" d="M34.13,269.63c.17-1.05,3.18-8.65,3.83-8.87.87-.3,16.1-.27,17.13.03,1.3.39,4.05,7.96,4.3,9.55.29,1.83.46,10.44-.15,11.69-.73,1.5-3.71,1.33-4.25.48-.4-.62.34-2.09-.41-2.23-1.22-.23-14.62-.26-15.48-.02-.62.17-.31,2.03-1.5,2.67-.9.48-3.47-.15-3.47-.32,0-3.72-.53-9.61,0-12.99Z"/>
      <path class="cls-16" d="M37.6,268.76h18.47c-.48-1.27-1.04-4.54-1.67-5.43-.42-.61-13.63-.63-14.71-.26-1.01.34-2.39,5.42-2.1,5.69Z"/>
      <circle class="cls-16" cx="38.75" cy="275.24" r="2.5"/>
      <path class="cls-16" d="M55.65,302.95h-17.36v6.82h17.36v-6.82Z"/>
      <circle class="cls-16" cx="40.2" cy="316.52" r="2.7"/>
      <circle class="cls-16" cx="53.13" cy="316.28" r="2.7"/>
      <circle class="cls-16" cx="54.85" cy="275" r="2.5"/>
      <path class="cls-81" d="M275.36,412.05l12.12-21.87c-3.86-2.14-7.7-3.13-12.12-3.13v25Z"/>
      <path class="cls-37" d="M275.36,412.05l-14.7,20.23c11.17,8.12,26.81,5.64,34.92-5.53,8.12-11.17,5.64-26.81-5.53-34.92-.89-.65-1.61-1.1-2.57-1.64l-12.12,21.87Z"/>
      <path class="cls-58" d="M275.36,412.05l-6.05-24.26c-13.4,3.34-21.55,16.91-18.21,30.31,1.47,5.9,4.65,10.61,9.56,14.18l14.7-20.23Z"/>
      <path class="cls-58" d="M275.36,412.05v-25c-2.21,0-3.9.21-6.05.74l6.05,24.26Z"/>
      <rect class="cls-16" x="32.98" y="407.19" width="27.2" height="11.86" rx=".22" ry=".22"/>
      <text class="cls-28" transform="translate(34.25 417.39)"><tspan class="cls-48" x="0" y="0">6</tspan><tspan x="6.9" y="0">6%</tspan></text>
      <rect class="cls-16" x="262.99" y="407.19" width="27.2" height="11.86" rx=".22" ry=".22"/>
      <text class="cls-28" transform="translate(264.26 417.39)"><tspan class="cls-48" x="0" y="0">6</tspan><tspan x="6.9" y="0">0%</tspan></text>
      <rect class="cls-30" x="103.87" y="54.46" width="46.75" height="44.22" rx="12" ry="12"/>
      <rect class="cls-30" x="22.97" y="37.09" width="46.75" height="44.22" rx="12" ry="12"/>
      <g>
        <path class="cls-5" d="M60.81,58.27l-15.22,5.17-18.13-6.27c-1.57-1.08-.43-1.64.76-2.11,5.7-2.23,11.85-3.96,17.61-5.99,5.67,2.2,11.61,3.78,17.26,5.99,2.81,1.1,1.18,2.02-.77,2.64.18.94-.28,3.91.16,4.53.25.35.98.41,1.12.9.18.62.31,3.07-.52,3.22-.42.08-2.99.05-3.28-.09-.08-.04-.34-.31-.34-.33v-2.7c0-.44,1.35-1.04,1.35-1.18v-3.79Z"/>
        <path class="cls-5" d="M57.28,61.14v7.16c-1.67,1.79-4.51,2.86-6.9,3.37-5.41,1.16-11.97.39-16.34-3.2v-7.33l11.54,3.89.94-.09,10.77-3.8Z"/>
      </g>
      <rect class="cls-30" x="21.28" y="143.24" width="46.75" height="44.22" rx="12" ry="12"/>
      <g>
        <path class="cls-5" d="M36.65,182.1c-.24-1.08-.38-2.14-.91-3.14-.86-1.64-2.82-2.76-3.88-4.21-.9-1.24-4.91-11.72-5.14-13.29-.12-.86-.04-1.66,1.02-1.69.92-.03,1.92,1.38,2.35,2.08.36.59,2.43,4.75,2.51,5.19.07.34-.39.8-.46,1.25-.18,1.13.43,2.01,1.04,2.89.45.64,2.92,3.4,3.55,3.21,1.36-.39-1.57-2.49-1.88-2.82-.65-.69-1.65-1.94-1.61-2.91.06-1.38,1.55-1.54,2.55-.85.88.61,2.2,2.13,3.1,2.92,1.66,1.47,3.21,2.17,4.1,4.37.84,2.09.94,4.8.61,7.01h-6.96Z"/>
        <path class="cls-5" d="M52.07,182.1h-6.87l-.28-.28v-3.57c0-.43.4-2.15.55-2.64,1.08-3.41,5.43-5.27,7.65-7.96,2.76-.8,2.8,1.25,1.38,3.07-.55.7-2.47,2.18-2.72,2.73-.19.4-.14.95.38.95.19,0,1.98-1.59,2.26-1.89.9-.95,2.27-2.68,2.17-4.04-.04-.56-.55-1.09-.49-1.43.08-.44,2.33-4.99,2.7-5.57.52-.82,1.54-2.06,2.61-1.61s.54,1.49.34,2.31c-.61,2.41-3.82,11.14-5.18,12.88-1.79,2.29-4.56,3.51-4.51,7.06Z"/>
      </g>
      <g>
        <path class="cls-5" d="M42.7,160.37c2.71-.38,6.54-.03,6.99,3.43.07.52.07,4.23-.05,4.52-.08.2-.36.38-.58.37l-9.39-.07c-.24-.16-.33-.31-.36-.6-.12-.96-.08-4.13.22-4.99.47-1.35,1.79-2.47,3.18-2.67Z"/>
        <path class="cls-5" d="M50.88,166.27v-2.48c0-1.17-1.25-2.92-2.14-3.62l-1.41-.86c1.25-1.54,3.67-1.56,5.49-1.39,2,.18,3.67,1.72,3.84,3.8.05.54.06,4.02-.07,4.3-.03.06-.21.24-.23.24h-5.49Z"/>
        <path class="cls-5" d="M32.63,166.27s-.21-.19-.23-.24c-.12-.27-.11-3.75-.07-4.3.18-2.08,1.84-3.62,3.84-3.8,1.82-.17,4.23-.15,5.49,1.39.04.26-.05.14-.16.19-1.43.65-3.38,2.41-3.38,4.16v2.6h-5.49Z"/>
        <path class="cls-5" d="M44,153.23c4.07-.59,4.54,5.47.9,5.88-3.96.44-4.4-5.37-.9-5.88Z"/>
        <path class="cls-5" d="M37.27,150.81c3.73-.31,4.27,5.42.78,5.89-4.23.57-4.51-5.57-.78-5.89Z"/>
        <path class="cls-5" d="M51.21,150.81c3.73-.31,4.27,5.42.78,5.89-4.23.57-4.51-5.57-.78-5.89Z"/>
      </g>
      <g>
        <rect class="cls-5" x="120.09" y="59.91" width="16.86" height="16.86" rx="4.25" ry="4.25" transform="translate(18.6 163.76) rotate(-68.96)"/>
        <rect class="cls-5" x="110.63" y="74.74" width="16.86" height="16.86" rx="4.7" ry="4.7" transform="translate(-21.73 47.51) rotate(-20.72)"/>
        <rect class="cls-5" x="126.39" y="76.6" width="16.86" height="16.86" rx="4.54" ry="4.54"/>
        <circle class="cls-16" cx="128.36" cy="68.92" r="6"/>
        <path class="cls-5" d="M129.24,64.65l1.52.64-.35,7.85-1.41-.59.11-1.67-2.86-1.19-1.1,1.26-1.25-.52,5.34-5.77ZM129.2,69.72l.26-3.7-2.44,2.79,2.18.91Z"/>
        <g>
          <circle class="cls-16" cx="119.27" cy="83.01" r="6"/>
          <path class="cls-5" d="M115.86,80.93l2.55-.94c1.22-.45,2.25-.34,2.64.73.24.66,0,1.21-.45,1.64.85-.06,1.46.29,1.77,1.13.4,1.09-.26,2-1.6,2.49l-2.69.99-2.23-6.04ZM119.34,82.55c.59-.22.83-.72.66-1.17-.18-.5-.63-.72-1.31-.47l-1.3.48.61,1.65,1.34-.5ZM120.4,85.09c.7-.26.93-.77.75-1.27-.2-.53-.73-.78-1.44-.51l-1.42.52.66,1.79,1.45-.54Z"/>
        </g>
        <g>
          <circle class="cls-16" cx="135.4" cy="84.86" r="6"/>
          <path class="cls-5" d="M132.1,85.08c0-1.95,1.34-3.32,3.26-3.32,1.48,0,2.58.78,3.05,2.02l-1.11.32c-.31-.83-.98-1.36-1.87-1.36-1.16,0-2.02.91-2.02,2.2s.84,2.33,2.24,2.33c1,0,1.75-.52,2.2-1.19l.65.47c-.55,1.12-1.71,1.86-3.12,1.86-1.94,0-3.28-1.37-3.28-3.32Z"/>
        </g>
      </g>
      <text class="cls-25" transform="translate(19.44 101.58)"><tspan class="cls-67" x="0" y="0">S</tspan><tspan class="cls-50" x="5.85" y="0">chulen und </tspan><tspan class="cls-32" x="0" y="14.06">K</tspan><tspan x="6.47" y="14.06">inde</tspan><tspan class="cls-74" x="28.19" y="14.06">r</tspan><tspan class="cls-50" x="31.93" y="14.06">gä</tspan><tspan class="cls-3" x="44.13" y="14.06">r</tspan><tspan class="cls-80" x="48.24" y="14.06">t</tspan><tspan x="52.05" y="14.06">en sind am</tspan><tspan x="0" y="28.12">gleichmäßigs</tspan><tspan class="cls-80" x="65.45" y="28.12">t</tspan><tspan class="cls-50" x="69.26" y="28.12">en </tspan><tspan class="cls-38" x="84.12" y="28.12">v</tspan><tspan x="89.64" y="28.12">e</tspan><tspan class="cls-3" x="95.51" y="28.12">r</tspan><tspan class="cls-80" x="99.62" y="28.12">t</tspan><tspan class="cls-50" x="103.43" y="28.12">eilt; </tspan></text>
      <text class="cls-26" transform="translate(173.96 51.23)"><tspan x="0" y="0">G</tspan><tspan class="cls-64" x="9.25" y="0">r</tspan><tspan x="13.79" y="0">oße </tspan><tspan class="cls-35" x="39.71" y="0">G</tspan><tspan class="cls-77" x="49.04" y="0">emeinden haben in der </tspan><tspan class="cls-61" x="191.33" y="0">R</tspan><tspan x="199.1" y="0">egel auch die </tspan><tspan x="0" y="17.19">besse</tspan><tspan class="cls-64" x="33.84" y="17.19">r</tspan><tspan x="38.38" y="17.19">e</tspan><tspan class="cls-18" x="45.56" y="17.19"> </tspan><tspan class="cls-79" x="48.08" y="17.19">V</tspan><tspan x="55.6" y="17.19">erso</tspan><tspan class="cls-54" x="80.99" y="17.19">r</tspan><tspan class="cls-65" x="85.56" y="17.19">gung mit s</tspan><tspan class="cls-1" x="149.19" y="17.19">o</tspan><tspan x="156.95" y="17.19">zialer </tspan><tspan class="cls-31" x="191.61" y="17.19">I</tspan><tspan x="195.17" y="17.19">nf</tspan><tspan class="cls-10" x="207.3" y="17.19">r</tspan><tspan x="211.91" y="17.19">astruktu</tspan><tspan class="cls-68" x="261.15" y="17.19">r</tspan><tspan x="265.08" y="17.19">. </tspan></text>
      <text class="cls-27" transform="translate(226.38 207.03)"><tspan x="0" y="0">(schlec</tspan><tspan class="cls-69" x="33.61" y="0">h</tspan><tspan class="cls-46" x="40.06" y="0">t = &lt;3, mit</tspan><tspan class="cls-80" x="90.19" y="0">t</tspan><tspan class="cls-50" x="94" y="0">el = 3-5, gut ist 5-7, sehr gut = &gt;7) </tspan></text>
      <text class="cls-25" transform="translate(221.72 93.16)"><tspan class="cls-9" x="0" y="0">k</tspan><tspan x="5.69" y="0">leine </tspan><tspan class="cls-13" x="31.93" y="0">G</tspan><tspan class="cls-50" x="39.56" y="0">emeinden </tspan><tspan x="0" y="14.06">(&lt;2.500 </tspan><tspan class="cls-33" x="39.26" y="14.06">E</tspan><tspan class="cls-44" x="45.13" y="14.06">W</tspan><tspan x="55.69" y="14.06">)</tspan></text>
      <text class="cls-25" transform="translate(221.72 126.97)"><tspan x="0" y="0">mittle</tspan><tspan class="cls-42" x="28.91" y="0">r</tspan><tspan class="cls-50" x="32.62" y="0">e </tspan><tspan class="cls-20" x="40.98" y="0">G</tspan><tspan x="48.6" y="0">emeinden </tspan><tspan x="0" y="14.06">(2.500 - 10.000 </tspan><tspan class="cls-33" x="73.33" y="14.06">E</tspan><tspan class="cls-44" x="79.2" y="14.06">W</tspan><tspan class="cls-46" x="89.75" y="14.06">)</tspan></text>
      <text class="cls-25" transform="translate(222.3 163.86)"><tspan class="cls-7" x="0" y="0">g</tspan><tspan class="cls-38" x="6.48" y="0">r</tspan><tspan x="10.19" y="0">oße </tspan><tspan class="cls-13" x="31.4" y="0">G</tspan><tspan x="39.03" y="0">emeinden </tspan><tspan x="0" y="14.06">(10.000 - 100.000 </tspan><tspan class="cls-33" x="85.35" y="14.06">E</tspan><tspan class="cls-44" x="91.22" y="14.06">W</tspan><tspan x="101.78" y="14.06">)</tspan></text>
      <text class="cls-25" transform="translate(376.11 97.89)"><tspan x="0" y="0">sehr </tspan><tspan class="cls-2" x="23.33" y="0">g</tspan><tspan class="cls-42" x="29.81" y="0">r</tspan><tspan class="cls-50" x="33.52" y="0">oße </tspan><tspan class="cls-13" x="54.73" y="0">G</tspan><tspan x="62.36" y="0">emeinden </tspan><tspan x="0" y="14.06">(&gt;100.000 </tspan><tspan class="cls-33" x="51.29" y="14.06">E</tspan><tspan class="cls-44" x="57.16" y="14.06">W</tspan><tspan class="cls-46" x="67.71" y="14.06">)</tspan></text>
      <text class="cls-25" transform="translate(424.87 150.19)"><tspan class="cls-78" x="0" y="0">W</tspan><tspan x="9.73" y="0">ien</tspan></text>
      <text class="cls-25" transform="translate(69.86 162.32)"><tspan class="cls-67" x="0" y="0">S</tspan><tspan class="cls-83" x="5.85" y="0">o</tspan><tspan x="12.2" y="0">ziale </tspan><tspan class="cls-75" x="36.72" y="0">A</tspan><tspan class="cls-50" x="43.86" y="0">ngebo</tspan><tspan class="cls-80" x="75.88" y="0">t</tspan><tspan class="cls-50" x="79.69" y="0">e</tspan><tspan x="0" y="14.06">am ungleichs</tspan><tspan class="cls-7" x="65.18" y="14.06">t</tspan><tspan x="68.99" y="14.06">en. </tspan></text>
      <line class="cls-14" x1="164.27" y1="40.39" x2="164.27" y2="202.41"/>
      <circle class="cls-41" cx="206.71" cy="93.04" r="6.94"/>
      <circle class="cls-37" cx="206.27" cy="129.5" r="9.26"/>
      <circle class="cls-81" cx="354.56" cy="100.57" r="16.78"/>
      <circle class="cls-81" cx="207.14" cy="167.83" r="11.86"/>
      <polygon class="cls-81" points="386.83 163.54 386.83 163.5 386.83 163.47 386.8 163.47 386.83 163.44 386.83 163.41 386.86 163.38 386.86 163.35 386.83 163.32 386.8 163.32 386.8 163.29 386.77 163.29 386.77 163.25 386.77 163.19 386.74 163.16 386.77 163.16 386.74 163.13 386.74 163.1 386.74 163.04 386.74 163 386.74 162.97 386.7 162.97 386.7 162.94 386.67 162.88 386.55 162.85 386.27 162.82 386.24 162.82 386.24 162.79 386.05 162.75 386.02 162.75 385.99 162.75 385.92 162.75 385.86 162.72 385.77 162.72 385.58 162.69 385.49 162.66 385.45 162.66 385.42 162.66 385.33 162.69 385.3 162.69 385.2 162.72 385.17 162.72 385.14 162.75 385.11 162.79 385.08 162.79 385.08 162.82 385.05 162.82 385.02 162.82 384.99 162.79 384.89 162.72 384.86 162.69 384.83 162.66 384.77 162.6 384.7 162.57 384.67 162.54 384.64 162.54 384.64 162.5 384.58 162.5 384.52 162.5 384.46 162.5 384.39 162.47 384.33 162.47 384.27 162.47 384.21 162.44 384.17 162.41 384.05 162.38 383.99 162.35 383.92 162.29 383.86 162.29 383.83 162.25 383.8 162.25 383.74 162.25 383.58 162.22 383.46 162.22 383.46 162.25 383.42 162.25 383.39 162.25 383.36 162.25 383.33 162.25 383.3 162.25 383.27 162.25 383.24 162.25 383.21 162.22 383.17 162.22 383.14 162.25 383.11 162.25 383.05 162.25 382.99 162.29 382.96 162.32 382.92 162.32 382.92 162.35 382.89 162.35 382.86 162.38 382.83 162.38 382.83 162.41 382.8 162.41 382.77 162.44 382.74 162.44 382.71 162.47 382.68 162.47 382.64 162.5 382.61 162.5 382.61 162.54 382.58 162.54 382.55 162.57 382.52 162.6 382.52 162.63 382.46 162.66 382.43 162.75 382.39 162.79 382.36 162.79 382.33 162.82 382.3 162.82 382.3 162.85 382.24 162.88 382.21 162.88 382.18 162.88 382.18 162.91 382.14 162.91 382.14 162.94 382.11 162.94 382.08 162.94 382.05 162.94 382.02 162.94 381.99 162.97 381.93 162.97 381.89 162.97 381.89 163 381.86 163.04 381.83 163.04 381.8 163.04 381.77 163 381.74 163.04 381.71 163 381.68 163 381.58 163 381.55 162.97 381.49 162.97 381.46 162.97 381.43 162.97 381.39 163 381.36 163 381.36 162.97 381.3 162.94 381.27 162.94 381.24 162.91 381.21 162.91 381.18 162.91 381.18 162.88 381.14 162.88 381.11 162.88 381.08 162.85 381.05 162.85 381.02 162.82 380.99 162.82 380.96 162.82 380.93 162.82 380.89 162.82 380.86 162.79 380.83 162.79 380.8 162.82 380.77 162.82 380.74 162.82 380.68 162.79 380.64 162.79 380.64 162.75 380.61 162.75 380.58 162.75 380.58 162.79 380.55 162.79 380.52 162.79 380.49 162.79 380.46 162.79 380.43 162.79 380.4 162.82 380.3 162.82 380.27 162.82 380.24 162.82 380.15 162.85 380.08 162.88 379.99 162.88 379.93 162.91 379.86 162.91 379.83 162.91 379.77 162.94 379.74 162.94 379.68 162.94 379.65 162.94 379.61 162.97 379.58 162.97 379.55 163 379.52 163 379.49 163 379.46 163 379.43 163.04 379.4 163.04 379.36 163.04 379.3 163.07 379.27 163.07 379.27 163.1 379.21 163.1 379.21 163.13 379.15 163.16 379.11 163.19 379.08 163.19 379.05 163.22 379.02 163.25 378.99 163.25 378.93 163.29 378.93 163.32 378.9 163.32 378.86 163.38 378.83 163.38 378.8 163.41 378.77 163.44 378.77 163.47 378.74 163.47 378.74 163.5 378.71 163.5 378.68 163.5 378.65 163.54 378.55 163.57 378.52 163.57 378.52 163.6 378.49 163.6 378.46 163.6 378.43 163.63 378.37 163.66 378.33 163.69 378.3 163.69 378.27 163.72 378.24 163.75 378.21 163.79 378.21 163.82 378.18 163.82 378.18 163.85 378.15 163.85 378.12 163.88 378.12 163.91 378.08 163.91 378.05 163.94 378.02 163.94 378.02 163.97 377.96 163.97 377.96 164 377.93 164 377.9 164 377.9 164.03 377.87 164.03 377.83 164.03 377.77 164.03 377.68 164.03 377.65 164.07 377.62 164.07 377.58 164.07 377.55 164.07 377.52 164.07 377.52 164.1 377.49 164.1 377.46 164.13 377.4 164.16 377.37 164.19 377.33 164.19 377.33 164.22 377.3 164.22 377.3 164.25 377.27 164.22 377.24 164.22 377.24 164.19 377.21 164.19 377.18 164.16 377.18 164.19 377.18 164.16 377.15 164.16 377.12 164.16 377.12 164.13 377.08 164.13 377.05 164.1 377.02 164.1 377.02 164.07 376.99 164.07 376.99 164.03 376.96 164.03 376.96 164 376.93 164 376.9 164 376.87 164 376.83 164 376.8 163.97 376.8 163.94 376.77 163.88 376.8 163.85 376.9 163.82 376.93 163.79 376.99 163.75 377.15 163.63 377.18 163.47 377.3 163.44 377.43 163.44 377.65 163.32 377.74 163.29 377.93 163.25 378.08 163.22 378.21 163.19 378.46 163.07 378.65 162.97 378.68 162.97 378.74 162.94 378.8 162.91 378.83 162.91 379.05 162.82 379.15 162.82 379.43 162.72 379.46 162.72 379.61 162.69 379.58 162.57 379.58 162.54 379.58 162.44 379.58 162.35 379.46 162.32 379.4 162.29 379.36 162.25 379.3 162.19 379.43 162.1 379.46 162.04 379.55 161.79 379.43 161.79 379.3 161.82 379.27 161.82 379.21 161.85 379.15 161.85 379.11 161.85 379.05 161.88 379.02 161.85 378.96 161.85 378.9 161.85 378.86 161.88 378.83 161.88 378.74 161.91 378.71 161.91 378.65 161.91 378.61 161.91 378.58 161.94 378.55 161.94 378.52 161.94 378.49 161.94 378.46 161.94 378.4 161.94 378.37 161.97 378.33 161.97 378.3 161.97 378.24 161.97 378.21 161.97 378.08 162.04 378.02 162.04 377.93 162.04 377.87 162.07 377.83 162.1 377.77 162.1 377.74 162.13 377.71 162.13 377.68 162.13 377.65 162.13 377.62 162.13 377.58 162.16 377.55 162.16 377.52 162.16 377.49 162.13 377.46 162.13 377.43 162.1 377.43 162.07 377.43 162.04 377.46 162.04 377.46 162 377.49 162 377.49 162.04 377.52 162.04 377.55 162.04 377.55 162 377.52 161.94 377.52 161.91 377.49 161.91 377.49 161.88 377.46 161.85 377.49 161.85 377.46 161.82 377.46 161.79 377.46 161.76 377.46 161.72 377.43 161.69 377.4 161.69 377.4 161.66 377.37 161.66 377.37 161.63 377.37 161.6 377.33 161.54 377.33 161.51 377.3 161.41 377.24 161.38 377.21 161.32 377.21 161.29 377.18 161.26 377.15 161.26 377.08 161.22 377.05 161.26 377.02 161.26 377.02 161.22 376.99 161.22 376.93 161.19 376.9 161.19 376.87 161.16 376.87 161.13 376.83 161.13 376.83 161.1 376.83 161.07 376.83 161.04 376.83 161.01 376.8 160.94 376.77 160.91 376.74 160.91 376.74 160.88 376.71 160.88 376.68 160.88 376.68 160.85 376.68 160.82 376.65 160.79 376.65 160.76 376.65 160.72 376.65 160.69 376.65 160.66 376.62 160.63 376.59 160.63 376.59 160.6 376.55 160.57 376.52 160.57 376.52 160.54 376.49 160.54 376.49 160.51 376.49 160.47 376.46 160.47 376.46 160.44 376.43 160.41 376.43 160.38 376.4 160.35 376.4 160.32 376.37 160.26 376.37 160.19 376.34 160.16 376.34 160.13 376.3 160.13 376.24 160.1 376.21 160.07 376.15 160.07 376.05 160.04 376.09 160.01 376.09 159.97 376.09 159.94 376.12 159.88 376.12 159.82 376.12 159.73 376.24 159.66 376.37 159.51 376.37 159.48 376.4 159.48 376.43 159.44 376.46 159.44 376.46 159.41 376.52 159.38 376.52 159.35 376.55 159.38 376.59 159.41 376.62 159.41 376.65 159.38 376.68 159.38 376.71 159.38 376.77 159.38 376.87 159.35 376.9 159.35 376.99 159.29 377.05 159.29 377.12 159.19 377.15 159.16 377.15 159.13 377.15 159.1 377.15 159.04 377.15 159.01 377.15 158.98 377.18 158.98 377.3 159.01 377.3 159.04 377.33 159.04 377.33 159.07 377.37 159.07 377.4 159.07 377.4 159.1 377.43 159.1 377.46 159.1 377.49 159.13 377.52 159.13 377.55 159.13 377.58 159.13 377.58 159.16 377.62 159.16 377.65 159.19 377.65 159.16 377.68 159.16 377.65 159.13 377.65 159.1 377.65 159.07 377.62 159.07 377.62 159.01 377.62 158.98 377.58 158.98 377.55 158.98 377.52 158.98 377.49 158.98 377.46 158.94 377.43 158.94 377.37 158.94 377.33 158.94 377.05 158.91 376.83 158.88 376.8 158.88 376.59 158.85 376.34 158.82 376.21 158.79 376.12 158.79 376.02 158.76 375.84 158.73 375.55 158.69 375.46 158.69 375.4 158.66 375.24 158.66 375.21 158.66 375.12 158.73 375.02 158.79 374.84 158.85 374.65 158.91 374.59 158.85 374.55 158.79 374.49 158.63 374.43 158.51 374.43 158.44 374.46 158.26 374.46 158.1 374.49 157.91 374.49 157.73 374.43 157.48 374.4 157.48 374.37 157.35 374.34 157.2 374.18 157.01 374.18 156.98 374.15 156.95 374.06 156.79 374.02 156.79 374.02 156.76 373.99 156.76 373.81 156.7 373.49 156.54 373.43 156.54 373.34 156.51 373.31 156.48 372.9 156.35 372.87 156.29 372.81 156.26 372.71 156.2 372.59 155.98 372.56 155.98 372.62 155.91 372.84 155.79 373.09 155.57 373.12 155.57 373.18 155.51 373.24 155.45 373.24 155.1 373.24 154.88 373.4 154.67 373.49 154.54 373.81 154.29 373.87 154.23 374.15 153.64 374.37 153.45 374.55 153.26 374.62 153.2 374.71 152.98 374.74 152.89 374.74 152.85 374.77 152.85 374.77 152.79 374.84 152.64 374.87 152.6 374.87 152.54 374.9 152.51 374.96 152.32 374.96 152.29 374.99 152.17 374.99 152.1 375.02 152.07 375.02 151.98 375.02 151.95 375.05 151.85 375.05 151.82 375.05 151.79 375.05 151.7 375.05 151.51 375.05 151.48 375.05 151.36 375.12 151.23 375.18 151.11 375.21 151.01 375.24 150.82 375.24 150.76 375.27 150.73 375.34 150.54 375.4 150.36 375.4 150.29 375.34 150.26 375.3 150.26 375.27 150.26 375.24 150.26 375.24 150.29 375.21 150.29 375.21 150.26 375.18 150.26 375.15 150.23 375.12 150.23 375.12 150.2 375.09 150.2 375.05 150.17 375.02 150.17 374.99 150.17 374.96 150.14 374.93 150.11 374.9 150.11 374.9 150.07 374.87 150.07 374.87 150.04 374.84 150.04 374.84 150.01 374.8 150.01 374.77 150.01 374.77 149.98 374.77 149.95 374.74 149.92 374.74 149.89 374.77 149.86 374.84 149.86 374.87 149.86 374.87 149.83 374.9 149.83 374.9 149.79 374.87 149.73 374.87 149.7 374.84 149.67 374.84 149.64 374.8 149.64 374.84 149.64 374.84 149.67 374.87 149.67 374.93 149.67 374.96 149.64 374.99 149.64 375.02 149.64 375.05 149.61 375.09 149.61 375.15 149.58 375.18 149.51 375.21 149.51 375.21 149.48 375.24 149.45 375.27 149.42 375.27 149.39 375.3 149.39 375.3 149.36 375.34 149.33 375.37 149.26 375.37 149.2 375.4 149.2 375.4 149.17 375.43 149.14 375.46 149.11 375.49 149.08 375.55 149.01 375.62 148.98 375.62 148.95 375.59 148.95 375.59 148.92 375.55 148.92 375.55 148.89 375.52 148.86 375.52 148.83 375.49 148.76 375.49 148.73 375.46 148.73 375.43 148.73 375.37 148.7 375.3 148.7 375.3 148.67 375.27 148.67 375.24 148.67 375.21 148.67 375.21 148.7 375.18 148.67 375.15 148.67 375.15 148.64 375.12 148.64 375.09 148.61 375.09 148.58 375.05 148.54 375.02 148.54 374.99 148.54 374.93 148.54 374.87 148.51 374.84 148.51 374.8 148.51 374.77 148.51 374.74 148.51 374.71 148.51 374.68 148.51 374.65 148.51 374.62 148.48 374.59 148.48 374.52 148.45 374.49 148.42 374.46 148.42 374.43 148.42 374.43 148.39 374.4 148.39 374.4 148.36 374.37 148.36 374.37 148.33 374.34 148.33 374.31 148.29 374.27 148.29 374.27 148.26 374.24 148.23 374.21 148.23 374.18 148.2 374.18 148.17 374.15 148.14 374.18 148.14 374.18 148.11 374.15 148.11 374.12 148.01 374.09 147.98 374.09 147.95 374.09 147.92 374.06 147.92 374.06 147.89 374.06 147.86 374.02 147.86 374.02 147.83 373.99 147.83 373.99 147.76 373.96 147.76 373.96 147.73 373.96 147.7 373.99 147.7 373.99 147.67 373.99 147.64 373.96 147.58 373.96 147.55 373.93 147.45 373.9 147.42 373.87 147.42 373.87 147.39 373.87 147.36 373.84 147.3 373.84 147.26 373.84 147.2 373.9 147.14 373.93 147.11 373.96 147.11 373.99 147.08 373.99 147.05 374.02 147.01 374.06 146.95 374.09 146.95 374.12 146.95 374.12 146.92 374.18 146.86 374.18 146.76 374.12 146.67 374.09 146.64 374.06 146.64 374.02 146.64 373.93 146.58 373.87 146.58 373.81 146.58 373.71 146.58 373.68 146.58 373.62 146.58 373.59 146.58 373.56 146.58 373.49 146.58 373.46 146.58 373.43 146.58 373.37 146.61 373.34 146.61 373.31 146.64 373.27 146.64 373.21 146.67 373.18 146.67 373.15 146.67 373.09 146.64 373.06 146.64 373.02 146.64 372.99 146.64 372.93 146.64 372.81 146.64 372.74 146.64 372.71 146.64 372.68 146.7 372.65 146.7 372.65 146.67 372.62 146.67 372.65 146.58 372.65 146.55 372.68 146.51 372.71 146.51 372.71 146.48 372.71 146.45 372.74 146.45 372.74 146.42 372.77 146.42 372.77 146.39 372.81 146.39 372.84 146.36 372.87 146.36 372.87 146.33 372.9 146.33 372.93 146.33 372.96 146.3 372.96 146.33 372.99 146.33 373.02 146.33 373.06 146.3 373.09 146.3 373.12 146.3 373.12 146.26 373.15 146.26 373.18 146.26 373.21 146.23 373.24 146.23 373.27 146.2 373.27 146.17 373.31 146.17 373.31 146.14 373.34 146.14 373.37 146.14 373.4 146.08 373.43 146.08 373.43 146.05 373.46 146.01 373.46 145.98 373.49 145.95 373.52 145.92 373.56 145.92 373.59 145.89 373.59 145.86 373.62 145.86 373.62 145.83 373.62 145.8 373.65 145.77 373.62 145.77 373.65 145.73 373.65 145.7 373.68 145.67 373.71 145.67 373.74 145.64 373.74 145.61 373.81 145.58 373.84 145.55 373.87 145.52 373.9 145.52 373.93 145.48 373.93 145.45 373.96 145.42 373.99 145.42 374.02 145.42 374.06 145.42 374.09 145.45 374.12 145.48 374.12 145.52 374.15 145.55 374.21 145.61 374.24 145.64 374.24 145.55 374.21 145.45 374.21 145.42 374.15 145.33 374.15 145.3 374.18 145.3 374.18 145.27 374.21 145.27 374.21 145.23 374.24 145.27 374.27 145.27 374.31 145.23 374.27 145.23 374.24 145.2 374.21 145.2 374.18 145.17 374.15 145.17 374.12 145.14 374.09 145.14 374.06 145.11 373.99 145.08 373.9 145.02 373.84 144.98 373.81 144.95 373.77 144.92 373.74 144.92 373.62 144.83 373.59 144.83 373.56 144.83 373.56 144.8 373.56 144.77 373.56 144.73 373.56 144.7 373.56 144.67 373.56 144.64 373.56 144.61 373.52 144.64 373.52 144.61 373.49 144.61 373.49 144.58 373.49 144.55 373.49 144.52 373.52 144.48 373.52 144.45 373.52 144.42 373.56 144.39 373.56 144.36 373.52 144.33 373.49 144.33 373.43 144.3 373.46 144.3 373.46 144.27 373.46 144.23 373.43 144.23 373.4 144.23 373.4 144.2 373.43 144.2 373.46 144.2 373.52 144.2 373.52 144.17 373.52 144.14 373.56 144.11 373.56 144.08 373.59 144.05 373.59 144.02 373.59 143.98 373.59 143.95 373.59 143.92 373.62 143.92 373.62 143.89 373.59 143.89 373.56 143.86 373.56 143.83 373.56 143.8 373.56 143.77 373.59 143.74 373.59 143.7 373.62 143.64 373.62 143.58 373.62 143.55 373.62 143.52 373.59 143.52 373.56 143.52 373.56 143.49 373.52 143.49 373.56 143.45 373.59 143.42 373.56 143.42 373.56 143.39 373.56 143.36 373.59 143.33 373.62 143.33 373.62 143.3 373.59 143.27 373.52 143.27 373.52 143.24 373.52 143.2 373.52 143.14 373.52 143.11 373.49 143.08 373.49 143.05 373.49 143.02 373.49 142.99 373.49 142.95 373.49 142.92 373.52 142.89 373.52 142.86 373.52 142.83 373.56 142.83 373.56 142.8 373.59 142.8 373.59 142.77 373.62 142.77 373.62 142.74 373.62 142.7 373.65 142.67 373.68 142.61 373.68 142.58 373.68 142.55 373.68 142.52 373.71 142.49 373.71 142.45 373.74 142.42 373.74 142.39 373.74 142.36 373.74 142.33 373.77 142.3 373.77 142.27 373.77 142.24 373.74 142.2 373.77 142.17 373.74 142.14 373.74 142.11 373.74 142.08 373.74 142.02 373.74 141.99 373.74 141.95 373.74 141.92 373.74 141.89 373.77 141.89 373.77 141.86 373.81 141.83 373.81 141.8 373.84 141.77 373.87 141.74 373.9 141.71 373.9 141.67 373.93 141.67 373.96 141.67 373.96 141.64 373.96 141.58 373.99 141.58 373.99 141.55 374.02 141.55 374.02 141.52 374.06 141.52 374.06 141.49 374.09 141.46 374.09 141.42 374.06 141.42 374.06 141.39 374.09 141.36 374.12 141.33 374.12 141.3 374.15 141.3 374.18 141.27 374.18 141.24 374.18 141.21 374.21 141.21 374.21 141.17 374.24 141.14 374.27 141.11 374.31 141.11 374.34 141.08 374.4 141.08 374.4 141.05 374.43 141.02 374.43 140.99 374.49 140.99 374.52 140.96 374.52 140.92 374.55 140.89 374.59 140.89 374.59 140.86 374.59 140.83 374.65 140.83 374.65 140.8 374.74 140.77 374.74 140.74 374.74 140.71 374.77 140.71 374.8 140.71 374.84 140.71 374.84 140.67 374.84 140.64 374.87 140.61 374.84 140.58 374.8 140.55 374.8 140.52 374.8 140.49 374.8 140.46 374.77 140.46 374.74 140.46 374.74 140.39 374.74 140.36 374.74 140.33 374.74 140.3 374.74 140.27 374.74 140.24 374.71 140.24 374.74 140.24 374.74 140.21 374.74 140.17 374.71 140.17 374.71 140.14 374.74 140.14 374.77 140.11 374.77 140.08 374.8 140.05 374.77 140.05 374.77 140.02 374.8 140.02 374.84 139.99 374.8 139.96 374.8 139.92 374.8 139.89 374.8 139.86 374.8 139.83 374.8 139.8 374.8 139.77 374.8 139.74 374.8 139.71 374.77 139.68 374.74 139.64 374.74 139.61 374.77 139.61 374.8 139.61 374.8 139.58 374.8 139.55 374.84 139.52 374.8 139.52 374.84 139.49 374.84 139.46 374.87 139.43 374.9 139.43 374.9 139.39 374.93 139.39 374.93 139.36 374.99 139.33 375.02 139.33 375.02 139.3 375.05 139.3 375.05 139.27 375.09 139.27 375.15 139.24 375.18 139.24 375.21 139.27 375.24 139.27 375.3 139.3 375.3 139.33 375.34 139.33 375.34 139.36 375.4 139.39 375.52 139.55 375.68 139.71 375.74 139.74 375.84 139.8 375.87 139.83 375.9 139.89 375.9 139.92 375.87 139.96 375.87 139.99 375.87 140.02 375.96 139.99 375.99 139.99 376.02 139.99 376.05 140.02 376.09 140.02 376.12 140.02 376.15 140.08 376.27 140.08 376.52 140.21 376.62 140.21 376.71 140.27 376.87 140.46 376.9 140.52 376.99 140.61 377.33 140.8 377.3 140.86 377.3 140.89 377.4 140.89 377.49 140.99 377.65 141.08 377.77 141.14 377.87 141.27 377.9 141.33 377.96 141.39 378.12 141.46 378.21 141.55 378.24 141.61 378.27 141.61 378.3 141.64 378.37 141.64 378.4 141.64 378.52 141.67 378.55 141.67 378.58 141.67 378.74 141.74 378.8 141.77 378.83 141.77 378.86 141.77 378.9 141.8 378.93 141.83 378.96 141.86 378.99 141.86 379.08 141.92 379.11 141.92 379.11 141.99 379.08 142.02 379.05 142.14 378.96 142.3 378.99 142.39 378.96 142.39 378.9 142.45 378.86 142.55 378.86 142.7 378.74 142.83 378.71 142.95 378.71 142.99 378.71 143.05 378.74 143.17 378.77 143.3 378.8 143.36 378.83 143.36 378.83 143.39 378.86 143.39 378.9 143.42 378.93 143.42 378.96 143.45 378.96 143.42 378.96 143.45 378.99 143.45 379.02 143.49 379.05 143.49 379.02 143.49 379.02 143.52 379.02 143.55 379.05 143.55 379.08 143.55 379.08 143.58 379.11 143.61 379.11 143.64 379.15 143.64 379.18 143.64 379.21 143.64 379.21 143.67 379.24 143.7 379.24 143.74 379.24 143.7 379.33 143.64 379.4 143.64 379.49 143.61 379.58 143.58 379.65 143.58 379.74 143.58 379.83 143.58 379.93 143.52 379.99 143.49 380.11 143.42 380.24 143.33 380.3 143.33 380.36 143.3 380.49 143.3 380.55 143.3 380.61 143.33 380.77 143.33 380.8 143.36 380.93 143.36 380.96 143.39 380.99 143.36 381.02 143.36 381.02 143.33 381.02 143.3 381.02 143.27 381.02 143.24 380.99 143.2 380.99 143.14 381.05 143.17 381.05 143.08 381.02 142.89 381.02 142.86 381.02 142.83 381.02 142.8 381.05 142.8 381.08 142.77 381.11 142.77 381.11 142.74 381.14 142.7 381.14 142.67 381.18 142.67 381.18 142.64 381.18 142.61 381.18 142.52 381.21 142.39 381.21 142.36 381.21 142.33 381.21 142.3 381.24 142.27 381.27 142.27 381.3 142.3 381.33 142.3 381.36 142.3 381.39 142.3 381.43 142.3 381.49 142.33 381.49 142.36 381.52 142.36 381.58 142.24 381.61 142.27 381.64 142.24 381.68 142.24 381.68 142.2 381.71 142.17 381.74 142.14 381.74 142.11 381.74 142.08 381.77 142.05 381.77 142.08 381.8 142.11 381.8 142.08 381.83 142.11 381.83 142.08 381.83 142.05 381.93 141.99 381.96 141.95 381.96 141.92 381.99 141.92 381.99 141.89 381.99 141.86 382.02 141.83 381.99 141.77 381.96 141.74 381.96 141.71 381.93 141.71 381.93 141.67 381.93 141.64 381.99 141.61 382.05 141.58 382.14 141.52 382.3 141.39 382.43 141.27 382.49 141.24 382.58 141.17 382.58 141.08 382.61 141.02 382.61 140.99 382.55 140.92 382.52 140.86 382.46 140.8 382.36 140.8 382.21 140.8 382.11 140.77 382.02 140.74 381.96 140.74 381.89 140.74 381.83 140.74 381.8 140.64 381.83 140.64 381.86 140.64 381.89 140.64 381.93 140.64 381.96 140.64 382.02 140.64 382.08 140.64 382.14 140.64 382.18 140.64 382.36 140.64 382.52 140.58 382.58 140.55 382.64 140.49 382.71 140.46 382.74 140.42 382.77 140.39 382.83 140.36 382.86 140.36 382.89 140.33 383.05 140.27 383.08 140.27 383.17 140.24 383.24 140.24 383.33 140.24 383.36 140.24 383.42 140.24 383.55 140.27 383.64 140.27 383.71 140.27 383.74 140.24 383.8 140.17 383.83 140.17 383.89 140.14 383.92 140.11 383.96 140.08 384.08 140.05 384.14 140.05 384.17 140.05 384.24 140.05 384.24 140.02 384.3 139.99 384.33 139.96 384.36 139.96 384.36 139.92 384.36 139.89 384.36 139.86 384.39 139.83 384.42 139.71 384.52 139.61 384.55 139.58 384.58 139.55 384.61 139.52 384.67 139.49 384.67 139.43 384.7 139.39 384.74 139.39 384.74 139.36 384.8 139.33 384.83 139.3 384.86 139.3 384.89 139.3 384.95 139.27 385.11 139.24 385.17 139.14 385.24 139.02 385.3 138.93 385.33 138.89 385.33 138.8 385.27 138.77 385.2 138.71 385.2 138.68 385.14 138.61 385.08 138.58 385.05 138.52 385.02 138.49 384.99 138.43 384.89 138.46 384.83 138.46 384.74 138.49 384.67 138.52 384.55 138.52 384.46 138.52 384.39 138.49 384.36 138.46 384.36 138.43 384.33 138.39 384.33 138.33 384.33 138.3 384.36 138.27 384.39 138.24 384.46 138.21 384.49 138.18 384.55 138.11 384.55 138.08 384.55 138.02 384.58 137.96 384.61 137.89 384.61 137.83 384.64 137.8 384.67 137.77 384.7 137.74 384.77 137.74 384.8 137.71 384.86 137.68 384.89 137.68 384.92 137.65 384.92 137.61 384.95 137.61 384.99 137.58 385.05 137.58 385.11 137.55 385.17 137.55 385.2 137.52 385.24 137.52 385.27 137.49 385.3 137.46 385.33 137.46 385.39 137.46 385.55 137.46 385.64 137.46 385.77 137.4 385.8 137.4 385.83 137.4 385.89 137.3 385.92 137.24 385.99 137.24 386.02 137.24 386.02 137.21 386.05 137.21 386.08 137.24 386.11 137.24 386.14 137.24 386.17 137.24 386.14 137.3 386.11 137.33 386.24 137.36 386.27 137.36 386.39 137.4 386.42 137.43 386.45 137.46 386.52 137.46 386.61 137.49 386.67 137.46 386.74 137.4 386.8 137.4 386.83 137.36 386.95 137.33 387.05 137.27 387.11 137.21 387.23 137.11 387.27 137.11 387.27 137.08 387.33 137.05 387.42 137.05 387.45 137.05 387.55 137.05 387.58 137.05 387.7 137.02 387.77 136.96 387.77 136.93 387.8 136.86 387.83 136.86 387.89 136.74 387.95 136.71 387.95 136.65 388.05 136.55 388.05 136.52 388.05 136.49 388.08 136.46 388.08 136.43 388.11 136.43 388.14 136.4 388.17 136.4 388.2 136.36 388.23 136.36 388.23 136.33 388.27 136.33 388.3 136.3 388.36 136.3 388.39 136.24 388.48 136.27 388.52 136.24 388.55 136.24 388.58 136.24 388.61 136.24 388.64 136.27 388.67 136.27 388.7 136.27 388.73 136.3 388.76 136.3 388.76 136.33 388.8 136.33 388.83 136.33 388.86 136.33 388.89 136.36 388.92 136.36 388.95 136.36 389.01 136.36 389.05 136.36 389.08 136.4 389.14 136.4 389.17 136.4 389.2 136.4 389.26 136.4 389.3 136.4 389.33 136.4 389.36 136.4 389.39 136.4 389.45 136.36 389.48 136.33 389.51 136.27 389.55 136.24 389.55 136.15 389.55 136.08 389.55 136.05 389.58 135.99 389.61 135.99 389.64 135.96 389.64 135.93 389.64 135.86 389.67 135.83 389.7 135.83 389.7 135.77 389.73 135.74 389.73 135.71 389.76 135.71 389.8 135.71 389.86 135.68 389.89 135.68 389.92 135.68 389.98 135.68 390.01 135.68 390.01 135.65 390.05 135.65 390.14 135.58 390.26 135.52 390.33 135.49 390.48 135.4 390.7 135.24 390.73 135.21 390.83 135.15 390.92 135.08 391.08 134.99 391.14 134.93 391.17 134.9 391.2 134.9 391.2 134.87 391.23 134.87 391.23 134.83 391.26 134.83 391.23 134.77 391.2 134.77 391.2 134.71 391.17 134.68 391.11 134.62 391.08 134.58 391.04 134.55 391.04 134.52 391.01 134.49 391.01 134.46 390.98 134.46 390.95 134.43 390.95 134.4 390.89 134.37 390.89 134.33 390.83 134.3 390.79 134.27 390.76 134.24 390.79 134.24 390.79 134.21 390.86 134.21 390.89 134.21 390.89 134.18 390.95 134.15 391.01 134.15 391.04 134.12 391.08 134.12 391.11 134.12 391.14 134.08 391.17 134.08 391.2 134.08 391.29 134.02 391.33 134.02 391.36 134.02 391.39 134.02 391.51 133.96 391.58 133.93 391.67 134.12 391.79 134.3 391.83 134.4 391.86 134.4 391.86 134.43 391.86 134.46 391.89 134.49 391.95 134.55 392.01 134.71 392.04 134.77 392.08 134.8 392.11 134.83 392.14 134.9 392.17 134.96 392.2 135.02 392.23 135.08 392.26 135.12 392.51 135.18 392.54 135.18 392.58 135.18 392.61 135.18 392.64 135.18 392.73 135.21 392.86 135.24 392.89 135.24 393.23 135.3 393.29 135.3 393.39 135.3 393.42 135.33 393.45 135.33 393.48 135.37 393.51 135.37 393.54 135.37 393.57 135.37 393.57 135.4 393.67 135.43 393.7 135.43 393.7 135.46 393.73 135.46 393.76 135.49 393.82 135.49 393.82 135.52 393.86 135.52 393.89 135.52 393.92 135.52 393.95 135.52 393.98 135.52 394.01 135.52 394.01 135.49 394.04 135.49 394.07 135.49 394.11 135.46 394.14 135.46 394.2 135.43 394.23 135.43 394.26 135.43 394.32 135.4 394.14 135.33 394.11 135.3 394.07 135.27 394.01 135.21 393.98 135.15 393.95 135.12 393.92 135.02 393.89 134.99 393.89 134.96 393.89 134.93 393.86 134.9 393.86 134.87 393.86 134.83 393.82 134.74 393.82 134.68 393.82 134.58 393.86 134.55 393.86 134.52 393.86 134.49 393.89 134.46 393.92 134.43 393.95 134.43 394.04 134.37 394.11 134.33 394.2 134.33 394.23 134.3 394.26 134.3 394.32 134.3 394.36 134.33 394.42 134.3 394.57 134.27 394.61 134.27 394.67 134.24 394.7 134.24 394.76 134.21 394.79 134.21 394.89 134.21 394.98 134.21 395.04 134.21 395.07 134.21 395.14 134.18 395.14 134.15 395.17 134.15 395.17 134.12 395.23 133.99 395.26 133.9 395.26 133.87 395.26 133.83 395.26 133.68 395.26 133.65 395.23 133.59 395.23 133.52 395.23 133.49 395.2 133.4 395.17 133.4 395.17 133.37 395.14 133.34 395.14 133.3 395.1 133.27 395.1 133.24 395.07 133.21 395.07 133.18 395.04 133.18 395.04 133.15 395.01 133.12 395.01 133.09 394.98 133.05 394.98 133.02 394.95 132.99 394.92 132.96 394.92 132.93 394.89 132.93 394.85 132.9 394.82 132.87 394.82 132.84 394.79 132.84 394.82 132.84 394.85 132.74 394.85 132.71 394.89 132.71 394.89 132.68 394.89 132.65 394.92 132.65 394.92 132.62 394.95 132.59 394.95 132.55 394.95 132.52 394.98 132.49 394.98 132.46 395.01 132.43 395.04 132.37 395.04 132.34 395.04 132.3 395.07 132.24 395.1 132.24 395.14 132.12 395.14 132.09 395.17 132.02 395.2 131.99 395.23 131.87 395.26 131.77 395.26 131.74 395.29 131.74 395.32 131.74 395.35 131.74 395.39 131.74 395.42 131.74 395.45 131.74 395.48 131.74 395.51 131.77 395.54 131.77 395.57 131.77 395.6 131.8 395.64 131.8 395.67 131.8 395.7 131.8 395.73 131.8 395.76 131.84 395.79 131.84 395.82 131.84 395.85 131.84 395.89 131.84 395.92 131.84 395.92 131.8 395.95 131.8 395.95 131.77 395.98 131.77 396.01 131.77 396.01 131.74 396.04 131.74 396.01 131.74 396.01 131.71 395.98 131.71 395.95 131.71 395.95 131.68 395.89 131.65 395.85 131.65 395.85 131.62 395.79 131.62 395.76 131.59 395.76 131.56 395.76 131.52 395.76 131.49 395.76 131.46 395.79 131.46 395.79 131.43 395.82 131.4 395.85 131.37 395.82 131.37 395.79 131.34 395.79 131.31 395.76 131.31 395.73 131.24 395.7 131.21 395.7 131.18 395.67 131.18 395.64 131.12 395.64 131.09 395.67 131.06 395.7 130.96 395.7 130.84 395.7 130.81 395.7 130.74 395.7 130.68 395.67 130.59 395.67 130.52 395.6 130.37 395.57 130.34 395.57 130.31 395.54 130.27 395.51 130.21 395.51 130.18 395.51 130.15 395.54 130.06 395.54 130.02 395.51 130.02 395.48 130.02 395.39 130.02 395.39 129.99 395.39 129.96 395.35 129.96 395.35 129.93 395.32 129.84 395.29 129.84 395.29 129.81 395.29 129.78 395.29 129.74 395.29 129.68 395.26 129.62 395.26 129.59 395.26 129.56 395.26 129.46 395.26 129.43 395.26 129.4 395.26 129.37 395.29 129.34 395.29 129.31 395.32 129.24 395.32 129.21 395.35 129.18 395.35 129.12 395.39 129.06 395.39 129.03 395.51 128.9 395.6 128.81 395.73 128.65 395.73 128.62 395.76 128.62 395.79 128.59 395.85 128.56 395.92 128.56 396.04 128.59 396.29 128.65 396.29 128.62 396.32 128.53 396.35 128.43 396.23 128.43 396.2 128.43 396.2 128.31 396.48 128.31 396.51 128.31 396.48 128.24 396.48 128.15 396.45 128.06 396.48 128.06 396.54 128.06 396.64 128.06 396.73 128.06 396.76 128.03 396.79 128.03 396.85 127.99 396.95 127.99 396.98 128.18 396.98 128.34 396.98 128.37 396.98 128.4 396.98 128.43 396.98 128.46 396.88 128.46 396.88 128.49 396.85 128.53 396.85 128.56 396.85 128.59 396.95 128.62 396.98 128.65 397.04 128.68 397.07 128.68 397.1 128.71 397.2 128.74 397.23 128.78 397.26 128.78 397.35 128.81 397.42 128.84 397.51 128.87 397.54 128.87 397.67 128.93 397.7 128.93 397.79 128.96 397.82 128.96 397.88 128.99 397.92 128.99 397.92 128.96 397.92 128.93 397.92 128.9 397.95 128.9 397.95 128.87 397.95 128.81 397.98 128.78 397.98 128.74 397.98 128.71 398.01 128.68 398.01 128.65 398.01 128.62 398.04 128.59 398.04 128.56 398.04 128.53 398.26 128.43 398.35 128.4 398.38 128.37 398.45 128.34 398.48 128.34 398.51 128.34 398.63 128.24 398.7 128.24 398.73 128.21 398.76 128.21 398.76 128.18 398.85 128.15 398.95 128.12 398.98 128.12 399.04 128.09 399.07 128.06 399.32 127.96 399.48 127.93 399.51 127.9 399.63 127.87 399.73 127.87 399.88 127.87 399.98 127.87 400.01 127.87 400.1 127.9 400.23 127.93 400.38 127.96 400.48 127.99 400.6 128.06 400.69 128.12 400.88 128.24 401.01 128.31 401.04 128.34 401.26 128.43 401.32 128.49 401.41 128.53 401.48 128.56 401.51 128.59 401.54 128.59 401.63 128.65 401.66 128.65 401.76 128.68 401.91 128.78 401.94 128.78 402.07 128.81 402.1 128.9 402.13 129.09 402.13 129.24 402.1 129.4 402.1 129.68 402.13 129.9 402.13 129.99 402.13 130.15 402.16 130.15 402.19 130.24 402.23 130.27 402.29 130.52 402.35 130.65 402.35 130.68 402.38 130.9 402.38 130.93 402.41 131.02 402.44 131.15 402.44 131.18 402.48 131.4 402.48 131.49 402.48 131.56 402.48 131.62 402.48 131.8 402.48 132.05 402.48 132.18 402.48 132.24 402.51 132.3 402.51 132.34 402.51 132.43 402.51 132.46 402.51 132.49 402.51 132.59 402.51 132.71 402.54 132.87 402.54 132.93 402.54 133.05 402.54 133.09 402.54 133.15 402.54 133.24 402.69 133.34 402.76 133.37 402.88 133.46 403.01 133.55 403.1 133.62 403.32 133.77 403.47 133.87 403.51 133.9 403.54 133.9 403.63 133.96 403.72 134.02 403.88 134.12 403.94 134.15 403.97 134.18 404.04 134.21 404.22 134.37 404.29 134.4 404.44 134.49 404.51 134.52 404.6 134.58 404.63 134.62 404.75 134.68 404.88 134.77 404.94 134.8 405 134.83 405.04 134.87 405.04 134.9 405.07 134.9 405.1 134.93 405.1 134.9 405.1 134.93 405.16 134.96 405.29 135.05 405.35 135.12 405.41 135.12 405.44 135.15 405.63 135.27 405.66 135.3 405.75 135.37 405.75 135.4 405.79 135.4 405.85 135.46 406.04 135.55 406.29 135.71 406.41 135.83 406.44 135.86 406.5 135.9 406.69 135.96 406.69 135.99 406.69 136.02 406.72 136.02 406.75 136.05 406.78 136.08 406.82 136.08 406.85 136.08 406.91 136.11 406.91 136.15 406.97 136.15 407 136.18 407.07 136.21 407.1 136.24 407.16 136.27 407.22 136.27 407.41 136.3 407.53 136.33 407.5 136.27 407.5 136.24 407.5 136.21 407.5 136.18 407.53 136.15 407.53 136.11 407.53 136.08 407.53 136.05 407.53 136.02 407.53 135.99 407.53 135.96 407.57 135.96 407.57 135.93 407.57 135.9 407.57 135.86 407.6 135.83 407.63 135.74 407.66 135.65 407.72 135.49 407.72 135.43 407.75 135.33 407.75 135.3 407.75 135.27 407.75 135.21 407.75 135.18 407.72 135.12 407.72 135.02 407.69 135.02 407.69 134.99 407.69 134.96 407.69 134.9 407.66 134.9 407.66 134.87 407.66 134.83 407.66 134.77 407.66 134.74 407.66 134.71 407.66 134.68 407.66 134.65 407.66 134.62 407.66 134.58 407.66 134.55 407.66 134.52 407.63 134.52 407.63 134.49 407.63 134.46 407.63 134.43 407.66 134.4 407.63 134.4 407.6 134.4 407.6 134.37 407.57 134.37 407.57 134.33 407.57 134.3 407.57 134.27 407.53 134.15 407.53 134.12 407.5 134.08 407.5 134.02 407.47 133.99 407.47 133.96 407.47 133.93 407.47 133.87 407.47 133.83 407.44 133.8 407.44 133.74 407.44 133.71 407.44 133.68 407.44 133.65 407.41 133.62 407.41 133.49 407.41 133.46 407.38 133.43 407.38 133.4 407.38 133.27 407.38 133.18 407.38 133.05 407.41 132.9 407.41 132.84 407.41 132.8 407.41 132.77 407.38 132.77 407.41 132.77 407.44 132.77 407.47 132.77 407.63 132.8 407.66 132.8 407.69 132.8 407.72 132.8 407.75 132.8 407.78 132.8 407.85 132.8 407.88 132.8 407.91 132.8 407.94 132.8 407.97 132.84 408 132.84 408.03 132.84 408.07 132.84 408.1 132.84 408.13 132.84 408.16 132.84 408.19 132.84 408.22 132.84 408.25 132.84 408.28 132.84 408.35 132.84 408.38 132.84 408.41 132.84 408.5 132.84 408.53 132.84 408.69 132.84 408.72 132.84 408.85 132.84 409.06 132.87 409.1 132.87 409.16 132.87 409.22 132.87 409.19 132.99 409.22 132.99 409.35 133.02 409.38 133.05 409.47 133.09 409.53 133.12 409.6 133.12 409.72 133.15 409.72 133.18 409.75 133.18 409.81 133.18 409.81 133.21 409.88 133.21 409.91 133.24 409.94 133.24 410 133.27 410.16 133.3 410.19 133.34 410.22 133.34 410.25 133.37 410.35 133.4 410.5 133.49 410.6 133.55 410.69 133.59 410.72 133.59 410.78 133.62 410.91 133.65 411.06 133.68 411.25 133.74 411.22 133.9 411.25 133.9 411.28 133.93 411.31 133.96 411.34 133.96 411.38 133.99 411.41 133.99 411.41 134.02 411.44 134.02 411.47 134.02 411.38 134.3 411.38 134.37 411.34 134.43 411.28 134.68 411.25 134.74 411.25 134.8 411.22 134.8 411.19 134.83 411.09 134.9 411 135.12 410.97 135.18 410.91 135.27 410.84 135.4 410.81 135.49 410.81 135.52 410.78 135.52 410.75 135.68 410.72 135.77 410.69 135.83 410.63 135.99 410.63 136.02 410.56 136.21 410.6 136.21 410.63 136.21 410.66 136.21 410.69 136.21 410.84 136.24 410.88 136.27 411.09 136.43 411.25 136.52 411.41 136.58 411.41 136.61 411.47 136.61 411.44 136.77 411.34 137.18 411.41 137.21 411.66 137.24 411.69 137.24 411.88 137.27 411.91 137.27 412.06 137.3 412.09 137.3 412.09 137.33 412.16 137.46 412.19 137.49 412.22 137.52 412.22 137.58 412.31 137.74 412.41 137.77 412.44 137.77 412.44 137.8 412.59 137.83 412.75 137.89 412.91 137.93 412.94 137.96 413.12 137.99 413.28 138.02 413.37 138.05 413.44 138.08 413.59 138.08 413.75 138.11 413.78 137.99 413.91 137.89 413.94 137.89 414.09 137.8 414.25 137.74 414.41 137.71 414.44 137.71 414.62 137.74 414.84 137.77 414.9 137.77 414.97 137.8 415.12 137.83 415.28 137.86 415.44 137.89 415.44 137.93 415.37 138.11 415.34 138.18 415.34 138.21 415.31 138.33 415.28 138.36 415.25 138.46 415.25 138.49 415.22 138.55 415.22 138.61 415.19 138.71 415.19 138.74 415.15 138.83 415.12 138.96 415.09 139.02 415.06 139.11 415.06 139.14 415.03 139.24 415 139.43 415 139.46 414.97 139.49 414.97 139.52 414.97 139.55 414.97 139.61 414.94 139.68 414.94 139.71 414.94 139.83 414.9 140.02 414.9 140.21 414.9 140.27 414.87 140.39 414.87 140.55 414.87 140.58 414.84 140.64 414.81 140.74 414.81 140.8 414.78 140.96 414.72 141.11 414.72 141.21 414.72 141.3 414.69 141.46 414.69 141.52 414.9 141.52 415.06 141.52 415.09 141.52 415.44 141.49 415.56 141.49 415.75 141.49 415.72 141.74 415.72 141.86 415.72 141.89 415.72 141.92 415.9 142.02 416.09 142.05 416.09 142.08 416.31 142.14 416.28 142.2 416.25 142.3 416.25 142.42 416.22 142.45 416.22 142.49 416.19 142.64 416.19 142.7 416.15 142.8 416.12 142.92 416.09 143.02 416.06 143.08 416.03 143.27 415.97 143.45 415.97 143.55 415.94 143.74 415.9 143.8 415.9 143.83 415.87 144.02 415.84 144.2 415.81 144.39 415.78 144.58 415.78 144.61 415.75 144.77 415.75 144.8 415.72 144.95 415.69 145.14 415.69 145.36 415.69 145.42 415.72 145.52 415.72 145.55 415.72 145.67 415.72 145.8 415.69 146.01 415.65 146.23 415.62 146.45 415.56 146.67 415.5 146.89 415.4 147.05 415.4 147.08 415.34 147.23 415.31 147.26 415.28 147.36 415.19 147.55 415.12 147.67 415.12 147.7 415.12 147.73 415.09 147.73 415.06 147.8 415.06 147.86 415.06 147.89 415.03 147.92 415 147.95 414.97 148.01 414.94 148.08 414.9 148.14 414.87 148.2 414.81 148.29 414.81 148.33 414.78 148.45 414.75 148.54 414.75 148.58 414.75 148.61 414.75 148.67 414.75 148.7 414.69 148.95 414.65 149.01 414.65 149.04 414.62 149.11 414.65 149.17 414.69 149.2 414.75 149.29 414.78 149.33 414.81 149.39 414.84 149.48 414.94 149.67 415 149.79 415.03 149.92 415.03 149.95 415.06 149.95 415.09 150.07 415.09 150.11 415.15 150.2 415.15 150.23 415.19 150.26 415.19 150.29 415.28 150.48 415.34 150.67 415.31 150.73 415.28 150.86 415.25 150.89 415.25 150.92 415.22 150.95 415.19 150.98 415.19 151.01 415.15 151.04 415.15 151.07 415.12 151.11 415.12 151.14 415.06 151.39 415.03 151.42 415.03 151.45 415.03 151.51 415 151.51 415 151.54 414.97 151.76 414.97 151.89 414.97 151.95 414.97 152.14 415.03 152.14 415.03 152.17 415.06 152.17 415.09 152.17 415.22 152.2 415.34 152.23 415.34 152.26 415.37 152.26 415.37 152.29 415.4 152.29 415.4 152.32 415.44 152.35 415.4 152.39 415.4 152.42 415.34 152.57 415.28 152.54 415.19 152.48 415.12 152.45 415.06 152.39 415.03 152.35 415 152.35 415 152.32 414.94 152.29 414.87 152.54 414.87 152.6 414.87 152.64 414.87 152.67 414.87 152.7 414.84 152.73 414.84 152.76 414.84 152.82 414.84 152.85 414.84 152.89 414.84 152.92 414.81 152.98 414.81 153.07 414.81 153.17 414.81 153.26 414.87 153.35 414.9 153.39 414.94 153.42 414.97 153.45 415 153.48 415.09 153.57 415.09 153.6 415.15 153.67 415.22 153.7 415.28 153.76 415.37 153.82 415.19 153.79 415.15 153.79 415.06 153.76 414.97 153.73 414.9 153.73 414.84 153.7 414.81 153.7 414.87 153.92 414.94 153.92 414.97 153.95 415.03 153.95 415.06 153.98 415.15 154.01 415.22 154.01 415.25 154.01 415.28 154.01 415.37 153.88 415.44 153.85 415.5 153.88 415.53 153.88 415.59 153.88 415.65 153.92 415.84 153.98 415.84 153.95 415.78 153.82 415.78 153.79 415.75 153.76 415.75 153.64 415.72 153.6 415.72 153.57 415.65 153.57 415.53 153.54 415.5 153.54 415.44 153.51 415.4 153.48 415.37 153.45 415.37 153.42 415.37 153.39 415.37 153.35 415.37 153.32 415.44 153.26 415.5 153.26 415.53 153.26 415.59 153.26 415.65 153.26 415.72 153.26 415.75 153.26 415.78 153.26 415.84 153.23 415.87 153.17 415.87 153.1 415.94 153.07 415.97 153.07 416 153.1 416.03 153.07 416.09 153.07 416.12 153.07 416.15 153.07 416.19 153.07 416.25 153.14 416.28 153.14 416.31 153.17 416.37 153.2 416.4 153.23 416.4 153.26 416.4 153.35 416.4 153.45 416.44 153.45 416.44 153.51 416.44 153.6 416.5 153.73 416.53 153.79 416.56 153.85 416.56 153.88 416.59 153.92 416.56 153.95 416.56 153.98 416.56 154.1 416.56 154.13 416.5 154.17 416.44 154.2 416.4 154.2 416.31 154.2 416.28 154.2 416.19 154.23 416.12 154.23 416.06 154.17 416.09 154.2 416.09 154.23 416.09 154.26 416.09 154.32 416.09 154.35 416.19 154.48 416.19 154.51 416.19 154.57 416.22 154.57 416.22 154.6 416.22 154.63 416.25 154.7 416.25 154.73 416.31 154.98 416.44 155.04 416.47 155.07 416.5 155.1 416.53 155.13 416.53 155.17 416.5 155.42 416.53 155.45 416.56 155.48 416.59 155.51 416.62 155.54 416.69 155.57 416.78 155.7 416.84 155.79 416.87 155.82 416.9 155.85 416.93 155.85 417.18 155.85 417.31 155.91 417.22 155.82 417.22 155.79 417.15 155.73 417.06 155.63 417 155.57 417.03 155.54 417.03 155.51 417.03 155.48 417.06 155.45 417.18 155.42 417.28 155.42 417.4 155.45 417.47 155.48 417.59 155.6 417.62 155.63 417.62 155.67 417.65 155.7 417.68 155.73 417.68 155.76 417.68 155.79 417.72 155.79 417.75 155.85 417.75 155.88 417.81 155.95 417.81 155.98 417.93 156.1 418 156.07 418.03 156.04 418.06 155.98 418.09 155.98 418.09 155.95 418.12 155.88 418.15 155.85 418.18 155.82 418.22 155.79 418.25 155.76 418.37 155.7 418.43 155.67 418.5 155.6 418.53 155.6 418.59 155.54 418.62 155.54 418.68 155.51 418.81 155.51 418.87 155.51 418.9 155.51 418.93 155.51 418.93 155.48 418.96 155.48 419.06 155.48 419.09 155.48 419.28 155.54 419.43 155.67 419.5 155.73 419.56 155.79 419.56 155.82 419.62 155.95 419.65 155.98 419.68 156.07 419.71 156.23 419.71 156.26 419.71 156.29 419.71 156.32 419.68 156.32 419.65 156.41 419.65 156.48 419.65 156.51 419.62 156.54 419.62 156.6 419.53 156.76 419.46 156.88 419.4 156.91 419.37 156.98 419.4 156.98 419.46 157.01 419.46 157.04 419.46 157.1 419.53 157.13 419.56 157.16 419.62 157.2 419.68 157.26 419.71 157.29 419.71 157.32 419.75 157.35 419.78 157.41 419.84 157.51 419.9 157.63 419.9 157.82 419.9 157.91 419.9 157.98 419.9 158.07 419.9 158.1 419.9 158.13 419.9 158.16 419.9 158.32 419.9 158.35 419.9 158.38 419.9 158.41 419.9 158.51 419.9 158.63 419.9 158.85 419.9 158.88 419.9 158.91 419.9 159.16 419.9 159.19 419.9 159.23 419.9 159.26 419.9 159.32 419.9 159.41 419.9 159.44 419.9 159.6 419.9 159.69 419.9 159.73 419.9 159.76 419.9 159.79 419.9 159.82 419.9 159.88 419.9 159.91 419.9 159.94 419.9 159.97 419.9 160.01 419.9 160.04 419.9 160.07 419.9 160.1 419.9 160.16 419.9 160.19 419.87 160.26 419.87 160.29 419.87 160.35 419.87 160.41 419.87 160.44 419.84 160.47 419.84 160.54 419.81 160.51 419.78 160.51 419.75 160.47 419.5 160.41 419.43 160.38 419.37 160.35 419.34 160.35 419.31 160.35 419.28 160.32 419.18 160.29 419.03 160.22 418.9 160.19 418.87 160.16 418.78 160.13 418.75 160.13 418.71 160.13 418.65 160.1 418.53 160.04 418.43 160.01 418.37 160.01 418.15 159.94 418.06 159.88 418.03 159.88 418 159.88 417.93 159.85 417.87 159.82 417.84 159.82 417.81 159.82 417.78 159.82 417.78 159.79 417.75 159.79 417.72 159.79 417.65 159.79 417.62 159.76 417.59 159.76 417.56 159.76 417.53 159.73 417.5 159.73 417.47 159.73 417.4 159.69 417.34 159.69 417.28 159.66 417.22 159.66 417.15 159.63 417.12 159.63 417.09 159.63 416.93 159.57 416.87 159.57 416.84 159.57 416.78 159.54 416.75 159.54 416.72 159.54 416.69 159.51 416.65 159.51 416.5 159.48 416.47 159.44 416.4 159.44 416.28 159.41 416.22 159.38 416.15 159.38 416.12 159.35 416.09 159.35 416.03 159.32 415.97 159.29 415.94 159.29 415.9 159.29 415.87 159.26 415.84 159.26 415.84 159.23 415.81 159.23 415.75 159.19 415.69 159.13 415.65 159.13 415.62 159.1 415.59 159.1 415.56 159.07 415.53 159.04 415.5 159.04 415.5 159.01 415.44 158.94 415.37 158.88 415.31 158.85 415.22 158.76 415.09 158.66 414.97 158.54 414.78 158.35 414.75 158.32 414.69 158.26 414.65 158.23 414.62 158.19 414.53 158.1 414.34 157.91 414.31 157.91 414.25 157.85 414.06 157.7 414 157.6 413.97 157.6 413.97 157.57 413.94 157.54 413.87 157.51 413.84 157.45 413.81 157.45 413.81 157.41 413.78 157.41 413.72 157.35 413.69 157.35 413.66 157.32 413.62 157.29 413.59 157.26 413.56 157.26 413.53 157.23 413.47 157.2 413.41 157.13 413.28 157.07 413.25 157.04 413.16 157.01 413.09 156.98 412.94 156.88 412.78 156.79 412.69 156.73 412.66 156.73 412.63 156.7 412.59 156.66 412.25 156.6 411.97 156.7 411.94 156.7 411.84 156.73 411.81 156.76 411.78 156.76 411.66 156.79 411.63 156.79 411.56 156.82 411.53 156.82 411.5 156.85 411.47 156.85 411.44 156.85 411.44 156.88 411.41 156.88 411.38 156.88 411.34 156.88 411.31 156.91 411.28 156.91 411.16 156.95 411.03 157.01 410.84 157.04 410.81 157.04 410.81 157.07 410.69 157.1 410.66 157.1 410.63 157.1 410.56 157.13 410.53 157.13 410.44 157.16 410.38 157.1 410.16 156.98 410.03 156.88 410 156.85 409.97 156.82 409.94 156.82 409.94 156.79 409.81 156.73 409.78 156.76 409.72 156.82 409.69 156.82 409.66 156.85 409.66 156.88 409.63 156.88 409.63 156.91 409.6 156.95 409.6 156.98 409.56 157.01 409.53 157.04 409.47 157.1 409.44 157.13 409.44 157.16 409.41 157.16 409.41 157.2 409.38 157.23 409.35 157.26 409.35 157.29 409.31 157.29 409.28 157.32 409.25 157.35 409.22 157.38 409.13 157.38 409.1 157.38 408.78 157.29 408.63 157.26 408.25 157.2 408.28 157.26 408.25 157.26 408.22 157.26 408.16 157.2 408.13 157.2 408.1 157.2 408.07 157.2 408.03 157.2 408 157.16 407.94 157.04 407.94 157.07 407.97 157.16 408 157.2 408 157.23 408 157.26 408 157.29 408 157.32 408 157.38 407.97 157.45 407.97 157.51 407.94 157.57 407.91 157.63 407.88 157.66 407.82 157.76 407.78 157.79 407.75 157.82 407.69 157.88 407.66 157.91 407.63 157.94 407.6 157.98 407.57 158.01 407.53 158.04 407.5 158.07 407.47 158.1 407.44 158.13 407.44 158.16 407.41 158.19 407.38 158.23 407.28 158.32 407.22 158.41 407.19 158.41 407.13 158.48 407.07 158.57 407 158.6 407 158.63 406.91 158.73 406.88 158.79 406.85 158.82 406.82 158.85 406.75 158.91 406.72 158.94 406.72 158.98 406.69 158.98 406.69 159.01 406.66 159.01 406.66 159.04 406.69 159.07 406.72 159.1 406.69 159.1 406.69 159.13 406.66 159.16 406.63 159.19 406.57 159.26 406.57 159.29 406.5 159.35 406.47 159.38 406.47 159.41 406.44 159.44 406.41 159.44 406.35 159.51 406.25 159.63 406.16 159.73 406.13 159.73 406.1 159.73 406.07 159.73 406.07 159.76 405.94 159.85 405.88 159.94 405.85 159.94 405.85 159.97 405.82 159.97 405.79 160.01 405.75 160.01 405.72 160.04 405.69 160.07 405.63 160.16 405.6 160.16 405.57 160.22 405.54 160.22 405.54 160.26 405.5 160.29 405.44 160.32 405.41 160.35 405.35 160.38 405.32 160.41 405.29 160.41 405.22 160.44 405.19 160.47 405.13 160.47 405 160.51 404.97 160.51 404.91 160.51 404.88 160.51 404.82 160.54 404.79 160.54 404.75 160.54 404.44 160.57 404.32 160.57 404.26 160.57 404.16 160.6 404.13 160.6 404.07 160.6 404.01 160.6 403.97 160.63 403.91 160.63 403.76 160.63 403.6 160.66 403.57 160.66 403.35 160.69 403.32 160.69 403.22 160.69 403.16 160.72 403.13 160.72 403.1 160.72 403.07 160.72 403.01 160.72 402.91 160.72 402.79 160.76 402.79 161.13 402.76 161.19 402.76 161.26 402.76 161.44 402.76 161.47 402.76 161.51 402.76 161.57 402.76 161.63 402.76 161.69 402.79 161.76 402.79 161.79 402.79 161.85 402.79 161.88 402.82 161.85 402.85 161.88 402.85 161.91 402.85 161.94 402.85 161.97 402.88 161.97 402.91 161.97 402.91 162 402.91 162.04 402.94 162.07 402.94 162.13 402.94 162.19 402.94 162.25 402.94 162.35 402.94 162.41 402.94 162.57 402.94 162.6 402.94 162.63 402.97 162.66 402.97 162.79 402.97 162.85 402.97 162.97 403.01 163.1 403.04 163.19 403.07 163.25 403.1 163.29 403.1 163.35 403.13 163.35 403.13 163.41 403.16 163.44 403.16 163.5 403.19 163.54 403.22 163.57 403.29 163.69 403.38 163.94 403.29 163.91 403.16 163.85 403.13 163.85 403.1 163.85 403.07 163.85 403.04 163.82 403.01 163.82 402.97 163.82 402.94 163.82 402.91 163.82 402.88 163.82 402.85 163.82 402.82 163.82 402.79 163.79 402.76 163.79 402.72 163.79 402.69 163.79 402.66 163.79 402.63 163.79 402.6 163.75 402.57 163.75 402.54 163.75 402.51 163.75 402.48 163.75 402.48 163.72 402.38 163.72 402.35 163.69 402.32 163.69 402.29 163.69 402.26 163.66 402.23 163.66 402.19 163.66 402.16 163.66 402.13 163.63 402.1 163.63 402.07 163.63 402.07 163.6 402.04 163.6 402.01 163.6 401.98 163.6 401.94 163.57 401.91 163.57 401.88 163.54 401.85 163.54 401.79 163.5 401.76 163.47 401.73 163.47 401.69 163.44 401.66 163.44 401.66 163.47 401.63 163.47 401.63 163.54 401.6 163.57 401.6 163.6 401.57 163.63 401.57 163.66 401.57 163.69 401.54 163.72 401.51 163.75 401.48 163.79 401.44 163.82 401.44 163.85 401.41 163.85 401.41 163.88 401.38 163.88 401.35 163.88 401.29 163.88 401.16 163.91 401.04 163.91 400.88 163.91 400.85 163.94 400.79 163.94 400.73 163.94 400.69 163.94 400.6 163.94 400.54 163.94 400.48 163.97 400.45 163.97 400.38 163.97 400.35 163.97 400.35 164 400.35 164.03 400.38 164.03 400.41 164.13 400.41 164.16 400.45 164.19 400.45 164.22 400.45 164.25 400.48 164.28 400.48 164.35 400.45 164.35 400.41 164.35 400.23 164.38 399.95 164.44 399.95 164.38 399.91 164.35 399.91 164.32 399.88 164.25 399.88 164.22 399.88 164.19 399.85 164.13 399.82 164.07 399.82 164.03 399.79 164 399.76 164 399.76 163.97 399.73 163.97 399.7 163.97 399.66 163.94 399.63 163.94 399.6 163.91 399.54 163.91 399.51 163.91 399.51 163.88 399.54 163.85 399.54 163.82 399.54 163.79 399.54 163.75 399.54 163.72 399.51 163.72 399.51 163.69 399.48 163.69 399.45 163.69 399.41 163.69 399.38 163.69 399.32 163.69 399.29 163.66 399.26 163.66 399.23 163.66 399.23 163.63 399.16 163.63 399.13 163.63 399.1 163.6 399.07 163.6 398.98 163.57 398.95 163.57 398.91 163.57 398.88 163.57 398.85 163.54 398.82 163.54 398.79 163.54 398.76 163.54 398.73 163.5 398.7 163.5 398.42 163.44 398.38 163.44 398.35 163.44 398.32 163.44 398.29 163.44 398.26 163.41 398.23 163.41 398.17 163.41 398.1 163.38 398.04 163.38 398.01 163.38 397.98 163.35 397.85 163.32 397.85 163.29 397.82 163.29 397.82 163.25 397.79 163.25 397.76 163.25 397.73 163.25 397.51 163.19 397.32 163.13 397.17 163.1 397.04 163.07 396.88 163.04 396.82 163.04 396.76 163.04 396.73 163.04 396.45 163 396.35 162.97 396.29 162.97 396.26 162.97 396.07 162.94 395.79 162.94 395.76 162.94 395.73 162.94 395.57 162.94 395.54 162.94 395.51 162.91 395.35 162.88 395.29 162.88 395.26 162.88 395.23 162.88 395.2 162.88 395.14 162.85 395.1 162.85 395.07 162.85 395.01 162.82 395.01 162.79 394.98 162.79 394.95 162.79 394.92 162.75 394.85 162.75 394.82 162.75 394.82 162.72 394.79 162.69 394.73 162.69 394.7 162.69 394.67 162.69 394.64 162.69 394.61 162.69 394.57 162.69 394.54 162.69 394.51 162.69 394.48 162.69 394.45 162.69 394.45 162.66 394.42 162.66 394.39 162.66 394.36 162.66 394.32 162.66 394.29 162.66 394.2 162.66 394.14 162.66 394.11 162.63 394.07 162.63 394.04 162.63 394.01 162.63 393.98 162.63 393.95 162.63 393.92 162.63 393.89 162.63 393.89 162.6 393.86 162.6 393.82 162.6 393.79 162.6 393.79 162.57 393.76 162.54 393.73 162.54 393.54 162.41 393.51 162.41 393.48 162.38 393.45 162.38 393.42 162.35 393.2 162.22 393.17 162.19 393.14 162.16 393.07 162.13 393.01 162.1 392.98 162.07 392.95 162.07 392.92 162.07 392.89 162.07 392.82 162.04 392.76 162.04 392.76 162 392.64 161.97 392.61 161.97 392.58 161.97 392.54 161.97 392.51 161.97 392.48 161.97 392.45 161.97 392.42 161.97 392.39 161.97 392.39 161.94 392.36 161.94 392.33 161.94 392.29 161.94 392.26 161.91 392.23 161.91 392.2 161.91 392.17 161.91 392.17 161.88 392.14 161.88 392.11 161.88 392.04 161.85 392.01 161.85 391.98 161.82 391.95 161.82 391.92 161.82 391.89 161.82 391.86 161.79 391.83 161.79 391.79 161.79 391.76 161.76 391.73 161.76 391.58 161.72 391.54 161.72 391.51 161.69 391.48 161.69 391.45 161.69 391.42 161.69 391.42 161.66 391.39 161.66 391.36 161.66 391.33 161.66 391.29 161.66 391.29 161.63 391.26 161.63 391.23 161.63 391.2 161.63 391.17 161.63 391.17 161.6 391.14 161.6 391.11 161.6 391.08 161.6 391.04 161.57 391.01 161.57 390.98 161.57 390.83 161.54 390.73 161.51 390.7 161.47 390.64 161.47 390.48 161.41 390.45 161.41 390.39 161.41 390.36 161.38 390.33 161.38 390.2 161.35 390.14 161.35 390.11 161.32 390.05 161.32 390.01 161.32 389.98 161.32 389.98 161.29 389.92 161.29 389.89 161.29 389.86 161.29 389.83 161.26 389.89 161.54 389.86 161.57 389.86 161.6 389.83 161.69 389.8 161.72 389.8 161.79 389.76 161.85 389.76 161.88 389.73 161.91 389.64 162.16 389.64 162.19 389.61 162.22 389.58 162.38 389.55 162.44 389.55 162.5 389.51 162.54 389.51 162.57 389.51 162.6 389.42 162.88 389.36 163.07 389.3 163.22 389.3 163.29 389.3 163.32 389.26 163.35 389.23 163.44 389.2 163.57 389.17 163.66 389.17 163.63 389.17 163.6 389.14 163.6 389.11 163.6 389.05 163.6 389.01 163.6 388.95 163.57 388.89 163.54 388.86 163.54 388.83 163.5 388.83 163.54 388.8 163.54 388.76 163.54 388.73 163.5 388.7 163.5 388.7 163.47 388.67 163.47 388.67 163.5 388.64 163.5 388.64 163.54 388.61 163.6 388.61 163.66 388.61 163.69 388.58 163.69 388.58 163.82 388.55 163.97 388.55 164.1 388.52 164.16 388.52 164.19 388.52 164.25 388.52 164.32 388.52 164.44 388.52 164.5 388.52 164.57 388.48 164.6 388.42 164.6 388.36 164.6 388.33 164.6 388.3 164.6 388.2 164.6 388.17 164.57 388.08 164.53 388.08 164.5 388.05 164.5 387.98 164.5 387.89 164.44 387.86 164.41 387.83 164.41 387.83 164.38 387.8 164.38 387.77 164.35 387.73 164.32 387.67 164.28 387.61 164.25 387.58 164.22 387.52 164.19 387.48 164.16 387.42 164.1 387.33 164 387.27 163.97 387.23 163.94 387.2 163.88 387.08 163.75 387.05 163.72 387.02 163.72 387.02 163.69 386.92 163.66 386.8 163.6 386.83 163.57 386.83 163.54"/>
      <text class="cls-27" transform="translate(387.64 191.98)"><tspan class="cls-67" x="0" y="0">M</tspan><tspan x="9.49" y="0">edianindi</tspan><tspan class="cls-49" x="55.46" y="0">k</tspan><tspan class="cls-69" x="61.17" y="0">a</tspan><tspan class="cls-80" x="66.77" y="0">t</tspan><tspan x="70.57" y="0">o</tspan><tspan class="cls-38" x="77.01" y="0">r</tspan><tspan x="80.72" y="0">en</tspan></text>
    </g>
  </g>
</svg>