<?xml version="1.0" encoding="UTF-8"?>
<svg xmlns="http://www.w3.org/2000/svg" viewBox="0 0 542.05 548.69">
  <!-- <g id="vollfarbe">
    <g id="residual" data-name="residual">
      <g>
        <path d="M272.25,318.35c-78.85,0-143-64.15-143-143S193.4,32.35,272.25,32.35s143,64.15,143,143-64.15,143-143,143Z" fill="#f0ae9f"/>
        <path d="M272.25,33.35c78.42,0,142,63.58,142,142s-63.58,142-142,142-142-63.58-142-142S193.82,33.35,272.25,33.35M272.25,31.35c-38.46,0-74.63,14.98-101.82,42.18-27.2,27.2-42.18,63.36-42.18,101.82s14.98,74.63,42.18,101.82c27.2,27.2,63.36,42.18,101.82,42.18s74.63-14.98,101.82-42.18c27.2-27.2,42.18-63.36,42.18-101.82s-14.98-74.63-42.18-101.82c-27.2-27.2-63.36-42.18-101.82-42.18h0Z" fill="#fff"/>
      </g>
    </g>
    <g id="soz-infra" data-name="soz-infra">
      <g>
        <path d="M383.25,510.61c-78.85,0-143-64.15-143-143s64.15-143,143-143,143,64.15,143,143-64.15,143-143,143Z" fill="#a5cdc8"/>
        <path d="M383.25,225.61c78.42,0,142,63.58,142,142s-63.58,142-142,142-142-63.58-142-142,63.58-142,142-142M383.25,223.61c-38.46,0-74.63,14.98-101.82,42.18-27.2,27.2-42.18,63.36-42.18,101.82s14.98,74.63,42.18,101.82c27.2,27.2,63.36,42.18,101.82,42.18s74.63-14.98,101.82-42.18c27.2-27.2,42.18-63.36,42.18-101.82s-14.98-74.63-42.18-101.82c-27.2-27.2-63.36-42.18-101.82-42.18h0Z" fill="#fff"/>
      </g>
    </g>
    <g id="zeit" data-name="zeit">
      <g>
        <path d="M161.25,510.61c-78.85,0-143-64.15-143-143s64.15-143,143-143,143,64.15,143,143-64.15,143-143,143Z" fill="#fcd799"/>
        <path d="M161.25,225.61c78.42,0,142,63.58,142,142s-63.58,142-142,142S19.25,446.03,19.25,367.61s63.58-142,142-142M161.25,223.61c-38.46,0-74.63,14.98-101.82,42.18-27.2,27.2-42.18,63.36-42.18,101.82s14.98,74.63,42.18,101.82c27.2,27.2,63.36,42.18,101.82,42.18s74.63-14.98,101.82-42.18c27.2-27.2,42.18-63.36,42.18-101.82s-14.98-74.63-42.18-101.82c-27.2-27.2-63.36-42.18-101.82-42.18h0Z" fill="#fff"/>
      </g>
    </g>
    <g id="overlay" data-name="overlay">
      <g>
        <path d="M250.86,316.76c-50.32-7.55-93.16-41.73-111.78-89.2l-.46-1.17,1.24-.19c7.05-1.06,14.24-1.59,21.38-1.59,43.71,0,84.46,19.62,111.78,53.82l.5.62-.5.62c-8.85,11.08-15.94,23.34-21.09,36.45l-.29.74-.79-.12Z" fill="#f7c9b1"/>
        <path d="M161.25,225.61c44.93,0,84.98,20.87,111,53.45-8.8,11.02-16,23.37-21.24,36.71-50.79-7.62-92.78-42.13-111-88.58,6.93-1.04,14.02-1.58,21.24-1.58M161.25,223.61c-7.19,0-14.44.54-21.53,1.6l-2.48.37.92,2.34c18.76,47.81,61.89,82.22,112.57,89.82l1.58.24.58-1.48c5.11-13.02,12.15-25.2,20.94-36.2l1-1.25-1-1.25c-27.51-34.44-68.54-54.2-112.56-54.2h0Z" fill="#fff"/>
      </g>
      <g>
        <path d="M271.47,456.79c-20.42-25.57-31.22-56.4-31.22-89.18,0-18.01,3.31-35.58,9.83-52.21l.29-.74.79.12c6.95,1.04,14.05,1.57,21.09,1.57s14.14-.53,21.09-1.57l.79-.12.29.74c6.52,16.63,9.83,34.2,9.83,52.21,0,32.77-10.79,63.61-31.22,89.18l-.78.98-.78-.98Z" fill="#cddac8"/>
        <path d="M293.48,315.77c6.3,16.06,9.76,33.55,9.76,51.84,0,33.49-11.6,64.27-31,88.55-19.4-24.28-31-55.06-31-88.55,0-18.3,3.46-35.78,9.76-51.84,6.93,1.04,14.02,1.58,21.24,1.58s14.31-.54,21.24-1.58M294.76,313.55l-1.58.24c-6.9,1.03-13.95,1.56-20.94,1.56s-14.04-.52-20.94-1.56l-1.58-.24-.58,1.48c-6.57,16.75-9.9,34.43-9.9,52.57,0,16.61,2.81,32.9,8.34,48.4,5.35,14.98,13.12,28.91,23.09,41.4l1.56,1.96,1.56-1.96c9.98-12.49,17.75-26.42,23.09-41.4,5.54-15.51,8.34-31.79,8.34-48.4,0-18.14-3.33-35.83-9.9-52.57l-.58-1.48h0Z" fill="#fff"/>
      </g>
      <g>
        <path d="M292.55,316.13c-5.14-13.11-12.24-25.38-21.09-36.45l-.5-.62.5-.62c27.32-34.2,68.07-53.82,111.78-53.82,7.14,0,14.34.54,21.38,1.59l1.24.19-.46,1.17c-18.63,47.47-61.46,81.65-111.78,89.2l-.79.12-.29-.74Z" fill="#dfc8bd"/>
        <path d="M383.25,225.61c7.22,0,14.31.54,21.24,1.58-18.22,46.45-60.21,80.96-111,88.58-5.23-13.34-12.43-25.69-21.24-36.71,26.02-32.57,66.07-53.45,111-53.45M383.25,223.61c-44.02,0-85.05,19.75-112.56,54.2l-1,1.25,1,1.25c8.78,11,15.83,23.17,20.94,36.2l.58,1.48,1.58-.24c50.68-7.6,93.81-42.02,112.57-89.82l.92-2.34-2.48-.37c-7.1-1.06-14.34-1.6-21.53-1.6h0Z" fill="#fff"/>
      </g>
      <g>
        <path d="M272.25,318.35c-7.14,0-14.34-.54-21.38-1.59l-1.24-.19.46-1.17c5.22-13.3,12.41-25.74,21.39-36.97l.78-.98.78.98c8.97,11.23,16.17,23.67,21.39,36.97l.46,1.17-1.24.19c-7.05,1.06-14.25,1.59-21.38,1.59Z" fill="#beb3a7"/>
        <path d="M272.25,279.05c8.8,11.02,16,23.37,21.24,36.71-6.93,1.04-14.02,1.58-21.24,1.58s-14.31-.54-21.24-1.58c5.23-13.34,12.43-25.69,21.24-36.71M272.25,275.85l-1.56,1.96c-9.03,11.31-16.28,23.84-21.54,37.23l-.92,2.34,2.48.37c7.1,1.06,14.34,1.6,21.53,1.6s14.44-.54,21.53-1.6l2.48-.37-.92-2.34c-5.26-13.4-12.5-25.92-21.54-37.23l-1.56-1.96h0Z" fill="#fff"/>
      </g>
    </g>
  </g> -->
  <g id="vollfarbe-icons">
    <g id="residual" data-name="residual">
      <g>
        <path d="M272.25,318.35c-78.85,0-143-64.15-143-143S193.4,32.35,272.25,32.35s143,64.15,143,143-64.15,143-143,143Z" fill="#f0ae9f"/>
        <path d="M272.25,33.35c78.42,0,142,63.58,142,142s-63.58,142-142,142-142-63.58-142-142S193.82,33.35,272.25,33.35M272.25,31.35c-38.46,0-74.63,14.98-101.82,42.18-27.2,27.2-42.18,63.36-42.18,101.82s14.98,74.63,42.18,101.82c27.2,27.2,63.36,42.18,101.82,42.18s74.63-14.98,101.82-42.18c27.2-27.2,42.18-63.36,42.18-101.82s-14.98-74.63-42.18-101.82c-27.2-27.2-63.36-42.18-101.82-42.18h0Z" fill="#fff"/>
      </g>
      <g>
        <rect x="148.58" y="115.46" width="42.05" height="39.78" rx="12" ry="12" fill="#fff"/>
        <path d="M182.62,134.52l-13.69,4.65-16.31-5.64c-1.41-.97-.39-1.48.68-1.9,5.13-2,10.66-3.56,15.84-5.39,5.1,1.98,10.44,3.4,15.53,5.39,2.53.99,1.07,1.81-.69,2.38.16.85-.25,3.52.15,4.08.23.32.88.36,1.01.81.16.56.28,2.76-.46,2.89-.38.07-2.69.05-2.95-.08-.07-.03-.31-.27-.31-.3v-2.42c0-.4,1.21-.94,1.21-1.06v-3.41Z" fill="#f0ae9f"/>
        <path d="M179.44,137.09v6.44c-1.5,1.61-4.05,2.57-6.21,3.03-4.87,1.04-10.76.35-14.7-2.88v-6.59l10.38,3.5.84-.08,9.69-3.42Z" fill="#f0ae9f"/>
      </g>
      <g>
        <rect x="352.76" y="115.46" width="42.05" height="39.78" rx="12" ry="12" fill="#fff"/>
        <path d="M356.29,130.93c.16-1.1,1.41-2.4,2.53-2.54l29.52.07c1.12.44,2.01,1.41,2.16,2.63-.23,3.52.37,7.56.02,11.01-.04.41-.03.69-.52.79-1.04.2-2.59-.13-3.69,0-.33-5.02-7.27-4.97-7.69,0l-11.22.02c-.44-5.12-7.54-5.19-7.77,0l-3.34-.15v-11.82ZM366.87,136.51v-5.44l-.22-.22h-7.47v5.66h7.69ZM377.46,130.85h-7.69v5.66h7.69v-5.66ZM387.61,130.85h-7.47l-.22.22v5.44h7.69v-5.66Z" fill="#f0ae9f"/>
        <path d="M361.7,144.58c-2.2-2.31,1.17-5.63,3.42-3.49,2.43,2.32-1.29,5.73-3.42,3.49Z" fill="#f0ae9f"/>
        <path d="M384.23,144.58c-2.18,2.18-5.73-1.07-3.51-3.44,2.17-2.31,5.76,1.18,3.51,3.44Z" fill="#f0ae9f"/>
      </g>
      <g>
        <rect x="251.07" y="46.29" width="42.05" height="39.78" rx="12" ry="12" fill="#fff"/>
        <path d="M266.24,53.23l.22-.18c.31-.06.87-.1,1.03.24l.09,5.83c.14.48,1.79.71,1.94-.25.25-1.64-.19-3.79.04-5.49.15-.49,1.19-.48,1.43-.17.13.16.2.71.23.95.26,1.59.74,5.3.48,6.77-.17,1.01-1.02,2.05-1.78,2.69-1.47,1.23-2.18.57-2.11,2.89.12,3.79.67,7.66.79,11.45.06,1.99-.17,2.74-2.44,2.44-1.49-.2-.89-2.63-.85-3.63.17-3.81.44-7.61.63-11.42-.15-.66-1.34-1.11-1.88-1.54-.79-.64-1.85-1.83-2.01-2.86-.23-1.43.25-5.62.55-7.15.22-1.14,1.51-1.08,1.64-.18.26,1.69-.23,3.85.07,5.58.2.41,1.25.29,1.65.2.06-.04.26-.36.26-.39v-5.79Z" fill="#f0ae9f"/>
        <path d="M276.6,52.94c2.82-.48,4.26,1.58,4.86,4.02.57,2.32.67,4.37-1.35,5.94-.67.52-1.83.78-1.9,1.8-.02.31.13.59.13.9.01,4.61.43,9.21.53,13.83.12,1.51-2.69,1.58-2.89.25l.62-15.09c-.65-1.48-2.21-1.41-3.07-2.99-1.26-2.32.07-8.15,3.06-8.66Z" fill="#f0ae9f"/>
      </g>
      <g>
        <rect x="193.32" y="67.62" width="42.05" height="39.78" rx="12" ry="12" fill="#fff"/>
        <path d="M202.39,78.93l24.4.14.38.41.11,18.82-.61.97-23.75.12c-.52.05-.89-.19-1.17-.61l-.11-18.82.74-1.03ZM213.04,82.09c-7.5,1.09-7.5,13,0,14.08,11.31,1.64,11.3-15.72,0-14.08Z" fill="#f0ae9f"/>
        <path d="M221.17,78.3h-2.16c.09-.66-.38-1.31-.98-1.49-.7-.21-5.93-.21-6.8-.08-1.23.19-1.23,1.41-1.61,1.54l-2.05-.08c.13-1.6,1.19-3.12,2.8-3.51,1.37-.33,5.84-.28,7.36-.14,2,.18,3.57,1.7,3.44,3.75Z" fill="#f0ae9f"/>
        <path d="M215.65,87.95h2.86c.43.26.4,1.9.21,2.18l-2.88.27-.21,2.74-.3.3-1.96-.16-.27-2.88-2.88-.27c-.19-.28-.22-1.92.21-2.18h2.86v-2.86l.33-.26c.18-.06.37-.03.55-.04.49-.04,1.18-.1,1.49.31v2.86Z" fill="#f0ae9f"/>
      </g>
      <g>
        <rect x="308.62" y="65.86" width="42.05" height="39.78" rx="12" ry="12" fill="#fff"/>
        <path d="M335.41,75.85v-4.32c0-1.09,4.04-1.26,4.55-.11.72,1.62-.32,7.12.17,9.17.86,1.31,3.17,2.56,3.24,4.26s-1.72,2.99-3.28,2.21c-.31.42.2,8.82-.02,10.37-.2,1.42-1.43,2.68-2.89,2.72-5.34-.4-11.34.49-16.6,0-1.49-.14-2.67-1.21-2.89-2.72-.22-1.55.28-9.95-.02-10.37-2.76.84-4.22-1.68-2.46-3.98s9.09-9.62,11.33-11.33c3.96-3.02,6.04,2.1,8.88,4.09Z" fill="#f0ae9f"/>
        <path d="M328.09,73.55l-12.47,12.11c-.75,1.42.12,2.31,1.56,1.56l10.97-10.79c.63-.25,1.21.03,1.67.49l10.26,10.3c1.49.86,2.42-.36,1.44-1.68l-12.36-11.99h-1.08Z" fill="#fff"/>
        <path d="M328.09,83.01c-3.23.63-2.51,5.98,1.31,5.1,2.98-.69,2.06-5.75-1.31-5.1Z" fill="#fff"/>
        <polygon points="331.23 100.68 331.23 95.13 330.87 94.77 326.38 94.77 326.03 95.13 326.03 100.68 331.23 100.68" fill="#fff"/>
      </g>
      <g>
        <path d="M238.23,215.35h88.51c.14-.17.27-.34.39-.53l.21-50.78c-1.24-4.14-13.15-1.76-16.71-2.42-2.17-6.71-3.09-16.83-5.83-23.04-.84-1.9-2.13-3.02-4.25-3.22l-79.63,21.27c-1.81.6-3.77,1.93-3.77,4.02l12.5,47.25c2.25,4.24,7.03,1.13,7.64,1.76-.13,2.69-.1,4.54.94,5.7ZM241.84,166.83h81.09v45.41h-81.09v-45.41Z" fill="#be7263"/>
        <polygon points="257.55 172.17 255.74 172.17 247.89 179.78 248.19 198.06 257.17 205.95 305.89 206.9 316.88 196.53 316.88 181.33 308.08 172.17 257.55 172.17" fill="#be7263"/>
      </g>
    </g>
    <g id="soz-infra" data-name="soz-infra">
      <g>
        <path d="M383.25,510.61c-78.85,0-143-64.15-143-143s64.15-143,143-143,143,64.15,143,143-64.15,143-143,143Z" fill="#a5cdc8"/>
        <path d="M383.25,225.61c78.42,0,142,63.58,142,142s-63.58,142-142,142-142-63.58-142-142,63.58-142,142-142M383.25,223.61c-38.46,0-74.63,14.98-101.82,42.18-27.2,27.2-42.18,63.36-42.18,101.82s14.98,74.63,42.18,101.82c27.2,27.2,63.36,42.18,101.82,42.18s74.63-14.98,101.82-42.18c27.2-27.2,42.18-63.36,42.18-101.82s-14.98-74.63-42.18-101.82c-27.2-27.2-63.36-42.18-101.82-42.18h0Z" fill="#fff"/>
      </g>
      <path d="M352.62,369.67c5.67,13.29,18,31.29,26.03,39.42,1.51,1.53,2.1,2.28,3.91.6,2.54-2.35,6.12-7.37,8.34-10.26,8.07-10.51,21.86-30.7,21.92-43.69.06-11.17-7.06-21.42-17.19-26.58-4.46-2.27-9.49-3.56-14.76-3.51h-.3s-1.54.07-1.54.07c-.03,0-.06,0-.09,0-8.8.63-16.26,4.27-21.51,9.69h0s0,.02,0,.02c-3.48,3.61-5.98,8.01-7.23,12.85v.02s0,.01,0,.01c-1.12,4.33-1.25,9.01-.18,13.77.5,2.23,1.4,4.8,2.58,7.57h0s.02.03.02.03ZM380.42,339.03c.13,0,.52.01.65.01,7.69,0,13.93,5.82,13.93,12.99s-6.24,12.99-13.93,12.99-13.93-5.82-13.93-12.99c0-6.8,6.15-12.44,13.28-13.01Z" fill="#6b8782"/>
      <g>
        <rect x="465.37" y="367.02" width="42.05" height="39.78" rx="12" ry="12" fill="#fff"/>
        <path d="M488.7,376.47c-.39.3-1.99,2.12-2.28,2.07-2.32-2.57-4.91-4.36-8.57-3.96-5.48.6-8.89,6.07-7.4,11.32.57,2.02,1.95,3.4,3.33,4.9,3.88,4.22,8.27,8.14,12.33,12.17.54.21,1.02-.08,1.38-.47,3.92-4.38,8.88-8.3,12.7-12.7,7.8-8.96-3.25-19.83-11.51-13.33Z" fill="#a5cdc8"/>
        <path d="M488.59,386.08h5.31c.79.48.75,3.53.39,4.05l-5.35.5-.39,5.09-.55.55-3.63-.29-.5-5.35-5.35-.5c-.36-.51-.41-3.57.39-4.05h5.31v-5.31l.61-.49c.33-.1.68-.05,1.02-.08.91-.08,2.2-.18,2.76.57v5.31Z" fill="#fff"/>
      </g>
      <g>
        <rect x="434.78" y="420.12" width="42.05" height="39.78" rx="12" ry="12" fill="#fff"/>
        <path d="M468.83,439.18l-13.69,4.65-16.31-5.64c-1.41-.97-.39-1.48.68-1.9,5.13-2,10.66-3.56,15.84-5.39,5.1,1.98,10.44,3.4,15.53,5.39,2.53.99,1.07,1.81-.69,2.38.16.85-.25,3.52.15,4.08.23.32.88.36,1.01.81.16.56.28,2.76-.46,2.89-.38.07-2.69.05-2.95-.08-.07-.03-.31-.27-.31-.3v-2.42c0-.4,1.21-.94,1.21-1.06v-3.41Z" fill="#a5cdc8"/>
        <path d="M465.64,441.75v6.44c-1.5,1.61-4.05,2.57-6.21,3.03-4.87,1.04-10.76.35-14.7-2.88v-6.59l10.38,3.5.84-.08,9.69-3.42Z" fill="#a5cdc8"/>
      </g>
      <g>
        <rect x="421.67" y="255.65" width="42.05" height="39.78" rx="12" ry="12" fill="#fff"/>
        <path d="M430.91,266.95l24.4.14.38.41.11,18.82-.61.97-23.75.12c-.52.05-.89-.19-1.17-.61l-.11-18.82.74-1.03ZM441.56,270.12c-7.5,1.09-7.5,13,0,14.08,11.31,1.64,11.3-15.72,0-14.08Z" fill="#a5cdc8"/>
        <path d="M449.69,266.32h-2.16c.09-.66-.38-1.31-.98-1.49-.7-.21-5.93-.21-6.8-.08-1.23.19-1.23,1.41-1.61,1.54l-2.05-.08c.13-1.6,1.19-3.12,2.8-3.51,1.37-.33,5.84-.28,7.36-.14,2,.18,3.57,1.7,3.44,3.75Z" fill="#a5cdc8"/>
        <path d="M444.17,275.98h2.86c.43.26.4,1.9.21,2.18l-2.88.27-.21,2.74-.3.3-1.96-.16-.27-2.88-2.88-.27c-.19-.28-.22-1.92.21-2.18h2.86v-2.86l.33-.26c.18-.06.37-.03.55-.04.49-.04,1.18-.1,1.49.31v2.86Z" fill="#a5cdc8"/>
      </g>
      <g>
        <rect x="320.89" y="446.77" width="42.05" height="39.78" rx="12" ry="12" fill="#fff"/>
        <path d="M334.72,481.73c-.22-.97-.35-1.93-.82-2.82-.77-1.48-2.54-2.49-3.49-3.79-.81-1.12-4.42-10.54-4.62-11.96-.11-.77-.04-1.49.92-1.52.83-.03,1.73,1.24,2.11,1.87.33.53,2.19,4.28,2.26,4.67.06.31-.35.72-.42,1.12-.16,1.01.39,1.81.94,2.6.4.58,2.62,3.05,3.2,2.89,1.22-.35-1.42-2.24-1.69-2.54-.58-.62-1.49-1.75-1.45-2.62.06-1.24,1.4-1.39,2.29-.76.79.55,1.98,1.91,2.79,2.63,1.5,1.32,2.88,1.95,3.68,3.93.76,1.88.85,4.31.55,6.3h-6.26Z" fill="#a5cdc8"/>
        <path d="M348.6,481.73h-6.18l-.25-.25v-3.21c0-.39.36-1.93.5-2.38.98-3.07,4.89-4.74,6.88-7.16,2.48-.72,2.52,1.13,1.24,2.77-.49.63-2.22,1.96-2.45,2.46-.17.36-.12.86.34.85.17,0,1.78-1.43,2.03-1.7.81-.86,2.04-2.41,1.95-3.64-.04-.5-.5-.98-.44-1.28.08-.4,2.09-4.49,2.43-5.01.47-.74,1.38-1.85,2.35-1.45s.49,1.34.3,2.07c-.55,2.16-3.43,10.02-4.66,11.59-1.61,2.06-4.11,3.16-4.06,6.35Z" fill="#a5cdc8"/>
        <path d="M340.16,462.18c2.44-.34,5.89-.03,6.29,3.08.06.47.07,3.81-.05,4.07-.08.18-.33.34-.52.33l-8.45-.06c-.21-.14-.29-.28-.33-.54-.11-.86-.07-3.72.2-4.49.42-1.21,1.61-2.23,2.86-2.4Z" fill="#a5cdc8"/>
        <path d="M347.52,467.48v-2.23c0-1.05-1.12-2.63-1.92-3.25l-1.26-.77c1.13-1.39,3.3-1.4,4.94-1.25,1.8.16,3.3,1.55,3.46,3.42.04.49.05,3.62-.06,3.87-.02.05-.19.22-.21.22h-4.94Z" fill="#a5cdc8"/>
        <path d="M331.11,467.48s-.19-.17-.21-.22c-.11-.25-.1-3.38-.06-3.87.16-1.87,1.66-3.26,3.46-3.42,1.64-.15,3.81-.14,4.94,1.25.04.23-.05.13-.15.17-1.29.58-3.04,2.17-3.04,3.74v2.34h-4.94Z" fill="#a5cdc8"/>
        <path d="M341.33,455.76c3.66-.53,4.09,4.92.81,5.29-3.57.4-3.96-4.83-.81-5.29Z" fill="#a5cdc8"/>
        <path d="M335.28,453.58c3.36-.28,3.84,4.87.7,5.29-3.8.51-4.06-5.01-.7-5.29Z" fill="#a5cdc8"/>
        <path d="M347.82,453.58c3.36-.28,3.84,4.87.7,5.29-3.8.51-4.06-5.01-.7-5.29Z" fill="#a5cdc8"/>
      </g>
      <g>
        <rect x="460.56" y="309.28" width="42.05" height="39.78" rx="12" ry="12" fill="#fff"/>
        <path d="M488.99,318.02h5.66s.34.32.34.34v23.53l1.77.14v1.91l-29.72-.02.04-1.76,1.49-.15.22-.32.07-23.39c.03-.06.25-.27.27-.27h5.66v-4.3s.21-.24.27-.27h13.64c.06.03.27.25.27.27v4.3ZM481.18,315.87c-1.92.3-3.31,2.35-3.07,4.23.4,3.08,4.18,4.38,6.42,2.26,2.71-2.56.41-7.08-3.35-6.49ZM471.53,320.88v2.66l.2.2h2.73l.2-.2v-2.46s-.32-.34-.34-.34h-2.46s-.21.18-.34.14ZM489.13,321.09v2.46l.2.2h2.73l.2-.2v-2.46c0-.46-2.01-.39-2.4-.35-.25.02-.66.06-.74.35ZM474.05,325.93c-.77-.04-1.55.03-2.32,0l-.2.2v2.46l.2.2h2.73l.2-.2v-2.46c0-.3-.52-.2-.61-.2ZM477.4,326.13v2.46l.2.2h2.73l.2-.2v-2.46l-.2-.2h-2.32c-.15,0-.51-.12-.61.2ZM491.65,325.93c-.77-.04-1.55.03-2.32,0l-.2.2v2.46l.2.2h2.73l.2-.2v-2.46c0-.3-.52-.2-.61-.2ZM483.47,325.93l-.2.2v2.46l.2.2h2.73l.2-.2v-2.46l-.2-.2h-2.73ZM471.53,331.18v2.46l.2.2h2.73l.2-.2v-2.46c-.37-.54-2.99-.47-3.14,0ZM477.4,331.18v2.46l.2.2h2.73l.2-.2v-2.46c-.44-.47-2.98-.52-3.14,0ZM483.26,331.18v2.46l.2.2h2.73l.2-.2v-2.46c-.37-.54-2.99-.47-3.14,0ZM489.13,331.18v2.46l.2.2h2.73l.2-.2v-2.46c-.37-.54-2.99-.47-3.14,0ZM481.49,336.02h-3.34l-.2.2v5.66h3.55v-5.87ZM485.85,341.89v-5.66l-.2-.2h-3.34v5.87h3.55Z" fill="#a5cdc8"/>
        <path d="M481.18,315.87c3.76-.59,6.07,3.93,3.35,6.49-2.25,2.12-6.02.82-6.42-2.26-.24-1.88,1.15-3.93,3.07-4.23ZM482.72,318.84l-.13-1.44h-1.38l-.13,1.44h-1.37s0,1.5,0,1.5h1.37s.13,1.44.13,1.44h1.38l.13-1.44h1.37s0-1.5,0-1.5h-1.37Z" fill="#fff"/>
        <polygon points="481.49 336.02 481.49 341.89 477.94 341.89 477.94 336.23 478.15 336.02 481.49 336.02" fill="#fff"/>
        <polygon points="485.85 341.89 482.31 341.89 482.31 336.02 485.65 336.02 485.85 336.23 485.85 341.89" fill="#fff"/>
        <path d="M471.53,320.88c.13.04.3-.14.34-.14h2.46s.34.32.34.34v2.46l-.2.2h-2.73l-.2-.2v-2.66Z" fill="#fff"/>
        <path d="M489.13,321.09c.08-.28.5-.32.74-.35.38-.04,2.4-.11,2.4.35v2.46l-.2.2h-2.73l-.2-.2v-2.46Z" fill="#fff"/>
        <path d="M471.53,331.18c.14-.47,2.77-.54,3.14,0v2.46l-.2.2h-2.73l-.2-.2v-2.46Z" fill="#fff"/>
        <path d="M483.26,331.18c.14-.47,2.77-.54,3.14,0v2.46l-.2.2h-2.73l-.2-.2v-2.46Z" fill="#fff"/>
        <path d="M489.13,331.18c.14-.47,2.77-.54,3.14,0v2.46l-.2.2h-2.73l-.2-.2v-2.46Z" fill="#fff"/>
        <path d="M477.4,331.18c.16-.52,2.69-.47,3.14,0v2.46l-.2.2h-2.73l-.2-.2v-2.46Z" fill="#fff"/>
        <path d="M474.05,325.93c.09,0,.61-.09.61.2v2.46l-.2.2h-2.73l-.2-.2v-2.46l.2-.2c.77.03,1.55-.04,2.32,0Z" fill="#fff"/>
        <path d="M477.4,326.13c.1-.32.46-.2.61-.2h2.32l.2.2v2.46l-.2.2h-2.73l-.2-.2v-2.46Z" fill="#fff"/>
        <path d="M491.65,325.93c.09,0,.61-.09.61.2v2.46l-.2.2h-2.73l-.2-.2v-2.46l.2-.2c.77.03,1.55-.04,2.32,0Z" fill="#fff"/>
        <polygon points="483.47 325.93 486.19 325.93 486.4 326.13 486.4 328.59 486.19 328.79 483.47 328.79 483.26 328.59 483.26 326.13 483.47 325.93" fill="#fff"/>
        <polygon points="482.72 318.84 484.08 318.83 484.08 320.34 482.72 320.33 482.59 321.78 481.21 321.78 481.08 320.33 479.71 320.34 479.71 318.83 481.08 318.84 481.21 317.39 482.59 317.39 482.72 318.84" fill="#a5cdc8"/>
      </g>
      <g>
        <rect x="384.16" y="453.46" width="42.05" height="39.78" rx="12" ry="12" fill="#fff"/>
        <rect x="398.75" y="458.36" width="15.16" height="15.16" rx="3.82" ry="3.82" transform="translate(-174.42 677.93) rotate(-68.96)" fill="#a5cdc8"/>
        <rect x="390.24" y="471.71" width="15.16" height="15.16" rx="4.23" ry="4.23" transform="translate(-143.85 171.76) rotate(-20.72)" fill="#a5cdc8"/>
        <rect x="404.42" y="473.37" width="15.16" height="15.16" rx="4.09" ry="4.09" fill="#a5cdc8"/>
        <circle cx="406.19" cy="466.46" r="5.39" fill="#fff"/>
        <path d="M406.99,462.62l1.37.57-.32,7.06-1.27-.53.1-1.5-2.57-1.07-.99,1.13-1.13-.47,4.8-5.19ZM406.95,467.19l.23-3.33-2.19,2.51,1.96.82Z" fill="#a5cdc8"/>
        <g>
          <circle cx="398.01" cy="479.14" r="5.39" fill="#fff"/>
          <path d="M394.95,477.27l2.3-.85c1.1-.4,2.02-.31,2.38.66.22.59,0,1.08-.41,1.47.76-.05,1.32.26,1.59,1.01.36.98-.24,1.8-1.44,2.24l-2.42.89-2-5.43ZM398.08,478.73c.53-.2.74-.65.6-1.05-.17-.45-.57-.65-1.18-.42l-1.17.43.55,1.48,1.21-.45ZM399.03,481.01c.63-.23.84-.69.67-1.14-.18-.48-.66-.7-1.3-.46l-1.28.47.59,1.61,1.31-.48Z" fill="#a5cdc8"/>
        </g>
        <g>
          <circle cx="412.53" cy="480.81" r="5.39" fill="#fff"/>
          <path d="M409.56,481.01c0-1.76,1.21-2.99,2.93-2.99,1.33,0,2.32.7,2.74,1.82l-1,.29c-.28-.75-.88-1.22-1.69-1.22-1.04,0-1.82.82-1.82,1.98s.76,2.1,2.02,2.1c.9,0,1.57-.47,1.98-1.07l.59.42c-.49,1.01-1.53,1.67-2.81,1.67-1.74,0-2.95-1.23-2.95-2.99Z" fill="#a5cdc8"/>
        </g>
      </g>
    </g>
    <g id="zeit" data-name="zeit">
      <g>
        <path d="M161.25,510.61c-78.85,0-143-64.15-143-143s64.15-143,143-143,143,64.15,143,143-64.15,143-143,143Z" fill="#fcd799"/>
        <path d="M161.25,225.61c78.42,0,142,63.58,142,142s-63.58,142-142,142S19.25,446.03,19.25,367.61s63.58-142,142-142M161.25,223.61c-38.46,0-74.63,14.98-101.82,42.18-27.2,27.2-42.18,63.36-42.18,101.82s14.98,74.63,42.18,101.82c27.2,27.2,63.36,42.18,101.82,42.18s74.63-14.98,101.82-42.18c27.2-27.2,42.18-63.36,42.18-101.82s-14.98-74.63-42.18-101.82c-27.2-27.2-63.36-42.18-101.82-42.18h0Z" fill="#fff"/>
      </g>
      <g>
        <path d="M183.11,367.94c.79-.11,1.35-.84,1.24-1.63l-.15-1.13c-.11-.79-.84-1.35-1.63-1.24l-15.47,2.1c-.39-1.69-1.52-3.09-3.04-3.85v-18.63c0-.8-.65-1.45-1.45-1.45h-1.15c-.8,0-1.45.65-1.45,1.45v18.21c-2.49.65-4.33,2.9-4.33,5.59,0,3.19,2.59,5.78,5.78,5.78,2.16,0,4.04-1.19,5.04-2.94l16.61-2.25Z" fill="#eaa53a"/>
        <circle cx="161.46" cy="405.12" r="4.23" transform="translate(-239.17 232.83) rotate(-45)" fill="#eaa53a"/>
        <circle cx="200.42" cy="367.55" r="4.23" transform="translate(-201.2 249.37) rotate(-45)" fill="#eaa53a"/>
        <path d="M195.45,392.11c2.33,0,4.23-1.89,4.23-4.23s-1.89-4.23-4.23-4.23c-.1,0-.19.02-.29.03-1.7-.26-3.34.94-3.62,2.59-.2.5-.32,1.04-.32,1.61,0,2.33,1.89,4.23,4.23,4.23Z" fill="#eaa53a"/>
        <path d="M180.6,406.21c2.33,0,4.23-1.89,4.23-4.23,0-2.2-1.68-3.98-3.83-4.19-.1-.01-.19-.03-.29-.03-.04,0-.07-.01-.11-.01-.08,0-.15.02-.23.02-.17,0-.35.02-.54.05-.07.01-.13.03-.19.04-.16.03-.32.06-.49.11-.26.08-.47.21-.67.36-1.25.73-2.1,2.08-2.1,3.64,0,2.33,1.89,4.23,4.23,4.23Z" fill="#eaa53a"/>
        <path d="M195.26,351.43c.06,0,.13.02.19.02,2.33,0,4.23-1.89,4.23-4.23s-1.89-4.23-4.23-4.23-4.23,1.89-4.23,4.23c0,.45.09.88.22,1.29.03,1.94,2.06,3.18,3.81,2.92Z" fill="#eaa53a"/>
        <circle cx="161.46" cy="329.57" r="4.23" transform="translate(-185.75 210.7) rotate(-45)" fill="#eaa53a"/>
        <path d="M122.07,371.78c1.94,0,3.56-1.32,4.06-3.1,0-.02.02-.05.02-.07.03-.11.06-.22.08-.33.04-.21.06-.42.06-.64,0-.03,0-.05,0-.08,0,0,0-.02,0-.03,0-.04-.01-.09-.01-.13-.08-2.26-1.93-4.07-4.21-4.07s-4.23,1.89-4.23,4.23,1.89,4.23,4.23,4.23Z" fill="#eaa53a"/>
        <circle cx="127.47" cy="347.72" r="4.23" transform="translate(-208.54 191.98) rotate(-45)" fill="#eaa53a"/>
        <path d="M180.6,328.84c-2.33,0-4.23,1.89-4.23,4.23,0,1.84,1.18,3.39,2.82,3.97.03.01.06.02.09.03.42.14.85.23,1.31.23,2.33,0,4.23-1.89,4.23-4.23s-1.89-4.23-4.23-4.23Z" fill="#eaa53a"/>
        <path d="M127.72,383.7c-.16-.02-.31-.05-.48-.05-2.33,0-4.23,1.89-4.23,4.23s1.89,4.23,4.23,4.23,4.23-1.89,4.23-4.23c0-.22-.03-.43-.06-.64.45-2.24-1.65-3.88-3.68-3.54Z" fill="#eaa53a"/>
        <path d="M142.3,328.84c-2.33,0-4.23,1.89-4.23,4.23s1.89,4.23,4.23,4.23c.03,0,.07,0,.1,0,.82.04,1.46-.16,1.93-.53,1.31-.72,2.2-2.09,2.2-3.69,0-2.33-1.89-4.23-4.23-4.23Z" fill="#eaa53a"/>
        <circle cx="142.3" cy="401.98" r="4.23" transform="translate(-88.55 43.45) rotate(-13.28)" fill="#eaa53a"/>
      </g>
      <g>
        <rect x="181.63" y="447.3" width="42.05" height="39.78" rx="12" ry="12" fill="#fff"/>
        <path d="M196.8,454.24l.22-.18c.31-.06.87-.1,1.03.24l.09,5.83c.14.48,1.79.71,1.94-.25.25-1.64-.19-3.79.04-5.49.15-.49,1.19-.48,1.43-.17.13.16.2.71.23.95.26,1.59.74,5.3.48,6.77-.17,1.01-1.02,2.05-1.78,2.69-1.47,1.23-2.18.57-2.11,2.89.12,3.79.67,7.66.79,11.45.06,1.99-.17,2.74-2.44,2.44-1.49-.2-.89-2.63-.85-3.63.17-3.81.44-7.61.63-11.42-.15-.66-1.34-1.11-1.88-1.54-.79-.64-1.85-1.83-2.01-2.86-.23-1.43.25-5.62.55-7.15.22-1.14,1.51-1.08,1.64-.18.26,1.69-.23,3.85.07,5.58.2.41,1.25.29,1.65.2.06-.04.26-.36.26-.39v-5.79Z" fill="#fcd799"/>
        <path d="M207.15,453.95c2.82-.48,4.26,1.58,4.86,4.02.57,2.32.67,4.37-1.35,5.94-.67.52-1.83.78-1.9,1.8-.02.31.13.59.13.9.01,4.61.43,9.21.53,13.83.12,1.51-2.69,1.58-2.89.25l.62-15.09c-.65-1.48-2.21-1.41-3.07-2.99-1.26-2.32.07-8.15,3.06-8.66Z" fill="#fcd799"/>
      </g>
      <g>
        <rect x="31.45" y="368.32" width="42.05" height="39.78" rx="12" ry="12" fill="#fff"/>
        <path d="M45.28,403.28c-.22-.97-.35-1.93-.82-2.82-.77-1.48-2.54-2.49-3.49-3.79-.81-1.12-4.42-10.54-4.62-11.96-.11-.77-.04-1.49.92-1.52.83-.03,1.73,1.24,2.11,1.87.33.53,2.19,4.28,2.26,4.67.06.31-.35.72-.42,1.12-.16,1.01.39,1.81.94,2.6.4.58,2.62,3.05,3.2,2.89,1.22-.35-1.42-2.24-1.69-2.54-.58-.62-1.49-1.75-1.45-2.62.06-1.24,1.4-1.39,2.29-.76.79.55,1.98,1.91,2.79,2.63,1.5,1.32,2.88,1.95,3.68,3.93.76,1.88.85,4.31.55,6.3h-6.26Z" fill="#fcd799"/>
        <path d="M59.16,403.28h-6.18l-.25-.25v-3.22c0-.39.36-1.93.5-2.38.98-3.07,4.89-4.74,6.88-7.16,2.48-.72,2.52,1.13,1.24,2.77-.49.63-2.22,1.96-2.45,2.46-.17.36-.12.86.34.85.17,0,1.78-1.43,2.03-1.7.81-.86,2.04-2.41,1.95-3.64-.04-.5-.5-.98-.44-1.28.08-.4,2.09-4.49,2.43-5.01.47-.74,1.38-1.85,2.35-1.45s.49,1.34.3,2.07c-.55,2.16-3.43,10.02-4.66,11.59-1.61,2.06-4.11,3.16-4.06,6.35Z" fill="#fcd799"/>
        <path d="M54.42,385.86c-.34.23-.44.66-.85.92-.21.13-.34.21-.59.25-1.13.18-5.61.17-6.77.02-1.9-.25-1.19-3.06.94-2.38-2.95-2.9-.12-6.56,3.21-7.36,1.88-.45,6.14-.3,6.44,2.2.12,1.03.16,5.67-.04,6.57-.3,1.34-2.4,1.3-2.33-.22ZM54.25,384.42c-.07-.86.05-1.76,0-2.62l-2.54.51,2.62,2.54c.28-.13-.08-.38-.09-.42Z" fill="#fcd799"/>
        <path d="M57.08,372.87c3.42-.54,4.06,4.38,1.1,5-3.55.74-4.25-4.5-1.1-5Z" fill="#fcd799"/>
        <path d="M57.46,379.76c.3-.07.34.12.51.25.49.37,2.43,2.18,2.8,2.62.91,1.1.41,2.53-1.15,2.17-.34-.08-2.15-1.77-2.15-1.91v-3.13Z" fill="#fcd799"/>
        <path d="M45.42,384.13s-.51.24-.72.54c-.23.33-.35.79-.43,1.18-.79-.32-1.24-.84-.98-1.74.3-1.02,2.78-1.11,2.13.02Z" fill="#fcd799"/>
      </g>
      <g>
        <rect x="41.05" y="306.83" width="42.05" height="39.78" rx="12" ry="12" fill="#fff"/>
        <path d="M48.56,334.81c-.18-.05-.54-.53-.55-.77-.15-1.51,2.59-.83,3.49-.97.34-.35-1.79-5.77-1.92-6.7-.06-.44-.13-.85.26-1.16.78-.61,7.87.06,9.34-.2l2.76,7.96,11.66.09c2.28.85.29,2.22-1.43,1.75-.2.2.31,4.04-.2,4.86-.34.56-1.33.06-1.33-.18v-4.68h-22.1Z" fill="#fcd799"/>
        <path d="M69.13,329.36l-1.09-3.26c-.38-.05-.2.49-.21.76-.02.54.01,1.09,0,1.64h-4.25c-.07,0-1.07.45-1.2.54-.36.27-.3.72-.65.76-1.01-2.19-.66-6.44-4.14-5.66-.03-1.56,1.24-2.82,2.74-3.03s5.7-.2,7.15,0c1.02.14,1.82.69,2.35,1.57.44.73,2.75,6.6,2.76,7.23,0,1.11-.88,1.97-1.92,2.19-1.24.26-5.34.25-6.66.1-1.15-.13-2.08-1.1-1.3-2.18.12-.17.74-.66.86-.66h5.55Z" fill="#fcd799"/>
        <path d="M67.82,335.9c-.92,5.93-7.97,3.82-12.21,4.04l-.17-.26c-.24-.73,0-3.78.95-3.78h11.43Z" fill="#fcd799"/>
        <path d="M62.76,312.87c5.9-1.21,6.43,6.9,1.41,7.31-4.6.37-5.27-6.52-1.41-7.31Z" fill="#fcd799"/>
      </g>
      <g>
        <rect x="67.66" y="421.86" width="42.05" height="39.78" rx="12" ry="12" fill="#fff"/>
        <path d="M77.77,446.1h8.49v-6.88c0-.24.65-.79.96-.71,5.82.27,14.91-1.88,16.49,6.01.28,1.38.35,5.64.17,7.05-.04.33-.11.5-.46.57s-2.25.1-2.25-.32v-3.02h-23.4v3.02c0,.5-2.29.35-2.7.19v-15.37c0-.29.38-.19.45-.19h2.06l.19.19v9.45Z" fill="#fcd799"/>
        <path d="M81.86,438.8c3.4-.18,4.46,4.78,1.35,5.99-4.61,1.79-6.11-5.73-1.35-5.99Z" fill="#fcd799"/>
        <path d="M84.45,435.17c.47.08,1.53-.16,1.88.12.29.23.3,1.31-.08,1.49-.23.11-3.37.12-3.8.07-.54-.07-.5-.31-.41-.81l1.9-3.5-1.65-.08c-.17-.37-.31-1.38.11-1.59.22-.11,3.01-.12,3.41-.07.58.08.65.38.51.91-.27,1.01-1.45,2.44-1.87,3.47Z" fill="#fcd799"/>
        <path d="M90.82,428.49c.27.08.19.45.13.65-.1.34-1.52,2.55-1.36,2.7l1.36.12c.22.17.27.84.12,1.05-.12.17-2.98.2-3.29.05-.12-.06-.25-.21-.24-.36l1.52-2.92-1.23-.12-.06-1.17h3.02Z" fill="#fcd799"/>
        <path d="M94.81,426.56c.17.05.2.25.17.42-.05.33-1.3,2.13-1.14,2.28h1.16s-.06.91-.06.91c-.1.15-2.82.38-2.75-.31l1.14-2.27c-.95.45-1.32-1.03-.84-1.03h2.31Z" fill="#fcd799"/>
      </g>
      <g>
        <rect x="118.98" y="453.86" width="42.05" height="39.78" rx="12" ry="12" fill="#fff"/>
        <path d="M153.46,469.53c.08-.33.08-.66-.23-.85l-21.69-.19-1.51-6.34c-1.1-.16-5.17-1.53-5.99-1.28-.46.14-.66,1.06-.25,1.39.56.46,4.82.93,5.02,1.22l4.12,19.78c.33.45.97.2,1.46.26-.59,1.23-.75,2.38.07,3.56,1.82,2.61,5.97.97,5.5-2.31-.07-.45-.26-.73-.41-1.1l-2.76.14c1.5-.21,2.4,1.99.88,2.8-2.13,1.14-3.15-2.49-.88-2.8l2.7-.28h4.33l2.59.26c1.32-.06,2.15,1.8.84,2.72-1.97,1.39-3.39-2.26-1.04-2.7.04,0,.08,0,.13-.01l-2.53-.12c-.07.41-.31.73-.36,1.19-.3,2.72,2.54,4.53,4.8,2.89,1.45-1.04,1.52-2.71.8-4.23,1.1.22,1.73-.45,1.07-1.39l-15.65-.13c-.17,0-.23-.06-.29-.22-.07-.18-.17-.68-.18-1.07h0l-.08-.38,16.53-.12,3.02-10.66Z" fill="#fcd799"/>
      </g>
      <g>
        <rect x="84.33" y="261.57" width="42.05" height="39.78" rx="12" ry="12" fill="#fff"/>
        <path d="M103.13,276.87c.3-.03.64.11.87.31l6.98,7.19c.28.28,1.02-.04.76-.38-.11-.14-.49-.03-.62-.22-1.19-1.48-2.75-2.66-3.98-4.09-.12-.14-.59-.67-.63-.78-.42-1.03.74-1.83,1.56-1.09,2.54,3.3,9.84,8.33,9.92,12.71.03,1.82-1.95,3.6-3.24,4.74-1.12.99-1.82,1.48-3.39,1.41-2.14-.1-7.93-1.8-9.84-2.83-1.14-.62-.62-1.91.55-1.87s2.68.5,3.85.48c.96-.02,1-.68.47-1.32l-7.5-7.7c-.8-1.13.51-2.43,1.63-1.63l5.78,5.95c.8.55,1.52-.21.32-.51l-7.6-7.79c-.66-1.02.56-2.2,1.59-1.59l8.31,8.49c.33.48,1.36-.11.65-.37-.58-.21-.31-.15-.69-.53-2.21-2.2-4.37-4.45-6.56-6.68-.65-.68-.03-1.8.81-1.89Z" fill="#fbd799" stroke="#fff" stroke-miterlimit="10" stroke-width=".29"/>
        <path d="M110.09,275.17c.13.31.14,1.49.44,1.58.16.05.22-.04.32-.13.31-.29.78-1.44,1.12-1.6,1.8-.32,3.94-.04,5.63.66.49.21,2.15,1.01,1.96,1.67-2.08,1.7-4.55,2.91-6.7,4.55l-4.41-4.49c-.97-.94-2.33-.38-2.63.85-.76-.61-1.62-2.07-2.71-1.97-.69.07-1.6.86-1.56,1.59-.81-.98-2.4-1.12-3.05.09-.74,1.36.38,2.1,1.18,3.01-1.24.1-2.01,1.44-1.39,2.57l7.54,7.75.33.56-4.26-.47c-.42-.11-1.01.49-1.22.52-.23.03-.66-.14-.94-.15-1.89-.06-3.48.21-5.31.61-.58.13-3.85,1.11-4.12.88-.06-.23-.1-.45-.11-.69-.14-2.46.35-7.09,2.16-8.92.49-.49,1.12-.67,1.64-1.08,2.5-1.95,1.85-6.29,4.74-8.68,2.16-1.79,2.88.23,4.63,1.1s3.98.26,5.84.17c.29-.01.59,0,.88,0Z" fill="#fbd799"/>
        <path d="M103.15,264.09c.4,1.47,1.39,2.49,2.53,3.42-1.19.88-2.08,2.02-2.58,3.43-.26,0-.38-.7-.5-.91-.41-.76-.88-1.37-1.52-1.96-.19-.17-.74-.4-.66-.65.93-.57,1.58-1.37,2.1-2.32.09-.15.4-1.18.62-1.02Z" fill="#fbd799"/>
        <path d="M111.97,270.09c.04,1.24.75,2.22,1.5,3.14l-1.6,1.03-1.08,1.27c-.1-.05-.36-1.11-.45-1.34-.29-.72-.72-1.21-1.19-1.81.76-.42,1.38-.75,1.96-1.41.15-.17.64-1.1.85-.89Z" fill="#fbd799"/>
        <path d="M96.39,271.69l-.86,1.44-.27,1c-.14.1-.65-.54-.8-.65-.42-.33-.92-.65-1.45-.75.13-.49.55-.82.77-1.34.08-.19.33-1.19.41-1.19.61.65,1.3,1.3,2.2,1.5Z" fill="#fbd799"/>
      </g>
    </g>
    <g id="overlay-2" data-name="overlay">
      <g>
        <path d="M250.86,316.76c-50.32-7.55-93.16-41.73-111.78-89.2l-.46-1.17,1.24-.19c7.05-1.06,14.24-1.59,21.38-1.59,43.71,0,84.46,19.62,111.78,53.82l.5.62-.5.62c-8.85,11.08-15.94,23.34-21.09,36.45l-.29.74-.79-.12Z" fill="#f7c9b1"/>
        <path d="M161.25,225.61c44.93,0,84.98,20.87,111,53.45-8.8,11.02-16,23.37-21.24,36.71-50.79-7.62-92.78-42.13-111-88.58,6.93-1.04,14.02-1.58,21.24-1.58M161.25,223.61c-7.19,0-14.44.54-21.53,1.6l-2.48.37.92,2.34c18.76,47.81,61.89,82.22,112.57,89.82l1.58.24.58-1.48c5.11-13.02,12.15-25.2,20.94-36.2l1-1.25-1-1.25c-27.51-34.44-68.54-54.2-112.56-54.2h0Z" fill="#fff"/>
      </g>
      <g>
        <path d="M271.47,456.79c-20.42-25.57-31.22-56.4-31.22-89.18,0-18.01,3.31-35.58,9.83-52.21l.29-.74.79.12c6.95,1.04,14.05,1.57,21.09,1.57s14.14-.53,21.09-1.57l.79-.12.29.74c6.52,16.63,9.83,34.2,9.83,52.21,0,32.77-10.79,63.61-31.22,89.18l-.78.98-.78-.98Z" fill="#cddac8"/>
        <path d="M293.48,315.77c6.3,16.06,9.76,33.55,9.76,51.84,0,33.49-11.6,64.27-31,88.55-19.4-24.28-31-55.06-31-88.55,0-18.3,3.46-35.78,9.76-51.84,6.93,1.04,14.02,1.58,21.24,1.58s14.31-.54,21.24-1.58M294.76,313.55l-1.58.24c-6.9,1.03-13.95,1.56-20.94,1.56s-14.04-.52-20.94-1.56l-1.58-.24-.58,1.48c-6.57,16.75-9.9,34.43-9.9,52.57,0,16.61,2.81,32.9,8.34,48.4,5.35,14.98,13.12,28.91,23.09,41.4l1.56,1.96,1.56-1.96c9.98-12.49,17.75-26.42,23.09-41.4,5.54-15.51,8.34-31.79,8.34-48.4,0-18.14-3.33-35.83-9.9-52.57l-.58-1.48h0Z" fill="#fff"/>
      </g>
      <g>
        <path d="M292.55,316.13c-5.14-13.11-12.24-25.38-21.09-36.45l-.5-.62.5-.62c27.32-34.2,68.07-53.82,111.78-53.82,7.14,0,14.34.54,21.38,1.59l1.24.19-.46,1.17c-18.63,47.47-61.46,81.65-111.78,89.2l-.79.12-.29-.74Z" fill="#dfc8bd"/>
        <path d="M383.25,225.61c7.22,0,14.31.54,21.24,1.58-18.22,46.45-60.21,80.96-111,88.58-5.23-13.34-12.43-25.69-21.24-36.71,26.02-32.57,66.07-53.45,111-53.45M383.25,223.61c-44.02,0-85.05,19.75-112.56,54.2l-1,1.25,1,1.25c8.78,11,15.83,23.17,20.94,36.2l.58,1.48,1.58-.24c50.68-7.6,93.81-42.02,112.57-89.82l.92-2.34-2.48-.37c-7.1-1.06-14.34-1.6-21.53-1.6h0Z" fill="#fff"/>
      </g>
      <g>
        <path d="M272.25,318.35c-7.14,0-14.34-.54-21.38-1.59l-1.24-.19.46-1.17c5.22-13.3,12.41-25.74,21.39-36.97l.78-.98.78.98c8.97,11.23,16.17,23.67,21.39,36.97l.46,1.17-1.24.19c-7.05,1.06-14.25,1.59-21.38,1.59Z" fill="#beb3a7"/>
        <path d="M272.25,279.05c8.8,11.02,16,23.37,21.24,36.71-6.93,1.04-14.02,1.58-21.24,1.58s-14.31-.54-21.24-1.58c5.23-13.34,12.43-25.69,21.24-36.71M272.25,275.85l-1.56,1.96c-9.03,11.31-16.28,23.84-21.54,37.23l-.92,2.34,2.48.37c7.1,1.06,14.34,1.6,21.53,1.6s14.44-.54,21.53-1.6l2.48-.37-.92-2.34c-5.26-13.4-12.5-25.92-21.54-37.23l-1.56-1.96h0Z" fill="#fff"/>
      </g>
    </g>
  </g>
  <g id="Label">
    <g>
      <path d="M204.06,24.76c.64-.42,1.61-.89,2.55-1.26,1.47-.58,2.53-.68,3.43-.34.72.26,1.31.87,1.63,1.7.55,1.41.04,2.69-.94,3.51l.02.05c.94-.04,1.72.53,2.41,1.54.93,1.35,1.59,2.28,1.97,2.6l-1.42.56c-.29-.23-.89-1.06-1.71-2.27-.9-1.35-1.68-1.68-2.95-1.23l-1.3.51,1.82,4.62-1.38.54-4.14-10.52ZM207.35,29.08l1.41-.55c1.47-.58,2.09-1.75,1.61-2.97-.54-1.38-1.78-1.59-3.24-1.03-.67.26-1.11.51-1.31.66l1.53,3.89Z" fill="#1d1d1b"/>
      <path d="M216.19,28.15c.67,1.91,2.15,2.3,3.57,1.83,1.02-.33,1.57-.71,2.03-1.12l.58.94c-.43.39-1.2.93-2.44,1.34-2.41.79-4.36-.32-5.14-2.67-.78-2.36,0-4.67,2.28-5.42,2.55-.84,3.97,1.18,4.44,2.62.1.29.14.53.17.68l-5.49,1.81ZM220.02,25.76c-.28-.91-1.13-2.19-2.73-1.66-1.44.47-1.63,2-1.42,3.03l4.15-1.37Z" fill="#1d1d1b"/>
      <path d="M223.98,28.1c.5.16,1.34.24,2.06.04,1.05-.29,1.39-.95,1.21-1.61-.19-.69-.71-.95-1.88-1.05-1.57-.11-2.46-.71-2.72-1.66-.36-1.28.38-2.61,2.09-3.09.8-.22,1.57-.19,2.08-.05l-.07,1.15c-.37-.11-1.01-.21-1.75,0-.85.24-1.19.86-1.03,1.45.18.66.74.82,1.88.92,1.52.14,2.42.63,2.75,1.81.39,1.39-.42,2.67-2.3,3.2-.87.24-1.73.25-2.38.08l.06-1.2Z" fill="#1d1d1b"/>
      <path d="M230.13,17.16c.14.49-.13.98-.71,1.12-.51.13-.97-.18-1.09-.68-.13-.51.16-1,.69-1.13.54-.13.99.18,1.11.69ZM231.01,27.79l-1.95-7.99,1.45-.36,1.95,7.99-1.45.36Z" fill="#1d1d1b"/>
      <path d="M239.34,13.63l1.98,9.74c.14.72.33,1.53.49,2.07l-1.32.27-.35-1.39h-.03c-.27,1-1.11,1.88-2.43,2.15-1.95.4-3.78-.95-4.28-3.4-.56-2.68.77-4.67,2.74-5.06,1.23-.25,2.18.17,2.68.74h.03s-.98-4.82-.98-4.82l1.47-.3ZM239.31,20.97c-.04-.18-.1-.43-.19-.6-.41-.89-1.36-1.49-2.46-1.27-1.52.31-2.14,1.82-1.78,3.6.33,1.63,1.4,2.82,2.98,2.5.98-.2,1.75-1.03,1.8-2.18,0-.21-.02-.41-.06-.65l-.28-1.4Z" fill="#1d1d1b"/>
      <path d="M250.53,21.84c.12.84.25,1.58.39,2.21l-1.31.19-.28-1.32h-.03c-.29.72-1.02,1.7-2.47,1.92-1.28.19-2.91-.29-3.33-3.15l-.7-4.76,1.48-.22.66,4.51c.23,1.55.85,2.52,2.2,2.32.99-.15,1.58-.94,1.75-1.63.05-.23.06-.51.02-.78l-.73-5,1.48-.22.87,5.92Z" fill="#1d1d1b"/>
      <path d="M257.71,23.35l-.22-1.02h-.05c-.39.69-1.22,1.35-2.39,1.47-1.66.16-2.62-.92-2.73-2.11-.19-1.98,1.46-3.23,4.62-3.53l-.02-.17c-.07-.68-.37-1.88-2.05-1.71-.76.07-1.53.39-2.07.82l-.43-.95c.63-.51,1.59-.89,2.62-.99,2.5-.24,3.28,1.4,3.44,3.05l.3,3.06c.07.71.17,1.4.33,1.95l-1.35.13ZM257.08,19.19c-1.63.12-3.44.59-3.29,2.18.09.96.78,1.36,1.54,1.28,1.07-.1,1.68-.85,1.84-1.56.04-.16.05-.33.04-.48l-.14-1.42Z" fill="#1d1d1b"/>
      <path d="M260.47,11.04l1.49-.1.77,12.04-1.49.1-.77-12.04Z" fill="#1d1d1b"/>
      <path d="M265.87,18.97c.09,2.02,1.41,2.81,2.91,2.77,1.07-.03,1.71-.24,2.26-.49l.29,1.06c-.52.25-1.41.55-2.72.59-2.53.08-4.09-1.54-4.17-4.02-.08-2.48,1.33-4.48,3.72-4.55,2.68-.08,3.47,2.26,3.51,3.77,0,.31-.02.55-.03.7l-5.77.17ZM270.22,17.76c-.01-.95-.46-2.42-2.15-2.37-1.51.05-2.13,1.46-2.22,2.5l4.37-.13Z" fill="#1d1d1b"/>
      <path d="M275.28,12.13c.01.51-.36.92-.96.91-.53,0-.9-.41-.9-.92,0-.53.39-.93.94-.93.56,0,.92.41.91.94ZM273.57,22.66l.04-8.23h1.5s-.03,8.23-.03,8.23h-1.5Z" fill="#1d1d1b"/>
      <path d="M277.69,16.67c.04-.85.04-1.55.02-2.23l1.32.05.03,1.36h.03c.44-.76,1.42-1.49,2.78-1.43,1.14.05,2.88.8,2.76,3.62l-.2,4.91-1.5-.06.19-4.74c.05-1.32-.39-2.45-1.8-2.5-.98-.04-1.78.62-2.07,1.45-.08.18-.12.44-.13.69l-.2,4.94-1.49-.06.24-5.99Z" fill="#1d1d1b"/>
      <path d="M288.61,18.81h.03c.23-.27.55-.6.81-.86l2.65-2.62,1.79.16-3.46,3.09,3.18,5.14-1.81-.16-2.48-4.18-.84.78-.27,3.08-1.47-.13,1.06-12.02,1.47.13-.67,7.59Z" fill="#1d1d1b"/>
      <path d="M302.48,20.69c-.41,3.01-2.67,4.05-4.65,3.78-2.21-.3-3.69-2.15-3.34-4.72.37-2.73,2.37-4.09,4.63-3.78,2.34.32,3.7,2.23,3.36,4.73ZM296,19.9c-.24,1.79.6,3.27,2.05,3.47,1.41.19,2.66-1,2.9-2.83.19-1.38-.27-3.23-2.02-3.46s-2.73,1.28-2.94,2.83Z" fill="#1d1d1b"/>
      <path d="M304.82,19.18c.17-.83.29-1.52.38-2.2l1.28.26-.2,1.31h.05c.61-.66,1.5-1.23,2.83-.96,1.1.22,1.8,1.06,1.96,2.08h.03c.34-.39.73-.68,1.11-.86.56-.27,1.13-.36,1.9-.2,1.07.22,2.51,1.24,1.94,4.04l-.96,4.75-1.43-.29.93-4.57c.31-1.55-.06-2.6-1.25-2.84-.83-.17-1.61.31-2,.98-.11.19-.21.44-.26.71l-1.01,4.98-1.43-.29.98-4.83c.26-1.28-.12-2.33-1.23-2.56-.92-.19-1.73.41-2.11,1.1-.13.2-.21.44-.26.69l-.99,4.87-1.43-.29,1.2-5.88Z" fill="#1d1d1b"/>
      <path d="M318.96,22.16c.24-.82.41-1.49.56-2.16l1.26.37-.3,1.29h.05c.66-.61,1.6-1.1,2.9-.72,1.08.31,1.7,1.2,1.78,2.23h.03c.37-.36.78-.61,1.18-.76.58-.22,1.16-.27,1.91-.05,1.04.3,2.4,1.44,1.6,4.18l-1.35,4.65-1.4-.41,1.3-4.47c.44-1.52.15-2.59-1.01-2.93-.82-.24-1.63.18-2.08.81-.12.18-.25.42-.32.68l-1.42,4.88-1.4-.41,1.37-4.73c.37-1.26.08-2.33-1.02-2.65-.9-.26-1.76.27-2.2.92-.14.19-.25.42-.32.67l-1.38,4.77-1.4-.41,1.67-5.76Z" fill="#1d1d1b"/>
      <path d="M332.77,28.67c-.67,1.91.26,3.14,1.66,3.65,1,.37,1.68.42,2.29.39l-.13,1.09c-.58.04-1.52-.01-2.75-.46-2.38-.87-3.22-2.96-2.37-5.29.86-2.33,2.9-3.66,5.15-2.83,2.52.93,2.38,3.39,1.86,4.81-.11.29-.22.5-.29.64l-5.43-1.99ZM337.25,29.18c.34-.89.47-2.42-1.11-3-1.42-.52-2.52.56-2.99,1.49l4.1,1.51Z" fill="#1d1d1b"/>
      <path d="M340.86,29.42c.34-.78.6-1.42.82-2.07l1.22.53-.46,1.28h.03c.68-.54,1.86-.86,3.11-.32,1.04.45,2.39,1.78,1.27,4.37l-1.96,4.5-1.37-.6,1.89-4.35c.53-1.22.52-2.43-.78-2.99-.9-.39-1.88-.06-2.45.6-.14.14-.27.36-.37.6l-1.97,4.54-1.37-.6,2.39-5.5Z" fill="#1d1d1b"/>
    </g>
    <g>
      <path d="M404.08,526.1c63.47-2.78,121.82-53.07,132.84-116.65" fill="none"/>
      <path d="M428.94,520.75c.75.22,1.77.3,2.75.03,1.46-.39,2.11-1.39,1.81-2.51-.28-1.03-1.03-1.47-2.68-1.64-1.98-.15-3.35-.79-3.77-2.35-.46-1.72.62-3.39,2.77-3.97,1.13-.3,2.02-.26,2.59-.12l-.08,1.27c-.41-.1-1.24-.23-2.24.04-1.51.41-1.84,1.46-1.64,2.22.28,1.03,1.09,1.36,2.77,1.54,2.07.22,3.26.87,3.7,2.49.46,1.71-.41,3.52-3.02,4.23-1.07.29-2.32.29-3.01.05l.04-1.29Z" fill="#1d1d1b"/>
      <path d="M443.89,513.66c.99,2.88-.57,4.82-2.45,5.46-2.11.72-4.26-.26-5.1-2.72-.9-2.6.28-4.72,2.44-5.46,2.23-.77,4.3.34,5.12,2.71ZM437.74,515.86c.58,1.7,2.01,2.65,3.39,2.18,1.35-.46,1.93-2.08,1.32-3.83-.45-1.32-1.69-2.76-3.36-2.19s-1.86,2.37-1.35,3.85Z" fill="#1d1d1b"/>
      <path d="M446.1,516.34l1.59-5.9c.16-.54.33-1.04.5-1.59v-.03s-4.13,1.7-4.13,1.7l-.46-1.12,5.8-2.4.34.87-1.57,5.82c-.14.55-.3,1.06-.48,1.6v.03s4.46-1.84,4.46-1.84l.46,1.1-6.17,2.56-.33-.8Z" fill="#1d1d1b"/>
      <path d="M451.34,503.54c.23.46.06.98-.48,1.23-.48.22-.99,0-1.2-.45-.22-.48-.04-1.01.46-1.24.51-.24,1-.02,1.23.46ZM454.26,513.81l-3.46-7.47,1.36-.63,3.46,7.47-1.36.63Z" fill="#1d1d1b"/>
      <path d="M462.19,509.9l-.58-.87-.04.02c-.11.79-.63,1.71-1.67,2.24-1.48.77-2.77.12-3.32-.94-.92-1.77.16-3.55,2.99-4.99l-.08-.15c-.31-.6-1.04-1.61-2.54-.83-.68.35-1.28.93-1.62,1.53l-.76-.72c.4-.71,1.14-1.42,2.06-1.89,2.23-1.16,3.57.09,4.33,1.55l1.42,2.73c.33.63.68,1.24,1.03,1.69l-1.21.63ZM460.06,506.27c-1.46.72-2.98,1.83-2.24,3.25.45.86,1.23.97,1.91.62.95-.49,1.24-1.41,1.13-2.14-.02-.16-.07-.33-.14-.46l-.66-1.27Z" fill="#1d1d1b"/>
      <path d="M459.61,497.53l1.3-.75,6.01,10.47-1.3.74-6.01-10.47Z" fill="#1d1d1b"/>
      <path d="M468.02,502.14c1.11,1.69,2.65,1.7,3.91.9.9-.57,1.35-1.08,1.7-1.58l.79.77c-.32.48-.93,1.2-2.04,1.9-2.14,1.36-4.31.76-5.64-1.33-1.33-2.1-1.15-4.53.88-5.82,2.27-1.44,4.14.17,4.95,1.45.17.26.26.48.33.62l-4.88,3.1ZM471.15,498.88c-.5-.81-1.63-1.84-3.05-.94-1.28.81-1.09,2.34-.63,3.28l3.69-2.34Z" fill="#1d1d1b"/>
      <path d="M474.3,488.68l6.8,9.22-1.19.88-6.8-9.22,1.19-.88Z" fill="#1d1d1b"/>
      <path d="M479.75,491.44c-.54-.66-.99-1.19-1.46-1.68l1.03-.84.92,1,.03-.02c-.18-.86.08-2.06,1.13-2.92.88-.72,2.68-1.31,4.46.88l3.1,3.81-1.16.94-2.99-3.68c-.84-1.03-1.92-1.57-3.01-.68-.76.62-.92,1.65-.59,2.45.06.19.2.41.36.6l3.12,3.83-1.16.94-3.79-4.65Z" fill="#1d1d1b"/>
      <path d="M491.15,489.71l-4.75-5.27-.86.77-.76-.85.86-.77-.26-.29c-.77-.86-1.29-1.81-1.22-2.77.05-.78.46-1.45.98-1.91.39-.35.81-.57,1.11-.68l.62,1c-.23.07-.52.21-.83.5-.95.85-.44,1.9.41,2.84l.3.33,1.48-1.33.76.85-1.48,1.33,4.75,5.27-1.1.99Z" fill="#1d1d1b"/>
      <path d="M490.96,482.22c-.67-.7-1.27-1.28-1.84-1.79l.94-.91,1.16,1.12.05-.05c-.5-1.05-.34-2.18.38-2.88.12-.12.22-.19.34-.26l.98,1.01c-.13.08-.26.18-.4.32-.76.73-.74,1.83-.1,2.78.12.17.26.36.44.55l3.05,3.15-1.06,1.03-3.94-4.06Z" fill="#1d1d1b"/>
      <path d="M502.16,478.88l-.84-.62-.04.04c.16.78-.02,1.82-.82,2.67-1.14,1.22-2.58,1.04-3.44.22-1.45-1.36-1.04-3.39,1.15-5.7l-.12-.12c-.5-.47-1.52-1.16-2.67.06-.52.56-.9,1.3-1.02,1.98l-.95-.43c.14-.8.61-1.72,1.31-2.47,1.72-1.84,3.39-1.11,4.59.02l2.25,2.1c.52.49,1.05.94,1.53,1.25l-.93.99ZM498.94,476.17c-1.14,1.17-2.19,2.72-1.03,3.81.71.66,1.48.5,2.01-.05.73-.78.7-1.74.35-2.39-.08-.14-.18-.28-.29-.39l-1.04-.98Z" fill="#1d1d1b"/>
      <path d="M503.53,475.06c.5-.15,1.24-.55,1.72-1.12.7-.83.61-1.57.09-2.01-.54-.46-1.12-.39-2.14.2-1.35.79-2.43.8-3.18.16-1.01-.85-1.16-2.37-.02-3.73.54-.64,1.19-1.04,1.69-1.22l.59.99c-.36.12-.96.4-1.45.98-.57.68-.5,1.38-.03,1.78.52.44,1.07.26,2.07-.3,1.33-.74,2.35-.84,3.29-.05,1.11.93,1.16,2.45-.1,3.94-.58.69-1.29,1.18-1.92,1.41l-.63-1.02Z" fill="#1d1d1b"/>
      <path d="M502.01,462.57l1.88,1.44,1.31-1.7.9.69-1.31,1.7,3.52,2.71c.81.62,1.44.75,1.95.08.24-.31.38-.57.45-.75l.93.63c-.08.3-.29.72-.65,1.18-.42.55-.94.86-1.48.9-.61.07-1.28-.26-2.05-.85l-3.56-2.74-.78,1.01-.9-.7.78-1.01-1.56-1.2.58-1.4Z" fill="#1d1d1b"/>
      <path d="M508.25,462.47c-.79-.56-1.48-1.03-2.13-1.43l.76-1.07,1.35.89.04-.06c-.69-.94-.73-2.08-.16-2.9.1-.14.18-.23.29-.32l1.15.81c-.12.11-.22.22-.34.39-.61.86-.39,1.93.41,2.75.15.15.32.31.53.46l3.58,2.53-.85,1.21-4.62-3.27Z" fill="#1d1d1b"/>
      <path d="M518.05,453.84c.72.45,1.36.84,1.94,1.14l-.71,1.12-1.18-.64-.02.03c.35.68.63,1.88-.15,3.12-.69,1.09-2.11,2.02-4.56.49l-4.07-2.56.79-1.27,3.86,2.42c1.32.83,2.47.99,3.19-.16.53-.85.31-1.81-.1-2.39-.14-.19-.35-.38-.58-.52l-4.28-2.69.79-1.27,5.07,3.18Z" fill="#1d1d1b"/>
      <path d="M518.2,449.05l.02-.03c-.16-.32-.33-.74-.47-1.09l-1.35-3.47.86-1.58,1.46,4.4,5.98-.88-.86,1.6-4.82.62.38,1.08,2.72,1.47-.7,1.3-10.61-5.74.7-1.3,6.7,3.62Z" fill="#1d1d1b"/>
      <path d="M516.5,438.91l2.13,1.02.92-1.94,1.03.49-.92,1.93,4.01,1.91c.92.44,1.57.43,1.93-.33.17-.35.25-.64.28-.83l1.04.42c-.02.31-.14.76-.39,1.29-.3.63-.74,1.04-1.26,1.19-.58.19-1.31.02-2.18-.4l-4.05-1.93-.55,1.15-1.03-.49.55-1.15-1.78-.85.28-1.49Z" fill="#1d1d1b"/>
      <path d="M528.38,432.4c.79.32,1.49.59,2.1.78l-.5,1.23-1.28-.43v.03c.45.61.93,1.74.38,3.1-.49,1.2-1.73,2.36-4.41,1.27l-4.45-1.81.56-1.39,4.22,1.72c1.45.59,2.61.55,3.12-.71.38-.93,0-1.84-.51-2.34-.17-.16-.41-.31-.66-.41l-4.68-1.9.56-1.39,5.54,2.26Z" fill="#1d1d1b"/>
      <path d="M526.05,428.7c-.92-.31-1.71-.56-2.45-.76l.42-1.24,1.55.47.02-.07c-.92-.71-1.3-1.79-.97-2.74.05-.16.11-.27.19-.39l1.34.45c-.08.13-.15.27-.21.47-.34,1,.18,1.96,1.17,2.52.18.1.4.21.64.29l4.15,1.41-.47,1.4-5.36-1.82Z" fill="#1d1d1b"/>
    </g>
    <g>
      <path d="M0,389.17c2.14,63.5,51.82,122.35,115.29,134.02" fill="none"/>
      <path d="M17.59,449.44l11.24.82.04-.03-2.92-5.03,1.07-.62,3.89,6.69-.78.45-11.19-.81-.04.03,3.22,5.54-1.07.62-4.21-7.23.75-.44Z" fill="#1d1d1b"/>
      <path d="M25.79,457.35c-1.66,1.15-1.64,2.69-.81,3.93.59.89,1.11,1.33,1.62,1.66l-.75.8c-.49-.31-1.22-.9-1.94-1.99-1.41-2.11-.86-4.29,1.21-5.67,2.07-1.38,4.5-1.24,5.83.75,1.49,2.23-.08,4.14-1.34,4.98-.25.17-.47.27-.61.34l-3.2-4.81ZM29.11,460.4c.8-.51,1.81-1.67.87-3.07-.84-1.26-2.37-1.04-3.3-.56l2.42,3.64Z" fill="#1d1d1b"/>
      <path d="M27.11,466.06l6.64-4.86.88,1.21-6.64,4.86-.88-1.21ZM36.6,461.17c-.4.32-.95.25-1.3-.23-.31-.43-.2-.97.21-1.27.43-.31.99-.24,1.31.2.33.45.21.98-.21,1.29Z" fill="#1d1d1b"/>
      <path d="M39.08,464.32l-1.86,1.46,1.32,1.69-.9.7-1.32-1.69-3.49,2.74c-.8.63-1.08,1.21-.57,1.87.24.31.46.5.62.62l-.84.75c-.27-.15-.62-.46-.98-.92-.43-.55-.6-1.13-.5-1.66.09-.61.57-1.18,1.33-1.78l3.53-2.77-.79-1,.9-.7.79,1,1.55-1.22,1.21.91Z" fill="#1d1d1b"/>
      <path d="M40.05,469.29l-2.44,4.25c-.39.69-.76,1.31-1.16,1.88l.03.04c.64-.3,1.31-.57,2.05-.85l4.54-1.82,1.02,1.18-8.33,2.95-.93-1.08,4.17-7.75,1.05,1.21Z" fill="#1d1d1b"/>
      <path d="M42.35,478.46c-1.43,1.44-1.12,2.94-.08,4.02.75.77,1.33,1.1,1.89,1.34l-.59.93c-.54-.21-1.36-.67-2.27-1.61-1.77-1.82-1.63-4.06.15-5.79,1.78-1.73,4.2-2.05,5.87-.33,1.88,1.93.68,4.09-.41,5.14-.22.21-.41.36-.54.45l-4.03-4.14ZM46.17,480.86c.69-.65,1.47-1.98.29-3.18-1.06-1.08-2.52-.59-3.34.05l3.05,3.13Z" fill="#1d1d1b"/>
      <path d="M49.13,482.69c.66-.71,1.22-1.33,1.7-1.92l.96.89-1.06,1.22.05.05c1.03-.55,2.16-.45,2.89.23.12.12.2.21.28.33l-.96,1.03c-.09-.13-.19-.25-.34-.38-.77-.72-1.86-.64-2.78.04-.16.13-.35.28-.52.46l-2.99,3.21-1.08-1.01,3.86-4.14Z" fill="#1d1d1b"/>
      <path d="M55.65,485.22l-1.8,3.93c-.4.86-.76,1.66-1.18,2.42l.04.03c.67-.53,1.44-1.04,2.21-1.56l3.69-2.41.97.79-1.61,4c-.38.96-.75,1.78-1.13,2.54l.04.03c.63-.56,1.35-1.09,2.17-1.67l3.52-2.46,1.15.93-7.25,4.71-1.06-.86,1.5-3.84c.36-.89.69-1.68,1.14-2.56l-.03-.02c-.78.64-1.52,1.13-2.3,1.64l-3.5,2.2-1.05-.86,3.27-7.95,1.19.97Z" fill="#1d1d1b"/>
      <path d="M62.97,496.53c-1.13,1.68-.54,3.1.69,3.96.88.61,1.52.83,2.11.95l-.4,1.03c-.57-.11-1.46-.4-2.54-1.14-2.08-1.45-2.37-3.68-.95-5.72s3.73-2.81,5.7-1.44c2.21,1.53,1.44,3.88.58,5.12-.17.25-.34.43-.44.54l-4.75-3.3ZM67.18,498.16c.56-.77,1.07-2.22-.31-3.18-1.24-.86-2.58-.1-3.27.69l3.59,2.49Z" fill="#1d1d1b"/>
      <path d="M70.6,499.13c.44-.73.78-1.33,1.09-1.94l1.14.68-.63,1.21.03.02c.75-.46,1.96-.62,3.13.08.98.59,2.14,2.08.68,4.5l-2.53,4.21-1.28-.77,2.45-4.06c.69-1.13.83-2.34-.38-3.06-.84-.51-1.86-.31-2.51.28-.15.12-.31.33-.45.54l-2.55,4.24-1.28-.77,3.1-5.14Z" fill="#1d1d1b"/>
      <path d="M87.9,501.78l-4.5,8.87c-.33.65-.69,1.4-.9,1.92l-1.2-.61.59-1.3h-.03c-.83.6-2.04.76-3.23.16-1.77-.9-2.38-3.09-1.25-5.32,1.22-2.45,3.5-3.18,5.29-2.27,1.12.57,1.61,1.49,1.64,2.25l.03.02,2.22-4.38,1.33.68ZM83.31,507.51c.08-.17.19-.4.22-.59.23-.95-.14-2.02-1.14-2.52-1.38-.7-2.81.1-3.64,1.72-.75,1.49-.65,3.08.79,3.81.89.45,2.01.28,2.76-.6.14-.16.25-.33.35-.55l.65-1.27Z" fill="#1d1d1b"/>
      <path d="M92.37,514.39c-.33.78-.6,1.48-.8,2.1l-1.22-.51.44-1.27h-.03c-.62.45-1.75.91-3.1.35-1.19-.5-2.34-1.76-1.23-4.42l1.86-4.44,1.38.58-1.76,4.2c-.6,1.44-.57,2.6.68,3.12.93.39,1.84.01,2.34-.49.16-.17.32-.4.42-.65l1.95-4.66,1.38.58-2.31,5.52Z" fill="#1d1d1b"/>
      <path d="M96.21,511.83c.27-.81.47-1.47.64-2.13l1.26.42-.35,1.32h.03c.64-.6,1.78-1.03,3.07-.6,1.08.36,2.54,1.57,1.65,4.24l-1.56,4.66-1.42-.47,1.5-4.5c.42-1.26.3-2.46-1.04-2.91-.93-.31-1.88.11-2.39.82-.12.16-.24.39-.32.63l-1.57,4.69-1.42-.47,1.9-5.69Z" fill="#1d1d1b"/>
      <path d="M112.7,514.33c-.18.57-.37,1.2-.61,2.18l-1.16,4.63c-.46,1.83-1.1,2.86-2.05,3.36-.96.53-2.13.48-3.14.23-.96-.24-1.95-.73-2.49-1.32l.64-1.01c.44.46,1.19.96,2.18,1.21,1.48.37,2.77-.13,3.27-2.14l.22-.89h-.03c-.63.62-1.64,1-2.87.69-1.98-.5-2.97-2.53-2.42-4.74.68-2.7,2.83-3.79,4.66-3.34,1.38.35,1.96,1.26,2.14,2.01h.03s.37-1.18.37-1.18l1.27.32ZM110.41,517.1c.06-.25.1-.47.08-.68-.05-.91-.59-1.78-1.64-2.04-1.38-.35-2.67.58-3.13,2.42-.39,1.57.07,3.07,1.64,3.46.89.22,1.84-.13,2.38-.98.14-.23.25-.5.31-.75l.36-1.43Z" fill="#1d1d1b"/>
    </g>
  </g>
</svg>