<?xml version="1.0" encoding="UTF-8"?>
<svg id="Ebene_1" xmlns="http://www.w3.org/2000/svg" xmlns:xlink="http://www.w3.org/1999/xlink" viewBox="0 0 438.93 437.34">
  <defs>
    <style>
      .cls-1 {
        letter-spacing: .01em;
      }

      .cls-2 {
        clip-path: url(#clippath-21);
      }

      .cls-3 {
        letter-spacing: 0em;
      }

      .cls-4 {
        clip-path: url(#clippath-6);
      }

      .cls-5 {
        clip-path: url(#clippath-7);
      }

      .cls-6 {
        clip-path: url(#clippath-17);
      }

      .cls-7 {
        clip-path: url(#clippath-15);
      }

      .cls-8 {
        letter-spacing: .03em;
      }

      .cls-9 {
        clip-path: url(#clippath-18);
      }

      .cls-10 {
        clip-path: url(#clippath-4);
      }

      .cls-11 {
        clip-path: url(#clippath-22);
      }

      .cls-12 {
        clip-path: url(#clippath-23);
      }

      .cls-13 {
        letter-spacing: -.01em;
      }

      .cls-14 {
        clip-path: url(#clippath-9);
      }

      .cls-15 {
        clip-path: url(#clippath-10);
      }

      .cls-16 {
        letter-spacing: 0em;
      }

      .cls-17 {
        letter-spacing: 0em;
      }

      .cls-18 {
        fill: #fff;
      }

      .cls-19 {
        clip-path: url(#clippath-25);
      }

      .cls-20 {
        letter-spacing: 0em;
      }

      .cls-21 {
        clip-path: url(#clippath-27);
      }

      .cls-22 {
        letter-spacing: 0em;
      }

      .cls-23 {
        clip-path: url(#clippath-11);
      }

      .cls-24 {
        letter-spacing: .02em;
      }

      .cls-25, .cls-26, .cls-27, .cls-28 {
        fill: none;
      }

      .cls-29 {
        letter-spacing: 0em;
      }

      .cls-30 {
        letter-spacing: 0em;
      }

      .cls-31 {
        letter-spacing: 0em;
      }

      .cls-32 {
        clip-path: url(#clippath-1);
      }

      .cls-26 {
        stroke-width: 4px;
      }

      .cls-26, .cls-27, .cls-28 {
        stroke: #fff;
        stroke-miterlimit: 8;
      }

      .cls-33 {
        clip-path: url(#clippath-5);
      }

      .cls-34 {
        clip-path: url(#clippath-20);
      }

      .cls-35 {
        letter-spacing: 0em;
      }

      .cls-36 {
        fill: #fcd799;
      }

      .cls-37 {
        clip-path: url(#clippath-8);
      }

      .cls-38 {
        font-size: 16px;
      }

      .cls-38, .cls-39, .cls-40 {
        fill: #1d1d1b;
        font-family: MyriadPro-Regular, 'Myriad Pro';
      }

      .cls-41 {
        clip-path: url(#clippath-3);
      }

      .cls-42 {
        clip-path: url(#clippath-26);
      }

      .cls-27 {
        stroke-width: .5px;
      }

      .cls-43 {
        clip-path: url(#clippath-12);
      }

      .cls-44 {
        clip-path: url(#clippath-14);
      }

      .cls-45 {
        fill: #e2e1e1;
      }

      .cls-46 {
        letter-spacing: 0em;
      }

      .cls-47 {
        clip-path: url(#clippath-19);
      }

      .cls-39 {
        font-size: 13.7px;
      }

      .cls-48 {
        letter-spacing: -.01em;
      }

      .cls-49 {
        letter-spacing: 0em;
      }

      .cls-50 {
        fill: #f0ae9f;
      }

      .cls-40 {
        font-size: 14px;
      }

      .cls-28 {
        stroke-width: .75px;
      }

      .cls-51 {
        letter-spacing: 0em;
      }

      .cls-52 {
        opacity: .51;
      }

      .cls-53 {
        letter-spacing: -.01em;
      }

      .cls-54 {
        clip-path: url(#clippath-16);
      }

      .cls-55 {
        clip-path: url(#clippath-2);
      }

      .cls-56 {
        fill: #b2a5a7;
      }

      .cls-57 {
        letter-spacing: -.01em;
      }

      .cls-58 {
        letter-spacing: 0em;
      }

      .cls-59 {
        letter-spacing: -.01em;
      }

      .cls-60 {
        clip-path: url(#clippath-13);
      }

      .cls-61 {
        letter-spacing: -.03em;
      }

      .cls-62 {
        letter-spacing: 0em;
      }

      .cls-63 {
        clip-path: url(#clippath-24);
      }

      .cls-64 {
        clip-path: url(#clippath);
      }

      .cls-65 {
        opacity: .5;
      }

      .cls-66 {
        fill: #a4cdc8;
      }
    </style>
    <clipPath id="clippath">
      <rect class="cls-25" width="438.93" height="437.34"/>
    </clipPath>
    <clipPath id="clippath-1">
      <rect class="cls-25" width="438.93" height="437.34"/>
    </clipPath>
    <clipPath id="clippath-2">
      <rect class="cls-25" width="438.93" height="437.34"/>
    </clipPath>
    <clipPath id="clippath-3">
      <rect class="cls-25" x="199.47" y="57.38" width="38.39" height="66.58"/>
    </clipPath>
    <clipPath id="clippath-4">
      <rect class="cls-25" x="199.47" y="313.02" width="38.39" height="66.58"/>
    </clipPath>
    <clipPath id="clippath-5">
      <rect class="cls-25" x="314.37" y="199.48" width="66.58" height="38.39"/>
    </clipPath>
    <clipPath id="clippath-6">
      <rect class="cls-25" x="57.7" y="199.48" width="66.58" height="38.39"/>
    </clipPath>
    <clipPath id="clippath-7">
      <rect class="cls-25" x="199.47" y="57.38" width="38.39" height="66.58"/>
    </clipPath>
    <clipPath id="clippath-8">
      <rect class="cls-25" x="199.47" y="313.02" width="38.39" height="66.58"/>
    </clipPath>
    <clipPath id="clippath-9">
      <rect class="cls-25" x="314.37" y="199.48" width="66.58" height="38.39"/>
    </clipPath>
    <clipPath id="clippath-10">
      <rect class="cls-25" x="57.7" y="199.48" width="66.58" height="38.39"/>
    </clipPath>
    <clipPath id="clippath-11">
      <rect class="cls-25" width="438.93" height="437.34"/>
    </clipPath>
    <clipPath id="clippath-12">
      <rect class="cls-25" x="28.47" y="141.31" width="27.56" height="154.96"/>
    </clipPath>
    <clipPath id="clippath-13">
      <rect class="cls-25" x="141.48" y="382.46" width="154.96" height="27.56"/>
    </clipPath>
    <clipPath id="clippath-14">
      <rect class="cls-25" x="382.14" y="141.51" width="27.56" height="154.96"/>
    </clipPath>
    <clipPath id="clippath-15">
      <rect class="cls-25" x="141.48" y="382.46" width="154.96" height="27.56"/>
    </clipPath>
    <clipPath id="clippath-16">
      <rect class="cls-25" x="205.16" y="123.96" width="27.67" height="82.11"/>
    </clipPath>
    <clipPath id="clippath-17">
      <rect class="cls-25" x="231.47" y="204.82" width="82.9" height="28.28"/>
    </clipPath>
    <clipPath id="clippath-18">
      <rect class="cls-25" x="205.16" y="123.96" width="27.67" height="82.11"/>
    </clipPath>
    <clipPath id="clippath-19">
      <rect class="cls-25" x="231.47" y="204.82" width="82.9" height="28.28"/>
    </clipPath>
    <clipPath id="clippath-20">
      <rect class="cls-25" x="124.28" y="205.13" width="81.76" height="27.4"/>
    </clipPath>
    <clipPath id="clippath-21">
      <rect class="cls-25" x="205.08" y="231.5" width="28.01" height="82.55"/>
    </clipPath>
    <clipPath id="clippath-22">
      <rect class="cls-25" x="124.28" y="205.13" width="81.76" height="27.4"/>
    </clipPath>
    <clipPath id="clippath-23">
      <rect class="cls-25" x="205.08" y="231.5" width="28.01" height="82.55"/>
    </clipPath>
    <clipPath id="clippath-24">
      <rect class="cls-25" x="141.19" y="28.74" width="154.96" height="27.56"/>
    </clipPath>
    <clipPath id="clippath-25">
      <rect class="cls-25" x="382.14" y="141.51" width="27.56" height="154.96"/>
    </clipPath>
    <clipPath id="clippath-26">
      <rect class="cls-25" x="28.47" y="141.31" width="27.56" height="154.96"/>
    </clipPath>
    <clipPath id="clippath-27">
      <rect class="cls-25" x="141.19" y="28.74" width="154.96" height="27.56"/>
    </clipPath>
  </defs>
  <g class="cls-64">
    <g class="cls-55">
      <g class="cls-52">
        <g class="cls-41">
          <polygon class="cls-45" points="215.41 123.96 206.01 76.79 199.47 76.84 208.99 67.11 218.52 57.38 228.19 66.96 237.86 76.54 231.55 76.59 222.88 123.9 215.41 123.96"/>
        </g>
      </g>
      <g class="cls-52">
        <g class="cls-10">
          <polygon class="cls-66" points="221.92 313.02 231.33 360.19 237.86 360.14 228.34 369.87 218.82 379.6 209.15 370.02 199.47 360.44 205.78 360.39 214.45 313.08 221.92 313.02"/>
        </g>
      </g>
      <g class="cls-52">
        <g class="cls-33">
          <polygon class="cls-66" points="314.37 215.42 361.54 206.01 361.49 199.47 371.22 209 380.95 218.52 371.37 228.19 361.79 237.86 361.74 231.56 314.43 222.88 314.37 215.42"/>
        </g>
      </g>
      <g class="cls-52">
        <g class="cls-4">
          <polygon class="cls-45" points="124.28 221.92 77.11 231.33 77.16 237.86 67.43 228.34 57.7 218.82 67.28 209.15 76.86 199.48 76.91 205.78 124.22 214.45 124.28 221.92"/>
        </g>
      </g>
      <g class="cls-65">
        <g class="cls-5">
          <polygon class="cls-50" points="215.41 123.96 206.01 76.79 199.47 76.84 208.99 67.11 218.52 57.38 228.19 66.96 237.86 76.54 231.55 76.59 222.88 123.9 215.41 123.96"/>
        </g>
      </g>
      <g class="cls-65">
        <g class="cls-37">
          <polygon class="cls-36" points="221.92 313.02 231.33 360.19 237.86 360.14 228.34 369.87 218.82 379.6 209.15 370.02 199.47 360.44 205.78 360.39 214.45 313.08 221.92 313.02"/>
        </g>
      </g>
      <g class="cls-65">
        <g class="cls-14">
          <polygon class="cls-50" points="314.37 215.42 361.54 206.01 361.49 199.47 371.22 209 380.95 218.52 371.37 228.19 361.79 237.86 361.74 231.56 314.43 222.88 314.37 215.42"/>
        </g>
      </g>
      <g class="cls-65">
        <g class="cls-15">
          <polygon class="cls-36" points="124.28 221.92 77.11 231.33 77.16 237.86 67.43 228.34 57.7 218.82 67.28 209.15 76.86 199.48 76.91 205.78 124.22 214.45 124.28 221.92"/>
        </g>
      </g>
    </g>
    <g id="clickable_elements" class="cls-23">
      <g class="cls-65">
        <g class="cls-43">
          <rect id="time-money" class="cls-36" x="28.47" y="141.31" width="27.56" height="154.96"/>
        </g>
      </g>
      <g id="zeit_und_infrastruktur" class="cls-52">
        <g class="cls-60">
          <rect class="cls-66" x="141.48" y="382.46" width="154.96" height="27.56"/>
        </g>
      </g>
      <g id="geld_sparen_durch_SI" class="cls-65">
        <g class="cls-44">
          <rect class="cls-50" x="382.14" y="141.51" width="27.56" height="154.96"/>
        </g>
      </g>
      <g id="verfuegbares_einkommen" class="cls-65">
        <g class="cls-7">
          <rect class="cls-36" x="141.48" y="382.46" width="154.96" height="27.56"/>
        </g>
      </g>
      <path id="circle_einkommen" class="cls-45" d="M206.04,218.73c2.41-1.84,4.74-3.84,6.94-6.04,2.11-2.11,4.03-4.33,5.8-6.62-18.3-24.27-18.15-58,.44-82.11-1.88-2.5-3.95-4.9-6.22-7.18-26.48-26.49-69.42-26.5-95.91-.02-26.49,26.48-26.5,69.42-.02,95.91,2.29,2.29,4.7,4.36,7.21,6.26,24.08-18.33,57.61-18.4,81.76-.2"/>
      <path class="cls-66" d="M314.37,218.99c-24.36,18.83-58.57,18.81-82.9-.06-2.27,1.75-4.46,3.65-6.54,5.73-2.18,2.18-4.15,4.47-5.97,6.85,18.75,24.23,18.83,58.23.24,82.55,1.75,2.26,3.64,4.44,5.71,6.52,26.48,26.49,69.42,26.5,95.91.02,26.49-26.48,26.5-69.42.02-95.91-2.06-2.06-4.23-3.94-6.47-5.68"/>
      <path class="cls-50" d="M218.78,206.07c1.88,2.5,3.95,4.9,6.22,7.18,2.06,2.06,4.23,3.94,6.47,5.68,24.36-18.83,58.57-18.81,82.9.06,2.27-1.75,4.46-3.65,6.54-5.73,26.49-26.48,26.5-69.42.02-95.91-26.48-26.49-69.42-26.5-95.91-.02-2.11,2.11-4.03,4.33-5.8,6.63,18.3,24.26,18.15,58-.44,82.11"/>
      <path class="cls-36" d="M218.96,231.5c-1.75-2.26-3.64-4.44-5.71-6.52-2.29-2.29-4.7-4.36-7.21-6.25-24.08,18.33-57.61,18.4-81.76.2-2.41,1.83-4.74,3.84-6.94,6.04-26.49,26.48-26.5,69.42-.02,95.91,26.48,26.49,69.42,26.5,95.91.02,2.18-2.18,4.15-4.47,5.97-6.85-18.75-24.23-18.83-58.23-.24-82.55"/>
      <g class="cls-65">
        <g class="cls-54">
          <path class="cls-50" d="M218.78,206.07c18.59-24.11,18.74-57.85.44-82.11-18.59,24.11-18.74,57.85-.44,82.11"/>
        </g>
      </g>
      <g class="cls-65">
        <g class="cls-6">
          <path class="cls-50" d="M231.47,218.93c24.33,18.87,58.54,18.9,82.9.06-24.33-18.87-58.54-18.9-82.9-.06"/>
        </g>
      </g>
      <g class="cls-52">
        <g class="cls-9">
          <path class="cls-45" d="M218.78,206.07c18.59-24.11,18.74-57.85.44-82.11-18.59,24.11-18.74,57.85-.44,82.11"/>
        </g>
      </g>
      <g class="cls-52">
        <g class="cls-47">
          <path class="cls-66" d="M231.47,218.93c24.33,18.87,58.54,18.9,82.9.06-24.33-18.87-58.54-18.9-82.9-.06"/>
        </g>
      </g>
      <g class="cls-52">
        <g class="cls-34">
          <path class="cls-45" d="M206.04,218.73c-24.15-18.2-57.68-18.14-81.76.2,24.15,18.2,57.68,18.14,81.76-.2"/>
        </g>
      </g>
      <g class="cls-52">
        <g class="cls-2">
          <path class="cls-66" d="M218.96,231.5c-18.59,24.32-18.51,58.31.24,82.55,18.59-24.32,18.51-58.31-.24-82.55"/>
        </g>
      </g>
      <g class="cls-65">
        <g class="cls-11">
          <path class="cls-36" d="M206.04,218.73c-24.15-18.2-57.68-18.14-81.76.2,24.15,18.2,57.68,18.14,81.76-.2"/>
        </g>
      </g>
      <g class="cls-65">
        <g class="cls-12">
          <path class="cls-36" d="M218.96,231.5c-18.59,24.32-18.51,58.31.24,82.55,18.59-24.32,18.51-58.31-.24-82.55"/>
        </g>
      </g>
      <g class="cls-52">
        <g class="cls-63">
          <rect class="cls-45" x="141.19" y="28.74" width="154.96" height="27.56"/>
        </g>
      </g>
      <g class="cls-52">
        <g class="cls-19">
          <rect class="cls-66" x="382.14" y="141.51" width="27.56" height="154.96"/>
        </g>
      </g>
      <g class="cls-65">
        <g class="cls-42">
          <rect class="cls-45" x="28.47" y="141.31" width="27.56" height="154.96"/>
        </g>
      </g>
      <g class="cls-65">
        <g class="cls-21">
          <rect class="cls-50" x="141.19" y="28.74" width="154.96" height="27.56"/>
        </g>
      </g>
    </g>
    <text class="cls-38" transform="translate(122.7 166.52)"><tspan x="0" y="0">Einkommen</tspan></text>
    <text class="cls-38" transform="translate(149.9 265.8)"><tspan class="cls-13" x="0" y="0">Z</tspan><tspan class="cls-29" x="8.66" y="0">ei</tspan><tspan class="cls-3" x="20.42" y="0">t</tspan><tspan x="25.63" y="0">-</tspan></text>
    <text class="cls-38" transform="translate(122.49 285)"><tspan class="cls-35" x="0" y="0">v</tspan><tspan x="7.55" y="0">e</tspan><tspan class="cls-24" x="15.57" y="0">r</tspan><tspan class="cls-59" x="21.2" y="0">w</tspan><tspan class="cls-29" x="32.82" y="0">endung</tspan></text>
    <text class="cls-38" transform="translate(253.19 265.62)"><tspan class="cls-49" x="0" y="0">S</tspan><tspan class="cls-31" x="7.98" y="0">o</tspan><tspan x="16.67" y="0">ziale </tspan></text>
    <!-- <text class="cls-38" transform="translate(231.05 284.82)"><tspan class="cls-1" x="0" y="0">I</tspan><tspan x="3.98" y="0">nf</tspan><tspan class="cls-3" x="17.54" y="0">r</tspan><tspan x="22.69" y="0">astuktu</tspan><tspan class="cls-59" x="72.46" y="0">r</tspan><tspan x="77.54" y="0">en</tspan></text> -->
    <text class="cls-38" transform="translate(231.05 284.82)"><tspan class="cls-1" y="0" x="4">Infrastrukturen</tspan></text>
    <text class="cls-38" transform="translate(236.49 158.78)"><tspan x="0" y="0">no</tspan><tspan class="cls-51" x="17.66" y="0">t</tspan><tspan class="cls-59" x="23.09" y="0">w</tspan><tspan class="cls-58" x="34.7" y="0">endige</tspan></text>
    <text class="cls-38" transform="translate(243.45 177.98)"><tspan class="cls-57" x="0" y="0">A</tspan><tspan class="cls-58" x="9.6" y="0">usgaben</tspan></text>
    <text class="cls-40" transform="translate(147.15 46.77)"><tspan class="cls-61" x="0" y="0">V</tspan><tspan x="7.35" y="0">e</tspan><tspan class="cls-8" x="14.36" y="0">r</tspan><tspan x="19.36" y="0">fügba</tspan><tspan class="cls-20" x="53.7" y="0">r</tspan><tspan x="58.16" y="0">es Einkommen</tspan></text>
    <text class="cls-40" transform="translate(45.35 257.98) rotate(-90)"><tspan class="cls-53" x="0" y="0">Z</tspan><tspan x="7.59" y="0">eit ist </tspan><tspan class="cls-17" x="41.9" y="0">G</tspan><tspan class="cls-22" x="51" y="0">eld?</tspan></text>
    <text class="cls-39" transform="translate(160.43 399.77) scale(1 1.02)"><tspan class="cls-48" x="0" y="0">Z</tspan><tspan x="7.41" y="0">eit und </tspan><tspan class="cls-30" x="50.69" y="0">I</tspan><tspan x="54.09" y="0">nf</tspan><tspan class="cls-46" x="65.69" y="0">r</tspan><tspan x="70.11" y="0">astruktur</tspan></text>
    <text class="cls-40" transform="translate(392.9 155.46) rotate(90)"><tspan class="cls-62" x="0" y="0">G</tspan><tspan x="9.11" y="0">eld spa</tspan><tspan class="cls-16" x="50.55" y="0">r</tspan><tspan x="54.99" y="0">en du</tspan><tspan class="cls-20" x="88.35" y="0">r</tspan><tspan x="92.8" y="0">ch SI</tspan></text>
  </g>
</svg>