<?xml version="1.0" encoding="UTF-8"?>
<svg xmlns="http://www.w3.org/2000/svg" viewBox="0 0 381.23 381.28">
  <defs>
    <style>
      .cls-1 {
        letter-spacing: -.01em;
      }

      .cls-2 {
        letter-spacing: .01em;
      }

      .cls-3 {
        fill: #f7e4c5;
      }

      .cls-4 {
        fill: #a5cdc8;
      }

      .cls-5 {
        fill: #e4cdc0;
      }

      .cls-6 {
        letter-spacing: -.01em;
      }

      .cls-7 {
        letter-spacing: 0em;
      }

      .cls-8 {
        letter-spacing: 0em;
      }

      .cls-9 {
        letter-spacing: 0em;
      }

      .cls-10 {
        letter-spacing: .02em;
      }

      .cls-11 {
        letter-spacing: 0em;
      }

      .cls-12 {
        fill: #d2d5cb;
      }

      .cls-13 {
        letter-spacing: .03em;
      }

      .cls-14 {
        letter-spacing: 0em;
      }

      .cls-15 {
        letter-spacing: 0em;
      }

      .cls-16 {
        fill: #fcd799;
      }

      .cls-17 {
        font-size: 16px;
      }

      .cls-17, .cls-18 {
        fill: #1d1d1b;
        font-family: MyriadPro-Regular, 'Myriad Pro';
      }

      .cls-19 {
        letter-spacing: 0em;
      }

      .cls-20 {
        letter-spacing: 0em;
      }

      .cls-21 {
        fill: #e9dfbe;
      }

      .cls-22 {
        letter-spacing: 0em;
      }

      .cls-23 {
        fill: #f0d1c7;
      }

      .cls-24 {
        letter-spacing: 0em;
      }

      .cls-25 {
        letter-spacing: -.01em;
      }

      .cls-26 {
        fill: #e2e0e1;
      }

      .cls-27 {
        fill: #f0e6d7;
      }

      .cls-28 {
        fill: #f0ae9f;
      }

      .cls-18 {
        font-size: 14px;
      }

      .cls-29 {
        letter-spacing: 0em;
      }

      .cls-30 {
        fill: #b2a5a7;
      }

      .cls-31 {
        letter-spacing: -.01em;
      }

      .cls-32 {
        letter-spacing: -.01em;
      }

      .cls-33 {
        letter-spacing: 0em;
      }

      .cls-34 {
        letter-spacing: -.03em;
      }

      .cls-35 {
        fill: #eddcd7;
      }
    </style>
  </defs>
  <g id="basis">
    <path class="cls-30" d="M190.2,19.62C96.12,19.62,19.86,95.88,19.86,189.95s76.26,170.34,170.34,170.34,170.34-76.26,170.34-170.34S284.27,19.62,190.2,19.62ZM196.47,195.92c-2.18,2.17-4.15,4.47-5.97,6.85-1.75-2.26-3.64-4.44-5.71-6.52-2.29-2.29-4.7-4.36-7.21-6.26,2.41-1.84,4.74-3.84,6.94-6.04,2.11-2.11,4.03-4.33,5.8-6.63,1.88,2.5,3.95,4.9,6.22,7.18,2.06,2.06,4.23,3.94,6.48,5.68-2.27,1.75-4.46,3.65-6.54,5.73Z"/>
  </g>
  <g id="pfeile">
    <polygon class="cls-23" points="186.95 95.22 177.54 48.05 171.01 48.1 180.53 38.37 190.05 28.64 199.72 38.22 209.39 47.8 203.09 47.85 194.41 95.16 186.95 95.22"/>
    <polygon class="cls-21" points="193.45 284.29 202.86 331.45 209.39 331.4 199.87 341.13 190.35 350.86 180.68 341.28 171.01 331.7 177.31 331.65 185.98 284.34 193.45 284.29"/>
    <polygon class="cls-5" points="285.9 186.68 333.07 177.27 333.02 170.74 342.75 180.26 352.48 189.78 342.9 199.45 333.32 209.13 333.27 202.82 285.96 194.15 285.9 186.68"/>
    <polygon class="cls-3" points="95.81 193.18 48.64 202.59 48.69 209.13 38.96 199.6 29.23 190.08 38.81 180.41 48.39 170.74 48.44 177.04 95.75 185.72 95.81 193.18"/>
  </g>
  <g id="zeit_verwendung">
    <path class="cls-16" d="M190.49,202.77c-1.75-2.26-3.64-4.44-5.71-6.52-2.29-2.29-4.7-4.36-7.21-6.26-24.15-18.2-57.68-18.14-81.76.2-2.41,1.84-4.74,3.84-6.94,6.04-26.49,26.48-26.5,69.42-.02,95.91,26.48,26.49,69.42,26.5,95.91.02,2.18-2.17,4.15-4.47,5.97-6.85,18.59-24.32,18.51-58.31-.24-82.55Z"/>
    <text class="cls-17" transform="translate(121.43 237.07)"><tspan class="cls-31" x="0" y="0">Z</tspan><tspan class="cls-11" x="8.66" y="0">ei</tspan><tspan class="cls-33" x="20.42" y="0">t</tspan><tspan class="cls-15" x="25.63" y="0">-</tspan><tspan class="cls-24" x="-27.41" y="19.2">v</tspan><tspan class="cls-15" x="-19.87" y="19.2">e</tspan><tspan class="cls-10" x="-11.86" y="19.2">r</tspan><tspan class="cls-24" x="-6.22" y="19.2">w</tspan><tspan x="5.39" y="19.2">endung</tspan></text>
  </g>
  <g id="notwendige_ausgaben">
    <path class="cls-28" d="M292.46,88.61c-26.48-26.49-69.42-26.5-95.91-.02-2.11,2.11-4.03,4.33-5.8,6.63-18.59,24.11-18.74,57.85-.44,82.11,1.88,2.5,3.95,4.9,6.22,7.18,2.06,2.06,4.23,3.94,6.48,5.68,24.33,18.87,58.54,18.89,82.9.06,2.27-1.75,4.46-3.65,6.54-5.73,26.49-26.48,26.5-69.42.02-95.91Z"/>
    <text class="cls-17" transform="translate(208.03 130.04)"><tspan x="0" y="0">no</tspan><tspan class="cls-20" x="17.66" y="0">t</tspan><tspan class="cls-32" x="23.1" y="0">w</tspan><tspan x="34.72" y="0">endige</tspan><tspan class="cls-6" x="6.97" y="19.2">A</tspan><tspan x="16.57" y="19.2">usgaben</tspan></text>
  </g>
  <g id="soziale_infrastrukturen">
    <path class="cls-4" d="M292.38,195.94c-2.06-2.06-4.23-3.94-6.48-5.68-24.33-18.87-58.54-18.89-82.9-.06-2.27,1.75-4.46,3.65-6.54,5.73-2.18,2.17-4.15,4.47-5.97,6.85-18.59,24.32-18.51,58.31.24,82.55,1.75,2.26,3.64,4.44,5.71,6.52,26.48,26.49,69.42,26.5,95.91.02,26.49-26.48,26.5-69.42.02-95.91Z"/>
    <text class="cls-17" transform="translate(224.73 236.89)"><tspan class="cls-19" x="0" y="0">S</tspan><tspan class="cls-29" x="7.98" y="0">o</tspan><tspan class="cls-11" x="16.66" y="0">ziale </tspan><tspan class="cls-2" x="-22.14" y="19.2">I</tspan><tspan x="-18.16" y="19.2">nf</tspan><tspan class="cls-33" x="-4.61" y="19.2">r</tspan><tspan x=".54" y="19.2">astuktu</tspan><tspan class="cls-32" x="50.32" y="19.2">r</tspan><tspan class="cls-11" x="55.39" y="19.2">en</tspan></text>
  </g>
  <g id="einkommen">
    <path class="cls-26" d="M190.75,95.22c-1.88-2.5-3.95-4.9-6.22-7.18-26.48-26.49-69.42-26.5-95.91-.02-26.49,26.48-26.5,69.42-.02,95.91,2.29,2.29,4.7,4.36,7.21,6.25,24.15,18.2,57.68,18.14,81.76-.2,2.41-1.84,4.74-3.84,6.94-6.04,2.11-2.11,4.03-4.33,5.8-6.63,18.59-24.11,18.74-57.85.44-82.11Z"/>
    <text class="cls-17" transform="translate(94.23 137.78)"><tspan x="0" y="0">Einkommen</tspan></text>
  </g>
  <g id="schnittflaechen">
    <path class="cls-12" d="M203.01,190.19c24.33,18.87,58.54,18.89,82.9.06-24.33-18.87-58.54-18.89-82.9-.06Z"/>
    <path class="cls-3" d="M177.57,190c-24.15-18.2-57.68-18.14-81.76.2,24.15,18.2,57.68,18.14,81.76-.2Z"/>
    <path class="cls-21" d="M190.49,202.77c-18.59,24.32-18.51,58.31.24,82.55,18.59-24.32,18.51-58.31-.24-82.55Z"/>
    <path class="cls-35" d="M190.31,177.33c18.59-24.11,18.74-57.85.44-82.11-18.59,24.11-18.74,57.85-.44,82.11Z"/>
  </g>
  <g id="zeit_und_infrastruktur">
    <rect class="cls-21" x="113.01" y="353.73" width="154.96" height="27.56"/>
    <text class="cls-18" transform="translate(131.96 371.03) scale(.98 1)"><tspan class="cls-25" x="0" y="0">Z</tspan><tspan x="7.57" y="0">eit und </tspan><tspan class="cls-22" x="51.81" y="0">I</tspan><tspan x="55.3" y="0">nf</tspan><tspan class="cls-14" x="67.16" y="0">r</tspan><tspan x="71.67" y="0">astruktur</tspan></text>
  </g>
  <g id="geld_sparen_durch_SI">
    <rect class="cls-12" x="289.97" y="176.48" width="154.96" height="27.56" transform="translate(557.71 -177.2) rotate(90)"/>
    <text class="cls-18" transform="translate(364.43 126.72) rotate(90)"><tspan class="cls-7" x="0" y="0">G</tspan><tspan x="9.11" y="0">eld spa</tspan><tspan class="cls-32" x="50.55" y="0">r</tspan><tspan x="54.99" y="0">en du</tspan><tspan class="cls-32" x="88.35" y="0">r</tspan><tspan x="92.79" y="0">ch SI</tspan></text>
  </g>
  <g id="zeit_ist_geld">
    <rect class="cls-27" x="-63.7" y="176.27" width="154.96" height="27.56" transform="translate(203.83 176.27) rotate(90)"/>
    <text class="cls-18" transform="translate(16.88 229.24) rotate(-90)"><tspan class="cls-1" x="0" y="0">Z</tspan><tspan x="7.57" y="0">eit ist </tspan><tspan class="cls-7" x="41.89" y="0">G</tspan><tspan x="51" y="0">eld?</tspan></text>
  </g>
  <g id="verfuegbares_einkommen">
    <rect class="cls-23" x="112.72" width="154.96" height="27.56"/>
    <text class="cls-18" transform="translate(118.68 18.03)"><tspan class="cls-34" x="0" y="0">V</tspan><tspan class="cls-9" x="7.35" y="0">e</tspan><tspan class="cls-13" x="14.36" y="0">r</tspan><tspan x="19.36" y="0">fügba</tspan><tspan class="cls-8" x="53.7" y="0">r</tspan><tspan x="58.14" y="0">es Einkommen</tspan></text>
  </g>
</svg>