<?xml version="1.0" encoding="utf-8"?>
<!-- Generator: Adobe Illustrator 29.7.1, SVG Export Plug-In . SVG Version: 9.03 Build 0)  -->
<svg version="1.1" xmlns="http://www.w3.org/2000/svg" xmlns:xlink="http://www.w3.org/1999/xlink" x="0px" y="0px"
	 viewBox="0 0 510 480.3" style="enable-background:new 0 0 510 480.3;" xml:space="preserve">
<style type="text/css">
	.st0{fill:#CCC9C7;}
	.st1{fill:#FFFFFF;}
	.st2{fill:#F0AE9F;}
	.st3{fill:#A5CDC8;}
	.st4{fill:#FCD799;}
	.st5{fill:#F7C9B1;}
	.st6{fill:#CDDAC8;}
	.st7{fill:#DFC8BD;}
	.st8{fill:#BEB3A7;}
	.st9{fill:#BE7263;}
	.st10{fill:#6B8782;}
	.st11{fill:#EAA53A;}
	.st12{fill:#FBD799;stroke:#FFFFFF;stroke-width:0.2928;stroke-miterlimit:10;}
	.st13{fill:#FBD799;}
</style>
<g id="grau">
	<g id="residual_00000007419085857993549460000002292288542702943918_">
		<g>
			<path class="st0" d="M255,287c-78.9,0-143-64.1-143-143S176.1,1,255,1s143,64.1,143,143S333.9,287,255,287z"/>
			<path class="st1" d="M255,2c78.4,0,142,63.6,142,142s-63.6,142-142,142c-78.4,0-142-63.6-142-142S176.6,2,255,2 M255,0
				c-38.5,0-74.6,15-101.8,42.2S111,105.5,111,144s15,74.6,42.2,101.8S216.5,288,255,288s74.6-15,101.8-42.2S399,182.5,399,144
				s-15-74.6-42.2-101.8C329.6,15,293.5,0,255,0L255,0z"/>
		</g>
	</g>
	<g id="soz-infra_00000026854903407549263520000016792819682709689780_">
		<g>
			<path class="st0" d="M366,479.3c-78.9,0-143-64.1-143-143s64.1-143,143-143s143,64.1,143,143S444.9,479.3,366,479.3z"/>
			<path class="st1" d="M366,194.3c78.4,0,142,63.6,142,142s-63.6,142-142,142c-78.4,0-142-63.6-142-142S287.6,194.3,366,194.3
				 M366,192.3c-38.5,0-74.6,15-101.8,42.2S222,297.8,222,336.3s15,74.6,42.2,101.8s63.4,42.2,101.8,42.2s74.6-15,101.8-42.2
				S510,374.7,510,336.3s-15-74.6-42.2-101.8S404.5,192.3,366,192.3L366,192.3z"/>
		</g>
	</g>
	<g id="zeit_00000000196763365244115750000010774363841488655026_">
		<g>
			<path class="st0" d="M144,479.3c-78.9,0-143-64.1-143-143s64.1-143,143-143s143,64.1,143,143S222.9,479.3,144,479.3z"/>
			<path class="st1" d="M144,194.3c78.4,0,142,63.6,142,142s-63.6,142-142,142c-78.4,0-142-63.6-142-142S65.6,194.3,144,194.3
				 M144,192.3c-38.5,0-74.6,15-101.8,42.2S0,297.8,0,336.3s15,74.6,42.2,101.8s63.4,42.2,101.8,42.2s74.6-15,101.8-42.2
				S288,374.7,288,336.3s-15-74.6-42.2-101.8S182.5,192.3,144,192.3L144,192.3z"/>
		</g>
	</g>
	<g id="overlay_00000018937546274109403160000016308306481953097884_">
		<g>
			<path class="st0" d="M233.6,285.4c-50.3-7.5-93.2-41.7-111.8-89.2l-0.5-1.2l1.2-0.2c7-1.1,14.2-1.6,21.4-1.6
				c43.7,0,84.5,19.6,111.8,53.8l0.5,0.6l-0.5,0.6c-8.8,11.1-15.9,23.3-21.1,36.5l-0.3,0.7L233.6,285.4z"/>
			<g>
				<path class="st1" d="M144,194.3c44.9,0,85,20.9,111,53.4c-8.8,11-16,23.4-21.2,36.7c-50.8-7.6-92.8-42.1-111-88.6
					C129.7,194.8,136.8,194.3,144,194.3 M144,192.3c-7.2,0-14.4,0.5-21.5,1.6l-2.5,0.4l0.9,2.3c18.8,47.8,61.9,82.2,112.6,89.8
					l1.6,0.2l0.6-1.5c5.1-13,12.2-25.2,20.9-36.2l1-1.2l-1-1.2C229,212,188,192.3,144,192.3L144,192.3z"/>
			</g>
		</g>
		<g>
			<path class="st0" d="M254.2,425.4C233.8,399.9,223,369,223,336.3c0-18,3.3-35.6,9.8-52.2l0.3-0.7l0.8,0.1c7,1,14,1.6,21.1,1.6
				c7,0,14.1-0.5,21.1-1.6l0.8-0.1l0.3,0.7c6.5,16.6,9.8,34.2,9.8,52.2c0,32.8-10.8,63.6-31.2,89.2l-0.8,1L254.2,425.4z"/>
			<g>
				<path class="st1" d="M276.2,284.4c6.3,16.1,9.8,33.5,9.8,51.8c0,33.5-11.6,64.3-31,88.6c-19.4-24.3-31-55.1-31-88.6
					c0-18.3,3.5-35.8,9.8-51.8c6.9,1,14,1.6,21.2,1.6C262.2,286,269.3,285.5,276.2,284.4 M277.5,282.2l-1.6,0.2
					c-6.9,1-13.9,1.6-20.9,1.6c-7,0-14-0.5-20.9-1.6l-1.6-0.2l-0.6,1.5c-6.6,16.7-9.9,34.4-9.9,52.6c0,16.6,2.8,32.9,8.3,48.4
					c5.3,15,13.1,28.9,23.1,41.4l1.6,2l1.6-2c10-12.5,17.7-26.4,23.1-41.4c5.5-15.5,8.3-31.8,8.3-48.4c0-18.1-3.3-35.8-9.9-52.6
					L277.5,282.2L277.5,282.2z"/>
			</g>
		</g>
		<g>
			<path class="st0" d="M275.3,284.8c-5.1-13.1-12.2-25.4-21.1-36.5l-0.5-0.6l0.5-0.6c27.3-34.2,68.1-53.8,111.8-53.8
				c7.1,0,14.3,0.5,21.4,1.6l1.2,0.2l-0.5,1.2c-18.6,47.5-61.5,81.7-111.8,89.2l-0.8,0.1L275.3,284.8z"/>
			<g>
				<path class="st1" d="M366,194.3c7.2,0,14.3,0.5,21.2,1.6c-18.2,46.4-60.2,81-111,88.6c-5.2-13.3-12.4-25.7-21.2-36.7
					C281,215.1,321.1,194.3,366,194.3 M366,192.3c-44,0-85,19.8-112.6,54.2l-1,1.2l1,1.2c8.8,11,15.8,23.2,20.9,36.2l0.6,1.5
					l1.6-0.2c50.7-7.6,93.8-42,112.6-89.8l0.9-2.3l-2.5-0.4C380.4,192.8,373.2,192.3,366,192.3L366,192.3z"/>
			</g>
		</g>
		<g>
			<path class="st0" d="M255,287c-7.1,0-14.3-0.5-21.4-1.6l-1.2-0.2l0.5-1.2c5.2-13.3,12.4-25.7,21.4-37l0.8-1l0.8,1
				c9,11.2,16.2,23.7,21.4,37l0.5,1.2l-1.2,0.2C269.3,286.5,262.1,287,255,287z"/>
			<g>
				<path class="st1" d="M255,247.7c8.8,11,16,23.4,21.2,36.7c-6.9,1-14,1.6-21.2,1.6c-7.2,0-14.3-0.5-21.2-1.6
					C239,271.1,246.2,258.7,255,247.7 M255,244.5l-1.6,2c-9,11.3-16.3,23.8-21.5,37.2L231,286l2.5,0.4c7.1,1.1,14.3,1.6,21.5,1.6
					c7.2,0,14.4-0.5,21.5-1.6l2.5-0.4l-0.9-2.3c-5.3-13.4-12.5-25.9-21.5-37.2L255,244.5L255,244.5z"/>
			</g>
		</g>
	</g>
</g>
<g id="vollfarbe">
	<g id="residual_00000160187630918778688220000005823390604240070069_">
		<g>
			<path class="st2" d="M255,287c-78.9,0-143-64.1-143-143S176.1,1,255,1s143,64.1,143,143S333.9,287,255,287z"/>
			<path class="st1" d="M255,2c78.4,0,142,63.6,142,142s-63.6,142-142,142c-78.4,0-142-63.6-142-142S176.6,2,255,2 M255,0
				c-38.5,0-74.6,15-101.8,42.2S111,105.5,111,144s15,74.6,42.2,101.8S216.5,288,255,288s74.6-15,101.8-42.2S399,182.5,399,144
				s-15-74.6-42.2-101.8C329.6,15,293.5,0,255,0L255,0z"/>
		</g>
	</g>
	<g id="soz-infra_00000041297402991617418650000012905355881220961210_">
		<g>
			<path class="st3" d="M366,479.3c-78.9,0-143-64.1-143-143s64.1-143,143-143s143,64.1,143,143S444.9,479.3,366,479.3z"/>
			<path class="st1" d="M366,194.3c78.4,0,142,63.6,142,142s-63.6,142-142,142c-78.4,0-142-63.6-142-142S287.6,194.3,366,194.3
				 M366,192.3c-38.5,0-74.6,15-101.8,42.2S222,297.8,222,336.3s15,74.6,42.2,101.8s63.4,42.2,101.8,42.2s74.6-15,101.8-42.2
				S510,374.7,510,336.3s-15-74.6-42.2-101.8S404.5,192.3,366,192.3L366,192.3z"/>
		</g>
	</g>
	<g id="zeit">
		<g>
			<path class="st4" d="M144,479.3c-78.9,0-143-64.1-143-143s64.1-143,143-143s143,64.1,143,143S222.9,479.3,144,479.3z"/>
			<path class="st1" d="M144,194.3c78.4,0,142,63.6,142,142s-63.6,142-142,142c-78.4,0-142-63.6-142-142S65.6,194.3,144,194.3
				 M144,192.3c-38.5,0-74.6,15-101.8,42.2S0,297.8,0,336.3s15,74.6,42.2,101.8s63.4,42.2,101.8,42.2s74.6-15,101.8-42.2
				S288,374.7,288,336.3s-15-74.6-42.2-101.8S182.5,192.3,144,192.3L144,192.3z"/>
		</g>
	</g>
	<g id="overlay">
		<g>
			<path class="st5" d="M233.6,285.4c-50.3-7.5-93.2-41.7-111.8-89.2l-0.5-1.2l1.2-0.2c7-1.1,14.2-1.6,21.4-1.6
				c43.7,0,84.5,19.6,111.8,53.8l0.5,0.6l-0.5,0.6c-8.8,11.1-15.9,23.3-21.1,36.5l-0.3,0.7L233.6,285.4z"/>
			<g>
				<path class="st1" d="M144,194.3c44.9,0,85,20.9,111,53.4c-8.8,11-16,23.4-21.2,36.7c-50.8-7.6-92.8-42.1-111-88.6
					C129.7,194.8,136.8,194.3,144,194.3 M144,192.3c-7.2,0-14.4,0.5-21.5,1.6l-2.5,0.4l0.9,2.3c18.8,47.8,61.9,82.2,112.6,89.8
					l1.6,0.2l0.6-1.5c5.1-13,12.2-25.2,20.9-36.2l1-1.2l-1-1.2C229,212,188,192.3,144,192.3L144,192.3z"/>
			</g>
		</g>
		<g>
			<path class="st6" d="M254.2,425.4C233.8,399.9,223,369,223,336.3c0-18,3.3-35.6,9.8-52.2l0.3-0.7l0.8,0.1c7,1,14,1.6,21.1,1.6
				c7,0,14.1-0.5,21.1-1.6l0.8-0.1l0.3,0.7c6.5,16.6,9.8,34.2,9.8,52.2c0,32.8-10.8,63.6-31.2,89.2l-0.8,1L254.2,425.4z"/>
			<g>
				<path class="st1" d="M276.2,284.4c6.3,16.1,9.8,33.5,9.8,51.8c0,33.5-11.6,64.3-31,88.6c-19.4-24.3-31-55.1-31-88.6
					c0-18.3,3.5-35.8,9.8-51.8c6.9,1,14,1.6,21.2,1.6C262.2,286,269.3,285.5,276.2,284.4 M277.5,282.2l-1.6,0.2
					c-6.9,1-13.9,1.6-20.9,1.6c-7,0-14-0.5-20.9-1.6l-1.6-0.2l-0.6,1.5c-6.6,16.7-9.9,34.4-9.9,52.6c0,16.6,2.8,32.9,8.3,48.4
					c5.3,15,13.1,28.9,23.1,41.4l1.6,2l1.6-2c10-12.5,17.7-26.4,23.1-41.4c5.5-15.5,8.3-31.8,8.3-48.4c0-18.1-3.3-35.8-9.9-52.6
					L277.5,282.2L277.5,282.2z"/>
			</g>
		</g>
		<g>
			<path class="st7" d="M275.3,284.8c-5.1-13.1-12.2-25.4-21.1-36.5l-0.5-0.6l0.5-0.6c27.3-34.2,68.1-53.8,111.8-53.8
				c7.1,0,14.3,0.5,21.4,1.6l1.2,0.2l-0.5,1.2c-18.6,47.5-61.5,81.7-111.8,89.2l-0.8,0.1L275.3,284.8z"/>
			<g>
				<path class="st1" d="M366,194.3c7.2,0,14.3,0.5,21.2,1.6c-18.2,46.4-60.2,81-111,88.6c-5.2-13.3-12.4-25.7-21.2-36.7
					C281,215.1,321.1,194.3,366,194.3 M366,192.3c-44,0-85,19.8-112.6,54.2l-1,1.2l1,1.2c8.8,11,15.8,23.2,20.9,36.2l0.6,1.5
					l1.6-0.2c50.7-7.6,93.8-42,112.6-89.8l0.9-2.3l-2.5-0.4C380.4,192.8,373.2,192.3,366,192.3L366,192.3z"/>
			</g>
		</g>
		<g>
			<path class="st8" d="M255,287c-7.1,0-14.3-0.5-21.4-1.6l-1.2-0.2l0.5-1.2c5.2-13.3,12.4-25.7,21.4-37l0.8-1l0.8,1
				c9,11.2,16.2,23.7,21.4,37l0.5,1.2l-1.2,0.2C269.3,286.5,262.1,287,255,287z"/>
			<g>
				<path class="st1" d="M255,247.7c8.8,11,16,23.4,21.2,36.7c-6.9,1-14,1.6-21.2,1.6c-7.2,0-14.3-0.5-21.2-1.6
					C239,271.1,246.2,258.7,255,247.7 M255,244.5l-1.6,2c-9,11.3-16.3,23.8-21.5,37.2L231,286l2.5,0.4c7.1,1.1,14.3,1.6,21.5,1.6
					c7.2,0,14.4-0.5,21.5-1.6l2.5-0.4l-0.9-2.3c-5.3-13.4-12.5-25.9-21.5-37.2L255,244.5L255,244.5z"/>
			</g>
		</g>
	</g>
</g>
<g id="vollfarbe-icons">
	<g id="residual">
		<g>
			<path class="st2" d="M255,287c-78.9,0-143-64.1-143-143S176.1,1,255,1s143,64.1,143,143S333.9,287,255,287z"/>
			<path class="st1" d="M255,2c78.4,0,142,63.6,142,142s-63.6,142-142,142c-78.4,0-142-63.6-142-142S176.6,2,255,2 M255,0
				c-38.5,0-74.6,15-101.8,42.2S111,105.5,111,144s15,74.6,42.2,101.8S216.5,288,255,288s74.6-15,101.8-42.2S399,182.5,399,144
				s-15-74.6-42.2-101.8C329.6,15,293.5,0,255,0L255,0z"/>
		</g>
		<g>
			<path class="st1" d="M161.4,123.9h-18.1c-6.6,0-12-5.4-12-12V96.1c0-6.6,5.4-12,12-12h18.1c6.6,0,12,5.4,12,12v15.8
				C173.4,118.5,168,123.9,161.4,123.9z"/>
			<path class="st2" d="M165.4,103.2l-13.7,4.7l-16.3-5.6c-1.4-1-0.4-1.5,0.7-1.9c5.1-2,10.7-3.6,15.8-5.4c5.1,2,10.4,3.4,15.5,5.4
				c2.5,1,1.1,1.8-0.7,2.4c0.2,0.8-0.3,3.5,0.1,4.1c0.2,0.3,0.9,0.4,1,0.8c0.2,0.6,0.3,2.8-0.5,2.9c-0.4,0.1-2.7,0-3-0.1
				c-0.1,0-0.3-0.3-0.3-0.3v-2.4c0-0.4,1.2-0.9,1.2-1.1V103.2z"/>
			<path class="st2" d="M162.2,105.7v6.4c-1.5,1.6-4.1,2.6-6.2,3c-4.9,1-10.8,0.3-14.7-2.9v-6.6l10.4,3.5l0.8-0.1L162.2,105.7z"/>
		</g>
		<g>
			<path class="st1" d="M365.6,123.9h-18.1c-6.6,0-12-5.4-12-12V96.1c0-6.6,5.4-12,12-12h18.1c6.6,0,12,5.4,12,12v15.8
				C377.6,118.5,372.2,123.9,365.6,123.9z"/>
			<path class="st2" d="M339,99.6c0.2-1.1,1.4-2.4,2.5-2.5l29.5,0.1c1.1,0.4,2,1.4,2.2,2.6c-0.2,3.5,0.4,7.6,0,11
				c0,0.4,0,0.7-0.5,0.8c-1,0.2-2.6-0.1-3.7,0c-0.3-5-7.3-5-7.7,0l-11.2,0c-0.4-5.1-7.5-5.2-7.8,0l-3.3-0.1V99.6z M349.6,105.2v-5.4
				l-0.2-0.2h-7.5v5.7H349.6z M360.2,99.5h-7.7v5.7h7.7V99.5z M370.4,99.5h-7.5l-0.2,0.2v5.4h7.7V99.5z"/>
			<path class="st2" d="M344.5,113.2c-2.2-2.3,1.2-5.6,3.4-3.5C350.3,112.1,346.6,115.5,344.5,113.2z"/>
			<path class="st2" d="M367,113.2c-2.2,2.2-5.7-1.1-3.5-3.4C365.6,107.5,369.2,111,367,113.2z"/>
		</g>
		<g>
			<path class="st1" d="M263.9,54.7h-18.1c-6.6,0-12-5.4-12-12V26.9c0-6.6,5.4-12,12-12h18.1c6.6,0,12,5.4,12,12v15.8
				C275.9,49.3,270.5,54.7,263.9,54.7z"/>
			<path class="st2" d="M249,21.9l0.2-0.2c0.3-0.1,0.9-0.1,1,0.2l0.1,5.8c0.1,0.5,1.8,0.7,1.9-0.2c0.3-1.6-0.2-3.8,0-5.5
				c0.1-0.5,1.2-0.5,1.4-0.2c0.1,0.2,0.2,0.7,0.2,0.9c0.3,1.6,0.7,5.3,0.5,6.8c-0.2,1-1,2.1-1.8,2.7c-1.5,1.2-2.2,0.6-2.1,2.9
				c0.1,3.8,0.7,7.7,0.8,11.4c0.1,2-0.2,2.7-2.4,2.4c-1.5-0.2-0.9-2.6-0.8-3.6c0.2-3.8,0.4-7.6,0.6-11.4c-0.2-0.7-1.3-1.1-1.9-1.5
				c-0.8-0.6-1.8-1.8-2-2.9c-0.2-1.4,0.3-5.6,0.6-7.1c0.2-1.1,1.5-1.1,1.6-0.2c0.3,1.7-0.2,3.8,0.1,5.6c0.2,0.4,1.3,0.3,1.6,0.2
				c0.1,0,0.3-0.4,0.3-0.4V21.9z"/>
			<path class="st2" d="M259.4,21.6c2.8-0.5,4.3,1.6,4.9,4c0.6,2.3,0.7,4.4-1.3,5.9c-0.7,0.5-1.8,0.8-1.9,1.8c0,0.3,0.1,0.6,0.1,0.9
				c0,4.6,0.4,9.2,0.5,13.8c0.1,1.5-2.7,1.6-2.9,0.2l0.6-15.1c-0.6-1.5-2.2-1.4-3.1-3C255,27.9,256.4,22.1,259.4,21.6z"/>
		</g>
		<g>
			<path class="st1" d="M206.1,76.1h-18.1c-6.6,0-12-5.4-12-12V48.3c0-6.6,5.4-12,12-12h18.1c6.6,0,12,5.4,12,12v15.8
				C218.1,70.7,212.7,76.1,206.1,76.1z"/>
			<path class="st2" d="M185.1,47.6l24.4,0.1l0.4,0.4L210,67l-0.6,1L185.7,68c-0.5,0.1-0.9-0.2-1.2-0.6l-0.1-18.8L185.1,47.6z
				 M195.8,50.7c-7.5,1.1-7.5,13,0,14.1C207.1,66.5,207.1,49.1,195.8,50.7z"/>
			<path class="st2" d="M203.9,46.9l-2.2,0c0.1-0.6-0.4-1.3-1-1.5c-0.7-0.2-5.9-0.2-6.8-0.1c-1.2,0.2-1.2,1.4-1.6,1.5l-2-0.1
				c0.1-1.6,1.2-3.1,2.8-3.5c1.4-0.3,5.8-0.3,7.4-0.1C202.5,43.4,204.1,44.9,203.9,46.9z"/>
			<path class="st2" d="M198.4,56.6h2.9c0.4,0.3,0.4,1.9,0.2,2.2l-2.9,0.3l-0.2,2.7l-0.3,0.3l-2-0.2l-0.3-2.9l-2.9-0.3
				c-0.2-0.3-0.2-1.9,0.2-2.2h2.9v-2.9l0.3-0.3c0.2-0.1,0.4,0,0.5,0c0.5,0,1.2-0.1,1.5,0.3V56.6z"/>
		</g>
		<g>
			<path class="st1" d="M321.4,74.3h-18.1c-6.6,0-12-5.4-12-12V46.5c0-6.6,5.4-12,12-12h18.1c6.6,0,12,5.4,12,12v15.8
				C333.4,68.9,328,74.3,321.4,74.3z"/>
			<path class="st2" d="M318.2,44.5v-4.3c0-1.1,4-1.3,4.5-0.1c0.7,1.6-0.3,7.1,0.2,9.2c0.9,1.3,3.2,2.6,3.2,4.3
				c0.1,1.7-1.7,3-3.3,2.2c-0.3,0.4,0.2,8.8,0,10.4c-0.2,1.4-1.4,2.7-2.9,2.7c-5.3-0.4-11.3,0.5-16.6,0c-1.5-0.1-2.7-1.2-2.9-2.7
				c-0.2-1.5,0.3-10,0-10.4c-2.8,0.8-4.2-1.7-2.5-4c1.7-2.2,9.1-9.6,11.3-11.3C313.2,37.4,315.3,42.5,318.2,44.5z"/>
			<path class="st1" d="M310.8,42.2l-12.5,12.1c-0.7,1.4,0.1,2.3,1.6,1.6l11-10.8c0.6-0.3,1.2,0,1.7,0.5l10.3,10.3
				c1.5,0.9,2.4-0.4,1.4-1.7l-12.4-12H310.8z"/>
			<path class="st1" d="M310.8,51.7c-3.2,0.6-2.5,6,1.3,5.1C315.1,56.1,314.2,51,310.8,51.7z"/>
			<polygon class="st1" points="314,69.3 314,63.8 313.6,63.4 309.1,63.4 308.8,63.8 308.8,69.3 			"/>
		</g>
		<g>
			<g>
				<path class="st9" d="M221,184h88.5c0.1-0.2,0.3-0.3,0.4-0.5l0.2-50.8c-1.2-4.1-13.1-1.8-16.7-2.4c-2.2-6.7-3.1-16.8-5.8-23
					c-0.8-1.9-2.1-3-4.2-3.2l-79.6,21.3c-1.8,0.6-3.8,1.9-3.8,4l12.5,47.3c2.2,4.2,7,1.1,7.6,1.8C219.9,181,219.9,182.8,221,184z
					 M224.6,135.5h15.7h65.4v45.4h-81.1V135.5z"/>
				<polygon class="st9" points="240.3,140.8 238.5,140.8 230.6,148.4 230.9,166.7 239.9,174.6 288.6,175.6 299.6,165.2 299.6,150 
					290.8,140.8 				"/>
			</g>
		</g>
	</g>
	<g id="soz-infra">
		<g>
			<path class="st3" d="M366,479.3c-78.9,0-143-64.1-143-143s64.1-143,143-143s143,64.1,143,143S444.9,479.3,366,479.3z"/>
			<path class="st1" d="M366,194.3c78.4,0,142,63.6,142,142s-63.6,142-142,142c-78.4,0-142-63.6-142-142S287.6,194.3,366,194.3
				 M366,192.3c-38.5,0-74.6,15-101.8,42.2S222,297.8,222,336.3s15,74.6,42.2,101.8s63.4,42.2,101.8,42.2s74.6-15,101.8-42.2
				S510,374.7,510,336.3s-15-74.6-42.2-101.8S404.5,192.3,366,192.3L366,192.3z"/>
		</g>
		<path class="st10" d="M335.4,338.3c5.7,13.3,18,31.3,26,39.4c1.5,1.5,2.1,2.3,3.9,0.6c2.5-2.4,6.1-7.4,8.3-10.3
			c8.1-10.5,21.9-30.7,21.9-43.7c0.1-11.2-7.1-21.4-17.2-26.6c-4.5-2.3-9.5-3.6-14.8-3.5l-0.3,0l-1.5,0.1c0,0-0.1,0-0.1,0
			c-8.8,0.6-16.3,4.3-21.5,9.7l0,0l0,0c-3.5,3.6-6,8-7.2,12.8l0,0l0,0c-1.1,4.3-1.2,9-0.2,13.8C333.3,333,334.2,335.5,335.4,338.3
			L335.4,338.3L335.4,338.3z M363.2,307.7c0.1,0,0.5,0,0.7,0c7.7,0,13.9,5.8,13.9,13c0,7.2-6.2,13-13.9,13c-7.7,0-13.9-5.8-13.9-13
			C349.9,313.9,356,308.3,363.2,307.7z"/>
		<g>
			<path class="st1" d="M478.2,375.4h-18.1c-6.6,0-12-5.4-12-12v-15.8c0-6.6,5.4-12,12-12h18.1c6.6,0,12,5.4,12,12v15.8
				C490.2,370,484.8,375.4,478.2,375.4z"/>
			<path class="st3" d="M471.5,345.1c-0.4,0.3-2,2.1-2.3,2.1c-2.3-2.6-4.9-4.4-8.6-4c-5.5,0.6-8.9,6.1-7.4,11.3
				c0.6,2,1.9,3.4,3.3,4.9c3.9,4.2,8.3,8.1,12.3,12.2c0.5,0.2,1-0.1,1.4-0.5c3.9-4.4,8.9-8.3,12.7-12.7
				C490.8,349.5,479.7,338.6,471.5,345.1z"/>
			<path class="st1" d="M471.3,354.7h5.3c0.8,0.5,0.7,3.5,0.4,4l-5.4,0.5l-0.4,5.1l-0.5,0.5l-3.6-0.3l-0.5-5.4l-5.4-0.5
				c-0.4-0.5-0.4-3.6,0.4-4h5.3v-5.3l0.6-0.5c0.3-0.1,0.7,0,1-0.1c0.9-0.1,2.2-0.2,2.8,0.6V354.7z"/>
		</g>
		<g>
			<path class="st1" d="M447.6,428.6h-18.1c-6.6,0-12-5.4-12-12v-15.8c0-6.6,5.4-12,12-12h18.1c6.6,0,12,5.4,12,12v15.8
				C459.6,423.2,454.2,428.6,447.6,428.6z"/>
			<path class="st3" d="M451.6,407.8l-13.7,4.7l-16.3-5.6c-1.4-1-0.4-1.5,0.7-1.9c5.1-2,10.7-3.6,15.8-5.4c5.1,2,10.4,3.4,15.5,5.4
				c2.5,1,1.1,1.8-0.7,2.4c0.2,0.8-0.3,3.5,0.1,4.1c0.2,0.3,0.9,0.4,1,0.8c0.2,0.6,0.3,2.8-0.5,2.9c-0.4,0.1-2.7,0-3-0.1
				c-0.1,0-0.3-0.3-0.3-0.3v-2.4c0-0.4,1.2-0.9,1.2-1.1V407.8z"/>
			<path class="st3" d="M448.4,410.4v6.4c-1.5,1.6-4.1,2.6-6.2,3c-4.9,1-10.8,0.3-14.7-2.9v-6.6l10.4,3.5l0.8-0.1L448.4,410.4z"/>
		</g>
		<g>
			<path class="st1" d="M434.5,264.1h-18.1c-6.6,0-12-5.4-12-12v-15.8c0-6.6,5.4-12,12-12h18.1c6.6,0,12,5.4,12,12v15.8
				C446.5,258.7,441.1,264.1,434.5,264.1z"/>
			<path class="st3" d="M413.7,235.6l24.4,0.1l0.4,0.4l0.1,18.8l-0.6,1l-23.8,0.1c-0.5,0.1-0.9-0.2-1.2-0.6l-0.1-18.8L413.7,235.6z
				 M424.3,238.8c-7.5,1.1-7.5,13,0,14.1C435.6,254.5,435.6,237.1,424.3,238.8z"/>
			<path class="st3" d="M432.4,235l-2.2,0c0.1-0.6-0.4-1.3-1-1.5c-0.7-0.2-5.9-0.2-6.8-0.1c-1.2,0.2-1.2,1.4-1.6,1.5l-2-0.1
				c0.1-1.6,1.2-3.1,2.8-3.5c1.4-0.3,5.8-0.3,7.4-0.1C431,231.4,432.6,232.9,432.4,235z"/>
			<path class="st3" d="M426.9,244.6h2.9c0.4,0.3,0.4,1.9,0.2,2.2l-2.9,0.3l-0.2,2.7l-0.3,0.3l-2-0.2l-0.3-2.9l-2.9-0.3
				c-0.2-0.3-0.2-1.9,0.2-2.2h2.9v-2.9l0.3-0.3c0.2-0.1,0.4,0,0.5,0c0.5,0,1.2-0.1,1.5,0.3V244.6z"/>
		</g>
		<g>
			<path class="st1" d="M333.7,455.2h-18.1c-6.6,0-12-5.4-12-12v-15.8c0-6.6,5.4-12,12-12h18.1c6.6,0,12,5.4,12,12v15.8
				C345.7,449.8,340.3,455.2,333.7,455.2z"/>
			<path class="st3" d="M317.5,450.4c-0.2-1-0.3-1.9-0.8-2.8c-0.8-1.5-2.5-2.5-3.5-3.8c-0.8-1.1-4.4-10.5-4.6-12
				c-0.1-0.8,0-1.5,0.9-1.5c0.8,0,1.7,1.2,2.1,1.9c0.3,0.5,2.2,4.3,2.3,4.7c0.1,0.3-0.4,0.7-0.4,1.1c-0.2,1,0.4,1.8,0.9,2.6
				c0.4,0.6,2.6,3.1,3.2,2.9c1.2-0.3-1.4-2.2-1.7-2.5c-0.6-0.6-1.5-1.7-1.4-2.6c0.1-1.2,1.4-1.4,2.3-0.8c0.8,0.6,2,1.9,2.8,2.6
				c1.5,1.3,2.9,2,3.7,3.9c0.8,1.9,0.8,4.3,0.5,6.3H317.5z"/>
			<path class="st3" d="M331.3,450.4h-6.2l-0.3-0.3v-3.2c0-0.4,0.4-1.9,0.5-2.4c1-3.1,4.9-4.7,6.9-7.2c2.5-0.7,2.5,1.1,1.2,2.8
				c-0.5,0.6-2.2,2-2.4,2.5c-0.2,0.4-0.1,0.9,0.3,0.9c0.2,0,1.8-1.4,2-1.7c0.8-0.9,2-2.4,2-3.6c0-0.5-0.5-1-0.4-1.3
				c0.1-0.4,2.1-4.5,2.4-5c0.5-0.7,1.4-1.9,2.4-1.5c0.9,0.4,0.5,1.3,0.3,2.1c-0.5,2.2-3.4,10-4.7,11.6
				C333.8,446.1,331.3,447.2,331.3,450.4z"/>
			<path class="st3" d="M322.9,430.8c2.4-0.3,5.9,0,6.3,3.1c0.1,0.5,0.1,3.8,0,4.1c-0.1,0.2-0.3,0.3-0.5,0.3l-8.4-0.1
				c-0.2-0.1-0.3-0.3-0.3-0.5c-0.1-0.9-0.1-3.7,0.2-4.5C320.5,432,321.7,431,322.9,430.8z"/>
			<path class="st3" d="M330.3,436.1v-2.2c0-1.1-1.1-2.6-1.9-3.3l-1.3-0.8c1.1-1.4,3.3-1.4,4.9-1.3c1.8,0.2,3.3,1.5,3.5,3.4
				c0,0.5,0.1,3.6-0.1,3.9c0,0.1-0.2,0.2-0.2,0.2H330.3z"/>
			<path class="st3" d="M313.9,436.1c0,0-0.2-0.2-0.2-0.2c-0.1-0.2-0.1-3.4-0.1-3.9c0.2-1.9,1.7-3.3,3.5-3.4
				c1.6-0.1,3.8-0.1,4.9,1.3c0,0.2,0,0.1-0.1,0.2c-1.3,0.6-3,2.2-3,3.7v2.3H313.9z"/>
			<path class="st3" d="M324.1,424.4c3.7-0.5,4.1,4.9,0.8,5.3C321.3,430.1,320.9,424.9,324.1,424.4z"/>
			<path class="st3" d="M318,422.2c3.4-0.3,3.8,4.9,0.7,5.3C314.9,428,314.7,422.5,318,422.2z"/>
			<path class="st3" d="M330.6,422.2c3.4-0.3,3.8,4.9,0.7,5.3C327.5,428,327.2,422.5,330.6,422.2z"/>
		</g>
		<g>
			<path class="st1" d="M473.4,317.7h-18.1c-6.6,0-12-5.4-12-12v-15.8c0-6.6,5.4-12,12-12h18.1c6.6,0,12,5.4,12,12v15.8
				C485.4,312.3,480,317.7,473.4,317.7z"/>
			<path class="st3" d="M471.7,286.7h5.7c0,0,0.3,0.3,0.3,0.3v23.5l1.8,0.1v1.9l-29.7,0l0-1.8l1.5-0.1l0.2-0.3l0.1-23.4
				c0-0.1,0.2-0.3,0.3-0.3h5.7v-4.3c0,0,0.2-0.2,0.3-0.3h13.6c0.1,0,0.3,0.2,0.3,0.3V286.7z M463.9,284.5c-1.9,0.3-3.3,2.3-3.1,4.2
				c0.4,3.1,4.2,4.4,6.4,2.3C470,288.5,467.7,283.9,463.9,284.5z M454.3,289.5v2.7l0.2,0.2h2.7l0.2-0.2v-2.5c0,0-0.3-0.3-0.3-0.3
				h-2.5C454.6,289.4,454.4,289.6,454.3,289.5z M471.9,289.7v2.5l0.2,0.2h2.7l0.2-0.2v-2.5c0-0.5-2-0.4-2.4-0.3
				C472.4,289.4,472,289.5,471.9,289.7z M456.8,294.6c-0.8,0-1.5,0-2.3,0l-0.2,0.2v2.5l0.2,0.2h2.7l0.2-0.2v-2.5
				C457.4,294.5,456.9,294.6,456.8,294.6z M460.1,294.8v2.5l0.2,0.2h2.7l0.2-0.2v-2.5l-0.2-0.2h-2.3
				C460.6,294.6,460.2,294.5,460.1,294.8z M474.4,294.6c-0.8,0-1.5,0-2.3,0l-0.2,0.2v2.5l0.2,0.2h2.7l0.2-0.2v-2.5
				C475,294.5,474.5,294.6,474.4,294.6z M466.2,294.6l-0.2,0.2v2.5l0.2,0.2h2.7l0.2-0.2v-2.5l-0.2-0.2H466.2z M454.3,299.8v2.5
				l0.2,0.2h2.7l0.2-0.2v-2.5C457.1,299.3,454.4,299.4,454.3,299.8z M460.1,299.8v2.5l0.2,0.2h2.7l0.2-0.2v-2.5
				C462.8,299.4,460.3,299.3,460.1,299.8z M466,299.8v2.5l0.2,0.2h2.7l0.2-0.2v-2.5C468.8,299.3,466.2,299.4,466,299.8z
				 M471.9,299.8v2.5l0.2,0.2h2.7l0.2-0.2v-2.5C474.6,299.3,472,299.4,471.9,299.8z M464.2,304.7h-3.3l-0.2,0.2v5.7h3.5V304.7z
				 M468.6,310.5v-5.7l-0.2-0.2h-3.3v5.9H468.6z"/>
			<path class="st1" d="M463.9,284.5c3.8-0.6,6.1,3.9,3.4,6.5c-2.2,2.1-6,0.8-6.4-2.3C460.6,286.9,462,284.8,463.9,284.5z
				 M465.5,287.5l-0.1-1.4H464l-0.1,1.4l-1.4,0v1.5l1.4,0l0.1,1.4h1.4l0.1-1.4l1.4,0v-1.5L465.5,287.5z"/>
			<polygon class="st1" points="464.2,304.7 464.2,310.5 460.7,310.5 460.7,304.9 460.9,304.7 			"/>
			<polygon class="st1" points="468.6,310.5 465.1,310.5 465.1,304.7 468.4,304.7 468.6,304.9 			"/>
			<path class="st1" d="M454.3,289.5c0.1,0,0.3-0.1,0.3-0.1h2.5c0,0,0.3,0.3,0.3,0.3v2.5l-0.2,0.2h-2.7l-0.2-0.2V289.5z"/>
			<path class="st1" d="M471.9,289.7c0.1-0.3,0.5-0.3,0.7-0.3c0.4,0,2.4-0.1,2.4,0.3v2.5l-0.2,0.2h-2.7l-0.2-0.2V289.7z"/>
			<path class="st1" d="M454.3,299.8c0.1-0.5,2.8-0.5,3.1,0v2.5l-0.2,0.2h-2.7l-0.2-0.2V299.8z"/>
			<path class="st1" d="M466,299.8c0.1-0.5,2.8-0.5,3.1,0v2.5l-0.2,0.2h-2.7l-0.2-0.2V299.8z"/>
			<path class="st1" d="M471.9,299.8c0.1-0.5,2.8-0.5,3.1,0v2.5l-0.2,0.2h-2.7l-0.2-0.2V299.8z"/>
			<path class="st1" d="M460.1,299.8c0.2-0.5,2.7-0.5,3.1,0v2.5l-0.2,0.2h-2.7l-0.2-0.2V299.8z"/>
			<path class="st1" d="M456.8,294.6c0.1,0,0.6-0.1,0.6,0.2v2.5l-0.2,0.2h-2.7l-0.2-0.2v-2.5l0.2-0.2
				C455.3,294.6,456,294.5,456.8,294.6z"/>
			<path class="st1" d="M460.1,294.8c0.1-0.3,0.5-0.2,0.6-0.2h2.3l0.2,0.2v2.5l-0.2,0.2h-2.7l-0.2-0.2V294.8z"/>
			<path class="st1" d="M474.4,294.6c0.1,0,0.6-0.1,0.6,0.2v2.5l-0.2,0.2h-2.7l-0.2-0.2v-2.5l0.2-0.2
				C472.9,294.6,473.6,294.5,474.4,294.6z"/>
			<polygon class="st1" points="466.2,294.6 468.9,294.6 469.2,294.8 469.2,297.2 468.9,297.4 466.2,297.4 466,297.2 466,294.8 			
				"/>
			<polygon class="st3" points="465.5,287.5 466.8,287.5 466.8,289 465.5,289 465.3,290.4 464,290.4 463.8,289 462.5,289 
				462.5,287.5 463.8,287.5 464,286 465.3,286 			"/>
		</g>
		<g>
			<path class="st1" d="M397,461.9h-18.1c-6.6,0-12-5.4-12-12v-15.8c0-6.6,5.4-12,12-12H397c6.6,0,12,5.4,12,12v15.8
				C409,456.5,403.6,461.9,397,461.9z"/>
			<path class="st3" d="M389.9,443l-7-2.7c-2-0.8-2.9-3-2.2-4.9l2.7-7c0.8-2,3-2.9,4.9-2.2l7,2.7c2,0.8,2.9,3,2.2,4.9l-2.7,7
				C394.1,442.8,391.8,443.8,389.9,443z"/>
			<path class="st3" d="M386.4,453.8l-6.3,2.4c-2.2,0.8-4.6-0.3-5.5-2.5l-2.4-6.3c-0.8-2.2,0.3-4.6,2.5-5.5l6.3-2.4
				c2.2-0.8,4.6,0.3,5.5,2.5l2.4,6.3C389.7,450.6,388.6,453,386.4,453.8z"/>
			<path class="st3" d="M398.3,457.2h-7c-2.2,0-4.1-1.8-4.1-4.1v-7c0-2.2,1.8-4.1,4.1-4.1h7c2.2,0,4.1,1.8,4.1,4.1v7
				C402.3,455.4,400.5,457.2,398.3,457.2z"/>
			<circle class="st1" cx="388.9" cy="435.1" r="5.4"/>
			<g>
				<path class="st3" d="M389.7,431.3l1.4,0.6l-0.3,7.1l-1.3-0.5l0.1-1.5l-2.6-1.1l-1,1.1l-1.1-0.5L389.7,431.3z M389.7,435.8
					l0.2-3.3l-2.2,2.5L389.7,435.8z"/>
			</g>
			<g>
				<circle class="st1" cx="380.8" cy="447.8" r="5.4"/>
				<g>
					<path class="st3" d="M377.7,445.9l2.3-0.8c1.1-0.4,2-0.3,2.4,0.7c0.2,0.6,0,1.1-0.4,1.5c0.8-0.1,1.3,0.3,1.6,1
						c0.4,1-0.2,1.8-1.4,2.2l-2.4,0.9L377.7,445.9z M380.8,447.4c0.5-0.2,0.7-0.6,0.6-1.1c-0.2-0.4-0.6-0.6-1.2-0.4l-1.2,0.4
						l0.5,1.5L380.8,447.4z M381.8,449.7c0.6-0.2,0.8-0.7,0.7-1.1c-0.2-0.5-0.7-0.7-1.3-0.5l-1.3,0.5l0.6,1.6L381.8,449.7z"/>
				</g>
			</g>
			<g>
				<circle class="st1" cx="395.3" cy="449.5" r="5.4"/>
				<g>
					<path class="st3" d="M392.3,449.7c0-1.8,1.2-3,2.9-3c1.3,0,2.3,0.7,2.7,1.8l-1,0.3c-0.3-0.7-0.9-1.2-1.7-1.2
						c-1,0-1.8,0.8-1.8,2c0,1.1,0.8,2.1,2,2.1c0.9,0,1.6-0.5,2-1.1l0.6,0.4c-0.5,1-1.5,1.7-2.8,1.7
						C393.5,452.6,392.3,451.4,392.3,449.7z"/>
				</g>
			</g>
		</g>
	</g>
	<g id="zeit_00000179623954559716147610000002787128601412224137_">
		<g>
			<path class="st4" d="M144,479.3c-78.9,0-143-64.1-143-143s64.1-143,143-143s143,64.1,143,143S222.9,479.3,144,479.3z"/>
			<path class="st1" d="M144,194.3c78.4,0,142,63.6,142,142s-63.6,142-142,142c-78.4,0-142-63.6-142-142S65.6,194.3,144,194.3
				 M144,192.3c-38.5,0-74.6,15-101.8,42.2S0,297.8,0,336.3s15,74.6,42.2,101.8s63.4,42.2,101.8,42.2s74.6-15,101.8-42.2
				S288,374.7,288,336.3s-15-74.6-42.2-101.8S182.5,192.3,144,192.3L144,192.3z"/>
		</g>
		<g>
			<g>
				<g>
					<path class="st11" d="M165.9,336.6c0.8-0.1,1.3-0.8,1.2-1.6l-0.2-1.1c-0.1-0.8-0.8-1.3-1.6-1.2l-15.5,2.1
						c-0.4-1.7-1.5-3.1-3-3.9v-18.6c0-0.8-0.7-1.4-1.4-1.4h-1.2c-0.8,0-1.4,0.7-1.4,1.4v18.2c-2.5,0.6-4.3,2.9-4.3,5.6
						c0,3.2,2.6,5.8,5.8,5.8c2.2,0,4-1.2,5-2.9L165.9,336.6z"/>
				</g>
				<g>
					
						<ellipse transform="matrix(0.7071 -0.7071 0.7071 0.7071 -222.0576 211.4521)" class="st11" cx="144.2" cy="373.8" rx="4.2" ry="4.2"/>
				</g>
				<g>
					
						<ellipse transform="matrix(0.7071 -0.7071 0.7071 0.7071 -184.0809 227.9949)" class="st11" cx="183.2" cy="336.2" rx="4.2" ry="4.2"/>
				</g>
				<g>
					<path class="st11" d="M178.2,360.8c2.3,0,4.2-1.9,4.2-4.2c0-2.3-1.9-4.2-4.2-4.2c-0.1,0-0.2,0-0.3,0c-1.7-0.3-3.3,0.9-3.6,2.6
						c-0.2,0.5-0.3,1-0.3,1.6C174,358.9,175.9,360.8,178.2,360.8z"/>
				</g>
				<g>
					<path class="st11" d="M163.3,374.9c2.3,0,4.2-1.9,4.2-4.2c0-2.2-1.7-4-3.8-4.2c-0.1,0-0.2,0-0.3,0c0,0-0.1,0-0.1,0
						c-0.1,0-0.2,0-0.2,0c-0.2,0-0.3,0-0.5,0.1c-0.1,0-0.1,0-0.2,0c-0.2,0-0.3,0.1-0.5,0.1c-0.3,0.1-0.5,0.2-0.7,0.4
						c-1.3,0.7-2.1,2.1-2.1,3.6C159.1,373,161,374.9,163.3,374.9z"/>
				</g>
				<g>
					<path class="st11" d="M178,320.1c0.1,0,0.1,0,0.2,0c2.3,0,4.2-1.9,4.2-4.2c0-2.3-1.9-4.2-4.2-4.2c-2.3,0-4.2,1.9-4.2,4.2
						c0,0.5,0.1,0.9,0.2,1.3C174.2,319.1,176.3,320.3,178,320.1z"/>
				</g>
				<g>
					
						<ellipse transform="matrix(0.7071 -0.7071 0.7071 0.7071 -168.6381 189.325)" class="st11" cx="144.2" cy="298.2" rx="4.2" ry="4.2"/>
				</g>
				<g>
					<path class="st11" d="M104.8,340.4c1.9,0,3.6-1.3,4.1-3.1c0,0,0,0,0-0.1c0-0.1,0.1-0.2,0.1-0.3c0-0.2,0.1-0.4,0.1-0.6
						c0,0,0-0.1,0-0.1c0,0,0,0,0,0c0,0,0-0.1,0-0.1c-0.1-2.3-1.9-4.1-4.2-4.1c-2.3,0-4.2,1.9-4.2,4.2
						C100.6,338.5,102.5,340.4,104.8,340.4z"/>
				</g>
				<g>
					
						<ellipse transform="matrix(0.7071 -0.7071 0.7071 0.7071 -191.4243 170.6017)" class="st11" cx="110.2" cy="316.4" rx="4.2" ry="4.2"/>
				</g>
				<g>
					<path class="st11" d="M163.3,297.5c-2.3,0-4.2,1.9-4.2,4.2c0,1.8,1.2,3.4,2.8,4c0,0,0.1,0,0.1,0c0.4,0.1,0.9,0.2,1.3,0.2
						c2.3,0,4.2-1.9,4.2-4.2C167.6,299.4,165.7,297.5,163.3,297.5z"/>
				</g>
				<g>
					<path class="st11" d="M110.5,352.4c-0.2,0-0.3,0-0.5,0c-2.3,0-4.2,1.9-4.2,4.2c0,2.3,1.9,4.2,4.2,4.2c2.3,0,4.2-1.9,4.2-4.2
						c0-0.2,0-0.4-0.1-0.6C114.6,353.7,112.5,352,110.5,352.4z"/>
				</g>
				<g>
					<path class="st11" d="M125.1,297.5c-2.3,0-4.2,1.9-4.2,4.2c0,2.3,1.9,4.2,4.2,4.2c0,0,0.1,0,0.1,0c0.8,0,1.5-0.2,1.9-0.5
						c1.3-0.7,2.2-2.1,2.2-3.7C129.3,299.4,127.4,297.5,125.1,297.5z"/>
				</g>
				<g>
					
						<ellipse transform="matrix(0.9732 -0.2298 0.2298 0.9732 -81.8096 38.6471)" class="st11" cx="125.1" cy="370.6" rx="4.2" ry="4.2"/>
				</g>
			</g>
		</g>
		<g>
			<path class="st1" d="M194.4,455.7h-18.1c-6.6,0-12-5.4-12-12V428c0-6.6,5.4-12,12-12h18.1c6.6,0,12,5.4,12,12v15.8
				C206.4,450.3,201,455.7,194.4,455.7z"/>
			<path class="st4" d="M179.5,422.9l0.2-0.2c0.3-0.1,0.9-0.1,1,0.2l0.1,5.8c0.1,0.5,1.8,0.7,1.9-0.2c0.3-1.6-0.2-3.8,0-5.5
				c0.1-0.5,1.2-0.5,1.4-0.2c0.1,0.2,0.2,0.7,0.2,0.9c0.3,1.6,0.7,5.3,0.5,6.8c-0.2,1-1,2.1-1.8,2.7c-1.5,1.2-2.2,0.6-2.1,2.9
				c0.1,3.8,0.7,7.7,0.8,11.4c0.1,2-0.2,2.7-2.4,2.4c-1.5-0.2-0.9-2.6-0.8-3.6c0.2-3.8,0.4-7.6,0.6-11.4c-0.2-0.7-1.3-1.1-1.9-1.5
				c-0.8-0.6-1.8-1.8-2-2.9c-0.2-1.4,0.3-5.6,0.6-7.1c0.2-1.1,1.5-1.1,1.6-0.2c0.3,1.7-0.2,3.8,0.1,5.6c0.2,0.4,1.3,0.3,1.6,0.2
				c0.1,0,0.3-0.4,0.3-0.4V422.9z"/>
			<path class="st4" d="M189.9,422.6c2.8-0.5,4.3,1.6,4.9,4c0.6,2.3,0.7,4.4-1.3,5.9c-0.7,0.5-1.8,0.8-1.9,1.8
				c0,0.3,0.1,0.6,0.1,0.9c0,4.6,0.4,9.2,0.5,13.8c0.1,1.5-2.7,1.6-2.9,0.2l0.6-15.1c-0.6-1.5-2.2-1.4-3.1-3
				C185.6,428.9,186.9,423.1,189.9,422.6z"/>
		</g>
		<g>
			<path class="st1" d="M44.3,376.8H26.2c-6.6,0-12-5.4-12-12V349c0-6.6,5.4-12,12-12h18.1c6.6,0,12,5.4,12,12v15.8
				C56.3,371.4,50.9,376.8,44.3,376.8z"/>
			<path class="st4" d="M28,371.9c-0.2-1-0.3-1.9-0.8-2.8c-0.8-1.5-2.5-2.5-3.5-3.8c-0.8-1.1-4.4-10.5-4.6-12
				c-0.1-0.8,0-1.5,0.9-1.5c0.8,0,1.7,1.2,2.1,1.9c0.3,0.5,2.2,4.3,2.3,4.7c0.1,0.3-0.4,0.7-0.4,1.1c-0.2,1,0.4,1.8,0.9,2.6
				c0.4,0.6,2.6,3.1,3.2,2.9c1.2-0.3-1.4-2.2-1.7-2.5c-0.6-0.6-1.5-1.7-1.4-2.6c0.1-1.2,1.4-1.4,2.3-0.8c0.8,0.6,2,1.9,2.8,2.6
				c1.5,1.3,2.9,2,3.7,3.9c0.8,1.9,0.8,4.3,0.5,6.3H28z"/>
			<path class="st4" d="M41.9,371.9h-6.2l-0.3-0.3v-3.2c0-0.4,0.4-1.9,0.5-2.4c1-3.1,4.9-4.7,6.9-7.2c2.5-0.7,2.5,1.1,1.2,2.8
				c-0.5,0.6-2.2,2-2.4,2.5c-0.2,0.4-0.1,0.9,0.3,0.9c0.2,0,1.8-1.4,2-1.7c0.8-0.9,2-2.4,2-3.6c0-0.5-0.5-1-0.4-1.3
				c0.1-0.4,2.1-4.5,2.4-5c0.5-0.7,1.4-1.9,2.4-1.5c0.9,0.4,0.5,1.3,0.3,2.1c-0.5,2.2-3.4,10-4.7,11.6
				C44.4,367.6,41.9,368.7,41.9,371.9z"/>
			<path class="st4" d="M37.2,354.5c-0.3,0.2-0.4,0.7-0.9,0.9c-0.2,0.1-0.3,0.2-0.6,0.3c-1.1,0.2-5.6,0.2-6.8,0
				c-1.9-0.3-1.2-3.1,0.9-2.4c-3-2.9-0.1-6.6,3.2-7.4c1.9-0.5,6.1-0.3,6.4,2.2c0.1,1,0.2,5.7,0,6.6C39.2,356.1,37.1,356,37.2,354.5z
				 M37,353.1c-0.1-0.9,0-1.8,0-2.6l-2.5,0.5l2.6,2.5C37.4,353.4,37,353.1,37,353.1z"/>
			<path class="st4" d="M39.8,341.5c3.4-0.5,4.1,4.4,1.1,5C37.4,347.3,36.7,342,39.8,341.5z"/>
			<path class="st4" d="M40.2,348.4c0.3-0.1,0.3,0.1,0.5,0.3c0.5,0.4,2.4,2.2,2.8,2.6c0.9,1.1,0.4,2.5-1.2,2.2
				c-0.3-0.1-2.2-1.8-2.2-1.9V348.4z"/>
			<path class="st4" d="M28.2,352.8c0,0-0.5,0.2-0.7,0.5c-0.2,0.3-0.3,0.8-0.4,1.2c-0.8-0.3-1.2-0.8-1-1.7
				C26.3,351.7,28.8,351.7,28.2,352.8z"/>
		</g>
		<g>
			<g>
				<path class="st1" d="M53.9,315.3H35.8c-6.6,0-12-5.4-12-12v-15.8c0-6.6,5.4-12,12-12h18.1c6.6,0,12,5.4,12,12v15.8
					C65.9,309.9,60.5,315.3,53.9,315.3z"/>
				<path class="st4" d="M31.3,303.5c-0.2-0.1-0.5-0.5-0.6-0.8c-0.1-1.5,2.6-0.8,3.5-1c0.3-0.3-1.8-5.8-1.9-6.7
					c-0.1-0.4-0.1-0.9,0.3-1.2c0.8-0.6,7.9,0.1,9.3-0.2l2.8,8l11.7,0.1c2.3,0.9,0.3,2.2-1.4,1.8c-0.2,0.2,0.3,4-0.2,4.9
					c-0.3,0.6-1.3,0.1-1.3-0.2v-4.7H31.3z"/>
				<path class="st4" d="M51.9,298l-1.1-3.3c-0.4-0.1-0.2,0.5-0.2,0.8c0,0.5,0,1.1,0,1.6h-4.2c-0.1,0-1.1,0.5-1.2,0.5
					c-0.4,0.3-0.3,0.7-0.7,0.8c-1-2.2-0.7-6.4-4.1-5.7c0-1.6,1.2-2.8,2.7-3c1.4-0.2,5.7-0.2,7.1,0c1,0.1,1.8,0.7,2.4,1.6
					c0.4,0.7,2.8,6.6,2.8,7.2c0,1.1-0.9,2-1.9,2.2c-1.2,0.3-5.3,0.3-6.7,0.1c-1.1-0.1-2.1-1.1-1.3-2.2c0.1-0.2,0.7-0.7,0.9-0.7H51.9
					z"/>
				<path class="st4" d="M50.6,304.5c-0.9,5.9-8,3.8-12.2,4l-0.2-0.3c-0.2-0.7,0-3.8,0.9-3.8H50.6z"/>
				<path class="st4" d="M45.5,281.5c5.9-1.2,6.4,6.9,1.4,7.3C42.3,289.2,41.6,282.3,45.5,281.5z"/>
			</g>
		</g>
		<g>
			<path class="st1" d="M80.5,430.3H62.4c-6.6,0-12-5.4-12-12v-15.8c0-6.6,5.4-12,12-12h18.1c6.6,0,12,5.4,12,12v15.8
				C92.5,424.9,87.1,430.3,80.5,430.3z"/>
			<path class="st4" d="M60.5,414.8H69v-6.9c0-0.2,0.6-0.8,1-0.7c5.8,0.3,14.9-1.9,16.5,6c0.3,1.4,0.4,5.6,0.2,7
				c0,0.3-0.1,0.5-0.5,0.6c-0.3,0.1-2.2,0.1-2.2-0.3v-3H60.5v3c0,0.5-2.3,0.4-2.7,0.2v-15.4c0-0.3,0.4-0.2,0.5-0.2h2.1l0.2,0.2
				V414.8z"/>
			<path class="st4" d="M64.6,407.5c3.4-0.2,4.5,4.8,1.3,6C61.4,415.2,59.8,407.7,64.6,407.5z"/>
			<path class="st4" d="M67.2,403.8c0.5,0.1,1.5-0.2,1.9,0.1c0.3,0.2,0.3,1.3-0.1,1.5c-0.2,0.1-3.4,0.1-3.8,0.1
				c-0.5-0.1-0.5-0.3-0.4-0.8l1.9-3.5l-1.7-0.1c-0.2-0.4-0.3-1.4,0.1-1.6c0.2-0.1,3-0.1,3.4-0.1c0.6,0.1,0.7,0.4,0.5,0.9
				C68.8,401.4,67.6,402.8,67.2,403.8z"/>
			<path class="st4" d="M73.6,397.1c0.3,0.1,0.2,0.4,0.1,0.6c-0.1,0.3-1.5,2.5-1.4,2.7l1.4,0.1c0.2,0.2,0.3,0.8,0.1,1
				c-0.1,0.2-3,0.2-3.3,0.1c-0.1-0.1-0.3-0.2-0.2-0.4l1.5-2.9l-1.2-0.1l-0.1-1.2H73.6z"/>
			<path class="st4" d="M77.6,395.2c0.2,0,0.2,0.3,0.2,0.4c-0.1,0.3-1.3,2.1-1.1,2.3l1.2,0l-0.1,0.9c-0.1,0.2-2.8,0.4-2.8-0.3
				l1.1-2.3c-1,0.4-1.3-1-0.8-1H77.6z"/>
		</g>
		<g>
			<path class="st1" d="M131.8,462.3h-18.1c-6.6,0-12-5.4-12-12v-15.8c0-6.6,5.4-12,12-12h18.1c6.6,0,12,5.4,12,12v15.8
				C143.8,456.9,138.4,462.3,131.8,462.3z"/>
			<path class="st4" d="M136.2,438.2c0.1-0.3,0.1-0.7-0.2-0.9l-21.7-0.2l-1.5-6.3c-1.1-0.2-5.2-1.5-6-1.3c-0.5,0.1-0.7,1.1-0.3,1.4
				c0.6,0.5,4.8,0.9,5,1.2l4.1,19.8c0.3,0.4,1,0.2,1.5,0.3c-0.6,1.2-0.7,2.4,0.1,3.6c1.8,2.6,6,1,5.5-2.3c-0.1-0.5-0.3-0.7-0.4-1.1
				l-2.8,0.1c1.5-0.2,2.4,2,0.9,2.8c-2.1,1.1-3.1-2.5-0.9-2.8l2.7-0.3h4.3l2.6,0.3c1.3-0.1,2.1,1.8,0.8,2.7c-2,1.4-3.4-2.3-1-2.7
				c0,0,0.1,0,0.1,0l-2.5-0.1c-0.1,0.4-0.3,0.7-0.4,1.2c-0.3,2.7,2.5,4.5,4.8,2.9c1.4-1,1.5-2.7,0.8-4.2c1.1,0.2,1.7-0.5,1.1-1.4
				l-15.7-0.1c-0.2,0-0.2-0.1-0.3-0.2c-0.1-0.2-0.2-0.7-0.2-1.1h0l-0.1-0.4l16.5-0.1L136.2,438.2z"/>
		</g>
		<g>
			<path class="st1" d="M97.1,270H79.1c-6.6,0-12-5.4-12-12v-15.8c0-6.6,5.4-12,12-12h18.1c6.6,0,12,5.4,12,12V258
				C109.1,264.6,103.7,270,97.1,270z"/>
			<path class="st12" d="M85.9,245.5c0.3,0,0.6,0.1,0.9,0.3l7,7.2c0.3,0.3,1,0,0.8-0.4c-0.1-0.1-0.5,0-0.6-0.2
				c-1.2-1.5-2.7-2.7-4-4.1c-0.1-0.1-0.6-0.7-0.6-0.8c-0.4-1,0.7-1.8,1.6-1.1c2.5,3.3,9.8,8.3,9.9,12.7c0,1.8-1.9,3.6-3.2,4.7
				c-1.1,1-1.8,1.5-3.4,1.4c-2.1-0.1-7.9-1.8-9.8-2.8c-1.1-0.6-0.6-1.9,0.5-1.9c1.2,0,2.7,0.5,3.9,0.5c1,0,1-0.7,0.5-1.3l-7.5-7.7
				c-0.8-1.1,0.5-2.4,1.6-1.6l5.8,6c0.8,0.6,1.5-0.2,0.3-0.5l-7.6-7.8c-0.7-1,0.6-2.2,1.6-1.6l8.3,8.5c0.3,0.5,1.4-0.1,0.6-0.4
				c-0.6-0.2-0.3-0.1-0.7-0.5c-2.2-2.2-4.4-4.4-6.6-6.7C84.4,246.7,85,245.6,85.9,245.5z"/>
			<path class="st13" d="M92.8,243.8c0.1,0.3,0.1,1.5,0.4,1.6c0.2,0,0.2,0,0.3-0.1c0.3-0.3,0.8-1.4,1.1-1.6c1.8-0.3,3.9,0,5.6,0.7
				c0.5,0.2,2.1,1,2,1.7c-2.1,1.7-4.6,2.9-6.7,4.6l-4.4-4.5c-1-0.9-2.3-0.4-2.6,0.8c-0.8-0.6-1.6-2.1-2.7-2
				c-0.7,0.1-1.6,0.9-1.6,1.6c-0.8-1-2.4-1.1-3.1,0.1c-0.7,1.4,0.4,2.1,1.2,3c-1.2,0.1-2,1.4-1.4,2.6l7.5,7.8l0.3,0.6l-4.3-0.5
				c-0.4-0.1-1,0.5-1.2,0.5c-0.2,0-0.7-0.1-0.9-0.1c-1.9-0.1-3.5,0.2-5.3,0.6c-0.6,0.1-3.9,1.1-4.1,0.9c-0.1-0.2-0.1-0.5-0.1-0.7
				c-0.1-2.5,0.4-7.1,2.2-8.9c0.5-0.5,1.1-0.7,1.6-1.1c2.5-1.9,1.9-6.3,4.7-8.7c2.2-1.8,2.9,0.2,4.6,1.1c1.7,0.8,4,0.3,5.8,0.2
				C92.2,243.8,92.5,243.8,92.8,243.8z"/>
			<path class="st13" d="M85.9,232.7c0.4,1.5,1.4,2.5,2.5,3.4c-1.2,0.9-2.1,2-2.6,3.4c-0.3,0-0.4-0.7-0.5-0.9
				c-0.4-0.8-0.9-1.4-1.5-2c-0.2-0.2-0.7-0.4-0.7-0.7c0.9-0.6,1.6-1.4,2.1-2.3C85.4,233.6,85.7,232.6,85.9,232.7z"/>
			<path class="st13" d="M94.7,238.7c0,1.2,0.7,2.2,1.5,3.1l-1.6,1l-1.1,1.3c-0.1,0-0.4-1.1-0.4-1.3c-0.3-0.7-0.7-1.2-1.2-1.8
				c0.8-0.4,1.4-0.7,2-1.4C94,239.5,94.5,238.5,94.7,238.7z"/>
			<path class="st13" d="M79.1,240.3l-0.9,1.4l-0.3,1c-0.1,0.1-0.6-0.5-0.8-0.7c-0.4-0.3-0.9-0.6-1.5-0.8c0.1-0.5,0.5-0.8,0.8-1.3
				c0.1-0.2,0.3-1.2,0.4-1.2C77.6,239.5,78.2,240.1,79.1,240.3z"/>
		</g>
	</g>
	<g id="overlay_00000049913590722567667180000004611742015062937780_">
		<g>
			<path class="st5" d="M233.6,285.4c-50.3-7.5-93.2-41.7-111.8-89.2l-0.5-1.2l1.2-0.2c7-1.1,14.2-1.6,21.4-1.6
				c43.7,0,84.5,19.6,111.8,53.8l0.5,0.6l-0.5,0.6c-8.8,11.1-15.9,23.3-21.1,36.5l-0.3,0.7L233.6,285.4z"/>
			<g>
				<path class="st1" d="M144,194.3c44.9,0,85,20.9,111,53.4c-8.8,11-16,23.4-21.2,36.7c-50.8-7.6-92.8-42.1-111-88.6
					C129.7,194.8,136.8,194.3,144,194.3 M144,192.3c-7.2,0-14.4,0.5-21.5,1.6l-2.5,0.4l0.9,2.3c18.8,47.8,61.9,82.2,112.6,89.8
					l1.6,0.2l0.6-1.5c5.1-13,12.2-25.2,20.9-36.2l1-1.2l-1-1.2C229,212,188,192.3,144,192.3L144,192.3z"/>
			</g>
		</g>
		<g>
			<path class="st6" d="M254.2,425.4C233.8,399.9,223,369,223,336.3c0-18,3.3-35.6,9.8-52.2l0.3-0.7l0.8,0.1c7,1,14,1.6,21.1,1.6
				c7,0,14.1-0.5,21.1-1.6l0.8-0.1l0.3,0.7c6.5,16.6,9.8,34.2,9.8,52.2c0,32.8-10.8,63.6-31.2,89.2l-0.8,1L254.2,425.4z"/>
			<g>
				<path class="st1" d="M276.2,284.4c6.3,16.1,9.8,33.5,9.8,51.8c0,33.5-11.6,64.3-31,88.6c-19.4-24.3-31-55.1-31-88.6
					c0-18.3,3.5-35.8,9.8-51.8c6.9,1,14,1.6,21.2,1.6C262.2,286,269.3,285.5,276.2,284.4 M277.5,282.2l-1.6,0.2
					c-6.9,1-13.9,1.6-20.9,1.6c-7,0-14-0.5-20.9-1.6l-1.6-0.2l-0.6,1.5c-6.6,16.7-9.9,34.4-9.9,52.6c0,16.6,2.8,32.9,8.3,48.4
					c5.3,15,13.1,28.9,23.1,41.4l1.6,2l1.6-2c10-12.5,17.7-26.4,23.1-41.4c5.5-15.5,8.3-31.8,8.3-48.4c0-18.1-3.3-35.8-9.9-52.6
					L277.5,282.2L277.5,282.2z"/>
			</g>
		</g>
		<g>
			<path class="st7" d="M275.3,284.8c-5.1-13.1-12.2-25.4-21.1-36.5l-0.5-0.6l0.5-0.6c27.3-34.2,68.1-53.8,111.8-53.8
				c7.1,0,14.3,0.5,21.4,1.6l1.2,0.2l-0.5,1.2c-18.6,47.5-61.5,81.7-111.8,89.2l-0.8,0.1L275.3,284.8z"/>
			<g>
				<path class="st1" d="M366,194.3c7.2,0,14.3,0.5,21.2,1.6c-18.2,46.4-60.2,81-111,88.6c-5.2-13.3-12.4-25.7-21.2-36.7
					C281,215.1,321.1,194.3,366,194.3 M366,192.3c-44,0-85,19.8-112.6,54.2l-1,1.2l1,1.2c8.8,11,15.8,23.2,20.9,36.2l0.6,1.5
					l1.6-0.2c50.7-7.6,93.8-42,112.6-89.8l0.9-2.3l-2.5-0.4C380.4,192.8,373.2,192.3,366,192.3L366,192.3z"/>
			</g>
		</g>
		<g>
			<path class="st8" d="M255,287c-7.1,0-14.3-0.5-21.4-1.6l-1.2-0.2l0.5-1.2c5.2-13.3,12.4-25.7,21.4-37l0.8-1l0.8,1
				c9,11.2,16.2,23.7,21.4,37l0.5,1.2l-1.2,0.2C269.3,286.5,262.1,287,255,287z"/>
			<g>
				<path class="st1" d="M255,247.7c8.8,11,16,23.4,21.2,36.7c-6.9,1-14,1.6-21.2,1.6c-7.2,0-14.3-0.5-21.2-1.6
					C239,271.1,246.2,258.7,255,247.7 M255,244.5l-1.6,2c-9,11.3-16.3,23.8-21.5,37.2L231,286l2.5,0.4c7.1,1.1,14.3,1.6,21.5,1.6
					c7.2,0,14.4-0.5,21.5-1.6l2.5-0.4l-0.9-2.3c-5.3-13.4-12.5-25.9-21.5-37.2L255,244.5L255,244.5z"/>
			</g>
		</g>
	</g>
</g>
</svg>
