<?xml version="1.0" encoding="UTF-8"?>
<svg xmlns="http://www.w3.org/2000/svg" viewBox="0 0 510 480.26">
  <g id="vollfarbe-icons">
    <g id="residual" data-name="residual">
      <g>
        <path d="M255,287c-78.85,0-143-64.15-143-143S176.15,1,255,1s143,64.15,143,143-64.15,143-143,143Z" fill="#f0ae9f"/>
        <path d="M255,2c78.42,0,142,63.58,142,142s-63.58,142-142,142-142-63.58-142-142S176.58,2,255,2M255,0c-38.46,0-74.63,14.98-101.82,42.18-27.2,27.2-42.18,63.36-42.18,101.82s14.98,74.63,42.18,101.82c27.2,27.2,63.36,42.18,101.82,42.18s74.63-14.98,101.82-42.18c27.2-27.2,42.18-63.36,42.18-101.82s-14.98-74.63-42.18-101.82C329.63,14.98,293.46,0,255,0h0Z" fill="#fff"/>
      </g>
      <g>
        <rect x="131.33" y="84.11" width="42.05" height="39.78" rx="12" ry="12" fill="#fff"/>
        <path d="M165.37,103.17l-13.69,4.65-16.31-5.64c-1.41-.97-.39-1.48.68-1.9,5.13-2,10.66-3.56,15.84-5.39,5.1,1.98,10.44,3.4,15.53,5.39,2.53.99,1.07,1.81-.69,2.38.16.85-.25,3.52.15,4.08.23.32.88.36,1.01.81.16.56.28,2.76-.46,2.89-.38.07-2.69.05-2.95-.08-.07-.03-.31-.27-.31-.3v-2.42c0-.4,1.21-.94,1.21-1.06v-3.41Z" fill="#f0ae9f"/>
        <path d="M162.19,105.74v6.44c-1.5,1.61-4.05,2.57-6.21,3.03-4.87,1.04-10.76.35-14.7-2.88v-6.59l10.38,3.5.84-.08,9.69-3.42Z" fill="#f0ae9f"/>
      </g>
      <g>
        <rect x="335.51" y="84.11" width="42.05" height="39.78" rx="12" ry="12" fill="#fff"/>
        <path d="M339.04,99.58c.16-1.1,1.41-2.4,2.53-2.54l29.52.07c1.12.44,2.01,1.41,2.16,2.63-.23,3.52.37,7.56.02,11.01-.04.41-.03.69-.52.79-1.04.2-2.59-.13-3.69,0-.33-5.02-7.27-4.97-7.69,0l-11.22.02c-.44-5.12-7.54-5.19-7.77,0l-3.34-.15v-11.82ZM349.63,105.16v-5.44l-.22-.22h-7.47v5.66h7.69ZM360.21,99.51h-7.69v5.66h7.69v-5.66ZM370.36,99.51h-7.47l-.22.22v5.44h7.69v-5.66Z" fill="#f0ae9f"/>
        <path d="M344.45,113.23c-2.2-2.31,1.17-5.63,3.42-3.49,2.43,2.32-1.29,5.73-3.42,3.49Z" fill="#f0ae9f"/>
        <path d="M366.98,113.24c-2.18,2.18-5.73-1.07-3.51-3.44,2.17-2.31,5.76,1.18,3.51,3.44Z" fill="#f0ae9f"/>
      </g>
      <g>
        <rect x="233.83" y="14.94" width="42.05" height="39.78" rx="12" ry="12" fill="#fff"/>
        <path d="M248.99,21.89l.22-.18c.31-.06.87-.1,1.03.24l.09,5.83c.14.48,1.79.71,1.94-.25.25-1.64-.19-3.79.04-5.49.15-.49,1.19-.48,1.43-.17.13.16.2.71.23.95.26,1.59.74,5.3.48,6.77-.17,1.01-1.02,2.05-1.78,2.69-1.47,1.23-2.18.57-2.11,2.89.12,3.79.67,7.66.79,11.45.06,1.99-.17,2.74-2.44,2.44-1.49-.2-.89-2.63-.85-3.63.17-3.81.44-7.61.63-11.42-.15-.66-1.34-1.11-1.88-1.54-.79-.64-1.85-1.83-2.01-2.86-.23-1.43.25-5.62.55-7.15.22-1.14,1.51-1.08,1.64-.18.26,1.69-.23,3.85.07,5.58.2.41,1.25.29,1.65.2.06-.04.26-.36.26-.39v-5.79Z" fill="#f0ae9f"/>
        <path d="M259.35,21.59c2.82-.48,4.26,1.58,4.86,4.02.57,2.32.67,4.37-1.35,5.94-.67.52-1.83.78-1.9,1.8-.02.31.13.59.13.9.01,4.61.43,9.21.53,13.83.12,1.51-2.69,1.58-2.89.25l.62-15.09c-.65-1.48-2.21-1.41-3.07-2.99-1.26-2.32.07-8.15,3.06-8.66Z" fill="#f0ae9f"/>
      </g>
      <g>
        <rect x="176.07" y="36.27" width="42.05" height="39.78" rx="12" ry="12" fill="#fff"/>
        <path d="M185.15,47.58l24.4.14.38.41.11,18.82-.61.97-23.75.12c-.52.05-.89-.19-1.17-.61l-.11-18.82.74-1.03ZM195.8,50.74c-7.5,1.09-7.5,13,0,14.08,11.31,1.64,11.3-15.72,0-14.08Z" fill="#f0ae9f"/>
        <path d="M203.92,46.95h-2.16c.09-.66-.38-1.31-.98-1.49-.7-.21-5.93-.21-6.8-.08-1.23.19-1.23,1.41-1.61,1.54l-2.05-.08c.13-1.6,1.19-3.12,2.8-3.51,1.37-.33,5.84-.28,7.36-.14,2,.18,3.57,1.7,3.44,3.75Z" fill="#f0ae9f"/>
        <path d="M198.41,56.6h2.86c.43.26.4,1.9.21,2.18l-2.88.27-.21,2.74-.3.3-1.96-.16-.27-2.88-2.88-.27c-.19-.28-.22-1.92.21-2.18h2.86v-2.86l.33-.26c.18-.06.37-.03.55-.04.49-.04,1.18-.1,1.49.31v2.86Z" fill="#f0ae9f"/>
      </g>
      <g>
        <rect x="291.37" y="34.51" width="42.05" height="39.78" rx="12" ry="12" fill="#fff"/>
        <path d="M318.16,44.5v-4.32c0-1.09,4.04-1.26,4.55-.11.72,1.62-.32,7.12.17,9.17.86,1.31,3.17,2.56,3.24,4.26s-1.72,2.99-3.28,2.21c-.31.42.2,8.82-.02,10.37-.2,1.42-1.43,2.68-2.89,2.72-5.34-.4-11.34.49-16.6,0-1.49-.14-2.67-1.21-2.89-2.72-.22-1.55.28-9.95-.02-10.37-2.76.84-4.22-1.68-2.46-3.98s9.09-9.62,11.33-11.33c3.96-3.02,6.04,2.1,8.88,4.09Z" fill="#f0ae9f"/>
        <path d="M310.84,42.2l-12.47,12.11c-.75,1.42.12,2.31,1.56,1.56l10.97-10.79c.63-.25,1.21.03,1.67.49l10.26,10.3c1.49.86,2.42-.36,1.44-1.68l-12.36-11.99h-1.08Z" fill="#fff"/>
        <path d="M310.84,51.66c-3.23.63-2.51,5.98,1.31,5.1,2.98-.69,2.06-5.75-1.31-5.1Z" fill="#fff"/>
        <polygon points="313.98 69.33 313.98 63.78 313.62 63.43 309.13 63.43 308.78 63.78 308.78 69.33 313.98 69.33" fill="#fff"/>
      </g>
      <g>
        <path d="M220.98,184h88.51c.14-.17.27-.34.39-.53l.21-50.78c-1.24-4.14-13.15-1.76-16.71-2.42-2.17-6.71-3.09-16.83-5.83-23.04-.84-1.9-2.13-3.02-4.25-3.22l-79.63,21.27c-1.81.6-3.77,1.93-3.77,4.02l12.5,47.25c2.25,4.24,7.03,1.13,7.64,1.76-.13,2.69-.1,4.54.94,5.7ZM224.59,135.48h81.09v45.41h-81.09v-45.41Z" fill="#be7263"/>
        <polygon points="240.3 140.82 238.49 140.82 230.64 148.43 230.94 166.71 239.93 174.6 288.65 175.56 299.63 165.18 299.63 149.98 290.83 140.82 240.3 140.82" fill="#be7263"/>
      </g>
    </g>
    <g id="soz-infra" data-name="soz-infra">
      <g>
        <path d="M366,479.26c-78.85,0-143-64.15-143-143s64.15-143,143-143,143,64.15,143,143-64.15,143-143,143Z" fill="#a5cdc8"/>
        <path d="M366,194.26c78.42,0,142,63.58,142,142s-63.58,142-142,142-142-63.58-142-142,63.58-142,142-142M366,192.26c-38.46,0-74.63,14.98-101.82,42.18-27.2,27.2-42.18,63.36-42.18,101.82s14.98,74.63,42.18,101.82c27.2,27.2,63.36,42.18,101.82,42.18s74.63-14.98,101.82-42.18c27.2-27.2,42.18-63.36,42.18-101.82s-14.98-74.63-42.18-101.82c-27.2-27.2-63.36-42.18-101.82-42.18h0Z" fill="#fff"/>
      </g>
      <path d="M335.38,338.32c5.67,13.29,18,31.29,26.03,39.42,1.51,1.53,2.1,2.28,3.91.6,2.54-2.35,6.12-7.37,8.34-10.26,8.07-10.51,21.86-30.7,21.92-43.69.06-11.17-7.06-21.42-17.19-26.58-4.46-2.27-9.49-3.56-14.76-3.51h-.3s-1.54.07-1.54.07c-.03,0-.06,0-.09,0-8.8.63-16.26,4.27-21.51,9.69h0s0,.02,0,.02c-3.48,3.61-5.98,8.01-7.23,12.85v.02s0,.01,0,.01c-1.12,4.33-1.25,9.01-.18,13.77.5,2.23,1.4,4.8,2.58,7.57h0s.02.03.02.03ZM363.17,307.69c.13,0,.52.01.65.01,7.69,0,13.93,5.82,13.93,12.99s-6.24,12.99-13.93,12.99-13.93-5.82-13.93-12.99c0-6.8,6.15-12.44,13.28-13.01Z" fill="#6b8782"/>
      <g>
        <rect x="448.12" y="335.67" width="42.05" height="39.78" rx="12" ry="12" fill="#fff"/>
        <path d="M471.46,345.12c-.39.3-1.99,2.12-2.28,2.07-2.32-2.57-4.91-4.36-8.57-3.96-5.48.6-8.89,6.07-7.4,11.32.57,2.02,1.95,3.4,3.33,4.9,3.88,4.22,8.27,8.14,12.33,12.17.54.21,1.02-.08,1.38-.47,3.92-4.38,8.88-8.3,12.7-12.7,7.8-8.96-3.25-19.83-11.51-13.33Z" fill="#a5cdc8"/>
        <path d="M471.34,354.73h5.31c.79.48.75,3.53.39,4.05l-5.35.5-.39,5.09-.55.55-3.63-.29-.5-5.35-5.35-.5c-.36-.51-.41-3.57.39-4.05h5.31v-5.31l.61-.49c.33-.1.68-.05,1.02-.08.91-.08,2.2-.18,2.76.57v5.31Z" fill="#fff"/>
      </g>
      <g>
        <rect x="417.53" y="388.77" width="42.05" height="39.78" rx="12" ry="12" fill="#fff"/>
        <path d="M451.58,407.83l-13.69,4.65-16.31-5.64c-1.41-.97-.39-1.48.68-1.9,5.13-2,10.66-3.56,15.84-5.39,5.1,1.98,10.44,3.4,15.53,5.39,2.53.99,1.07,1.81-.69,2.38.16.85-.25,3.52.15,4.08.23.32.88.36,1.01.81.16.56.28,2.76-.46,2.89-.38.07-2.69.05-2.95-.08-.07-.03-.31-.27-.31-.3v-2.42c0-.4,1.21-.94,1.21-1.06v-3.41Z" fill="#a5cdc8"/>
        <path d="M448.4,410.41v6.44c-1.5,1.61-4.05,2.57-6.21,3.03-4.87,1.04-10.76.35-14.7-2.88v-6.59l10.38,3.5.84-.08,9.69-3.42Z" fill="#a5cdc8"/>
      </g>
      <g>
        <rect x="404.42" y="224.3" width="42.05" height="39.78" rx="12" ry="12" fill="#fff"/>
        <path d="M413.66,235.61l24.4.14.38.41.11,18.82-.61.97-23.75.12c-.52.05-.89-.19-1.17-.61l-.11-18.82.74-1.03ZM424.31,238.77c-7.5,1.09-7.5,13,0,14.08,11.31,1.64,11.3-15.72,0-14.08Z" fill="#a5cdc8"/>
        <path d="M432.44,234.97h-2.16c.09-.66-.38-1.31-.98-1.49-.7-.21-5.93-.21-6.8-.08-1.23.19-1.23,1.41-1.61,1.54l-2.05-.08c.13-1.6,1.19-3.12,2.8-3.51,1.37-.33,5.84-.28,7.36-.14,2,.18,3.57,1.7,3.44,3.75Z" fill="#a5cdc8"/>
        <path d="M426.92,244.63h2.86c.43.26.4,1.9.21,2.18l-2.88.27-.21,2.74-.3.3-1.96-.16-.27-2.88-2.88-.27c-.19-.28-.22-1.92.21-2.18h2.86v-2.86l.33-.26c.18-.06.37-.03.55-.04.49-.04,1.18-.1,1.49.31v2.86Z" fill="#a5cdc8"/>
      </g>
      <g>
        <rect x="303.65" y="415.42" width="42.05" height="39.78" rx="12" ry="12" fill="#fff"/>
        <path d="M317.47,450.38c-.22-.97-.35-1.93-.82-2.82-.77-1.48-2.54-2.49-3.49-3.79-.81-1.12-4.42-10.54-4.62-11.96-.11-.77-.04-1.49.92-1.52.83-.03,1.73,1.24,2.11,1.87.33.53,2.19,4.28,2.26,4.67.06.31-.35.72-.42,1.12-.16,1.01.39,1.81.94,2.6.4.58,2.62,3.05,3.2,2.89,1.22-.35-1.42-2.24-1.69-2.54-.58-.62-1.49-1.75-1.45-2.62.06-1.24,1.4-1.39,2.29-.76.79.55,1.98,1.91,2.79,2.63,1.5,1.32,2.88,1.95,3.68,3.93.76,1.88.85,4.31.55,6.3h-6.26Z" fill="#a5cdc8"/>
        <path d="M331.35,450.38h-6.18l-.25-.25v-3.21c0-.39.36-1.93.5-2.38.98-3.07,4.89-4.74,6.88-7.16,2.48-.72,2.52,1.13,1.24,2.77-.49.63-2.22,1.96-2.45,2.46-.17.36-.12.86.34.85.17,0,1.78-1.43,2.03-1.7.81-.86,2.04-2.41,1.95-3.64-.04-.5-.5-.98-.44-1.28.08-.4,2.09-4.49,2.43-5.01.47-.74,1.38-1.85,2.35-1.45s.49,1.34.3,2.07c-.55,2.16-3.43,10.02-4.66,11.59-1.61,2.06-4.11,3.16-4.06,6.35Z" fill="#a5cdc8"/>
        <path d="M322.92,430.83c2.44-.34,5.89-.03,6.29,3.08.06.47.07,3.81-.05,4.07-.08.18-.33.34-.52.33l-8.45-.06c-.21-.14-.29-.28-.33-.54-.11-.86-.07-3.72.2-4.49.42-1.21,1.61-2.23,2.86-2.4Z" fill="#a5cdc8"/>
        <path d="M330.27,436.14v-2.23c0-1.05-1.12-2.63-1.92-3.25l-1.26-.77c1.13-1.39,3.3-1.4,4.94-1.25,1.8.16,3.3,1.55,3.46,3.42.04.49.05,3.62-.06,3.87-.02.05-.19.22-.21.22h-4.94Z" fill="#a5cdc8"/>
        <path d="M313.86,436.14s-.19-.17-.21-.22c-.11-.25-.1-3.38-.06-3.87.16-1.87,1.66-3.26,3.46-3.42,1.64-.15,3.81-.14,4.94,1.25.04.23-.05.13-.15.17-1.29.58-3.04,2.17-3.04,3.74v2.34h-4.94Z" fill="#a5cdc8"/>
        <path d="M324.08,424.41c3.66-.53,4.09,4.92.81,5.29-3.57.4-3.96-4.83-.81-5.29Z" fill="#a5cdc8"/>
        <path d="M318.03,422.24c3.36-.28,3.84,4.87.7,5.29-3.8.51-4.06-5.01-.7-5.29Z" fill="#a5cdc8"/>
        <path d="M330.57,422.24c3.36-.28,3.84,4.87.7,5.29-3.8.51-4.06-5.01-.7-5.29Z" fill="#a5cdc8"/>
      </g>
      <g>
        <rect x="443.31" y="277.94" width="42.05" height="39.78" rx="12" ry="12" fill="#fff"/>
        <path d="M471.74,286.67h5.66s.34.32.34.34v23.53l1.77.14v1.91l-29.72-.02.04-1.76,1.49-.15.22-.32.07-23.39c.03-.06.25-.27.27-.27h5.66v-4.3s.21-.24.27-.27h13.64c.06.03.27.25.27.27v4.3ZM463.93,284.52c-1.92.3-3.31,2.35-3.07,4.23.4,3.08,4.18,4.38,6.42,2.26,2.71-2.56.41-7.08-3.35-6.49ZM454.28,289.53v2.66l.2.2h2.73l.2-.2v-2.46s-.32-.34-.34-.34h-2.46s-.21.18-.34.14ZM471.88,289.74v2.46l.2.2h2.73l.2-.2v-2.46c0-.46-2.01-.39-2.4-.35-.25.02-.66.06-.74.35ZM456.81,294.58c-.77-.04-1.55.03-2.32,0l-.2.2v2.46l.2.2h2.73l.2-.2v-2.46c0-.3-.52-.2-.61-.2ZM460.15,294.78v2.46l.2.2h2.73l.2-.2v-2.46l-.2-.2h-2.32c-.15,0-.51-.12-.61.2ZM474.4,294.58c-.77-.04-1.55.03-2.32,0l-.2.2v2.46l.2.2h2.73l.2-.2v-2.46c0-.3-.52-.2-.61-.2ZM466.22,294.58l-.2.2v2.46l.2.2h2.73l.2-.2v-2.46l-.2-.2h-2.73ZM454.28,299.83v2.46l.2.2h2.73l.2-.2v-2.46c-.37-.54-2.99-.47-3.14,0ZM460.15,299.83v2.46l.2.2h2.73l.2-.2v-2.46c-.44-.47-2.98-.52-3.14,0ZM466.01,299.83v2.46l.2.2h2.73l.2-.2v-2.46c-.37-.54-2.99-.47-3.14,0ZM471.88,299.83v2.46l.2.2h2.73l.2-.2v-2.46c-.37-.54-2.99-.47-3.14,0ZM464.24,304.67h-3.34l-.2.2v5.66h3.55v-5.87ZM468.6,310.54v-5.66l-.2-.2h-3.34v5.87h3.55Z" fill="#a5cdc8"/>
        <path d="M463.93,284.52c3.76-.59,6.07,3.93,3.35,6.49-2.25,2.12-6.02.82-6.42-2.26-.24-1.88,1.15-3.93,3.07-4.23ZM465.47,287.49l-.13-1.44h-1.38l-.13,1.44h-1.37s0,1.5,0,1.5h1.37s.13,1.44.13,1.44h1.38l.13-1.44h1.37s0-1.5,0-1.5h-1.37Z" fill="#fff"/>
        <polygon points="464.24 304.67 464.24 310.54 460.69 310.54 460.69 304.88 460.9 304.67 464.24 304.67" fill="#fff"/>
        <polygon points="468.6 310.54 465.06 310.54 465.06 304.67 468.4 304.67 468.6 304.88 468.6 310.54" fill="#fff"/>
        <path d="M454.28,289.53c.13.04.3-.14.34-.14h2.46s.34.32.34.34v2.46l-.2.2h-2.73l-.2-.2v-2.66Z" fill="#fff"/>
        <path d="M471.88,289.74c.08-.28.5-.32.74-.35.38-.04,2.4-.11,2.4.35v2.46l-.2.2h-2.73l-.2-.2v-2.46Z" fill="#fff"/>
        <path d="M454.28,299.83c.14-.47,2.77-.54,3.14,0v2.46l-.2.2h-2.73l-.2-.2v-2.46Z" fill="#fff"/>
        <path d="M466.01,299.83c.14-.47,2.77-.54,3.14,0v2.46l-.2.2h-2.73l-.2-.2v-2.46Z" fill="#fff"/>
        <path d="M471.88,299.83c.14-.47,2.77-.54,3.14,0v2.46l-.2.2h-2.73l-.2-.2v-2.46Z" fill="#fff"/>
        <path d="M460.15,299.83c.16-.52,2.69-.47,3.14,0v2.46l-.2.2h-2.73l-.2-.2v-2.46Z" fill="#fff"/>
        <path d="M456.81,294.58c.09,0,.61-.09.61.2v2.46l-.2.2h-2.73l-.2-.2v-2.46l.2-.2c.77.03,1.55-.04,2.32,0Z" fill="#fff"/>
        <path d="M460.15,294.78c.1-.32.46-.2.61-.2h2.32l.2.2v2.46l-.2.2h-2.73l-.2-.2v-2.46Z" fill="#fff"/>
        <path d="M474.4,294.58c.09,0,.61-.09.61.2v2.46l-.2.2h-2.73l-.2-.2v-2.46l.2-.2c.77.03,1.55-.04,2.32,0Z" fill="#fff"/>
        <polygon points="466.22 294.58 468.95 294.58 469.15 294.78 469.15 297.24 468.95 297.44 466.22 297.44 466.01 297.24 466.01 294.78 466.22 294.58" fill="#fff"/>
        <polygon points="465.47 287.49 466.83 287.49 466.83 288.99 465.47 288.99 465.34 290.43 463.96 290.43 463.83 288.99 462.47 288.99 462.47 287.49 463.83 287.49 463.96 286.05 465.34 286.05 465.47 287.49" fill="#a5cdc8"/>
      </g>
      <g>
        <rect x="366.91" y="422.11" width="42.05" height="39.78" rx="12" ry="12" fill="#fff"/>
        <rect x="381.5" y="427.01" width="15.16" height="15.16" rx="3.82" ry="3.82" transform="translate(-156.22 641.73) rotate(-68.96)" fill="#a5cdc8"/>
        <rect x="373" y="440.36" width="15.16" height="15.16" rx="4.23" ry="4.23" transform="translate(-133.87 163.63) rotate(-20.72)" fill="#a5cdc8"/>
        <rect x="387.17" y="442.03" width="15.16" height="15.16" rx="4.09" ry="4.09" fill="#a5cdc8"/>
        <circle cx="388.94" cy="435.12" r="5.39" fill="#fff"/>
        <path d="M389.74,431.28l1.37.57-.32,7.06-1.27-.53.1-1.5-2.57-1.07-.99,1.13-1.13-.47,4.8-5.19ZM389.7,435.84l.23-3.33-2.19,2.51,1.96.82Z" fill="#a5cdc8"/>
        <g>
          <circle cx="380.77" cy="447.79" r="5.39" fill="#fff"/>
          <path d="M377.7,445.93l2.3-.85c1.1-.4,2.02-.31,2.38.66.22.59,0,1.08-.41,1.47.76-.05,1.32.26,1.59,1.01.36.98-.24,1.8-1.44,2.24l-2.42.89-2-5.43ZM380.83,447.38c.53-.2.74-.65.6-1.05-.17-.45-.57-.65-1.18-.42l-1.17.43.55,1.48,1.21-.45ZM381.78,449.66c.63-.23.84-.69.67-1.14-.18-.48-.66-.7-1.3-.46l-1.28.47.59,1.61,1.31-.48Z" fill="#a5cdc8"/>
        </g>
        <g>
          <circle cx="395.28" cy="449.46" r="5.39" fill="#fff"/>
          <path d="M392.31,449.66c0-1.76,1.21-2.99,2.93-2.99,1.33,0,2.32.7,2.74,1.82l-1,.29c-.28-.75-.88-1.22-1.69-1.22-1.04,0-1.82.82-1.82,1.98s.76,2.1,2.02,2.1c.9,0,1.57-.47,1.98-1.07l.59.42c-.49,1.01-1.53,1.67-2.81,1.67-1.74,0-2.95-1.23-2.95-2.99Z" fill="#a5cdc8"/>
        </g>
      </g>
    </g>
    <g id="zeit" data-name="zeit">
      <g>
        <path d="M144,479.26C65.15,479.26,1,415.11,1,336.26s64.15-143,143-143,143,64.15,143,143-64.15,143-143,143Z" fill="#fcd799"/>
        <path d="M144,194.26c78.42,0,142,63.58,142,142s-63.58,142-142,142S2,414.68,2,336.26s63.58-142,142-142M144,192.26c-38.46,0-74.63,14.98-101.82,42.18C14.98,261.63,0,297.8,0,336.26s14.98,74.63,42.18,101.82c27.2,27.2,63.36,42.18,101.82,42.18s74.63-14.98,101.82-42.18c27.2-27.2,42.18-63.36,42.18-101.82s-14.98-74.63-42.18-101.82c-27.2-27.2-63.36-42.18-101.82-42.18h0Z" fill="#fff"/>
      </g>
      <g>
        <path d="M165.86,336.59c.79-.11,1.35-.84,1.24-1.63l-.15-1.13c-.11-.79-.84-1.35-1.63-1.24l-15.47,2.1c-.39-1.69-1.52-3.09-3.04-3.85v-18.63c0-.8-.65-1.45-1.45-1.45h-1.15c-.8,0-1.45.65-1.45,1.45v18.21c-2.49.65-4.33,2.9-4.33,5.59,0,3.19,2.59,5.78,5.78,5.78,2.16,0,4.04-1.19,5.04-2.94l16.61-2.25Z" fill="#eaa53a"/>
        <circle cx="144.22" cy="373.77" r="4.23" transform="translate(-222.06 211.45) rotate(-45)" fill="#eaa53a"/>
        <circle cx="183.17" cy="336.2" r="4.23" transform="translate(-184.08 227.99) rotate(-45)" fill="#eaa53a"/>
        <path d="M178.2,360.76c2.33,0,4.23-1.89,4.23-4.23s-1.89-4.23-4.23-4.23c-.1,0-.19.02-.29.03-1.7-.26-3.34.94-3.62,2.59-.2.5-.32,1.04-.32,1.61,0,2.33,1.89,4.23,4.23,4.23Z" fill="#eaa53a"/>
        <path d="M163.35,374.86c2.33,0,4.23-1.89,4.23-4.23,0-2.2-1.68-3.98-3.83-4.19-.1-.01-.19-.03-.29-.03-.04,0-.07-.01-.11-.01-.08,0-.15.02-.23.02-.17,0-.35.02-.54.05-.07.01-.13.03-.19.04-.16.03-.32.06-.49.11-.26.08-.47.21-.67.36-1.25.73-2.1,2.08-2.1,3.64,0,2.33,1.89,4.23,4.23,4.23Z" fill="#eaa53a"/>
        <path d="M178.01,320.08c.06,0,.13.02.19.02,2.33,0,4.23-1.89,4.23-4.23s-1.89-4.23-4.23-4.23-4.23,1.89-4.23,4.23c0,.45.09.88.22,1.29.03,1.94,2.06,3.18,3.81,2.92Z" fill="#eaa53a"/>
        <circle cx="144.22" cy="298.23" r="4.23" transform="translate(-168.64 189.32) rotate(-45)" fill="#eaa53a"/>
        <path d="M104.83,340.43c1.94,0,3.56-1.32,4.06-3.1,0-.02.02-.05.02-.07.03-.11.06-.22.08-.33.04-.21.06-.42.06-.64,0-.03,0-.05,0-.08,0,0,0-.02,0-.03,0-.04-.01-.09-.01-.13-.08-2.26-1.93-4.07-4.21-4.07s-4.23,1.89-4.23,4.23,1.89,4.23,4.23,4.23Z" fill="#eaa53a"/>
        <circle cx="110.22" cy="316.37" r="4.23" transform="translate(-191.42 170.6) rotate(-45)" fill="#eaa53a"/>
        <path d="M163.35,297.5c-2.33,0-4.23,1.89-4.23,4.23,0,1.84,1.18,3.39,2.82,3.97.03.01.06.02.09.03.42.14.85.23,1.31.23,2.33,0,4.23-1.89,4.23-4.23s-1.89-4.23-4.23-4.23Z" fill="#eaa53a"/>
        <path d="M110.47,352.36c-.16-.02-.31-.05-.48-.05-2.33,0-4.23,1.89-4.23,4.23s1.89,4.23,4.23,4.23,4.23-1.89,4.23-4.23c0-.22-.03-.43-.06-.64.45-2.24-1.65-3.88-3.68-3.54Z" fill="#eaa53a"/>
        <path d="M125.06,297.5c-2.33,0-4.23,1.89-4.23,4.23s1.89,4.23,4.23,4.23c.03,0,.07,0,.1,0,.82.04,1.46-.16,1.93-.53,1.31-.72,2.2-2.09,2.2-3.69,0-2.33-1.89-4.23-4.23-4.23Z" fill="#eaa53a"/>
        <circle cx="125.06" cy="370.64" r="4.23" transform="translate(-81.81 38.65) rotate(-13.28)" fill="#eaa53a"/>
      </g>
      <g>
        <rect x="164.38" y="415.95" width="42.05" height="39.78" rx="12" ry="12" fill="#fff"/>
        <path d="M179.55,422.9l.22-.18c.31-.06.87-.1,1.03.24l.09,5.83c.14.48,1.79.71,1.94-.25.25-1.64-.19-3.79.04-5.49.15-.49,1.19-.48,1.43-.17.13.16.2.71.23.95.26,1.59.74,5.3.48,6.77-.17,1.01-1.02,2.05-1.78,2.69-1.47,1.23-2.18.57-2.11,2.89.12,3.79.67,7.66.79,11.45.06,1.99-.17,2.74-2.44,2.44-1.49-.2-.89-2.63-.85-3.63.17-3.81.44-7.61.63-11.42-.15-.66-1.34-1.11-1.88-1.54-.79-.64-1.85-1.83-2.01-2.86-.23-1.43.25-5.62.55-7.15.22-1.14,1.51-1.08,1.64-.18.26,1.69-.23,3.85.07,5.58.2.41,1.25.29,1.65.2.06-.04.26-.36.26-.39v-5.79Z" fill="#fcd799"/>
        <path d="M189.91,422.6c2.82-.48,4.26,1.58,4.86,4.02.57,2.32.67,4.37-1.35,5.94-.67.52-1.83.78-1.9,1.8-.02.31.13.59.13.9.01,4.61.43,9.21.53,13.83.12,1.51-2.69,1.58-2.89.25l.62-15.09c-.65-1.48-2.21-1.41-3.07-2.99-1.26-2.32.07-8.15,3.06-8.66Z" fill="#fcd799"/>
      </g>
      <g>
        <rect x="14.21" y="336.97" width="42.05" height="39.78" rx="12" ry="12" fill="#fff"/>
        <path d="M28.03,371.94c-.22-.97-.35-1.93-.82-2.82-.77-1.48-2.54-2.49-3.49-3.79-.81-1.12-4.42-10.54-4.62-11.96-.11-.77-.04-1.49.92-1.52.83-.03,1.73,1.24,2.11,1.87.33.53,2.19,4.28,2.26,4.67.06.31-.35.72-.42,1.12-.16,1.01.39,1.81.94,2.6.4.58,2.62,3.05,3.2,2.89,1.22-.35-1.42-2.24-1.69-2.54-.58-.62-1.49-1.75-1.45-2.62.06-1.24,1.4-1.39,2.29-.76.79.55,1.98,1.91,2.79,2.63,1.5,1.32,2.88,1.95,3.68,3.93.76,1.88.85,4.31.55,6.3h-6.26Z" fill="#fcd799"/>
        <path d="M41.91,371.94h-6.18l-.25-.25v-3.22c0-.39.36-1.93.5-2.38.98-3.07,4.89-4.74,6.88-7.16,2.48-.72,2.52,1.13,1.24,2.77-.49.63-2.22,1.96-2.45,2.46-.17.36-.12.86.34.85.17,0,1.78-1.43,2.03-1.7.81-.86,2.04-2.41,1.95-3.64-.04-.5-.5-.98-.44-1.28.08-.4,2.09-4.49,2.43-5.01.47-.74,1.38-1.85,2.35-1.45s.49,1.34.3,2.07c-.55,2.16-3.43,10.02-4.66,11.59-1.61,2.06-4.11,3.16-4.06,6.35Z" fill="#fcd799"/>
        <path d="M37.17,354.51c-.34.23-.44.66-.85.92-.21.13-.34.21-.59.25-1.13.18-5.61.17-6.77.02-1.9-.25-1.19-3.06.94-2.38-2.95-2.9-.12-6.56,3.21-7.36,1.88-.45,6.14-.3,6.44,2.2.12,1.03.16,5.67-.04,6.57-.3,1.34-2.4,1.3-2.33-.22ZM37,353.07c-.07-.86.05-1.76,0-2.62l-2.54.51,2.62,2.54c.28-.13-.08-.38-.09-.42Z" fill="#fcd799"/>
        <path d="M39.83,341.52c3.42-.54,4.06,4.38,1.1,5-3.55.74-4.25-4.5-1.1-5Z" fill="#fcd799"/>
        <path d="M40.22,348.42c.3-.07.34.12.51.25.49.37,2.43,2.18,2.8,2.62.91,1.1.41,2.53-1.15,2.17-.34-.08-2.15-1.77-2.15-1.91v-3.13Z" fill="#fcd799"/>
        <path d="M28.17,352.79s-.51.24-.72.54c-.23.33-.35.79-.43,1.18-.79-.32-1.24-.84-.98-1.74.3-1.02,2.78-1.11,2.13.02Z" fill="#fcd799"/>
      </g>
      <g>
        <rect x="23.8" y="275.48" width="42.05" height="39.78" rx="12" ry="12" fill="#fff"/>
        <path d="M31.31,303.46c-.18-.05-.54-.53-.55-.77-.15-1.51,2.59-.83,3.49-.97.34-.35-1.79-5.77-1.92-6.7-.06-.44-.13-.85.26-1.16.78-.61,7.87.06,9.34-.2l2.76,7.96,11.66.09c2.28.85.29,2.22-1.43,1.75-.2.2.31,4.04-.2,4.86-.34.56-1.33.06-1.33-.18v-4.68h-22.1Z" fill="#fcd799"/>
        <path d="M51.88,298.02l-1.09-3.26c-.38-.05-.2.49-.21.76-.02.54.01,1.09,0,1.64h-4.25c-.07,0-1.07.45-1.2.54-.36.27-.3.72-.65.76-1.01-2.19-.66-6.44-4.14-5.66-.03-1.56,1.24-2.82,2.74-3.03s5.7-.2,7.15,0c1.02.14,1.82.69,2.35,1.57.44.73,2.75,6.6,2.76,7.23,0,1.11-.88,1.97-1.92,2.19-1.24.26-5.34.25-6.66.1-1.15-.13-2.08-1.1-1.3-2.18.12-.17.74-.66.86-.66h5.55Z" fill="#fcd799"/>
        <path d="M50.58,304.55c-.92,5.93-7.97,3.82-12.21,4.04l-.17-.26c-.24-.73,0-3.78.95-3.78h11.43Z" fill="#fcd799"/>
        <path d="M45.51,281.52c5.9-1.21,6.43,6.9,1.41,7.31-4.6.37-5.27-6.52-1.41-7.31Z" fill="#fcd799"/>
      </g>
      <g>
        <rect x="50.42" y="390.52" width="42.05" height="39.78" rx="12" ry="12" fill="#fff"/>
        <path d="M60.52,414.76h8.49v-6.88c0-.24.65-.79.96-.71,5.82.27,14.91-1.88,16.49,6.01.28,1.38.35,5.64.17,7.05-.04.33-.11.5-.46.57s-2.25.1-2.25-.32v-3.02h-23.4v3.02c0,.5-2.29.35-2.7.19v-15.37c0-.29.38-.19.45-.19h2.06l.19.19v9.45Z" fill="#fcd799"/>
        <path d="M64.61,407.46c3.4-.18,4.46,4.78,1.35,5.99-4.61,1.79-6.11-5.73-1.35-5.99Z" fill="#fcd799"/>
        <path d="M67.21,403.82c.47.08,1.53-.16,1.88.12.29.23.3,1.31-.08,1.49-.23.11-3.37.12-3.8.07-.54-.07-.5-.31-.41-.81l1.9-3.5-1.65-.08c-.17-.37-.31-1.38.11-1.59.22-.11,3.01-.12,3.41-.07.58.08.65.38.51.91-.27,1.01-1.45,2.44-1.87,3.47Z" fill="#fcd799"/>
        <path d="M73.57,397.14c.27.08.19.45.13.65-.1.34-1.52,2.55-1.36,2.7l1.36.12c.22.17.27.84.12,1.05-.12.17-2.98.2-3.29.05-.12-.06-.25-.21-.24-.36l1.52-2.92-1.23-.12-.06-1.17h3.02Z" fill="#fcd799"/>
        <path d="M77.56,395.21c.17.05.2.25.17.42-.05.33-1.3,2.13-1.14,2.28h1.16s-.06.91-.06.91c-.1.15-2.82.38-2.75-.31l1.14-2.27c-.95.45-1.32-1.03-.84-1.03h2.31Z" fill="#fcd799"/>
      </g>
      <g>
        <rect x="101.74" y="422.51" width="42.05" height="39.78" rx="12" ry="12" fill="#fff"/>
        <path d="M136.21,438.18c.08-.33.08-.66-.23-.85l-21.69-.19-1.51-6.34c-1.1-.16-5.17-1.53-5.99-1.28-.46.14-.66,1.06-.25,1.39.56.46,4.82.93,5.02,1.22l4.12,19.78c.33.45.97.2,1.46.26-.59,1.23-.75,2.38.07,3.56,1.82,2.61,5.97.97,5.5-2.31-.07-.45-.26-.73-.41-1.1l-2.76.14c1.5-.21,2.4,1.99.88,2.8-2.13,1.14-3.15-2.49-.88-2.8l2.7-.28h4.33l2.59.26c1.32-.06,2.15,1.8.84,2.72-1.97,1.39-3.39-2.26-1.04-2.7.04,0,.08,0,.13-.01l-2.53-.12c-.07.41-.31.73-.36,1.19-.3,2.72,2.54,4.53,4.8,2.89,1.45-1.04,1.52-2.71.8-4.23,1.1.22,1.73-.45,1.07-1.39l-15.65-.13c-.17,0-.23-.06-.29-.22-.07-.18-.17-.68-.18-1.07h0l-.08-.38,16.53-.12,3.02-10.66Z" fill="#fcd799"/>
      </g>
      <g>
        <rect x="67.08" y="230.23" width="42.05" height="39.78" rx="12" ry="12" fill="#fff"/>
        <path d="M85.88,245.52c.3-.03.64.11.87.31l6.98,7.19c.28.28,1.02-.04.76-.38-.11-.14-.49-.03-.62-.22-1.19-1.48-2.75-2.66-3.98-4.09-.12-.14-.59-.67-.63-.78-.42-1.03.74-1.83,1.56-1.09,2.54,3.3,9.84,8.33,9.92,12.71.03,1.82-1.95,3.6-3.24,4.74-1.12.99-1.82,1.48-3.39,1.41-2.14-.1-7.93-1.8-9.84-2.83-1.14-.62-.62-1.91.55-1.87s2.68.5,3.85.48c.96-.02,1-.68.47-1.32l-7.5-7.7c-.8-1.13.51-2.43,1.63-1.63l5.78,5.95c.8.55,1.52-.21.32-.51l-7.6-7.79c-.66-1.02.56-2.2,1.59-1.59l8.31,8.49c.33.48,1.36-.11.65-.37-.58-.21-.31-.15-.69-.53-2.21-2.2-4.37-4.45-6.56-6.68-.65-.68-.03-1.8.81-1.89Z" fill="#fbd799" stroke="#fff" stroke-miterlimit="10" stroke-width=".29"/>
        <path d="M92.84,243.82c.13.31.14,1.49.44,1.58.16.05.22-.04.32-.13.31-.29.78-1.44,1.12-1.6,1.8-.32,3.94-.04,5.63.66.49.21,2.15,1.01,1.96,1.67-2.08,1.7-4.55,2.91-6.7,4.55l-4.41-4.49c-.97-.94-2.33-.38-2.63.85-.76-.61-1.62-2.07-2.71-1.97-.69.07-1.6.86-1.56,1.59-.81-.98-2.4-1.12-3.05.09-.74,1.36.38,2.1,1.18,3.01-1.24.1-2.01,1.44-1.39,2.57l7.54,7.75.33.56-4.26-.47c-.42-.11-1.01.49-1.22.52-.23.03-.66-.14-.94-.15-1.89-.06-3.48.21-5.31.61-.58.13-3.85,1.11-4.12.88-.06-.23-.1-.45-.11-.69-.14-2.46.35-7.09,2.16-8.92.49-.49,1.12-.67,1.64-1.08,2.5-1.95,1.85-6.29,4.74-8.68,2.16-1.79,2.88.23,4.63,1.1s3.98.26,5.84.17c.29-.01.59,0,.88,0Z" fill="#fbd799"/>
        <path d="M85.9,232.74c.4,1.47,1.39,2.49,2.53,3.42-1.19.88-2.08,2.02-2.58,3.43-.26,0-.38-.7-.5-.91-.41-.76-.88-1.37-1.52-1.96-.19-.17-.74-.4-.66-.65.93-.57,1.58-1.37,2.1-2.32.09-.15.4-1.18.62-1.02Z" fill="#fbd799"/>
        <path d="M94.72,238.74c.04,1.24.75,2.22,1.5,3.14l-1.6,1.03-1.08,1.27c-.1-.05-.36-1.11-.45-1.34-.29-.72-.72-1.21-1.19-1.81.76-.42,1.38-.75,1.96-1.41.15-.17.64-1.1.85-.89Z" fill="#fbd799"/>
        <path d="M79.15,240.34l-.86,1.44-.27,1c-.14.1-.65-.54-.8-.65-.42-.33-.92-.65-1.45-.75.13-.49.55-.82.77-1.34.08-.19.33-1.19.41-1.19.61.65,1.3,1.3,2.2,1.5Z" fill="#fbd799"/>
      </g>
    </g>
    <g id="overlay" data-name="overlay">
      <g>
        <path d="M233.62,285.41c-50.32-7.55-93.16-41.73-111.78-89.2l-.46-1.17,1.24-.19c7.05-1.06,14.24-1.59,21.38-1.59,43.71,0,84.46,19.62,111.78,53.82l.5.62-.5.62c-8.85,11.08-15.94,23.34-21.09,36.45l-.29.74-.79-.12Z" fill="#f7c9b1"/>
        <path d="M144,194.26c44.93,0,84.98,20.87,111,53.45-8.8,11.02-16,23.37-21.24,36.71-50.79-7.62-92.78-42.13-111-88.58,6.93-1.04,14.02-1.58,21.24-1.58M144,192.26c-7.19,0-14.44.54-21.53,1.6l-2.48.37.92,2.34c18.76,47.81,61.89,82.22,112.57,89.82l1.58.24.58-1.48c5.11-13.02,12.15-25.2,20.94-36.2l1-1.25-1-1.25c-27.51-34.44-68.54-54.2-112.56-54.2h0Z" fill="#fff"/>
      </g>
      <g>
        <path d="M254.22,425.44c-20.42-25.57-31.22-56.4-31.22-89.18,0-18.01,3.31-35.58,9.83-52.21l.29-.74.79.12c6.95,1.04,14.05,1.57,21.09,1.57s14.14-.53,21.09-1.57l.79-.12.29.74c6.52,16.63,9.83,34.2,9.83,52.21,0,32.77-10.79,63.61-31.22,89.18l-.78.98-.78-.98Z" fill="#cddac8"/>
        <path d="M276.24,284.42c6.3,16.06,9.76,33.55,9.76,51.84,0,33.49-11.6,64.27-31,88.55-19.4-24.28-31-55.06-31-88.55,0-18.3,3.46-35.78,9.76-51.84,6.93,1.04,14.02,1.58,21.24,1.58s14.31-.54,21.24-1.58M277.52,282.2l-1.58.24c-6.9,1.03-13.95,1.56-20.94,1.56s-14.04-.52-20.94-1.56l-1.58-.24-.58,1.48c-6.57,16.75-9.9,34.43-9.9,52.57,0,16.61,2.81,32.9,8.34,48.4,5.35,14.98,13.12,28.91,23.09,41.4l1.56,1.96,1.56-1.96c9.98-12.49,17.75-26.42,23.09-41.4,5.54-15.51,8.34-31.79,8.34-48.4,0-18.14-3.33-35.83-9.9-52.57l-.58-1.48h0Z" fill="#fff"/>
      </g>
      <g>
        <path d="M275.31,284.78c-5.14-13.11-12.24-25.38-21.09-36.45l-.5-.62.5-.62c27.32-34.2,68.07-53.82,111.78-53.82,7.14,0,14.34.54,21.38,1.59l1.24.19-.46,1.17c-18.63,47.47-61.46,81.65-111.78,89.2l-.79.12-.29-.74Z" fill="#dfc8bd"/>
        <path d="M366,194.26c7.22,0,14.31.54,21.24,1.58-18.22,46.45-60.21,80.96-111,88.58-5.23-13.34-12.43-25.69-21.24-36.71,26.02-32.57,66.07-53.45,111-53.45M366,192.26c-44.02,0-85.05,19.75-112.56,54.2l-1,1.25,1,1.25c8.78,11,15.83,23.17,20.94,36.2l.58,1.48,1.58-.24c50.68-7.6,93.81-42.02,112.57-89.82l.92-2.34-2.48-.37c-7.1-1.06-14.34-1.6-21.53-1.6h0Z" fill="#fff"/>
      </g>
      <g>
        <path d="M255,287c-7.14,0-14.34-.54-21.38-1.59l-1.24-.19.46-1.17c5.22-13.3,12.41-25.74,21.39-36.97l.78-.98.78.98c8.97,11.23,16.17,23.67,21.39,36.97l.46,1.17-1.24.19c-7.05,1.06-14.25,1.59-21.38,1.59Z" fill="#beb3a7"/>
        <path d="M255,247.71c8.8,11.02,16,23.37,21.24,36.71-6.93,1.04-14.02,1.58-21.24,1.58s-14.31-.54-21.24-1.58c5.23-13.34,12.43-25.69,21.24-36.71M255,244.5l-1.56,1.96c-9.03,11.31-16.28,23.84-21.54,37.23l-.92,2.34,2.48.37c7.1,1.06,14.34,1.6,21.53,1.6s14.44-.54,21.53-1.6l2.48-.37-.92-2.34c-5.26-13.4-12.5-25.92-21.54-37.23l-1.56-1.96h0Z" fill="#fff"/>
      </g>
    </g>
  </g>
</svg>