<?xml version="1.0" encoding="UTF-8"?>
<svg xmlns="http://www.w3.org/2000/svg" version="1.1" viewBox="0 0 947.4 624.9">
  <!-- Generator: Adobe Illustrator 29.4.0, SVG Export Plug-In . SVG Version: 2.1.0 Build 152)  -->
  <defs>
    <style>
      .isc-st0 {
        fill: #fff;
      }

      .isc-st0, .isc-st1 {
        stroke-width: .5px;
      }

      .isc-st0, .isc-st1, .isc-st2, .isc-st3, .isc-st4 {
        stroke-linejoin: round;
      }

      .isc-st0, .isc-st2 {
        stroke-linecap: round;
      }

      .isc-st0, .isc-st5 {
        stroke: #333;
      }

      .isc-st1 {
        fill: #aa917d;
      }

      .isc-st1, .isc-st3, .isc-st6 {
        stroke: #827d67;
      }

      .isc-st7 {
        fill: #f9d193;
      }

      .isc-st2 {
        stroke: #000;
        stroke-width: .8px;
      }

      .isc-st2, .isc-st3, .isc-st4, .isc-st6, .isc-st5 {
        fill: none;
      }

      .isc-st8 {
        fill: #e2e2e2;
      }

      .isc-st4 {
        stroke: #fff;
        stroke-width: 1.1px;
      }

      .isc-st6, .isc-st5 {
        stroke-miterlimit: 10;
      }

      .isc-st9 {
        fill: #ea9b5d;
      }

      .isc-st5 {
        stroke-width: 2.1px;
      }
    </style>
  </defs>
  <g id="diagrammbasis">
    <g id="hintergrund">
      <rect class="isc-st8" x="77.1" y="64" width="407.8" height="460"/>
      <rect class="isc-st8" x="519.6" y="64" width="408" height="460"/>
    </g>
    <g id="grid">
      <!-- <line class="isc-st4" x1="77.1" y1="523.5" x2="484.9" y2="523.5"/> -->
      <line class="isc-st4" x1="77.1" y1="504.4" x2="484.9" y2="504.4"/>
      <line class="isc-st4" x1="77.1" y1="485.2" x2="484.9" y2="485.2"/>
      <line class="isc-st4" x1="77.1" y1="466.1" x2="484.9" y2="466.1"/>
      <line class="isc-st4" x1="77.1" y1="446.9" x2="484.9" y2="446.9"/>
      <line class="isc-st4" x1="77.1" y1="427.8" x2="484.9" y2="427.8"/>
      <line class="isc-st4" x1="77.1" y1="408.6" x2="484.9" y2="408.6"/>
      <line class="isc-st4" x1="77.1" y1="389.5" x2="484.9" y2="389.5"/>
      <line class="isc-st4" x1="77.1" y1="370.3" x2="484.9" y2="370.3"/>
      <line class="isc-st4" x1="77.1" y1="351.2" x2="484.9" y2="351.2"/>
      <line class="isc-st4" x1="77.1" y1="332" x2="484.9" y2="332"/>
      <line class="isc-st4" x1="77.1" y1="312.9" x2="484.9" y2="312.9"/>
      <line class="isc-st4" x1="77.1" y1="293.7" x2="484.9" y2="293.7"/>
      <line class="isc-st4" x1="77.1" y1="274.6" x2="484.9" y2="274.6"/>
      <line class="isc-st4" x1="77.1" y1="255.4" x2="484.9" y2="255.4"/>
      <line class="isc-st4" x1="77.1" y1="236.3" x2="484.9" y2="236.3"/>
      <line class="isc-st4" x1="77.1" y1="217.1" x2="484.9" y2="217.1"/>
      <line class="isc-st4" x1="77.1" y1="198" x2="484.9" y2="198"/>
      <line class="isc-st4" x1="77.1" y1="178.8" x2="484.9" y2="178.8"/>
      <line class="isc-st4" x1="77.1" y1="159.7" x2="484.9" y2="159.7"/>
      <line class="isc-st4" x1="77.1" y1="140.5" x2="484.9" y2="140.5"/>
      <!-- <line class="isc-st4" x1="519.6" y1="523.5" x2="927.6" y2="523.5"/> -->
      <line class="isc-st4" x1="519.6" y1="504.4" x2="927.6" y2="504.4"/>
      <line class="isc-st4" x1="519.6" y1="485.2" x2="927.6" y2="485.2"/>
      <line class="isc-st4" x1="519.6" y1="466.1" x2="927.6" y2="466.1"/>
      <line class="isc-st4" x1="519.6" y1="446.9" x2="927.6" y2="446.9"/>
      <line class="isc-st4" x1="519.6" y1="427.8" x2="927.6" y2="427.8"/>
      <line class="isc-st4" x1="519.6" y1="408.6" x2="927.6" y2="408.6"/>
      <line class="isc-st4" x1="519.6" y1="389.5" x2="927.6" y2="389.5"/>
      <line class="isc-st4" x1="519.6" y1="370.3" x2="927.6" y2="370.3"/>
      <line class="isc-st4" x1="519.6" y1="351.2" x2="927.6" y2="351.2"/>
      <line class="isc-st4" x1="519.6" y1="332" x2="927.6" y2="332"/>
      <line class="isc-st4" x1="519.6" y1="312.9" x2="927.6" y2="312.9"/>
      <line class="isc-st4" x1="519.6" y1="293.7" x2="927.6" y2="293.7"/>
      <line class="isc-st4" x1="519.6" y1="274.6" x2="927.6" y2="274.6"/>
      <line class="isc-st4" x1="519.6" y1="255.4" x2="927.6" y2="255.4"/>
      <line class="isc-st4" x1="519.6" y1="236.3" x2="927.6" y2="236.3"/>
      <line class="isc-st4" x1="519.6" y1="217.1" x2="927.6" y2="217.1"/>
      <line class="isc-st4" x1="519.6" y1="198" x2="927.6" y2="198"/>
      <line class="isc-st4" x1="519.6" y1="178.8" x2="927.6" y2="178.8"/>
      <line class="isc-st4" x1="519.6" y1="159.7" x2="927.6" y2="159.7"/>
      <line class="isc-st4" x1="519.6" y1="140.5" x2="927.6" y2="140.5"/>
      <line class="isc-st4" x1="77.1" y1="121.1" x2="484.8" y2="121.1"/>
      <line class="isc-st4" x1="77.1" y1="102" x2="484.8" y2="102"/>
      <line class="isc-st4" x1="77.1" y1="82.8" x2="484.8" y2="82.8"/>
      <!-- <line class="isc-st4" x1="77.1" y1="63.7" x2="484.8" y2="63.7"/> -->
      <!-- <line class="isc-st4" x1="511" y1="140.3" x2="918.9" y2="140.3"/> -->
      <line class="isc-st4" x1="519.5" y1="121.1" x2="927.5" y2="121.1"/>
      <line class="isc-st4" x1="519.5" y1="102" x2="927.5" y2="102"/>
      <line class="isc-st4" x1="519.5" y1="82.8" x2="927.5" y2="82.8"/>
      <!-- <line class="isc-st4" x1="519.5" y1="63.7" x2="927.5" y2="63.7"/> -->
    </g>
    <g id="rahmen">
      <rect class="isc-st2" x="77.1" y="64.8" width="407.8" height="459.1"/>
      <rect class="isc-st2" x="519.6" y="64.8" width="408" height="459.1"/>
    </g>
  </g>
  <g id="yachse">
    <g id="achsentitel">
      <path d="M25.7,343.9l-9.8-6.7v6.4h-.6v-7.3h.5l9.8,6.7v-6.8h.6v7.7h-.5Z"/>
      <path d="M22.2,335.4c-2.4,0-4.1-1.6-4.1-3.9s1.8-3.6,3.9-3.6v6.8h.2c2.1,0,3.6-1.4,3.6-3.3s-.9-2.6-2-3.2l.2-.4c1.3.5,2.4,1.8,2.4,3.6s-1.7,3.9-4.1,3.9ZM21.5,328.6c-1.6.2-2.9,1.2-2.9,2.9s1.2,2.9,2.9,3.1v-6Z"/>
      <path d="M15.3,325.4c0-.3.2-.5.5-.5s.5.2.5.5-.2.5-.5.5-.5-.2-.5-.5ZM18.3,325.8v-.7h7.9v.7h-7.9Z"/>
      <path d="M24.2,322.1h-5.3v1.3h-.4v-.6c-.1-.6-.3-.8-.9-.9h-1.3v-.6h2v-2.8h.6v2.8h5.3c1,0,1.6-.6,1.6-1.6s-.2-1-.3-1.3h.5c.2.3.4.9.4,1.5,0,1.3-.8,2.1-2.1,2.1Z"/>
      <path d="M21.7,313.9c-3.2,0-5.8-1.5-7-3.7l.3-.4c1.2,2,3.7,3.4,6.7,3.4s5.5-1.4,6.7-3.4l.3.4c-1.3,2.2-3.9,3.7-7,3.7Z"/>
      <path d="M15.3,308.1c0-.3.2-.5.5-.5s.5.2.5.5-.2.5-.5.5-.5-.2-.5-.5ZM18.3,308.4v-.7h7.9v.7h-7.9Z"/>
      <path d="M18.7,301.7c0,1.8,1.2,2.7,2.6,2.7h4.8v.7h-7.9v-.7h1.4c-.9-.5-1.5-1.4-1.5-2.8s1-2.9,3.2-2.9h4.9v.7h-4.8c-1.8,0-2.6.9-2.6,2.3Z"/>
      <path d="M24.7,293.3l-.5-.3c.9-.7,1.6-2,1.6-3.4s-.9-3.1-2.5-3.1-1.9.7-2.3,2.8v.4c-.6,2.4-1.4,3.4-2.9,3.4s-3-1.6-3-3.6.6-2.8,1.5-3.5l.5.3c-1,.7-1.5,1.9-1.5,3.3s.8,2.9,2.3,2.9,1.7-.8,2.2-2.9v-.4c.6-2.5,1.6-3.4,3-3.4s3.1,1.7,3.1,3.8-.7,3-1.6,3.8Z"/>
      <path d="M24.2,283.4h-5.3v1.4h-.4v-.6c-.1-.6-.3-.8-.9-.9h-1.3v-.6h2v-2.8h.6v2.8h5.3c1,0,1.6-.6,1.6-1.6s-.2-1-.3-1.3h.5c.2.3.4.9.4,1.5,0,1.3-.8,2.1-2.1,2.1Z"/>
      <path d="M23.2,278.5h-4.9v-.7h4.8c1.8,0,2.6-.9,2.6-2.3s-1.2-2.7-2.6-2.7h-4.8v-.7h7.9v.7h-1.4c.9.5,1.6,1.4,1.6,2.8s-1,2.9-3.2,2.9Z"/>
      <path d="M18.7,266.1c0,1.8,1.2,2.7,2.6,2.7h4.8v.7h-7.9v-.7h1.4c-.9-.5-1.5-1.4-1.5-2.8s1-2.9,3.2-2.9h4.9v.7h-4.8c-1.8,0-2.6.9-2.6,2.3Z"/>
      <path d="M22.2,261.1c-2.4,0-4.1-1.7-4.1-3.9s.8-2.7,2.1-3.3h-5.2v-.7h11.2v.7h-1.9c1.3.6,2.1,1.8,2.1,3.3,0,2.2-1.7,3.9-4.1,3.9ZM25.8,257.1c0-1.9-1.4-3.3-3.5-3.3s-3.5,1.4-3.5,3.3,1.4,3.3,3.5,3.3,3.5-1.4,3.5-3.3Z"/>
      <path d="M22.2,251c-2.4,0-4.1-1.6-4.1-3.9s1.8-3.6,3.9-3.6v6.8h.2c2.1,0,3.6-1.4,3.6-3.3s-.9-2.6-2-3.1l.2-.4c1.3.5,2.4,1.8,2.4,3.6s-1.7,3.9-4.1,3.9ZM21.5,244.3c-1.6.2-2.9,1.2-2.9,2.9s1.2,2.9,2.9,3.1v-6Z"/>
      <path d="M18.7,238.1c0,1.8,1.2,2.7,2.6,2.7h4.8v.7h-7.9v-.7h1.4c-.9-.5-1.5-1.4-1.5-2.8s1-2.9,3.2-2.9h4.9v.7h-4.8c-1.8,0-2.6.9-2.6,2.3Z"/>
      <path d="M21.7,230.3c-3,0-5.5,1.4-6.7,3.4l-.3-.3c1.3-2.2,3.9-3.7,7-3.7s5.8,1.5,7,3.7l-.3.3c-1.2-2-3.7-3.4-6.7-3.4Z"/>
    </g>
    <g>
      <path d="M55.8,229.2l-2.1,1.3-.2-.4,2.5-1.8h.5v10.9h-.7v-10Z"/>
      <path d="M58.7,237.2h.5c.5,1,1.5,1.6,2.8,1.6s3.1-1.2,3.1-3.1-1.1-3-2.8-3-2.1.7-2.6,1.2h-.6c0,0,.5-5.7.5-5.7h5.8v.6h-5.3l-.4,4.3c.5-.5,1.4-1.1,2.6-1.1,2.1,0,3.4,1.6,3.4,3.6s-1.6,3.7-3.8,3.7-2.8-.8-3.3-2.2Z"/>
    </g>
    <g>
      <path d="M53.9,66.9l3.9-3.8c1-.9,2.1-2.3,2.1-3.8s-1.1-2.4-2.6-2.4-2.7,1-2.9,2.8h-.5c.1-2.2,1.6-3.4,3.5-3.4s3.3,1.2,3.3,3-1.4,3.3-2.4,4.3l-3.3,3.2h6v.6h-7v-.4Z"/>
      <path d="M67.1,64.5h-5.4v-.5l5.4-7.5h.7v7.5h1.9v.6h-1.9v2.9h-.7v-2.9ZM67.1,63.9v-6.5l-4.7,6.5h4.7Z"/>
    </g>
    <g>
      <path d="M55.8,325.8l-2.1,1.3-.2-.4,2.5-1.8h.5v10.9h-.7v-10Z"/>
      <path d="M58.9,330.3c0-3.4,1.5-5.6,4-5.6s4,2.2,4,5.6-1.5,5.6-4,5.6-4-2.2-4-5.6ZM62.9,335.4c2.1,0,3.3-1.9,3.3-5s-1.2-5-3.3-5-3.3,1.9-3.3,5,1.2,5,3.3,5Z"/>
    </g>
    <path d="M58.4,428.9h.5c.5,1,1.5,1.6,2.8,1.6s3.1-1.2,3.1-3.1-1.1-3-2.8-3-2.1.7-2.6,1.2h-.6c0,0,.5-5.7.5-5.7h5.8v.6h-5.3l-.4,4.3c.5-.5,1.4-1.1,2.6-1.1,2.1,0,3.4,1.6,3.4,3.6s-1.6,3.7-3.8,3.7-2.8-.8-3.3-2.2Z"/>
    <path d="M56.4,522.3c-.3-3.4.9-5.8,3.5-6,2.5-.3,4.2,1.8,4.6,5.2.3,3.4-.9,5.8-3.4,6-2.5.3-4.2-1.8-4.6-5.2ZM61,526.9c2.1-.2,3.1-2.2,2.8-5.3-.3-3.1-1.7-4.9-3.8-4.7-2.1.2-3.1,2.2-2.8,5.3s1.7,4.9,3.8,4.7Z"/>
  </g>
  <g id="xachse">
    <g id="achsentitel1" data-name="achsentitel">
      <path d="M414.8,596.9h-6.8v5.3h-.7v-10.9h.7v5h6.8v-5h.7v10.9h-.7v-5.3Z"/>
      <path d="M417.7,598.3c0-2.4,1.7-4.1,4-4.1s4,1.7,4,4.1-1.7,4.1-4,4.1-4-1.7-4-4.1ZM421.7,601.9c1.9,0,3.3-1.5,3.3-3.6s-1.4-3.6-3.3-3.6-3.3,1.5-3.3,3.6,1.4,3.6,3.3,3.6ZM420.6,591.8c.3,0,.5.2.5.5s-.2.5-.5.5-.5-.2-.5-.5.2-.5.5-.5ZM422.9,591.8c.3,0,.5.2.5.5s-.2.5-.5.5-.5-.2-.5-.5.2-.5.5-.5Z"/>
      <path d="M427.3,598.3c0-2.4,1.7-4.1,3.9-4.1s3,.9,3.6,2.5l-.6.2c-.5-1.3-1.6-2.1-3-2.1s-3.3,1.4-3.3,3.5,1.4,3.5,3.3,3.5,2.6-.8,3.2-2l.4.2c-.5,1.4-1.9,2.4-3.7,2.4s-3.9-1.7-3.9-4.1Z"/>
      <path d="M436.9,591h.7v4.7c.5-.9,1.4-1.5,2.8-1.5s2.9,1,2.9,3.2v4.9h-.7v-4.8c0-1.8-.9-2.6-2.3-2.6s-2.7,1.2-2.7,2.6v4.8h-.7v-11.2Z"/>
      <path d="M445.2,601.2l.3-.4c.6.7,1.5,1.1,2.5,1.1s2.2-.6,2.2-1.7-.6-1.4-2.1-1.7h-.3c-1.8-.5-2.5-1.1-2.5-2.2s1.1-2.1,2.6-2.1,2.1.4,2.7,1l-.3.4c-.6-.6-1.5-.9-2.5-.9s-1.9.4-1.9,1.5.5,1.3,2,1.6h.3c1.8.5,2.5,1.2,2.5,2.3s-1.3,2.2-2.8,2.2-2.1-.5-2.8-1.2Z"/>
      <path d="M453.2,600.3v-5.3h-1.3v-.4h.6c.6-.1.8-.3.9-.9v-1.3h.6v2h2.8v.6h-2.8v5.3c0,1,.6,1.6,1.6,1.6s1-.2,1.3-.3v.5c-.3.2-.9.4-1.5.4-1.3,0-2.1-.8-2.1-2.1Z"/>
      <path d="M457.7,598.3c0-2.4,1.6-4.1,3.9-4.1s3.6,1.8,3.6,3.9h-6.8v.2c0,2.1,1.4,3.6,3.3,3.6s2.6-.9,3.2-2l.4.2c-.5,1.3-1.8,2.4-3.6,2.4s-3.9-1.7-3.9-4.1ZM464.5,597.6c-.2-1.7-1.2-2.9-2.9-2.9s-2.9,1.2-3.1,2.9h6Z"/>
      <path d="M467.3,594.4h.7v2.1c.5-1.3,1.7-2.3,3.2-2v.6c-1.9-.2-3.2,1.3-3.2,3.1v4.2h-.7v-7.9Z"/>
      <path d="M476,591.3h3.8c2.3,0,3.5.9,3.5,2.7s-.9,2.1-2.1,2.5c1.6.3,2.5,1.3,2.5,2.9s-1.4,2.9-3.7,2.9h-4.1v-10.9ZM480,596.3c1.5,0,2.7-.9,2.7-2.2s-.9-2.2-2.8-2.2h-3.1v4.4h3.3ZM480.1,601.7c1.9,0,3-.9,3-2.3s-1.2-2.5-3.1-2.5h-3.3v4.8h3.4Z"/>
      <path d="M486.3,591.4c.3,0,.5.2.5.5s-.2.5-.5.5-.5-.2-.5-.5.2-.5.5-.5ZM486,594.4h.7v7.9h-.7v-7.9Z"/>
      <path d="M489.3,591h.7v11.2h-.7v-11.2Z"/>
      <path d="M492.1,598.3c0-2.4,1.7-4.1,3.9-4.1s2.7.8,3.3,2.1v-5.2h.7v11.2h-.7v-1.9c-.6,1.3-1.8,2.1-3.3,2.1-2.2,0-3.9-1.7-3.9-4.1ZM496.1,601.9c1.9,0,3.3-1.4,3.3-3.5s-1.4-3.5-3.3-3.5-3.3,1.4-3.3,3.5,1.4,3.5,3.3,3.5Z"/>
      <path d="M502.3,599.3v-4.9h.7v4.8c0,1.8.9,2.6,2.3,2.6s2.7-1.2,2.7-2.6v-4.8h.7v7.9h-.7v-1.4c-.5.9-1.4,1.6-2.8,1.6s-2.9-1-2.9-3.2Z"/>
      <path d="M514.7,594.8c-1.8,0-2.7,1.2-2.7,2.6v4.8h-.7v-7.9h.7v1.4c.5-.9,1.4-1.5,2.8-1.5s2.9,1,2.9,3.2v4.9h-.7v-4.8c0-1.8-.9-2.6-2.3-2.6Z"/>
      <path d="M519.6,603.3c0-.8.4-1.5,1.3-1.9-.5-.1-.8-.5-.8-1s.4-.9,1.1-1.2c-.9-.5-1.4-1.3-1.4-2.3,0-1.6,1.3-2.7,3-2.7s1,.1,1.5.3c.7-.1,1.6-.2,2.4-.2v.6h-1.7c.6.5.9,1.2.9,2,0,1.6-1.2,2.7-3,2.7s-.9,0-1.2-.2c-.7.4-.9.6-.9.9s.2.6.8.6h2.7c1.6,0,2.5.8,2.5,2s-1.4,2.6-3.9,2.6-3.3-1-3.3-2.2ZM522.9,605c2.1,0,3.2-.9,3.2-2.1s-.7-1.5-1.9-1.5h-2.7c-.9.5-1.2,1-1.2,1.8s.9,1.8,2.7,1.8ZM522.9,599.1c1.4,0,2.4-.9,2.4-2.2s-1-2.2-2.4-2.2-2.4.9-2.4,2.2,1,2.2,2.4,2.2Z"/>
      <path d="M527.8,601.2l.3-.4c.6.7,1.5,1.1,2.5,1.1s2.2-.6,2.2-1.7-.6-1.4-2.1-1.7h-.3c-1.8-.5-2.5-1.1-2.5-2.2s1.1-2.1,2.6-2.1,2.1.4,2.7,1l-.3.4c-.6-.6-1.5-.9-2.5-.9s-1.9.4-1.9,1.5.5,1.3,2,1.6h.3c1.8.5,2.5,1.2,2.5,2.3s-1.3,2.2-2.8,2.2-2.1-.5-2.8-1.2Z"/>
      <path d="M540.7,600.8c-.5.9-1.6,1.6-3,1.6s-2.6-.8-2.6-2.2,1.2-2.3,3.3-2.3h2.4v-.6c0-1.7-.8-2.5-2.3-2.5s-2.1.6-2.7,1.6l-.4-.3c.5-1.2,1.6-2,3.1-2s2.9,1.1,2.9,3.1v4.9h-.7v-1.4ZM537.7,601.9c1.8,0,2.9-1.2,2.9-2.5v-.9h-2.3c-1.9,0-2.7.6-2.7,1.7s.8,1.7,2.1,1.7Z"/>
      <path d="M543.6,591h.7v5.2c.6-1.3,1.8-2.1,3.3-2.1,2.2,0,3.9,1.7,3.9,4.1s-1.7,4.1-3.9,4.1-2.7-.8-3.3-2.1v1.9h-.7v-11.2ZM547.5,601.9c1.9,0,3.3-1.4,3.3-3.5s-1.4-3.5-3.3-3.5-3.3,1.4-3.3,3.5,1.4,3.5,3.3,3.5Z"/>
      <path d="M553,601.2l.3-.4c.6.7,1.5,1.1,2.5,1.1s2.2-.6,2.2-1.7-.6-1.4-2.1-1.7h-.3c-1.8-.5-2.5-1.1-2.5-2.2s1.1-2.1,2.6-2.1,2.1.4,2.7,1l-.3.4c-.6-.6-1.5-.9-2.5-.9s-1.9.4-1.9,1.5.5,1.3,2,1.6h.3c1.8.5,2.5,1.2,2.5,2.3s-1.3,2.2-2.8,2.2-2.1-.5-2.8-1.2Z"/>
      <path d="M560.2,598.3c0-2.4,1.7-4.1,3.9-4.1s3,.9,3.6,2.5l-.6.2c-.5-1.3-1.6-2.1-3-2.1s-3.3,1.4-3.3,3.5,1.4,3.5,3.3,3.5,2.6-.8,3.2-2l.4.2c-.5,1.4-1.9,2.4-3.7,2.4s-3.9-1.7-3.9-4.1Z"/>
      <path d="M569.7,591h.7v4.7c.5-.9,1.4-1.5,2.8-1.5s2.9,1,2.9,3.2v4.9h-.7v-4.8c0-1.8-.9-2.6-2.3-2.6s-2.7,1.2-2.7,2.6v4.8h-.7v-11.2Z"/>
      <path d="M578.6,591h.7v11.2h-.7v-11.2Z"/>
      <path d="M581.9,599.3v-4.9h.7v4.8c0,1.8.9,2.6,2.3,2.6s2.7-1.2,2.7-2.6v-4.8h.7v7.9h-.7v-1.4c-.5.9-1.4,1.6-2.8,1.6s-2.9-1-2.9-3.2Z"/>
      <path d="M590.1,601.2l.3-.4c.6.7,1.5,1.1,2.5,1.1s2.2-.6,2.2-1.7-.6-1.4-2.1-1.7h-.3c-1.8-.5-2.5-1.1-2.5-2.2s1.1-2.1,2.6-2.1,2.1.4,2.7,1l-.3.4c-.6-.6-1.5-.9-2.5-.9s-1.9.4-1.9,1.5.5,1.3,2,1.6h.3c1.8.5,2.5,1.2,2.5,2.3s-1.3,2.2-2.8,2.2-2.1-.5-2.8-1.2Z"/>
      <path d="M597.2,601.2l.3-.4c.6.7,1.5,1.1,2.5,1.1s2.2-.6,2.2-1.7-.6-1.4-2.1-1.7h-.3c-1.8-.5-2.5-1.1-2.5-2.2s1.1-2.1,2.6-2.1,2.1.4,2.7,1l-.3.4c-.6-.6-1.5-.9-2.5-.9s-1.9.4-1.9,1.5.5,1.3,2,1.6h.3c1.8.5,2.5,1.2,2.5,2.3s-1.3,2.2-2.8,2.2-2.1-.5-2.8-1.2Z"/>
    </g>
    <g id="m">
      <g id="hbah">
        <path d="M419.5,551.8l-6.5,2.1,1.6,5.1-.7.2-3.4-10.4.7-.2,1.5,4.7,6.5-2.1-1.5-4.7.7-.2,3.4,10.4-.7.2-1.6-5.1Z"/>
        <path d="M422.6,552.2c-.7-2.3.3-4.4,2.5-5.1,2.2-.7,4.3.4,5,2.7.7,2.3-.3,4.4-2.5,5.1-2.2.7-4.3-.4-5-2.7ZM423.3,545.1c.3,0,.5,0,.6.3,0,.3,0,.5-.3.6-.3,0-.5,0-.6-.3,0-.2,0-.5.3-.6ZM427.5,554.4c1.8-.6,2.7-2.4,2-4.4-.6-2-2.4-3-4.2-2.4s-2.7,2.4-2,4.4c.6,2,2.4,3,4.2,2.4ZM425.5,544.4c.2,0,.5,0,.6.3,0,.3,0,.5-.3.6-.3,0-.5,0-.6-.3,0-.2,0-.5.3-.6Z"/>
        <path d="M429.9,542.2l.7-.2,1.4,4.5c.2-1,.9-1.9,2.2-2.3,1.7-.5,3.1,0,3.7,2.1l1.5,4.6-.7.2-1.5-4.6c-.5-1.7-1.6-2.2-3-1.8-1.7.5-2.2,2-1.7,3.3l1.5,4.6-.7.2-3.5-10.7Z"/>
        <path d="M440.2,546.5c-.7-2.2.3-4.4,2.4-5.1,2.2-.7,4,.6,4.7,2.6l-6.5,2.1v.2c.7,2,2.5,3,4.3,2.4,1.4-.5,2.2-1.6,2.4-2.9h.4c0,1.4-.9,2.9-2.7,3.5-2.2.7-4.3-.4-5-2.7ZM446.4,543.8c-.7-1.5-2-2.4-3.7-1.9-1.6.5-2.4,2-2.1,3.7l5.8-1.9Z"/>
        <path d="M448.1,539.9l.6-.2.6,2c0-1.4.9-2.7,2.5-2.9v.6c-1.7.4-2.5,2.2-1.9,3.9l1.3,4-.7.2-2.4-7.5Z"/>
        <path d="M453.6,542.2c-.7-2.2.3-4.4,2.4-5.1,2.2-.7,4,.6,4.7,2.6l-6.5,2.1v.2c.7,2,2.5,3,4.3,2.4,1.4-.5,2.2-1.6,2.4-2.9h.4c0,1.4-.9,2.9-2.7,3.5-2.2.7-4.3-.4-5-2.7ZM459.8,539.5c-.7-1.5-2-2.4-3.7-1.9-1.6.5-2.4,2-2.1,3.7l5.8-1.9Z"/>
        <path d="M417.7,565.4l3.6-1.2c2.2-.7,3.6-.2,4.2,1.5.4,1.2-.2,2.2-1.2,3,1.6-.2,2.8.5,3.3,2,.6,1.7-.5,3.2-2.7,3.9l-3.9,1.3-3.4-10.4ZM423.1,568.9c1.4-.5,2.2-1.7,1.9-2.9-.4-1.4-1.6-1.8-3.4-1.2l-2.9.9,1.4,4.2,3.1-1ZM424.8,574c1.8-.6,2.6-1.8,2.2-3.1-.5-1.5-1.9-2-3.7-1.4l-3.1,1,1.5,4.6,3.2-1Z"/>
        <path d="M427.6,562.3c.3,0,.6,0,.7.3,0,.3,0,.6-.3.6-.3,0-.6,0-.6-.3,0-.3,0-.6.3-.6ZM428.2,565.2l.7-.2,2.4,7.5-.7.2-2.4-7.5Z"/>
        <path d="M430.3,561l.7-.2,3.5,10.7-.7.2-3.5-10.7Z"/>
        <path d="M435.2,567.1c-.7-2.3.3-4.4,2.4-5.1,1.4-.5,2.8,0,3.8.9l-1.6-5,.7-.2,3.5,10.7-.6.2-.6-1.8c-.2,1.4-1.1,2.6-2.5,3-2.1.7-4.2-.4-5-2.7ZM440.1,569.2c1.8-.6,2.7-2.4,2-4.4-.6-2-2.4-2.9-4.2-2.4-1.8.6-2.7,2.4-2,4.4.6,2,2.4,2.9,4.2,2.4Z"/>
        <path d="M445.2,564.8l-1.5-4.6.7-.2,1.5,4.6c.5,1.7,1.6,2.2,3,1.8,1.7-.5,2.2-2,1.7-3.3l-1.5-4.6.7-.2,2.4,7.5-.6.2-.4-1.3c-.2,1-.9,1.9-2.2,2.4-1.6.5-3.1,0-3.7-2.1Z"/>
        <path d="M455.6,556.8c-1.7.5-2.2,2-1.7,3.3l1.5,4.6-.7.2-2.4-7.5.6-.2.4,1.3c.2-1,.9-1.9,2.2-2.3,1.7-.5,3.1,0,3.7,2.1l1.5,4.6-.7.2-1.5-4.6c-.5-1.7-1.6-2.2-3-1.8Z"/>
        <path d="M462.9,563.4c-.3-.8,0-1.5.7-2.2-.5,0-.9-.2-1-.7-.1-.5.1-.9.6-1.5-1-.2-1.7-.8-2-1.8-.5-1.5.4-3,2.1-3.5.5-.2,1-.2,1.5-.2.6-.3,1.5-.6,2.2-.9l.2.6-1.6.5c.7.3,1.2.8,1.5,1.6.5,1.5-.3,3-2.1,3.5-.4.1-.8.2-1.2.2-.5.6-.7.9-.6,1.1.1.3.4.5.9.3l2.6-.8c1.5-.5,2.6,0,3,1.1.5,1.4-.6,2.9-2.9,3.7-2.1.7-3.4,0-3.8-1.1ZM464.7,558.4c1.4-.4,2-1.6,1.6-2.8-.4-1.2-1.6-1.8-2.9-1.3s-2,1.6-1.6,2.8c.4,1.2,1.6,1.8,2.9,1.3ZM466.6,564c2-.6,2.8-1.8,2.4-2.9-.3-.9-1.1-1.2-2.3-.8l-2.6.8c-.7.7-.9,1.4-.6,2.1.3.9,1.4,1.4,3.1.9Z"/>
      </g>
      <g id="hbasmm">
        <path d="M295,571.3v-.6c1.1.7,2.5.9,3.9.4,1.7-.5,2.7-1.8,2.2-3.3-.4-1.1-1.3-1.6-3.4-1.4h-.4c-2.5.3-3.6-.2-4.1-1.6-.6-1.9.6-3.3,2.5-3.9,1.4-.5,2.8-.3,3.8.4v.6c-1-.7-2.4-.8-3.6-.4-1.6.5-2.5,1.6-2,3.1.4,1.1,1.3,1.4,3.4,1.2h.4c2.5-.3,3.7.3,4.1,1.7.6,1.9-.7,3.5-2.7,4.1-1.5.5-3,.3-4.1-.4Z"/>
        <path d="M303,566.1c-.7-2.2.3-4.4,2.4-5.1,2.2-.7,4,.6,4.7,2.6l-6.5,2.1v.2c.7,2,2.5,3,4.3,2.4,1.4-.5,2.2-1.6,2.4-2.9h.4c0,1.4-.9,2.9-2.7,3.5-2.2.7-4.3-.4-5-2.7ZM309.2,563.3c-.7-1.5-2-2.4-3.7-1.9-1.6.5-2.4,2-2.1,3.7l5.8-1.9Z"/>
        <path d="M309.7,556.2l.7-.2,2.3,7,2.8-5.1.8-.2-2.3,4.2,4.9,3.2-.8.3-4.5-2.9-.7,1.3,1,2.9-.7.2-3.5-10.7Z"/>
        <path d="M319.2,561.8l-1.5-4.6.7-.2,1.5,4.6c.5,1.7,1.6,2.2,3,1.8,1.7-.5,2.2-2,1.7-3.3l-1.5-4.6.7-.2,2.4,7.5-.6.2-.4-1.3c-.2,1-.9,1.9-2.2,2.4-1.6.5-3.1,0-3.7-2.1Z"/>
        <path d="M329.6,553.8c-1.7.5-2.2,2-1.7,3.3l1.5,4.6-.7.2-2.4-7.5.6-.2.4,1.3c.2-1,.9-1.9,2.2-2.3,1.7-.5,3.1,0,3.7,2.1l1.5,4.6-.7.2-1.5-4.6c-.5-1.7-1.6-2.2-3-1.8Z"/>
        <path d="M335.4,555.6c-.7-2.3.3-4.4,2.4-5.1,1.4-.5,2.8,0,3.8.9l-1.6-5,.7-.2,3.5,10.7-.6.2-.6-1.8c-.2,1.4-1.1,2.6-2.5,3-2.1.7-4.2-.4-5-2.7ZM340.3,557.7c1.8-.6,2.7-2.4,2-4.4-.6-2-2.4-2.9-4.2-2.4-1.8.6-2.7,2.4-2,4.4.6,2,2.4,2.9,4.2,2.4Z"/>
        <path d="M351,553.2c-.2,1-1,2-2.4,2.5-1.5.5-2.8,0-3.2-1.3-.4-1.4.4-2.5,2.4-3.2l2.3-.7-.2-.6c-.5-1.6-1.6-2.1-2.9-1.7-1.2.4-1.8,1.2-2,2.4h-.4c.1-1.4.9-2.5,2.4-3,1.7-.6,3.1.1,3.7,2l1.5,4.7-.6.2-.4-1.4ZM348.5,555.2c1.7-.5,2.4-2.1,2-3.3l-.3-.9-2.2.7c-1.8.6-2.3,1.4-2,2.5s1.3,1.4,2.5,1Z"/>
        <path d="M352,546.1l.6-.2.6,2c0-1.4.9-2.7,2.5-2.9v.6c-1.7.4-2.5,2.2-1.9,3.9l1.3,4-.7.2-2.4-7.5Z"/>
        <path d="M358.7,551.1v-.5c.9.4,1.8.6,2.8.3,1.2-.4,1.9-1.2,1.6-2.3-.3-.8-.9-1.1-2.5-1h-.3c-1.8.2-2.7-.2-3-1.3-.4-1.4.4-2.3,1.8-2.8,1.1-.3,2.1-.2,2.9.1v.5c-.8-.3-1.8-.4-2.7-.1-1.1.3-1.7,1-1.4,2,.3.8.9,1,2.4.9h.3c1.9-.2,2.8.3,3.1,1.3.4,1.4-.5,2.5-2,3-1.2.4-2.2.2-3-.3Z"/>
        <path d="M366,547.8l-1.6-5.1-1.3.4v-.4c-.1,0,.4-.2.4-.2.5-.2.7-.4.6-1.1l-.3-1.2.5-.2.6,1.9,2.7-.9.2.5-2.7.9,1.6,5.1c.3,1,1.1,1.4,2,1.1.5-.2.9-.5,1.1-.7l.2.4c-.3.3-.8.7-1.4.9-1.2.4-2.2-.1-2.6-1.4Z"/>
        <path d="M370.4,545.3l-1.5-4.6.7-.2,1.5,4.6c.5,1.7,1.6,2.2,3,1.8,1.7-.5,2.2-2,1.7-3.3l-1.5-4.6.7-.2,2.4,7.5-.6.2-.4-1.3c-.2,1-.9,1.9-2.2,2.4-1.6.5-3.1,0-3.7-2.1Z"/>
        <path d="M379,533.6c.5-.2,1.1-.2,1.5-.1v.5c-.3,0-.8,0-1.2.2-1.1.3-1.5,1.2-1.1,2.3l.4,1.1,2.7-.9.2.5-2.7.9,2.2,7-.7.2-2.2-7-1.3.4-.2-.5,1.3-.4-.4-1.1c-.5-1.4.1-2.5,1.5-3Z"/>
        <path d="M382.8,540.2c-.7-2.2.3-4.4,2.4-5.1,2.2-.7,4,.6,4.7,2.6l-6.5,2.1v.2c.7,2,2.5,3,4.3,2.4s2.2-1.6,2.4-2.9h.4c0,1.4-.9,2.9-2.7,3.5-2.2.7-4.3-.4-5-2.7ZM389.1,537.5c-.7-1.5-2-2.4-3.7-1.9-1.6.5-2.4,2-2.1,3.7l5.8-1.9Z"/>
        <path d="M308.9,582.5c-1-3-.3-6,1.4-7.8l.4.2c-1.5,1.8-2.2,4.6-1.2,7.5s3,4.8,5.3,5.3l-.2.4c-2.5-.5-4.7-2.5-5.7-5.5Z"/>
        <path d="M316.3,577c-1.6.5-2.1,2-1.7,3.3l1.5,4.6-.7.2-2.4-7.5.6-.2.4,1.3c.2-1,.9-1.9,2.2-2.3,1.2-.4,2.3-.1,3,.9.1-1.1.8-2.1,2.2-2.6,1.6-.5,3,.1,3.7,2.2l1.5,4.6-.7.2-1.5-4.6c-.5-1.7-1.6-2.3-3-1.8-1.7.5-2.1,2-1.7,3.3l1.5,4.6-.7.2-1.5-4.6c-.5-1.7-1.6-2.3-3-1.8Z"/>
        <path d="M326.1,570.3c.3,0,.6,0,.7.3s0,.6-.3.6c-.3,0-.6,0-.6-.3,0-.3,0-.6.3-.6ZM326.7,573.2l.7-.2,2.4,7.5-.7.2-2.4-7.5Z"/>
        <path d="M332,577.7l-1.6-5.1-1.3.4v-.4c-.1,0,.4-.2.4-.2.5-.2.7-.4.6-1.1l-.3-1.2.5-.2.6,1.9,2.7-.9.2.5-2.7.9,1.6,5.1c.3,1,1.1,1.4,2,1.1.5-.2.9-.5,1.1-.7l.2.4c-.3.3-.8.7-1.4.9-1.2.4-2.2-.1-2.6-1.4Z"/>
        <path d="M337.6,566.4l.8-.3,7.4,8,1.3-10.8.8-.3,3.4,10.4-.7.2-3-9.4-1.3,10.8h-.4c0,.1-7.3-7.8-7.3-7.8l3,9.3-.6.2-3.4-10.4Z"/>
        <path d="M358.3,569.7c-.2,1-1,2-2.4,2.5-1.5.5-2.8,0-3.2-1.3-.4-1.4.4-2.5,2.4-3.2l2.3-.7-.2-.6c-.5-1.6-1.6-2.1-2.9-1.7-1.2.4-1.8,1.2-2,2.4h-.4c.1-1.4.9-2.5,2.4-3,1.7-.6,3.1.1,3.7,2l1.5,4.7-.6.2-.4-1.4ZM355.9,571.7c1.7-.5,2.4-2.1,2-3.3l-.3-.9-2.2.7c-1.8.6-2.3,1.4-2,2.5s1.3,1.4,2.5,1Z"/>
        <path d="M361.4,568.2l-1.6-5.1-1.3.4v-.4c-.1,0,.4-.2.4-.2.5-.2.7-.4.6-1.1l-.3-1.2.5-.2.6,1.9,2.7-.9.2.5-2.7.9,1.6,5.1c.3,1,1.1,1.4,2,1.1.5-.2.9-.5,1.1-.7l.2.4c-.3.3-.8.7-1.4.9-1.2.4-2.2-.1-2.6-1.4Z"/>
        <path d="M365.8,565.7l-1.5-4.6.7-.2,1.5,4.6c.5,1.7,1.6,2.2,3,1.8,1.7-.5,2.2-2,1.7-3.3l-1.5-4.6.7-.2,2.4,7.5-.6.2-.4-1.3c-.2,1-.9,1.9-2.2,2.4-1.6.5-3.1,0-3.7-2.1Z"/>
        <path d="M372.9,558.3l.6-.2.6,2c0-1.4.9-2.7,2.5-2.9v.6c-1.7.4-2.5,2.2-1.9,3.9l1.3,4-.7.2-2.4-7.5Z"/>
        <path d="M384.6,561.2c-.2,1-1,2-2.4,2.5-1.5.5-2.8,0-3.2-1.3-.4-1.4.4-2.5,2.4-3.2l2.3-.7-.2-.6c-.5-1.6-1.6-2.1-2.9-1.7-1.2.4-1.8,1.2-2,2.4h-.4c.1-1.4.9-2.5,2.4-3,1.7-.6,3.1.1,3.7,2l1.5,4.7-.6.2-.4-1.4ZM382.1,563.2c1.7-.5,2.4-2.1,2-3.3l-.3-.9-2.2.7c-1.8.6-2.3,1.4-2,2.5.3,1,1.3,1.4,2.5,1Z"/>
        <path d="M388.8,556.7c-.9-2.9-3-4.8-5.3-5.3l.2-.4c2.5.5,4.7,2.5,5.7,5.5,1,3,.3,6-1.4,7.8l-.4-.2c1.5-1.8,2.1-4.6,1.2-7.5Z"/>
      </g>
      <g id="hbasom">
        <path d="M184.5,570.8v-.6c1.1.7,2.6.9,4.1.4,1.8-.5,2.9-1.8,2.4-3.3-.4-1.1-1.3-1.6-3.6-1.3h-.5c-2.6.3-3.9-.2-4.4-1.6-.6-1.8.6-3.3,2.6-3.9,1.5-.5,3-.3,4.1.4v.6c-1.1-.7-2.5-.8-3.9-.4-1.7.5-2.7,1.6-2.1,3.1.4,1.1,1.3,1.4,3.6,1.2h.4c2.7-.3,3.9.3,4.4,1.7.7,1.9-.7,3.5-2.9,4.1-1.6.5-3.2.3-4.3-.4Z"/>
        <path d="M193,565.7c-.8-2.2.3-4.4,2.6-5,2.3-.7,4.2.6,5,2.6l-6.9,2.1v.2c.8,2,2.6,2.9,4.6,2.4,1.5-.5,2.4-1.6,2.5-2.9h.5c0,1.4-1,2.9-2.9,3.4-2.3.7-4.6-.4-5.3-2.7ZM199.7,562.9c-.7-1.5-2.2-2.4-3.9-1.9-1.7.5-2.6,2-2.2,3.7l6.1-1.8Z"/>
        <path d="M200.2,555.9l.7-.2,2.4,7,3-5.1.8-.2-2.4,4.2,5.3,3.2-.8.3-4.8-2.9-.8,1.3,1,2.9-.7.2-3.7-10.6Z"/>
        <path d="M210.3,561.5l-1.6-4.6.7-.2,1.6,4.5c.6,1.7,1.7,2.2,3.2,1.8,1.8-.5,2.3-2,1.9-3.3l-1.6-4.5.7-.2,2.6,7.4-.7.2-.5-1.3c-.2,1-1,1.9-2.4,2.3-1.8.5-3.3,0-4-2.1Z"/>
        <path d="M221.5,553.5c-1.8.5-2.3,2-1.9,3.3l1.6,4.5-.7.2-2.6-7.4.7-.2.4,1.3c.2-1,1-1.9,2.3-2.3,1.8-.5,3.3,0,4,2.1l1.6,4.6-.7.2-1.6-4.5c-.6-1.7-1.7-2.2-3.2-1.8Z"/>
        <path d="M227.7,555.2c-.8-2.3.3-4.4,2.6-5.1,1.5-.5,3,0,4,.9l-1.7-4.9.7-.2,3.7,10.6-.7.2-.6-1.8c-.2,1.4-1.1,2.6-2.7,3-2.3.7-4.5-.4-5.3-2.7ZM232.9,557.4c1.9-.6,2.8-2.4,2.1-4.3-.7-2-2.6-2.9-4.5-2.3-1.9.6-2.8,2.4-2.1,4.3.7,2,2.6,2.9,4.5,2.3Z"/>
        <path d="M244.3,552.9c-.2,1-1.1,2-2.5,2.5-1.6.5-3,0-3.4-1.3-.5-1.4.5-2.5,2.6-3.2l2.4-.7-.2-.6c-.6-1.6-1.7-2.1-3.1-1.7-1.3.4-2,1.2-2.2,2.4h-.5c.1-1.4,1-2.5,2.5-3,1.8-.6,3.3.1,4,2l1.6,4.7-.7.2-.5-1.4ZM241.7,554.8c1.8-.5,2.6-2,2.1-3.3l-.3-.9-2.3.7c-1.9.6-2.5,1.4-2.1,2.5.4,1,1.4,1.4,2.7,1Z"/>
        <path d="M245.5,545.8l.7-.2.7,1.9c0-1.4,1-2.7,2.6-2.9v.6c-1.8.4-2.7,2.1-2.1,3.8l1.4,4-.7.2-2.6-7.4Z"/>
        <path d="M252.6,550.8v-.5c1,.4,2,.6,3,.3,1.3-.4,2-1.2,1.7-2.3-.3-.8-1-1.1-2.6-1h-.3c-2,.2-2.8-.2-3.2-1.2-.5-1.3.5-2.3,1.9-2.8,1.1-.3,2.3-.2,3.1.1v.5c-.9-.3-1.9-.4-2.9-.1-1.1.3-1.8,1-1.5,2,.3.8.9,1,2.5.9h.3c2-.2,3,.3,3.3,1.3.5,1.4-.6,2.5-2.1,3-1.2.4-2.3.2-3.2-.3Z"/>
        <path d="M260.4,547.5l-1.8-5-1.4.4v-.4c-.1,0,.5-.2.5-.2.6-.2.8-.4.6-1.1l-.3-1.2.5-.2.7,1.9,2.9-.9.2.5-2.9.9,1.7,5c.3,1,1.1,1.4,2.1,1.1.5-.2.9-.5,1.2-.7l.2.4c-.3.3-.8.7-1.5.9-1.3.4-2.4-.1-2.8-1.4Z"/>
        <path d="M265.1,545l-1.6-4.6.7-.2,1.6,4.5c.6,1.7,1.7,2.2,3.2,1.8,1.8-.5,2.3-2,1.9-3.3l-1.6-4.5.7-.2,2.6,7.4-.7.2-.5-1.3c-.2,1-1,1.9-2.4,2.3-1.8.5-3.3,0-4-2.1Z"/>
        <path d="M274.3,533.5c.6-.2,1.1-.2,1.6-.1v.5c-.4,0-.9,0-1.3.1-1.1.3-1.6,1.2-1.2,2.2l.4,1.1,2.8-.9.2.5-2.8.9,2.4,6.9-.7.2-2.4-6.9-1.4.4-.2-.5,1.4-.4-.4-1.1c-.5-1.4.1-2.5,1.6-2.9Z"/>
        <path d="M278.3,540c-.8-2.2.3-4.4,2.6-5,2.3-.7,4.2.6,5,2.6l-6.9,2.1v.2c.7,2,2.6,2.9,4.6,2.3,1.5-.5,2.4-1.6,2.5-2.9h.5c0,1.4-1,2.9-2.9,3.4-2.3.7-4.6-.4-5.3-2.7ZM285,537.3c-.7-1.5-2.2-2.4-3.9-1.9-1.7.5-2.6,2-2.2,3.7l6.1-1.8Z"/>
        <path d="M192.9,583.9c-1-3-.3-5.9,1.5-7.8l.5.2c-1.6,1.8-2.3,4.5-1.3,7.4,1,2.9,3.2,4.7,5.7,5.3l-.3.4c-2.6-.5-5-2.5-6.1-5.5Z"/>
        <path d="M197.6,583.1c-.8-2.3.4-4.4,2.7-5.1,2.3-.7,4.6.4,5.4,2.7.8,2.3-.4,4.4-2.7,5.1-2.3.7-4.6-.4-5.4-2.7ZM202.8,585.2c1.9-.6,2.8-2.4,2.2-4.4-.7-2-2.6-2.9-4.5-2.4-1.9.6-2.8,2.4-2.2,4.4.7,2,2.6,2.9,4.5,2.4Z"/>
        <path d="M205.5,573.1l.7-.2,1.5,4.4c.2-1,1-1.9,2.3-2.3,1.8-.5,3.3,0,4,2.1l1.6,4.6-.7.2-1.6-4.5c-.6-1.7-1.7-2.2-3.2-1.8-1.8.5-2.3,2-1.9,3.3l1.6,4.5-.7.2-3.7-10.6Z"/>
        <path d="M219.2,572.9c-1.8.5-2.3,2-1.9,3.3l1.6,4.5-.7.2-2.6-7.4.7-.2.4,1.3c.2-1,1-1.9,2.3-2.3,1.8-.5,3.3,0,4,2.1l1.6,4.6-.7.2-1.6-4.5c-.6-1.7-1.7-2.2-3.2-1.8Z"/>
        <path d="M225.5,574.7c-.8-2.2.3-4.4,2.6-5,2.3-.7,4.2.6,5,2.6l-6.9,2.1v.2c.7,2,2.6,2.9,4.6,2.3,1.5-.5,2.4-1.6,2.5-2.9h.5c0,1.4-1,2.9-2.9,3.4-2.3.7-4.6-.4-5.3-2.7ZM232.1,572c-.7-1.5-2.2-2.4-3.9-1.9-1.7.5-2.6,2-2.2,3.7l6.1-1.8Z"/>
        <path d="M236.6,564.1l.9-.3,7.9,7.9,1.4-10.7.9-.3,3.6,10.3-.7.2-3.2-9.3-1.3,10.7h-.4c0,.1-7.8-7.8-7.8-7.8l3.2,9.3-.7.2-3.6-10.3Z"/>
        <path d="M258.7,567.3c-.2,1-1.1,2-2.5,2.5-1.6.5-3,0-3.4-1.3-.5-1.4.5-2.5,2.6-3.2l2.4-.7-.2-.6c-.6-1.6-1.7-2.1-3.1-1.7-1.3.4-2,1.2-2.2,2.4h-.5c.1-1.4,1-2.5,2.5-3,1.8-.6,3.3.1,4,2l1.6,4.7-.7.2-.5-1.4ZM256.1,569.3c1.8-.5,2.6-2,2.1-3.3l-.3-.9-2.3.7c-1.9.6-2.5,1.4-2.1,2.5.4,1,1.4,1.4,2.7,1Z"/>
        <path d="M262,565.8l-1.8-5-1.4.4v-.4c-.1,0,.5-.2.5-.2.6-.2.8-.4.6-1.1l-.3-1.2.5-.2.7,1.9,2.9-.9.2.5-2.9.9,1.7,5c.3,1,1.1,1.4,2.1,1.1.5-.2.9-.5,1.2-.7l.2.4c-.3.3-.8.7-1.5.9-1.3.4-2.4-.1-2.8-1.4Z"/>
        <path d="M266.7,563.3l-1.6-4.6.7-.2,1.6,4.5c.6,1.7,1.7,2.2,3.2,1.8,1.8-.5,2.3-2,1.9-3.3l-1.6-4.5.7-.2,2.6,7.4-.7.2-.5-1.3c-.2,1-1,1.9-2.4,2.3-1.8.5-3.3,0-4-2.1Z"/>
        <path d="M274.3,555.9l.7-.2.7,1.9c0-1.4,1-2.7,2.6-2.9v.6c-1.8.4-2.7,2.1-2.1,3.8l1.4,4-.7.2-2.6-7.4Z"/>
        <path d="M286.8,558.9c-.2,1-1.1,2-2.5,2.5-1.6.5-3,0-3.4-1.3-.5-1.4.5-2.5,2.6-3.2l2.4-.7-.2-.6c-.6-1.6-1.7-2.1-3.1-1.7-1.3.4-2,1.2-2.2,2.4h-.5c.1-1.4,1-2.5,2.5-3,1.8-.6,3.3.1,4,2l1.6,4.7-.7.2-.5-1.4ZM284.2,560.8c1.8-.5,2.6-2,2.1-3.3l-.3-.9-2.3.7c-1.9.6-2.5,1.4-2.1,2.5.4,1,1.4,1.4,2.7,1Z"/>
        <path d="M291.2,554.4c-1-2.9-3.2-4.7-5.7-5.3l.3-.4c2.6.5,5,2.5,6.1,5.5,1,3,.3,5.9-1.5,7.8l-.4-.2c1.6-1.8,2.3-4.5,1.3-7.4Z"/>
      </g>
      <g id="hbap">
        <path d="M120.9,558.8l3.5-1.1c2.2-.7,3.7,0,4.3,1.9.6,1.8-.3,3.4-2.4,4.1l-2.8.9,1.4,4.4-.7.2-3.4-10.4ZM126.1,563.1c1.7-.6,2.4-1.8,1.9-3.3-.5-1.5-1.7-2.1-3.5-1.5l-2.8.9,1.6,4.8,2.8-.9Z"/>
        <path d="M132.1,554.7c.5-.2,1.1-.2,1.5-.1v.5c-.3,0-.8,0-1.2.1-1.1.3-1.5,1.2-1.1,2.3l.4,1.1,2.7-.9.2.5-2.7.9,2.2,7-.7.2-2.2-6.9-1.3.4-.2-.5,1.3-.4-.4-1.1c-.5-1.4.1-2.5,1.5-3ZM134.6,554.1l.7-.2,3.5,10.7-.7.2-3.5-10.7Z"/>
        <path d="M138.2,553.4c.3,0,.6,0,.7.3,0,.3,0,.6-.3.6-.3,0-.6,0-.6-.3,0-.3,0-.6.3-.6ZM138.8,556.3l.7-.2,2.4,7.5-.7.2-2.4-7.5Z"/>
        <path d="M142.7,559.1c-.7-2.3.3-4.4,2.5-5.1,1.6-.5,3.2,0,4.2,1.2l-.5.4c-.9-1.1-2.2-1.5-3.5-1.1-1.8.6-2.7,2.4-2,4.3.6,2,2.4,2.9,4.2,2.3,1.4-.4,2.3-1.6,2.4-2.9h.4c0,1.5-1.1,3-2.7,3.5-2.1.7-4.3-.4-5-2.7Z"/>
        <path d="M149.5,549.3l.7-.2,1.4,4.5c.2-1,.9-1.9,2.2-2.3,1.7-.5,3.1,0,3.7,2.1l1.5,4.6-.7.2-1.5-4.6c-.5-1.7-1.6-2.2-3-1.8-1.7.5-2.2,2-1.7,3.3l1.5,4.6-.7.2-3.5-10.7Z"/>
        <path d="M161.1,555.2l-1.6-5.1-1.3.4v-.4c-.1,0,.4-.2.4-.2.5-.2.7-.4.6-1.1l-.3-1.2.5-.2.6,1.9,2.7-.9.2.5-2.7.9,1.6,5.1c.3,1,1.1,1.4,2,1.1.5-.2.9-.5,1.1-.7l.2.4c-.3.3-.8.7-1.4.9-1.2.4-2.2-.1-2.6-1.4Z"/>
        <path d="M165.6,554.8v-.5c.9.4,1.8.6,2.8.3,1.2-.4,1.9-1.2,1.6-2.3-.3-.8-.9-1.1-2.5-1h-.3c-1.8.2-2.7-.2-3-1.3-.4-1.4.4-2.3,1.8-2.8,1.1-.3,2.1-.2,2.9.1v.5c-.8-.3-1.8-.4-2.7-.1-1.1.3-1.7,1-1.4,2,.3.8.9,1,2.4.9h.3c1.9-.2,2.8.3,3.1,1.3.4,1.4-.5,2.5-2,3-1.2.4-2.2.2-3-.3Z"/>
        <path d="M171.6,549.8c-.7-2.3.3-4.4,2.5-5.1,1.6-.5,3.2,0,4.2,1.2l-.5.4c-.9-1.1-2.2-1.5-3.5-1.1-1.8.6-2.7,2.4-2,4.3.6,2,2.4,2.9,4.2,2.3,1.4-.4,2.3-1.6,2.4-2.9h.4c0,1.5-1.1,3-2.7,3.5-2.1.7-4.3-.4-5-2.7Z"/>
        <path d="M178.4,539.9l.7-.2,1.4,4.5c.2-1,.9-1.9,2.2-2.3,1.7-.5,3.1,0,3.7,2.1l1.5,4.6-.7.2-1.5-4.6c-.5-1.7-1.6-2.2-3-1.8-1.7.5-2.2,2-1.7,3.3l1.5,4.6-.7.2-3.5-10.7Z"/>
        <path d="M189.3,545l-1.5-4.6.7-.2,1.5,4.6c.5,1.7,1.6,2.2,3,1.8,1.7-.5,2.2-2,1.7-3.3l-1.5-4.6.7-.2,2.4,7.5-.6.2-.4-1.3c-.2,1-.9,1.9-2.2,2.4-1.6.5-3.1,0-3.7-2.1Z"/>
        <path d="M195.2,534.5l.7-.2,3.5,10.7-.7.2-3.5-10.7Z"/>
        <path d="M200.2,540.5c-.7-2.2.3-4.4,2.4-5.1,2.2-.7,4,.6,4.7,2.6l-6.5,2.1v.2c.7,2,2.5,3,4.3,2.4,1.4-.5,2.2-1.6,2.4-2.9h.4c0,1.4-.9,2.9-2.7,3.5-2.2.7-4.3-.4-5-2.7ZM206.4,537.8c-.7-1.5-2-2.4-3.7-1.9-1.6.5-2.4,2-2.1,3.7l5.8-1.9Z"/>
      </g>
      <g id="hbau">
        <path d="M65.8,562.8l-1.5-4.6.7-.2,1.5,4.6c.5,1.7,1.6,2.2,3,1.8,1.7-.5,2.2-2,1.7-3.3l-1.5-4.6.7-.2,2.4,7.5-.6.2-.4-1.3c-.2,1-.9,1.9-2.2,2.4-1.6.5-3.1,0-3.7-2.1Z"/>
        <path d="M76.2,554.8c-1.7.5-2.2,2-1.7,3.3l1.5,4.6-.7.2-2.4-7.5.6-.2.4,1.3c.2-1,.9-1.9,2.2-2.3,1.7-.5,3.1,0,3.7,2.1l1.5,4.6-.7.2-1.5-4.6c-.5-1.7-1.6-2.2-3-1.8Z"/>
        <path d="M80.3,549.5l.7-.2,1.6,5c.2-1.4,1.1-2.5,2.5-3,2.1-.7,4.2.4,5,2.7.7,2.3-.3,4.4-2.4,5.1-1.4.5-2.8,0-3.8-1l.6,1.8-.6.2-3.5-10.7ZM87.4,558.6c1.8-.6,2.7-2.4,2-4.4s-2.4-2.9-4.2-2.4c-1.8.6-2.7,2.4-2,4.4.6,2,2.4,2.9,4.2,2.4Z"/>
        <path d="M91.6,553.5c-.7-2.2.3-4.4,2.4-5.1,2.2-.7,4,.6,4.7,2.6l-6.5,2.1v.2c.7,2,2.5,3,4.3,2.4s2.2-1.6,2.4-2.9h.4c0,1.4-.9,2.9-2.7,3.5-2.2.7-4.3-.4-5-2.7ZM97.9,550.7c-.7-1.5-2-2.4-3.7-1.9-1.6.5-2.4,2-2.1,3.7l5.8-1.9Z"/>
        <path d="M98.4,543.6l.7-.2,2.3,7,2.8-5.1.8-.2-2.3,4.2,4.9,3.2-.8.3-4.5-2.9-.7,1.3,1,2.9-.7.2-3.5-10.7Z"/>
        <path d="M113.1,549.2c-.2,1-1,2-2.4,2.5-1.5.5-2.8,0-3.2-1.3-.4-1.4.4-2.5,2.4-3.2l2.3-.7-.2-.6c-.5-1.6-1.6-2.1-2.9-1.7-1.2.4-1.8,1.2-2,2.4h-.4c.1-1.4.9-2.5,2.4-3,1.7-.6,3.1.1,3.7,2l1.5,4.7-.6.2-.4-1.4ZM110.6,551.1c1.7-.5,2.4-2.1,2-3.3l-.3-.9-2.2.7c-1.8.6-2.3,1.4-2,2.5s1.3,1.4,2.5,1Z"/>
        <path d="M117.5,541.4c-1.7.5-2.2,2-1.7,3.3l1.5,4.6-.7.2-2.4-7.5.6-.2.4,1.3c.2-1,.9-1.9,2.2-2.3,1.7-.5,3.1,0,3.7,2.1l1.5,4.6-.7.2-1.5-4.6c-.5-1.7-1.6-2.2-3-1.8Z"/>
        <path d="M125.9,538.7c-1.7.5-2.2,2-1.7,3.3l1.5,4.6-.7.2-2.4-7.5.6-.2.4,1.3c.2-1,.9-1.9,2.2-2.3,1.7-.5,3.1,0,3.7,2.1l1.5,4.6-.7.2-1.5-4.6c-.5-1.7-1.6-2.2-3-1.8Z"/>
        <path d="M133.1,542.1l-1.6-5.1-1.3.4v-.4c-.1,0,.4-.2.4-.2.5-.2.7-.4.6-1.1l-.3-1.2.5-.2.6,1.9,2.7-.9.2.5-2.7.9,1.6,5.1c.3,1,1.1,1.4,2,1.1.5-.2.9-.5,1.1-.7l.2.4c-.3.3-.8.7-1.4.9-1.2.4-2.2-.1-2.6-1.4Z"/>
      </g>
    </g>
    <g id="f">
      <g id="hbah1" data-name="hbah">
        <path d="M870.7,551.8l-6.5,2.1,1.6,5.1-.7.2-3.4-10.4.7-.2,1.5,4.7,6.5-2.1-1.5-4.7.7-.2,3.4,10.4-.7.2-1.6-5.1Z"/>
        <path d="M873.9,552.2c-.7-2.3.3-4.4,2.5-5.1,2.2-.7,4.3.4,5,2.7.7,2.3-.3,4.4-2.5,5.1-2.2.7-4.3-.4-5-2.7ZM874.6,545.1c.3,0,.5,0,.6.3,0,.3,0,.5-.3.6-.3,0-.5,0-.6-.3,0-.2,0-.5.3-.6ZM878.8,554.4c1.8-.6,2.7-2.4,2-4.4-.6-2-2.4-3-4.2-2.4s-2.7,2.4-2,4.4c.6,2,2.4,3,4.2,2.4ZM876.8,544.4c.2,0,.5,0,.6.3,0,.3,0,.5-.3.6-.3,0-.5,0-.6-.3,0-.2,0-.5.3-.6Z"/>
        <path d="M881.2,542.2l.7-.2,1.4,4.5c.2-1,.9-1.9,2.2-2.3,1.7-.5,3.1,0,3.7,2.1l1.5,4.6-.7.2-1.5-4.6c-.5-1.7-1.6-2.2-3-1.8-1.7.5-2.2,2-1.7,3.3l1.5,4.6-.7.2-3.5-10.7Z"/>
        <path d="M891.5,546.5c-.7-2.2.3-4.4,2.4-5.1,2.2-.7,4,.6,4.7,2.6l-6.5,2.1v.2c.7,2,2.5,3,4.3,2.4,1.4-.5,2.2-1.6,2.4-2.9h.4c0,1.4-.9,2.9-2.7,3.5-2.2.7-4.3-.4-5-2.7ZM897.7,543.8c-.7-1.5-2-2.4-3.7-1.9-1.6.5-2.4,2-2.1,3.7l5.8-1.9Z"/>
        <path d="M899.4,539.9l.6-.2.6,2c0-1.4.9-2.7,2.5-2.9v.6c-1.7.4-2.5,2.2-1.9,3.9l1.3,4-.7.2-2.4-7.5Z"/>
        <path d="M904.8,542.2c-.7-2.2.3-4.4,2.4-5.1,2.2-.7,4,.6,4.7,2.6l-6.5,2.1v.2c.7,2,2.5,3,4.3,2.4,1.4-.5,2.2-1.6,2.4-2.9h.4c0,1.4-.9,2.9-2.7,3.5-2.2.7-4.3-.4-5-2.7ZM911.1,539.5c-.7-1.5-2-2.4-3.7-1.9-1.6.5-2.4,2-2.1,3.7l5.8-1.9Z"/>
        <path d="M869,565.4l3.6-1.2c2.2-.7,3.6-.2,4.2,1.5.4,1.2-.2,2.2-1.2,3,1.6-.2,2.8.5,3.3,2,.6,1.7-.5,3.2-2.7,3.9l-3.9,1.3-3.4-10.4ZM874.3,568.9c1.4-.5,2.2-1.7,1.9-2.9-.4-1.4-1.6-1.8-3.4-1.2l-2.9.9,1.4,4.2,3.1-1ZM876.1,574c1.8-.6,2.6-1.8,2.2-3.1-.5-1.5-1.9-2-3.7-1.4l-3.1,1,1.5,4.6,3.2-1Z"/>
        <path d="M878.9,562.3c.3,0,.6,0,.7.3,0,.3,0,.6-.3.6-.3,0-.6,0-.6-.3,0-.3,0-.6.3-.6ZM879.4,565.2l.7-.2,2.4,7.5-.7.2-2.4-7.5Z"/>
        <path d="M881.6,561l.7-.2,3.5,10.7-.7.2-3.5-10.7Z"/>
        <path d="M886.5,567.1c-.7-2.3.3-4.4,2.4-5.1,1.4-.5,2.8,0,3.8.9l-1.6-5,.7-.2,3.5,10.7-.6.2-.6-1.8c-.2,1.4-1.1,2.6-2.5,3-2.1.7-4.2-.4-5-2.7ZM891.3,569.2c1.8-.6,2.7-2.4,2-4.4-.6-2-2.4-2.9-4.2-2.4-1.8.6-2.7,2.4-2,4.4.6,2,2.4,2.9,4.2,2.4Z"/>
        <path d="M896.5,564.8l-1.5-4.6.7-.2,1.5,4.6c.5,1.7,1.6,2.2,3,1.8,1.7-.5,2.2-2,1.7-3.3l-1.5-4.6.7-.2,2.4,7.5-.6.2-.4-1.3c-.2,1-.9,1.9-2.2,2.4-1.6.5-3.1,0-3.7-2.1Z"/>
        <path d="M906.9,556.8c-1.7.5-2.2,2-1.7,3.3l1.5,4.6-.7.2-2.4-7.5.6-.2.4,1.3c.2-1,.9-1.9,2.2-2.3,1.7-.5,3.1,0,3.7,2.1l1.5,4.6-.7.2-1.5-4.6c-.5-1.7-1.6-2.2-3-1.8Z"/>
        <path d="M914.2,563.4c-.3-.8,0-1.5.7-2.2-.5,0-.9-.2-1-.7-.1-.5.1-.9.6-1.5-1-.2-1.7-.8-2-1.8-.5-1.5.4-3,2.1-3.5.5-.2,1-.2,1.5-.2.6-.3,1.5-.6,2.2-.9l.2.6-1.6.5c.7.3,1.2.8,1.5,1.6.5,1.5-.3,3-2.1,3.5-.4.1-.8.2-1.2.2-.5.6-.7.9-.6,1.1.1.3.4.5.9.3l2.6-.8c1.5-.5,2.6,0,3,1.1.5,1.4-.6,2.9-2.9,3.7-2.1.7-3.4,0-3.8-1.1ZM916,558.4c1.4-.4,2-1.6,1.6-2.8-.4-1.2-1.6-1.8-2.9-1.3s-2,1.6-1.6,2.8c.4,1.2,1.6,1.8,2.9,1.3ZM917.9,564c2-.6,2.8-1.8,2.4-2.9-.3-.9-1.1-1.2-2.3-.8l-2.6.8c-.7.7-.9,1.4-.6,2.1.3.9,1.4,1.4,3.1.9Z"/>
      </g>
      <g id="hbasmm1" data-name="hbasmm">
        <path d="M746.3,571.3v-.6c1.1.7,2.5.9,3.9.4,1.7-.5,2.7-1.8,2.2-3.3-.4-1.1-1.3-1.6-3.4-1.4h-.4c-2.5.3-3.6-.2-4.1-1.6-.6-1.9.6-3.3,2.5-3.9,1.4-.5,2.8-.3,3.8.4v.6c-1-.7-2.4-.8-3.6-.4-1.6.5-2.5,1.6-2,3.1.4,1.1,1.3,1.4,3.4,1.2h.4c2.5-.3,3.7.3,4.1,1.7.6,1.9-.7,3.5-2.7,4.1-1.5.5-3,.3-4.1-.4Z"/>
        <path d="M754.3,566.1c-.7-2.2.3-4.4,2.4-5.1,2.2-.7,4,.6,4.7,2.6l-6.5,2.1v.2c.7,2,2.5,3,4.3,2.4,1.4-.5,2.2-1.6,2.4-2.9h.4c0,1.4-.9,2.9-2.7,3.5-2.2.7-4.3-.4-5-2.7ZM760.5,563.3c-.7-1.5-2-2.4-3.7-1.9-1.6.5-2.4,2-2.1,3.7l5.8-1.9Z"/>
        <path d="M761,556.2l.7-.2,2.3,7,2.8-5.1.8-.2-2.3,4.2,4.9,3.2-.8.3-4.5-2.9-.7,1.3,1,2.9-.7.2-3.5-10.7Z"/>
        <path d="M770.5,561.8l-1.5-4.6.7-.2,1.5,4.6c.5,1.7,1.6,2.2,3,1.8,1.7-.5,2.2-2,1.7-3.3l-1.5-4.6.7-.2,2.4,7.5-.6.2-.4-1.3c-.2,1-.9,1.9-2.2,2.4-1.6.5-3.1,0-3.7-2.1Z"/>
        <path d="M780.9,553.8c-1.7.5-2.2,2-1.7,3.3l1.5,4.6-.7.2-2.4-7.5.6-.2.4,1.3c.2-1,.9-1.9,2.2-2.3,1.7-.5,3.1,0,3.7,2.1l1.5,4.6-.7.2-1.5-4.6c-.5-1.7-1.6-2.2-3-1.8Z"/>
        <path d="M786.8,555.6c-.7-2.3.3-4.4,2.4-5.1,1.4-.5,2.8,0,3.8.9l-1.6-5,.7-.2,3.5,10.7-.6.2-.6-1.8c-.2,1.4-1.1,2.6-2.5,3-2.1.7-4.2-.4-5-2.7ZM791.6,557.7c1.8-.6,2.7-2.4,2-4.4-.6-2-2.4-2.9-4.2-2.4-1.8.6-2.7,2.4-2,4.4.6,2,2.4,2.9,4.2,2.4Z"/>
        <path d="M802.3,553.2c-.2,1-1,2-2.4,2.5-1.5.5-2.8,0-3.2-1.3-.4-1.4.4-2.5,2.4-3.2l2.3-.7-.2-.6c-.5-1.6-1.6-2.1-2.9-1.7-1.2.4-1.8,1.2-2,2.4h-.4c.1-1.4.9-2.5,2.4-3,1.7-.6,3.1.1,3.7,2l1.5,4.7-.6.2-.4-1.4ZM799.8,555.2c1.7-.5,2.4-2.1,2-3.3l-.3-.9-2.2.7c-1.8.6-2.3,1.4-2,2.5s1.3,1.4,2.5,1Z"/>
        <path d="M803.4,546.1l.6-.2.6,2c0-1.4.9-2.7,2.5-2.9v.6c-1.7.4-2.5,2.2-1.9,3.9l1.3,4-.7.2-2.4-7.5Z"/>
        <path d="M810,551.1v-.5c.9.4,1.8.6,2.8.3,1.2-.4,1.9-1.2,1.6-2.3-.3-.8-.9-1.1-2.5-1h-.3c-1.8.2-2.7-.2-3-1.3-.4-1.4.4-2.3,1.8-2.8,1.1-.3,2.1-.2,2.9.1v.5c-.8-.3-1.8-.4-2.7-.1-1.1.3-1.7,1-1.4,2,.3.8.9,1,2.4.9h.3c1.9-.2,2.8.3,3.1,1.3.4,1.4-.5,2.5-2,3-1.2.4-2.2.2-3-.3Z"/>
        <path d="M817.4,547.8l-1.6-5.1-1.3.4v-.4c-.1,0,.4-.2.4-.2.5-.2.7-.4.6-1.1l-.3-1.2.5-.2.6,1.9,2.7-.9.2.5-2.7.9,1.6,5.1c.3,1,1.1,1.4,2,1.1.5-.2.9-.5,1.1-.7l.2.4c-.3.3-.8.7-1.4.9-1.2.4-2.2-.1-2.6-1.4Z"/>
        <path d="M821.7,545.3l-1.5-4.6.7-.2,1.5,4.6c.5,1.7,1.6,2.2,3,1.8,1.7-.5,2.2-2,1.7-3.3l-1.5-4.6.7-.2,2.4,7.5-.6.2-.4-1.3c-.2,1-.9,1.9-2.2,2.4-1.6.5-3.1,0-3.7-2.1Z"/>
        <path d="M830.3,533.6c.5-.2,1.1-.2,1.5-.1v.5c-.3,0-.8,0-1.2.2-1.1.3-1.5,1.2-1.1,2.3l.4,1.1,2.7-.9.2.5-2.7.9,2.2,7-.7.2-2.2-7-1.3.4-.2-.5,1.3-.4-.4-1.1c-.5-1.4.1-2.5,1.5-3Z"/>
        <path d="M834.1,540.2c-.7-2.2.3-4.4,2.4-5.1,2.2-.7,4,.6,4.7,2.6l-6.5,2.1v.2c.7,2,2.5,3,4.3,2.4s2.2-1.6,2.4-2.9h.4c0,1.4-.9,2.9-2.7,3.5-2.2.7-4.3-.4-5-2.7ZM840.4,537.5c-.7-1.5-2-2.4-3.7-1.9-1.6.5-2.4,2-2.1,3.7l5.8-1.9Z"/>
        <path d="M760.2,582.5c-1-3-.3-6,1.4-7.8l.4.2c-1.5,1.8-2.2,4.6-1.2,7.5s3,4.8,5.3,5.3l-.2.4c-2.5-.5-4.7-2.5-5.7-5.5Z"/>
        <path d="M767.7,577c-1.6.5-2.1,2-1.7,3.3l1.5,4.6-.7.2-2.4-7.5.6-.2.4,1.3c.2-1,.9-1.9,2.2-2.3,1.2-.4,2.3-.1,3,.9.1-1.1.8-2.1,2.2-2.6,1.6-.5,3,.1,3.7,2.2l1.5,4.6-.7.2-1.5-4.6c-.5-1.7-1.6-2.3-3-1.8-1.7.5-2.1,2-1.7,3.3l1.5,4.6-.7.2-1.5-4.6c-.5-1.7-1.6-2.3-3-1.8Z"/>
        <path d="M777.5,570.3c.3,0,.6,0,.7.3s0,.6-.3.6c-.3,0-.6,0-.6-.3,0-.3,0-.6.3-.6ZM778.1,573.2l.7-.2,2.4,7.5-.7.2-2.4-7.5Z"/>
        <path d="M783.3,577.7l-1.6-5.1-1.3.4v-.4c-.1,0,.4-.2.4-.2.5-.2.7-.4.6-1.1l-.3-1.2.5-.2.6,1.9,2.7-.9.2.5-2.7.9,1.6,5.1c.3,1,1.1,1.4,2,1.1.5-.2.9-.5,1.1-.7l.2.4c-.3.3-.8.7-1.4.9-1.2.4-2.2-.1-2.6-1.4Z"/>
        <path d="M789,566.4l.8-.3,7.4,8,1.3-10.8.8-.3,3.4,10.4-.7.2-3-9.4-1.3,10.8h-.4c0,.1-7.3-7.8-7.3-7.8l3,9.3-.6.2-3.4-10.4Z"/>
        <path d="M809.6,569.7c-.2,1-1,2-2.4,2.5-1.5.5-2.8,0-3.2-1.3-.4-1.4.4-2.5,2.4-3.2l2.3-.7-.2-.6c-.5-1.6-1.6-2.1-2.9-1.7-1.2.4-1.8,1.2-2,2.4h-.4c.1-1.4.9-2.5,2.4-3,1.7-.6,3.1.1,3.7,2l1.5,4.7-.6.2-.4-1.4ZM807.2,571.7c1.7-.5,2.4-2.1,2-3.3l-.3-.9-2.2.7c-1.8.6-2.3,1.4-2,2.5s1.3,1.4,2.5,1Z"/>
        <path d="M812.8,568.2l-1.6-5.1-1.3.4v-.4c-.1,0,.4-.2.4-.2.5-.2.7-.4.6-1.1l-.3-1.2.5-.2.6,1.9,2.7-.9.2.5-2.7.9,1.6,5.1c.3,1,1.1,1.4,2,1.1.5-.2.9-.5,1.1-.7l.2.4c-.3.3-.8.7-1.4.9-1.2.4-2.2-.1-2.6-1.4Z"/>
        <path d="M817.1,565.7l-1.5-4.6.7-.2,1.5,4.6c.5,1.7,1.6,2.2,3,1.8,1.7-.5,2.2-2,1.7-3.3l-1.5-4.6.7-.2,2.4,7.5-.6.2-.4-1.3c-.2,1-.9,1.9-2.2,2.4-1.6.5-3.1,0-3.7-2.1Z"/>
        <path d="M824.2,558.3l.6-.2.6,2c0-1.4.9-2.7,2.5-2.9v.6c-1.7.4-2.5,2.2-1.9,3.9l1.3,4-.7.2-2.4-7.5Z"/>
        <path d="M835.9,561.2c-.2,1-1,2-2.4,2.5-1.5.5-2.8,0-3.2-1.3-.4-1.4.4-2.5,2.4-3.2l2.3-.7-.2-.6c-.5-1.6-1.6-2.1-2.9-1.7-1.2.4-1.8,1.2-2,2.4h-.4c.1-1.4.9-2.5,2.4-3,1.7-.6,3.1.1,3.7,2l1.5,4.7-.6.2-.4-1.4ZM833.5,563.2c1.7-.5,2.4-2.1,2-3.3l-.3-.9-2.2.7c-1.8.6-2.3,1.4-2,2.5.3,1,1.3,1.4,2.5,1Z"/>
        <path d="M840.1,556.7c-.9-2.9-3-4.8-5.3-5.3l.2-.4c2.5.5,4.7,2.5,5.7,5.5,1,3,.3,6-1.4,7.8l-.4-.2c1.5-1.8,2.1-4.6,1.2-7.5Z"/>
      </g>
      <g id="hbasom1" data-name="hbasom">
        <path d="M635.8,570.8v-.6c1.1.7,2.6.9,4.1.4,1.8-.5,2.9-1.8,2.4-3.3-.4-1.1-1.3-1.6-3.6-1.3h-.5c-2.6.3-3.9-.2-4.4-1.6-.6-1.8.6-3.3,2.6-3.9,1.5-.5,3-.3,4.1.4v.6c-1.1-.7-2.5-.8-3.9-.4-1.7.5-2.7,1.6-2.1,3.1.4,1.1,1.3,1.4,3.6,1.2h.4c2.7-.3,3.9.3,4.4,1.7.7,1.9-.7,3.5-2.9,4.1-1.6.5-3.2.3-4.3-.4Z"/>
        <path d="M644.4,565.7c-.8-2.2.3-4.4,2.6-5,2.3-.7,4.2.6,5,2.6l-6.9,2.1v.2c.8,2,2.6,2.9,4.6,2.4,1.5-.5,2.4-1.6,2.5-2.9h.5c0,1.4-1,2.9-2.9,3.4-2.3.7-4.6-.4-5.3-2.7ZM651,562.9c-.7-1.5-2.2-2.4-3.9-1.9-1.7.5-2.6,2-2.2,3.7l6.1-1.8Z"/>
        <path d="M651.6,555.9l.7-.2,2.4,7,3-5.1.8-.2-2.4,4.2,5.3,3.2-.8.3-4.8-2.9-.8,1.3,1,2.9-.7.2-3.7-10.6Z"/>
        <path d="M661.7,561.5l-1.6-4.6.7-.2,1.6,4.5c.6,1.7,1.7,2.2,3.2,1.8,1.8-.5,2.3-2,1.9-3.3l-1.6-4.5.7-.2,2.6,7.4-.7.2-.5-1.3c-.2,1-1,1.9-2.4,2.3-1.8.5-3.3,0-4-2.1Z"/>
        <path d="M672.8,553.5c-1.8.5-2.3,2-1.9,3.3l1.6,4.5-.7.2-2.6-7.4.7-.2.4,1.3c.2-1,1-1.9,2.3-2.3,1.8-.5,3.3,0,4,2.1l1.6,4.6-.7.2-1.6-4.5c-.6-1.7-1.7-2.2-3.2-1.8Z"/>
        <path d="M679.1,555.2c-.8-2.3.3-4.4,2.6-5.1,1.5-.5,3,0,4,.9l-1.7-4.9.7-.2,3.7,10.6-.7.2-.6-1.8c-.2,1.4-1.1,2.6-2.7,3-2.3.7-4.5-.4-5.3-2.7ZM684.3,557.4c1.9-.6,2.8-2.4,2.1-4.3-.7-2-2.6-2.9-4.5-2.3-1.9.6-2.8,2.4-2.1,4.3.7,2,2.6,2.9,4.5,2.3Z"/>
        <path d="M695.7,552.9c-.2,1-1.1,2-2.5,2.5-1.6.5-3,0-3.4-1.3-.5-1.4.5-2.5,2.6-3.2l2.4-.7-.2-.6c-.6-1.6-1.7-2.1-3.1-1.7-1.3.4-2,1.2-2.2,2.4h-.5c.1-1.4,1-2.5,2.5-3,1.8-.6,3.3.1,4,2l1.6,4.7-.7.2-.5-1.4ZM693,554.8c1.8-.5,2.6-2,2.1-3.3l-.3-.9-2.3.7c-1.9.6-2.5,1.4-2.1,2.5.4,1,1.4,1.4,2.7,1Z"/>
        <path d="M696.8,545.8l.7-.2.7,1.9c0-1.4,1-2.7,2.6-2.9v.6c-1.8.4-2.7,2.1-2.1,3.8l1.4,4-.7.2-2.6-7.4Z"/>
        <path d="M703.9,550.8v-.5c1,.4,2,.6,3,.3,1.3-.4,2-1.2,1.7-2.3-.3-.8-1-1.1-2.6-1h-.3c-2,.2-2.8-.2-3.2-1.2-.5-1.3.5-2.3,1.9-2.8,1.1-.3,2.3-.2,3.1.1v.5c-.9-.3-1.9-.4-2.9-.1-1.1.3-1.8,1-1.5,2,.3.8.9,1,2.5.9h.3c2-.2,3,.3,3.3,1.3.5,1.4-.6,2.5-2.1,3-1.2.4-2.3.2-3.2-.3Z"/>
        <path d="M711.7,547.5l-1.8-5-1.4.4v-.4c-.1,0,.5-.2.5-.2.6-.2.8-.4.6-1.1l-.3-1.2.5-.2.7,1.9,2.9-.9.2.5-2.9.9,1.7,5c.3,1,1.1,1.4,2.1,1.1.5-.2.9-.5,1.2-.7l.2.4c-.3.3-.8.7-1.5.9-1.3.4-2.4-.1-2.8-1.4Z"/>
        <path d="M716.4,545l-1.6-4.6.7-.2,1.6,4.5c.6,1.7,1.7,2.2,3.2,1.8,1.8-.5,2.3-2,1.9-3.3l-1.6-4.5.7-.2,2.6,7.4-.7.2-.5-1.3c-.2,1-1,1.9-2.4,2.3-1.8.5-3.3,0-4-2.1Z"/>
        <path d="M725.6,533.5c.6-.2,1.1-.2,1.6-.1v.5c-.4,0-.9,0-1.3.1-1.1.3-1.6,1.2-1.2,2.2l.4,1.1,2.8-.9.2.5-2.8.9,2.4,6.9-.7.2-2.4-6.9-1.4.4-.2-.5,1.4-.4-.4-1.1c-.5-1.4.1-2.5,1.6-2.9Z"/>
        <path d="M729.7,540c-.8-2.2.3-4.4,2.6-5,2.3-.7,4.2.6,5,2.6l-6.9,2.1v.2c.7,2,2.6,2.9,4.6,2.3,1.5-.5,2.4-1.6,2.5-2.9h.5c0,1.4-1,2.9-2.9,3.4-2.3.7-4.6-.4-5.3-2.7ZM736.3,537.3c-.7-1.5-2.2-2.4-3.9-1.9-1.7.5-2.6,2-2.2,3.7l6.1-1.8Z"/>
        <path d="M644.2,583.9c-1-3-.3-5.9,1.5-7.8l.5.2c-1.6,1.8-2.3,4.5-1.3,7.4,1,2.9,3.2,4.7,5.7,5.3l-.3.4c-2.6-.5-5-2.5-6.1-5.5Z"/>
        <path d="M649,583.1c-.8-2.3.4-4.4,2.7-5.1,2.3-.7,4.6.4,5.4,2.7.8,2.3-.4,4.4-2.7,5.1-2.3.7-4.6-.4-5.4-2.7ZM654.2,585.2c1.9-.6,2.8-2.4,2.2-4.4-.7-2-2.6-2.9-4.5-2.4-1.9.6-2.8,2.4-2.2,4.4.7,2,2.6,2.9,4.5,2.4Z"/>
        <path d="M656.8,573.1l.7-.2,1.5,4.4c.2-1,1-1.9,2.3-2.3,1.8-.5,3.3,0,4,2.1l1.6,4.6-.7.2-1.6-4.5c-.6-1.7-1.7-2.2-3.2-1.8-1.8.5-2.3,2-1.9,3.3l1.6,4.5-.7.2-3.7-10.6Z"/>
        <path d="M670.5,572.9c-1.8.5-2.3,2-1.9,3.3l1.6,4.5-.7.2-2.6-7.4.7-.2.4,1.3c.2-1,1-1.9,2.3-2.3,1.8-.5,3.3,0,4,2.1l1.6,4.6-.7.2-1.6-4.5c-.6-1.7-1.7-2.2-3.2-1.8Z"/>
        <path d="M676.8,574.7c-.8-2.2.3-4.4,2.6-5,2.3-.7,4.2.6,5,2.6l-6.9,2.1v.2c.7,2,2.6,2.9,4.6,2.3,1.5-.5,2.4-1.6,2.5-2.9h.5c0,1.4-1,2.9-2.9,3.4-2.3.7-4.6-.4-5.3-2.7ZM683.5,572c-.7-1.5-2.2-2.4-3.9-1.9-1.7.5-2.6,2-2.2,3.7l6.1-1.8Z"/>
        <path d="M688,564.1l.9-.3,7.9,7.9,1.4-10.7.9-.3,3.6,10.3-.7.2-3.2-9.3-1.3,10.7h-.4c0,.1-7.8-7.8-7.8-7.8l3.2,9.3-.7.2-3.6-10.3Z"/>
        <path d="M710,567.3c-.2,1-1.1,2-2.5,2.5-1.6.5-3,0-3.4-1.3-.5-1.4.5-2.5,2.6-3.2l2.4-.7-.2-.6c-.6-1.6-1.7-2.1-3.1-1.7-1.3.4-2,1.2-2.2,2.4h-.5c.1-1.4,1-2.5,2.5-3,1.8-.6,3.3.1,4,2l1.6,4.7-.7.2-.5-1.4ZM707.4,569.3c1.8-.5,2.6-2,2.1-3.3l-.3-.9-2.3.7c-1.9.6-2.5,1.4-2.1,2.5.4,1,1.4,1.4,2.7,1Z"/>
        <path d="M713.4,565.8l-1.8-5-1.4.4v-.4c-.1,0,.5-.2.5-.2.6-.2.8-.4.6-1.1l-.3-1.2.5-.2.7,1.9,2.9-.9.2.5-2.9.9,1.7,5c.3,1,1.1,1.4,2.1,1.1.5-.2.9-.5,1.2-.7l.2.4c-.3.3-.8.7-1.5.9-1.3.4-2.4-.1-2.8-1.4Z"/>
        <path d="M718.1,563.3l-1.6-4.6.7-.2,1.6,4.5c.6,1.7,1.7,2.2,3.2,1.8,1.8-.5,2.3-2,1.9-3.3l-1.6-4.5.7-.2,2.6,7.4-.7.2-.5-1.3c-.2,1-1,1.9-2.4,2.3-1.8.5-3.3,0-4-2.1Z"/>
        <path d="M725.6,555.9l.7-.2.7,1.9c0-1.4,1-2.7,2.6-2.9v.6c-1.8.4-2.7,2.1-2.1,3.8l1.4,4-.7.2-2.6-7.4Z"/>
        <path d="M738.1,558.9c-.2,1-1.1,2-2.5,2.5-1.6.5-3,0-3.4-1.3-.5-1.4.5-2.5,2.6-3.2l2.4-.7-.2-.6c-.6-1.6-1.7-2.1-3.1-1.7-1.3.4-2,1.2-2.2,2.4h-.5c.1-1.4,1-2.5,2.5-3,1.8-.6,3.3.1,4,2l1.6,4.7-.7.2-.5-1.4ZM735.5,560.8c1.8-.5,2.6-2,2.1-3.3l-.3-.9-2.3.7c-1.9.6-2.5,1.4-2.1,2.5.4,1,1.4,1.4,2.7,1Z"/>
        <path d="M742.6,554.4c-1-2.9-3.2-4.7-5.7-5.3l.3-.4c2.6.5,5,2.5,6.1,5.5,1,3,.3,5.9-1.5,7.8l-.4-.2c1.6-1.8,2.3-4.5,1.3-7.4Z"/>
      </g>
      <g id="hbap1" data-name="hbap">
        <path d="M572.2,558.8l3.5-1.1c2.2-.7,3.7,0,4.3,1.9.6,1.8-.3,3.4-2.4,4.1l-2.8.9,1.4,4.4-.7.2-3.4-10.4ZM577.5,563.1c1.7-.6,2.4-1.8,1.9-3.3-.5-1.5-1.7-2.1-3.5-1.5l-2.8.9,1.6,4.8,2.8-.9Z"/>
        <path d="M583.4,554.7c.5-.2,1.1-.2,1.5-.1v.5c-.3,0-.8,0-1.2.1-1.1.3-1.5,1.2-1.1,2.3l.4,1.1,2.7-.9.2.5-2.7.9,2.2,7-.7.2-2.2-6.9-1.3.4-.2-.5,1.3-.4-.4-1.1c-.5-1.4.1-2.5,1.5-3ZM585.9,554.1l.7-.2,3.5,10.7-.7.2-3.5-10.7Z"/>
        <path d="M589.5,553.4c.3,0,.6,0,.7.3,0,.3,0,.6-.3.6-.3,0-.6,0-.6-.3,0-.3,0-.6.3-.6ZM590.1,556.3l.7-.2,2.4,7.5-.7.2-2.4-7.5Z"/>
        <path d="M594,559.1c-.7-2.3.3-4.4,2.5-5.1,1.6-.5,3.2,0,4.2,1.2l-.5.4c-.9-1.1-2.2-1.5-3.5-1.1-1.8.6-2.7,2.4-2,4.3.6,2,2.4,2.9,4.2,2.3,1.4-.4,2.3-1.6,2.4-2.9h.4c0,1.5-1.1,3-2.7,3.5-2.1.7-4.3-.4-5-2.7Z"/>
        <path d="M600.9,549.3l.7-.2,1.4,4.5c.2-1,.9-1.9,2.2-2.3,1.7-.5,3.1,0,3.7,2.1l1.5,4.6-.7.2-1.5-4.6c-.5-1.7-1.6-2.2-3-1.8-1.7.5-2.2,2-1.7,3.3l1.5,4.6-.7.2-3.5-10.7Z"/>
        <path d="M612.4,555.2l-1.6-5.1-1.3.4v-.4c-.1,0,.4-.2.4-.2.5-.2.7-.4.6-1.1l-.3-1.2.5-.2.6,1.9,2.7-.9.2.5-2.7.9,1.6,5.1c.3,1,1.1,1.4,2,1.1.5-.2.9-.5,1.1-.7l.2.4c-.3.3-.8.7-1.4.9-1.2.4-2.2-.1-2.6-1.4Z"/>
        <path d="M617,554.8v-.5c.9.4,1.8.6,2.8.3,1.2-.4,1.9-1.2,1.6-2.3-.3-.8-.9-1.1-2.5-1h-.3c-1.8.2-2.7-.2-3-1.3-.4-1.4.4-2.3,1.8-2.8,1.1-.3,2.1-.2,2.9.1v.5c-.8-.3-1.8-.4-2.7-.1-1.1.3-1.7,1-1.4,2,.3.8.9,1,2.4.9h.3c1.9-.2,2.8.3,3.1,1.3.4,1.4-.5,2.5-2,3-1.2.4-2.2.2-3-.3Z"/>
        <path d="M622.9,549.8c-.7-2.3.3-4.4,2.5-5.1,1.6-.5,3.2,0,4.2,1.2l-.5.4c-.9-1.1-2.2-1.5-3.5-1.1-1.8.6-2.7,2.4-2,4.3.6,2,2.4,2.9,4.2,2.3,1.4-.4,2.3-1.6,2.4-2.9h.4c0,1.5-1.1,3-2.7,3.5-2.1.7-4.3-.4-5-2.7Z"/>
        <path d="M629.7,539.9l.7-.2,1.4,4.5c.2-1,.9-1.9,2.2-2.3,1.7-.5,3.1,0,3.7,2.1l1.5,4.6-.7.2-1.5-4.6c-.5-1.7-1.6-2.2-3-1.8-1.7.5-2.2,2-1.7,3.3l1.5,4.6-.7.2-3.5-10.7Z"/>
        <path d="M640.7,545l-1.5-4.6.7-.2,1.5,4.6c.5,1.7,1.6,2.2,3,1.8,1.7-.5,2.2-2,1.7-3.3l-1.5-4.6.7-.2,2.4,7.5-.6.2-.4-1.3c-.2,1-.9,1.9-2.2,2.4-1.6.5-3.1,0-3.7-2.1Z"/>
        <path d="M646.6,534.5l.7-.2,3.5,10.7-.7.2-3.5-10.7Z"/>
        <path d="M651.5,540.5c-.7-2.2.3-4.4,2.4-5.1,2.2-.7,4,.6,4.7,2.6l-6.5,2.1v.2c.7,2,2.5,3,4.3,2.4,1.4-.5,2.2-1.6,2.4-2.9h.4c0,1.4-.9,2.9-2.7,3.5-2.2.7-4.3-.4-5-2.7ZM657.7,537.8c-.7-1.5-2-2.4-3.7-1.9-1.6.5-2.4,2-2.1,3.7l5.8-1.9Z"/>
      </g>
      <g id="hbau1" data-name="hbau">
        <path d="M517.1,562.8l-1.5-4.6.7-.2,1.5,4.6c.5,1.7,1.6,2.2,3,1.8,1.7-.5,2.2-2,1.7-3.3l-1.5-4.6.7-.2,2.4,7.5-.6.2-.4-1.3c-.2,1-.9,1.9-2.2,2.4-1.6.5-3.1,0-3.7-2.1Z"/>
        <path d="M527.5,554.8c-1.7.5-2.2,2-1.7,3.3l1.5,4.6-.7.2-2.4-7.5.6-.2.4,1.3c.2-1,.9-1.9,2.2-2.3,1.7-.5,3.1,0,3.7,2.1l1.5,4.6-.7.2-1.5-4.6c-.5-1.7-1.6-2.2-3-1.8Z"/>
        <path d="M531.6,549.5l.7-.2,1.6,5c.2-1.4,1.1-2.5,2.5-3,2.1-.7,4.2.4,5,2.7.7,2.3-.3,4.4-2.4,5.1-1.4.5-2.8,0-3.8-1l.6,1.8-.6.2-3.5-10.7ZM538.7,558.6c1.8-.6,2.7-2.4,2-4.4s-2.4-2.9-4.2-2.4c-1.8.6-2.7,2.4-2,4.4.6,2,2.4,2.9,4.2,2.4Z"/>
        <path d="M542.9,553.5c-.7-2.2.3-4.4,2.4-5.1,2.2-.7,4,.6,4.7,2.6l-6.5,2.1v.2c.7,2,2.5,3,4.3,2.4s2.2-1.6,2.4-2.9h.4c0,1.4-.9,2.9-2.7,3.5-2.2.7-4.3-.4-5-2.7ZM549.2,550.7c-.7-1.5-2-2.4-3.7-1.9-1.6.5-2.4,2-2.1,3.7l5.8-1.9Z"/>
        <path d="M549.7,543.6l.7-.2,2.3,7,2.8-5.1.8-.2-2.3,4.2,4.9,3.2-.8.3-4.5-2.9-.7,1.3,1,2.9-.7.2-3.5-10.7Z"/>
        <path d="M564.4,549.2c-.2,1-1,2-2.4,2.5-1.5.5-2.8,0-3.2-1.3-.4-1.4.4-2.5,2.4-3.2l2.3-.7-.2-.6c-.5-1.6-1.6-2.1-2.9-1.7-1.2.4-1.8,1.2-2,2.4h-.4c.1-1.4.9-2.5,2.4-3,1.7-.6,3.1.1,3.7,2l1.5,4.7-.6.2-.4-1.4ZM561.9,551.1c1.7-.5,2.4-2.1,2-3.3l-.3-.9-2.2.7c-1.8.6-2.3,1.4-2,2.5s1.3,1.4,2.5,1Z"/>
        <path d="M568.8,541.4c-1.7.5-2.2,2-1.7,3.3l1.5,4.6-.7.2-2.4-7.5.6-.2.4,1.3c.2-1,.9-1.9,2.2-2.3,1.7-.5,3.1,0,3.7,2.1l1.5,4.6-.7.2-1.5-4.6c-.5-1.7-1.6-2.2-3-1.8Z"/>
        <path d="M577.3,538.7c-1.7.5-2.2,2-1.7,3.3l1.5,4.6-.7.2-2.4-7.5.6-.2.4,1.3c.2-1,.9-1.9,2.2-2.3,1.7-.5,3.1,0,3.7,2.1l1.5,4.6-.7.2-1.5-4.6c-.5-1.7-1.6-2.2-3-1.8Z"/>
        <path d="M584.5,542.1l-1.6-5.1-1.3.4v-.4c-.1,0,.4-.2.4-.2.5-.2.7-.4.6-1.1l-.3-1.2.5-.2.6,1.9,2.7-.9.2.5-2.7.9,1.6,5.1c.3,1,1.1,1.4,2,1.1.5-.2.9-.5,1.1-.7l.2.4c-.3.3-.8.7-1.4.9-1.2.4-2.2-.1-2.6-1.4Z"/>
      </g>
    </g>
  </g>
  <g id="boxplot">
    <g id="fua">
      <g id="hbah2" data-name="hbah" class="box">
        <rect class="isc-st7" x="882" y="422.4" width="26.5" height="79.8"/>
        <line class="isc-st5" x1="882" y1="476.7" x2="908.4" y2="476.7"/>
        <line class="isc-st3" x1="895.2" y1="422.4" x2="895.2" y2="304.3"/>
        <line class="isc-st3" x1="895.2" y1="502.2" x2="895.2" y2="521.3"/>
        <rect class="isc-st6" x="882" y="422.4" width="26.5" height="79.8"/>
        <path class="isc-st1" d="M892.2,284.2c0-1.1.9-1.9,2.1-1.9s2.1.9,2.1,1.9-.9,2-2.1,2-2.1-.9-2.1-2"/>
        <path class="isc-st1" d="M892.2,290.5c0-1.1.9-1.9,2.1-1.9s2.1.9,2.1,1.9-.9,2-2.1,2-2.1-.9-2.1-2"/>
        <path class="isc-st1" d="M892.2,239.5c0-1.1.9-2,2.1-2s2.1.9,2.1,2-.9,2-2.1,2-2.1-.9-2.1-2"/>
        <path class="isc-st1" d="M892.2,290.5c0-1.1.9-1.9,2.1-1.9s2.1.9,2.1,1.9-.9,2-2.1,2-2.1-.9-2.1-2"/>
        <path class="isc-st1" d="M892.2,290.5c0-1.1.9-1.9,2.1-1.9s2.1.9,2.1,1.9-.9,2-2.1,2-2.1-.9-2.1-2"/>
        <path class="isc-st1" d="M892.2,255.4c0-1.1.9-2,2.1-2s2.1.9,2.1,2-.9,2-2.1,2-2.1-.9-2.1-2"/>
        <path class="isc-st1" d="M892.2,261.8c0-1.1.9-2,2.1-2s2.1.9,2.1,2-.9,2-2.1,2-2.1-.9-2.1-2"/>
        <path class="isc-st1" d="M892.2,293.7c0-1.1.9-2,2.1-2s2.1.9,2.1,2-.9,2-2.1,2-2.1-.9-2.1-2"/>
        <path class="isc-st1" d="M892.2,290.5c0-1.1.9-1.9,2.1-1.9s2.1.9,2.1,1.9-.9,2-2.1,2-2.1-.9-2.1-2"/>
        <path class="isc-st1" d="M892.2,271.4c0-1.1.9-1.9,2.1-1.9s2.1.9,2.1,1.9-.9,2-2.1,2-2.1-.9-2.1-2"/>
        <path class="isc-st1" d="M892.2,281c0-1.1.9-2,2.1-2s2.1.9,2.1,2-.9,2-2.1,2-2.1-.9-2.1-2"/>
        <path class="isc-st1" d="M892.2,284.2c0-1.1.9-1.9,2.1-1.9s2.1.9,2.1,1.9-.9,2-2.1,2-2.1-.9-2.1-2"/>
        <path class="isc-st1" d="M892.2,290.5c0-1.1.9-1.9,2.1-1.9s2.1.9,2.1,1.9-.9,2-2.1,2-2.1-.9-2.1-2"/>
        <path class="isc-st1" d="M892.2,287.3c0-1.1.9-1.9,2.1-1.9s2.1.9,2.1,1.9-.9,2-2.1,2-2.1-.9-2.1-2"/>
        <path class="isc-st1" d="M892.2,277.8c0-1.1.9-2,2.1-2s2.1.9,2.1,2-.9,2-2.1,2-2.1-.9-2.1-2"/>
        <path class="isc-st1" d="M892.2,293.7c0-1.1.9-2,2.1-2s2.1.9,2.1,2-.9,2-2.1,2-2.1-.9-2.1-2"/>
        <path class="isc-st1" d="M892.2,252.2c0-1.1.9-1.9,2.1-1.9s2.1.9,2.1,1.9-.9,2-2.1,2-2.1-.9-2.1-2"/>
        <path class="isc-st1" d="M892.2,252.2c0-1.1.9-1.9,2.1-1.9s2.1.9,2.1,1.9-.9,2-2.1,2-2.1-.9-2.1-2"/>
        <path class="isc-st1" d="M892.2,293.7c0-1.1.9-2,2.1-2s2.1.9,2.1,2-.9,2-2.1,2-2.1-.9-2.1-2"/>
        <path class="isc-st1" d="M892.2,287.3c0-1.1.9-1.9,2.1-1.9s2.1.9,2.1,1.9-.9,2-2.1,2-2.1-.9-2.1-2"/>
      </g>
      <g id="hbasmm2" data-name="hbasmm" class="box">
        <rect class="isc-st7" x="803.5" y="435.2" width="26.5" height="67"/>
        <line class="isc-st5" x1="803.5" y1="470.3" x2="830" y2="470.3"/>
        <line class="isc-st3" x1="816.7" y1="435.2" x2="816.7" y2="342.6"/>
        <line class="isc-st3" x1="816.7" y1="502.2" x2="816.7" y2="521.3"/>
        <rect class="isc-st6" x="803.5" y="435.2" width="26.5" height="67"/>
        <path class="isc-st1" d="M813.9,316.1c0-1.1.9-2,2.1-2s2.1.9,2.1,2-.9,2-2.1,2-2.1-.9-2.1-2"/>
        <path class="isc-st1" d="M813.9,265c0-1.1.9-1.9,2.1-1.9s2.1.9,2.1,1.9-.9,2-2.1,2-2.1-.9-2.1-2"/>
        <path class="isc-st1" d="M813.9,281c0-1.1.9-2,2.1-2s2.1.9,2.1,2-.9,2-2.1,2-2.1-.9-2.1-2"/>
      </g>
      <g id="hbasom2" data-name="hbasom" class="box">
        <rect class="isc-st7" x="725" y="416" width="26.5" height="76.6"/>
        <line class="isc-st5" x1="725" y1="460.7" x2="751.5" y2="460.7"/>
        <line class="isc-st3" x1="738.3" y1="416" x2="738.3" y2="301.1"/>
        <line class="isc-st3" x1="738.3" y1="492.6" x2="738.3" y2="521.3"/>
        <rect class="isc-st6" x="725" y="416" width="26.5" height="76.6"/>
        <path class="isc-st1" d="M736.1,281c0-1.1.9-2,2.1-2s2.1.9,2.1,2-.9,2-2.1,2-2.1-.9-2.1-2"/>
        <path class="isc-st1" d="M736.1,274.6c0-1.1.9-2,2.1-2s2.1.9,2.1,2-.9,2-2.1,2-2.1-.9-2.1-2"/>
        <path class="isc-st1" d="M736.1,249c0-1.1.9-1.9,2.1-1.9s2.1.9,2.1,1.9-.9,2-2.1,2-2.1-.9-2.1-2"/>
        <path class="isc-st1" d="M736.1,236.3c0-1.1.9-1.9,2.1-1.9s2.1.9,2.1,1.9-.9,2-2.1,2-2.1-.9-2.1-2"/>
        <path class="isc-st1" d="M736.1,274.6c0-1.1.9-2,2.1-2s2.1.9,2.1,2-.9,2-2.1,2-2.1-.9-2.1-2"/>
        <path class="isc-st1" d="M736.1,233.1c0-1.1.9-1.9,2.1-1.9s2.1.9,2.1,1.9-.9,2-2.1,2-2.1-.9-2.1-2"/>
        <path class="isc-st1" d="M736.1,281c0-1.1.9-2,2.1-2s2.1.9,2.1,2-.9,2-2.1,2-2.1-.9-2.1-2"/>
        <path class="isc-st1" d="M736.1,296.9c0-1.1.9-2,2.1-2s2.1.9,2.1,2-.9,2-2.1,2-2.1-.9-2.1-2"/>
        <path class="isc-st1" d="M736.1,284.2c0-1.1.9-1.9,2.1-1.9s2.1.9,2.1,1.9-.9,2-2.1,2-2.1-.9-2.1-2"/>
        <path class="isc-st1" d="M736.1,255.4c0-1.1.9-2,2.1-2s2.1.9,2.1,2-.9,2-2.1,2-2.1-.9-2.1-2"/>
      </g>
      <g id="hbap2" data-name="hbap" class="box">
        <rect class="isc-st7" x="646.6" y="409.6" width="26.5" height="79.8"/>
        <line class="isc-st5" x1="646.6" y1="451.1" x2="673.1" y2="451.1"/>
        <line class="isc-st3" x1="659.8" y1="409.6" x2="659.8" y2="304.3"/>
        <line class="isc-st3" x1="659.8" y1="489.4" x2="659.8" y2="521.3"/>
        <rect class="isc-st6" x="646.6" y="409.6" width="26.5" height="79.8"/>
      </g>
      <g id="hbau2" data-name="hbau" class="box">
        <rect class="isc-st7" x="568.1" y="420" width="26.5" height="79"/>
        <line class="isc-st5" x1="568.1" y1="470.3" x2="594.6" y2="470.3"/>
        <line class="isc-st3" x1="581.3" y1="420" x2="581.3" y2="304.3"/>
        <line class="isc-st3" x1="581.3" y1="499" x2="581.3" y2="521.3"/>
        <rect class="isc-st6" x="568.1" y="420" width="26.5" height="79"/>
        <path class="isc-st1" d="M579.3,277.8c0-1.1.9-2,2.1-2s2.1.9,2.1,2-.9,2-2.1,2-2.1-.9-2.1-2"/>
        <path class="isc-st1" d="M579.3,293.7c0-1.1.9-2,2.1-2s2.1.9,2.1,2-.9,2-2.1,2-2.1-.9-2.1-2"/>
        <path class="isc-st1" d="M579.3,296.9c0-1.1.9-2,2.1-2s2.1.9,2.1,2-.9,2-2.1,2-2.1-.9-2.1-2"/>
      </g>
    </g>
    <g id="fea">
      <g id="hbah3" data-name="hbah" class="box">
        <rect class="isc-st9" x="852.5" y="355.4" width="26.5" height="67"/>
        <line class="isc-st5" x1="852.5" y1="380.9" x2="879" y2="380.9"/>
        <line class="isc-st3" x1="865.8" y1="355.4" x2="865.8" y2="256.4"/>
        <rect class="isc-st6" x="852.5" y="355.4" width="26.5" height="67"/>
        <line class="isc-st3" x1="865.8" y1="422.4" x2="865.8" y2="521.3"/>
        <path class="isc-st1" d="M863.5,121.4c0-1.1.9-1.9,2.1-1.9s2.1.9,2.1,1.9-.9,2-2.1,2-2.1-.9-2.1-2"/>
        <path class="isc-st1" d="M863.5,118.2c0-1.1.9-2,2.1-2s2.1.9,2.1,2-.9,2-2.1,2-2.1-.9-2.1-2"/>
        <path class="isc-st1" d="M863.5,169.3c0-1.1.9-2,2.1-2s2.1.9,2.1,2-.9,2-2.1,2-2.1-.9-2.1-2"/>
        <path class="isc-st1" d="M863.5,159.7c0-1.1.9-1.9,2.1-1.9s2.1.9,2.1,1.9-.9,2-2.1,2-2.1-.9-2.1-2"/>
      </g>
      <g id="hbasmm3" data-name="hbasmm" class="box">
        <rect class="isc-st9" x="774.1" y="352.2" width="26.5" height="67"/>
        <line class="isc-st5" x1="774.1" y1="377.7" x2="800.6" y2="377.7"/>
        <line class="isc-st3" x1="787.3" y1="352.2" x2="787.3" y2="307.5"/>
        <rect class="isc-st6" x="774.1" y="352.2" width="26.5" height="67"/>
        <line class="isc-st3" x1="787.3" y1="419.2" x2="787.3" y2="518.2"/>
        <path class="isc-st1" d="M785,236.3c0-1.1.9-1.9,2.1-1.9s2.1.9,2.1,1.9-.9,2-2.1,2-2.1-.9-2.1-2"/>
        <path class="isc-st1" d="M785,520.3c0-1.1.9-1.9,2.1-1.9s2.1.9,2.1,1.9-.9,2-2.1,2-2.1-.9-2.1-2"/>
        <path class="isc-st1" d="M785,520.3c0-1.1.9-1.9,2.1-1.9s2.1.9,2.1,1.9-.9,2-2.1,2-2.1-.9-2.1-2"/>
      </g>
      <g id="hbasom3" data-name="hbasom" class="box">
        <rect class="isc-st9" x="695.6" y="352.2" width="26.5" height="70.2"/>
        <line class="isc-st5" x1="695.6" y1="377.7" x2="722.1" y2="377.7"/>
        <line class="isc-st3" x1="708.8" y1="352.2" x2="708.8" y2="262.8"/>
        <rect class="isc-st6" x="695.6" y="352.2" width="26.5" height="70.2"/>
        <line class="isc-st3" x1="708.8" y1="422.4" x2="708.8" y2="521.3"/>
        <path class="isc-st1" d="M707.4,236.3c0-1.1.9-1.9,2.1-1.9s2.1.9,2.1,1.9-.9,2-2.1,2-2.1-.9-2.1-2"/>
        <path class="isc-st1" d="M707.4,242.7c0-1.1.9-2,2.1-2s2.1.9,2.1,2-.9,2-2.1,2-2.1-.9-2.1-2"/>
      </g>
      <g id="hbap3" data-name="hbap" class="box">
        <rect class="isc-st9" x="617.2" y="365" width="26.5" height="68.6"/>
        <line class="isc-st5" x1="617.2" y1="392.1" x2="643.6" y2="392.1"/>
        <line class="isc-st3" x1="630.4" y1="365" x2="630.4" y2="301.1"/>
        <rect class="isc-st6" x="617.2" y="365" width="26.5" height="68.6"/>
        <line class="isc-st3" x1="630.4" y1="433.6" x2="630.4" y2="515"/>
      </g>
      <g id="hbau3" data-name="hbau" class="box">
        <rect class="isc-st9" x="538.7" y="355.4" width="26.5" height="67"/>
        <line class="isc-st5" x1="538.7" y1="380.9" x2="565.2" y2="380.9"/>
        <line class="isc-st3" x1="551.9" y1="355.4" x2="551.9" y2="262.8"/>
        <rect class="isc-st6" x="538.7" y="355.4" width="26.5" height="67"/>
        <line class="isc-st3" x1="551.9" y1="422.4" x2="551.9" y2="518.2"/>
        <path class="isc-st1" d="M549.7,204.4c0-1.1.9-2,2.1-2s2.1.9,2.1,2-.9,2-2.1,2-2.1-.9-2.1-2"/>
        <path class="isc-st1" d="M549.7,217.1c0-1.1.9-1.9,2.1-1.9s2.1.9,2.1,1.9-.9,2-2.1,2-2.1-.9-2.1-2"/>
      </g>
    </g>
    <g id="mua">
      <g id="hbah4" data-name="hbah" class="box">
        <rect class="isc-st7" x="439.3" y="470.3" width="26.5" height="38.3"/>
        <line class="isc-st5" x1="439.3" y1="495.8" x2="465.8" y2="495.8"/>
        <line class="isc-st3" x1="452.5" y1="470.3" x2="452.5" y2="412.8"/>
        <line class="isc-st3" x1="452.5" y1="508.6" x2="452.5" y2="521.3"/>
        <rect class="isc-st6" x="439.3" y="470.3" width="26.5" height="38.3"/>
        <path class="isc-st1" d="M450.4,373.5c0-1.1.9-1.9,2.1-1.9s2.1.9,2.1,1.9-.9,2-2.1,2-2.1-.9-2.1-2"/>
        <path class="isc-st1" d="M450.4,379.9c0-1.1.9-1.9,2.1-1.9s2.1.9,2.1,1.9-.9,2-2.1,2-2.1-.9-2.1-2"/>
        <path class="isc-st1" d="M450.4,402.3c0-1.1.9-2,2.1-2s2.1.9,2.1,2-.9,2-2.1,2-2.1-.9-2.1-2"/>
        <path class="isc-st1" d="M450.4,405.4c0-1.1.9-2,2.1-2s2.1.9,2.1,2-.9,2-2.1,2-2.1-.9-2.1-2"/>
        <path class="isc-st1" d="M450.4,408.6c0-1.1.9-1.9,2.1-1.9s2.1.9,2.1,1.9-.9,2-2.1,2-2.1-.9-2.1-2"/>
        <path class="isc-st1" d="M450.4,383.1c0-1.1.9-2,2.1-2s2.1.9,2.1,2-.9,2-2.1,2-2.1-.9-2.1-2"/>
        <path class="isc-st1" d="M450.4,395.9c0-1.1.9-1.9,2.1-1.9s2.1.9,2.1,1.9-.9,2-2.1,2-2.1-.9-2.1-2"/>
        <path class="isc-st1" d="M450.4,379.9c0-1.1.9-1.9,2.1-1.9s2.1.9,2.1,1.9-.9,2-2.1,2-2.1-.9-2.1-2"/>
        <path class="isc-st1" d="M450.4,402.3c0-1.1.9-2,2.1-2s2.1.9,2.1,2-.9,2-2.1,2-2.1-.9-2.1-2"/>
        <path class="isc-st1" d="M450.4,268.2c0-1.1.9-1.9,2.1-1.9s2.1.9,2.1,1.9-.9,2-2.1,2-2.1-.9-2.1-2"/>
        <path class="isc-st1" d="M450.4,402.3c0-1.1.9-2,2.1-2s2.1.9,2.1,2-.9,2-2.1,2-2.1-.9-2.1-2"/>
        <path class="isc-st1" d="M450.4,312.9c0-1.1.9-2,2.1-2s2.1.9,2.1,2-.9,2-2.1,2-2.1-.9-2.1-2"/>
        <path class="isc-st1" d="M450.4,402.3c0-1.1.9-2,2.1-2s2.1.9,2.1,2-.9,2-2.1,2-2.1-.9-2.1-2"/>
        <path class="isc-st1" d="M450.4,367.1c0-1.1.9-2,2.1-2s2.1.9,2.1,2-.9,2-2.1,2-2.1-.9-2.1-2"/>
        <path class="isc-st1" d="M450.4,392.7c0-1.1.9-1.9,2.1-1.9s2.1.9,2.1,1.9-.9,2-2.1,2-2.1-.9-2.1-2"/>
        <path class="isc-st1" d="M450.4,395.9c0-1.1.9-1.9,2.1-1.9s2.1.9,2.1,1.9-.9,2-2.1,2-2.1-.9-2.1-2"/>
        <path class="isc-st1" d="M450.4,351.2c0-1.1.9-2,2.1-2s2.1.9,2.1,2-.9,2-2.1,2-2.1-.9-2.1-2"/>
        <path class="isc-st1" d="M450.4,338.4c0-1.1.9-1.9,2.1-1.9s2.1.9,2.1,1.9-.9,2-2.1,2-2.1-.9-2.1-2"/>
        <path class="isc-st1" d="M450.4,357.6c0-1.1.9-1.9,2.1-1.9s2.1.9,2.1,1.9-.9,2-2.1,2-2.1-.9-2.1-2"/>
        <path class="isc-st1" d="M450.4,402.3c0-1.1.9-2,2.1-2s2.1.9,2.1,2-.9,2-2.1,2-2.1-.9-2.1-2"/>
        <path class="isc-st1" d="M450.4,335.2c0-1.1.9-2,2.1-2s2.1.9,2.1,2-.9,2-2.1,2-2.1-.9-2.1-2"/>
        <path class="isc-st1" d="M450.4,354.4c0-1.1.9-1.9,2.1-1.9s2.1.9,2.1,1.9-.9,2-2.1,2-2.1-.9-2.1-2"/>
        <path class="isc-st1" d="M450.4,399.1c0-1.1.9-1.9,2.1-1.9s2.1.9,2.1,1.9-.9,2-2.1,2-2.1-.9-2.1-2"/>
        <path class="isc-st1" d="M450.4,312.9c0-1.1.9-2,2.1-2s2.1.9,2.1,2-.9,2-2.1,2-2.1-.9-2.1-2"/>
        <path class="isc-st1" d="M450.4,405.4c0-1.1.9-2,2.1-2s2.1.9,2.1,2-.9,2-2.1,2-2.1-.9-2.1-2"/>
        <path class="isc-st1" d="M450.4,399.1c0-1.1.9-1.9,2.1-1.9s2.1.9,2.1,1.9-.9,2-2.1,2-2.1-.9-2.1-2"/>
        <path class="isc-st1" d="M450.4,322.5c0-1.1.9-1.9,2.1-1.9s2.1.9,2.1,1.9-.9,2-2.1,2-2.1-.9-2.1-2"/>
        <path class="isc-st1" d="M450.4,389.5c0-1.1.9-2,2.1-2s2.1.9,2.1,2-.9,2-2.1,2-2.1-.9-2.1-2"/>
      </g>
      <g id="hbasmm4" data-name="hbasmm" class="box">
        <rect class="isc-st7" x="360.9" y="475.1" width="26.5" height="36.7"/>
        <line class="isc-st5" x1="360.9" y1="499" x2="387.3" y2="499"/>
        <line class="isc-st3" x1="374.1" y1="475.1" x2="374.1" y2="422.4"/>
        <line class="isc-st3" x1="374.1" y1="511.8" x2="374.1" y2="521.3"/>
        <rect class="isc-st6" x="360.9" y="475.1" width="26.5" height="36.7"/>
        <path class="isc-st1" d="M371.9,370.3c0-1.1.9-2,2.1-2s2.1.9,2.1,2-.9,2-2.1,2-2.1-.9-2.1-2"/>
        <path class="isc-st1" d="M371.9,360.8c0-1.1.9-1.9,2.1-1.9s2.1.9,2.1,1.9-.9,2-2.1,2-2.1-.9-2.1-2"/>
        <path class="isc-st1" d="M371.9,389.5c0-1.1.9-2,2.1-2s2.1.9,2.1,2-.9,2-2.1,2-2.1-.9-2.1-2"/>
        <path class="isc-st1" d="M371.9,312.9c0-1.1.9-2,2.1-2s2.1.9,2.1,2-.9,2-2.1,2-2.1-.9-2.1-2"/>
      </g>
      <g id="hbasom4" data-name="hbasom" class="box">
        <rect class="isc-st7" x="282.5" y="467.1" width="26.5" height="41.5"/>
        <line class="isc-st5" x1="282.5" y1="495.8" x2="308.9" y2="495.8"/>
        <line class="isc-st3" x1="295.7" y1="467.1" x2="295.7" y2="406.4"/>
        <line class="isc-st3" x1="295.7" y1="508.6" x2="295.7" y2="521.3"/>
        <rect class="isc-st6" x="282.5" y="467.1" width="26.5" height="41.5"/>
        <path class="isc-st1" d="M293.3,402.3c0-1.1.9-2,2.1-2s2.1.9,2.1,2-.9,2-2.1,2-2.1-.9-2.1-2"/>
        <path class="isc-st1" d="M293.3,392.7c0-1.1.9-1.9,2.1-1.9s2.1.9,2.1,1.9-.9,2-2.1,2-2.1-.9-2.1-2"/>
        <path class="isc-st1" d="M293.3,402.3c0-1.1.9-2,2.1-2s2.1.9,2.1,2-.9,2-2.1,2-2.1-.9-2.1-2"/>
        <path class="isc-st1" d="M293.3,379.9c0-1.1.9-1.9,2.1-1.9s2.1.9,2.1,1.9-.9,2-2.1,2-2.1-.9-2.1-2"/>
        <path class="isc-st1" d="M293.3,351.2c0-1.1.9-2,2.1-2s2.1.9,2.1,2-.9,2-2.1,2-2.1-.9-2.1-2"/>
        <path class="isc-st1" d="M293.3,392.7c0-1.1.9-1.9,2.1-1.9s2.1.9,2.1,1.9-.9,2-2.1,2-2.1-.9-2.1-2"/>
        <path class="isc-st1" d="M293.3,354.4c0-1.1.9-1.9,2.1-1.9s2.1.9,2.1,1.9-.9,2-2.1,2-2.1-.9-2.1-2"/>
        <path class="isc-st1" d="M293.3,399.1c0-1.1.9-1.9,2.1-1.9s2.1.9,2.1,1.9-.9,2-2.1,2-2.1-.9-2.1-2"/>
        <path class="isc-st1" d="M293.3,338.4c0-1.1.9-1.9,2.1-1.9s2.1.9,2.1,1.9-.9,2-2.1,2-2.1-.9-2.1-2"/>
        <path class="isc-st1" d="M293.3,389.5c0-1.1.9-2,2.1-2s2.1.9,2.1,2-.9,2-2.1,2-2.1-.9-2.1-2"/>
        <path class="isc-st1" d="M293.3,402.3c0-1.1.9-2,2.1-2s2.1.9,2.1,2-.9,2-2.1,2-2.1-.9-2.1-2"/>
        <path class="isc-st1" d="M293.3,348c0-1.1.9-2,2.1-2s2.1.9,2.1,2-.9,2-2.1,2-2.1-.9-2.1-2"/>
        <path class="isc-st1" d="M293.3,395.9c0-1.1.9-1.9,2.1-1.9s2.1.9,2.1,1.9-.9,2-2.1,2-2.1-.9-2.1-2"/>
        <path class="isc-st1" d="M293.3,399.1c0-1.1.9-1.9,2.1-1.9s2.1.9,2.1,1.9-.9,2-2.1,2-2.1-.9-2.1-2"/>
        <path class="isc-st1" d="M293.3,370.3c0-1.1.9-2,2.1-2s2.1.9,2.1,2-.9,2-2.1,2-2.1-.9-2.1-2"/>
        <path class="isc-st1" d="M293.3,402.3c0-1.1.9-2,2.1-2s2.1.9,2.1,2-.9,2-2.1,2-2.1-.9-2.1-2"/>
        <path class="isc-st1" d="M293.3,392.7c0-1.1.9-1.9,2.1-1.9s2.1.9,2.1,1.9-.9,2-2.1,2-2.1-.9-2.1-2"/>
        <path class="isc-st1" d="M293.3,389.5c0-1.1.9-2,2.1-2s2.1.9,2.1,2-.9,2-2.1,2-2.1-.9-2.1-2"/>
        <path class="isc-st1" d="M293.3,274.6c0-1.1.9-2,2.1-2s2.1.9,2.1,2-.9,2-2.1,2-2.1-.9-2.1-2"/>
        <path class="isc-st1" d="M293.3,379.9c0-1.1.9-1.9,2.1-1.9s2.1.9,2.1,1.9-.9,2-2.1,2-2.1-.9-2.1-2"/>
        <path class="isc-st1" d="M293.3,351.2c0-1.1.9-2,2.1-2s2.1.9,2.1,2-.9,2-2.1,2-2.1-.9-2.1-2"/>
        <path class="isc-st1" d="M293.3,402.3c0-1.1.9-2,2.1-2s2.1.9,2.1,2-.9,2-2.1,2-2.1-.9-2.1-2"/>
        <path class="isc-st1" d="M293.3,370.3c0-1.1.9-2,2.1-2s2.1.9,2.1,2-.9,2-2.1,2-2.1-.9-2.1-2"/>
        <path class="isc-st1" d="M293.3,399.1c0-1.1.9-1.9,2.1-1.9s2.1.9,2.1,1.9-.9,2-2.1,2-2.1-.9-2.1-2"/>
        <path class="isc-st1" d="M293.3,386.3c0-1.1.9-2,2.1-2s2.1.9,2.1,2-.9,2-2.1,2-2.1-.9-2.1-2"/>
        <path class="isc-st1" d="M293.3,335.2c0-1.1.9-2,2.1-2s2.1.9,2.1,2-.9,2-2.1,2-2.1-.9-2.1-2"/>
        <path class="isc-st1" d="M293.3,338.4c0-1.1.9-1.9,2.1-1.9s2.1.9,2.1,1.9-.9,2-2.1,2-2.1-.9-2.1-2"/>
        <path class="isc-st1" d="M293.3,395.9c0-1.1.9-1.9,2.1-1.9s2.1.9,2.1,1.9-.9,2-2.1,2-2.1-.9-2.1-2"/>
        <path class="isc-st1" d="M293.3,402.3c0-1.1.9-2,2.1-2s2.1.9,2.1,2-.9,2-2.1,2-2.1-.9-2.1-2"/>
        <path class="isc-st1" d="M293.3,399.1c0-1.1.9-1.9,2.1-1.9s2.1.9,2.1,1.9-.9,2-2.1,2-2.1-.9-2.1-2"/>
        <path class="isc-st1" d="M293.3,399.1c0-1.1.9-1.9,2.1-1.9s2.1.9,2.1,1.9-.9,2-2.1,2-2.1-.9-2.1-2"/>
      </g>
      <g id="hbap4" data-name="hbap" class="box">
        <rect class="isc-st7" x="204" y="457.5" width="26.5" height="47.9"/>
        <line class="isc-st5" x1="204" y1="483" x2="230.5" y2="483"/>
        <line class="isc-st3" x1="217.3" y1="457.5" x2="217.3" y2="387.3"/>
        <line class="isc-st3" x1="217.3" y1="505.4" x2="217.3" y2="521.3"/>
        <rect class="isc-st6" x="204" y="457.5" width="26.5" height="47.9"/>
        <path class="isc-st1" d="M215.1,370.3c0-1.1.9-2,2.1-2s2.1.9,2.1,2-.9,2-2.1,2-2.1-.9-2.1-2"/>
        <path class="isc-st1" d="M215.1,354.4c0-1.1.9-1.9,2.1-1.9s2.1.9,2.1,1.9-.9,2-2.1,2-2.1-.9-2.1-2"/>
        <path class="isc-st1" d="M215.1,325.6c0-1.1.9-1.9,2.1-1.9s2.1.9,2.1,1.9-.9,2-2.1,2-2.1-.9-2.1-2"/>
        <path class="isc-st1" d="M215.1,383.1c0-1.1.9-2,2.1-2s2.1.9,2.1,2-.9,2-2.1,2-2.1-.9-2.1-2"/>
        <path class="isc-st1" d="M215.1,341.6c0-1.1.9-1.9,2.1-1.9s2.1.9,2.1,1.9-.9,2-2.1,2-2.1-.9-2.1-2"/>
      </g>
      <g id="hbau4" data-name="hbau" class="box">
        <rect class="isc-st7" x="125.6" y="473.5" width="26.5" height="38.3"/>
        <line class="isc-st5" x1="125.6" y1="495.8" x2="152.1" y2="495.8"/>
        <line class="isc-st3" x1="138.9" y1="473.5" x2="138.9" y2="419.2"/>
        <line class="isc-st3" x1="138.9" y1="511.8" x2="138.9" y2="521.3"/>
        <rect class="isc-st6" x="125.6" y="473.5" width="26.5" height="38.3"/>
        <path class="isc-st1" d="M136.8,373.5c0-1.1.9-1.9,2.1-1.9s2.1.9,2.1,1.9-.9,2-2.1,2-2.1-.9-2.1-2"/>
        <path class="isc-st1" d="M136.8,379.9c0-1.1.9-1.9,2.1-1.9s2.1.9,2.1,1.9-.9,2-2.1,2-2.1-.9-2.1-2"/>
        <path class="isc-st1" d="M136.8,405.4c0-1.1.9-2,2.1-2s2.1.9,2.1,2-.9,2-2.1,2-2.1-.9-2.1-2"/>
        <path class="isc-st1" d="M136.8,373.5c0-1.1.9-1.9,2.1-1.9s2.1.9,2.1,1.9-.9,2-2.1,2-2.1-.9-2.1-2"/>
        <path class="isc-st1" d="M136.8,389.5c0-1.1.9-2,2.1-2s2.1.9,2.1,2-.9,2-2.1,2-2.1-.9-2.1-2"/>
        <path class="isc-st1" d="M136.8,379.9c0-1.1.9-1.9,2.1-1.9s2.1.9,2.1,1.9-.9,2-2.1,2-2.1-.9-2.1-2"/>
        <path class="isc-st1" d="M136.8,415c0-1.1.9-1.9,2.1-1.9s2.1.9,2.1,1.9-.9,2-2.1,2-2.1-.9-2.1-2"/>
        <path class="isc-st1" d="M136.8,386.3c0-1.1.9-2,2.1-2s2.1.9,2.1,2-.9,2-2.1,2-2.1-.9-2.1-2"/>
        <path class="isc-st1" d="M136.8,383.1c0-1.1.9-2,2.1-2s2.1.9,2.1,2-.9,2-2.1,2-2.1-.9-2.1-2"/>
      </g>
    </g>
    <g id="mea">
      <g id="hbah5" data-name="hbah" class="box">
        <rect class="isc-st9" x="409.9" y="336.2" width="26.5" height="47.9"/>
        <line class="isc-st5" x1="409.9" y1="361.8" x2="436.4" y2="361.8"/>
        <line class="isc-st3" x1="423.1" y1="336.2" x2="423.1" y2="266"/>
        <line class="isc-st3" x1="423.1" y1="384.1" x2="423.1" y2="454.3"/>
        <rect class="isc-st6" x="409.9" y="336.2" width="26.5" height="47.9"/>
        <path class="isc-st1" d="M421.4,466.8c0-1.1.9-1.9,2.1-1.9s2.1.9,2.1,1.9-.9,2-2.1,2-2.1-.9-2.1-2"/>
        <path class="isc-st1" d="M421.4,492.3c0-1.1.9-2,2.1-2s2.1.9,2.1,2-.9,2-2.1,2-2.1-.9-2.1-2"/>
        <path class="isc-st1" d="M421.4,463.6c0-1.1.9-1.9,2.1-1.9s2.1.9,2.1,1.9-.9,2-2.1,2-2.1-.9-2.1-2"/>
        <path class="isc-st1" d="M421.4,505.1c0-1.1.9-1.9,2.1-1.9s2.1.9,2.1,1.9-.9,2-2.1,2-2.1-.9-2.1-2"/>
        <path class="isc-st1" d="M421.4,498.7c0-1.1.9-2,2.1-2s2.1.9,2.1,2-.9,2-2.1,2-2.1-.9-2.1-2"/>
        <path class="isc-st1" d="M421.4,486c0-1.1.9-1.9,2.1-1.9s2.1.9,2.1,1.9-.9,2-2.1,2-2.1-.9-2.1-2"/>
        <path class="isc-st1" d="M421.4,476.4c0-1.1.9-2,2.1-2s2.1.9,2.1,2-.9,2-2.1,2-2.1-.9-2.1-2"/>
        <path class="isc-st1" d="M421.4,501.9c0-1.1.9-1.9,2.1-1.9s2.1.9,2.1,1.9-.9,2-2.1,2-2.1-.9-2.1-2"/>
        <path class="isc-st1" d="M421.4,217.8c0-1.1.9-1.9,2.1-1.9s2.1.9,2.1,1.9-.9,2-2.1,2-2.1-.9-2.1-2"/>
        <path class="isc-st1" d="M421.4,198.7c0-1.1.9-1.9,2.1-1.9s2.1.9,2.1,1.9-.9,2-2.1,2-2.1-.9-2.1-2"/>
        <path class="isc-st1" d="M421.4,476.4c0-1.1.9-2,2.1-2s2.1.9,2.1,2-.9,2-2.1,2-2.1-.9-2.1-2"/>
        <path class="isc-st1" d="M421.4,457.2c0-1.1.9-2,2.1-2s2.1.9,2.1,2-.9,2-2.1,2-2.1-.9-2.1-2"/>
        <path class="isc-st1" d="M421.4,492.3c0-1.1.9-2,2.1-2s2.1.9,2.1,2-.9,2-2.1,2-2.1-.9-2.1-2"/>
        <path class="isc-st1" d="M421.4,262.5c0-1.1.9-2,2.1-2s2.1.9,2.1,2-.9,2-2.1,2-2.1-.9-2.1-2"/>
        <path class="isc-st1" d="M421.4,259.3c0-1.1.9-2,2.1-2s2.1.9,2.1,2-.9,2-2.1,2-2.1-.9-2.1-2"/>
        <path class="isc-st1" d="M421.4,505.1c0-1.1.9-1.9,2.1-1.9s2.1.9,2.1,1.9-.9,2-2.1,2-2.1-.9-2.1-2"/>
        <path class="isc-st1" d="M421.4,466.8c0-1.1.9-1.9,2.1-1.9s2.1.9,2.1,1.9-.9,2-2.1,2-2.1-.9-2.1-2"/>
        <path class="isc-st1" d="M421.4,256.2c0-1.1.9-2,2.1-2s2.1.9,2.1,2-.9,2-2.1,2-2.1-.9-2.1-2"/>
        <path class="isc-st1" d="M421.4,498.7c0-1.1.9-2,2.1-2s2.1.9,2.1,2-.9,2-2.1,2-2.1-.9-2.1-2"/>
        <path class="isc-st1" d="M421.4,486c0-1.1.9-1.9,2.1-1.9s2.1.9,2.1,1.9-.9,2-2.1,2-2.1-.9-2.1-2"/>
        <path class="isc-st1" d="M421.4,521.1c0-1.1.9-1.9,2.1-1.9s2.1.9,2.1,1.9-.9,2-2.1,2-2.1-.9-2.1-2"/>
        <path class="isc-st1" d="M421.4,498.7c0-1.1.9-2,2.1-2s2.1.9,2.1,2-.9,2-2.1,2-2.1-.9-2.1-2"/>
        <path class="isc-st1" d="M421.4,482.8c0-1.1.9-1.9,2.1-1.9s2.1.9,2.1,1.9-.9,2-2.1,2-2.1-.9-2.1-2"/>
        <path class="isc-st1" d="M421.4,460.4c0-1.1.9-2,2.1-2s2.1.9,2.1,2-.9,2-2.1,2-2.1-.9-2.1-2"/>
        <path class="isc-st1" d="M421.4,479.6c0-1.1.9-2,2.1-2s2.1.9,2.1,2-.9,2-2.1,2-2.1-.9-2.1-2"/>
        <path class="isc-st1" d="M421.4,476.4c0-1.1.9-2,2.1-2s2.1.9,2.1,2-.9,2-2.1,2-2.1-.9-2.1-2"/>
        <path class="isc-st1" d="M421.4,466.8c0-1.1.9-1.9,2.1-1.9s2.1.9,2.1,1.9-.9,2-2.1,2-2.1-.9-2.1-2"/>
        <path class="isc-st1" d="M421.4,486c0-1.1.9-1.9,2.1-1.9s2.1.9,2.1,1.9-.9,2-2.1,2-2.1-.9-2.1-2"/>
        <path class="isc-st1" d="M421.4,466.8c0-1.1.9-1.9,2.1-1.9s2.1.9,2.1,1.9-.9,2-2.1,2-2.1-.9-2.1-2"/>
        <path class="isc-st1" d="M421.4,479.6c0-1.1.9-2,2.1-2s2.1.9,2.1,2-.9,2-2.1,2-2.1-.9-2.1-2"/>
        <path class="isc-st1" d="M421.4,470c0-1.1.9-1.9,2.1-1.9s2.1.9,2.1,1.9-.9,2-2.1,2-2.1-.9-2.1-2"/>
        <path class="isc-st1" d="M421.4,246.6c0-1.1.9-1.9,2.1-1.9s2.1.9,2.1,1.9-.9,2-2.1,2-2.1-.9-2.1-2"/>
        <path class="isc-st1" d="M421.4,237c0-1.1.9-1.9,2.1-1.9s2.1.9,2.1,1.9-.9,2-2.1,2-2.1-.9-2.1-2"/>
        <path class="isc-st1" d="M421.4,463.6c0-1.1.9-1.9,2.1-1.9s2.1.9,2.1,1.9-.9,2-2.1,2-2.1-.9-2.1-2"/>
        <path class="isc-st1" d="M421.4,508.3c0-1.1.9-1.9,2.1-1.9s2.1.9,2.1,1.9-.9,2-2.1,2-2.1-.9-2.1-2"/>
        <path class="isc-st1" d="M421.4,457.2c0-1.1.9-2,2.1-2s2.1.9,2.1,2-.9,2-2.1,2-2.1-.9-2.1-2"/>
        <path class="isc-st1" d="M421.4,211.5c0-1.1.9-1.9,2.1-1.9s2.1.9,2.1,1.9-.9,2-2.1,2-2.1-.9-2.1-2"/>
      </g>
      <g id="hbasmm5" data-name="hbasmm" class="box">
        <rect class="isc-st9" x="331.5" y="345.8" width="26.5" height="31.9"/>
        <line class="isc-st5" x1="331.5" y1="361.8" x2="357.9" y2="361.8"/>
        <line class="isc-st3" x1="344.7" y1="345.8" x2="344.7" y2="310.7"/>
        <line class="isc-st3" x1="344.7" y1="377.7" x2="344.7" y2="425.6"/>
        <rect class="isc-st6" x="331.5" y="345.8" width="26.5" height="31.9"/>
        <path class="isc-st1" d="M342.6,134.1c0-1.1.9-2,2.1-2s2.1.9,2.1,2-.9,2-2.1,2-2.1-.9-2.1-2"/>
        <path class="isc-st1" d="M342.6,450.1c0-1.1.9-1.9,2.1-1.9s2.1.9,2.1,1.9-.9,2-2.1,2-2.1-.9-2.1-2"/>
        <path class="isc-st1" d="M342.6,290.5c0-1.1.9-1.9,2.1-1.9s2.1.9,2.1,1.9-.9,2-2.1,2-2.1-.9-2.1-2"/>
        <path class="isc-st1" d="M342.6,446.9c0-1.1.9-1.9,2.1-1.9s2.1.9,2.1,1.9-.9,2-2.1,2-2.1-.9-2.1-2"/>
        <path class="isc-st1" d="M342.6,290.5c0-1.1.9-1.9,2.1-1.9s2.1.9,2.1,1.9-.9,2-2.1,2-2.1-.9-2.1-2"/>
        <path class="isc-st1" d="M342.6,510.8c0-1.1.9-2,2.1-2s2.1.9,2.1,2-.9,2-2.1,2-2.1-.9-2.1-2"/>
        <path class="isc-st1" d="M342.6,293.7c0-1.1.9-2,2.1-2s2.1.9,2.1,2-.9,2-2.1,2-2.1-.9-2.1-2"/>
        <path class="isc-st1" d="M342.6,456.5c0-1.1.9-2,2.1-2s2.1.9,2.1,2-.9,2-2.1,2-2.1-.9-2.1-2"/>
        <path class="isc-st1" d="M342.6,229.9c0-1.1.9-1.9,2.1-1.9s2.1.9,2.1,1.9-.9,2-2.1,2-2.1-.9-2.1-2"/>
        <path class="isc-st1" d="M342.6,287.3c0-1.1.9-1.9,2.1-1.9s2.1.9,2.1,1.9-.9,2-2.1,2-2.1-.9-2.1-2"/>
        <path class="isc-st1" d="M342.6,446.9c0-1.1.9-1.9,2.1-1.9s2.1.9,2.1,1.9-.9,2-2.1,2-2.1-.9-2.1-2"/>
        <path class="isc-st1" d="M342.6,491.6c0-1.1.9-2,2.1-2s2.1.9,2.1,2-.9,2-2.1,2-2.1-.9-2.1-2"/>
        <path class="isc-st1" d="M342.6,485.2c0-1.1.9-1.9,2.1-1.9s2.1.9,2.1,1.9-.9,2-2.1,2-2.1-.9-2.1-2"/>
        <path class="isc-st1" d="M342.6,213.9c0-1.1.9-1.9,2.1-1.9s2.1.9,2.1,1.9-.9,2-2.1,2-2.1-.9-2.1-2"/>
        <path class="isc-st1" d="M342.6,456.5c0-1.1.9-2,2.1-2s2.1.9,2.1,2-.9,2-2.1,2-2.1-.9-2.1-2"/>
        <path class="isc-st1" d="M342.6,446.9c0-1.1.9-1.9,2.1-1.9s2.1.9,2.1,1.9-.9,2-2.1,2-2.1-.9-2.1-2"/>
        <path class="isc-st1" d="M342.6,446.9c0-1.1.9-1.9,2.1-1.9s2.1.9,2.1,1.9-.9,2-2.1,2-2.1-.9-2.1-2"/>
      </g>
      <g id="hbasom5" data-name="hbasom" class="box">
        <rect class="isc-st9" x="253" y="333" width="26.5" height="41.5"/>
        <line class="isc-st5" x1="253" y1="355.4" x2="279.5" y2="355.4"/>
        <line class="isc-st3" x1="266.3" y1="333" x2="266.3" y2="272.4"/>
        <line class="isc-st3" x1="266.3" y1="374.5" x2="266.3" y2="435.2"/>
        <rect class="isc-st6" x="253" y="333" width="26.5" height="41.5"/>
        <path class="isc-st1" d="M263.8,462.9c0-1.1.9-1.9,2.1-1.9s2.1.9,2.1,1.9-.9,2-2.1,2-2.1-.9-2.1-2"/>
        <path class="isc-st1" d="M263.8,514c0-1.1.9-2,2.1-2s2.1.9,2.1,2-.9,2-2.1,2-2.1-.9-2.1-2"/>
        <path class="isc-st1" d="M263.8,462.9c0-1.1.9-1.9,2.1-1.9s2.1.9,2.1,1.9-.9,2-2.1,2-2.1-.9-2.1-2"/>
        <path class="isc-st1" d="M263.8,478.9c0-1.1.9-2,2.1-2s2.1.9,2.1,2-.9,2-2.1,2-2.1-.9-2.1-2"/>
        <path class="isc-st1" d="M263.8,265c0-1.1.9-1.9,2.1-1.9s2.1.9,2.1,1.9-.9,2-2.1,2-2.1-.9-2.1-2"/>
        <path class="isc-st1" d="M263.8,466.1c0-1.1.9-1.9,2.1-1.9s2.1.9,2.1,1.9-.9,2-2.1,2-2.1-.9-2.1-2"/>
        <path class="isc-st1" d="M263.8,255.4c0-1.1.9-2,2.1-2s2.1.9,2.1,2-.9,2-2.1,2-2.1-.9-2.1-2"/>
        <path class="isc-st1" d="M263.8,242.7c0-1.1.9-2,2.1-2s2.1.9,2.1,2-.9,2-2.1,2-2.1-.9-2.1-2"/>
        <path class="isc-st1" d="M263.8,504.4c0-1.1.9-1.9,2.1-1.9s2.1.9,2.1,1.9-.9,2-2.1,2-2.1-.9-2.1-2"/>
        <path class="isc-st1" d="M263.8,446.9c0-1.1.9-1.9,2.1-1.9s2.1.9,2.1,1.9-.9,2-2.1,2-2.1-.9-2.1-2"/>
        <path class="isc-st1" d="M263.8,265c0-1.1.9-1.9,2.1-1.9s2.1.9,2.1,1.9-.9,2-2.1,2-2.1-.9-2.1-2"/>
        <path class="isc-st1" d="M263.8,245.9c0-1.1.9-1.9,2.1-1.9s2.1.9,2.1,1.9-.9,2-2.1,2-2.1-.9-2.1-2"/>
        <path class="isc-st1" d="M263.8,185.2c0-1.1.9-2,2.1-2s2.1.9,2.1,2-.9,2-2.1,2-2.1-.9-2.1-2"/>
        <path class="isc-st1" d="M263.8,223.5c0-1.1.9-2,2.1-2s2.1.9,2.1,2-.9,2-2.1,2-2.1-.9-2.1-2"/>
        <path class="isc-st1" d="M263.8,504.4c0-1.1.9-1.9,2.1-1.9s2.1.9,2.1,1.9-.9,2-2.1,2-2.1-.9-2.1-2"/>
        <path class="isc-st1" d="M263.8,485.2c0-1.1.9-1.9,2.1-1.9s2.1.9,2.1,1.9-.9,2-2.1,2-2.1-.9-2.1-2"/>
        <path class="isc-st1" d="M263.8,450.1c0-1.1.9-1.9,2.1-1.9s2.1.9,2.1,1.9-.9,2-2.1,2-2.1-.9-2.1-2"/>
        <path class="isc-st1" d="M263.8,485.2c0-1.1.9-1.9,2.1-1.9s2.1.9,2.1,1.9-.9,2-2.1,2-2.1-.9-2.1-2"/>
        <path class="isc-st1" d="M263.8,437.4c0-1.1.9-2,2.1-2s2.1.9,2.1,2-.9,2-2.1,2-2.1-.9-2.1-2"/>
        <path class="isc-st1" d="M263.8,437.4c0-1.1.9-2,2.1-2s2.1.9,2.1,2-.9,2-2.1,2-2.1-.9-2.1-2"/>
        <path class="isc-st1" d="M263.8,462.9c0-1.1.9-1.9,2.1-1.9s2.1.9,2.1,1.9-.9,2-2.1,2-2.1-.9-2.1-2"/>
        <path class="isc-st1" d="M263.8,249c0-1.1.9-1.9,2.1-1.9s2.1.9,2.1,1.9-.9,2-2.1,2-2.1-.9-2.1-2"/>
        <path class="isc-st1" d="M263.8,462.9c0-1.1.9-1.9,2.1-1.9s2.1.9,2.1,1.9-.9,2-2.1,2-2.1-.9-2.1-2"/>
        <path class="isc-st1" d="M263.8,501.2c0-1.1.9-1.9,2.1-1.9s2.1.9,2.1,1.9-.9,2-2.1,2-2.1-.9-2.1-2"/>
        <path class="isc-st1" d="M263.8,437.4c0-1.1.9-2,2.1-2s2.1.9,2.1,2-.9,2-2.1,2-2.1-.9-2.1-2"/>
        <path class="isc-st1" d="M263.8,258.6c0-1.1.9-2,2.1-2s2.1.9,2.1,2-.9,2-2.1,2-2.1-.9-2.1-2"/>
        <path class="isc-st1" d="M263.8,456.5c0-1.1.9-2,2.1-2s2.1.9,2.1,2-.9,2-2.1,2-2.1-.9-2.1-2"/>
        <path class="isc-st1" d="M263.8,466.1c0-1.1.9-1.9,2.1-1.9s2.1.9,2.1,1.9-.9,2-2.1,2-2.1-.9-2.1-2"/>
        <path class="isc-st1" d="M263.8,501.2c0-1.1.9-1.9,2.1-1.9s2.1.9,2.1,1.9-.9,2-2.1,2-2.1-.9-2.1-2"/>
        <path class="isc-st1" d="M263.8,504.4c0-1.1.9-1.9,2.1-1.9s2.1.9,2.1,1.9-.9,2-2.1,2-2.1-.9-2.1-2"/>
        <path class="isc-st1" d="M263.8,268.2c0-1.1.9-1.9,2.1-1.9s2.1.9,2.1,1.9-.9,2-2.1,2-2.1-.9-2.1-2"/>
        <path class="isc-st1" d="M263.8,466.1c0-1.1.9-1.9,2.1-1.9s2.1.9,2.1,1.9-.9,2-2.1,2-2.1-.9-2.1-2"/>
        <path class="isc-st1" d="M263.8,501.2c0-1.1.9-1.9,2.1-1.9s2.1.9,2.1,1.9-.9,2-2.1,2-2.1-.9-2.1-2"/>
        <path class="isc-st1" d="M263.8,475.7c0-1.1.9-2,2.1-2s2.1.9,2.1,2-.9,2-2.1,2-2.1-.9-2.1-2"/>
        <path class="isc-st1" d="M263.8,491.6c0-1.1.9-2,2.1-2s2.1.9,2.1,2-.9,2-2.1,2-2.1-.9-2.1-2"/>
        <path class="isc-st1" d="M263.8,450.1c0-1.1.9-1.9,2.1-1.9s2.1.9,2.1,1.9-.9,2-2.1,2-2.1-.9-2.1-2"/>
        <path class="isc-st1" d="M263.8,466.1c0-1.1.9-1.9,2.1-1.9s2.1.9,2.1,1.9-.9,2-2.1,2-2.1-.9-2.1-2"/>
        <path class="isc-st1" d="M263.8,446.9c0-1.1.9-1.9,2.1-1.9s2.1.9,2.1,1.9-.9,2-2.1,2-2.1-.9-2.1-2"/>
        <path class="isc-st1" d="M263.8,485.2c0-1.1.9-1.9,2.1-1.9s2.1.9,2.1,1.9-.9,2-2.1,2-2.1-.9-2.1-2"/>
        <path class="isc-st1" d="M263.8,456.5c0-1.1.9-2,2.1-2s2.1.9,2.1,2-.9,2-2.1,2-2.1-.9-2.1-2"/>
        <path class="isc-st1" d="M263.8,485.2c0-1.1.9-1.9,2.1-1.9s2.1.9,2.1,1.9-.9,2-2.1,2-2.1-.9-2.1-2"/>
        <path class="isc-st1" d="M263.8,226.7c0-1.1.9-2,2.1-2s2.1.9,2.1,2-.9,2-2.1,2-2.1-.9-2.1-2"/>
        <path class="isc-st1" d="M263.8,488.4c0-1.1.9-1.9,2.1-1.9s2.1.9,2.1,1.9-.9,2-2.1,2-2.1-.9-2.1-2"/>
        <path class="isc-st1" d="M263.8,229.9c0-1.1.9-1.9,2.1-1.9s2.1.9,2.1,1.9-.9,2-2.1,2-2.1-.9-2.1-2"/>
        <path class="isc-st1" d="M263.8,255.4c0-1.1.9-2,2.1-2s2.1.9,2.1,2-.9,2-2.1,2-2.1-.9-2.1-2"/>
        <path class="isc-st1" d="M263.8,245.9c0-1.1.9-1.9,2.1-1.9s2.1.9,2.1,1.9-.9,2-2.1,2-2.1-.9-2.1-2"/>
        <path class="isc-st1" d="M263.8,507.6c0-1.1.9-1.9,2.1-1.9s2.1.9,2.1,1.9-.9,2-2.1,2-2.1-.9-2.1-2"/>
        <path class="isc-st1" d="M263.8,252.2c0-1.1.9-1.9,2.1-1.9s2.1.9,2.1,1.9-.9,2-2.1,2-2.1-.9-2.1-2"/>
        <path class="isc-st1" d="M263.8,450.1c0-1.1.9-1.9,2.1-1.9s2.1.9,2.1,1.9-.9,2-2.1,2-2.1-.9-2.1-2"/>
        <path class="isc-st1" d="M263.8,453.3c0-1.1.9-1.9,2.1-1.9s2.1.9,2.1,1.9-.9,2-2.1,2-2.1-.9-2.1-2"/>
        <path class="isc-st1" d="M263.8,265c0-1.1.9-1.9,2.1-1.9s2.1.9,2.1,1.9-.9,2-2.1,2-2.1-.9-2.1-2"/>
        <path class="isc-st1" d="M263.8,498c0-1.1.9-2,2.1-2s2.1.9,2.1,2-.9,2-2.1,2-2.1-.9-2.1-2"/>
        <path class="isc-st1" d="M263.8,217.1c0-1.1.9-1.9,2.1-1.9s2.1.9,2.1,1.9-.9,2-2.1,2-2.1-.9-2.1-2"/>
        <path class="isc-st1" d="M263.8,475.7c0-1.1.9-2,2.1-2s2.1.9,2.1,2-.9,2-2.1,2-2.1-.9-2.1-2"/>
        <path class="isc-st1" d="M263.8,162.9c0-1.1.9-1.9,2.1-1.9s2.1.9,2.1,1.9-.9,2-2.1,2-2.1-.9-2.1-2"/>
        <path class="isc-st1" d="M263.8,517.2c0-1.1.9-1.9,2.1-1.9s2.1.9,2.1,1.9-.9,2-2.1,2-2.1-.9-2.1-2"/>
        <path class="isc-st1" d="M263.8,501.2c0-1.1.9-1.9,2.1-1.9s2.1.9,2.1,1.9-.9,2-2.1,2-2.1-.9-2.1-2"/>
        <path class="isc-st1" d="M263.8,482c0-1.1.9-1.9,2.1-1.9s2.1.9,2.1,1.9-.9,2-2.1,2-2.1-.9-2.1-2"/>
        <path class="isc-st1" d="M263.8,236.3c0-1.1.9-1.9,2.1-1.9s2.1.9,2.1,1.9-.9,2-2.1,2-2.1-.9-2.1-2"/>
        <path class="isc-st1" d="M263.8,185.2c0-1.1.9-2,2.1-2s2.1.9,2.1,2-.9,2-2.1,2-2.1-.9-2.1-2"/>
        <path class="isc-st1" d="M263.8,255.4c0-1.1.9-2,2.1-2s2.1.9,2.1,2-.9,2-2.1,2-2.1-.9-2.1-2"/>
        <path class="isc-st1" d="M263.8,520.3c0-1.1.9-1.9,2.1-1.9s2.1.9,2.1,1.9-.9,2-2.1,2-2.1-.9-2.1-2"/>
        <path class="isc-st1" d="M263.8,450.1c0-1.1.9-1.9,2.1-1.9s2.1.9,2.1,1.9-.9,2-2.1,2-2.1-.9-2.1-2"/>
        <path class="isc-st1" d="M263.8,258.6c0-1.1.9-2,2.1-2s2.1.9,2.1,2-.9,2-2.1,2-2.1-.9-2.1-2"/>
        <path class="isc-st1" d="M263.8,491.6c0-1.1.9-2,2.1-2s2.1.9,2.1,2-.9,2-2.1,2-2.1-.9-2.1-2"/>
        <path class="isc-st1" d="M263.8,207.6c0-1.1.9-2,2.1-2s2.1.9,2.1,2-.9,2-2.1,2-2.1-.9-2.1-2"/>
        <path class="isc-st1" d="M263.8,510.8c0-1.1.9-2,2.1-2s2.1.9,2.1,2-.9,2-2.1,2-2.1-.9-2.1-2"/>
        <path class="isc-st1" d="M263.8,213.9c0-1.1.9-1.9,2.1-1.9s2.1.9,2.1,1.9-.9,2-2.1,2-2.1-.9-2.1-2"/>
        <path class="isc-st1" d="M263.8,504.4c0-1.1.9-1.9,2.1-1.9s2.1.9,2.1,1.9-.9,2-2.1,2-2.1-.9-2.1-2"/>
        <path class="isc-st1" d="M263.8,437.4c0-1.1.9-2,2.1-2s2.1.9,2.1,2-.9,2-2.1,2-2.1-.9-2.1-2"/>
        <path class="isc-st1" d="M263.8,491.6c0-1.1.9-2,2.1-2s2.1.9,2.1,2-.9,2-2.1,2-2.1-.9-2.1-2"/>
        <path class="isc-st1" d="M263.8,466.1c0-1.1.9-1.9,2.1-1.9s2.1.9,2.1,1.9-.9,2-2.1,2-2.1-.9-2.1-2"/>
        <path class="isc-st1" d="M263.8,111.8c0-1.1.9-2,2.1-2s2.1.9,2.1,2-.9,2-2.1,2-2.1-.9-2.1-2"/>
        <path class="isc-st1" d="M263.8,472.5c0-1.1.9-2,2.1-2s2.1.9,2.1,2-.9,2-2.1,2-2.1-.9-2.1-2"/>
        <path class="isc-st1" d="M263.8,443.7c0-1.1.9-2,2.1-2s2.1.9,2.1,2-.9,2-2.1,2-2.1-.9-2.1-2"/>
        <path class="isc-st1" d="M263.8,268.2c0-1.1.9-1.9,2.1-1.9s2.1.9,2.1,1.9-.9,2-2.1,2-2.1-.9-2.1-2"/>
      </g>
      <g id="hbap5" data-name="hbap" class="box">
        <rect class="isc-st9" x="174.6" y="333" width="26.5" height="54.3"/>
        <line class="isc-st5" x1="174.6" y1="361.8" x2="201.1" y2="361.8"/>
        <line class="isc-st3" x1="187.9" y1="333" x2="187.9" y2="266"/>
        <line class="isc-st3" x1="187.9" y1="387.3" x2="187.9" y2="457.5"/>
        <rect class="isc-st6" x="174.6" y="333" width="26.5" height="54.3"/>
        <path class="isc-st1" d="M185.4,514c0-1.1.9-2,2.1-2s2.1.9,2.1,2-.9,2-2.1,2-2.1-.9-2.1-2"/>
        <path class="isc-st1" d="M185.4,485.2c0-1.1.9-1.9,2.1-1.9s2.1.9,2.1,1.9-.9,2-2.1,2-2.1-.9-2.1-2"/>
        <path class="isc-st1" d="M185.4,488.4c0-1.1.9-1.9,2.1-1.9s2.1.9,2.1,1.9-.9,2-2.1,2-2.1-.9-2.1-2"/>
        <path class="isc-st1" d="M185.4,494.8c0-1.1.9-2,2.1-2s2.1.9,2.1,2-.9,2-2.1,2-2.1-.9-2.1-2"/>
        <path class="isc-st1" d="M185.4,517.2c0-1.1.9-1.9,2.1-1.9s2.1.9,2.1,1.9-.9,2-2.1,2-2.1-.9-2.1-2"/>
        <path class="isc-st1" d="M185.4,185.2c0-1.1.9-2,2.1-2s2.1.9,2.1,2-.9,2-2.1,2-2.1-.9-2.1-2"/>
        <path class="isc-st1" d="M185.4,504.4c0-1.1.9-1.9,2.1-1.9s2.1.9,2.1,1.9-.9,2-2.1,2-2.1-.9-2.1-2"/>
        <path class="isc-st1" d="M185.4,504.4c0-1.1.9-1.9,2.1-1.9s2.1.9,2.1,1.9-.9,2-2.1,2-2.1-.9-2.1-2"/>
        <path class="isc-st1" d="M185.4,485.2c0-1.1.9-1.9,2.1-1.9s2.1.9,2.1,1.9-.9,2-2.1,2-2.1-.9-2.1-2"/>
        <path class="isc-st1" d="M185.4,520.3c0-1.1.9-1.9,2.1-1.9s2.1.9,2.1,1.9-.9,2-2.1,2-2.1-.9-2.1-2"/>
        <path class="isc-st1" d="M185.4,491.6c0-1.1.9-2,2.1-2s2.1.9,2.1,2-.9,2-2.1,2-2.1-.9-2.1-2"/>
      </g>
      <g id="hbau5" data-name="hbau" class="box">
        <rect class="isc-st9" x="96.2" y="336.2" width="26.5" height="47.9"/>
        <line class="isc-st5" x1="96.2" y1="355.4" x2="122.7" y2="355.4"/>
        <line class="isc-st3" x1="109.5" y1="336.2" x2="109.5" y2="272.4"/>
        <line class="isc-st3" x1="109.5" y1="384.1" x2="109.5" y2="447.9"/>
        <rect class="isc-st6" x="96.2" y="336.2" width="26.5" height="47.9"/>
        <path class="isc-st1" d="M107.4,485.2c0-1.1.9-1.9,2.1-1.9s2.1.9,2.1,1.9-.9,2-2.1,2-2.1-.9-2.1-2"/>
        <path class="isc-st1" d="M107.4,249c0-1.1.9-1.9,2.1-1.9s2.1.9,2.1,1.9-.9,2-2.1,2-2.1-.9-2.1-2"/>
        <path class="isc-st1" d="M107.4,498c0-1.1.9-2,2.1-2s2.1.9,2.1,2-.9,2-2.1,2-2.1-.9-2.1-2"/>
        <path class="isc-st1" d="M107.4,245.9c0-1.1.9-1.9,2.1-1.9s2.1.9,2.1,1.9-.9,2-2.1,2-2.1-.9-2.1-2"/>
        <path class="isc-st1" d="M107.4,494.8c0-1.1.9-2,2.1-2s2.1.9,2.1,2-.9,2-2.1,2-2.1-.9-2.1-2"/>
        <path class="isc-st1" d="M107.4,514c0-1.1.9-2,2.1-2s2.1.9,2.1,2-.9,2-2.1,2-2.1-.9-2.1-2"/>
      </g>
    </g>
  </g>
  <g id="legende">
    <rect class="isc-st0" x="279.2" y="10.8" width="433.8" height="43.5"/>
    <g id="ua">
      <rect class="isc-st7" x="470" y="22.2" width="28.9" height="19.3"/>
      <line class="isc-st3" x1="484.5" y1="47.3" x2="484.5" y2="41.5"/>
      <line class="isc-st3" x1="484.5" y1="22.2" x2="484.5" y2="16.5"/>
      <rect class="isc-st3" x="470" y="22.2" width="28.9" height="19.3"/>
      <line class="isc-st3" x1="470" y1="31.9" x2="499" y2="31.9"/>
      <g>
        <path d="M508,24.8v-7.1h.7v7.1c0,2.1,1,3.4,3.3,3.4s3.3-1.3,3.3-3.4v-7.1h.7v7.1c0,2.4-1.3,4-4,4s-4-1.6-4-4Z"/>
        <path d="M521.9,21.2c-1.8,0-2.7,1.2-2.7,2.6v4.8h-.7v-7.9h.7v1.4c.5-.9,1.4-1.5,2.8-1.5s2.9,1,2.9,3.2v4.9h-.7v-4.8c0-1.8-.9-2.6-2.3-2.6Z"/>
        <path d="M527.4,17.5h.7v5.2c.6-1.3,1.8-2.1,3.3-2.1,2.2,0,3.9,1.7,3.9,4.1s-1.7,4.1-3.9,4.1-2.7-.8-3.3-2.1v1.9h-.7v-11.2ZM531.3,28.3c1.9,0,3.3-1.4,3.3-3.5s-1.4-3.5-3.3-3.5-3.3,1.4-3.3,3.5,1.4,3.5,3.3,3.5Z"/>
        <path d="M536.9,24.7c0-2.4,1.6-4.1,3.9-4.1s3.6,1.8,3.6,3.9h-6.8v.2c0,2.1,1.4,3.6,3.3,3.6s2.6-.9,3.2-2l.4.2c-.5,1.3-1.8,2.4-3.6,2.4s-3.9-1.7-3.9-4.1ZM543.7,24.1c-.2-1.6-1.2-2.9-2.9-2.9s-2.9,1.2-3.1,2.9h6Z"/>
        <path d="M545.7,28.3l4.7-6.9h-4.5v-.6h5.4v.4l-4.7,6.9h4.7v.6h-5.6v-.4Z"/>
        <path d="M558.2,27.2c-.5.9-1.6,1.6-3,1.6s-2.6-.8-2.6-2.2,1.2-2.3,3.3-2.3h2.4v-.6c0-1.7-.8-2.5-2.3-2.5s-2.1.6-2.7,1.6l-.4-.3c.5-1.2,1.6-2,3.1-2s2.9,1.1,2.9,3.1v4.9h-.7v-1.4ZM555.3,28.4c1.8,0,2.9-1.2,2.9-2.5v-.9h-2.3c-1.9,0-2.7.6-2.7,1.7s.8,1.7,2.1,1.7Z"/>
        <path d="M561.1,17.5h.7v4.7c.5-.9,1.4-1.5,2.8-1.5s2.9,1,2.9,3.2v4.9h-.7v-4.8c0-1.8-.9-2.6-2.3-2.6s-2.7,1.2-2.7,2.6v4.8h-.7v-11.2Z"/>
        <path d="M570,17.5h.7v11.2h-.7v-11.2Z"/>
        <path d="M573.7,26.7v-5.3h-1.4v-.4h.6c.6-.1.8-.3.9-.9v-1.3h.6v2h2.8v.6h-2.8v5.3c0,1,.6,1.6,1.6,1.6s1-.2,1.3-.3v.5c-.3.2-.9.4-1.5.4-1.3,0-2.1-.8-2.1-2.1Z"/>
        <path d="M578.2,24.7c0-2.4,1.6-4.1,3.9-4.1s3.6,1.8,3.6,3.9h-6.8v.2c0,2.1,1.4,3.6,3.3,3.6s2.6-.9,3.2-2l.4.2c-.5,1.3-1.8,2.4-3.6,2.4s-3.9-1.7-3.9-4.1ZM585,24.1c-.2-1.6-1.2-2.9-2.9-2.9s-2.9,1.2-3.1,2.9h6Z"/>
        <path d="M594.2,17.8h.7l4.3,10.9h-.8l-1.3-3.3h-5.4l-1.3,3.3h-.7l4.3-10.9ZM597,24.8l-2.5-6.3-2.5,6.3h5Z"/>
        <path d="M601,20.8h.7v2.1c.5-1.3,1.7-2.3,3.2-2v.6c-1.9-.2-3.2,1.3-3.2,3.1v4.2h-.7v-7.9Z"/>
        <path d="M606,17.5h.7v5.2c.6-1.3,1.8-2.1,3.3-2.1,2.2,0,3.9,1.7,3.9,4.1s-1.7,4.1-3.9,4.1-2.7-.8-3.3-2.1v1.9h-.7v-11.2ZM610,28.3c1.9,0,3.3-1.4,3.3-3.5s-1.4-3.5-3.3-3.5-3.3,1.4-3.3,3.5,1.4,3.5,3.3,3.5Z"/>
        <path d="M615.6,24.7c0-2.4,1.6-4.1,3.9-4.1s3.6,1.8,3.6,3.9h-6.8v.2c0,2.1,1.4,3.6,3.3,3.6s2.6-.9,3.2-2l.4.2c-.5,1.3-1.8,2.4-3.6,2.4s-3.9-1.7-3.9-4.1ZM622.3,24.1c-.2-1.6-1.2-2.9-2.9-2.9s-2.9,1.2-3.1,2.9h6Z"/>
        <path d="M625.5,17.9c.3,0,.5.2.5.5s-.2.5-.5.5-.5-.2-.5-.5.2-.5.5-.5ZM625.2,20.8h.7v7.9h-.7v-7.9Z"/>
        <path d="M628.8,26.7v-5.3h-1.4v-.4h.6c.6-.1.8-.3.9-.9v-1.3h.6v2h2.8v.6h-2.8v5.3c0,1,.6,1.6,1.6,1.6s1-.2,1.3-.3v.5c-.3.2-.9.4-1.5.4-1.3,0-2.1-.8-2.1-2.1Z"/>
        <path d="M507.3,40.3c0-2.7,1.3-4.9,3.2-6l.3.3c-1.7,1.1-3,3.2-3,5.8s1.2,4.7,3,5.8l-.3.3c-1.9-1.1-3.2-3.3-3.2-6Z"/>
        <path d="M518.6,39.6h-5.8v4.6h-.6v-9.4h.6v4.3h5.8v-4.3h.6v9.4h-.6v-4.6Z"/>
        <path d="M525.9,42.9c-.5.8-1.4,1.4-2.6,1.4s-2.3-.7-2.3-1.9,1-2,2.8-2h2v-.5c0-1.4-.7-2.2-2-2.2s-1.8.5-2.3,1.4l-.3-.2c.4-1,1.4-1.7,2.7-1.7s2.5.9,2.5,2.7v4.2h-.6v-1.2ZM523.4,43.9c1.5,0,2.5-1,2.5-2.2v-.8h-2c-1.6,0-2.3.6-2.3,1.5s.7,1.5,1.8,1.5Z"/>
        <path d="M528.5,41.6v-4.2h.6v4.1c0,1.5.7,2.3,2,2.3s2.3-1.1,2.3-2.3v-4.1h.6v6.7h-.6v-1.2c-.4.8-1.2,1.3-2.4,1.3s-2.5-.9-2.5-2.7Z"/>
        <path d="M535.6,43.2l.2-.4c.5.6,1.2.9,2.2.9s1.9-.5,1.9-1.4-.5-1.2-1.8-1.5h-.2c-1.5-.4-2.1-.9-2.1-1.9s1-1.8,2.2-1.8,1.8.4,2.3.9l-.2.4c-.5-.5-1.3-.8-2.1-.8s-1.6.4-1.6,1.3.4,1.1,1.7,1.4h.2c1.6.4,2.2,1,2.2,2s-1.1,1.9-2.4,1.9-1.8-.4-2.4-1Z"/>
        <path d="M542.1,34.5h.6v4c.4-.8,1.2-1.3,2.4-1.3s2.5.9,2.5,2.7v4.2h-.6v-4.1c0-1.5-.7-2.3-2-2.3s-2.3,1.1-2.3,2.3v4.1h-.6v-9.6Z"/>
        <path d="M554.2,42.9c-.5.8-1.4,1.4-2.6,1.4s-2.3-.7-2.3-1.9,1-2,2.8-2h2v-.5c0-1.4-.7-2.2-2-2.2s-1.8.5-2.3,1.4l-.3-.2c.4-1,1.4-1.7,2.7-1.7s2.5.9,2.5,2.7v4.2h-.6v-1.2ZM551.7,43.9c1.5,0,2.5-1,2.5-2.2v-.8h-2c-1.6,0-2.3.6-2.3,1.5s.7,1.5,1.8,1.5Z"/>
        <path d="M556.8,34.5h.6v9.6h-.6v-9.6Z"/>
        <path d="M559.9,42.4v-4.6h-1.2v-.3h.5c.5,0,.7-.2.7-.8v-1.1h.5v1.7h2.4v.5h-2.4v4.6c0,.9.5,1.4,1.3,1.4s.8-.2,1.1-.3v.4c-.3.2-.7.4-1.3.4-1.1,0-1.8-.7-1.8-1.8Z"/>
        <path d="M567.3,41.6v-4.2h.6v4.1c0,1.5.7,2.3,2,2.3s2.3-1.1,2.3-2.3v-4.1h.6v6.7h-.6v-1.2c-.4.8-1.2,1.3-2.4,1.3s-2.5-.9-2.5-2.7Z"/>
        <path d="M577.9,37.7c-1.5,0-2.3,1.1-2.3,2.3v4.1h-.6v-6.7h.6v1.2c.4-.8,1.2-1.3,2.4-1.3s2.5.9,2.5,2.7v4.2h-.6v-4.1c0-1.5-.7-2.3-2-2.3Z"/>
        <path d="M582.2,40.7c0-2,1.4-3.5,3.3-3.5s2.3.7,2.8,1.8v-4.5h.6v9.6h-.6v-1.7c-.5,1.1-1.6,1.8-2.9,1.8-1.9,0-3.3-1.5-3.3-3.5ZM585.6,43.8c1.6,0,2.8-1.2,2.8-3s-1.2-3-2.8-3-2.8,1.2-2.8,3,1.2,3,2.8,3Z"/>
        <path d="M594.4,34.7h.6v5l5-5h.7l-4.1,4.1,4.3,5.3h-.7l-4-4.9-1.2,1.2v3.7h-.6v-9.4Z"/>
        <path d="M602.4,34.8c.3,0,.5.2.5.4s-.2.4-.5.4-.4-.2-.4-.4.2-.4.4-.4ZM602.1,37.4h.6v6.7h-.6v-6.7Z"/>
        <path d="M607.9,37.7c-1.5,0-2.3,1.1-2.3,2.3v4.1h-.6v-6.7h.6v1.2c.4-.8,1.2-1.3,2.4-1.3s2.5.9,2.5,2.7v4.2h-.6v-4.1c0-1.5-.7-2.3-2-2.3Z"/>
        <path d="M612.2,40.7c0-2,1.4-3.5,3.3-3.5s2.3.7,2.8,1.8v-4.5h.6v9.6h-.6v-1.7c-.5,1.1-1.6,1.8-2.9,1.8-1.9,0-3.3-1.5-3.3-3.5ZM615.6,43.8c1.6,0,2.8-1.2,2.8-3s-1.2-3-2.8-3-2.8,1.2-2.8,3,1.2,3,2.8,3Z"/>
        <path d="M620.8,40.7c0-2,1.4-3.5,3.3-3.5s3.1,1.5,3.1,3.4h-5.8c0,2,1.2,3.2,2.8,3.2s2.2-.7,2.7-1.7l.3.2c-.4,1.1-1.5,2.1-3.1,2.1s-3.4-1.5-3.4-3.5ZM626.7,40.2c-.2-1.4-1-2.5-2.5-2.5s-2.5,1-2.7,2.5h5.2Z"/>
        <path d="M629.1,37.4h.6v1.8c.4-1.1,1.5-2,2.8-1.8v.5c-1.6-.2-2.8,1.1-2.8,2.6v3.6h-.6v-6.7Z"/>
        <path d="M633.4,34.5h.6v4.5c.5-1.1,1.6-1.8,2.8-1.8,1.9,0,3.3,1.5,3.3,3.5s-1.4,3.5-3.3,3.5-2.3-.7-2.9-1.8v1.6h-.6v-9.6ZM636.8,43.8c1.6,0,2.8-1.2,2.8-3s-1.2-3-2.8-3-2.8,1.2-2.8,3,1.2,3,2.8,3Z"/>
        <path d="M641.6,40.7c0-2,1.4-3.5,3.3-3.5s3.1,1.5,3.1,3.4h-5.8c0,2,1.2,3.2,2.8,3.2s2.2-.7,2.7-1.7l.3.2c-.4,1.1-1.5,2.1-3.1,2.1s-3.4-1.5-3.4-3.5ZM647.4,40.2c-.2-1.4-1-2.5-2.5-2.5s-2.5,1-2.7,2.5h5.2Z"/>
        <path d="M650,42.4v-4.6h-1.2v-.3h.5c.5,0,.7-.2.7-.8v-1.1h.5v1.7h2.4v.5h-2.4v4.6c0,.9.5,1.4,1.3,1.4s.8-.2,1.1-.3v.4c-.3.2-.7.4-1.3.4-1.1,0-1.8-.7-1.8-1.8Z"/>
        <path d="M654.5,37.4h.6v1.8c.4-1.1,1.5-2,2.8-1.8v.5c-1.6-.2-2.8,1.1-2.8,2.6v3.6h-.6v-6.7Z"/>
        <path d="M658.3,40.7c0-2,1.4-3.5,3.3-3.5s3.1,1.5,3.1,3.4h-5.8c0,2,1.2,3.2,2.8,3.2s2.2-.7,2.7-1.7l.3.2c-.4,1.1-1.5,2.1-3.1,2.1s-3.4-1.5-3.4-3.5ZM664.1,40.2c-.2-1.4-1-2.5-2.5-2.5s-2.5,1-2.7,2.5h5.2Z"/>
        <path d="M666.3,41.6v-4.2h.6v4.1c0,1.5.7,2.3,2,2.3s2.3-1.1,2.3-2.3v-4.1h.6v6.7h-.6v-1.2c-.4.8-1.2,1.3-2.4,1.3s-2.5-.9-2.5-2.7Z"/>
        <path d="M673.8,41.6v-4.2h.6v4.1c0,1.5.7,2.3,2,2.3s2.3-1.1,2.3-2.3v-4.1h.6v6.7h-.6v-1.2c-.4.8-1.2,1.3-2.4,1.3s-2.5-.9-2.5-2.7Z"/>
        <path d="M684.4,37.7c-1.5,0-2.3,1.1-2.3,2.3v4.1h-.6v-6.7h.6v1.2c.4-.8,1.2-1.3,2.4-1.3s2.5.9,2.5,2.7v4.2h-.6v-4.1c0-1.5-.7-2.3-2-2.3Z"/>
        <path d="M688.6,45.1c0-.7.4-1.2,1.1-1.6-.4-.1-.7-.4-.7-.8s.3-.7.9-1.1c-.7-.4-1.2-1.1-1.2-2,0-1.4,1.1-2.3,2.6-2.3s.9,0,1.3.3c.6,0,1.4-.1,2.1-.1v.5h-1.5c.5.4.8,1,.8,1.7,0,1.4-1.1,2.3-2.6,2.3s-.7,0-1.1-.2c-.6.3-.8.5-.8.8s.2.5.7.5h2.4c1.4,0,2.2.7,2.2,1.7s-1.2,2.3-3.4,2.3-2.8-.9-2.8-1.9ZM691.5,46.5c1.8,0,2.8-.8,2.8-1.8s-.6-1.3-1.7-1.3h-2.3c-.7.4-1.1.9-1.1,1.5s.8,1.5,2.3,1.5ZM691.4,41.4c1.2,0,2-.8,2-1.9s-.8-1.9-2-1.9-2,.8-2,1.9.8,1.9,2,1.9Z"/>
        <path d="M698.3,40.3c0-2.6-1.2-4.7-2.9-5.8l.3-.3c1.9,1.1,3.2,3.3,3.2,6s-1.3,4.9-3.2,6l-.3-.3c1.7-1.1,2.9-3.2,2.9-5.8Z"/>
      </g>
    </g>
    <g id="ea">
      <rect class="isc-st9" x="288.7" y="21.9" width="28.9" height="19.3"/>
      <line class="isc-st3" x1="303.2" y1="47" x2="303.2" y2="41.2"/>
      <rect class="isc-st3" x="288.7" y="21.9" width="28.9" height="19.3"/>
      <line class="isc-st3" x1="288.7" y1="31.6" x2="317.6" y2="31.6"/>
      <g>
        <path d="M323.8,24.8h6.8v.6h-6.1v4.5h5.6v.6h-5.6v4.7h6.2v.6h-7v-10.9Z"/>
        <path d="M332.7,27.9h.7v2.1c.5-1.3,1.7-2.3,3.2-2v.6c-1.9-.2-3.2,1.3-3.2,3.1v4.2h-.7v-7.9Z"/>
        <path d="M342.6,29l-2.1,6.7h-.6l-2.6-7.9h.7l2.2,6.9,2.1-6.9h.5l2.1,6.9,2.2-6.9h.6l-2.6,7.9h-.6l-2.1-6.7Z"/>
        <path d="M349,31.8c0-2.4,1.6-4.1,3.9-4.1s3.6,1.8,3.6,3.9h-6.8v.2c0,2.1,1.4,3.6,3.3,3.6s2.6-.9,3.2-2l.4.2c-.5,1.3-1.8,2.4-3.6,2.4s-3.9-1.7-3.9-4.1ZM355.8,31.1c-.2-1.6-1.2-2.9-2.9-2.9s-2.9,1.2-3.1,2.9h6Z"/>
        <path d="M358.6,27.9h.7v2.1c.5-1.3,1.7-2.3,3.2-2v.6c-1.9-.2-3.2,1.3-3.2,3.1v4.2h-.7v-7.9Z"/>
        <path d="M363.7,24.5h.7v5.2c.6-1.3,1.8-2.1,3.3-2.1,2.2,0,3.9,1.7,3.9,4.1s-1.7,4.1-3.9,4.1-2.7-.8-3.3-2.1v1.9h-.7v-11.2ZM367.6,35.4c1.9,0,3.3-1.4,3.3-3.5s-1.4-3.5-3.3-3.5-3.3,1.4-3.3,3.5,1.4,3.5,3.3,3.5Z"/>
        <path d="M373.1,34.7l.3-.4c.6.7,1.5,1.1,2.5,1.1s2.2-.6,2.2-1.7-.6-1.4-2.1-1.7h-.3c-1.8-.5-2.5-1.1-2.5-2.2s1.1-2.1,2.6-2.1,2.1.4,2.7,1l-.3.4c-.6-.6-1.5-.9-2.5-.9s-1.9.4-1.9,1.5.5,1.3,2,1.6h.3c1.8.5,2.5,1.2,2.5,2.3s-1.3,2.2-2.8,2.2-2.1-.5-2.8-1.2Z"/>
        <path d="M385.9,34.3c-.5.9-1.6,1.6-3,1.6s-2.6-.8-2.6-2.2,1.2-2.3,3.3-2.3h2.4v-.6c0-1.7-.8-2.5-2.3-2.5s-2.1.6-2.7,1.6l-.4-.3c.5-1.2,1.6-2,3.1-2s2.9,1.1,2.9,3.1v4.9h-.7v-1.4ZM383,35.4c1.8,0,2.9-1.2,2.9-2.5v-.9h-2.3c-1.9,0-2.7.6-2.7,1.7s.8,1.7,2.1,1.7Z"/>
        <path d="M389.1,27.9h.7v2.1c.5-1.3,1.7-2.3,3.2-2v.6c-1.9-.2-3.2,1.3-3.2,3.1v4.2h-.7v-7.9Z"/>
        <path d="M394.1,24.5h.7v5.2c.6-1.3,1.8-2.1,3.3-2.1,2.2,0,3.9,1.7,3.9,4.1s-1.7,4.1-3.9,4.1-2.7-.8-3.3-2.1v1.9h-.7v-11.2ZM398.1,35.4c1.9,0,3.3-1.4,3.3-3.5s-1.4-3.5-3.3-3.5-3.3,1.4-3.3,3.5,1.4,3.5,3.3,3.5Z"/>
        <path d="M403.7,31.8c0-2.4,1.6-4.1,3.9-4.1s3.6,1.8,3.6,3.9h-6.8v.2c0,2.1,1.4,3.6,3.3,3.6s2.6-.9,3.2-2l.4.2c-.5,1.3-1.8,2.4-3.6,2.4s-3.9-1.7-3.9-4.1ZM410.4,31.1c-.2-1.6-1.2-2.9-2.9-2.9s-2.9,1.2-3.1,2.9h6Z"/>
        <path d="M413.6,24.9c.3,0,.5.2.5.5s-.2.5-.5.5-.5-.2-.5-.5.2-.5.5-.5ZM413.3,27.9h.7v7.9h-.7v-7.9Z"/>
        <path d="M416.9,33.8v-5.3h-1.4v-.4h.6c.6-.1.8-.3.9-.9v-1.3h.6v2h2.8v.6h-2.8v5.3c0,1,.6,1.6,1.6,1.6s1-.2,1.3-.3v.5c-.3.2-.9.4-1.5.4-1.3,0-2.1-.8-2.1-2.1Z"/>
      </g>
    </g>
  </g>
  <g id="header">
    <g id="m1" data-name="m">
      <path d="M77.9,39h1.2l6.1,13.2,6.1-13.2h1.1v14.6h-.9v-13.1l-6,13.1h-.6l-6-13.1v13.1h-.9v-14.6Z"/>
      <path d="M102.8,51.6c-.7,1.2-2.1,2.2-4,2.2s-3.5-1.1-3.5-2.9,1.6-3,4.4-3h3.2v-.8c0-2.2-1.1-3.4-3-3.4s-2.8.8-3.6,2.2l-.5-.3c.7-1.5,2.1-2.6,4.2-2.6s3.9,1.4,3.9,4.1v6.6h-.9v-1.9ZM98.9,53.1c2.4,0,3.9-1.6,3.9-3.4v-1.3h-3.1c-2.5,0-3.6.9-3.6,2.3s1.1,2.3,2.8,2.3ZM98.3,39.6c.4,0,.6.3.6.6s-.3.6-.6.6-.6-.3-.6-.6.3-.6.6-.6ZM101.3,39.6c.3,0,.6.3.6.6s-.3.6-.6.6-.6-.3-.6-.6.3-.6.6-.6Z"/>
      <path d="M111.5,43.6c-2.4,0-3.6,1.7-3.6,3.5v6.4h-.9v-10.5h.9v1.8c.7-1.2,1.9-2.1,3.7-2.1s3.9,1.4,3.9,4.2v6.5h-.9v-6.4c0-2.4-1.1-3.5-3.1-3.5Z"/>
      <path d="M123.4,43.6c-2.4,0-3.6,1.7-3.6,3.5v6.4h-.9v-10.5h.9v1.8c.7-1.2,1.9-2.1,3.7-2.1s3.9,1.4,3.9,4.2v6.5h-.9v-6.4c0-2.4-1.1-3.5-3.1-3.5Z"/>
      <path d="M130.1,48.3c0-3.1,2.2-5.5,5.2-5.5s4.8,2.4,4.8,5.2h-9.1v.2c0,2.8,1.8,4.7,4.4,4.7s3.5-1.1,4.2-2.7l.5.2c-.6,1.7-2.4,3.2-4.8,3.2s-5.2-2.3-5.2-5.5ZM139.2,47.4c-.3-2.2-1.6-3.9-3.9-3.9s-3.9,1.5-4.2,3.9h8.1Z"/>
      <path d="M142.9,43h.9v2.7c.7-1.7,2.3-3.1,4.3-2.7v.8c-2.5-.3-4.3,1.7-4.3,4.1v5.6h-.9v-10.5Z"/>
    </g>
    <g id="f1" data-name="f">
      <path d="M864.1,39h8.8v.8h-7.9v6.2h7.3v.8h-7.3v6.8h-1v-14.6Z"/>
      <path d="M874.9,43h.9v2.7c.7-1.7,2.3-3.1,4.3-2.7v.8c-2.5-.3-4.3,1.7-4.3,4.1v5.6h-.9v-10.5Z"/>
      <path d="M888.6,51.6c-.7,1.2-2.1,2.2-4,2.2s-3.5-1.1-3.5-2.9,1.6-3,4.4-3h3.2v-.8c0-2.2-1.1-3.4-3-3.4s-2.8.8-3.6,2.2l-.5-.3c.7-1.5,2.1-2.6,4.2-2.6s3.9,1.4,3.9,4.1v6.6h-.9v-1.9ZM884.6,53.1c2.4,0,3.9-1.6,3.9-3.4v-1.3h-3.1c-2.5,0-3.6.9-3.6,2.3s1.1,2.3,2.8,2.3Z"/>
      <path d="M892.5,49.5v-6.5h.9v6.4c0,2.4,1.1,3.5,3.1,3.5s3.6-1.7,3.6-3.5v-6.4h.9v10.5h-.9v-1.8c-.7,1.2-1.9,2.1-3.8,2.1s-3.9-1.4-3.9-4.2Z"/>
      <path d="M903.8,48.3c0-3.1,2.2-5.5,5.2-5.5s4.8,2.4,4.8,5.2h-9.1v.2c0,2.8,1.8,4.7,4.4,4.7s3.5-1.1,4.2-2.7l.5.2c-.6,1.7-2.4,3.2-4.8,3.2s-5.2-2.3-5.2-5.5ZM912.9,47.4c-.3-2.2-1.6-3.9-3.9-3.9s-3.9,1.5-4.2,3.9h8.1Z"/>
      <path d="M921.1,43.6c-2.4,0-3.6,1.7-3.6,3.5v6.4h-.9v-10.5h.9v1.8c.7-1.2,1.9-2.1,3.7-2.1s3.9,1.4,3.9,4.2v6.5h-.9v-6.4c0-2.4-1.1-3.5-3.1-3.5Z"/>
    </g>
  </g>
</svg>