<?xml version="1.0" encoding="UTF-8"?>
<svg id="Ebene_2" data-name="Ebene 2" xmlns="http://www.w3.org/2000/svg" viewBox="0 0 510 480.26">
  <defs>
    <style>
      .cls-1 {
        letter-spacing: 0em;
      }

      .cls-2, .cls-3, .cls-4, .cls-5, .cls-6, .cls-7 {
        fill-rule: evenodd;
      }

      .cls-2, .cls-8 {
        fill: #f0ae9f;
      }

      .cls-9 {
        letter-spacing: -.01em;
      }

      .cls-10 {
        letter-spacing: -.01em;
      }

      .cls-11 {
        letter-spacing: 0em;
      }

      .cls-12 {
        letter-spacing: 0em;
      }

      .cls-3 {
        fill: #b16253;
      }

      .cls-13 {
        letter-spacing: 0em;
      }

      .cls-14 {
        letter-spacing: 0em;
      }

      .cls-15 {
        fill: #fff;
      }

      .cls-4 {
        fill: #e37c6a;
      }

      .cls-16 {
        letter-spacing: -.01em;
      }

      .cls-17, .cls-18 {
        font-size: 14.06px;
      }

      .cls-19 {
        letter-spacing: 0em;
      }

      .cls-20, .cls-21, .cls-22 {
        font-size: 14.32px;
      }

      .cls-23 {
        fill: #f5f4f4;
      }

      .cls-18, .cls-24, .cls-25, .cls-26, .cls-27, .cls-28, .cls-21, .cls-22 {
        font-family: MyriadPro-Regular, 'Myriad Pro';
      }

      .cls-18, .cls-24, .cls-25, .cls-27, .cls-28, .cls-21 {
        fill: #1d1d1b;
      }

      .cls-29 {
        stroke: #d39b95;
        stroke-miterlimit: 10;
        stroke-width: 1.3px;
      }

      .cls-29, .cls-30 {
        fill: none;
      }

      .cls-31 {
        letter-spacing: -.01em;
      }

      .cls-32 {
        letter-spacing: 0em;
      }

      .cls-33 {
        letter-spacing: .01em;
      }

      .cls-34 {
        letter-spacing: 0em;
      }

      .cls-25 {
        font-size: 13.02px;
      }

      .cls-35 {
        letter-spacing: -.01em;
      }

      .cls-36 {
        letter-spacing: 0em;
      }

      .cls-37 {
        letter-spacing: 0em;
      }

      .cls-38 {
        letter-spacing: -.01em;
      }

      .cls-39 {
        letter-spacing: 0em;
      }

      .cls-40 {
        letter-spacing: -.01em;
      }

      .cls-41 {
        letter-spacing: 0em;
      }

      .cls-42 {
        letter-spacing: -.01em;
      }

      .cls-43, .cls-26 {
        fill: #c57b6e;
      }

      .cls-44 {
        letter-spacing: 0em;
      }

      .cls-45 {
        letter-spacing: -.01em;
      }

      .cls-46 {
        letter-spacing: 0em;
      }

      .cls-47 {
        letter-spacing: 0em;
      }

      .cls-48 {
        letter-spacing: 0em;
      }

      .cls-49 {
        letter-spacing: 0em;
      }

      .cls-50 {
        letter-spacing: 0em;
      }

      .cls-26, .cls-27 {
        font-size: 11.72px;
      }

      .cls-51 {
        fill: #ebd8d8;
      }

      .cls-52 {
        letter-spacing: 0em;
      }

      .cls-53 {
        letter-spacing: 0em;
      }

      .cls-54 {
        letter-spacing: 0em;
      }

      .cls-5, .cls-55 {
        fill: #928e8d;
      }

      .cls-56 {
        letter-spacing: 0em;
      }

      .cls-57 {
        letter-spacing: 0em;
      }

      .cls-58 {
        letter-spacing: .01em;
      }

      .cls-59 {
        letter-spacing: .01em;
      }

      .cls-60 {
        letter-spacing: .02em;
      }

      .cls-28 {
        font-size: 18.1px;
      }

      .cls-61 {
        letter-spacing: .02em;
      }

      .cls-62 {
        letter-spacing: 0em;
      }

      .cls-63 {
        letter-spacing: 0em;
      }

      .cls-64 {
        letter-spacing: 0em;
      }

      .cls-65 {
        letter-spacing: 0em;
      }

      .cls-66 {
        letter-spacing: -.03em;
      }

      .cls-67 {
        letter-spacing: 0em;
      }

      .cls-22 {
        fill: #963523;
      }

      .cls-68 {
        letter-spacing: 0em;
      }

      .cls-69 {
        letter-spacing: 0em;
      }

      .cls-70 {
        letter-spacing: 0em;
      }

      .cls-6 {
        fill: #ea7821;
      }

      .cls-71 {
        letter-spacing: 0em;
      }

      .cls-72 {
        letter-spacing: 0em;
      }

      .cls-73 {
        letter-spacing: 0em;
      }

      .cls-74 {
        fill: #f8d4cb;
      }

      .cls-55, .cls-30 {
        stroke: #fff;
        stroke-linejoin: round;
        stroke-width: 2.3px;
      }

      .cls-75 {
        letter-spacing: -.02em;
      }

      .cls-7 {
        fill: #ddccc5;
      }

      .cls-76 {
        letter-spacing: 0em;
      }
    </style>
  </defs>
  <g id="db-residual">
    <g id="frame">
      <rect class="cls-74" width="510" height="480.26" rx="12" ry="12"/>
      <rect class="cls-15" x="13.05" y="15.63" width="483.89" height="449" rx="12" ry="12"/>
    </g>
    <g id="content">
      <rect class="cls-23" x="21.56" y="60.43" width="253.65" height="105.7" rx="12" ry="12"/>
      <rect class="cls-23" x="323.23" y="248.82" width="161.56" height="110.93" rx="12" ry="12"/>
      <text class="cls-21" transform="translate(29.58 118.61)"><tspan class="cls-49" x="0" y="0">R</tspan><tspan class="cls-72" x="7.76" y="0">eichs</tspan><tspan class="cls-37" x="38.32" y="0">t</tspan><tspan x="42.98" y="0">en 20%</tspan><tspan x="23.74" y="17.19">4.500€</tspan></text>
      <text class="cls-21" transform="translate(186.4 118.67)"><tspan class="cls-48" x="0" y="0">Ä</tspan><tspan class="cls-49" x="8.72" y="0">r</tspan><tspan x="13.46" y="0">ms</tspan><tspan class="cls-37" x="31.08" y="0">t</tspan><tspan x="35.73" y="0">en 20%</tspan><tspan x="20.12" y="17.19">1.250€</tspan></text>
      <text class="cls-26" transform="translate(75.31 159)"><tspan class="cls-62" x="0" y="0">M</tspan><tspan x="9.49" y="0">edia</tspan><tspan class="cls-31" x="30.36" y="0">n</tspan><tspan class="cls-35" x="36.71" y="0">w</tspan><tspan class="cls-46" x="45.22" y="0">e</tspan><tspan class="cls-61" x="51.09" y="0">r</tspan><tspan class="cls-11" x="55.2" y="0">t</tspan><tspan x="59.01" y="0">e p</tspan><tspan class="cls-40" x="74.03" y="0">r</tspan><tspan class="cls-46" x="77.75" y="0">o </tspan><tspan class="cls-62" x="86.66" y="0">M</tspan><tspan class="cls-46" x="96.15" y="0">on</tspan><tspan class="cls-53" x="109.09" y="0">a</tspan><tspan class="cls-70" x="114.69" y="0">t</tspan><tspan x="118.53" y="0">, 2019/20 </tspan></text>
      <text class="cls-21" transform="translate(134.11 118.63)"><tspan class="cls-33" x="0" y="0">M</tspan><tspan class="cls-57" x="11.69" y="0">it</tspan><tspan class="cls-37" x="19.78" y="0">t</tspan><tspan class="cls-72" x="24.43" y="0">e</tspan><tspan x="-4.04" y="17.19">2.630€</tspan></text>
      <path class="cls-43" d="M70.14,84.26c4.57-.63,11.05-.06,11.8,5.79.11.88.12,7.14-.09,7.64-.14.33-.61.64-.98.63l-15.86-.12c-.4-.27-.55-.52-.61-1.01-.21-1.62-.13-6.98.37-8.42.79-2.27,3.02-4.18,5.37-4.5Z"/>
      <path class="cls-43" d="M83.95,94.22v-4.19c0-1.98-2.1-4.94-3.61-6.11l-2.37-1.44c2.12-2.61,6.2-2.63,9.27-2.35,3.38.31,6.2,2.9,6.49,6.42.08.92.1,6.79-.11,7.25-.04.1-.36.41-.4.41h-9.27Z"/>
      <path class="cls-43" d="M53.13,94.22c-.07-.02-.35-.32-.4-.41-.21-.46-.19-6.34-.11-7.25.3-3.52,3.11-6.11,6.49-6.42,3.07-.28,7.15-.26,9.27,2.35.07.44-.09.24-.28.32-2.42,1.1-5.71,4.07-5.71,7.03v4.39h-9.27Z"/>
      <path class="cls-43" d="M72.33,72.21c6.88-1,7.67,9.24,1.52,9.93-6.69.75-7.43-9.07-1.52-9.93Z"/>
      <path class="cls-43" d="M60.97,68.12c6.31-.53,7.21,9.14,1.32,9.94-7.14.96-7.62-9.41-1.32-9.94Z"/>
      <path class="cls-43" d="M84.51,68.12c6.31-.53,7.21,9.14,1.32,9.94-7.14.96-7.62-9.41-1.32-9.94Z"/>
      <path class="cls-43" d="M146.06,84.26c4.57-.63,11.05-.06,11.8,5.79.11.88.12,7.14-.09,7.64-.14.33-.61.64-.98.63l-15.86-.12c-.4-.27-.55-.52-.61-1.01-.21-1.62-.13-6.98.37-8.42.79-2.27,3.02-4.18,5.37-4.5Z"/>
      <path class="cls-43" d="M159.87,94.22v-4.19c0-1.98-2.1-4.94-3.61-6.11l-2.37-1.44c2.12-2.61,6.2-2.63,9.27-2.35,3.38.31,6.2,2.9,6.49,6.42.08.92.1,6.79-.11,7.25-.04.1-.36.41-.4.41h-9.27Z"/>
      <path class="cls-43" d="M129.06,94.22c-.07-.02-.35-.32-.4-.41-.21-.46-.19-6.34-.11-7.25.3-3.52,3.11-6.11,6.49-6.42,3.07-.28,7.15-.26,9.27,2.35.07.44-.09.24-.28.32-2.42,1.1-5.71,4.07-5.71,7.03v4.39h-9.27Z"/>
      <path class="cls-43" d="M148.25,72.21c6.88-1,7.67,9.24,1.52,9.93-6.69.75-7.43-9.07-1.52-9.93Z"/>
      <path class="cls-43" d="M136.9,68.12c6.31-.53,7.21,9.14,1.32,9.94-7.14.96-7.62-9.41-1.32-9.94Z"/>
      <path class="cls-43" d="M160.43,68.12c6.31-.53,7.21,9.14,1.32,9.94-7.14.96-7.62-9.41-1.32-9.94Z"/>
      <path class="cls-43" d="M222.72,84.26c4.57-.63,11.05-.06,11.8,5.79.11.88.12,7.14-.09,7.64-.14.33-.61.64-.98.63l-15.86-.12c-.4-.27-.55-.52-.61-1.01-.21-1.62-.13-6.98.37-8.42.79-2.27,3.02-4.18,5.37-4.5Z"/>
      <path class="cls-43" d="M236.53,94.22v-4.19c0-1.98-2.1-4.94-3.61-6.11l-2.37-1.44c2.12-2.61,6.2-2.63,9.27-2.35,3.38.31,6.2,2.9,6.49,6.42.08.92.1,6.79-.11,7.25-.04.1-.36.41-.4.41h-9.27Z"/>
      <path class="cls-43" d="M205.71,94.22c-.07-.02-.35-.32-.4-.41-.21-.46-.19-6.34-.11-7.25.3-3.52,3.11-6.11,6.49-6.42,3.07-.28,7.15-.26,9.27,2.35.07.44-.09.24-.28.32-2.42,1.1-5.71,4.07-5.71,7.03v4.39h-9.27Z"/>
      <path class="cls-43" d="M224.91,72.21c6.88-1,7.67,9.24,1.52,9.93-6.69.75-7.43-9.07-1.52-9.93Z"/>
      <path class="cls-43" d="M213.55,68.12c6.31-.53,7.21,9.14,1.32,9.94-7.14.96-7.62-9.41-1.32-9.94Z"/>
      <path class="cls-43" d="M237.09,68.12c6.31-.53,7.21,9.14,1.32,9.94-7.14.96-7.62-9.41-1.32-9.94Z"/>
      <text class="cls-21" transform="translate(20.61 49.14)"><tspan x="0" y="0">Haushaltseinkommen sind ungleich </tspan><tspan class="cls-38" x="216.78" y="0">v</tspan><tspan x="223.53" y="0">e</tspan><tspan class="cls-60" x="230.7" y="0">r</tspan><tspan class="cls-37" x="235.73" y="0">t</tspan><tspan x="240.38" y="0">eil</tspan><tspan class="cls-69" x="254.29" y="0">t</tspan><tspan class="cls-57" x="258.99" y="0">.</tspan></text>
      <text class="cls-22" transform="translate(339.47 388.72)"><tspan x="0" y="0">No</tspan><tspan class="cls-65" x="17.29" y="0">t</tspan><tspan class="cls-38" x="22.16" y="0">w</tspan><tspan x="32.55" y="0">endige </tspan><tspan class="cls-45" x="77.32" y="0">A</tspan><tspan x="85.91" y="0">usgaben</tspan><tspan x="-2.32" y="17.19"> </tspan><tspan class="cls-19" x=".72" y="17.19">v</tspan><tspan x="7.55" y="17.19">a</tspan><tspan class="cls-52" x="14.45" y="17.19">r</tspan><tspan class="cls-57" x="19.19" y="17.19">iie</tspan><tspan class="cls-54" x="33.07" y="17.19">r</tspan><tspan x="37.61" y="17.19">en auch deutlich </tspan><tspan x="16.7" y="34.37">nach </tspan><tspan class="cls-49" x="48.95" y="34.37">R</tspan><tspan class="cls-72" x="56.71" y="34.37">e</tspan><tspan class="cls-39" x="63.89" y="34.37">g</tspan><tspan x="71.81" y="34.37">ion und </tspan><tspan class="cls-32" x="26.55" y="51.56">G</tspan><tspan x="35.88" y="51.56">emeinde</tspan><tspan class="cls-65" x="88.72" y="51.56">t</tspan><tspan x="93.59" y="51.56">y</tspan><tspan class="cls-75" x="100.34" y="51.56">p</tspan><tspan class="cls-72" x="108.14" y="51.56">.</tspan></text>
      <text class="cls-25" transform="translate(39.55 189.97)"><tspan x="0" y="0">Nach den no</tspan><tspan class="cls-71" x="68.89" y="0">t</tspan><tspan class="cls-14" x="73.31" y="0">w</tspan><tspan x="82.76" y="0">endigen </tspan><tspan class="cls-9" x="14.56" y="15.62">A</tspan><tspan x="22.37" y="15.62">usgaben bleiben </tspan></text>
      <text class="cls-25" transform="translate(340.53 267.73)"><tspan x="0" y="0">Das </tspan><tspan class="cls-63" x="22.86" y="0">R</tspan><tspan x="29.92" y="0">esidualeinkommen</tspan><tspan x="55.89" y="15.62">s</tspan><tspan class="cls-13" x="61.05" y="15.62">t</tspan><tspan class="cls-50" x="65.28" y="15.62">eigt mit den </tspan><tspan x="47.7" y="31.25">Bildungsni</tspan><tspan class="cls-16" x="105.33" y="31.25">v</tspan><tspan class="cls-50" x="111.46" y="31.25">ea</tspan><tspan class="cls-67" x="124.26" y="31.25">u</tspan><tspan class="cls-41" x="131.33" y="31.25">.</tspan></text>
      <text class="cls-27" transform="translate(372.7 102.38)"><tspan class="cls-66" x="0" y="0">W</tspan><tspan x="9.53" y="0">ohnen und </tspan><tspan x="-4.37" y="14.06">E</tspan><tspan class="cls-34" x="1.39" y="14.06">r</tspan><tspan x="5.27" y="14.06">nährung sind</tspan><tspan x="3.23" y="28.12">die </tspan><tspan class="cls-11" x="20.93" y="28.12">g</tspan><tspan class="cls-35" x="27.41" y="28.12">r</tspan><tspan x="31.13" y="28.12">öß</tspan><tspan class="cls-76" x="43.98" y="28.12">t</tspan><tspan x="47.79" y="28.12">en </tspan><tspan class="cls-42" x="7.04" y="42.18">A</tspan><tspan class="cls-46" x="14.07" y="42.18">usgaben.</tspan></text>
      <text class="cls-26" transform="translate(354.53 212.49)"><tspan x="0" y="0">außen ... alle Haushal</tspan><tspan class="cls-11" x="101.98" y="0">t</tspan><tspan x="105.79" y="0">e</tspan><tspan x="4.48" y="14.06">innen ... </tspan><tspan class="cls-59" x="44.84" y="14.06">M</tspan><tspan class="cls-44" x="54.4" y="14.06">ie</tspan><tspan class="cls-76" x="63.02" y="14.06">t</tspan><tspan class="cls-46" x="66.82" y="14.06">e</tspan><tspan class="cls-73" x="72.7" y="14.06">r</tspan><tspan x="76.63" y="14.06">:innen</tspan></text>
      <text class="cls-24" transform="translate(349.09 325.21)"><tspan class="cls-17" x="0" y="0">927 </tspan><tspan class="cls-20" x="24.61" y="0">€</tspan><tspan class="cls-17" x="31.96" y="0" xml:space="preserve">  </tspan></text>
      <text class="cls-24" transform="translate(338.97 348.85)"><tspan class="cls-17" x="0" y="0">2.453 </tspan><tspan class="cls-20" x="34.73" y="0">€</tspan><tspan class="cls-17" x="42.08" y="0" xml:space="preserve">  </tspan></text>
      <text class="cls-18" transform="translate(390.73 325.3)"><tspan x="0" y="0">Pflic</tspan><tspan class="cls-56" x="24.41" y="0">h</tspan><tspan x="32.16" y="0">tschule</tspan></text>
      <text class="cls-18" transform="translate(390.73 348.45)"><tspan x="0" y="0">mit Uni</tspan><tspan class="cls-10" x="42.83" y="0">v</tspan><tspan x="49.45" y="0">ersit</tspan><tspan class="cls-1" x="74.59" y="0">ä</tspan><tspan x="81.31" y="0">t</tspan></text>
      <text class="cls-25" transform="translate(56.85 289.01)"><tspan x="0" y="0">für alle Haushal</tspan><tspan class="cls-13" x="83.36" y="0">t</tspan><tspan x="87.59" y="0">e </tspan></text>
      <text class="cls-24" transform="translate(257.52 248.82)"><tspan class="cls-17" x="0" y="0">1.313</tspan><tspan class="cls-20" x="31.75" y="0">€</tspan><tspan class="cls-17" x="39.1" y="0"> </tspan></text>
      <text class="cls-24" transform="translate(257.9 295.76)"><tspan class="cls-17" x="0" y="0">1.066</tspan><tspan class="cls-20" x="31.75" y="0">€</tspan><tspan class="cls-17" x="39.1" y="0"> </tspan></text>
      <text class="cls-24" transform="translate(261.76 347.26)"><tspan class="cls-17" x="0" y="0">2.201</tspan><tspan class="cls-20" x="31.75" y="0">€</tspan><tspan class="cls-17" x="39.1" y="0"> </tspan></text>
      <text class="cls-24" transform="translate(262.23 400.17)"><tspan class="cls-17" x="0" y="0">2.028</tspan><tspan class="cls-20" x="31.75" y="0">€</tspan><tspan class="cls-17" x="39.1" y="0"> </tspan></text>
      <text class="cls-25" transform="translate(62.3 368.25)"><tspan x="0" y="0">für </tspan><tspan class="cls-58" x="17.99" y="0">M</tspan><tspan x="28.62" y="0">ie</tspan><tspan class="cls-13" x="38.19" y="0">t</tspan><tspan x="42.42" y="0">e</tspan><tspan class="cls-71" x="48.94" y="0">r</tspan><tspan class="cls-41" x="53.31" y="0">:innen</tspan></text>
      <text class="cls-25" transform="translate(51.6 448.11)"><tspan x="0" y="0">für die </tspan><tspan class="cls-12" x="37.67" y="0">Ä</tspan><tspan class="cls-63" x="45.59" y="0">r</tspan><tspan x="49.9" y="0">ms</tspan><tspan class="cls-13" x="65.92" y="0">t</tspan><tspan x="70.15" y="0">en 20%</tspan></text>
      <path class="cls-8" d="M108.12,216.42l-.71,28.45-27.97,5.27c2.47,13.2,14.06,23.19,27.97,23.19,15.72,0,28.46-12.74,28.46-28.46s-12.36-28.07-27.75-28.45Z"/>
      <path class="cls-51" d="M107.41,216.41c-1.47,0-2.91.11-4.32.33-13.67,2.08-24.14,13.88-24.14,28.13,0,.3,0,.6.02.9.05,1.47.2,2.91.46,4.32,0,.02,0,.04.01.05l27.97-5.27.71-28.45c-.24,0-.47,0-.71,0Z"/>
      <path class="cls-8" d="M106.66,296.42l-.4,28.25-14.76,24.1c4.3,2.64,9.35,4.16,14.76,4.16,15.61,0,28.26-12.65,28.26-28.26s-12.44-28.03-27.86-28.25Z"/>
      <path class="cls-51" d="M106.66,296.42c-.13,0-.27-.01-.4-.01-15.61,0-28.26,12.65-28.26,28.26,0,10.2,5.4,19.13,13.5,24.1l14.76-24.1.4-28.25Z"/>
      <path class="cls-51" d="M121.66,428.38l-14.77-24.08-.41-28.26c-5.04.07-10.13,1.48-14.7,4.38-13.19,8.35-17.11,25.8-8.77,38.99,8.27,13.07,25.5,17.04,38.65,8.97Z"/>
      <path class="cls-8" d="M121.66,428.38c.11-.07.23-.13.34-.21,13.19-8.35,17.11-25.8,8.77-38.99-5.45-8.62-14.79-13.27-24.29-13.15l.41,28.26,14.77,24.08Z"/>
      <text class="cls-28" transform="translate(92.14 250.56)"><tspan x="0" y="0">70%</tspan></text>
      <text class="cls-28" transform="translate(93.47 330.17)"><tspan x="0" y="0">58%</tspan></text>
      <text class="cls-28" transform="translate(92.83 409.8)"><tspan x="0" y="0">42%</tspan></text>
      <text class="cls-27" transform="translate(35.89 446.03) rotate(-90)"><tspan x="0" y="0">% </tspan><tspan class="cls-34" x="11.76" y="0">R</tspan><tspan x="18.12" y="0">esidualeinkommen </tspan><tspan class="cls-35" x="114.29" y="0">v</tspan><tspan x="119.81" y="0">om Net</tspan><tspan class="cls-36" x="155.96" y="0">t</tspan><tspan class="cls-64" x="159.77" y="0">oeinkommen</tspan></text>
      <text class="cls-25" transform="translate(192.26 191.01)"><tspan class="cls-63" x="0" y="0">R</tspan><tspan x="7.06" y="0">esidualeinkommen </tspan><tspan x="5.37" y="15.62">nach Haushalts</tspan><tspan class="cls-71" x="87.82" y="15.62">t</tspan><tspan x="92.25" y="15.62">yp </tspan></text>
      <g>
        <path class="cls-43" d="M217.93,282.91c7.65-1.06,18.48-.1,19.73,9.68.19,1.47.21,11.95-.15,12.77-.24.55-1.03,1.08-1.64,1.05l-26.53-.2c-.67-.45-.92-.87-1.03-1.68-.35-2.7-.22-11.67.62-14.09,1.32-3.8,5.04-6.99,8.99-7.53Z"/>
        <path class="cls-43" d="M221.6,267.25c11.5-1.67,12.83,15.46,2.55,16.61-11.2,1.25-12.43-15.18-2.55-16.61Z"/>
        <g>
          <path class="cls-8" d="M230.41,304.02s.11-.31-.31-.46c-.54-.2-2.79-.33-2.93-.49-.43-2.52,2.9-5.19,2.33-7.58-.2-.83-6.1-2.69-4.48-5.02.88-1.25,2.75.32,3.78.47,2.7.4,7.04.39,9.74,0,1.33-.19,3.7-2.28,3.84.34.12,2.15-4.37,3.49-4.54,4.21-.53,2.25,2.71,5.4,2.31,6.82-.39,1.36-2.48.99-3.39,1.24-.45.12-.27.46-.3.47,3.1.32,1.59,3.91,2.33,6.53-4.14.97-3.69-3.18-4.66-6.06.66-.07,1.43.12,2.06.01.39-.07.24-.47.27-.48-1.78-.18-4.21-.05-6.06,0,.03,0-.12.42.27.48.76.12,1.93-.31,2.52.21-1.48,2.7-.48,6.9-4.66,5.84l.47-6.53c.46-.02.93.02,1.4,0Z"/>
          <path class="cls-8" d="M237.4,284.44c.06.07.3-.02.45,0-.06-2.24,4.92-.98,4.49.5-.05.17-1.32,2.32-1.46,2.31l-3.02-2.34c1.31,8.57-11.2,6.25-7.82-.6,1.28-2.58,4.9-3.01,6.89-1.04.35.35.4,1.09.46,1.17Z"/>
        </g>
      </g>
      <g>
        <path class="cls-43" d="M207.29,329.44c7.65-1.06,18.48-.1,19.73,9.68.19,1.47.21,11.95-.15,12.77-.24.55-1.03,1.08-1.64,1.05l-26.53-.2c-.67-.45-.92-.87-1.03-1.68-.35-2.7-.22-11.67.62-14.09,1.32-3.8,5.04-6.99,8.99-7.53Z"/>
        <path class="cls-43" d="M210.96,313.78c11.5-1.67,12.83,15.46,2.55,16.61-11.2,1.25-12.43-15.18-2.55-16.61Z"/>
        <path class="cls-43" d="M227.9,336.94c7.65-1.06,18.48-.1,19.73,9.68.19,1.47.21,11.95-.15,12.77-.24.55-1.03,1.08-1.64,1.05l-26.53-.2c-.67-.45-.92-.87-1.03-1.68-.35-2.7-.22-11.67.62-14.09,1.32-3.8,5.04-6.99,8.99-7.53Z"/>
        <path class="cls-43" d="M231.57,321.27c11.5-1.67,12.83,15.46,2.55,16.61-11.2,1.25-12.43-15.18-2.55-16.61Z"/>
      </g>
      <path class="cls-43" d="M217.93,236.38c7.65-1.06,18.48-.1,19.73,9.68.19,1.47.21,11.95-.15,12.77-.24.55-1.03,1.08-1.64,1.05l-26.53-.2c-.67-.45-.92-.87-1.03-1.68-.35-2.7-.22-11.67.62-14.09,1.32-3.8,5.04-6.99,8.99-7.53Z"/>
      <path class="cls-43" d="M221.6,220.72c11.5-1.67,12.83,15.46,2.55,16.61-11.2,1.25-12.43-15.18-2.55-16.61Z"/>
      <g>
        <path class="cls-43" d="M209.95,381.95c7.65-1.06,18.48-.1,19.73,9.68.19,1.47.21,11.95-.15,12.77-.24.55-1.03,1.08-1.64,1.05l-26.53-.2c-.67-.45-.92-.87-1.03-1.68-.35-2.7-.22-11.67.62-14.09,1.32-3.8,5.04-6.99,8.99-7.53Z"/>
        <path class="cls-43" d="M213.62,366.29c11.5-1.67,12.83,15.46,2.55,16.61-11.2,1.25-12.43-15.18-2.55-16.61Z"/>
        <path class="cls-43" d="M232.24,390.61c7.65-1.06,18.48-.1,19.73,9.68.19,1.47.21,11.95-.15,12.77-.24.55-1.03,1.08-1.64,1.05l-26.53-.2c-.67-.45-.92-.87-1.03-1.68-.35-2.7-.22-11.67.62-14.09,1.32-3.8,5.04-6.99,8.99-7.53Z"/>
        <path class="cls-43" d="M234.23,373.78c11.5-1.67,12.83,15.46,2.55,16.61-11.2,1.25-12.43-15.18-2.55-16.61Z"/>
        <g>
          <path class="cls-8" d="M199.04,410.31s.11-.31-.31-.46c-.54-.2-2.79-.33-2.93-.49-.43-2.52,2.9-5.19,2.33-7.58-.2-.83-6.1-2.69-4.48-5.02.88-1.25,2.75.32,3.78.47,2.7.4,7.04.39,9.74,0,1.33-.19,3.7-2.28,3.84.34.12,2.15-4.37,3.49-4.54,4.21-.53,2.25,2.71,5.4,2.31,6.82-.39,1.36-2.48.99-3.39,1.24-.45.12-.27.46-.3.47,3.1.32,1.59,3.91,2.33,6.53-4.14.97-3.69-3.18-4.66-6.06.66-.07,1.43.12,2.06.01.39-.07.24-.47.27-.48-1.78-.18-4.21-.05-6.06,0,.03,0-.12.42.27.48.76.12,1.93-.31,2.52.21-1.48,2.7-.48,6.9-4.66,5.84l.47-6.53c.46-.02.93.02,1.4,0Z"/>
          <path class="cls-8" d="M206.04,390.73c.06.07.3-.02.45,0-.06-2.24,4.92-.98,4.49.5-.05.17-1.32,2.32-1.46,2.31l-3.02-2.34c1.31,8.57-11.2,6.25-7.82-.6,1.28-2.58,4.9-3.01,6.89-1.04.35.35.4,1.09.46,1.17Z"/>
        </g>
        <g>
          <path class="cls-8" d="M223.89,400.58l1.89,14.87c-4.9,2.5-5.44-3.7-6.4-6.92-2.03,2.2-.91,6.59-4.36,7.32-4.37.92-2.17-2.07-1.87-4.01.58-3.72.74-7.53,1.19-11.27-.83-.98-3.81,4.74-5.28,1.8.77-2.59,2.12-6.73,4.47-8.18,1.87-1.15,9.47-.99,11.39.31,1.83,1.24,6.3,8.78,2.94,8.74-1.59-.02-2.18-2.83-3.97-2.67Z"/>
          <path class="cls-8" d="M218.98,383.19c6.34-.52,6.55,9.78.41,9.9s-6.87-9.38-.41-9.9Z"/>
        </g>
      </g>
      <g>
        <path class="cls-8" d="M372.09,288.22l-15.22,5.17-18.13-6.27c-1.57-1.08-.43-1.64.76-2.11,5.7-2.23,11.85-3.96,17.61-5.99,5.67,2.2,11.61,3.78,17.26,5.99,2.81,1.1,1.18,2.02-.77,2.64.18.94-.28,3.91.16,4.53.25.35.98.41,1.12.9.18.62.31,3.07-.52,3.22-.42.08-2.99.05-3.28-.09-.08-.04-.34-.31-.34-.33v-2.7c0-.44,1.35-1.04,1.35-1.18v-3.79Z"/>
        <path class="cls-8" d="M368.55,291.08v7.16c-1.67,1.79-4.51,2.86-6.9,3.37-5.41,1.16-11.97.39-16.34-3.2v-7.33l11.54,3.89.94-.09,10.77-3.8Z"/>
      </g>
      <text class="cls-25" transform="translate(225.66 446.48)"><tspan x="0" y="0">p</tspan><tspan class="cls-16" x="7.41" y="0">r</tspan><tspan x="11.54" y="0">o </tspan><tspan class="cls-68" x="21.44" y="0">M</tspan><tspan class="cls-50" x="31.99" y="0">on</tspan><tspan class="cls-47" x="46.36" y="0">a</tspan><tspan class="cls-41" x="52.59" y="0">t</tspan></text>
      <path class="cls-2" d="M402.47,38.41c43.76,0,79.24,35.44,79.24,79.15,0,23.44-10.4,45.68-28.41,60.72l-12.71-15.18c25.18-21.03,28.52-58.47,7.47-83.62-11.29-13.49-27.99-21.28-45.59-21.28v-19.79Z"/>
      <path class="cls-30" d="M402.47,38.41c43.76,0,79.24,35.44,79.24,79.15,0,23.44-10.4,45.68-28.41,60.72l-12.71-15.18c25.18-21.03,28.52-58.47,7.47-83.62-11.29-13.49-27.99-21.28-45.59-21.28v-19.79Z"/>
      <path class="cls-6" d="M453.3,178.28c-33.57,28.04-83.54,23.58-111.61-9.95-11.47-13.71-17.97-30.89-18.42-48.75l19.8-.51c.84,32.77,28.12,58.66,60.93,57.82,13.41-.34,26.31-5.21,36.6-13.8l12.71,15.18Z"/>
      <path class="cls-55" d="M453.3,178.28c-33.57,28.04-83.54,23.58-111.61-9.95-11.47-13.71-17.97-30.89-18.42-48.75l19.8-.51c.84,32.77,28.12,58.66,60.93,57.82,13.41-.34,26.31-5.21,36.6-13.8l12.71,15.18Z"/>
      <path class="cls-4" d="M323.26,119.59c-.28-11.02,1.74-21.98,5.95-32.17l18.32,7.54c-3.15,7.64-4.67,15.86-4.46,24.13l-19.8.51Z"/>
      <path class="cls-30" d="M323.26,119.59c-.28-11.02,1.74-21.98,5.95-32.17l18.32,7.54c-3.15,7.64-4.67,15.86-4.46,24.13l-19.8.51Z"/>
      <path class="cls-7" d="M329.21,87.42c6.75-16.36,18.79-29.99,34.2-38.71l9.77,17.21c-11.56,6.54-20.59,16.77-25.65,29.04l-18.32-7.54Z"/>
      <path class="cls-30" d="M329.21,87.42c6.75-16.36,18.79-29.99,34.2-38.71l9.77,17.21c-11.56,6.54-20.59,16.77-25.65,29.04l-18.32-7.54Z"/>
      <path class="cls-3" d="M363.41,48.7c11.91-6.74,25.37-10.29,39.07-10.29v19.79c-10.27,0-20.36,2.66-29.3,7.72l-9.77-17.21Z"/>
      <path class="cls-30" d="M363.41,48.7c11.91-6.74,25.37-10.29,39.07-10.29v19.79c-10.27,0-20.36,2.66-29.3,7.72l-9.77-17.21Z"/>
      <path class="cls-2" d="M403.19,61.14c31.52,0,57.07,25.52,57.07,57.01,0,1.89-.09,3.79-.28,5.67l-14.2-1.42c2.35-23.5-14.81-44.45-38.33-46.8-1.41-.14-2.84-.21-4.26-.21v-14.25Z"/>
      <path class="cls-30" d="M403.19,61.14c31.52,0,57.07,25.52,57.07,57.01,0,1.89-.09,3.79-.28,5.67l-14.2-1.42c2.35-23.5-14.81-44.45-38.33-46.8-1.41-.14-2.84-.21-4.26-.21v-14.25Z"/>
      <path class="cls-5" d="M459.98,123.82c-3.14,31.33-31.1,54.19-62.47,51.06-31.36-3.13-54.25-31.07-51.11-62.4.72-7.21,2.81-14.22,6.17-20.65l12.66,6.58c-10.92,20.95-2.77,46.77,18.2,57.67,20.97,10.9,46.82,2.76,57.73-18.18,2.51-4.82,4.08-10.08,4.62-15.49l14.2,1.42Z"/>
      <path class="cls-30" d="M459.98,123.82c-3.14,31.33-31.1,54.19-62.47,51.06-31.36-3.13-54.25-31.07-51.11-62.4.72-7.21,2.81-14.22,6.17-20.65l12.66,6.58c-10.92,20.95-2.77,46.77,18.2,57.67,20.97,10.9,46.82,2.76,57.73-18.18,2.51-4.82,4.08-10.08,4.62-15.49l14.2,1.42Z"/>
      <path class="cls-4" d="M352.57,91.82c1.84-3.53,4.04-6.85,6.57-9.92l11.01,9.06c-1.9,2.3-3.55,4.79-4.93,7.44l-12.66-6.58Z"/>
      <path class="cls-30" d="M352.57,91.82c1.84-3.53,4.04-6.85,6.57-9.92l11.01,9.06c-1.9,2.3-3.55,4.79-4.93,7.44l-12.66-6.58Z"/>
      <path class="cls-7" d="M359.14,81.9c5.29-6.42,11.93-11.6,19.44-15.19l6.15,12.86c-5.63,2.69-10.61,6.58-14.58,11.39l-11.01-9.06Z"/>
      <path class="cls-30" d="M359.14,81.9c5.29-6.42,11.93-11.6,19.44-15.19l6.15,12.86c-5.63,2.69-10.61,6.58-14.58,11.39l-11.01-9.06Z"/>
      <path class="cls-3" d="M378.58,66.71c7.69-3.67,16.1-5.58,24.62-5.58v14.25c-6.39,0-12.7,1.43-18.46,4.18l-6.15-12.86Z"/>
      <path class="cls-30" d="M378.58,66.71c7.69-3.67,16.1-5.58,24.62-5.58v14.25c-6.39,0-12.7,1.43-18.46,4.18l-6.15-12.86Z"/>
      <g>
        <rect class="cls-15" x="370.64" y="27.2" width="25.44" height="24.06" rx="7.64" ry="7.64"/>
        <g>
          <path class="cls-8" d="M391.24,38.73l-8.28,2.81-9.87-3.41c-.86-.59-.24-.89.41-1.15,3.1-1.21,6.45-2.16,9.58-3.26,3.08,1.2,6.31,2.06,9.39,3.26,1.53.6.64,1.1-.42,1.44.1.51-.15,2.13.09,2.47.14.19.53.22.61.49.1.34.17,1.67-.28,1.75-.23.04-1.63.03-1.79-.05-.04-.02-.18-.17-.18-.18v-1.47c0-.24.73-.57.73-.64v-2.06Z"/>
          <path class="cls-8" d="M389.31,40.28v3.9c-.91.97-2.45,1.56-3.76,1.83-2.94.63-6.51.21-8.89-1.74v-3.99l6.28,2.11.51-.05,5.86-2.07Z"/>
        </g>
      </g>
      <g>
        <rect class="cls-15" x="327.54" y="52.58" width="25.44" height="24.06" rx="7.64" ry="7.64"/>
        <g>
          <path class="cls-8" d="M329.67,61.93c.09-.67.85-1.45,1.53-1.54l17.86.04c.68.27,1.21.85,1.3,1.59-.14,2.13.22,4.57.01,6.66-.02.25-.02.42-.31.47-.63.12-1.57-.08-2.23,0-.2-3.03-4.39-3.01-4.65,0h-6.79c-.27-3.09-4.56-3.13-4.7,0l-2.02-.09v-7.15ZM336.08,65.31v-3.29l-.13-.13h-4.52v3.42h4.65ZM342.48,61.89h-4.65v3.42h4.65v-3.42ZM348.62,61.89h-4.52l-.13.13v3.29h4.65v-3.42Z"/>
          <path class="cls-8" d="M332.95,70.19c-1.33-1.4.71-3.41,2.07-2.11,1.47,1.4-.78,3.47-2.07,2.11Z"/>
          <path class="cls-8" d="M346.57,70.19c-1.32,1.32-3.47-.65-2.12-2.08,1.31-1.4,3.49.72,2.12,2.08Z"/>
        </g>
      </g>
      <g>
        <rect class="cls-15" x="454.13" y="59.1" width="25.44" height="24.06" rx="7.64" ry="7.64"/>
        <g>
          <path class="cls-8" d="M463.3,63.3l.13-.11c.19-.03.52-.06.62.15l.06,3.53c.09.29,1.08.43,1.17-.15.15-.99-.12-2.29.02-3.32.09-.3.72-.29.87-.1.08.1.12.43.14.57.16.96.45,3.21.29,4.09-.11.61-.62,1.24-1.08,1.63-.89.75-1.32.34-1.27,1.75.07,2.29.41,4.63.48,6.92.04,1.21-.1,1.66-1.48,1.48-.9-.12-.54-1.59-.51-2.19.1-2.3.27-4.6.38-6.91-.09-.4-.81-.67-1.14-.93-.48-.38-1.12-1.11-1.22-1.73-.14-.87.15-3.4.33-4.32.13-.69.91-.65.99-.11.16,1.02-.14,2.33.04,3.38.12.25.76.18.99.12.04-.02.16-.22.16-.24v-3.5Z"/>
          <path class="cls-8" d="M469.57,63.12c1.71-.29,2.58.95,2.94,2.43.34,1.4.4,2.64-.81,3.6-.4.32-1.11.47-1.15,1.09-.01.19.08.36.08.54,0,2.79.26,5.57.32,8.36.07.91-1.63.96-1.75.15l.38-9.13c-.39-.89-1.34-.85-1.86-1.81-.76-1.4.04-4.93,1.85-5.24Z"/>
        </g>
      </g>
      <g>
        <rect class="cls-15" x="308.06" y="90.98" width="25.44" height="24.06" rx="7.64" ry="7.64"/>
        <path class="cls-8" d="M312.95,97.82l14.76.09.23.25.07,11.39-.37.59-14.37.07c-.32.03-.54-.12-.7-.37l-.07-11.39.45-.62ZM319.39,99.73c-4.54.66-4.54,7.86,0,8.52,6.84.99,6.84-9.51,0-8.52Z"/>
        <path class="cls-8" d="M324.31,97.44h-1.31c.05-.4-.23-.79-.6-.9-.43-.13-3.58-.13-4.11-.05-.75.12-.75.85-.98.93l-1.24-.05c.08-.97.72-1.89,1.69-2.12.83-.2,3.53-.17,4.45-.09,1.21.11,2.16,1.03,2.08,2.27Z"/>
        <path class="cls-8" d="M320.97,103.28h1.73c.26.16.24,1.15.13,1.32l-1.74.16-.13,1.66-.18.18-1.18-.09-.16-1.74-1.74-.16c-.12-.17-.13-1.16.13-1.32h1.73v-1.73l.2-.16c.11-.03.22-.02.33-.02.3-.03.72-.06.9.18v1.73Z"/>
      </g>
      <g>
        <rect class="cls-15" x="345.04" y="170.08" width="25.44" height="24.06" rx="7.64" ry="7.64"/>
        <path class="cls-8" d="M361.24,176.13v-2.61c0-.66,2.44-.76,2.75-.07.43.98-.2,4.3.1,5.55.52.79,1.92,1.55,1.96,2.57s-1.04,1.81-1.99,1.34c-.18.25.12,5.34-.01,6.27-.12.86-.86,1.62-1.75,1.64-3.23-.24-6.86.3-10.04,0-.9-.08-1.62-.73-1.75-1.64s.17-6.02-.01-6.27c-1.67.51-2.55-1.01-1.49-2.4,1.04-1.36,5.5-5.82,6.85-6.85,2.4-1.83,3.65,1.27,5.37,2.48Z"/>
        <path class="cls-15" d="M356.81,174.73l-7.54,7.33c-.45.86.07,1.4.94.94l6.63-6.52c.38-.15.73.02,1.01.3l6.21,6.23c.9.52,1.46-.22.87-1.02l-7.47-7.25h-.65Z"/>
        <path class="cls-15" d="M356.81,180.45c-1.96.38-1.52,3.62.79,3.08,1.8-.41,1.25-3.48-.79-3.08Z"/>
        <polygon class="cls-15" points="358.71 191.15 358.71 187.79 358.5 187.57 355.78 187.57 355.56 187.79 355.56 191.15 358.71 191.15"/>
      </g>
      <line class="cls-29" x1="176.95" y1="216.49" x2="176.95" y2="431.75"/>
    </g>
  </g>
</svg>